<svg width="97" height="96" viewBox="0 0 97 96" fill="none" xmlns="http://www.w3.org/2000/svg">
<path d="M85.7562 40.6706C89.321 44.157 91.5338 49.0194 91.5338 54.4002C91.5338 65.0034 82.937 73.6002 72.3338 73.6002C61.7306 73.6002 53.1338 65.0034 53.1338 54.4002C53.1338 43.797 61.7306 35.2002 72.3338 35.2002C75.6474 35.2002 78.7658 36.0402 81.4858 37.517" stroke="#00C7FF" stroke-width="3" stroke-miterlimit="10"/>
<path d="M85.1342 68.71V91.1996L72.3342 82.8252L59.5342 91.1996V68.71" stroke="#00C7FF" stroke-width="3" stroke-miterlimit="10"/>
<path d="M65.9336 64H78.7336" stroke="#583AFB" stroke-width="3" stroke-miterlimit="10"/>
<path d="M65.9336 44.7998H72.3336V63.9998" stroke="#583AFB" stroke-width="3" stroke-miterlimit="10"/>
<path d="M54.7308 62.0798C50.6652 66.227 44.9996 68.7998 38.734 68.7998C26.3628 68.7998 16.334 58.771 16.334 46.3998V20.7998H61.134V38.803" stroke="#583AFB" stroke-width="3" stroke-miterlimit="10"/>
<path d="M38.7334 68.7998V83.1998" stroke="#583AFB" stroke-width="3" stroke-miterlimit="10"/>
<path d="M27.5342 83.2002H49.9342" stroke="#583AFB" stroke-width="3" stroke-miterlimit="10"/>
<path d="M30.5401 60.1451C29.5849 59.5739 28.6937 58.9067 27.8809 58.1562" stroke="#00C7FF" stroke-width="3" stroke-miterlimit="10"/>
<path d="M24.735 54.1538C23.4598 51.8562 22.7334 49.213 22.7334 46.4002V43.2002" stroke="#00C7FF" stroke-width="3" stroke-miterlimit="10"/>
<path d="M16.3338 20.7994V15.9994C16.3338 15.1162 15.617 14.3994 14.7338 14.3994H6.73379C5.85059 14.3994 5.13379 15.1162 5.13379 15.9994V33.5994C5.13379 38.017 8.71619 41.5994 13.1338 41.5994H16.3338" stroke="#583AFB" stroke-width="3" stroke-miterlimit="10"/>
<path d="M61.1338 20.7994V15.9994C61.1338 15.1162 61.8506 14.3994 62.7338 14.3994H70.7338C71.617 14.3994 72.3338 15.1162 72.3338 15.9994V33.5994C72.3338 34.1466 72.2794 34.6826 72.1738 35.1994" stroke="#583AFB" stroke-width="3" stroke-miterlimit="10"/>
<path d="M81.9336 9.59961V25.5996" stroke="#C1C4D0" stroke-width="3" stroke-miterlimit="10"/>
<path d="M89.9336 12.7998V17.5998" stroke="#C1C4D0" stroke-width="3" stroke-miterlimit="10"/>
<path d="M89.9336 20.7998V36.7998" stroke="#C1C4D0" stroke-width="3" stroke-miterlimit="10"/>
<path d="M13.1338 60.7998V76.7998" stroke="#C1C4D0" stroke-width="3" stroke-miterlimit="10"/>
<path d="M13.1338 80V84.8" stroke="#C1C4D0" stroke-width="3" stroke-miterlimit="10"/>
<path d="M38.7334 4.7998V12.7998" stroke="#C1C4D0" stroke-width="3" stroke-miterlimit="10"/>
<path d="M45.7725 15.3615L50.8957 10.2383" stroke="#C1C4D0" stroke-width="3" stroke-miterlimit="10"/>
<path d="M31.6955 15.3615L26.5723 10.2383" stroke="#C1C4D0" stroke-width="3" stroke-miterlimit="10"/>
</svg>
