<svg width="97" height="96" viewBox="0 0 97 96" fill="none" xmlns="http://www.w3.org/2000/svg">
<path d="M51.8666 41.7127V33.5511C53.8458 31.5303 55.0666 28.7639 55.0666 25.7127C55.0666 19.5271 50.0522 14.5127 43.8666 14.5127C43.8666 14.5127 37.4666 14.5127 32.6666 14.5127C26.2666 14.5127 20.9162 11.0119 15.6778 6.28711C15.6778 6.28711 10.2666 11.8839 10.2666 20.9127C10.2666 27.9815 17.4298 33.7127 26.2666 33.7127" stroke="#583AFB" stroke-width="3" stroke-miterlimit="10" stroke-linecap="round"/>
<path d="M16.667 31.1543V43.3127C16.667 53.0327 24.547 60.9127 34.267 60.9127C43.987 60.9127 51.867 53.0327 51.867 43.3127V40.1127" stroke="#583AFB" stroke-width="3" stroke-miterlimit="10"/>
<path d="M29.9199 53.6376C31.2575 54.2008 32.7263 54.5128 34.2671 54.5128C38.5807 54.5128 42.3247 52.0744 44.1967 48.5" stroke="#583AFB" stroke-width="3" stroke-miterlimit="10" stroke-linecap="round"/>
<path d="M27.867 59.7129V64.8137C27.867 66.2825 26.867 67.5625 25.443 67.9177L15.939 70.2937C11.6654 71.3641 8.66699 75.2025 8.66699 79.6089V92.9129" stroke="#583AFB" stroke-width="3" stroke-miterlimit="10" stroke-linecap="round"/>
<path d="M40.667 59.7129V64.8137C40.667 66.2825 41.667 67.5625 43.091 67.9177L52.595 70.2937C52.987 70.3913 53.3598 70.5097 53.7294 70.6537" stroke="#583AFB" stroke-width="3" stroke-miterlimit="10"/>
<path d="M22.001 68.7796C25.1674 71.8388 29.5162 73.7124 34.2666 73.7124C39.017 73.7124 43.3594 71.8372 46.5258 68.7764" stroke="#583AFB" stroke-width="3" stroke-miterlimit="10"/>
<path d="M71.0668 91.2C80.787 91.2 88.6668 83.3202 88.6668 73.6C88.6668 63.8798 80.787 56 71.0668 56C61.3466 56 53.4668 63.8798 53.4668 73.6C53.4668 83.3202 61.3466 91.2 71.0668 91.2Z" stroke="#00C7FF" stroke-width="3" stroke-miterlimit="10"/>
<path d="M71.0674 62.3994V84.7994" stroke="#00C7FF" stroke-width="3" stroke-miterlimit="10"/>
<path d="M59.8672 73.5996H82.2672" stroke="#00C7FF" stroke-width="3" stroke-miterlimit="10"/>
<path d="M74.029 46.7804C73.0578 46.6604 72.0706 46.5996 71.0674 46.5996" stroke="#C1C4D0" stroke-width="3" stroke-miterlimit="10"/>
<path d="M91.1008 57.4915C88.0368 52.8579 83.4064 49.3492 77.9648 47.7188" stroke="#C1C4D0" stroke-width="3" stroke-miterlimit="10"/>
<path d="M74.2666 34.7998H83.8666" stroke="#C1C4D0" stroke-width="3" stroke-miterlimit="10"/>
<path d="M70.6426 24.3821L79.2074 19.4365" stroke="#C1C4D0" stroke-width="3" stroke-miterlimit="10"/>
<path d="M63.2383 17.105L68.2303 8.45703" stroke="#C1C4D0" stroke-width="3" stroke-miterlimit="10"/>
</svg>
