<svg width="32" height="32" viewBox="0 0 32 32" fill="none" xmlns="http://www.w3.org/2000/svg">
<path d="M6 16.8916V16.8916C6 17.9714 6 18.5112 6.20299 18.9267C6.39848 19.3269 6.72193 19.6503 7.12208 19.8458C7.53757 20.0488 8.07746 20.0488 9.15723 20.0488L22.8428 20.0488C23.9225 20.0488 24.4624 20.0488 24.8779 19.8458C25.2781 19.6503 25.6015 19.3269 25.797 18.9267C26 18.5112 26 17.9714 26 16.8916V16.8916" stroke="#00C7FF" stroke-width="2" stroke-linecap="round"/>
<path d="M11.5557 12.6934L11.5557 9.41742C11.5557 7.5318 11.5557 6.58899 12.1414 6.00321C12.7272 5.41742 13.67 5.41742 15.5557 5.41742L16.4446 5.41742C18.3302 5.41742 19.273 5.41742 19.8588 6.00321C20.4446 6.58899 20.4446 7.5318 20.4446 9.41742L20.4446 12.6934" stroke="#583AFB" stroke-width="2" stroke-linecap="round"/>
<path d="M6 14.582C6 12.6964 6 11.7536 6.58579 11.1678C7.17157 10.582 8.11438 10.582 10 10.582H22C23.8856 10.582 24.8284 10.582 25.4142 11.1678C26 11.7536 26 12.6964 26 14.582V24.582C26 25.5248 26 25.9962 25.7071 26.2891C25.4142 26.582 24.9428 26.582 24 26.582H8C7.05719 26.582 6.58579 26.582 6.29289 26.2891C6 25.9962 6 25.5248 6 24.582V14.582Z" stroke="#583AFB" stroke-width="2"/>
</svg>
