<svg width="121" height="97" viewBox="0 0 121 97" fill="none" xmlns="http://www.w3.org/2000/svg">
<rect x="25.2041" y="19.0723" width="95.3658" height="65.3937" rx="9" fill="#583AFB"/>
<path fill-rule="evenodd" clip-rule="evenodd" d="M79.55 19.0764L81.8538 19.0764L44.0987 84.4701H41.7949L79.55 19.0764ZM54.2672 84.4701L92.0223 19.0764L95.8984 19.0764L58.1433 84.4701H54.2672ZM70.3166 84.4701H60.2112L97.9663 19.0764L108.072 19.0764L70.3166 84.4701ZM71.8817 84.4701H71.0952L108.85 19.0764L109.637 19.0764L71.8817 84.4701Z" fill="#2C80FD"/>
<path d="M69.3277 76.2153C69.1095 68.9501 63.0431 63.2374 55.7779 63.4555C48.5127 63.6737 42.7999 69.7401 43.0181 77.0053C43.2362 84.2705 49.3027 89.9833 56.5679 89.7651C63.8331 89.547 69.5458 83.4805 69.3277 76.2153Z" fill="#2C80FD"/>
<path fill-rule="evenodd" clip-rule="evenodd" d="M55.7779 63.4561C63.0432 63.2379 69.1096 68.9507 69.3278 76.2159C69.5459 83.4811 63.8332 89.5475 56.568 89.7657C49.3028 89.9839 43.2363 84.2711 43.0182 77.0059C42.8 69.7407 48.5127 63.6742 55.7779 63.4561ZM55.791 63.8951C62.8134 63.6842 68.6771 69.206 68.8879 76.2283C69.0988 83.2507 63.577 89.1143 56.5547 89.3252C49.5323 89.5361 43.6686 84.0143 43.4578 76.9919C43.2469 69.9696 48.7687 64.1059 55.791 63.8951Z" fill="url(#paint0_linear_168_2583)" fill-opacity="0.5"/>
<path opacity="0.5" d="M58.7065 86.4096C64.1451 84.9523 67.3725 79.3622 65.9153 73.9237C64.458 68.4852 58.8679 65.2577 53.4294 66.7149C47.9908 68.1722 44.7634 73.7623 46.2206 79.2009C47.6779 84.6394 53.268 87.8669 58.7065 86.4096Z" fill="#00C7FF"/>
<path opacity="0.5" fill-rule="evenodd" clip-rule="evenodd" d="M50.4242 68.0683C47.7753 69.8277 46.0893 72.7479 45.89 75.9216L50.4242 68.0683ZM46.246 79.2954L53.5239 66.6896C55.3993 66.206 57.2897 66.2775 59.0197 66.8026L49.0917 83.9984C47.772 82.7627 46.7649 81.1613 46.246 79.2954ZM51.8915 85.8625C52.1555 85.9812 52.4247 86.0888 52.6984 86.1849L62.7166 68.8328C62.4965 68.6438 62.2688 68.4645 62.034 68.2952L51.8915 85.8625Z" fill="#00C7FF"/>
<path d="M57.8766 80.5899L58.229 81.905L57.0548 82.2196L56.7108 80.9358C55.6578 81.1864 54.5552 81.1327 53.5315 80.781L53.7896 79.1765C54.5932 79.4627 55.4568 79.5375 56.2976 79.3938L55.7628 77.3977C54.3716 77.4349 52.7898 77.3553 52.3473 75.7037C52.0138 74.459 52.6182 73.1141 54.433 72.4349L54.0848 71.1355L55.259 70.8209L55.603 72.1046C56.4597 71.9245 57.347 71.9513 58.1912 72.1829L57.9843 73.7905C57.3451 73.6114 56.676 73.5652 56.0183 73.6545L56.5552 75.6584C57.9442 75.6134 59.5125 75.705 59.9467 77.3253C60.2802 78.57 59.6631 79.8679 57.8766 80.5899ZM55.3076 75.6991L54.8609 74.0317C54.2724 74.3404 54.122 74.7499 54.2248 75.1334C54.3276 75.517 54.7469 75.6731 55.3076 75.6991ZM58.0964 77.9973C57.9852 77.5824 57.5821 77.4555 57.0334 77.4432L57.4676 79.0635C58.0206 78.7475 58.1971 78.373 58.0964 77.9973Z" fill="white"/>
<rect x="25.2041" y="19.0723" width="95.3658" height="10.2178" rx="5.10888" fill="#00C7FF"/>
<path opacity="0.25" d="M34.7402 24.5234H73.5677H112.395C112.395 24.5234 106.946 25.2046 73.5677 25.2046C40.1897 25.2046 34.7402 24.5234 34.7402 24.5234Z" fill="#583AFB"/>
<path opacity="0.25" d="M0 89.6885L21.4573 89.2344L42.9146 89.6885C42.9146 89.6885 39.9031 90.5967 21.4573 90.5967C3.01155 90.5967 0 89.6885 0 89.6885Z" fill="#583AFB"/>
<path opacity="0.25" d="M44.958 89.6885L55.5164 89.2344L66.0747 89.6885C66.0747 89.6885 64.5928 90.5967 55.5164 90.5967C46.4399 90.5967 44.958 89.6885 44.958 89.6885Z" fill="#583AFB"/>
<path opacity="0.25" d="M17.0293 84.2393L68.7993 83.7852L120.569 84.2393C120.569 84.2393 113.303 85.1475 68.7993 85.1475C24.2953 85.1475 17.0293 84.2393 17.0293 84.2393Z" fill="#583AFB"/>
<mask id="mask0_168_2583" style="mask-type:alpha" maskUnits="userSpaceOnUse" x="25" y="0" width="96" height="25">
<rect width="95.3658" height="24.5226" transform="matrix(1 0 0 -1 25.2031 24.5234)" fill="#D9D9D9"/>
</mask>
<g mask="url(#mask0_168_2583)">
<rect x="36.1025" width="75.6115" height="40.8711" rx="3" fill="#F5F5F5"/>
<rect x="40.1895" y="4.08789" width="67.4373" height="32.6968" rx="1" fill="#583AFB"/>
<rect x="40.1895" y="4.08789" width="67.4373" height="32.6968" rx="1" fill="#EEEBFD" fill-opacity="0.74"/>
<rect x="44.2773" y="8.17383" width="59.263" height="24.5226" fill="#F5F5F5"/>
<path d="M44.2773 14.9857C48.0394 14.9857 51.0892 11.9359 51.0892 8.17383H44.2773V14.9857Z" fill="#C7BDFC"/>
<path d="M103.54 14.9857C99.778 14.9857 96.7282 11.9359 96.7282 8.17383H103.54V14.9857Z" fill="#C7BDFC"/>
<circle cx="74.249" cy="20.4346" r="10.2178" fill="#C7BDFC"/>
<path d="M74.957 14.082V16.3867H73.7383V14.082H74.957ZM74.8086 26.8398V28.9414H73.5898V26.8398H74.8086ZM75.668 24.2773C75.668 23.9805 75.6133 23.7279 75.5039 23.5195C75.3997 23.3112 75.2279 23.1263 74.9883 22.9648C74.7539 22.8034 74.4362 22.6471 74.0352 22.4961C73.3581 22.2357 72.7617 21.9596 72.2461 21.668C71.7357 21.3711 71.3372 21.0039 71.0508 20.5664C70.7643 20.1237 70.6211 19.5638 70.6211 18.8867C70.6211 18.2409 70.7747 17.681 71.082 17.207C71.3893 16.7331 71.8138 16.3685 72.3555 16.1133C72.9023 15.8529 73.5378 15.7227 74.2617 15.7227C74.8138 15.7227 75.3138 15.806 75.7617 15.9727C76.2096 16.1341 76.5951 16.3737 76.918 16.6914C77.2409 17.0039 77.4883 17.3867 77.6602 17.8398C77.832 18.293 77.918 18.8112 77.918 19.3945H75.6758C75.6758 19.082 75.6419 18.806 75.5742 18.5664C75.5065 18.3268 75.4076 18.1263 75.2773 17.9648C75.1523 17.8034 75.0013 17.6836 74.8242 17.6055C74.6471 17.5221 74.4518 17.4805 74.2383 17.4805C73.9206 17.4805 73.6602 17.543 73.457 17.668C73.2539 17.793 73.1055 17.9622 73.0117 18.1758C72.9232 18.3841 72.8789 18.6237 72.8789 18.8945C72.8789 19.1602 72.9258 19.3919 73.0195 19.5898C73.1185 19.7878 73.2878 19.9701 73.5273 20.1367C73.7669 20.2982 74.0951 20.4648 74.5117 20.6367C75.1888 20.8971 75.7826 21.1784 76.293 21.4805C76.8034 21.7826 77.2018 22.1523 77.4883 22.5898C77.7747 23.0273 77.918 23.5846 77.918 24.2617C77.918 24.9336 77.7617 25.5065 77.4492 25.9805C77.1367 26.4492 76.6992 26.8086 76.1367 27.0586C75.5742 27.3034 74.9232 27.4258 74.1836 27.4258C73.7044 27.4258 73.2279 27.3633 72.7539 27.2383C72.2799 27.1081 71.8503 26.8997 71.4648 26.6133C71.0794 26.3268 70.7721 25.9466 70.543 25.4727C70.3138 24.9935 70.1992 24.4049 70.1992 23.707H72.4492C72.4492 24.0872 72.4987 24.4049 72.5977 24.6602C72.6966 24.9102 72.8268 25.1107 72.9883 25.2617C73.1549 25.4076 73.3424 25.5117 73.5508 25.5742C73.7591 25.6367 73.9701 25.668 74.1836 25.668C74.5169 25.668 74.7904 25.6081 75.0039 25.4883C75.2227 25.3685 75.3867 25.2044 75.4961 24.9961C75.6107 24.7826 75.668 24.543 75.668 24.2773Z" fill="#F5F5F5"/>
</g>
<path fill-rule="evenodd" clip-rule="evenodd" d="M120.57 51.768H110.57C116.091 51.768 120.567 47.2938 120.57 41.7734V51.768ZM79.358 51.7688C75.784 51.7688 72.8867 54.6661 72.8867 58.2401C72.8867 61.8141 75.784 64.7113 79.358 64.7113H114.825C117.998 64.7113 120.57 62.1393 120.57 58.9664V51.7688H79.358Z" fill="#00C7FF"/>
<circle cx="79.3578" cy="58.2407" r="3.74651" fill="#583AFB"/>
<rect x="4.69727" y="82.4102" width="33.9472" height="7.31964" rx="2" fill="#2C80FD"/>
<rect x="7.24707" y="82.4102" width="17.5956" height="7.31964" fill="#16A3FE"/>
<rect x="11.8848" y="82.4102" width="6.99361" height="7.31964" fill="#0BB5FF"/>
<path opacity="0.25" fill-rule="evenodd" clip-rule="evenodd" d="M5.83452 89.7298C5.20643 89.7298 4.69727 89.2206 4.69727 88.5925H38.6444C38.6444 89.2206 38.1353 89.7298 37.5072 89.7298H5.83452Z" fill="#583AFB"/>
<path opacity="0.5" fill-rule="evenodd" clip-rule="evenodd" d="M5.83452 82.4108C5.20643 82.4108 4.69727 82.92 4.69727 83.5481H38.6444C38.6444 82.92 38.1353 82.4108 37.5072 82.4108H5.83452Z" fill="#00C7FF"/>
<rect x="7.24707" y="75.0898" width="33.9472" height="7.31964" rx="2" fill="#2C80FD"/>
<rect x="9.79688" y="75.0898" width="17.5956" height="7.31964" fill="#16A3FE"/>
<rect x="14.4346" y="75.0898" width="6.99361" height="7.31964" fill="#0BB5FF"/>
<path opacity="0.25" fill-rule="evenodd" clip-rule="evenodd" d="M8.38433 82.4095C7.75624 82.4095 7.24707 81.9003 7.24707 81.2722H41.1942C41.1942 81.9003 40.6851 82.4095 40.057 82.4095H8.38433Z" fill="#583AFB"/>
<path opacity="0.5" fill-rule="evenodd" clip-rule="evenodd" d="M8.38433 75.0905C7.75624 75.0905 7.24707 75.5997 7.24707 76.2278H41.1942C41.1942 75.5997 40.6851 75.0905 40.057 75.0905H8.38433Z" fill="#00C7FF"/>
<rect x="4.67969" y="67.7715" width="33.9472" height="7.31964" rx="2" fill="#2C80FD"/>
<rect x="7.22949" y="67.7715" width="17.5956" height="7.31964" fill="#16A3FE"/>
<rect x="11.8672" y="67.7715" width="6.99361" height="7.31964" fill="#0BB5FF"/>
<path opacity="0.25" fill-rule="evenodd" clip-rule="evenodd" d="M5.81695 75.0911C5.18886 75.0911 4.67969 74.582 4.67969 73.9539H38.6268C38.6268 74.582 38.1177 75.0911 37.4896 75.0911H5.81695Z" fill="#583AFB"/>
<path opacity="0.5" fill-rule="evenodd" clip-rule="evenodd" d="M5.81695 67.7722C5.18886 67.7722 4.67969 68.2813 4.67969 68.9094H38.6268C38.6268 68.2813 38.1177 67.7722 37.4896 67.7722H5.81695Z" fill="#00C7FF"/>
<rect x="9.50391" y="60.4512" width="33.9472" height="7.31964" rx="2" fill="#2C80FD"/>
<rect x="12.0537" y="60.4512" width="17.5956" height="7.31964" fill="#16A3FE"/>
<rect x="16.6914" y="60.4512" width="6.99361" height="7.31964" fill="#0BB5FF"/>
<path opacity="0.25" fill-rule="evenodd" clip-rule="evenodd" d="M10.6412 67.7708C10.0131 67.7708 9.50391 67.2616 9.50391 66.6336H43.4511C43.4511 67.2616 42.9419 67.7708 42.3138 67.7708H10.6412Z" fill="#583AFB"/>
<path opacity="0.5" fill-rule="evenodd" clip-rule="evenodd" d="M10.6412 60.4518C10.0131 60.4518 9.50391 60.961 9.50391 61.5891H43.4511C43.4511 60.961 42.9419 60.4518 42.3138 60.4518H10.6412Z" fill="#00C7FF"/>
<rect x="0.680664" y="53.1309" width="33.9472" height="7.31964" rx="2" fill="#2C80FD"/>
<rect x="3.23047" y="53.1309" width="17.5956" height="7.31964" fill="#16A3FE"/>
<rect x="7.86816" y="53.1309" width="6.99361" height="7.31964" fill="#0BB5FF"/>
<path opacity="0.25" fill-rule="evenodd" clip-rule="evenodd" d="M1.81792 60.4505C1.18983 60.4505 0.680664 59.9413 0.680664 59.3132H34.6278C34.6278 59.9413 34.1187 60.4505 33.4906 60.4505H1.81792Z" fill="#583AFB"/>
<path opacity="0.5" fill-rule="evenodd" clip-rule="evenodd" d="M1.81792 53.1315C1.18983 53.1315 0.680664 53.6407 0.680664 54.2688H34.6278C34.6278 53.6407 34.1187 53.1315 33.4906 53.1315H1.81792Z" fill="#00C7FF"/>
<defs>
<linearGradient id="paint0_linear_168_2583" x1="44.2426" y1="68.7042" x2="59.2338" y2="89.5816" gradientUnits="userSpaceOnUse">
<stop stop-color="#0BB5FF"/>
<stop offset="1" stop-color="#583AFB"/>
</linearGradient>
</defs>
</svg>
