<svg width="49" height="48" viewBox="0 0 49 48" fill="none" xmlns="http://www.w3.org/2000/svg">
<rect x="0.75" width="48" height="48" rx="24" fill="#0B0E11"/>
<path d="M19.3124 21.7658L24.7501 16.3284L30.1906 21.7687L33.3546 18.6047L24.7501 10L16.1484 18.6018L19.3124 21.7658Z" fill="#F6CB2B"/>
<path d="M17.078 23.9995L13.9141 20.8356L10.75 23.9997L13.9139 27.1636L17.078 23.9995Z" fill="#F6CB2B"/>
<path d="M19.3124 26.2342L24.7501 31.6716L30.1903 26.2315L33.3561 29.3937L33.3546 29.3955L24.7501 38L16.1438 29.394L19.3124 26.2342Z" fill="#F6CB2B"/>
<path d="M35.5863 27.1651L38.7504 24.001L35.5865 20.8371L32.4224 24.0012L35.5863 27.1651Z" fill="#F6CB2B"/>
<path d="M27.9594 23.9983H27.9607L24.7501 20.7877L21.5379 23.9999L21.5423 24.0045L24.7501 27.2123L27.9607 24.0017L27.9623 23.9999L27.9594 23.9983Z" fill="#F6CB2B"/>
</svg>
