<svg width="24" height="25" viewBox="0 0 24 25" fill="none" xmlns="http://www.w3.org/2000/svg">
<path d="M7.33922 11.0215L12 6.36089L16.6633 11.024L19.3753 8.312L12 0.936523L4.62722 8.30953L7.33922 11.0215Z" fill="#F6CB2B"/>
<path d="M5.42403 12.9361L2.71208 10.2242L0 12.9362L2.71195 15.6482L5.42403 12.9361Z" fill="#F6CB2B"/>
<path d="M7.33922 14.8515L12 19.5122L16.6631 14.8492L19.3767 17.5597L19.3753 17.5612L12 24.9365L4.62324 17.5599L7.33922 14.8515Z" fill="#F6CB2B"/>
<path d="M21.2883 15.6495L24.0004 12.9374L21.2884 10.2254L18.5763 12.9375L21.2883 15.6495Z" fill="#F6CB2B"/>
<path d="M14.7509 12.9351H14.752L12 10.1831L9.24673 12.9364L9.25052 12.9404L12 15.6899L14.752 12.9379L14.7534 12.9364L14.7509 12.9351Z" fill="#F6CB2B"/>
</svg>
