<?xml version="1.0" encoding="utf-8"?>
<!-- Generator: Adobe Illustrator 21.0.0, SVG Export Plug-In . SVG Version: 6.00 Build 0)  -->
<svg version="1.1" id="Слой_1" xmlns="http://www.w3.org/2000/svg" xmlns:xlink="http://www.w3.org/1999/xlink" x="0px" y="0px"
	 viewBox="0 0 29 28" style="enable-background:new 0 0 29 28;" xml:space="preserve">
<style type="text/css">
	.st0{clip-path:url(#SVGID_2_);}
	.st1{fill:#583AFB;}
	.st2{fill:#FFFFFF;}
</style>
<g>
	<defs>
		<rect id="SVGID_1_" width="29" height="28"/>
	</defs>
	<clipPath id="SVGID_2_">
		<use xlink:href="#SVGID_1_"  style="overflow:visible;"/>
	</clipPath>
	<g class="st0">
		<path class="st1" d="M14.3,0L14.3,0c7.7,0,14,6.3,14,14l0,0c0,7.7-6.3,14-14,14l0,0c-7.7,0-14-6.3-14-14l0,0C0.3,6.3,6.5,0,14.3,0
			z"/>
		<path class="st2" d="M10.6,12.5l3.7-3.7l3.7,3.7l2.1-2.1l-5.8-5.8l-5.8,5.8L10.6,12.5z"/>
		<path class="st2" d="M9.1,14l-2.1-2.1L4.8,14l2.1,2.1L9.1,14z"/>
		<path class="st2" d="M10.6,15.5l3.7,3.7l3.7-3.7l2.1,2.1l0,0l-5.8,5.8l-5.8-5.8L10.6,15.5z"/>
		<path class="st2" d="M21.6,16.1l2.1-2.1l-2.1-2.1L19.5,14L21.6,16.1z"/>
		<path class="st2" d="M16.4,14L16.4,14l-2.2-2.2L12.1,14l0,0l2.2,2.2L16.4,14L16.4,14L16.4,14z"/>
	</g>
</g>
</svg>
