<svg width="96" height="96" viewBox="0 0 96 96" fill="none" xmlns="http://www.w3.org/2000/svg">
<g clip-path="url(#clip0_117_1536)">
<path d="M70.4062 36H71.9998C73.7502 36 75.2798 36.9344 76.1182 38.3344L80.9182 46.3344" stroke="#583AFB" stroke-width="3" stroke-miterlimit="10"/>
<path d="M81.5998 76V90.4C81.5998 93.0512 79.451 95.2 76.7998 95.2H17.5998C14.9486 95.2 12.7998 93.0512 12.7998 90.4V45.6C12.7998 40.2976 17.0974 36 22.3998 36H47.9982" stroke="#583AFB" stroke-width="3" stroke-miterlimit="10"/>
<path d="M30.4854 59V64.4857" stroke="#00C7FF" stroke-width="3" stroke-miterlimit="10"/>
<path d="M30.4854 79.1143V84.6" stroke="#00C7FF" stroke-width="3" stroke-miterlimit="10"/>
<path d="M25 75.4568C25 77.4774 27.4558 79.1139 30.4857 79.1139C33.5157 79.1139 35.9714 77.4774 35.9714 75.4568C35.9714 73.4362 33.5157 71.7996 30.4857 71.7996C27.4558 71.7996 25 70.1631 25 68.1425C25 66.1219 27.4558 64.4854 30.4857 64.4854C33.5157 64.4854 35.9714 66.1219 35.9714 68.1425" stroke="#00C7FF" stroke-width="3" stroke-miterlimit="10"/>
<path d="M76.7996 87.2002H73.5996V90.4002H76.7996V87.2002Z" fill="#00C7FF"/>
<path d="M70.4002 87.2002H67.2002V90.4002H70.4002V87.2002Z" fill="#00C7FF"/>
<path d="M63.9998 87.2002H60.7998V90.4002H63.9998V87.2002Z" fill="#00C7FF"/>
<path d="M51.3632 44.0024C49.288 41.9704 48 39.1352 48 36.0008C48 29.8152 53.0144 24.8008 59.2 24.8008C65.3856 24.8008 70.4 29.8152 70.4 36.0008C70.4 39.1352 69.112 41.9688 67.0368 44.0024" stroke="#00C7FF" stroke-width="3" stroke-miterlimit="10"/>
<path d="M54.4004 36.0002C54.4004 33.349 56.5492 31.2002 59.2004 31.2002" stroke="#00C7FF" stroke-width="3" stroke-miterlimit="10"/>
<path d="M32.0004 29.6004C37.3023 29.6004 41.6004 25.3023 41.6004 20.0004C41.6004 14.6985 37.3023 10.4004 32.0004 10.4004C26.6985 10.4004 22.4004 14.6985 22.4004 20.0004C22.4004 25.3023 26.6985 29.6004 32.0004 29.6004Z" stroke="#00C7FF" stroke-width="3" stroke-miterlimit="10"/>
<path d="M28.7998 20.0008C28.7998 18.2328 30.2318 16.8008 31.9998 16.8008" stroke="#00C7FF" stroke-width="3" stroke-miterlimit="10"/>
<path d="M63.5092 25.6662C62.8052 24.4742 62.4004 23.0854 62.4004 21.6006C62.4004 17.183 65.9828 13.6006 70.4004 13.6006C74.818 13.6006 78.4004 17.183 78.4004 21.6006C78.4004 26.0182 74.818 29.6006 70.4004 29.6006C69.6212 29.6006 68.8676 29.4886 68.1556 29.2806" stroke="#00C7FF" stroke-width="3" stroke-miterlimit="10"/>
<path d="M81.6002 63.2V48.8C81.6002 46.1488 79.4514 44 76.8002 44H19.2002" stroke="#583AFB" stroke-width="3" stroke-miterlimit="10" stroke-linecap="round"/>
<path d="M72.0006 76.0002C68.4662 76.0002 65.6006 73.1346 65.6006 69.6002C65.6006 66.0658 68.4662 63.2002 72.0006 63.2002H83.2006C84.0838 63.2002 84.8006 63.917 84.8006 64.8002V74.4002C84.8006 75.2834 84.0838 76.0002 83.2006 76.0002H72.0006Z" stroke="#583AFB" stroke-width="3" stroke-miterlimit="10"/>
<path d="M4.7998 52.7996V49.5996" stroke="#C1C4D0" stroke-width="3" stroke-miterlimit="10"/>
<path d="M4.7998 46.3994V30.3994" stroke="#C1C4D0" stroke-width="3" stroke-miterlimit="10"/>
<path d="M16 27.2V24" stroke="#C1C4D0" stroke-width="3" stroke-miterlimit="10"/>
<path d="M16 20.7996V17.5996" stroke="#C1C4D0" stroke-width="3" stroke-miterlimit="10"/>
<path d="M8 22.3992V19.1992" stroke="#C1C4D0" stroke-width="3" stroke-miterlimit="10"/>
<path d="M8 15.9992V3.19922" stroke="#C1C4D0" stroke-width="3" stroke-miterlimit="10"/>
<path d="M57.5996 14.3992V11.1992" stroke="#C1C4D0" stroke-width="3" stroke-miterlimit="10"/>
<path d="M57.5996 7.9998V4.7998" stroke="#C1C4D0" stroke-width="3" stroke-miterlimit="10"/>
<path d="M48 15.9992V3.19922" stroke="#C1C4D0" stroke-width="3" stroke-miterlimit="10"/>
<path d="M88 38.3992V35.1992" stroke="#C1C4D0" stroke-width="3" stroke-miterlimit="10"/>
<path d="M88 32V16" stroke="#C1C4D0" stroke-width="3" stroke-miterlimit="10"/>
<path d="M91.2002 9.59961V1.59961" stroke="#C1C4D0" stroke-width="3" stroke-miterlimit="10"/>
<path d="M83.2002 7.9998V4.7998" stroke="#C1C4D0" stroke-width="3" stroke-miterlimit="10"/>
<path d="M73.6004 68H70.4004V71.2H73.6004V68Z" fill="#00C7FF"/>
</g>
<defs>
<clipPath id="clip0_117_1536">
<rect width="96" height="96" fill="white"/>
</clipPath>
</defs>
</svg>
