<svg width="40" height="40" viewBox="0 0 40 40" fill="none" xmlns="http://www.w3.org/2000/svg">
<path d="M36.666 28.3327H3.33268C2.89065 28.3327 2.46673 28.5083 2.15417 28.8208C1.84161 29.1334 1.66602 29.5573 1.66602 29.9993C1.66602 30.4414 1.84161 30.8653 2.15417 31.1779C2.46673 31.4904 2.89065 31.666 3.33268 31.666H36.666C37.108 31.666 37.532 31.4904 37.8445 31.1779C38.1571 30.8653 38.3327 30.4414 38.3327 29.9993C38.3327 29.5573 38.1571 29.1334 37.8445 28.8208C37.532 28.5083 37.108 28.3327 36.666 28.3327ZM36.666 34.9993H3.33268C2.89065 34.9993 2.46673 35.1749 2.15417 35.4875C1.84161 35.8001 1.66602 36.224 1.66602 36.666C1.66602 37.108 1.84161 37.532 2.15417 37.8445C2.46673 38.1571 2.89065 38.3327 3.33268 38.3327H36.666C37.108 38.3327 37.532 38.1571 37.8445 37.8445C38.1571 37.532 38.3327 37.108 38.3327 36.666C38.3327 36.224 38.1571 35.8001 37.8445 35.4875C37.532 35.1749 37.108 34.9993 36.666 34.9993ZM33.3327 1.66602H6.66602C5.33993 1.66602 4.06816 2.1928 3.13048 3.13048C2.1928 4.06816 1.66602 5.33993 1.66602 6.66602V19.9993C1.66602 21.3254 2.1928 22.5972 3.13048 23.5349C4.06816 24.4726 5.33993 24.9993 6.66602 24.9993H33.3327C34.6588 24.9993 35.9305 24.4726 36.8682 23.5349C37.8059 22.5972 38.3327 21.3254 38.3327 19.9993V6.66602C38.3327 5.33993 37.8059 4.06816 36.8682 3.13048C35.9305 2.1928 34.6588 1.66602 33.3327 1.66602ZM34.9993 19.9993C34.9993 20.4414 34.8238 20.8653 34.5112 21.1779C34.1986 21.4904 33.7747 21.666 33.3327 21.666H6.66602C6.22399 21.666 5.80006 21.4904 5.4875 21.1779C5.17494 20.8653 4.99935 20.4414 4.99935 19.9993V6.66602C4.99935 6.22399 5.17494 5.80006 5.4875 5.4875C5.80006 5.17494 6.22399 4.99935 6.66602 4.99935H33.3327C33.7747 4.99935 34.1986 5.17494 34.5112 5.4875C34.8238 5.80006 34.9993 6.22399 34.9993 6.66602V19.9993Z" fill="#583AFB"/>
<path d="M9.9987 11.6654C9.66906 11.6654 9.34683 11.7631 9.07275 11.9462C8.79867 12.1294 8.58505 12.3897 8.4589 12.6942C8.33275 12.9988 8.29975 13.3339 8.36406 13.6572C8.42837 13.9805 8.5871 14.2775 8.82019 14.5105C9.05328 14.7436 9.35025 14.9024 9.67355 14.9667C9.99685 15.031 10.332 14.998 10.6365 14.8718C10.941 14.7457 11.2013 14.5321 11.3845 14.258C11.5676 13.9839 11.6654 13.6617 11.6654 13.332C11.6654 12.89 11.4898 12.4661 11.1772 12.1535C10.8646 11.841 10.4407 11.6654 9.9987 11.6654ZM19.9987 8.33203C19.0098 8.33203 18.0431 8.62528 17.2208 9.17468C16.3986 9.72409 15.7577 10.505 15.3793 11.4186C15.0009 12.3322 14.9018 13.3376 15.0948 14.3075C15.2877 15.2774 15.7639 16.1683 16.4632 16.8676C17.1624 17.5668 18.0533 18.043 19.0232 18.236C19.9932 18.4289 20.9985 18.3299 21.9121 17.9514C22.8257 17.573 23.6066 16.9321 24.156 16.1099C24.7055 15.2876 24.9987 14.3209 24.9987 13.332C24.9987 12.0059 24.4719 10.7342 23.5342 9.7965C22.5965 8.85882 21.3248 8.33203 19.9987 8.33203ZM19.9987 14.9987C19.6691 14.9987 19.3468 14.9009 19.0727 14.7178C18.7987 14.5347 18.585 14.2744 18.4589 13.9698C18.3328 13.6653 18.2997 13.3302 18.3641 13.0069C18.4284 12.6836 18.5871 12.3866 18.8202 12.1535C19.0533 11.9204 19.3502 11.7617 19.6735 11.6974C19.9968 11.6331 20.332 11.6661 20.6365 11.7922C20.941 11.9184 21.2013 12.132 21.3845 12.4061C21.5676 12.6802 21.6654 13.0024 21.6654 13.332C21.6654 13.7741 21.4898 14.198 21.1772 14.5105C20.8646 14.8231 20.4407 14.9987 19.9987 14.9987ZM29.9987 11.6654C29.6691 11.6654 29.3468 11.7631 29.0727 11.9462C28.7987 12.1294 28.585 12.3897 28.4589 12.6942C28.3328 12.9988 28.2997 13.3339 28.3641 13.6572C28.4284 13.9805 28.5871 14.2775 28.8202 14.5105C29.0533 14.7436 29.3502 14.9024 29.6735 14.9667C29.9968 15.031 30.332 14.998 30.6365 14.8718C30.941 14.7457 31.2013 14.5321 31.3845 14.258C31.5676 13.9839 31.6654 13.6617 31.6654 13.332C31.6654 12.89 31.4898 12.4661 31.1772 12.1535C30.8646 11.841 30.4407 11.6654 29.9987 11.6654Z" fill="#00C7FF"/>
</svg>
