<svg width="24" height="24" viewBox="0 0 24 24" fill="none" xmlns="http://www.w3.org/2000/svg">
<path d="M7.11133 9.33301L7.11133 16.6663" stroke="#00C7FF" stroke-width="2" stroke-linecap="round" stroke-linejoin="round"/>
<path d="M12 11.7773V16.6662" stroke="#583AFB" stroke-width="2" stroke-linecap="round" stroke-linejoin="round"/>
<path d="M16.8887 6.88867V16.6664" stroke="#00C7FF" stroke-width="2" stroke-linecap="round" stroke-linejoin="round"/>
<path d="M1 10C1 6.22877 1 4.34315 2.17157 3.17157C3.34315 2 5.22876 2 9 2H15C18.7712 2 20.6569 2 21.8284 3.17157C23 4.34315 23 6.22876 23 10V13.5556C23 17.3268 23 19.2124 21.8284 20.384C20.6569 21.5556 18.7712 21.5556 15 21.5556H9C5.22876 21.5556 3.34315 21.5556 2.17157 20.384C1 19.2124 1 17.3268 1 13.5556V10Z" stroke="#583AFB" stroke-width="2"/>
</svg>
