<svg width="33" height="32" viewBox="0 0 33 32" fill="none" xmlns="http://www.w3.org/2000/svg">
<path d="M26.25 4L16.8238 13.3889L13.1457 9.53704L6.25 17" stroke="#583AFB" stroke-width="2" stroke-linecap="round" stroke-linejoin="round"/>
<path d="M6.25 26.5986V23.4354C6.25 22.8831 6.69772 22.4354 7.25 22.4354H11.284V19.3537C11.284 18.8015 11.7317 18.3537 12.284 18.3537H15.0459C15.5982 18.3537 16.0459 18.8015 16.0459 19.3537V20.3946H21.4881V15C21.4881 14.4477 21.9358 14 22.4881 14H25.25C25.8023 14 26.25 14.4477 26.25 15V26.5986C26.25 27.1509 25.8023 27.5986 25.25 27.5986H21.4881H16.0459H11.284H7.25C6.69772 27.5986 6.25 27.1509 6.25 26.5986Z" fill="white"/>
<path d="M11.284 22.4354H7.25C6.69772 22.4354 6.25 22.8831 6.25 23.4354V26.5986C6.25 27.1509 6.69772 27.5986 7.25 27.5986H11.284M11.284 22.4354V27.5986M11.284 22.4354V19.3537C11.284 18.8015 11.7317 18.3537 12.284 18.3537H15.0459C15.5982 18.3537 16.0459 18.8015 16.0459 19.3537V20.3946M11.284 27.5986H16.0459M16.0459 27.5986V20.3946M16.0459 27.5986H21.4881M16.0459 20.3946H21.4881M21.4881 20.3946V27.5986M21.4881 20.3946V15C21.4881 14.4477 21.9358 14 22.4881 14H25.25C25.8023 14 26.25 14.4477 26.25 15V26.5986C26.25 27.1509 25.8023 27.5986 25.25 27.5986H21.4881" stroke="#583AFB" stroke-width="2"/>
</svg>
