<svg width="25" height="24" viewBox="0 0 25 24" fill="none" xmlns="http://www.w3.org/2000/svg">
<path d="M7.61133 9.33301L7.61133 16.6663" stroke="#00C7FF" stroke-width="2" stroke-linecap="round" stroke-linejoin="round"/>
<path d="M12.5 11.7773V16.6662" stroke="#F7F8FA" stroke-width="2" stroke-linecap="round" stroke-linejoin="round"/>
<path d="M17.3887 6.88867V16.6664" stroke="#00C7FF" stroke-width="2" stroke-linecap="round" stroke-linejoin="round"/>
<path d="M1.5 10C1.5 6.22877 1.5 4.34315 2.67157 3.17157C3.84315 2 5.72876 2 9.5 2H15.5C19.2712 2 21.1569 2 22.3284 3.17157C23.5 4.34315 23.5 6.22876 23.5 10V13.5556C23.5 17.3268 23.5 19.2124 22.3284 20.384C21.1569 21.5556 19.2712 21.5556 15.5 21.5556H9.5C5.72876 21.5556 3.84315 21.5556 2.67157 20.384C1.5 19.2124 1.5 17.3268 1.5 13.5556V10Z" stroke="#F7F8FA" stroke-width="2"/>
</svg>
