<?xml version="1.0" encoding="utf-8"?>
<!-- Generator: Adobe Illustrator 21.0.0, SVG Export Plug-In . SVG Version: 6.00 Build 0)  -->
<svg version="1.1" id="Слой_1" xmlns="http://www.w3.org/2000/svg" xmlns:xlink="http://www.w3.org/1999/xlink" x="0px" y="0px"
	 viewBox="0 0 22.3 23" style="enable-background:new 0 0 22.3 23;" xml:space="preserve">
<style type="text/css">
	.st0{fill:none;stroke:#583AFB;stroke-width:2;}
	.st1{fill:none;stroke:#583AFB;stroke-width:2;stroke-linecap:round;stroke-linejoin:round;}
</style>
<path class="st0" d="M19.3,11.2c0-3.8,0-5.7-1.2-6.8c-1.2-1.2-3.1-1.2-6.8-1.2l0,0c-3.8,0-5.7,0-6.8,1.2c-1.2,1.2-1.2,3.1-1.2,6.8v6
	c0,0.9,0,1.4,0.3,1.7c0.3,0.3,0.8,0.3,1.7,0.3h6c3.8,0,5.7,0,6.8-1.2C19.3,16.9,19.3,15,19.3,11.2L19.3,11.2z"/>
<path class="st1" d="M8.3,11.2h6"/>
<path class="st1" d="M11.3,8.2v6"/>
</svg>
