<svg width="40" height="40" viewBox="0 0 40 40" fill="none" xmlns="http://www.w3.org/2000/svg">
<path d="M20 35C23.4703 35 26.8333 33.7967 29.5159 31.5952C32.1985 29.3936 34.0348 26.33 34.7118 22.9264C35.3888 19.5227 34.8647 15.9896 33.2288 12.9291C31.5929 9.86849 28.9464 7.46985 25.7403 6.14181C22.5341 4.81377 18.9666 4.63851 15.6457 5.64589C12.3248 6.65328 9.45597 8.78097 7.52796 11.6664C5.59995 14.5519 4.73208 18.0166 5.07223 21.4703C5.41238 24.9239 6.9395 28.1527 9.3934 30.6066" stroke="#00C7FF" stroke-width="2" stroke-linecap="round"/>
<path d="M26.667 16.667L19.7357 24.9845C19.0801 25.7712 18.7523 26.1646 18.3118 26.1846C17.8712 26.2045 17.5092 25.8425 16.785 25.1184L13.3337 21.667" stroke="#583AFB" stroke-width="2" stroke-linecap="round"/>
</svg>
