<?xml version="1.0" encoding="utf-8"?>
<!-- Generator: Adobe Illustrator 21.0.0, SVG Export Plug-In . SVG Version: 6.00 Build 0)  -->
<svg version="1.1" id="Слой_1" xmlns="http://www.w3.org/2000/svg" xmlns:xlink="http://www.w3.org/1999/xlink" x="0px" y="0px"
	 viewBox="0 0 28 28" style="enable-background:new 0 0 28 28;" xml:space="preserve">
<style type="text/css">
	.st0{fill:url(#SVGID_1_);}
	.st1{fill:#E5E8ED;}
	.st2{fill:#FFFFFF;}
</style>
<linearGradient id="SVGID_1_" gradientUnits="userSpaceOnUse" x1="14" y1="30.01" x2="14" y2="2.01" gradientTransform="matrix(1 0 0 -1 0 30.01)">
	<stop  offset="0" style="stop-color:#7390FE"/>
	<stop  offset="1" style="stop-color:#24D2DA"/>
</linearGradient>
<path class="st0" d="M14,28c7.7,0,14-6.3,14-14c0-7.7-6.3-14-14-14C6.3,0,0,6.3,0,14C0,21.7,6.3,28,14,28z"/>
<path class="st1" d="M13.3,5.6c0.2-0.1,0.4-0.1,0.5-0.2c-0.7,1.1-1.4,2.3-2,3.4c-0.1,0.2-0.4,0.2-0.6,0.4C11,9.5,11,9.8,11,10.2
	c-0.8,1.2-1.5,2.5-2.3,3.7c-1.1-0.6-2.2-1.3-3.3-1.9c0-1,0-2.1,0-3.1c0.4,0.2,0.7,0.4,1.1,0.6C8.8,8.2,11,6.9,13.3,5.6z"/>
<path class="st1" d="M8.8,13.9c0.7-1.2,1.5-2.4,2.2-3.6c0.2,0.5,0.8,0.6,1.2,0.9c0,0.5,0,1.1,0,1.6v0c-1.1,0.4-2.1,0.8-3.1,1.3
	C9,14.1,8.9,14,8.8,13.9z"/>
<path class="st1" d="M9.3,14.2c1.1-0.4,2.1-0.9,3.2-1.3c0,1,0,2.1,0,3.1C11.4,15.4,10.3,14.8,9.3,14.2z"/>
<path class="st1" d="M5.8,14.5c0.7,0.4,1.4,0.8,2.1,1.2c0.2,0.1,0.4,0.2,0.6,0.4c1.8,2.5,3.5,5,5.3,7.6c-0.3,0-0.6-0.2-0.9-0.4
	c-2.1-1.2-4.3-2.4-6.4-3.7c-0.4-0.2-0.7-0.7-0.7-1.2C5.8,17.1,5.8,15.8,5.8,14.5z"/>
<path class="st1" d="M8.7,16.1c1.3,0.7,2.5,1.4,3.8,2.1l0,0c-0.1,0.1-0.1,0.3-0.1,0.5c0,0.9,0,1.7,0,2.6
	C11.1,19.6,9.9,17.8,8.7,16.1z"/>
<path class="st2" d="M14.1,5.4c0.4,0.1,0.7,0.3,1,0.5c2.1,1.2,4.2,2.4,6.3,3.6c0.4,0.2,0.7,0.7,0.7,1.2c0,1.3,0,2.6,0,4
	c-1.2-0.6-2.3-1.3-3.5-2c-0.1-0.1-0.3-0.1-0.3-0.3C16.9,10.1,15.5,7.7,14.1,5.4z"/>
<path class="st2" d="M11.9,8.9c0.7-1.1,1.3-2.2,2-3.2c0,1.4,0,2.8,0,4.2c-0.5-0.3-1-0.6-1.5-0.8C12.2,9,12,9,11.9,8.9z"/>
<path class="st2" d="M14.1,5.7c1.3,2.2,2.7,4.4,4,6.6c-1.3-0.7-2.7-1.5-4-2.3C14.1,8.6,14.1,7.2,14.1,5.7z"/>
<path class="st2" d="M12.2,11.2c0.5,0.3,1.1,0.6,1.6,1c-0.5,0.2-1.1,0.4-1.6,0.7C12.2,12.3,12.2,11.7,12.2,11.2z"/>
<path class="st2" d="M14.1,12.3c1.5,0.9,3,1.7,4.6,2.6c-1.3,0.8-2.7,1.6-4,2.4c-0.2-0.1-0.4-0.2-0.6-0.3
	C14.1,15.4,14.1,13.8,14.1,12.3z"/>
<path class="st2" d="M12.4,12.9c0.5-0.2,0.9-0.4,1.4-0.6c0,1.5,0,3,0,4.5c-0.5-0.3-0.9-0.5-1.4-0.8l0,0
	C12.5,14.9,12.5,13.9,12.4,12.9z"/>
<path class="st2" d="M18.9,15c1.2,0.7,2.5,1.4,3.7,2.1c0,1,0,2.1,0,3.1c-0.4-0.2-0.7-0.4-1.1-0.6c-2.2,1.3-4.5,2.6-6.7,3.8
	c-0.2,0.1-0.4,0.2-0.6,0.2c1.8-2.6,3.6-5.1,5.4-7.6c-1.2,0.7-2.4,1.3-3.5,2c-0.4-0.2-0.8-0.4-1.2-0.7C16.2,16.6,17.5,15.8,18.9,15z"
	/>
<path class="st2" d="M16.1,18.1c1-0.6,2-1.1,3-1.7c-0.7,1-1.4,2-2.1,2.9c0-0.3,0-0.6-0.3-0.9C16.5,18.3,16.3,18.2,16.1,18.1z"/>
<path class="st2" d="M12.3,18.7c0-0.2,0.1-0.3,0.1-0.5c0.5,0.2,0.9,0.5,1.4,0.8c0,1.5,0,2.9,0,4.4c-0.5-0.7-1-1.4-1.5-2.1
	C12.3,20.4,12.3,19.6,12.3,18.7z"/>
<path class="st2" d="M14.1,19.2c0.5,0.3,1,0.6,1.5,0.8c0.3,0.2,0.6,0.1,0.9,0c-0.8,1.1-1.6,2.3-2.4,3.4C14.1,22,14.1,20.6,14.1,19.2
	z"/>
</svg>
