<?xml version="1.0" encoding="utf-8"?>
<!-- Generator: Adobe Illustrator 21.0.0, SVG Export Plug-In . SVG Version: 6.00 Build 0)  -->
<svg version="1.1" id="Слой_1" xmlns="http://www.w3.org/2000/svg" xmlns:xlink="http://www.w3.org/1999/xlink" x="0px" y="0px"
	 viewBox="0 0 24.2 24.1" style="enable-background:new 0 0 24.2 24.1;" xml:space="preserve">
<style type="text/css">
	.st0{clip-path:url(#SVGID_2_);}
	.st1{fill:#627EEA;}
	.st2{fill:#FFFFFF;fill-opacity:0.602;}
	.st3{fill:#FFFFFF;}
	.st4{fill:#FFFFFF;fill-opacity:0.2;}
	.st5{fill:none;stroke:#FFFFFF;stroke-width:2;}
</style>
<g>
	<defs>
		<path id="SVGID_1_" d="M12.1,0.1L12.1,0.1c6.6,0,12,5.4,12,12l0,0c0,6.6-5.4,12-12,12l0,0c-6.6,0-12-5.4-12-12l0,0
			C0.1,5.4,5.4,0.1,12.1,0.1z"/>
	</defs>
	<clipPath id="SVGID_2_">
		<use xlink:href="#SVGID_1_"  style="overflow:visible;"/>
	</clipPath>
	<g class="st0">
		<path class="st1" d="M12.1,24.1c6.6,0,12-5.4,12-12c0-6.6-5.4-12-12-12s-12,5.4-12,12C0.1,18.7,5.4,24.1,12.1,24.1z"/>
		<path class="st2" d="M12.4,3.1v6.7l5.6,2.5L12.4,3.1z"/>
		<path class="st3" d="M12.4,3.1l-5.6,9.2l5.6-2.5V3.1z"/>
		<path class="st2" d="M12.4,16.6v4.5l5.6-7.8L12.4,16.6z"/>
		<path class="st3" d="M12.4,21.1v-4.5l-5.6-3.3L12.4,21.1z"/>
		<path class="st4" d="M12.4,15.5l5.6-3.3l-5.6-2.5V15.5z"/>
		<path class="st2" d="M6.8,12.2l5.6,3.3V9.7L6.8,12.2z"/>
	</g>
</g>
<path class="st5" d="M12.1-0.9L12.1-0.9c7.2,0,13,5.8,13,13l0,0c0,7.2-5.8,13-13,13l0,0c-7.2,0-13-5.8-13-13l0,0
	C-0.9,4.9,4.9-0.9,12.1-0.9z"/>
</svg>
