<svg width="21" height="21" viewBox="0 0 21 21" fill="none" xmlns="http://www.w3.org/2000/svg">
<path opacity="0.2" d="M8.95362 5.71004C9.60913 4.07587 9.93688 3.25879 10.5005 3.25879C11.0641 3.25879 11.3918 4.07587 12.0473 5.71004L12.0779 5.78613C12.4482 6.70936 12.6334 7.17097 13.0107 7.45154C13.3881 7.73212 13.8835 7.77648 14.8743 7.86521L15.0534 7.88125C16.6749 8.02647 17.4856 8.09908 17.6591 8.6149C17.8326 9.13072 17.2305 9.67851 16.0263 10.7741L15.6244 11.1397C15.0148 11.6943 14.71 11.9716 14.568 12.3351C14.5415 12.4029 14.5194 12.4723 14.502 12.543C14.4086 12.9219 14.4979 13.3242 14.6764 14.1287L14.7319 14.3791C15.06 15.8578 15.224 16.5971 14.9376 16.916C14.8306 17.0351 14.6915 17.1209 14.537 17.1631C14.1235 17.2759 13.5364 16.7975 12.3623 15.8408C11.5913 15.2125 11.2059 14.8984 10.7633 14.8278C10.5892 14.8 10.4118 14.8 10.2377 14.8278C9.79511 14.8984 9.40962 15.2125 8.63865 15.8408C7.46452 16.7975 6.87746 17.2759 6.46396 17.1631C6.30944 17.1209 6.17035 17.0351 6.06333 16.916C5.77693 16.5971 5.94096 15.8578 6.26902 14.3791L6.32459 14.1287C6.50309 13.3242 6.59235 12.9219 6.49897 12.543C6.48155 12.4723 6.45952 12.4029 6.43302 12.3351C6.29096 11.9716 5.98616 11.6943 5.37657 11.1397L4.97467 10.7741C3.77047 9.67851 3.16837 9.13072 3.34185 8.6149C3.51533 8.09908 4.32609 8.02647 5.9476 7.88125L6.12671 7.86521C7.11748 7.77648 7.61286 7.73212 7.99023 7.45154C8.36761 7.17097 8.55277 6.70936 8.9231 5.78613L8.95362 5.71004Z" stroke="black" stroke-width="1.5"/>
</svg>
