<svg width="20" height="20" viewBox="0 0 20 20" fill="none" xmlns="http://www.w3.org/2000/svg">
<path d="M8.58909 6.0168C9.12415 4.68289 9.39168 4.01594 9.82633 3.9235C9.94061 3.8992 10.0587 3.8992 10.173 3.9235C10.6077 4.01594 10.8752 4.68289 11.4103 6.0168C11.7145 6.77536 11.8667 7.15465 12.1514 7.41262C12.2312 7.48498 12.3179 7.54942 12.4102 7.60505C12.7392 7.80336 13.15 7.84014 13.9714 7.91372C15.3621 8.03826 16.0574 8.10053 16.2697 8.49698C16.3137 8.57909 16.3436 8.66799 16.3582 8.75999C16.4286 9.20418 15.9174 9.66923 14.8951 10.5993L14.6112 10.8576C14.1332 11.2924 13.8943 11.5099 13.756 11.7812C13.6731 11.944 13.6175 12.1193 13.5915 12.3001C13.548 12.6015 13.618 12.9169 13.758 13.5477L13.808 13.7731C14.059 14.9044 14.1845 15.47 14.0278 15.748C13.8871 15.9978 13.6279 16.1577 13.3416 16.1713C13.0228 16.1866 12.5736 15.8206 11.6753 15.0886C11.0835 14.6063 10.7876 14.3652 10.4591 14.271C10.1589 14.1849 9.8405 14.1849 9.54029 14.271C9.21178 14.3652 8.91586 14.6063 8.32402 15.0886C7.42571 15.8206 6.97655 16.1866 6.65779 16.1713C6.37145 16.1577 6.11225 15.9978 5.97153 15.748C5.81487 15.47 5.94036 14.9044 6.19136 13.7731L6.24137 13.5477C6.38133 12.9169 6.45131 12.6015 6.40788 12.3001C6.38183 12.1193 6.32623 11.944 6.24332 11.7812C6.10509 11.5099 5.86611 11.2924 5.38816 10.8576L5.10426 10.5993C4.08194 9.66923 3.57078 9.20418 3.64117 8.75999C3.65575 8.66799 3.68565 8.57909 3.72963 8.49698C3.94196 8.10053 4.63728 8.03826 6.02791 7.91372C6.8494 7.84014 7.26014 7.80336 7.58917 7.60505C7.68146 7.54942 7.76814 7.48498 7.84799 7.41262C8.13267 7.15465 8.28481 6.77536 8.58909 6.0168Z" fill="#FFC01F" stroke="#FFC01F" stroke-width="1.5"/>
</svg>
