<svg width="96" height="96" viewBox="0 0 96 96" fill="none" xmlns="http://www.w3.org/2000/svg">
<g clip-path="url(#clip0_185_1270)">
<path d="M25.6006 25.6001V18.0977" stroke="#583AFB" stroke-width="3" stroke-miterlimit="10"/>
<path d="M25.9014 54.6338L23.6982 67.4178L48.7846 60.9282" stroke="#583AFB" stroke-width="3" stroke-miterlimit="10"/>
<path d="M39.6696 63.2865L24.9912 59.9121" stroke="#583AFB" stroke-width="3" stroke-miterlimit="10"/>
<path d="M33.6004 20.8002C26.066 20.8002 22.4068 15.4802 22.4004 12.1186C22.3972 10.7042 22.666 9.97142 24.0004 3.82422C26.2868 5.81462 28.2404 8.00022 32.1476 8.00022H38.4004C43.7012 8.00022 48.0004 12.2994 48.0004 17.6002V27.2002C48.0004 33.3858 42.986 38.4002 36.8004 38.4002C30.6164 38.4002 25.6004 33.3858 25.6004 27.2002V24.0002" stroke="#583AFB" stroke-width="3" stroke-miterlimit="10"/>
<path d="M22.4004 78.3809V96.0001" stroke="#583AFB" stroke-width="3" stroke-miterlimit="10"/>
<path d="M51.2002 78.3809V96.0001" stroke="#583AFB" stroke-width="3" stroke-miterlimit="10"/>
<path d="M47.7016 54.634L50.0232 68.1012L26.1048 77.5684C24.7128 78.1172 23.2344 78.4004 21.7384 78.4004C16.8024 78.4004 12.8008 74.3988 12.8008 69.4612C12.8008 69.0228 12.8328 68.5812 12.8984 68.146L15.3352 51.7732C15.8248 48.4868 18.2952 45.8452 21.5416 45.1364L30.4008 43.2004L31.5608 37.0996" stroke="#583AFB" stroke-width="3" stroke-miterlimit="10"/>
<path d="M36.8008 73.3332L47.4984 77.5668C48.8888 78.1172 50.3672 78.4004 51.8632 78.4004C56.7976 78.4004 60.8008 74.3988 60.8008 69.4612C60.8008 69.0228 60.7672 68.5812 60.7032 68.146L58.2664 51.7732C57.7752 48.4868 55.3064 45.8452 52.06 45.1364L43.2008 43.2004L42.0424 37.0996" stroke="#583AFB" stroke-width="3" stroke-miterlimit="10"/>
<path d="M43.2004 43.2002C43.2004 43.2002 40.7508 46.4002 36.8004 46.4002C32.85 46.4002 30.4004 43.2002 30.4004 43.2002" stroke="#583AFB" stroke-width="3" stroke-miterlimit="10"/>
<path d="M11.2004 40.0004C13.8514 40.0004 16.0004 37.8514 16.0004 35.2004C16.0004 32.5494 13.8514 30.4004 11.2004 30.4004C8.54942 30.4004 6.40039 32.5494 6.40039 35.2004C6.40039 37.8514 8.54942 40.0004 11.2004 40.0004Z" stroke="#00C7FF" stroke-width="3" stroke-miterlimit="10"/>
<path d="M65.6008 38.3998C68.2517 38.3998 70.4008 36.2508 70.4008 33.5998C70.4008 30.9488 68.2517 28.7998 65.6008 28.7998C62.9498 28.7998 60.8008 30.9488 60.8008 33.5998C60.8008 36.2508 62.9498 38.3998 65.6008 38.3998Z" stroke="#00C7FF" stroke-width="3" stroke-miterlimit="10"/>
<path d="M84.8 22.3998C87.451 22.3998 89.6 20.2508 89.6 17.5998C89.6 14.9488 87.451 12.7998 84.8 12.7998C82.149 12.7998 80 14.9488 80 17.5998C80 20.2508 82.149 22.3998 84.8 22.3998Z" stroke="#00C7FF" stroke-width="3" stroke-miterlimit="10"/>
<path d="M14.8887 32.128L20.0199 27.8496" stroke="#00C7FF" stroke-width="3" stroke-miterlimit="10"/>
<path d="M69.2852 30.5281L81.1172 20.6689" stroke="#00C7FF" stroke-width="3" stroke-miterlimit="10"/>
<path d="M53.2344 26.4678L61.444 31.2022" stroke="#00C7FF" stroke-width="3" stroke-miterlimit="10"/>
<path d="M65.6006 43.2002V62.4002" stroke="#C1C4D0" stroke-width="3" stroke-miterlimit="10"/>
<path d="M84.8008 27.2002V62.4002" stroke="#C1C4D0" stroke-width="3" stroke-miterlimit="10"/>
<path d="M75.2002 35.2002V62.4002" stroke="#C1C4D0" stroke-width="3" stroke-miterlimit="10"/>
<path d="M72 85V85.5C72 86.881 73.119 88 74.5 88H77.5C78.881 88 80 86.881 80 85.5C80 84.119 78.881 83 77.5 83H74.5C73.119 83 72 81.881 72 80.5C72 79.119 73.119 78 74.5 78H77.5C78.881 78 80 79.119 80 80.5V81" stroke="#583AFB" stroke-width="3" stroke-miterlimit="10"/>
<path d="M76 75V78" stroke="#583AFB" stroke-width="3" stroke-miterlimit="10"/>
<path d="M76 88V91" stroke="#583AFB" stroke-width="3" stroke-miterlimit="10"/>
<path d="M64.1875 80.879C65.1875 75.263 70.0955 71 75.9995 71C82.6265 71 87.9995 76.373 87.9995 83C87.9995 89.627 82.6265 95 75.9995 95C70.8395 95 66.4395 91.743 64.7445 87.173" stroke="#00C7FF" stroke-width="3" stroke-miterlimit="10"/>
<path d="M64.139 84.832C64.047 84.234 64 83.623 64 83" stroke="#00C7FF" stroke-width="3" stroke-miterlimit="10"/>
</g>
<defs>
<clipPath id="clip0_185_1270">
<rect width="96" height="96" fill="white"/>
</clipPath>
</defs>
</svg>
