<svg width="96" height="96" viewBox="0 0 96 96" fill="none" xmlns="http://www.w3.org/2000/svg">
<path d="M67.9918 85.4022C60.6494 83.3862 54.5438 78.3814 51.083 71.7734" stroke="#583AFB" stroke-width="2" stroke-miterlimit="10"/>
<path d="M59.8779 68.2773C62.5595 73.2613 67.3819 76.9221 73.1131 78.0389" stroke="#583AFB" stroke-width="2" stroke-miterlimit="10"/>
<path d="M46.0658 81.1285C43.557 77.9829 42.197 74.6373 40.877 70.7461" stroke="#583AFB" stroke-width="2" stroke-miterlimit="10"/>
<path d="M58.9291 91.2034C55.6939 89.717 52.7211 87.7554 50.1035 85.4082" stroke="#583AFB" stroke-width="2" stroke-miterlimit="10"/>
<path d="M30.4014 62.293C30.5262 74.6434 36.4158 86.2914 45.811 93.541" stroke="#583AFB" stroke-width="2" stroke-miterlimit="10"/>
<path d="M74.805 69.8008C70.3842 68.3016 67.2002 64.1256 67.2002 59.1992" stroke="#583AFB" stroke-width="2" stroke-miterlimit="10"/>
<path d="M27.971 87.6488C23.6142 80.1176 20.7998 68.5256 20.7998 59.1992" stroke="#583AFB" stroke-width="2" stroke-miterlimit="10"/>
<path d="M26.3134 11.6152C18.251 20.0776 13.011 33.1496 12.7998 47.8744" stroke="#583AFB" stroke-width="2" stroke-miterlimit="10"/>
<path d="M77.3996 22.0748C71.0364 9.85241 59.9596 1.59961 47.9996 1.59961C42.3724 1.59961 37.0524 3.36921 32.334 6.51801" stroke="#583AFB" stroke-width="2" stroke-miterlimit="10"/>
<path d="M83.2002 47.8757C83.0962 40.6517 81.7826 33.8245 79.5186 27.7461" stroke="#583AFB" stroke-width="2" stroke-miterlimit="10"/>
<path d="M48.0002 72.0004C59.4877 72.0004 68.8002 62.6879 68.8002 51.2004C68.8002 39.7129 59.4877 30.4004 48.0002 30.4004C36.5127 30.4004 27.2002 39.7129 27.2002 51.2004C27.2002 62.6879 36.5127 72.0004 48.0002 72.0004Z" stroke="#00C7FF" stroke-width="2" stroke-miterlimit="10"/>
<path d="M39.9998 59.1992H36.7998V62.3992H39.9998V59.1992Z" fill="#583AFB"/>
<path d="M35.2 54.4004H32V57.6004H35.2V54.4004Z" fill="#583AFB"/>
<path d="M59.2 59.1992H56V62.3992H59.2V59.1992Z" fill="#583AFB"/>
<path d="M63.9998 54.4004H60.7998V57.6004H63.9998V54.4004Z" fill="#583AFB"/>
<path d="M43.458 21.1784C44.9348 20.9272 46.4532 20.8008 48.0004 20.8008C63.0228 20.8008 75.2004 32.7512 75.2004 54.4008V62.4008" stroke="#583AFB" stroke-width="2" stroke-miterlimit="10"/>
<path d="M20.7998 54.3996C20.7998 38.6876 27.2142 28.0844 36.475 23.4492" stroke="#583AFB" stroke-width="2" stroke-miterlimit="10"/>
<path d="M24.7715 25.044C29.2371 16.7992 37.9651 11.1992 48.0003 11.1992C54.3635 11.1992 61.4995 13.9864 66.3315 18.508" stroke="#583AFB" stroke-width="2" stroke-miterlimit="10"/>
<path d="M56 46.4004C56 41.9828 52.4176 38.4004 48 38.4004C43.5824 38.4004 40 41.9828 40 46.4004C40 49.6788 41.976 52.49 44.8 53.7252V60.8004C44.8 62.5668 46.2336 64.0004 48 64.0004C49.7664 64.0004 51.2 62.5668 51.2 60.8004V53.7252C54.024 52.49 56 49.6788 56 46.4004V46.4004Z" stroke="#00C7FF" stroke-width="2" stroke-miterlimit="10"/>
</svg>
