<svg width="25" height="24" viewBox="0 0 25 24" fill="none" xmlns="http://www.w3.org/2000/svg">
<circle cx="12.832" cy="8" r="3.25" stroke="#838D9B" stroke-width="1.5" stroke-linecap="round"/>
<path d="M15.8835 7.875C16.1818 7.35821 16.6733 6.98111 17.2497 6.82667C17.8261 6.67222 18.4402 6.75307 18.957 7.05144C19.4738 7.34981 19.8509 7.84125 20.0054 8.41766C20.1598 8.99406 20.079 9.60821 19.7806 10.125C19.4822 10.6418 18.9908 11.0189 18.4144 11.1733C17.838 11.3278 17.2238 11.2469 16.707 10.9486C16.1902 10.6502 15.8131 10.1587 15.6587 9.58234C15.5043 9.00594 15.5851 8.39179 15.8835 7.875L15.8835 7.875Z" stroke="#838D9B" stroke-width="1.5"/>
<path d="M5.88347 7.875C6.18184 7.35821 6.67328 6.98111 7.24969 6.82667C7.82609 6.67222 8.44024 6.75307 8.95703 7.05144C9.47382 7.34981 9.85092 7.84125 10.0054 8.41766C10.1598 8.99406 10.079 9.60821 9.78059 10.125C9.48222 10.6418 8.99078 11.0189 8.41437 11.1733C7.83797 11.3278 7.22382 11.2469 6.70703 10.9486C6.19024 10.6502 5.81315 10.1587 5.6587 9.58234C5.50425 9.00594 5.58511 8.39179 5.88347 7.875L5.88347 7.875Z" stroke="#838D9B" stroke-width="1.5"/>
<path d="M17.7141 18L16.9788 18.1481L17.1001 18.75H17.7141V18ZM21.5527 16.9042L22.2595 16.6534L21.5527 16.9042ZM15.6133 14.7105L15.1596 14.1133L14.2922 14.7721L15.2172 15.3474L15.6133 14.7105ZM20.6997 17.25H17.7141V18.75H20.6997V17.25ZM20.8458 17.1549C20.8499 17.1663 20.8507 17.1732 20.851 17.1759C20.8512 17.1787 20.851 17.1799 20.8509 17.1802C20.8509 17.1805 20.8506 17.1817 20.8496 17.1839C20.8486 17.1861 20.8464 17.19 20.8425 17.1949C20.8259 17.2156 20.78 17.25 20.6997 17.25V18.75C21.7096 18.75 22.6688 17.8073 22.2595 16.6534L20.8458 17.1549ZM17.8325 14.75C19.6374 14.75 20.4595 16.0658 20.8458 17.1549L22.2595 16.6534C21.8057 15.374 20.6176 13.25 17.8325 13.25V14.75ZM16.0669 15.3078C16.4942 14.9833 17.059 14.75 17.8325 14.75V13.25C16.7261 13.25 15.8437 13.5937 15.1596 14.1133L16.0669 15.3078ZM15.2172 15.3474C16.3425 16.0473 16.7992 17.2559 16.9788 18.1481L18.4493 17.8519C18.2368 16.7969 17.6517 15.0951 16.0094 14.0737L15.2172 15.3474Z" fill="#838D9B"/>
<path d="M10.0503 14.7105L10.4464 15.3474L11.3714 14.7721L10.5039 14.1133L10.0503 14.7105ZM4.11092 16.9041L4.81777 17.1549L4.81777 17.1549L4.11092 16.9041ZM7.94947 18V18.75H8.56348L8.68471 18.1481L7.94947 18ZM7.83113 14.75C8.60463 14.75 9.1694 14.9833 9.59665 15.3078L10.5039 14.1133C9.81992 13.5937 8.93753 13.25 7.83113 13.25V14.75ZM4.81777 17.1549C5.20407 16.0658 6.02618 14.75 7.83113 14.75V13.25C5.04599 13.25 3.85787 15.374 3.40406 16.6534L4.81777 17.1549ZM4.9639 17.25C4.88363 17.25 4.83772 17.2156 4.82109 17.1949C4.81713 17.19 4.81502 17.1861 4.81396 17.1839C4.81295 17.1817 4.81271 17.1805 4.81264 17.1802C4.8126 17.1799 4.81237 17.1787 4.8126 17.1759C4.81283 17.1732 4.81372 17.1663 4.81777 17.1549L3.40406 16.6534C2.99477 17.8073 3.95401 18.75 4.9639 18.75V17.25ZM7.94947 17.25H4.9639V18.75H7.94947V17.25ZM8.68471 18.1481C8.86439 17.2559 9.32106 16.0473 10.4464 15.3474L9.6542 14.0736C8.01188 15.0951 7.42672 16.7969 7.21423 17.8519L8.68471 18.1481Z" fill="#838D9B"/>
<path d="M12.832 14C16.4036 14 17.4239 16.5512 17.7154 18.0089C17.8237 18.5504 17.3843 19 16.832 19H8.83203C8.27975 19 7.84032 18.5504 7.94862 18.0089C8.24013 16.5512 9.26049 14 12.832 14Z" stroke="#838D9B" stroke-width="1.5" stroke-linecap="round"/>
</svg>
