<?xml version="1.0" encoding="utf-8"?>
<!-- Generator: Adobe Illustrator 21.0.0, SVG Export Plug-In . SVG Version: 6.00 Build 0)  -->
<svg version="1.1" id="Слой_1" xmlns="http://www.w3.org/2000/svg" xmlns:xlink="http://www.w3.org/1999/xlink" x="0px" y="0px"
	 viewBox="0 0 28 28" style="enable-background:new 0 0 28 28;" xml:space="preserve">
<style type="text/css">
	.st0{fill:#00B67A;}
	.st1{fill:#FFFFFF;}
</style>
<path class="st0" d="M14,28c7.7,0,14-6.3,14-14c0-7.7-6.3-14-14-14C6.3,0,0,6.3,0,14C0,21.7,6.3,28,14,28z"/>
<path class="st1" d="M12.1,11.9h7.2v1.6h-7.2V11.9z"/>
<path class="st1" d="M19.3,14.5h-7.2v1.6h5.3v1.5c-0.7,0.6-2.1,0.9-2.1,0.9c-4.1,0.7-5.4-2.8-5.4-2.8c-1.2-4.1,1.7-5.7,1.7-5.7
	c3.5-2.1,6.2,0.6,6.2,0.6l1.3-1.2c-2.1-2.4-5.3-1.9-5.3-1.9c-5.2,0.5-5.9,4.9-5.9,4.9C7,16,9.4,18.4,9.4,18.4c4.4,4.4,10,0.4,10,0.4
	L19.3,14.5L19.3,14.5z"/>
</svg>
