<svg width="97" height="96" viewBox="0 0 97 96" fill="none" xmlns="http://www.w3.org/2000/svg">
<path d="M26.3098 93.5712L44.5898 82.9936C46.7082 81.7648 48.4186 79.9472 49.5546 77.7776C50.769 75.4592 52.681 72.2896 55.185 69.6496C59.857 64.72 72.5418 55.0304 72.5418 55.0304C73.4314 54.3456 73.9338 53.2128 73.9338 52C73.9338 49.7904 72.1434 48 69.9338 48C69.0554 48 68.2282 48.2576 67.5866 48.7616L55.161 58.5232C54.0762 59.3744 52.9466 60.1664 51.777 60.896L38.2426 69.3392C37.2522 69.9568 36.0618 70.4 34.7338 70.4C31.641 70.4 29.1338 68.2512 29.1338 65.6V52C29.1338 49.7904 27.3434 48 25.1338 48C22.9242 48 21.1338 49.7904 21.1338 52V56.1968C21.1338 59.7632 19.6874 61.7424 17.913 64.856C15.7866 68.5936 15.4666 71.1024 14.0426 77.504C12.9258 82.5344 11.017 84.7328 5.9082 92.2992" stroke="#583AFB" stroke-width="3" stroke-miterlimit="10" stroke-linecap="round"/>
<path d="M41.3086 41.5998L44.6206 30.5118C44.923 29.4958 45.859 28.7998 46.9214 28.7998H52.947C54.0062 28.7998 54.9422 29.4974 55.2478 30.5118L58.5598 41.5998" stroke="#00C7FF" stroke-width="3" stroke-miterlimit="10"/>
<path d="M52.9473 28.7998H75.3473C76.4065 28.7998 77.3425 29.4974 77.6481 30.5118L80.9601 41.5998" stroke="#00C7FF" stroke-width="3" stroke-miterlimit="10"/>
<path d="M73.9344 33.5996H70.7344V36.7996H73.9344V33.5996Z" fill="#583AFB"/>
<path d="M67.534 33.5996H64.334V36.7996H67.534V33.5996Z" fill="#583AFB"/>
<path d="M28.5088 28.8L31.8208 17.712C32.1232 16.696 33.0592 16 34.1216 16H40.1472C41.2064 16 42.1424 16.6976 42.448 17.712L45.76 28.8" stroke="#00C7FF" stroke-width="3" stroke-miterlimit="10"/>
<path d="M40.1465 16H62.5465C63.6057 16 64.5417 16.6976 64.8473 17.712L68.1593 28.8" stroke="#00C7FF" stroke-width="3" stroke-miterlimit="10"/>
<path d="M61.1336 20.7998H57.9336V23.9998H61.1336V20.7998Z" fill="#583AFB"/>
<path d="M54.7342 20.7998H51.5342V23.9998H54.7342V20.7998Z" fill="#583AFB"/>
<path d="M14.1084 41.5998L17.4204 30.5118C17.7228 29.4958 18.6588 28.7998 19.7212 28.7998H25.7468C26.806 28.7998 27.742 29.4974 28.0476 30.5118L31.3596 41.5998" stroke="#00C7FF" stroke-width="3" stroke-miterlimit="10"/>
<path d="M25.7471 28.7998H46.9215" stroke="#00C7FF" stroke-width="3" stroke-miterlimit="10"/>
<path d="M83.5336 41.5996H11.5336C10.6488 41.5996 9.93359 42.3148 9.93359 43.1996V46.3996C9.93359 47.2844 10.6488 47.9996 11.5336 47.9996H83.5336C84.4184 47.9996 85.1336 47.2844 85.1336 46.3996V43.1996C85.1336 42.3148 84.4184 41.5996 83.5336 41.5996Z" stroke="#583AFB" stroke-width="3" stroke-miterlimit="10"/>
<path d="M39.5293 68.5376L46.5309 51.008C47.2573 49.192 49.0189 48 50.9741 48" stroke="#583AFB" stroke-width="3" stroke-miterlimit="10"/>
<path d="M48.334 10V2" stroke="#C1C4D0" stroke-width="3" stroke-miterlimit="10" stroke-linecap="round"/>
<path d="M24.7674 12.7004L22.1338 5.59961" stroke="#C1C4D0" stroke-width="3" stroke-miterlimit="10" stroke-linecap="round"/>
<path d="M6.19922 20.2334L10.6344 26.867" stroke="#C1C4D0" stroke-width="3" stroke-miterlimit="10" stroke-linecap="round"/>
<path d="M71.9004 12.7004L74.534 5.59961" stroke="#C1C4D0" stroke-width="3" stroke-miterlimit="10" stroke-linecap="round"/>
<path d="M90.4662 20.2334L86.0342 26.867" stroke="#C1C4D0" stroke-width="3" stroke-miterlimit="10" stroke-linecap="round"/>
<path d="M75.5332 68.7998V76.7998" stroke="#C1C4D0" stroke-width="3" stroke-miterlimit="10"/>
<path d="M75.5332 83.2002V91.2002" stroke="#C1C4D0" stroke-width="3" stroke-miterlimit="10"/>
<path d="M86.7334 80H78.7334" stroke="#C1C4D0" stroke-width="3" stroke-miterlimit="10"/>
<path d="M72.334 80H64.334" stroke="#C1C4D0" stroke-width="3" stroke-miterlimit="10"/>
<path d="M50.5557 61.6576L54.5429 51.68C54.6677 51.3632 54.7333 51.0256 54.7333 50.6848C54.7333 49.2016 53.5317 48 52.0485 48" stroke="#583AFB" stroke-width="3" stroke-miterlimit="10"/>
</svg>
