<svg width="24" height="24" viewBox="0 0 24 24" fill="none" xmlns="http://www.w3.org/2000/svg">
<path d="M14.8158 7.5C15.081 7.04063 15.5179 6.70543 16.0302 6.56815C16.5426 6.43086 17.0885 6.50273 17.5479 6.76795C18.0072 7.03317 18.3424 7.47 18.4797 7.98236C18.617 8.49472 18.5451 9.04063 18.2799 9.5C18.0147 9.95937 17.5778 10.2946 17.0655 10.4319C16.5531 10.5691 16.0072 10.4973 15.5479 10.2321C15.0885 9.96683 14.7533 9.53 14.616 9.01764C14.4787 8.50528 14.5506 7.95937 14.8158 7.5L14.8158 7.5Z" stroke="#00C7FF" stroke-width="2"/>
<path d="M12.5967 15.4991C13.1481 14.4802 14.2089 13.5 16.2499 13.5C19.1687 13.5 20.0829 15.5045 20.3693 16.7603C20.4921 17.2988 20.0522 17.75 19.4999 17.75H14.1562" stroke="#00C7FF" stroke-width="2" stroke-linecap="round"/>
<circle cx="8.5" cy="8.5" r="3" stroke="#583AFB" stroke-width="2" stroke-linecap="round"/>
<path d="M8.5 14.5C12.0715 14.5 13.0919 17.0512 13.3834 18.5089C13.4917 19.0504 13.0523 19.5 12.5 19.5H4.5C3.94772 19.5 3.50829 19.0504 3.61659 18.5089C3.9081 17.0512 4.92846 14.5 8.5 14.5Z" stroke="#583AFB" stroke-width="2" stroke-linecap="round"/>
</svg>
