<svg width="26" height="24" viewBox="0 0 26 24" fill="none" xmlns="http://www.w3.org/2000/svg">
<path d="M18.8158 7.5C19.081 7.04063 19.5179 6.70543 20.0302 6.56815C20.5426 6.43086 21.0885 6.50273 21.5479 6.76795C22.0072 7.03317 22.3424 7.47 22.4797 7.98236C22.617 8.49472 22.5451 9.04063 22.2799 9.5C22.0147 9.95937 21.5778 10.2946 21.0655 10.4319C20.5531 10.5691 20.0072 10.4973 19.5479 10.2321C19.0885 9.96683 18.7533 9.53 18.616 9.01764C18.4787 8.50528 18.5506 7.95937 18.8158 7.5L18.8158 7.5Z" stroke="#00C7FF" stroke-width="2"/>
<path d="M18.1557 17.75H23.4994C24.0517 17.75 24.4916 17.2988 24.3688 16.7603C24.0825 15.5045 23.1682 13.5 20.2494 13.5C18.4395 13.5 17.4003 14.2708 16.8037 15.1559" stroke="#00C7FF" stroke-width="2" stroke-linecap="round"/>
<path d="M7.48791 7.5C7.22269 7.04063 6.78586 6.70543 6.2735 6.56815C5.76114 6.43086 5.21523 6.50273 4.75586 6.76795C4.29649 7.03317 3.96129 7.47 3.82401 7.98236C3.68672 8.49472 3.75859 9.04063 4.02381 9.5C4.28902 9.95937 4.72586 10.2946 5.23822 10.4319C5.75058 10.5691 6.29649 10.4973 6.75586 10.2321C7.21523 9.96683 7.55042 9.53 7.68771 9.01764C7.825 8.50528 7.75313 7.95937 7.48791 7.5L7.48791 7.5Z" stroke="#00C7FF" stroke-width="2"/>
<path d="M8.14803 17.75H2.80428C2.252 17.75 1.8121 17.2988 1.93489 16.7603C2.22126 15.5045 3.1355 13.5 6.05428 13.5C7.86425 13.5 8.9034 14.2708 9.5 15.1559" stroke="#00C7FF" stroke-width="2" stroke-linecap="round"/>
<circle cx="13.333" cy="8" r="3" stroke="#583AFB" stroke-width="2" stroke-linecap="round"/>
<path d="M13.333 14C16.9045 14 17.9249 16.5512 18.2164 18.0089C18.3247 18.5504 17.8853 19 17.333 19H9.33301C8.78072 19 8.3413 18.5504 8.4496 18.0089C8.74111 16.5512 9.76147 14 13.333 14Z" stroke="#583AFB" stroke-width="2" stroke-linecap="round"/>
</svg>
