<svg width="96" height="96" viewBox="0 0 96 96" fill="none" xmlns="http://www.w3.org/2000/svg">
<path d="M23.1996 30.3992C26.2924 30.3992 28.7996 27.892 28.7996 24.7992C28.7996 21.7064 26.2924 19.1992 23.1996 19.1992C20.1068 19.1992 17.5996 21.7064 17.5996 24.7992C17.5996 27.892 20.1068 30.3992 23.1996 30.3992Z" stroke="#583AFB" stroke-width="2" stroke-miterlimit="10"/>
<path d="M83.2 30.4004H80V33.6004H83.2V30.4004Z" fill="#00C7FF"/>
<path d="M83.2 46.4004H80V49.6004H83.2V46.4004Z" fill="#00C7FF"/>
<path d="M91.2 38.4004H88V41.6004H91.2V38.4004Z" fill="#00C7FF"/>
<path d="M75.2 38.4004H72V41.6004H75.2V38.4004Z" fill="#00C7FF"/>
<path d="M76.7996 32H73.5996V35.2H76.7996V32Z" fill="#00C7FF"/>
<path d="M89.6004 32H86.4004V35.2H89.6004V32Z" fill="#00C7FF"/>
<path d="M76.7996 44.8008H73.5996V48.0008H76.7996V44.8008Z" fill="#00C7FF"/>
<path d="M89.6004 44.8008H86.4004V48.0008H89.6004V44.8008Z" fill="#00C7FF"/>
<path d="M71.9998 3.19922H68.7998V6.39922H71.9998V3.19922Z" fill="#00C7FF"/>
<path d="M71.9998 19.1992H68.7998V22.3992H71.9998V19.1992Z" fill="#00C7FF"/>
<path d="M79.9998 11.1992H76.7998V14.3992H79.9998V11.1992Z" fill="#00C7FF"/>
<path d="M63.9998 11.1992H60.7998V14.3992H63.9998V11.1992Z" fill="#00C7FF"/>
<path d="M65.6004 4.80078H62.4004V8.00078H65.6004V4.80078Z" fill="#00C7FF"/>
<path d="M78.4002 4.80078H75.2002V8.00078H78.4002V4.80078Z" fill="#00C7FF"/>
<path d="M65.6004 17.5996H62.4004V20.7996H65.6004V17.5996Z" fill="#00C7FF"/>
<path d="M78.4002 17.5996H75.2002V20.7996H78.4002V17.5996Z" fill="#00C7FF"/>
<path d="M22.4002 65.5996H19.2002V68.7996H22.4002V65.5996Z" fill="#00C7FF"/>
<path d="M20.7996 72H17.5996V75.2H20.7996V72Z" fill="#00C7FF"/>
<path d="M38.4002 89.5996H35.2002V92.7996H38.4002V89.5996Z" fill="#00C7FF"/>
<path d="M51.2 84.8008H48V88.0008H51.2V84.8008Z" fill="#00C7FF"/>
<path d="M54.4002 78.4004H51.2002V81.6004H54.4002V78.4004Z" fill="#00C7FF"/>
<path d="M44.7996 88H41.5996V91.2H44.7996V88Z" fill="#00C7FF"/>
<path d="M25.6004 84.8008H22.4004V88.0008H25.6004V84.8008Z" fill="#00C7FF"/>
<path d="M22.4002 78.4004H19.2002V81.6004H22.4002V78.4004Z" fill="#00C7FF"/>
<path d="M31.9998 88H28.7998V91.2H31.9998V88Z" fill="#00C7FF"/>
<path d="M44.0366 60.0372L76.331 92.3316C76.6318 92.6324 77.0382 92.8004 77.4622 92.8004H89.5998C90.483 92.8004 91.1998 92.0836 91.1998 91.2004V79.0628C91.1998 78.6388 91.0318 78.2308 90.731 77.9316L86.8686 74.0692C86.5678 73.7684 86.1614 73.6004 85.7374 73.6004H79.9998V68.8004C79.9998 67.9172 79.283 67.2004 78.3998 67.2004H71.9998V59.8628C71.9998 59.4388 71.8318 59.0308 71.531 58.7316L58.4366 45.6372C59.947 42.1956 60.7998 38.4004 60.7998 34.4004C60.7998 18.9364 48.2638 6.40039 32.7998 6.40039C17.3358 6.40039 4.7998 18.9364 4.7998 34.4004C4.7998 49.8644 17.3358 62.4004 32.7998 62.4004C36.7998 62.4004 40.595 61.5476 44.0366 60.0372V60.0372Z" stroke="#583AFB" stroke-width="2" stroke-miterlimit="10"/>
<path d="M35.017 55.8887C34.2874 55.9623 33.5482 56.0007 32.7994 56.0007C32.065 56.0007 31.3402 55.9639 30.625 55.8919" stroke="#00C7FF" stroke-width="2" stroke-miterlimit="10"/>
<path d="M26.9581 55.2015C22.8797 54.0591 19.2893 51.7487 16.5693 48.6543" stroke="#00C7FF" stroke-width="2" stroke-miterlimit="10"/>
</svg>
