<?xml version="1.0" encoding="utf-8"?>
<!-- Generator: Adobe Illustrator 21.0.0, SVG Export Plug-In . SVG Version: 6.00 Build 0)  -->
<svg version="1.1" id="Слой_1" xmlns="http://www.w3.org/2000/svg" xmlns:xlink="http://www.w3.org/1999/xlink" x="0px" y="0px"
	 viewBox="0 0 72 19" style="enable-background:new 0 0 72 19;" xml:space="preserve">
<style type="text/css">
	.st0{clip-path:url(#SVGID_2_);}
	.st1{fill:#583AFB;}
	.st2{fill:url(#SVGID_3_);}
	.st3{fill:#2A3144;fill-opacity:0.75;}
	.st4{fill:#FFFFFF;}
</style>
<g>
	<defs>
		<rect id="SVGID_1_" width="72" height="19"/>
	</defs>
	<clipPath id="SVGID_2_">
		<use xlink:href="#SVGID_1_"  style="overflow:visible;"/>
	</clipPath>
	<g class="st0">
		<path class="st1" d="M52.9,1.7c0-0.7,0.6-1.3,1.4-1.3h16c0.8,0,1.4,0.6,1.4,1.3v15.6c0,0.7-0.6,1.3-1.4,1.3h-16
			c-0.8,0-1.4-0.6-1.4-1.3V1.7z"/>
		
			<linearGradient id="SVGID_3_" gradientUnits="userSpaceOnUse" x1="54.7642" y1="-13.8856" x2="90.8389" y2="26.1443" gradientTransform="matrix(1 0 0 -1 0 4.01)">
			<stop  offset="0" style="stop-color:#583AFB"/>
			<stop  offset="1" style="stop-color:#03C8FF"/>
		</linearGradient>
		<path class="st2" d="M52.9,1.7c0-0.7,0.6-1.3,1.4-1.3h16c0.8,0,1.4,0.6,1.4,1.3v15.6c0,0.7-0.6,1.3-1.4,1.3h-16
			c-0.8,0-1.4-0.6-1.4-1.3V1.7z"/>
		<path class="st3" d="M0.4,15.7h7.8v-2.5h-5V3.7H0.4V15.7z"/>
		<path class="st3" d="M12.2,15.7V7.5H9.4v8.2H12.2z M10.8,6.3c1,0,1.6-0.6,1.6-1.4c0-0.8-0.6-1.4-1.6-1.4c-1,0-1.6,0.6-1.6,1.4
			C9.2,5.7,9.8,6.3,10.8,6.3L10.8,6.3L10.8,6.3z"/>
		<path class="st3" d="M13.5,15.7h2.8v-4.6c0-0.2,0-0.5,0.1-0.7c0.2-0.5,0.7-1,1.5-1c1,0,1.4,0.8,1.4,1.9v4.4h2.8V11
			c0-2.5-1.4-3.7-3.3-3.7c-1.5,0-2.2,0.8-2.6,1.4h0V7.5h-2.8C13.6,8.2,13.5,15.7,13.5,15.7L13.5,15.7z"/>
		<path class="st3" d="M26.2,3.7h-2.8v12h2.8V13l0.7-0.9l2.2,3.5h3.5l-3.7-5.1l3.3-3.5h-3.4c0,0-2.3,3.1-2.5,3.5V3.7z"/>
		<path class="st3" d="M40.2,12.3c0-0.2,0.1-0.6,0.1-1.1c0-2.1-1.1-4.3-4.1-4.3c-3.1,0-4.6,2.4-4.6,4.6c0,2.7,1.8,4.4,4.9,4.4
			c1.2,0,2.4-0.2,3.3-0.5l-0.4-1.8c-0.8,0.2-1.5,0.4-2.5,0.4c-1.3,0-2.5-0.5-2.6-1.6L40.2,12.3L40.2,12.3z M34.3,10.4
			c0.1-0.7,0.6-1.7,1.8-1.7c1.3,0,1.6,1.1,1.6,1.7H34.3z"/>
		<path class="st3" d="M47.2,3.7v4.1h0c-0.4-0.6-1.3-1-2.4-1c-2.2,0-4.1,1.7-4.1,4.6c0,2.7,1.7,4.4,3.9,4.4c1.2,0,2.3-0.5,2.8-1.4
			h0.1l0.1,1.2h2.5c0-0.6-0.1-1.6-0.1-2.6V3.7H47.2z M47.2,11.9c0,0.2,0,0.4-0.1,0.6c-0.2,0.8-0.8,1.3-1.7,1.3
			c-1.2,0-1.9-0.9-1.9-2.4c0-1.4,0.7-2.4,2-2.4c0.9,0,1.5,0.6,1.7,1.3c0,0.2,0,0.3,0,0.5V11.9z"/>
		<path class="st4" d="M58.6,15.7V7.5h-2.8v8.2H58.6z M57.2,6.3c1,0,1.6-0.6,1.6-1.4c0-0.8-0.6-1.4-1.6-1.4c-1,0-1.6,0.6-1.6,1.4
			C55.6,5.7,56.2,6.3,57.2,6.3L57.2,6.3L57.2,6.3z"/>
		<path class="st4" d="M60.2,15.7H63v-4.6c0-0.2,0-0.5,0.1-0.7c0.2-0.5,0.7-1,1.5-1c1,0,1.4,0.8,1.4,1.9v4.4h2.8V11
			c0-2.5-1.4-3.7-3.3-3.7c-1.5,0-2.2,0.8-2.6,1.4h0V7.5h-2.8C60.2,8.2,60.2,15.7,60.2,15.7L60.2,15.7z"/>
	</g>
</g>
</svg>
