<svg width="24" height="24" viewBox="0 0 24 24" fill="none" xmlns="http://www.w3.org/2000/svg">
<path d="M12.0005 2.01074C10.061 2.01443 8.16442 2.58205 6.54177 3.64448C4.91911 4.70691 3.64043 6.21828 2.86148 7.99451C2.08252 9.77074 1.83691 11.7352 2.15456 13.6485C2.47221 15.5618 3.33941 17.3415 4.65054 18.7707C5.58696 19.7858 6.72348 20.5959 7.98847 21.1499C9.25347 21.704 10.6195 21.9901 12.0005 21.9901C13.3816 21.9901 14.7476 21.704 16.0126 21.1499C17.2776 20.5959 18.4141 19.7858 19.3505 18.7707C20.6617 17.3415 21.5289 15.5618 21.8465 13.6485C22.1642 11.7352 21.9186 9.77074 21.1396 7.99451C20.3606 6.21828 19.082 4.70691 17.4593 3.64448C15.8367 2.58205 13.9401 2.01443 12.0005 2.01074ZM12.0005 20.0107C9.929 20.0076 7.93945 19.201 6.45054 17.7607C6.90258 16.6603 7.67157 15.719 8.65979 15.0566C9.64801 14.3942 10.8108 14.0405 12.0005 14.0405C13.1902 14.0405 14.3531 14.3942 15.3413 15.0566C16.3295 15.719 17.0985 16.6603 17.5505 17.7607C16.0616 19.201 14.0721 20.0076 12.0005 20.0107ZM10.0005 10.0107C10.0005 9.61518 10.1178 9.2285 10.3376 8.8996C10.5574 8.5707 10.8697 8.31436 11.2352 8.16298C11.6006 8.01161 12.0028 7.972 12.3907 8.04917C12.7787 8.12634 13.135 8.31682 13.4148 8.59653C13.6945 8.87623 13.8849 9.2326 13.9621 9.62056C14.0393 10.0085 13.9997 10.4107 13.8483 10.7761C13.6969 11.1416 13.4406 11.4539 13.1117 11.6737C12.7828 11.8934 12.3961 12.0107 12.0005 12.0107C11.4701 12.0107 10.9614 11.8 10.5863 11.425C10.2113 11.0499 10.0005 10.5412 10.0005 10.0107ZM18.9105 16.0107C18.0171 14.4825 16.6419 13.2938 15.0005 12.6307C15.5097 12.0534 15.8415 11.3414 15.956 10.5802C16.0705 9.81896 15.963 9.04085 15.6463 8.33924C15.3296 7.63762 14.8171 7.0423 14.1704 6.62471C13.5238 6.20711 12.7703 5.98499 12.0005 5.98499C11.2307 5.98499 10.4773 6.20711 9.83063 6.62471C9.18395 7.0423 8.67151 7.63762 8.35479 8.33924C8.03807 9.04085 7.93052 9.81896 8.04507 10.5802C8.15961 11.3414 8.49137 12.0534 9.00054 12.6307C7.35914 13.2938 5.98401 14.4825 5.09054 16.0107C4.37848 14.7978 4.00226 13.4172 4.00054 12.0107C4.00054 9.88901 4.84339 7.85418 6.34368 6.35389C7.84397 4.8536 9.87881 4.01074 12.0005 4.01074C14.1223 4.01074 16.1571 4.8536 17.6574 6.35389C19.1577 7.85418 20.0005 9.88901 20.0005 12.0107C19.9988 13.4172 19.6226 14.7978 18.9105 16.0107Z" fill="#2A3144"/>
</svg>
