<svg width="24" height="18" viewBox="0 0 24 18" fill="none" xmlns="http://www.w3.org/2000/svg">
<mask id="path-1-inside-1_1728_3817" fill="white">
<path fill-rule="evenodd" clip-rule="evenodd" d="M0 9.65688C0 11.9196 0 13.051 0.702944 13.7539C1.40589 14.4569 2.53726 14.4569 4.8 14.4569H5.59985H8H8.52358L6.02105 12.3118C5.52635 11.8878 5.279 11.6758 5.1976 11.3819C5.1162 11.0881 5.21922 10.779 5.42526 10.1609L6.62645 6.5573L6.62646 6.5573C6.81193 6.00089 6.90466 5.72268 7.07004 5.48551C7.23542 5.24833 7.46442 5.06513 7.92241 4.69874L9.50122 3.43569C10.6994 2.47717 11.2984 1.99792 12 1.99792C12.7016 1.99792 13.3006 2.47717 14.4988 3.43569L16.0776 4.69874C16.5356 5.06513 16.7646 5.24833 16.93 5.48551C17.0953 5.72268 17.1881 6.00088 17.3735 6.55728L17.3735 6.5573L18.5747 10.1609L18.5747 10.1609C18.7808 10.779 18.8838 11.0881 18.8024 11.3819C18.721 11.6758 18.4737 11.8878 17.979 12.3118L15.4764 14.4569H19.1999C21.4626 14.4569 22.594 14.4569 23.2969 13.7539C23.9998 13.051 23.9998 11.9196 23.9998 9.65688V4.19479C23.9998 2.04816 23.9998 0.974846 23.3244 0.646561C22.649 0.318276 21.805 0.981393 20.1171 2.30763L19.5769 2.73207C18.6278 3.47779 18.1532 3.85065 17.5998 3.85065C17.0465 3.85065 16.5719 3.47779 15.6228 2.73207L15.0826 2.30763C13.4968 1.06166 12.656 0.400972 11.9999 0.597776C11.3439 0.400973 10.503 1.06166 8.91723 2.30763L8.37703 2.73207C7.42793 3.47779 6.95338 3.85065 6.4 3.85065C5.84662 3.85065 5.37207 3.47779 4.42297 2.73207L3.88277 2.30763C2.19484 0.981392 1.35087 0.318276 0.675435 0.646561C0 0.974846 0 2.04816 0 4.19479V9.65688Z"/>
</mask>
<path fill-rule="evenodd" clip-rule="evenodd" d="M0 9.65688C0 11.9196 0 13.051 0.702944 13.7539C1.40589 14.4569 2.53726 14.4569 4.8 14.4569H5.59985H8H8.52358L6.02105 12.3118C5.52635 11.8878 5.279 11.6758 5.1976 11.3819C5.1162 11.0881 5.21922 10.779 5.42526 10.1609L6.62645 6.5573L6.62646 6.5573C6.81193 6.00089 6.90466 5.72268 7.07004 5.48551C7.23542 5.24833 7.46442 5.06513 7.92241 4.69874L9.50122 3.43569C10.6994 2.47717 11.2984 1.99792 12 1.99792C12.7016 1.99792 13.3006 2.47717 14.4988 3.43569L16.0776 4.69874C16.5356 5.06513 16.7646 5.24833 16.93 5.48551C17.0953 5.72268 17.1881 6.00088 17.3735 6.55728L17.3735 6.5573L18.5747 10.1609L18.5747 10.1609C18.7808 10.779 18.8838 11.0881 18.8024 11.3819C18.721 11.6758 18.4737 11.8878 17.979 12.3118L15.4764 14.4569H19.1999C21.4626 14.4569 22.594 14.4569 23.2969 13.7539C23.9998 13.051 23.9998 11.9196 23.9998 9.65688V4.19479C23.9998 2.04816 23.9998 0.974846 23.3244 0.646561C22.649 0.318276 21.805 0.981393 20.1171 2.30763L19.5769 2.73207C18.6278 3.47779 18.1532 3.85065 17.5998 3.85065C17.0465 3.85065 16.5719 3.47779 15.6228 2.73207L15.0826 2.30763C13.4968 1.06166 12.656 0.400972 11.9999 0.597776C11.3439 0.400973 10.503 1.06166 8.91723 2.30763L8.37703 2.73207C7.42793 3.47779 6.95338 3.85065 6.4 3.85065C5.84662 3.85065 5.37207 3.47779 4.42297 2.73207L3.88277 2.30763C2.19484 0.981392 1.35087 0.318276 0.675435 0.646561C0 0.974846 0 2.04816 0 4.19479V9.65688Z" fill="url(#paint0_linear_1728_3817)"/>
<path fill-rule="evenodd" clip-rule="evenodd" d="M0 9.65688C0 11.9196 0 13.051 0.702944 13.7539C1.40589 14.4569 2.53726 14.4569 4.8 14.4569H5.59985H8H8.52358L6.02105 12.3118C5.52635 11.8878 5.279 11.6758 5.1976 11.3819C5.1162 11.0881 5.21922 10.779 5.42526 10.1609L6.62645 6.5573L6.62646 6.5573C6.81193 6.00089 6.90466 5.72268 7.07004 5.48551C7.23542 5.24833 7.46442 5.06513 7.92241 4.69874L9.50122 3.43569C10.6994 2.47717 11.2984 1.99792 12 1.99792C12.7016 1.99792 13.3006 2.47717 14.4988 3.43569L16.0776 4.69874C16.5356 5.06513 16.7646 5.24833 16.93 5.48551C17.0953 5.72268 17.1881 6.00088 17.3735 6.55728L17.3735 6.5573L18.5747 10.1609L18.5747 10.1609C18.7808 10.779 18.8838 11.0881 18.8024 11.3819C18.721 11.6758 18.4737 11.8878 17.979 12.3118L15.4764 14.4569H19.1999C21.4626 14.4569 22.594 14.4569 23.2969 13.7539C23.9998 13.051 23.9998 11.9196 23.9998 9.65688V4.19479C23.9998 2.04816 23.9998 0.974846 23.3244 0.646561C22.649 0.318276 21.805 0.981393 20.1171 2.30763L19.5769 2.73207C18.6278 3.47779 18.1532 3.85065 17.5998 3.85065C17.0465 3.85065 16.5719 3.47779 15.6228 2.73207L15.0826 2.30763C13.4968 1.06166 12.656 0.400972 11.9999 0.597776C11.3439 0.400973 10.503 1.06166 8.91723 2.30763L8.37703 2.73207C7.42793 3.47779 6.95338 3.85065 6.4 3.85065C5.84662 3.85065 5.37207 3.47779 4.42297 2.73207L3.88277 2.30763C2.19484 0.981392 1.35087 0.318276 0.675435 0.646561C0 0.974846 0 2.04816 0 4.19479V9.65688Z" fill="url(#paint1_radial_1728_3817)"/>
<path d="M8.52358 14.4569V15.4569H11.2268L9.17437 13.6976L8.52358 14.4569ZM6.02105 12.3118L6.67184 11.5526L6.67184 11.5526L6.02105 12.3118ZM5.1976 11.3819L6.16131 11.115L6.16131 11.115L5.1976 11.3819ZM5.42526 10.1609L4.47658 9.84465V9.84465L5.42526 10.1609ZM6.62645 6.5573L7.57514 6.87353L6.62645 6.5573ZM6.62646 6.5573L7.57514 6.87353V6.87353L6.62646 6.5573ZM7.07004 5.48551L7.89032 6.05747L7.89032 6.05747L7.07004 5.48551ZM7.92241 4.69874L7.29771 3.91787H7.29771L7.92241 4.69874ZM9.50122 3.43569L10.1259 4.21656L9.50122 3.43569ZM14.4988 3.43569L13.8741 4.21656L14.4988 3.43569ZM16.0776 4.69874L16.7023 3.91787V3.91787L16.0776 4.69874ZM16.93 5.48551L16.1097 6.05747L16.1097 6.05748L16.93 5.48551ZM17.3735 6.55728L16.4249 6.87351L16.428 6.88293L16.4313 6.89229L17.3735 6.55728ZM17.3735 6.5573L18.3222 6.24108L18.3191 6.23165L18.3158 6.2223L17.3735 6.5573ZM18.5747 10.1609L19.5363 9.88616L19.5303 9.86526L19.5234 9.84465L18.5747 10.1609ZM18.5747 10.1609L17.6132 10.4356L17.6192 10.4565L17.6261 10.4771L18.5747 10.1609ZM18.8024 11.3819L17.8387 11.115V11.115L18.8024 11.3819ZM15.4764 14.4569L14.8256 13.6976L12.7732 15.4569H15.4764V14.4569ZM23.3244 0.646561L23.7616 -0.252834V-0.252834L23.3244 0.646561ZM20.1171 2.30763L20.7349 3.09395L20.1171 2.30763ZM19.5769 2.73207L18.9591 1.94575L18.9591 1.94575L19.5769 2.73207ZM15.6228 2.73207L15.005 3.51839L15.005 3.51839L15.6228 2.73207ZM15.0826 2.30763L15.7004 1.52131L15.7004 1.52131L15.0826 2.30763ZM11.9999 0.597776L11.7126 1.55561L11.9999 1.6418L12.2873 1.55561L11.9999 0.597776ZM8.91723 2.30763L8.29941 1.52131V1.52131L8.91723 2.30763ZM8.37703 2.73207L8.99485 3.51839V3.51839L8.37703 2.73207ZM4.42297 2.73207L5.04079 1.94575V1.94575L4.42297 2.73207ZM3.88277 2.30763L3.26495 3.09394H3.26495L3.88277 2.30763ZM1.41005 13.0468C1.27535 12.9121 1.15191 12.6997 1.07895 12.1571C1.00212 11.5856 1 10.8165 1 9.65688H-1C-1 10.76 -1.00212 11.6879 -0.903215 12.4236C-0.800438 13.188 -0.572404 13.8928 -0.00416307 14.461L1.41005 13.0468ZM4.8 13.4569C3.64036 13.4569 2.87123 13.4548 2.2998 13.3779C1.75713 13.305 1.54475 13.1815 1.41005 13.0468L-0.00416307 14.461C0.564078 15.0293 1.26886 15.2573 2.0333 15.3601C2.76898 15.459 3.6969 15.4569 4.8 15.4569V13.4569ZM5.59985 13.4569H4.8V15.4569H5.59985V13.4569ZM8 13.4569H5.59985V15.4569H8V13.4569ZM8.52358 13.4569H8V15.4569H8.52358V13.4569ZM5.37025 13.0711L7.87279 15.2161L9.17437 13.6976L6.67184 11.5526L5.37025 13.0711ZM4.23388 11.6489C4.33323 12.0075 4.52821 12.2724 4.72487 12.4821C4.90471 12.6739 5.13953 12.8733 5.37025 13.0711L6.67184 11.5526C6.40787 11.3263 6.27166 11.2078 6.1838 11.1141C6.11276 11.0383 6.14337 11.0502 6.16131 11.115L4.23388 11.6489ZM4.47658 9.84465C4.38048 10.1329 4.28174 10.4248 4.22621 10.6818C4.16548 10.9628 4.13454 11.2902 4.23388 11.6489L6.16131 11.115C6.17926 11.1798 6.15914 11.2058 6.18108 11.1042C6.20821 10.9787 6.264 10.8069 6.37395 10.4771L4.47658 9.84465ZM5.67777 6.24108L4.47658 9.84465L6.37395 10.4771L7.57514 6.87353L5.67777 6.24108ZM5.67777 6.24107L5.67777 6.24108L7.57514 6.87353L7.57514 6.87353L5.67777 6.24107ZM6.24977 4.91354C5.9827 5.29655 5.84528 5.73854 5.67777 6.24107L7.57514 6.87353C7.77857 6.26324 7.82663 6.14881 7.89032 6.05747L6.24977 4.91354ZM7.29771 3.91787C6.88407 4.24879 6.51683 4.53053 6.24977 4.91354L7.89032 6.05747C7.95401 5.96613 8.04477 5.88148 8.5471 5.47961L7.29771 3.91787ZM8.87652 2.65482L7.29771 3.91787L8.5471 5.47961L10.1259 4.21656L8.87652 2.65482ZM12 0.997916C11.3941 0.997916 10.8844 1.21381 10.4106 1.50701C9.95996 1.78588 9.45627 2.19102 8.87652 2.65482L10.1259 4.21656C10.7443 3.72184 11.1392 3.4081 11.463 3.20771C11.7637 3.02165 11.9043 2.99792 12 2.99792V0.997916ZM15.1235 2.65482C14.5437 2.19102 14.04 1.78588 13.5894 1.50701C13.1156 1.21381 12.6059 0.997916 12 0.997916V2.99792C12.0957 2.99792 12.2363 3.02165 12.537 3.20771C12.8608 3.4081 13.2557 3.72184 13.8741 4.21656L15.1235 2.65482ZM16.7023 3.91787L15.1235 2.65482L13.8741 4.21656L15.4529 5.47961L16.7023 3.91787ZM17.7502 4.91354C17.4832 4.53053 17.1159 4.24879 16.7023 3.91787L15.4529 5.47961C15.9552 5.88148 16.046 5.96613 16.1097 6.05747L17.7502 4.91354ZM18.3222 6.24106C18.1547 5.73853 18.0173 5.29654 17.7502 4.91354L16.1097 6.05748C16.1734 6.14881 16.2214 6.26324 16.4249 6.87351L18.3222 6.24106ZM18.3158 6.2223L18.3158 6.22227L16.4313 6.89229L16.4313 6.89231L18.3158 6.2223ZM19.5234 9.84465L18.3222 6.24108L16.4249 6.87353L17.6261 10.4771L19.5234 9.84465ZM19.5363 9.88618L19.5363 9.88616L17.6132 10.4356L17.6132 10.4356L19.5363 9.88618ZM19.7661 11.6489C19.8655 11.2902 19.8345 10.9628 19.7738 10.6818C19.7183 10.4248 19.6195 10.133 19.5234 9.84467L17.6261 10.4771C17.736 10.807 17.7918 10.9787 17.8189 11.1042C17.8409 11.2058 17.8207 11.1798 17.8387 11.115L19.7661 11.6489ZM18.6297 13.0711C18.8605 12.8733 19.0953 12.6739 19.2751 12.4821C19.4718 12.2724 19.6668 12.0075 19.7661 11.6489L17.8387 11.115C17.8566 11.0502 17.8872 11.0383 17.8162 11.1141C17.7283 11.2078 17.5921 11.3263 17.3282 11.5526L18.6297 13.0711ZM16.1272 15.2161L18.6297 13.0711L17.3282 11.5526L14.8256 13.6976L16.1272 15.2161ZM19.1999 13.4569H15.4764V15.4569H19.1999V13.4569ZM22.5898 13.0468C22.4551 13.1815 22.2427 13.305 21.7001 13.3779C21.1286 13.4548 20.3595 13.4569 19.1999 13.4569V15.4569C20.3029 15.4569 21.2309 15.459 21.9665 15.3601C22.731 15.2573 23.4358 15.0293 24.004 14.461L22.5898 13.0468ZM22.9998 9.65688C22.9998 10.8165 22.9977 11.5856 22.9209 12.1571C22.8479 12.6997 22.7245 12.9121 22.5898 13.0468L24.004 14.461C24.5723 13.8928 24.8003 13.188 24.9031 12.4236C25.002 11.6879 24.9998 10.76 24.9998 9.65688H22.9998ZM22.9998 4.19479V9.65688H24.9998V4.19479H22.9998ZM22.8873 1.54596C22.7563 1.48229 22.853 1.38425 22.9259 1.88341C22.9972 2.37132 22.9998 3.08746 22.9998 4.19479H24.9998C24.9998 3.15549 25.0025 2.26166 24.9049 1.59418C24.809 0.937961 24.568 0.139113 23.7616 -0.252834L22.8873 1.54596ZM20.7349 3.09395C21.6056 2.40982 22.1703 1.96942 22.598 1.72405C23.0356 1.47302 23.0183 1.60962 22.8873 1.54596L23.7616 -0.252834C22.9551 -0.64478 22.1781 -0.340765 21.6028 -0.0107489C21.0177 0.324928 20.3165 0.879204 19.4993 1.52131L20.7349 3.09395ZM20.1947 3.51839L20.7349 3.09395L19.4993 1.52131L18.9591 1.94575L20.1947 3.51839ZM17.5998 4.85065C18.1278 4.85065 18.5671 4.66416 18.9597 4.42533C19.3292 4.20053 19.7394 3.87614 20.1947 3.51839L18.9591 1.94575C18.4653 2.33372 18.1636 2.56863 17.9202 2.71668C17.6999 2.85071 17.6253 2.85065 17.5998 2.85065V4.85065ZM15.005 3.51839C15.4603 3.87614 15.8705 4.20052 16.24 4.42533C16.6326 4.66416 17.0719 4.85065 17.5998 4.85065V2.85065C17.5744 2.85065 17.4998 2.85071 17.2795 2.71668C17.0361 2.56862 16.7344 2.33372 16.2406 1.94575L15.005 3.51839ZM14.4648 3.09394L15.005 3.51839L16.2406 1.94575L15.7004 1.52131L14.4648 3.09394ZM12.2873 1.55561C12.179 1.58808 12.2222 1.49371 12.6755 1.76757C13.1007 2.02445 13.6504 2.45404 14.4648 3.09394L15.7004 1.52131C14.9291 0.915246 14.2655 0.391507 13.7097 0.0557513C13.1821 -0.263023 12.4769 -0.58933 11.7126 -0.360054L12.2873 1.55561ZM9.53505 3.09395C10.3495 2.45404 10.8992 2.02445 11.3243 1.76757C11.7776 1.49371 11.8208 1.58808 11.7126 1.55561L12.2873 -0.360054C11.523 -0.58933 10.8177 -0.263023 10.2901 0.0557518C9.73438 0.391508 9.07076 0.915247 8.29941 1.52131L9.53505 3.09395ZM8.99485 3.51839L9.53505 3.09395L8.29941 1.52131L7.75921 1.94575L8.99485 3.51839ZM6.4 4.85065C6.92793 4.85065 7.36727 4.66416 7.75986 4.42533C8.12939 4.20053 8.53953 3.87614 8.99485 3.51839L7.75921 1.94575C7.26543 2.33372 6.96375 2.56863 6.72038 2.71668C6.50007 2.85071 6.42545 2.85065 6.4 2.85065V4.85065ZM3.80515 3.51839C4.26047 3.87614 4.67061 4.20052 5.04014 4.42533C5.43272 4.66416 5.87207 4.85065 6.4 4.85065V2.85065C6.37455 2.85065 6.29993 2.85071 6.07962 2.71668C5.83625 2.56862 5.53457 2.33372 5.04079 1.94575L3.80515 3.51839ZM3.26495 3.09394L3.80515 3.51839L5.04079 1.94575L4.50059 1.52131L3.26495 3.09394ZM1.11257 1.54596C0.981592 1.60962 0.964229 1.47302 1.4018 1.72405C1.82951 1.96942 2.39424 2.40981 3.26495 3.09394L4.50059 1.52131C3.68337 0.879203 2.98215 0.324927 2.39703 -0.0107493C1.82178 -0.340765 1.04471 -0.64478 0.238298 -0.252834L1.11257 1.54596ZM1 4.19479C1 3.08746 1.00261 2.37132 1.07392 1.88341C1.14687 1.38425 1.24355 1.48229 1.11257 1.54596L0.238298 -0.252834C-0.568119 0.139113 -0.809152 0.93796 -0.905059 1.59418C-1.00261 2.26166 -1 3.15549 -1 4.19479H1ZM1 9.65688V4.19479H-1V9.65688H1Z" fill="url(#paint2_linear_1728_3817)" mask="url(#path-1-inside-1_1728_3817)"/>
<path d="M11.6746 16.4991L5.83592 11.4945C5.68157 11.3622 5.62269 11.1496 5.68697 10.9567L7.28757 6.15496C7.379 5.88065 7.54777 5.63862 7.77355 5.45799L11.063 2.82647C11.6108 2.38821 12.3892 2.38821 12.937 2.82647L16.2264 5.45799C16.4522 5.63862 16.621 5.88065 16.7124 6.15496L18.313 10.9567C18.3773 11.1496 18.3184 11.3622 18.1641 11.4945L12.3254 16.4991C12.1382 16.6596 11.8618 16.6596 11.6746 16.4991Z" fill="url(#paint3_linear_1728_3817)"/>
<path d="M11.6746 16.4991L5.83592 11.4945C5.68157 11.3622 5.62269 11.1496 5.68697 10.9567L7.28757 6.15496C7.379 5.88065 7.54777 5.63862 7.77355 5.45799L11.063 2.82647C11.6108 2.38821 12.3892 2.38821 12.937 2.82647L16.2264 5.45799C16.4522 5.63862 16.621 5.88065 16.7124 6.15496L18.313 10.9567C18.3773 11.1496 18.3184 11.3622 18.1641 11.4945L12.3254 16.4991C12.1382 16.6596 11.8618 16.6596 11.6746 16.4991Z" fill="url(#paint4_radial_1728_3817)"/>
<path d="M11.6746 16.4991L5.83592 11.4945C5.68157 11.3622 5.62269 11.1496 5.68697 10.9567L7.28757 6.15496C7.379 5.88065 7.54777 5.63862 7.77355 5.45799L11.063 2.82647C11.6108 2.38821 12.3892 2.38821 12.937 2.82647L16.2264 5.45799C16.4522 5.63862 16.621 5.88065 16.7124 6.15496L18.313 10.9567C18.3773 11.1496 18.3184 11.3622 18.1641 11.4945L12.3254 16.4991C12.1382 16.6596 11.8618 16.6596 11.6746 16.4991Z" stroke="#E4C471"/>
<defs>
<linearGradient id="paint0_linear_1728_3817" x1="11.9999" y1="0.563477" x2="11.9999" y2="14.4569" gradientUnits="userSpaceOnUse">
<stop stop-color="#E4C471"/>
<stop offset="1" stop-color="#CD9D46"/>
</linearGradient>
<radialGradient id="paint1_radial_1728_3817" cx="0" cy="0" r="1" gradientUnits="userSpaceOnUse" gradientTransform="translate(11.9999 8.71349) rotate(90) scale(5.74338 9.92128)">
<stop stop-color="#F2DF95"/>
<stop offset="1" stop-color="#F2DF95" stop-opacity="0"/>
</radialGradient>
<linearGradient id="paint2_linear_1728_3817" x1="11.9999" y1="0.563477" x2="11.9999" y2="14.4569" gradientUnits="userSpaceOnUse">
<stop stop-color="#E4C471"/>
<stop offset="1" stop-color="#E4C471" stop-opacity="0"/>
</linearGradient>
<linearGradient id="paint3_linear_1728_3817" x1="12" y1="1.43652" x2="12" y2="17.4365" gradientUnits="userSpaceOnUse">
<stop stop-color="#E4C471"/>
<stop offset="1" stop-color="#CD9D46"/>
</linearGradient>
<radialGradient id="paint4_radial_1728_3817" cx="0" cy="0" r="1" gradientUnits="userSpaceOnUse" gradientTransform="translate(12 10.8223) rotate(90) scale(6.61423 5.78745)">
<stop stop-color="#F2DF95"/>
<stop offset="1" stop-color="#F2DF95" stop-opacity="0"/>
</radialGradient>
</defs>
</svg>
