<?xml version="1.0" encoding="utf-8"?>
<!-- Generator: Adobe Illustrator 21.0.0, SVG Export Plug-In . SVG Version: 6.00 Build 0)  -->
<svg version="1.1" id="Слой_1" xmlns="http://www.w3.org/2000/svg" xmlns:xlink="http://www.w3.org/1999/xlink" x="0px" y="0px"
	 viewBox="0 0 28 28" style="enable-background:new 0 0 28 28;" xml:space="preserve">
<style type="text/css">
	.st0{fill:#C619C2;}
	.st1{fill:url(#SVGID_1_);}
	.st2{fill:url(#SVGID_2_);}
	.st3{fill:url(#SVGID_3_);}
	.st4{fill:url(#SVGID_4_);}
	.st5{fill:#FFFFFF;}
</style>
<path class="st0" d="M14,28c7.7,0,14-6.3,14-14c0-7.7-6.3-14-14-14C6.3,0,0,6.3,0,14C0,21.7,6.3,28,14,28z"/>
<linearGradient id="SVGID_1_" gradientUnits="userSpaceOnUse" x1="1.4956" y1="13.9025" x2="45.9956" y2="21.4025" gradientTransform="matrix(1 0 0 -1 0 30.01)">
	<stop  offset="0" style="stop-color:#DB00BC"/>
	<stop  offset="1" style="stop-color:#3AC0E9"/>
</linearGradient>
<path class="st1" d="M14,28c7.7,0,14-6.3,14-14c0-7.7-6.3-14-14-14C6.3,0,0,6.3,0,14C0,21.7,6.3,28,14,28z"/>
<g>
	
		<linearGradient id="SVGID_2_" gradientUnits="userSpaceOnUse" x1="7.1489" y1="15.4922" x2="23.2349" y2="15.1892" gradientTransform="matrix(1 0 0 -1 0 30.01)">
		<stop  offset="0" style="stop-color:#DB00BC"/>
		<stop  offset="1" style="stop-color:#3AC0E9"/>
	</linearGradient>
	<path class="st2" d="M9.3,9.8h3.7l-3.9,9.5H5.4L9.3,9.8z"/>
	
		<linearGradient id="SVGID_3_" gradientUnits="userSpaceOnUse" x1="5.3014" y1="15.2176" x2="21.3859" y2="15.4912" gradientTransform="matrix(1 0 0 -1 0 30.01)">
		<stop  offset="0" style="stop-color:#DB00BC"/>
		<stop  offset="1" style="stop-color:#3AC0E9"/>
	</linearGradient>
	<path class="st3" d="M18.8,9.8h3.7l-4.4,9.5h-3.7L18.8,9.8z"/>
	
		<linearGradient id="SVGID_4_" gradientUnits="userSpaceOnUse" x1="5.3006" y1="15.2756" x2="21.3846" y2="15.5924" gradientTransform="matrix(1 0 0 -1 0 30.01)">
		<stop  offset="0" style="stop-color:#DB00BC"/>
		<stop  offset="1" style="stop-color:#3AC0E9"/>
	</linearGradient>
	<path class="st4" d="M9.3,9.8h3.7l5.1,9.5h-3.7L9.3,9.8z"/>
</g>
<g>
	<path class="st5" d="M9.3,9.8h3.7l-3.9,9.5H5.4L9.3,9.8z"/>
	<path class="st5" d="M18.8,9.8h3.7l-4.4,9.5h-3.7L18.8,9.8z"/>
	<path class="st5" d="M9.3,9.8h3.7l5.1,9.5h-3.7L9.3,9.8z"/>
</g>
</svg>
