<?xml version="1.0" encoding="utf-8"?>
<!-- Generator: Adobe Illustrator 21.0.0, SVG Export Plug-In . SVG Version: 6.00 Build 0)  -->
<svg version="1.1" id="Слой_1" xmlns="http://www.w3.org/2000/svg" xmlns:xlink="http://www.w3.org/1999/xlink" x="0px" y="0px"
	 viewBox="0 0 32.2 32" style="enable-background:new 0 0 32.2 32;" xml:space="preserve">
<style type="text/css">
	.st0{opacity:0.65;}
	.st1{clip-path:url(#SVGID_2_);}
	.st2{fill:#838D9B;}
	.st3{fill:#FFFFFF;}
	.st4{fill:none;stroke:#FFFFFF;stroke-width:2;}
</style>
<g class="st0">
	<g>
		<defs>
			<path id="SVGID_1_" d="M16.1,0L16.1,0c8.8,0,16,7.2,16,16l0,0c0,8.8-7.2,16-16,16l0,0c-8.8,0-16-7.2-16-16l0,0
				C0.1,7.2,7.2,0,16.1,0z"/>
		</defs>
		<clipPath id="SVGID_2_">
			<use xlink:href="#SVGID_1_"  style="overflow:visible;"/>
		</clipPath>
		<g class="st1">
			<path class="st2" d="M16.1,0c8.8,0,16,7.2,16,16c0,8.8-7.2,16-16,16c-8.8,0-16-7.2-16-16C0.1,7.2,7.2,0,16.1,0z"/>
			<path class="st3" d="M18.1,13.9v-2.4h5.4V7.9H8.7v3.6h5.4v2.4c-4.4,0.2-7.8,1.1-7.8,2.1s3.3,1.9,7.8,2.1v7.6h3.9v-7.6
				c4.4-0.2,7.7-1.1,7.7-2.1C25.8,14.9,22.5,14.1,18.1,13.9 M18.1,17.5L18.1,17.5c-0.1,0-0.7,0-2,0c-1,0-1.7,0-2,0v0
				c-3.9-0.2-6.8-0.9-6.8-1.7s2.9-1.5,6.8-1.7v2.7c0.3,0,1,0.1,2,0.1c1.2,0,1.8-0.1,1.9-0.1v-2.7c3.9,0.2,6.8,0.9,6.8,1.7
				C24.9,16.6,22,17.3,18.1,17.5"/>
		</g>
	</g>
	<path class="st4" d="M16.1-1L16.1-1c9.4,0,17,7.6,17,17l0,0c0,9.4-7.6,17-17,17l0,0c-9.4,0-17-7.6-17-17l0,0C-0.9,6.6,6.7-1,16.1-1
		z"/>
</g>
</svg>
