<svg width="32" height="32" viewBox="0 0 32 32" fill="none" xmlns="http://www.w3.org/2000/svg">
<path d="M14.6176 16.1866L13.6644 20.0511C14.841 20.3466 18.4703 21.5251 19.0067 19.3451C19.5674 17.0716 15.7942 16.4836 14.6176 16.1866ZM15.9178 10.9127L15.0536 14.4176C16.0335 14.6647 19.0541 15.6721 19.5436 13.6892C20.0534 11.6207 16.8978 11.1597 15.9179 10.9127H15.9178ZM16 0C12.8355 0 9.74207 0.938383 7.11088 2.69649C4.4797 4.45459 2.42894 6.95344 1.21793 9.87706C0.00693254 12.8007 -0.309921 16.0177 0.307443 19.1214C0.924806 22.2251 2.44866 25.0761 4.6863 27.3137C6.92394 29.5513 9.77486 31.0752 12.8786 31.6926C15.9823 32.3099 19.1993 31.9931 22.1229 30.7821C25.0466 29.5711 27.5454 27.5203 29.3035 24.8891C31.0616 22.2579 32 19.1645 32 16C32 13.8988 31.5861 11.8183 30.7821 9.87706C29.978 7.93585 28.7994 6.17203 27.3137 4.68629C25.828 3.20055 24.0641 2.022 22.1229 1.21793C20.1817 0.413852 18.1012 0 16 0ZM22.9728 13.7206C22.9392 14.3345 22.7036 14.92 22.3028 15.3862C21.902 15.8523 21.3583 16.173 20.7564 16.2982C21.152 16.4593 21.5099 16.7005 21.8077 17.0068C22.1054 17.313 22.3365 17.6776 22.4863 18.0776C22.6362 18.4776 22.7015 18.9043 22.6783 19.3307C22.6551 19.7572 22.5437 20.1743 22.3513 20.5556C21.4145 23.2631 19.1887 23.4916 16.2289 22.925L15.5105 25.8366L13.7747 25.3991L14.4837 22.5266C14.0338 22.4136 13.574 22.2936 13.1004 22.1636L12.389 25.0495L10.6552 24.612L11.3736 21.695C10.9681 21.59 10.5563 21.4785 10.1361 21.3721L7.87728 20.8025L8.739 18.7931C8.739 18.7931 10.0179 19.1371 10.0006 19.1116C10.0802 19.137 10.1641 19.1464 10.2473 19.1391C10.3305 19.1318 10.4115 19.1081 10.4855 19.0693C10.5595 19.0306 10.6251 18.9775 10.6784 18.9131C10.7317 18.8488 10.7717 18.7745 10.7961 18.6946L12.744 10.7941C12.769 10.5521 12.6984 10.3098 12.5473 10.1191C12.3962 9.92836 12.1766 9.80421 11.9352 9.77315C11.9624 9.75469 10.6744 9.45616 10.6744 9.45616L11.1362 7.58115L13.53 8.18565L13.528 8.19472C13.8879 8.28515 14.2587 8.37118 14.6364 8.45821L15.3478 5.5752L17.0826 6.01269L16.3856 8.83917C16.8513 8.94667 17.32 9.05517 17.7763 9.17021L18.4684 6.36221L20.2042 6.79971L19.4933 9.68369C21.6848 10.4472 23.2876 11.5917 22.9728 13.7206Z" fill="#838D9B"/>
</svg>
