<svg width="32" height="32" viewBox="0 0 32 32" fill="none" xmlns="http://www.w3.org/2000/svg">
<path fill-rule="evenodd" clip-rule="evenodd" d="M3.5447 4.87868C2.66602 5.75736 2.66602 7.17157 2.66602 10V22C2.66602 24.8284 2.66602 26.2426 3.5447 27.1213C4.42337 28 5.83759 28 8.66601 28H23.9994C26.1855 28 27.2786 28 28.0534 27.4575C28.3401 27.2567 28.5894 27.0074 28.7901 26.7207C29.3327 25.9459 29.3327 24.8528 29.3327 22.6667H21.3327C19.1235 22.6667 17.3327 20.8758 17.3327 18.6667C17.3327 16.4575 19.1235 14.6667 21.3327 14.6667H29.3327V10C29.3327 7.17157 29.3327 5.75736 28.454 4.87868C27.5753 4 26.1611 4 23.3327 4H8.66602C5.83759 4 4.42337 4 3.5447 4.87868ZM9.33268 9.66667C8.7804 9.66667 8.33268 10.1144 8.33268 10.6667C8.33268 11.219 8.7804 11.6667 9.33268 11.6667H13.3327C13.885 11.6667 14.3327 11.219 14.3327 10.6667C14.3327 10.1144 13.885 9.66667 13.3327 9.66667H9.33268Z" fill="#583AFB"/>
<path d="M22.6673 18.666H21.334" stroke="#583AFB" stroke-width="2" stroke-linecap="round"/>
</svg>
