<svg width="33" height="33" viewBox="0 0 33 33" fill="none" xmlns="http://www.w3.org/2000/svg">
<path d="M20.2286 28.6812C20.2406 28.7576 20.2359 28.8356 20.2149 28.9099C20.1939 28.9843 20.1571 29.0533 20.1069 29.112C20.0567 29.1708 19.9944 29.218 19.9243 29.2505C19.8542 29.2829 19.7778 29.2997 19.7006 29.2999H14.9805C14.4632 28.9692 13.9672 28.6119 13.4872 28.2332C13.2952 28.0839 13.1085 27.9292 12.9219 27.7745L13.3059 25.4812C13.3261 25.3559 13.3904 25.2419 13.4872 25.1598C13.584 25.0776 13.7069 25.0328 13.8339 25.0332H19.1672C19.2942 25.0328 19.4171 25.0776 19.5139 25.1598C19.6107 25.2419 19.675 25.3559 19.6952 25.4812L20.1539 28.2332L20.2286 28.6812Z" fill="#4294FF"/>
<path d="M9.03315 15.4336H5.83314C5.53859 15.4336 5.2998 15.6724 5.2998 15.9669V25.567C5.2998 25.8615 5.53859 26.1003 5.83314 26.1003H9.03315C9.3277 26.1003 9.56648 25.8615 9.56648 25.567V15.9669C9.56648 15.6724 9.3277 15.4336 9.03315 15.4336Z" fill="#376CFB"/>
<path d="M18.1005 15.4336H14.9005C14.606 15.4336 14.3672 15.6724 14.3672 15.9669V25.567C14.3672 25.8615 14.606 26.1003 14.9005 26.1003H18.1005C18.3951 26.1003 18.6339 25.8615 18.6339 25.567V15.9669C18.6339 15.6724 18.3951 15.4336 18.1005 15.4336Z" fill="#376CFB"/>
<path d="M27.1669 15.4336H23.9669C23.6724 15.4336 23.4336 15.6724 23.4336 15.9669V25.567C23.4336 25.8615 23.6724 26.1003 23.9669 26.1003H27.1669C27.4615 26.1003 27.7003 25.8615 27.7003 25.567V15.9669C27.7003 15.6724 27.4615 15.4336 27.1669 15.4336Z" fill="#376CFB"/>
<path d="M19.6999 12.2344H13.2999C13.2224 12.2344 13.1459 12.2513 13.0756 12.2838C13.0053 12.3164 12.943 12.3639 12.8929 12.423C12.8429 12.4821 12.8063 12.5515 12.7857 12.6261C12.7652 12.7008 12.7611 12.7791 12.7739 12.8555L13.3072 16.0555C13.328 16.18 13.3922 16.2931 13.4886 16.3747C13.5849 16.4563 13.707 16.501 13.8332 16.5011H19.1666C19.2928 16.5011 19.415 16.4564 19.5113 16.3748C19.6077 16.2932 19.6719 16.18 19.6926 16.0555L20.226 12.8555C20.2387 12.7791 20.2347 12.7008 20.2141 12.6261C20.1935 12.5515 20.1569 12.4821 20.1069 12.423C20.0568 12.3639 19.9945 12.3164 19.9242 12.2838C19.8539 12.2513 19.7774 12.2344 19.6999 12.2344Z" fill="#4294FF"/>
<path d="M10.6335 12.2344H4.2335C4.15603 12.2344 4.0795 12.2513 4.00922 12.2838C3.93894 12.3164 3.8766 12.3639 3.82654 12.423C3.77648 12.4821 3.73989 12.5515 3.71933 12.6261C3.69877 12.7008 3.69472 12.7791 3.70747 12.8555L4.2408 16.0555C4.26158 16.18 4.32584 16.2931 4.42216 16.3747C4.51848 16.4563 4.64061 16.501 4.76683 16.5011H10.1002C10.2264 16.501 10.3485 16.4563 10.4449 16.3747C10.5412 16.2931 10.6054 16.18 10.6262 16.0555L11.1595 12.8555C11.1723 12.7791 11.1682 12.7008 11.1477 12.6261C11.1271 12.5515 11.0905 12.4821 11.0405 12.423C10.9904 12.3639 10.9281 12.3164 10.8578 12.2838C10.7875 12.2513 10.711 12.2344 10.6335 12.2344Z" fill="#4294FF"/>
<path d="M22.9006 16.5011H28.234C28.3602 16.5011 28.4824 16.4564 28.5787 16.3748C28.6751 16.2932 28.7393 16.18 28.76 16.0555L29.2933 12.8555C29.3061 12.7791 29.302 12.7008 29.2815 12.6261C29.2609 12.5515 29.2243 12.4821 29.1743 12.423C29.1242 12.3639 29.0619 12.3164 28.9916 12.2838C28.9213 12.2513 28.8448 12.2344 28.7673 12.2344H22.3673C22.2898 12.2344 22.2133 12.2513 22.143 12.2838C22.0727 12.3164 22.0104 12.3639 21.9603 12.423C21.9103 12.4821 21.8737 12.5515 21.8531 12.6261C21.8326 12.7008 21.8285 12.7791 21.8413 12.8555L22.3746 16.0555C22.3953 16.18 22.4596 16.2932 22.5559 16.3748C22.6522 16.4564 22.7744 16.5011 22.9006 16.5011V16.5011Z" fill="#4294FF"/>
<path d="M19.1666 25.0342H13.8332C13.707 25.0342 13.5849 25.079 13.4886 25.1605C13.3922 25.2421 13.328 25.3552 13.3072 25.4797L12.7739 28.6797C12.7611 28.7561 12.7652 28.8344 12.7857 28.9091C12.8063 28.9838 12.8429 29.0531 12.8929 29.1122C12.943 29.1713 13.0053 29.2188 13.0756 29.2514C13.1459 29.284 13.2224 29.3009 13.2999 29.3009H19.6999C19.7774 29.3009 19.8539 29.284 19.9242 29.2514C19.9945 29.2188 20.0568 29.1713 20.1069 29.1122C20.1569 29.0531 20.1935 28.9838 20.2141 28.9091C20.2347 28.8344 20.2387 28.7561 20.226 28.6797L19.6926 25.4797C19.6719 25.3552 19.6077 25.2421 19.5113 25.1605C19.415 25.0789 19.2928 25.0341 19.1666 25.0342Z" fill="#4294FF"/>
<path d="M28.234 25.0342H22.9006C22.7744 25.0341 22.6522 25.0789 22.5559 25.1605C22.4596 25.2421 22.3953 25.3552 22.3746 25.4797L21.8413 28.6797C21.8285 28.7561 21.8326 28.8344 21.8531 28.9091C21.8737 28.9838 21.9103 29.0531 21.9603 29.1122C22.0104 29.1713 22.0727 29.2188 22.143 29.2514C22.2133 29.284 22.2898 29.3009 22.3673 29.3009H28.7673C28.8448 29.3009 28.9213 29.284 28.9916 29.2514C29.0619 29.2188 29.1242 29.1713 29.1743 29.1122C29.2243 29.0531 29.2609 28.9838 29.2815 28.9091C29.302 28.8344 29.3061 28.7561 29.2933 28.6797L28.76 25.4797C28.7393 25.3552 28.6751 25.2421 28.5787 25.1605C28.4824 25.0789 28.3602 25.0341 28.234 25.0342Z" fill="#4294FF"/>
<path d="M10.1002 25.0332H4.76683C4.64061 25.0332 4.51848 25.078 4.42216 25.1596C4.32584 25.2412 4.26158 25.3542 4.2408 25.4788L3.70747 28.6788C3.69472 28.7552 3.69877 28.8334 3.71933 28.9081C3.73989 28.9828 3.77648 29.0521 3.82654 29.1112C3.8766 29.1703 3.93894 29.2178 4.00922 29.2504C4.0795 29.283 4.15603 29.2999 4.2335 29.2999H10.6335C10.711 29.2999 10.7875 29.283 10.8578 29.2504C10.9281 29.2178 10.9904 29.1703 11.0405 29.1112C11.0905 29.0521 11.1271 28.9828 11.1477 28.9081C11.1682 28.8334 11.1723 28.7552 11.1595 28.6788L10.6262 25.4788C10.6054 25.3542 10.5412 25.2412 10.4449 25.1596C10.3485 25.078 10.2264 25.0332 10.1002 25.0332Z" fill="#376CFB"/>
<path d="M6.04687 15.4334C5.94314 14.7263 5.87727 14.0142 5.84953 13.3001C5.83887 13.0334 5.83353 12.7667 5.83353 12.5001C5.83353 12.4094 5.83354 12.3241 5.83887 12.2334H3.7002V13.3001H3.7802L4.23886 16.0521C4.2591 16.1774 4.3234 16.2914 4.4202 16.3735C4.51699 16.4556 4.63992 16.5005 4.76687 16.5001H6.23354C6.1642 16.1481 6.1002 15.7907 6.04687 15.4334V15.4334Z" fill="#376CFB"/>
<path d="M30.3664 28.2334H2.63294C2.33839 28.2334 2.09961 28.4722 2.09961 28.7667V31.9667C2.09961 32.2613 2.33839 32.5001 2.63294 32.5001H30.3664C30.6609 32.5001 30.8997 32.2613 30.8997 31.9667V28.7667C30.8997 28.4722 30.6609 28.2334 30.3664 28.2334Z" fill="#E6ECFF"/>
<path d="M9.56648 24.1374V25.0334H5.2998V16.5H6.23314C6.79229 19.2527 7.92835 21.8556 9.56648 24.1374V24.1374Z" fill="#275ED8"/>
<path d="M13.4867 28.2341H12.8467L12.9213 27.7754C13.108 27.9301 13.2947 28.0847 13.4867 28.2341Z" fill="#376CFB"/>
<path d="M25.833 32.5001H2.63294C2.49162 32.4997 2.3562 32.4433 2.25627 32.3434C2.15634 32.2435 2.10002 32.1081 2.09961 31.9667V28.7667C2.10002 28.6254 2.15634 28.49 2.25627 28.3901C2.3562 28.2901 2.49162 28.2338 2.63294 28.2334H13.4863C13.9663 28.6121 14.4623 28.9694 14.9796 29.3001C18.2108 31.3962 21.9815 32.5079 25.833 32.5001V32.5001Z" fill="#D0DBF7"/>
<path d="M30.3664 9.56641H2.63294C2.33839 9.56641 2.09961 9.80519 2.09961 10.0997V12.7664C2.09961 13.061 2.33839 13.2998 2.63294 13.2998H30.3664C30.6609 13.2998 30.8997 13.061 30.8997 12.7664V10.0997C30.8997 9.80519 30.6609 9.56641 30.3664 9.56641Z" fill="#D0DBF7"/>
<path d="M5.83829 12.2331C5.83295 12.3237 5.83295 12.4091 5.83295 12.4997C5.83295 12.7664 5.83829 13.0331 5.84895 13.2998H2.63294C2.49162 13.2993 2.3562 13.243 2.25627 13.1431C2.15634 13.0432 2.10002 12.9077 2.09961 12.7664V9.56641H6.04629C5.99295 9.91841 5.95029 10.2757 5.91829 10.6331C5.87029 11.1611 5.84362 11.6944 5.83829 12.2331V12.2331Z" fill="#BECCED"/>
<path d="M32.2368 9.63973L16.7701 0.573039C16.6882 0.525207 16.5951 0.5 16.5002 0.5C16.4054 0.5 16.3123 0.525207 16.2304 0.573039L0.76371 9.63973C0.662652 9.69895 0.583896 9.78978 0.539604 9.89821C0.495311 10.0066 0.487945 10.1266 0.518643 10.2397C0.549341 10.3527 0.616396 10.4525 0.709453 10.5236C0.802511 10.5948 0.916396 10.6333 1.03352 10.6332H31.9669C32.0841 10.6333 32.198 10.5948 32.291 10.5236C32.3841 10.4525 32.4511 10.3527 32.4818 10.2397C32.5125 10.1266 32.5052 10.0066 32.4609 9.89821C32.4166 9.78978 32.3378 9.69895 32.2368 9.63973V9.63973Z" fill="#E6ECFF"/>
<path d="M17.5671 5.30046C17.7085 5.30046 17.8442 5.24427 17.9442 5.14425C18.0442 5.04423 18.1004 4.90858 18.1004 4.76713V4.68926C18.0993 4.36633 17.9952 4.05215 17.8034 3.79235C17.6116 3.53254 17.342 3.34063 17.0337 3.24446V3.16712C17.0337 3.02567 16.9775 2.89002 16.8775 2.79C16.7775 2.68998 16.6418 2.63379 16.5004 2.63379C16.3589 2.63379 16.2233 2.68998 16.1233 2.79C16.0233 2.89002 15.9671 3.02567 15.9671 3.16712V3.24446C15.6778 3.33435 15.4221 3.50879 15.2328 3.74531C15.0436 3.98183 14.9295 4.26959 14.9053 4.57153C14.881 4.87346 14.9478 5.17574 15.0968 5.43942C15.2459 5.7031 15.4706 5.91609 15.7418 6.05097L16.7818 6.57049C16.8736 6.61641 16.9472 6.69195 16.9906 6.7849C17.0341 6.87785 17.045 6.98276 17.0215 7.08264C16.9979 7.18252 16.9413 7.27154 16.8609 7.33527C16.7805 7.399 16.6809 7.43372 16.5783 7.4338H16.4225C16.3018 7.43363 16.186 7.38559 16.1007 7.30021C16.0153 7.21483 15.9672 7.09908 15.9671 6.97834V6.90047C15.9671 6.75902 15.9109 6.62336 15.8109 6.52334C15.7108 6.42332 15.5752 6.36713 15.4337 6.36713C15.2923 6.36713 15.1566 6.42332 15.0566 6.52334C14.9566 6.62336 14.9004 6.75902 14.9004 6.90047V6.97834C14.9015 7.30127 15.0055 7.61544 15.1973 7.87525C15.3892 8.13505 15.6588 8.32697 15.9671 8.42314V8.50047C15.9671 8.64192 16.0233 8.77758 16.1233 8.8776C16.2233 8.97762 16.3589 9.03381 16.5004 9.03381C16.6418 9.03381 16.7775 8.97762 16.8775 8.8776C16.9775 8.77758 17.0337 8.64192 17.0337 8.50047V8.42314C17.323 8.33326 17.5788 8.15882 17.768 7.92228C17.9573 7.68574 18.0713 7.39795 18.0955 7.09599C18.1198 6.79404 18.053 6.49175 17.9038 6.22808C17.7547 5.96441 17.53 5.75144 17.2587 5.61662L16.2192 5.0971C16.1273 5.05126 16.0536 4.97574 16.0101 4.88278C15.9665 4.78983 15.9556 4.68488 15.9791 4.58495C16.0027 4.48503 16.0593 4.39598 16.1397 4.33224C16.2202 4.26851 16.3199 4.23381 16.4225 4.23379H16.5783C16.699 4.23396 16.8148 4.282 16.9001 4.36738C16.9855 4.45276 17.0336 4.56852 17.0337 4.68926V4.76713C17.0337 4.90858 17.0899 5.04423 17.1899 5.14425C17.29 5.24427 17.4256 5.30046 17.5671 5.30046Z" fill="#4294FF"/>
<path d="M6.90016 6.04199C6.50831 7.18848 6.22266 8.36856 6.04682 9.56734C5.99349 9.91934 5.95082 10.2767 5.91882 10.634H1.03347C0.917032 10.6332 0.804048 10.5943 0.711712 10.5234C0.619376 10.4524 0.552743 10.3533 0.521951 10.241C0.491159 10.1287 0.497893 10.0094 0.54113 9.90126C0.584367 9.79314 0.661739 9.70211 0.761474 9.642L6.90016 6.04199Z" fill="#D0DBF7"/>
</svg>
