<svg width="64" height="56" viewBox="0 0 64 56" fill="none" xmlns="http://www.w3.org/2000/svg">
<g clip-path="url(#clip0_117_1625)">
<path d="M59.2505 6.60462C58.4615 5.05385 57.0585 3.92154 55.3735 3.47846C51.3231 2.40769 42.6092 0.5 32 0.5C21.3908 0.5 12.6769 2.40769 8.62769 3.47846C6.94277 3.92154 5.53846 5.05385 4.75077 6.60462C2.92923 10.1246 0 17.3862 0 27.5769C0 37.7677 2.92923 45.0292 4.74954 48.5492C5.53846 50.1 6.94154 51.2323 8.62646 51.6754C12.6769 52.7462 21.3908 54.6538 32 54.6538C42.6092 54.6538 51.3231 52.7462 55.3723 51.6754C57.0572 51.2323 58.4615 50.1 59.2492 48.5492C61.0708 45.0292 64 37.7677 64 27.5769C64 17.3862 61.0708 10.1246 59.2505 6.60462ZM43.4092 29.2569L25.3292 42.0015C24.9982 42.2231 24.6031 42.3462 24.1846 42.3462C23.0646 42.3462 22.1538 41.4354 22.1538 40.3154V14.8385C22.1538 13.7185 23.0646 12.8077 24.1846 12.8077C24.6031 12.8077 24.9969 12.9308 25.3292 13.1523L43.4092 25.8969C43.9508 26.2674 44.3077 26.8754 44.3077 27.5769C44.3077 28.2662 43.9508 28.8877 43.4092 29.2569Z" fill="#00C7FF"/>
<path d="M43.4097 29.2578L25.3297 42.0024C24.9986 42.224 24.6035 42.3471 24.1851 42.3471C23.0651 42.3471 22.1543 41.4363 22.1543 40.3163V14.8394C22.1543 13.7194 23.0651 12.8086 24.1851 12.8086C24.6035 12.8086 24.9974 12.9317 25.3297 13.1532L43.4097 25.8978C43.9512 26.2683 44.3081 26.8763 44.3081 27.5778C44.3081 28.2671 43.9512 28.8886 43.4097 29.2578Z" fill="#F5F5FA"/>
</g>
<defs>
<clipPath id="clip0_117_1625">
<rect width="64" height="55" fill="white" transform="translate(0 0.5)"/>
</clipPath>
</defs>
</svg>
