<svg width="135" height="22" viewBox="0 0 135 22" fill="none" xmlns="http://www.w3.org/2000/svg">
<path fill-rule="evenodd" clip-rule="evenodd" d="M11.5494 0.145508L14.2436 8.4373H22.9621L15.9087 13.5619L18.6028 21.8537L11.5494 16.7291L4.49597 21.8537L7.19014 13.5619L0.136719 8.4373H8.85523L11.5494 0.145508ZM39.5494 0.145508L42.2436 8.4373H50.9621L43.9087 13.5619L46.6028 21.8537L39.5494 16.7291L32.496 21.8537L35.1901 13.5619L28.1367 8.4373H36.8552L39.5494 0.145508ZM70.2436 8.4373L67.5494 0.145508L64.8552 8.4373H56.1367L63.1901 13.5619L60.496 21.8537L67.5494 16.7291L74.6028 21.8537L71.9087 13.5619L78.9621 8.4373H70.2436ZM95.5494 0.145508L98.2436 8.4373H106.962L99.9086 13.5619L102.603 21.8537L95.5494 16.7291L88.496 21.8537L91.1901 13.5619L84.1367 8.4373H92.8552L95.5494 0.145508ZM126.244 8.4373L123.549 0.145508L120.855 8.4373H112.137L119.19 13.5619L116.496 21.8537L123.549 16.7291L130.603 21.8537L127.909 13.5619L134.962 8.4373H126.244Z" fill="#E6E7F0"/>
</svg>
