<svg width="106" height="96" viewBox="0 0 106 96" fill="none" xmlns="http://www.w3.org/2000/svg">
<path d="M39.7642 26.0905C35.1687 34.1633 44.1358 41.1631 50.5394 30.6952C57.4207 19.4427 69.6591 9.21607 80.6852 19.7775C94.147 32.6779 86.5246 61.1341 67.8823 70.6407C49.2399 80.1473 20.3213 75.1112 14.6487 55.7618C5.57741 24.8071 49.5792 8.85332 39.7642 26.0905Z" fill="#00C7FF" fill-opacity="0.1"/>
<path d="M0 87.2484L43.1014 23.142L43.2544 22.6078H5.46894L7.64887 9.09961H62.606L60.3496 22.7985L17.0952 87.2484H0Z" fill="#583AFB"/>
<rect x="28.9629" y="79.2129" width="37.2311" height="8.02772" rx="2" fill="#2C80FD"/>
<rect x="31.7598" y="79.2129" width="19.2977" height="8.02772" fill="#16A3FE"/>
<rect x="36.8457" y="79.2129" width="7.67015" height="8.02772" fill="#0BB5FF"/>
<path opacity="0.25" fill-rule="evenodd" clip-rule="evenodd" d="M30.2102 87.2406C29.5213 87.2406 28.9629 86.6822 28.9629 85.9933H66.194C66.194 86.6822 65.6356 87.2406 64.9467 87.2406H30.2102Z" fill="#583AFB"/>
<path opacity="0.5" fill-rule="evenodd" clip-rule="evenodd" d="M30.2102 79.2125C29.5213 79.2125 28.9629 79.7709 28.9629 80.4598H66.194C66.194 79.7709 65.6356 79.2125 64.9467 79.2125H30.2102Z" fill="#00C7FF"/>
<rect x="31.7588" y="71.1875" width="37.2311" height="8.02772" rx="2" fill="#2C80FD"/>
<rect x="34.5557" y="71.1875" width="19.2977" height="8.02772" fill="#16A3FE"/>
<rect x="39.6416" y="71.1875" width="7.67015" height="8.02772" fill="#0BB5FF"/>
<path opacity="0.25" fill-rule="evenodd" clip-rule="evenodd" d="M33.0061 79.2152C32.3172 79.2152 31.7588 78.6568 31.7588 77.9679H68.9899C68.9899 78.6568 68.4315 79.2152 67.7426 79.2152H33.0061Z" fill="#583AFB"/>
<path opacity="0.5" fill-rule="evenodd" clip-rule="evenodd" d="M33.0061 71.1871C32.3172 71.1871 31.7588 71.7455 31.7588 72.4344H68.9899C68.9899 71.7455 68.4315 71.1871 67.7426 71.1871H33.0061Z" fill="#00C7FF"/>
<rect x="28.9424" y="63.1582" width="37.2311" height="8.02772" rx="2" fill="#2C80FD"/>
<rect x="31.7393" y="63.1582" width="19.2977" height="8.02772" fill="#16A3FE"/>
<rect x="36.8252" y="63.1582" width="7.67015" height="8.02772" fill="#0BB5FF"/>
<path opacity="0.25" fill-rule="evenodd" clip-rule="evenodd" d="M30.1897 71.1859C29.5008 71.1859 28.9424 70.6275 28.9424 69.9387H66.1735C66.1735 70.6275 65.6151 71.1859 64.9262 71.1859H30.1897Z" fill="#583AFB"/>
<path opacity="0.5" fill-rule="evenodd" clip-rule="evenodd" d="M30.1897 63.1578C29.5008 63.1578 28.9424 63.7162 28.9424 64.4051H66.1735C66.1735 63.7162 65.6151 63.1578 64.9262 63.1578H30.1897Z" fill="#00C7FF"/>
<rect x="62.1123" y="79.2129" width="37.2311" height="8.02772" rx="2" fill="#2C80FD"/>
<rect x="64.9092" y="79.2129" width="19.2977" height="8.02772" fill="#16A3FE"/>
<rect x="69.9951" y="79.2129" width="7.67015" height="8.02772" fill="#0BB5FF"/>
<path opacity="0.25" fill-rule="evenodd" clip-rule="evenodd" d="M63.3596 87.2406C62.6707 87.2406 62.1123 86.6822 62.1123 85.9933H99.3434C99.3434 86.6822 98.785 87.2406 98.0961 87.2406H63.3596Z" fill="#583AFB"/>
<path opacity="0.5" fill-rule="evenodd" clip-rule="evenodd" d="M63.3596 79.2125C62.6707 79.2125 62.1123 79.7709 62.1123 80.4598H99.3434C99.3434 79.7709 98.785 79.2125 98.0961 79.2125H63.3596Z" fill="#00C7FF"/>
<rect x="64.9082" y="71.1855" width="37.2311" height="8.02772" rx="2" fill="#2C80FD"/>
<rect x="67.7051" y="71.1855" width="19.2977" height="8.02772" fill="#16A3FE"/>
<rect x="72.791" y="71.1855" width="7.67015" height="8.02772" fill="#0BB5FF"/>
<path opacity="0.25" fill-rule="evenodd" clip-rule="evenodd" d="M66.1555 79.2133C65.4666 79.2133 64.9082 78.6548 64.9082 77.966H102.139C102.139 78.6548 101.581 79.2133 100.892 79.2133H66.1555Z" fill="#583AFB"/>
<path opacity="0.5" fill-rule="evenodd" clip-rule="evenodd" d="M66.1555 71.1852C65.4666 71.1852 64.9082 71.7436 64.9082 72.4324H102.139C102.139 71.7436 101.581 71.1852 100.892 71.1852H66.1555Z" fill="#00C7FF"/>
<rect x="62.0928" y="63.1602" width="37.2311" height="8.02772" rx="2" fill="#2C80FD"/>
<rect x="64.8896" y="63.1602" width="19.2977" height="8.02772" fill="#16A3FE"/>
<rect x="69.9756" y="63.1602" width="7.67015" height="8.02772" fill="#0BB5FF"/>
<path opacity="0.25" fill-rule="evenodd" clip-rule="evenodd" d="M63.34 71.1879C62.6512 71.1879 62.0928 70.6295 62.0928 69.9406H99.3239C99.3239 70.6295 98.7655 71.1879 98.0766 71.1879H63.34Z" fill="#583AFB"/>
<path opacity="0.5" fill-rule="evenodd" clip-rule="evenodd" d="M63.34 63.1598C62.6512 63.1598 62.0928 63.7182 62.0928 64.4071H99.3239C99.3239 63.7182 98.7655 63.1598 98.0766 63.1598H63.34Z" fill="#00C7FF"/>
<rect x="67.3838" y="55.1309" width="37.2311" height="8.02772" rx="2" fill="#2C80FD"/>
<rect x="70.1807" y="55.1309" width="19.2977" height="8.02772" fill="#16A3FE"/>
<rect x="75.2666" y="55.1309" width="7.67015" height="8.02772" fill="#0BB5FF"/>
<path opacity="0.25" fill-rule="evenodd" clip-rule="evenodd" d="M68.6311 63.1586C67.9422 63.1586 67.3838 62.6002 67.3838 61.9113H104.615C104.615 62.6002 104.056 63.1586 103.368 63.1586H68.6311Z" fill="#583AFB"/>
<path opacity="0.5" fill-rule="evenodd" clip-rule="evenodd" d="M68.6311 55.1305C67.9422 55.1305 67.3838 55.6889 67.3838 56.3778H104.615C104.615 55.6889 104.056 55.1305 103.368 55.1305H68.6311Z" fill="#00C7FF"/>
<rect x="57.707" y="47.1016" width="37.2311" height="8.02772" rx="2" fill="#2C80FD"/>
<rect x="60.5039" y="47.1016" width="19.2977" height="8.02772" fill="#16A3FE"/>
<rect x="65.5898" y="47.1016" width="7.67015" height="8.02772" fill="#0BB5FF"/>
<path opacity="0.25" fill-rule="evenodd" clip-rule="evenodd" d="M58.9543 55.1293C58.2655 55.1293 57.707 54.5709 57.707 53.882H94.9381C94.9381 54.5709 94.3797 55.1293 93.6909 55.1293H58.9543Z" fill="#583AFB"/>
<path opacity="0.5" fill-rule="evenodd" clip-rule="evenodd" d="M58.9543 47.1012C58.2655 47.1012 57.707 47.6596 57.707 48.3485H94.9381C94.9381 47.6596 94.3797 47.1012 93.6909 47.1012H58.9543Z" fill="#00C7FF"/>
<rect x="63.6221" y="39.0762" width="37.2311" height="8.02772" rx="2" fill="#2C80FD"/>
<rect x="66.4189" y="39.0762" width="19.2977" height="8.02772" fill="#16A3FE"/>
<rect x="71.5049" y="39.0762" width="7.67015" height="8.02772" fill="#0BB5FF"/>
<path opacity="0.25" fill-rule="evenodd" clip-rule="evenodd" d="M64.8693 47.1039C64.1805 47.1039 63.6221 46.5455 63.6221 45.8566H100.853C100.853 46.5455 100.295 47.1039 99.6059 47.1039H64.8693Z" fill="#583AFB"/>
<path opacity="0.5" fill-rule="evenodd" clip-rule="evenodd" d="M64.8693 39.0758C64.1805 39.0758 63.6221 39.6342 63.6221 40.3231H100.853C100.853 39.6342 100.295 39.0758 99.6059 39.0758H64.8693Z" fill="#00C7FF"/>
<rect x="68.2881" y="31.0488" width="37.2311" height="8.02772" rx="2" fill="#2C80FD"/>
<rect x="71.085" y="31.0488" width="19.2977" height="8.02772" fill="#16A3FE"/>
<rect x="76.1709" y="31.0488" width="7.67015" height="8.02772" fill="#0BB5FF"/>
<path opacity="0.25" fill-rule="evenodd" clip-rule="evenodd" d="M69.5354 39.0766C68.8465 39.0766 68.2881 38.5181 68.2881 37.8293H105.519C105.519 38.5181 104.961 39.0766 104.272 39.0766H69.5354Z" fill="#583AFB"/>
<path opacity="0.5" fill-rule="evenodd" clip-rule="evenodd" d="M69.5354 31.0484C68.8465 31.0484 68.2881 31.6069 68.2881 32.2957H105.519C105.519 31.6069 104.961 31.0484 104.272 31.0484H69.5354Z" fill="#00C7FF"/>
<path d="M79.985 23.9197L80.1575 22.9971C80.2898 22.2965 80.5544 21.653 80.9512 21.0664C81.3538 20.474 81.8715 20.0013 82.5041 19.6482C83.1368 19.2894 83.8673 19.11 84.6955 19.11C85.541 19.11 86.2254 19.2866 86.7488 19.6397C87.278 19.9928 87.6403 20.4655 87.8359 21.0578C88.0372 21.6444 88.0717 22.2908 87.9394 22.9971L87.7669 23.9197C87.6346 24.6145 87.37 25.2581 86.9731 25.8504C86.5763 26.4427 86.0615 26.9154 85.4288 27.2685C84.7962 27.6273 84.06 27.8068 83.2202 27.8068C82.3805 27.8068 81.6989 27.6273 81.1755 27.2685C80.6521 26.9154 80.2898 26.4427 80.0885 25.8504C79.8929 25.2581 79.8584 24.6145 79.985 23.9197ZM82.6681 22.9971L82.4955 23.9197C82.4208 24.3241 82.4524 24.7057 82.5904 25.0645C82.7342 25.4233 83.0678 25.6027 83.5912 25.6027C84.1203 25.6027 84.5086 25.4261 84.7559 25.073C85.0032 24.7199 85.1643 24.3355 85.239 23.9197L85.4116 22.9971C85.4863 22.5813 85.4605 22.194 85.3339 21.8352C85.2074 21.4764 84.8709 21.297 84.3245 21.297C83.8126 21.297 83.4273 21.4764 83.1685 21.8352C82.9096 22.194 82.7428 22.5813 82.6681 22.9971ZM72.6085 13.9073L72.7466 12.9847C72.8559 12.2728 73.1118 11.6235 73.5144 11.0369C73.917 10.4503 74.4404 9.98043 75.0846 9.62732C75.7288 9.27421 76.4621 9.09766 77.2846 9.09766C78.1301 9.09766 78.8088 9.27421 79.3206 9.62732C79.8383 9.98043 80.1949 10.4503 80.3904 11.0369C80.586 11.6235 80.632 12.2728 80.5285 12.9847L80.3904 13.9073C80.2869 14.6136 80.0338 15.26 79.6312 15.8466C79.2344 16.4332 78.7139 16.9031 78.0697 17.2562C77.4255 17.6036 76.6835 17.7773 75.8438 17.7773C75.0041 17.7773 74.3283 17.6008 73.8164 17.2476C73.3045 16.8945 72.9479 16.4247 72.7466 15.8381C72.551 15.2514 72.505 14.6079 72.6085 13.9073ZM75.2744 12.9847L75.1364 13.9073C75.0731 14.3288 75.1076 14.7161 75.2399 15.0692C75.3779 15.4166 75.7029 15.5903 76.2148 15.5903C76.7382 15.5903 77.1264 15.4166 77.3795 15.0692C77.6383 14.7161 77.7993 14.3288 77.8626 13.9073L78.0007 12.9847C78.0639 12.5689 78.0352 12.1817 77.9144 11.8229C77.7936 11.4641 77.46 11.2847 76.9136 11.2847C76.4017 11.2847 76.0135 11.4669 75.7489 11.8314C75.4901 12.1959 75.3319 12.5803 75.2744 12.9847ZM71.4697 27.2002L86.5504 9.70421H88.9316L73.8509 27.2002H71.4697Z" fill="#583AFB"/>
<path d="M72.4116 68.0171C72.103 57.7414 63.5228 49.6615 53.2471 49.97C42.9715 50.2786 34.8915 58.8588 35.2001 69.1345C35.5086 79.4102 44.0889 87.4901 54.3645 87.1815C64.6402 86.873 72.7201 78.2927 72.4116 68.0171Z" fill="#2C80FD"/>
<path fill-rule="evenodd" clip-rule="evenodd" d="M53.2469 49.9696C63.5226 49.661 72.1028 57.7409 72.4114 68.0166C72.7199 78.2923 64.64 86.8725 54.3643 87.1811C44.0887 87.4896 35.5085 79.4097 35.1999 69.134C34.8913 58.8583 42.9713 50.2781 53.2469 49.9696ZM53.2653 50.5914C63.1975 50.2932 71.4909 58.103 71.7891 68.0352C72.0874 77.9674 64.2775 86.2608 54.3453 86.559C44.4132 86.8573 36.1198 79.0474 35.8215 69.1153C35.5233 59.1831 43.3331 50.8897 53.2653 50.5914Z" fill="url(#paint0_linear_169_1530)" fill-opacity="0.5"/>
<path opacity="0.5" d="M57.3877 82.4341C65.0798 80.373 69.6446 72.4665 67.5835 64.7744C65.5224 57.0824 57.6159 52.5175 49.9239 54.5786C42.2318 56.6397 37.6669 64.5462 39.728 72.2383C41.7891 79.9304 49.6956 84.4952 57.3877 82.4341Z" fill="#00C7FF"/>
<path opacity="0.5" fill-rule="evenodd" clip-rule="evenodd" d="M45.6739 56.493C41.9278 58.9815 39.5435 63.1113 39.2615 67.5997L45.6739 56.493ZM39.7647 72.3717L50.0582 54.5429C52.7107 53.8589 55.3845 53.9599 57.8313 54.7025L43.7895 79.0235C41.923 77.2759 40.4986 75.0108 39.7647 72.3717ZM47.7495 81.6602C48.1227 81.8281 48.5033 81.9802 48.8904 82.1162L63.06 57.5737C62.7488 57.3064 62.4267 57.0529 62.0947 56.8136L47.7495 81.6602Z" fill="#00C7FF"/>
<path d="M56.2146 74.204L56.713 76.064L55.0523 76.5089L54.5658 74.6932C53.0764 75.0477 51.517 74.9717 50.0691 74.4742L50.4341 72.2049C51.5706 72.6097 52.7921 72.7155 53.9813 72.5122L53.2249 69.689C51.2573 69.7416 49.02 69.629 48.3941 67.293C47.9224 65.5327 48.7773 63.6304 51.3441 62.6698L50.8516 60.8319L52.5123 60.3869L52.9988 62.2026C54.2105 61.9478 55.4655 61.9858 56.6596 62.3134L56.367 64.5871C55.4629 64.3338 54.5166 64.2684 53.5862 64.3948L54.3457 67.229C56.3103 67.1654 58.5284 67.2949 59.1424 69.5867C59.6141 71.347 58.7414 73.1828 56.2146 74.204ZM52.5811 67.2865L51.9493 64.9283C51.1169 65.3649 50.9043 65.944 51.0496 66.4865C51.195 67.029 51.7881 67.2498 52.5811 67.2865ZM56.5255 70.5371C56.3682 69.9503 55.798 69.7708 55.022 69.7533L55.6361 72.0451C56.4182 71.5982 56.6679 71.0685 56.5255 70.5371Z" fill="white"/>
<g opacity="0.35">
<path d="M25.1591 42.306C24.9997 36.9991 20.5684 32.8261 15.2615 32.9855C9.95453 33.1448 5.78158 37.5762 5.94094 42.8831C6.1003 48.1901 10.5316 52.363 15.8386 52.2036C21.1455 52.0443 25.3185 47.613 25.1591 42.306Z" fill="#00C7FF"/>
<path opacity="0.25" d="M17.4014 49.7537C21.374 48.6893 23.7316 44.6059 22.6671 40.6333C21.6026 36.6606 17.5193 34.3031 13.5466 35.3675C9.57398 36.432 7.21644 40.5154 8.2809 44.488C9.34537 48.4607 13.4287 50.8182 17.4014 49.7537Z" fill="#583AFB"/>
</g>
<path d="M16.7959 45.505L17.0533 46.4656L16.1956 46.6954L15.9444 45.7577C15.1752 45.9407 14.3698 45.9015 13.622 45.6445L13.8105 44.4725C14.3975 44.6816 15.0284 44.7362 15.6426 44.6312L15.2519 43.1732C14.2357 43.2003 13.0802 43.1422 12.757 41.9357C12.5134 41.0266 12.9549 40.0442 14.2805 39.548L14.0262 38.5989L14.8839 38.3691L15.1351 39.3068C15.7609 39.1752 16.4091 39.1948 17.0258 39.364L16.8746 40.5383C16.4077 40.4075 15.919 40.3737 15.4385 40.4389L15.8307 41.9027C16.8453 41.8698 17.9909 41.9367 18.308 43.1203C18.5516 44.0295 18.1009 44.9776 16.7959 45.505ZM14.9194 41.9324L14.5931 40.7145C14.1632 40.94 14.0534 41.2391 14.1284 41.5192C14.2035 41.7994 14.5098 41.9134 14.9194 41.9324ZM16.9565 43.6112C16.8753 43.3081 16.5808 43.2154 16.18 43.2064L16.4972 44.39C16.9011 44.1592 17.03 43.8856 16.9565 43.6112Z" fill="white"/>
<defs>
<linearGradient id="paint0_linear_169_1530" x1="36.9316" y1="57.3923" x2="58.1348" y2="86.9206" gradientUnits="userSpaceOnUse">
<stop stop-color="#0BB5FF"/>
<stop offset="1" stop-color="#583AFB"/>
</linearGradient>
</defs>
</svg>
