<?xml version="1.0" encoding="utf-8"?>
<!-- Generator: Adobe Illustrator 21.0.0, SVG Export Plug-In . SVG Version: 6.00 Build 0)  -->
<svg version="1.1" id="Слой_1" xmlns="http://www.w3.org/2000/svg" xmlns:xlink="http://www.w3.org/1999/xlink" x="0px" y="0px"
	 viewBox="0 0 28 28" style="enable-background:new 0 0 28 28;" xml:space="preserve">
<style type="text/css">
	.st0{fill:url(#SVGID_1_);}
	.st1{fill:#FFFFFF;}
</style>
<linearGradient id="SVGID_1_" gradientUnits="userSpaceOnUse" x1="29.2507" y1="2.9731" x2="-1.7493" y2="29.4731" gradientTransform="matrix(1 0 0 -1 0 30.01)">
	<stop  offset="0" style="stop-color:#1276A7"/>
	<stop  offset="1" style="stop-color:#2C80FD"/>
</linearGradient>
<path class="st0" d="M14,28c7.7,0,14-6.3,14-14c0-7.7-6.3-14-14-14C6.3,0,0,6.3,0,14C0,21.7,6.3,28,14,28z"/>
<path class="st1" d="M15.7,7.9c-0.9,0.5-1.4,1.4-1.4,2.3c0,0.5,0.2,1,0.5,1.4c0.2,0.4,0.3,1.1-0.4,1.5c-0.5,0.3-1.2,0.1-1.5-0.4
	c-0.3-0.4-0.7-0.8-1.1-1.1c-0.9-0.5-1.9-0.5-2.8,0C8.1,12.1,7.5,13,7.5,14c0,1,0.5,1.9,1.4,2.4c0.9,0.5,1.9,0.5,2.8,0
	c0.5-0.3,0.8-0.6,1.1-1.1c0.2-0.4,0.8-0.8,1.5-0.4c0.5,0.3,0.7,1,0.4,1.5c-0.3,0.5-0.4,1-0.4,1.4c0,1,0.5,1.9,1.4,2.3
	c0.9,0.5,1.9,0.5,2.8,0c0.9-0.5,1.4-1.4,1.4-2.3c0-0.9-0.5-1.9-1.4-2.4c-0.5-0.3-1-0.4-1.5-0.4c-0.5,0-1.1-0.3-1.1-1
	c0-0.6,0.5-1,1.1-1c0.5,0,1.1-0.1,1.5-0.4c0.9-0.5,1.4-1.4,1.4-2.3c0-0.9-0.5-1.9-1.4-2.3c-0.4-0.3-0.9-0.4-1.4-0.4
	C16.6,7.5,16.1,7.6,15.7,7.9"/>
</svg>
