<svg width="24" height="25" viewBox="0 0 24 25" fill="none" xmlns="http://www.w3.org/2000/svg">
<path d="M21.7104 20.7904L18.0004 17.1104C19.4405 15.3148 20.1379 13.0357 19.9492 10.7417C19.7605 8.44769 18.7001 6.31318 16.9859 4.77704C15.2718 3.2409 13.0342 2.4199 10.7333 2.48286C8.43243 2.54582 6.24311 3.48795 4.61553 5.11553C2.98795 6.74311 2.04582 8.93243 1.98286 11.2333C1.9199 13.5342 2.7409 15.7718 4.27704 17.4859C5.81318 19.2001 7.94769 20.2605 10.2417 20.4492C12.5357 20.6379 14.8148 19.9405 16.6104 18.5004L20.2904 22.1804C20.3834 22.2741 20.494 22.3485 20.6158 22.3993C20.7377 22.4501 20.8684 22.4762 21.0004 22.4762C21.1324 22.4762 21.2631 22.4501 21.385 22.3993C21.5068 22.3485 21.6174 22.2741 21.7104 22.1804C21.8906 21.9939 21.9914 21.7447 21.9914 21.4854C21.9914 21.2261 21.8906 20.9769 21.7104 20.7904V20.7904ZM11.0004 18.5004C9.61592 18.5004 8.26255 18.0899 7.1114 17.3207C5.96026 16.5515 5.06305 15.4583 4.53324 14.1792C4.00342 12.9001 3.8648 11.4926 4.1349 10.1348C4.40499 8.77689 5.07168 7.52961 6.05065 6.55065C7.02961 5.57168 8.27689 4.90499 9.63476 4.6349C10.9926 4.3648 12.4001 4.50342 13.6792 5.03324C14.9583 5.56305 16.0515 6.46026 16.8207 7.6114C17.5899 8.76255 18.0004 10.1159 18.0004 11.5004C18.0004 13.3569 17.2629 15.1374 15.9501 16.4501C14.6374 17.7629 12.8569 18.5004 11.0004 18.5004V18.5004Z" fill="#583AFB"/>
</svg>
