<svg width="32" height="32" viewBox="0 0 32 32" fill="none" xmlns="http://www.w3.org/2000/svg">
<path d="M6.96477 8.11742L7.35869 9.03656L6.96477 8.11742C6.14554 8.46852 5.6575 9.31936 5.76806 10.2038L6.71438 17.7743C6.93453 19.5355 7.8155 21.1474 9.17903 22.2836L14.72 26.9011C15.4616 27.5191 16.539 27.5191 17.2807 26.9011L22.8216 22.2836C24.1852 21.1474 25.0661 19.5355 25.2863 17.7743L26.2326 10.2038C26.3431 9.31936 25.8551 8.46852 25.0359 8.11742L16.7882 4.58269C16.2851 4.36707 15.7156 4.36707 15.2125 4.58269L6.96477 8.11742Z" stroke="#583AFB" stroke-width="2" stroke-linecap="round"/>
<path d="M11.9997 16L15.5684 19.5687C15.7915 19.7918 16.163 19.7551 16.338 19.4925L21.333 12" stroke="#583AFB" stroke-width="2" stroke-linecap="round"/>
</svg>
