<svg width="28" height="28" viewBox="0 0 28 28" fill="none" xmlns="http://www.w3.org/2000/svg">
<path d="M21.8686 6.95043L14.7875 3.91569C14.2844 3.70008 13.7149 3.70008 13.2118 3.91569L6.13079 6.95043C5.31155 7.30153 4.82352 8.15237 4.93407 9.03679L5.71372 15.274C5.93388 17.0352 6.81485 18.647 8.17838 19.7833L12.7193 23.5674C13.461 24.1855 14.5384 24.1855 15.28 23.5674L19.821 19.7833C21.1845 18.647 22.0655 17.0352 22.2856 15.274L23.0653 9.03679C23.1758 8.15237 22.6878 7.30153 21.8686 6.95043Z" stroke="#583AFB" stroke-width="2" stroke-linecap="round"/>
<path d="M10.5003 14L13.5691 17.0687C13.7922 17.2918 14.1636 17.2551 14.3386 16.9925L18.667 10.5" stroke="#00C7FF" stroke-width="2" stroke-linecap="round"/>
</svg>
