<svg width="25" height="24" viewBox="0 0 25 24" fill="none" xmlns="http://www.w3.org/2000/svg">
<path d="M11.0272 6.62802C11.8138 4.66702 12.2071 3.68652 12.8834 3.68652C13.5597 3.68652 13.953 4.66702 14.7396 6.62802L14.7763 6.71934C15.2206 7.82721 15.4428 8.38114 15.8957 8.71783C16.3485 9.05452 16.943 9.10776 18.1319 9.21423L18.3469 9.23348C20.2927 9.40774 21.2656 9.49488 21.4738 10.1139C21.6819 10.7328 20.9594 11.3902 19.5144 12.7049L19.0321 13.1436C18.3006 13.8092 17.9348 14.1419 17.7644 14.5781C17.7326 14.6594 17.7061 14.7428 17.6852 14.8276C17.5732 15.2822 17.6803 15.765 17.8945 16.7304L17.9611 17.031C18.3548 18.8053 18.5517 19.6925 18.208 20.0751C18.0796 20.2181 17.9126 20.3211 17.7272 20.3717C17.231 20.5071 16.5266 19.933 15.1176 18.7849C14.1924 18.031 13.7298 17.6541 13.1987 17.5693C12.9898 17.5359 12.777 17.5359 12.568 17.5693C12.0369 17.6541 11.5744 18.031 10.6492 18.7849C9.24024 19.933 8.53576 20.5071 8.03956 20.3717C7.85414 20.3211 7.68723 20.2181 7.55881 20.0751C7.21513 19.6925 7.41197 18.8053 7.80564 17.031L7.87232 16.7304C8.08652 15.765 8.19363 15.2822 8.08157 14.8276C8.06067 14.7428 8.03424 14.6594 8.00244 14.5781C7.83196 14.1419 7.46621 13.8092 6.7347 13.1436L6.25242 12.7049C4.80738 11.3902 4.08485 10.7328 4.29303 10.1139C4.50121 9.49488 5.47412 9.40774 7.41993 9.23348L7.63487 9.21423C8.82379 9.10775 9.41824 9.05452 9.87109 8.71783C10.3239 8.38114 10.5461 7.8272 10.9905 6.71934L11.0272 6.62802Z" stroke="#838D9B" stroke-width="1.5"/>
</svg>
