<svg width="25" height="24" viewBox="0 0 25 24" fill="none" xmlns="http://www.w3.org/2000/svg">
<path fill-rule="evenodd" clip-rule="evenodd" d="M4.99414 14.7209C5.40573 15.8186 6.06262 16.8127 6.91948 17.6249C8.0066 18.6553 9.36902 19.3486 10.8419 19.6209C12.3148 19.8932 13.835 19.7328 15.2187 19.1592C16.6024 18.5856 17.7901 17.6233 18.6384 16.3888C19.4866 15.1543 19.9589 13.7004 19.9982 12.2031C20.0374 10.7058 19.6419 9.22913 18.8595 7.95186C18.0771 6.6746 16.9414 5.65142 15.5897 5.00611C14.238 4.36081 12.7282 4.12104 11.2431 4.3158L11.4381 5.80307C12.6358 5.646 13.8534 5.83937 14.9434 6.35977C16.0335 6.88018 16.9495 7.70532 17.5804 8.73538C18.2114 9.76543 18.5303 10.9563 18.4987 12.1638C18.467 13.3713 18.0861 14.5438 17.4021 15.5394C16.718 16.535 15.7601 17.311 14.6443 17.7736C13.5284 18.2361 12.3024 18.3655 11.1146 18.1459C9.92679 17.9263 8.82806 17.3672 7.95135 16.5362C7.29593 15.915 6.78559 15.1617 6.45152 14.3304L4.99414 14.7209Z" fill="#838D9B"/>
<path d="M6.16239 4.06647C6.93924 3.47037 7.79796 2.99272 8.71042 2.64739C9.12978 2.48868 9.33946 2.40932 9.53694 2.51053C9.73442 2.61174 9.79649 2.84338 9.92063 3.30667L11.9912 11.0341C12.1132 11.4894 12.1742 11.7171 12.0706 11.8964C11.9671 12.0758 11.7394 12.1368 11.2841 12.2588L3.55667 14.3294C3.09338 14.4535 2.86174 14.5156 2.67535 14.3952C2.48896 14.2747 2.45284 14.0535 2.38061 13.6109C2.22344 12.6481 2.20774 11.6656 2.33555 10.6947C2.50696 9.39275 2.93314 8.13728 3.58975 7C4.24636 5.86272 5.12054 4.8659 6.16239 4.06647Z" stroke="#838D9B" stroke-width="1.5"/>
</svg>
