<svg width="25" height="24" viewBox="0 0 25 24" fill="none" xmlns="http://www.w3.org/2000/svg">
<path fill-rule="evenodd" clip-rule="evenodd" d="M4.91016 14.7209C5.32175 15.8186 5.97864 16.8127 6.83549 17.6249C7.92262 18.6553 9.28504 19.3486 10.7579 19.6209C12.2308 19.8932 13.751 19.7328 15.1347 19.1592C16.5184 18.5856 17.7062 17.6233 18.5544 16.3888C19.4026 15.1543 19.8749 13.7004 19.9142 12.2031C19.9534 10.7058 19.5579 9.22913 18.7755 7.95186C17.9932 6.6746 16.8574 5.65142 15.5057 5.00611C14.154 4.36081 12.6442 4.12104 11.1591 4.3158L11.3542 5.80307C12.5518 5.646 13.7694 5.83937 14.8595 6.35977C15.9496 6.88018 16.8655 7.70532 17.4964 8.73538C18.1274 9.76543 18.4463 10.9563 18.4147 12.1638C18.383 13.3713 18.0021 14.5438 17.3181 15.5394C16.634 16.535 15.6761 17.311 14.5603 17.7736C13.4444 18.2361 12.2184 18.3655 11.0306 18.1459C9.8428 17.9263 8.74408 17.3672 7.86737 16.5362C7.21195 15.915 6.7016 15.1617 6.36753 14.3304L4.91016 14.7209Z" fill="#583AFB"/>
<path d="M6.0784 4.06647C6.85525 3.47037 7.71398 2.99272 8.62643 2.64739C9.04579 2.48868 9.25547 2.40932 9.45296 2.51053C9.65044 2.61174 9.71251 2.84338 9.83664 3.30667L11.9072 11.0341C12.0292 11.4894 12.0902 11.7171 11.9867 11.8964C11.8831 12.0758 11.6554 12.1368 11.2001 12.2588L3.47268 14.3294C3.0094 14.4535 2.77776 14.5156 2.59136 14.3952C2.40497 14.2747 2.36886 14.0535 2.29662 13.6109C2.13946 12.6481 2.12376 11.6656 2.25157 10.6947C2.42298 9.39275 2.84915 8.13728 3.50576 7C4.16237 5.86272 5.03655 4.8659 6.0784 4.06647Z" stroke="#00C7FF" stroke-width="1.5"/>
</svg>
