<svg width="33" height="33" viewBox="0 0 33 33" fill="none" xmlns="http://www.w3.org/2000/svg">
<path d="M21.1074 14.5L17.1074 18.5L14.4408 15.8333L10.4408 19.8333" stroke="#00C7FF" stroke-width="1.5" stroke-linecap="round" stroke-linejoin="round"/>
<path d="M19.7747 6.5H9.64141C8.5213 6.5 7.96125 6.5 7.53343 6.71799C7.1571 6.90973 6.85114 7.21569 6.65939 7.59202C6.44141 8.01984 6.44141 8.5799 6.44141 9.7V23.3C6.44141 24.4201 6.44141 24.9802 6.65939 25.408C6.85114 25.7843 7.1571 26.0903 7.53343 26.282C7.96125 26.5 8.5213 26.5 9.64141 26.5H23.2414C24.3615 26.5 24.9216 26.5 25.3494 26.282C25.7257 26.0903 26.0317 25.7843 26.2234 25.408C26.4414 24.9802 26.4414 24.4201 26.4414 23.3V13.1667" stroke="#583AFB" stroke-width="1.5" stroke-linecap="round"/>
<path d="M27.6921 7.83333C27.6921 9.26007 26.5355 10.4167 25.1087 10.4167C23.682 10.4167 22.5254 9.26007 22.5254 7.83333C22.5254 6.4066 23.682 5.25 25.1087 5.25C26.5355 5.25 27.6921 6.4066 27.6921 7.83333Z" stroke="#00C7FF" stroke-width="1.5" stroke-linecap="round"/>
</svg>
