<?xml version="1.0" encoding="utf-8"?>
<!-- Generator: Adobe Illustrator 21.0.0, SVG Export Plug-In . SVG Version: 6.00 Build 0)  -->
<svg version="1.1" id="Слой_1" xmlns="http://www.w3.org/2000/svg" xmlns:xlink="http://www.w3.org/1999/xlink" x="0px" y="0px"
	 viewBox="0 0 24.2 24.2" style="enable-background:new 0 0 24.2 24.2;" xml:space="preserve">
<style type="text/css">
	.st0{clip-path:url(#SVGID_2_);}
	.st1{fill:#53AE94;}
	.st2{fill:#FFFFFF;}
	.st3{fill:none;stroke:#FFFFFF;stroke-width:2;}
</style>
<g>
	<defs>
		<path id="SVGID_1_" d="M12.1,0.1L12.1,0.1c6.6,0,12,5.4,12,12l0,0c0,6.6-5.4,12-12,12l0,0c-6.6,0-12-5.4-12-12l0,0
			C0.1,5.5,5.5,0.1,12.1,0.1z"/>
	</defs>
	<clipPath id="SVGID_2_">
		<use xlink:href="#SVGID_1_"  style="overflow:visible;"/>
	</clipPath>
	<g class="st0">
		<path class="st1" d="M12.1,0.1c6.6,0,12,5.4,12,12c0,6.6-5.4,12-12,12c-6.6,0-12-5.4-12-12C0.1,5.5,5.5,0.1,12.1,0.1z"/>
		<path class="st2" d="M13.6,10.5V8.7h4.1V6H6.5v2.7h4.1v1.8c-3.3,0.2-5.8,0.8-5.8,1.6s2.5,1.4,5.8,1.6v5.7h3v-5.7
			c3.3-0.2,5.8-0.8,5.8-1.6S16.9,10.6,13.6,10.5 M13.6,13.2L13.6,13.2c-0.1,0-0.5,0-1.5,0c-0.8,0-1.3,0-1.5,0v0
			c-2.9-0.1-5.1-0.6-5.1-1.3s2.2-1.1,5.1-1.3v2c0.2,0,0.7,0,1.5,0c0.9,0,1.4,0,1.5,0v-2c2.9,0.1,5.1,0.6,5.1,1.2
			C18.7,12.6,16.5,13.1,13.6,13.2"/>
	</g>
</g>
<path class="st3" d="M12.1-0.9L12.1-0.9c7.2,0,13,5.8,13,13l0,0c0,7.2-5.8,13-13,13l0,0c-7.2,0-13-5.8-13-13l0,0
	C-0.9,4.9,4.9-0.9,12.1-0.9z"/>
</svg>
