<svg width="23" height="16" viewBox="0 0 23 16" fill="none" xmlns="http://www.w3.org/2000/svg">
<rect width="22.4" height="16" rx="2" fill="white"/>
<mask id="mask0_1311_10411" style="mask-type:luminance" maskUnits="userSpaceOnUse" x="0" y="0" width="23" height="16">
<rect width="22.4" height="16" rx="2" fill="white"/>
</mask>
<g mask="url(#mask0_1311_10411)">
<path fill-rule="evenodd" clip-rule="evenodd" d="M22.4 0H0V1.06667H22.4V0ZM22.4 2.13281H0V3.19948H22.4V2.13281ZM0 4.26758H22.4V5.33424H0V4.26758ZM22.4 6.40039H0V7.46706H22.4V6.40039ZM0 8.53333H22.4V9.6H0V8.53333ZM22.4 10.666H0V11.7327H22.4V10.666ZM0 12.8008H22.4V13.8674H0V12.8008ZM22.4 14.9336H0V16.0003H22.4V14.9336Z" fill="#D02F44"/>
<rect width="9.6" height="7.46667" fill="#46467F"/>
<g filter="url(#filter0_d_1311_10411)">
<path fill-rule="evenodd" clip-rule="evenodd" d="M2.13307 1.59974C2.13307 1.89429 1.89429 2.13307 1.59974 2.13307C1.30519 2.13307 1.06641 1.89429 1.06641 1.59974C1.06641 1.30519 1.30519 1.06641 1.59974 1.06641C1.89429 1.06641 2.13307 1.30519 2.13307 1.59974ZM4.26589 1.59974C4.26589 1.89429 4.0271 2.13307 3.73255 2.13307C3.438 2.13307 3.19922 1.89429 3.19922 1.59974C3.19922 1.30519 3.438 1.06641 3.73255 1.06641C4.0271 1.06641 4.26589 1.30519 4.26589 1.59974ZM5.86732 2.13307C6.16187 2.13307 6.40065 1.89429 6.40065 1.59974C6.40065 1.30519 6.16187 1.06641 5.86732 1.06641C5.57277 1.06641 5.33398 1.30519 5.33398 1.59974C5.33398 1.89429 5.57277 2.13307 5.86732 2.13307ZM8.53346 1.59974C8.53346 1.89429 8.29468 2.13307 8.00013 2.13307C7.70558 2.13307 7.4668 1.89429 7.4668 1.59974C7.4668 1.30519 7.70558 1.06641 8.00013 1.06641C8.29468 1.06641 8.53346 1.30519 8.53346 1.59974ZM2.66615 3.19948C2.9607 3.19948 3.19948 2.9607 3.19948 2.66615C3.19948 2.37159 2.9607 2.13281 2.66615 2.13281C2.37159 2.13281 2.13281 2.37159 2.13281 2.66615C2.13281 2.9607 2.37159 3.19948 2.66615 3.19948ZM5.33229 2.66615C5.33229 2.9607 5.09351 3.19948 4.79896 3.19948C4.50441 3.19948 4.26562 2.9607 4.26562 2.66615C4.26562 2.37159 4.50441 2.13281 4.79896 2.13281C5.09351 2.13281 5.33229 2.37159 5.33229 2.66615ZM6.93372 3.19948C7.22828 3.19948 7.46706 2.9607 7.46706 2.66615C7.46706 2.37159 7.22828 2.13281 6.93372 2.13281C6.63917 2.13281 6.40039 2.37159 6.40039 2.66615C6.40039 2.9607 6.63917 3.19948 6.93372 3.19948ZM8.53346 3.73255C8.53346 4.0271 8.29468 4.26589 8.00013 4.26589C7.70558 4.26589 7.4668 4.0271 7.4668 3.73255C7.4668 3.438 7.70558 3.19922 8.00013 3.19922C8.29468 3.19922 8.53346 3.438 8.53346 3.73255ZM5.86732 4.26589C6.16187 4.26589 6.40065 4.0271 6.40065 3.73255C6.40065 3.438 6.16187 3.19922 5.86732 3.19922C5.57277 3.19922 5.33398 3.438 5.33398 3.73255C5.33398 4.0271 5.57277 4.26589 5.86732 4.26589ZM4.26589 3.73255C4.26589 4.0271 4.0271 4.26589 3.73255 4.26589C3.438 4.26589 3.19922 4.0271 3.19922 3.73255C3.19922 3.438 3.438 3.19922 3.73255 3.19922C4.0271 3.19922 4.26589 3.438 4.26589 3.73255ZM1.59974 4.26589C1.89429 4.26589 2.13307 4.0271 2.13307 3.73255C2.13307 3.438 1.89429 3.19922 1.59974 3.19922C1.30519 3.19922 1.06641 3.438 1.06641 3.73255C1.06641 4.0271 1.30519 4.26589 1.59974 4.26589ZM3.19948 4.79896C3.19948 5.09351 2.9607 5.33229 2.66615 5.33229C2.37159 5.33229 2.13281 5.09351 2.13281 4.79896C2.13281 4.50441 2.37159 4.26562 2.66615 4.26562C2.9607 4.26562 3.19948 4.50441 3.19948 4.79896ZM4.79896 5.33229C5.09351 5.33229 5.33229 5.09351 5.33229 4.79896C5.33229 4.50441 5.09351 4.26562 4.79896 4.26562C4.50441 4.26562 4.26562 4.50441 4.26562 4.79896C4.26562 5.09351 4.50441 5.33229 4.79896 5.33229ZM7.46706 4.79896C7.46706 5.09351 7.22828 5.33229 6.93372 5.33229C6.63917 5.33229 6.40039 5.09351 6.40039 4.79896C6.40039 4.50441 6.63917 4.26562 6.93372 4.26562C7.22828 4.26562 7.46706 4.50441 7.46706 4.79896ZM8.00013 6.40065C8.29468 6.40065 8.53346 6.16187 8.53346 5.86732C8.53346 5.57277 8.29468 5.33398 8.00013 5.33398C7.70558 5.33398 7.4668 5.57277 7.4668 5.86732C7.4668 6.16187 7.70558 6.40065 8.00013 6.40065ZM6.40065 5.86732C6.40065 6.16187 6.16187 6.40065 5.86732 6.40065C5.57277 6.40065 5.33398 6.16187 5.33398 5.86732C5.33398 5.57277 5.57277 5.33398 5.86732 5.33398C6.16187 5.33398 6.40065 5.57277 6.40065 5.86732ZM3.73255 6.40065C4.0271 6.40065 4.26589 6.16187 4.26589 5.86732C4.26589 5.57277 4.0271 5.33398 3.73255 5.33398C3.438 5.33398 3.19922 5.57277 3.19922 5.86732C3.19922 6.16187 3.438 6.40065 3.73255 6.40065ZM2.13307 5.86732C2.13307 6.16187 1.89429 6.40065 1.59974 6.40065C1.30519 6.40065 1.06641 6.16187 1.06641 5.86732C1.06641 5.57277 1.30519 5.33398 1.59974 5.33398C1.89429 5.33398 2.13307 5.57277 2.13307 5.86732Z" fill="url(#paint0_linear_1311_10411)"/>
</g>
</g>
<defs>
<filter id="filter0_d_1311_10411" x="1.06641" y="1.06641" width="7.4668" height="6.33398" filterUnits="userSpaceOnUse" color-interpolation-filters="sRGB">
<feFlood flood-opacity="0" result="BackgroundImageFix"/>
<feColorMatrix in="SourceAlpha" type="matrix" values="0 0 0 0 0 0 0 0 0 0 0 0 0 0 0 0 0 0 127 0" result="hardAlpha"/>
<feOffset dy="1"/>
<feColorMatrix type="matrix" values="0 0 0 0 0 0 0 0 0 0 0 0 0 0 0 0 0 0 0.06 0"/>
<feBlend mode="normal" in2="BackgroundImageFix" result="effect1_dropShadow_1311_10411"/>
<feBlend mode="normal" in="SourceGraphic" in2="effect1_dropShadow_1311_10411" result="shape"/>
</filter>
<linearGradient id="paint0_linear_1311_10411" x1="1.06641" y1="1.06641" x2="1.06641" y2="6.40065" gradientUnits="userSpaceOnUse">
<stop stop-color="white"/>
<stop offset="1" stop-color="#F0F0F0"/>
</linearGradient>
</defs>
</svg>
