<svg width="25" height="25" viewBox="0 0 25 25" fill="none" xmlns="http://www.w3.org/2000/svg">
<path d="M4.47381 18.3889C4.60539 18.6751 4.77348 18.9222 4.98823 19.1403C5.97675 20.1445 7.56774 20.1445 10.7497 20.1445H15.2497C18.4317 20.1445 20.0227 20.1445 21.0112 19.1403C21.9997 18.1361 21.9997 16.5199 21.9997 13.2874V11.0017C21.9997 7.76919 21.9997 6.15294 21.0112 5.14874C20.0227 4.14453 18.4317 4.14453 15.2497 4.14453H10.7497C7.56774 4.14453 5.97675 4.14453 4.98823 5.14874C4.51128 5.63326 4.26445 6.26028 4.13672 7.14258" stroke="#C1C4D0" stroke-width="2" stroke-linecap="round"/>
<path fill-rule="evenodd" clip-rule="evenodd" d="M0.5 12.6445C0.5 12.0922 0.947715 11.6445 1.5 11.6445H6.5C7.05228 11.6445 7.5 12.0922 7.5 12.6445C7.5 13.1968 7.05228 13.6445 6.5 13.6445H1.5C0.947715 13.6445 0.5 13.1968 0.5 12.6445Z" fill="#838D9B"/>
<path d="M8.5 7.64453H10.5" stroke="#C1C4D0" stroke-width="2" stroke-linecap="round"/>
<path d="M20 16.1445H18C17.0572 16.1445 16.5858 16.1445 16.2929 15.8516C16 15.5587 16 15.0873 16 14.1445C16 13.2017 16 12.7303 16.2929 12.4374C16.5858 12.1445 17.0572 12.1445 18 12.1445H20C20.9428 12.1445 21.4142 12.1445 21.7071 12.4374C22 12.7303 22 13.2017 22 14.1445C22 15.0873 22 15.5587 21.7071 15.8516C21.4142 16.1445 20.9428 16.1445 20 16.1445Z" stroke="#C1C4D0" stroke-width="2"/>
</svg>
