<svg width="25" height="25" viewBox="0 0 25 25" fill="none" xmlns="http://www.w3.org/2000/svg">
<path d="M4.47381 18.8186C4.60539 19.1048 4.77348 19.3519 4.98823 19.57C5.97675 20.5742 7.56774 20.5742 10.7497 20.5742H15.2497C18.4317 20.5742 20.0227 20.5742 21.0112 19.57C21.9997 18.5658 21.9997 16.9496 21.9997 13.7171V11.4314C21.9997 8.19887 21.9997 6.58263 21.0112 5.57842C20.0227 4.57422 18.4317 4.57422 15.2497 4.57422H10.7497C7.56774 4.57422 5.97675 4.57422 4.98823 5.57842C4.51128 6.06295 4.26445 6.68997 4.13672 7.57227" stroke="#583AFB" stroke-width="2" stroke-linecap="round"/>
<path fill-rule="evenodd" clip-rule="evenodd" d="M3 15.5742C3 16.1265 3.44772 16.5742 4 16.5742C4.55228 16.5742 5 16.1265 5 15.5742V14.0742H6.5C7.05228 14.0742 7.5 13.6265 7.5 13.0742C7.5 12.5219 7.05228 12.0742 6.5 12.0742H5V10.5742C5 10.0219 4.55228 9.57422 4 9.57422C3.44772 9.57422 3 10.0219 3 10.5742V12.0742H1.5C0.947715 12.0742 0.5 12.5219 0.5 13.0742C0.5 13.6265 0.947715 14.0742 1.5 14.0742H3V15.5742Z" fill="#00C7FF"/>
<path d="M8.5 8.07422H10.5" stroke="#583AFB" stroke-width="2" stroke-linecap="round"/>
<path d="M20 16.5742H18C17.0572 16.5742 16.5858 16.5742 16.2929 16.2813C16 15.9884 16 15.517 16 14.5742C16 13.6314 16 13.16 16.2929 12.8671C16.5858 12.5742 17.0572 12.5742 18 12.5742H20C20.9428 12.5742 21.4142 12.5742 21.7071 12.8671C22 13.16 22 13.6314 22 14.5742C22 15.517 22 15.9884 21.7071 16.2813C21.4142 16.5742 20.9428 16.5742 20 16.5742Z" stroke="#583AFB" stroke-width="2"/>
</svg>
