<svg width="32" height="32" viewBox="0 0 32 32" fill="none" xmlns="http://www.w3.org/2000/svg">
<path d="M7.33334 5.33333L25.7143 5.33333C26.1396 5.33333 26.3522 5.33333 26.4928 5.45435C26.5117 5.47062 26.5294 5.48828 26.5457 5.50719C26.6667 5.64781 26.6667 5.86045 26.6667 6.28572C26.6667 8.83733 26.6667 10.1131 25.9406 10.9569C25.843 11.0703 25.737 11.1763 25.6235 11.2739C24.7798 12 23.504 12 20.9524 12L26 12C26.9428 12 27.4142 12 27.7071 12.2929C28 12.5858 28 13.0572 28 14L28 17.3333V22.6667V26C28 26.9428 28 27.4142 27.7071 27.7071C27.4142 28 26.9428 28 26 28L8.00001 28C6.11439 28 5.17158 28 4.5858 27.4142C4.00001 26.8284 4.00001 25.8856 4.00001 24L4.00001 8.66667C4.00001 8.35712 4.00001 8.20235 4.01143 8.07187C4.13831 6.62153 5.2882 5.47164 6.73854 5.34475C6.86903 5.33333 7.0238 5.33333 7.33334 5.33333Z" fill="white"/>
<path d="M4.00001 8.66667V8.66667C4.00001 8.35712 4.00001 8.20235 4.01143 8.07187C4.13831 6.62153 5.2882 5.47164 6.73854 5.34475C6.86903 5.33333 7.0238 5.33333 7.33334 5.33333L25.7143 5.33333C26.1396 5.33333 26.3522 5.33333 26.4928 5.45435C26.5117 5.47062 26.5294 5.48828 26.5457 5.50719C26.6667 5.64781 26.6667 5.86045 26.6667 6.28572V6.28572C26.6667 8.83733 26.6667 10.1131 25.9406 10.9569C25.843 11.0703 25.737 11.1763 25.6235 11.2739C24.7798 12 23.504 12 20.9524 12H20M4.00001 8.66667V8.66667C4.00001 8.97621 4.00001 9.13098 4.01143 9.26147C4.13831 10.7118 5.2882 11.8617 6.73854 11.9886C6.86903 12 7.0238 12 7.33334 12L26 12C26.9428 12 27.4142 12 27.7071 12.2929C28 12.5858 28 13.0572 28 14L28 17.3333M4.00001 8.66667L4.00001 24C4.00001 25.8856 4.00001 26.8284 4.5858 27.4142C5.17158 28 6.11439 28 8.00001 28L26 28C26.9428 28 27.4142 28 27.7071 27.7071C28 27.4142 28 26.9428 28 26L28 22.6667M28 22.6667H22C21.0572 22.6667 20.5858 22.6667 20.2929 22.3738C20 22.0809 20 21.6095 20 20.6667V19.3333C20 18.3905 20 17.9191 20.2929 17.6262C20.5858 17.3333 21.0572 17.3333 22 17.3333H28M28 22.6667L28 17.3333" stroke="#583AFB" stroke-width="2"/>
</svg>
