<svg width="28" height="28" viewBox="0 0 28 28" fill="none" xmlns="http://www.w3.org/2000/svg">
<path d="M16.625 4.66602H11.375C7.66269 4.66602 5.80653 4.66602 4.65327 5.83759C3.5 7.00916 3.5 8.89478 3.5 12.666V15.3327C3.5 19.1039 3.5 20.9895 4.65327 22.1611C5.80653 23.3327 7.66269 23.3327 11.375 23.3327H16.625C20.3373 23.3327 22.1935 23.3327 23.3467 22.1611C24.5 20.9895 24.5 19.1039 24.5 15.3327V12.666C24.5 8.89478 24.5 7.00916 23.3467 5.83759C22.1935 4.66602 20.3373 4.66602 16.625 4.66602Z" stroke="#583AFB" stroke-width="2"/>
<path d="M8.16699 9.33398H11.667" stroke="#00C7FF" stroke-width="2" stroke-linecap="round"/>
<path d="M17.5 16.666V15.9993C17.5 15.0565 17.5 14.5851 17.7929 14.2922C18.0858 13.9993 18.5572 13.9993 19.5 13.9993H22.5C23.4428 13.9993 23.9142 13.9993 24.2071 14.2922C24.5 14.5851 24.5 15.0565 24.5 15.9993V16.666C24.5 17.6088 24.5 18.0802 24.2071 18.3731C23.9142 18.666 23.4428 18.666 22.5 18.666H19.5C18.5572 18.666 18.0858 18.666 17.7929 18.3731C17.5 18.0802 17.5 17.6088 17.5 16.666Z" stroke="#583AFB" stroke-width="2"/>
</svg>
