<svg width="25" height="25" viewBox="0 0 25 25" fill="none" xmlns="http://www.w3.org/2000/svg">
<path d="M4.47381 18.9612C4.60539 19.2474 4.77348 19.4944 4.98823 19.7126C5.97675 20.7168 7.56774 20.7168 10.7497 20.7168H15.2497C18.4317 20.7168 20.0227 20.7168 21.0112 19.7126C21.9997 18.7084 21.9997 17.0921 21.9997 13.8597V11.5739C21.9997 8.34145 21.9997 6.72521 21.0112 5.721C20.0227 4.7168 18.4317 4.7168 15.2497 4.7168H10.7497C7.56774 4.7168 5.97675 4.7168 4.98823 5.721C4.51128 6.20553 4.26445 6.83254 4.13672 7.71484" stroke="#583AFB" stroke-width="2" stroke-linecap="round"/>
<path fill-rule="evenodd" clip-rule="evenodd" d="M0.5 13.2168C0.5 12.6645 0.947715 12.2168 1.5 12.2168H6.5C7.05228 12.2168 7.5 12.6645 7.5 13.2168C7.5 13.7691 7.05228 14.2168 6.5 14.2168H1.5C0.947715 14.2168 0.5 13.7691 0.5 13.2168Z" fill="#00C7FF"/>
<path d="M8.5 8.2168H10.5" stroke="#583AFB" stroke-width="2" stroke-linecap="round"/>
<path d="M20 16.7168H18C17.0572 16.7168 16.5858 16.7168 16.2929 16.4239C16 16.131 16 15.6596 16 14.7168C16 13.774 16 13.3026 16.2929 13.0097C16.5858 12.7168 17.0572 12.7168 18 12.7168H20C20.9428 12.7168 21.4142 12.7168 21.7071 13.0097C22 13.3026 22 13.774 22 14.7168C22 15.6596 22 16.131 21.7071 16.4239C21.4142 16.7168 20.9428 16.7168 20 16.7168Z" stroke="#583AFB" stroke-width="2"/>
</svg>
