<svg width="104" height="32" viewBox="0 0 104 32" fill="none" xmlns="http://www.w3.org/2000/svg">
<g clip-path="url(#clip0_603_1083)">
<path d="M51.6165 12.1118V16.4954H60.5031V20.8505H51.6165V27.6849H45.9219V7.75391H61.711V12.1118H51.6165Z" fill="#33363F"/>
<path d="M69.9641 12.2257H63.7807V7.75391H81.8129V12.2257H75.6585V27.6849H69.9641V12.2257Z" fill="#33363F"/>
<path d="M96.9395 27.6849L92.7694 21.5052L88.6568 27.6849H82.157L89.4909 17.6055L82.4736 7.75391H88.8868L92.9134 13.5066L96.882 7.75391H103.037L96.0191 17.3778L103.497 27.6849H96.9395Z" fill="#33363F"/>
<path d="M10.5698 32H19.1613V23.4976H10.5698V32Z" fill="#84D6D7"/>
<path d="M0 20.2498H8.58867V11.7445H0V20.2498Z" fill="#33BBC7"/>
<path d="M26.7839 11.7445H10.5698V20.2498H29.7326V11.7474H26.7839V11.7445Z" fill="#33BBC7"/>
<path d="M10.5698 0V8.50241H37.184V0H10.5698Z" fill="#11A9BC"/>
</g>
<defs>
<clipPath id="clip0_603_1083">
<rect width="103.497" height="32" fill="white"/>
</clipPath>
</defs>
</svg>
