<svg width="161" height="32" viewBox="0 0 161 32" fill="none" xmlns="http://www.w3.org/2000/svg">
<g clip-path="url(#clip0_603_1089)">
<path d="M10.4585 13.4467L16.6729 7.23248L22.8906 13.45L26.5066 9.83396L16.6729 0L6.84248 9.83068L10.4585 13.4467Z" fill="#F2BE13"/>
<path d="M7.90488 15.9994L4.28896 12.3835L0.672852 15.9996L4.28878 19.6155L7.90488 15.9994Z" fill="#F2BE13"/>
<path d="M10.4585 18.5533L16.6729 24.7675L22.8904 18.5503L26.5084 22.1643L26.5066 22.1663L16.6729 32L6.83717 22.1645L10.4585 18.5533Z" fill="#F2BE13"/>
<path d="M29.0572 19.6172L32.6733 16.0011L29.0574 12.3852L25.4413 16.0013L29.0572 19.6172Z" fill="#F2BE13"/>
<path d="M20.3407 15.9981H20.3422L16.6729 12.3288L13.0018 15.9999L13.0069 16.0052L16.6729 19.6712L20.3422 16.0019L20.344 15.9999L20.3407 15.9981Z" fill="#F2BE13"/>
<path d="M38.3096 7.7538H46.1742C48.1261 7.7538 49.6021 8.25473 50.6025 9.25661C51.3766 10.0325 51.7636 10.9942 51.7636 12.1414V12.1899C51.7636 12.6747 51.7037 13.1031 51.5831 13.4746C51.4628 13.8467 51.3021 14.1815 51.1011 14.4805C50.9007 14.7798 50.6677 15.0424 50.4028 15.2683C50.1377 15.4948 49.8528 15.6889 49.5478 15.8502C50.5289 16.2222 51.3013 16.7269 51.8644 17.3653C52.4273 18.004 52.7091 18.8889 52.7091 20.0199V20.0682C52.7091 20.8441 52.56 21.5227 52.2615 22.1048C51.963 22.6863 51.5353 23.1714 50.9785 23.5593C50.4218 23.9473 49.7522 24.2379 48.9697 24.432C48.1873 24.6259 47.3201 24.7227 46.3685 24.7227H38.3096V7.7538ZM45.3879 14.614C46.2123 14.614 46.8669 14.473 47.3514 14.1899C47.8362 13.9071 48.0786 13.4504 48.0786 12.8203V12.7718C48.0786 12.2064 47.8683 11.7742 47.4482 11.4749C47.0279 11.1759 46.4219 11.0263 45.6303 11.0263H41.9455V14.614H45.3879ZM46.3819 21.4504C47.2061 21.4504 47.8521 21.3013 48.3212 21.0021C48.7898 20.7031 49.0243 20.2383 49.0243 19.6079V19.5597C49.0243 18.994 48.806 18.5457 48.3697 18.2141C47.9332 17.8832 47.2304 17.7174 46.2606 17.7174H41.9455V21.4507L46.3819 21.4504Z" fill="#33363F"/>
<path d="M57.3929 7.7538H61.1264V24.7232H57.3929V7.7538Z" fill="#33363F"/>
<path d="M66.781 7.7538H70.2229L78.1744 18.2022V7.7538H81.8591V24.7232H78.6837L70.4655 13.9356V24.7232H66.781V7.7538Z" fill="#33363F"/>
<path d="M93.1618 7.63273H96.6039L103.877 24.7232H99.9737L98.4221 20.9174H91.2465L89.6952 24.7232H85.8886L93.1618 7.63273ZM97.0889 17.6201L94.8342 12.1174L92.5802 17.6201H97.0889Z" fill="#33363F"/>
<path d="M107.907 7.7538H111.349L119.3 18.2022V7.7538H122.985V24.7232H119.81L111.592 13.9356V24.7232H107.907V7.7538Z" fill="#33363F"/>
<path d="M136.421 25.0138C135.176 25.0138 134.021 24.7874 132.954 24.3352C131.887 23.8831 130.966 23.2646 130.191 22.4806C129.415 21.6968 128.808 20.7716 128.373 19.705C127.936 18.6382 127.718 17.4988 127.718 16.2866V16.2384C127.718 15.0262 127.936 13.8911 128.373 12.8324C128.809 11.7739 129.415 10.8446 130.191 10.0447C130.966 9.24473 131.896 8.61413 132.978 8.15364C134.061 7.69314 135.257 7.46289 136.566 7.46289C137.358 7.46289 138.081 7.52785 138.735 7.65674C139.39 7.7864 139.984 7.96383 140.517 8.19003C141.051 8.41649 141.543 8.69122 141.996 9.01422C142.448 9.33774 142.869 9.69309 143.257 10.0811L140.881 12.8203C140.218 12.2225 139.544 11.7534 138.857 11.4143C138.17 11.0751 137.398 10.9052 136.542 10.9052C135.831 10.9052 135.172 11.0427 134.566 11.3175C133.96 11.5922 133.439 11.9718 133.002 12.4566C132.566 12.9413 132.227 13.5032 131.984 14.1414C131.742 14.78 131.621 15.4627 131.621 16.1898V16.2381C131.621 16.9653 131.742 17.6525 131.984 18.2985C132.227 18.9452 132.562 19.5106 132.99 19.9954C133.418 20.4801 133.936 20.8643 134.542 21.1471C135.148 21.4302 135.815 21.5712 136.542 21.5712C137.512 21.5712 138.331 21.3936 139.002 21.0379C139.673 20.6828 140.34 20.1978 141.002 19.5834L143.378 21.9835C142.941 22.4523 142.488 22.8726 142.02 23.2439C141.552 23.6159 141.039 23.9349 140.481 24.2018C139.923 24.4682 139.313 24.6706 138.651 24.8076C137.988 24.9448 137.245 25.0138 136.421 25.0138Z" fill="#33363F"/>
<path d="M147.772 7.7538H160.547V11.0751H151.457V14.5174H159.456V17.8385H151.457V21.4022H160.669V24.7232H147.772V7.7538Z" fill="#33363F"/>
</g>
<defs>
<clipPath id="clip0_603_1089">
<rect width="159.737" height="32" fill="white" transform="translate(0.810547)"/>
</clipPath>
</defs>
</svg>
