<svg width="171" height="32" viewBox="0 0 171 32" fill="none" xmlns="http://www.w3.org/2000/svg">
<g clip-path="url(#clip0_603_1108)">
<path d="M34.7398 9.30531C28.574 9.30531 23.7563 13.9859 23.7563 20.2518C23.7563 26.5178 28.4523 31.1583 34.7398 31.1583C41.0273 31.1583 45.805 26.4377 45.805 20.2118C45.805 14.0259 41.109 9.30531 34.7398 9.30531ZM34.7814 26.6426C31.2702 26.6426 28.6973 23.9156 28.6973 20.2534C28.6973 16.5496 31.2286 13.8241 34.7398 13.8241C38.2926 13.8241 40.864 16.5912 40.864 20.2534C40.864 23.9156 38.2926 26.6426 34.7814 26.6426ZM47.1515 14.0675H50.2144V30.7531H55.1138V9.71205H47.1515V14.0675ZM11.4263 13.8226C13.9992 13.8226 16.0406 15.4095 16.8156 17.7698H22.0015C21.0617 12.7241 16.8972 9.30531 11.4679 9.30531C5.30208 9.30531 0.484375 13.9859 0.484375 20.2534C0.484375 26.5209 5.18036 31.1598 11.4679 31.1598C16.7755 31.1598 21.0216 27.7411 21.9614 22.6537H16.8156C16.0807 25.0141 14.0393 26.6426 11.4663 26.6426C7.91353 26.6426 5.42379 23.9156 5.42379 20.2534C5.42533 16.5496 7.87501 13.8226 11.4263 13.8226ZM140.242 18.2181L136.65 17.6897C134.935 17.4463 133.71 16.8762 133.71 15.5327C133.71 14.0675 135.303 13.3357 137.466 13.3357C139.834 13.3357 141.346 14.3526 141.672 16.0211H146.408C145.877 11.7889 142.61 9.30685 137.589 9.30685C132.403 9.30685 128.974 11.9522 128.974 15.696C128.974 19.2766 131.22 21.3534 135.751 22.0036L139.344 22.532C141.101 22.7755 142.08 23.4688 142.08 24.7706C142.08 26.4392 140.366 27.131 137.998 27.131C135.098 27.131 133.465 25.9508 133.22 24.1605H128.402C128.852 28.2711 132.077 31.1598 137.956 31.1598C143.305 31.1598 146.857 28.7179 146.857 24.5257C146.857 20.7818 144.285 18.8282 140.242 18.2181ZM52.6641 1.04419C50.8676 1.04419 49.5196 2.34606 49.5196 4.13633C49.5196 5.9266 50.8661 7.22847 52.6641 7.22847C54.4605 7.22847 55.8086 5.9266 55.8086 4.13633C55.8086 2.34606 54.4605 1.04419 52.6641 1.04419ZM124.564 16.9163C124.564 12.3589 121.788 9.30685 115.909 9.30685C110.356 9.30685 107.253 12.1155 106.64 16.4294H111.5C111.744 14.7609 113.051 13.3773 115.827 13.3773C118.319 13.3773 119.543 14.4758 119.543 15.8193C119.543 17.5695 117.297 18.0163 114.521 18.3013C110.765 18.7081 106.11 20.0099 106.11 24.8939C106.11 28.6793 108.928 31.1198 113.419 31.1198C116.93 31.1198 119.135 29.6546 120.238 27.3343C120.402 29.4096 121.953 30.7531 124.118 30.7531H126.976V26.3991H124.566V16.9163H124.564ZM119.747 22.207C119.747 25.0156 117.297 27.0909 114.316 27.0909C112.478 27.0909 110.926 26.3175 110.926 24.6905C110.926 22.6152 113.418 22.0452 115.704 21.8018C117.909 21.5984 119.134 21.11 119.747 20.1733V22.207ZM93.7386 9.30531C91.0023 9.30531 88.716 10.4454 87.0828 12.3574V0.84082H82.1835V30.7531H87.0012V27.986C88.6343 29.9797 90.9623 31.1598 93.7386 31.1598C99.6178 31.1598 104.069 26.5209 104.069 20.2534C104.069 13.9859 99.5362 9.30531 93.7386 9.30531ZM93.0037 26.6426C89.4925 26.6426 86.9195 23.9156 86.9195 20.2534C86.9195 16.5912 89.5325 13.8241 93.0437 13.8241C96.5965 13.8241 99.0863 16.5511 99.0863 20.2534C99.0863 23.9156 96.5149 26.6426 93.0037 26.6426ZM70.4651 9.30531C67.2805 9.30531 65.1975 10.6072 63.9727 12.439V9.71205H59.1134V30.7516H64.0127V19.3166C64.0127 16.1012 66.0541 13.8226 69.0754 13.8226C71.8933 13.8226 73.6481 15.8162 73.6481 18.7065V30.7531H78.5475V18.3414C78.549 13.0492 75.8143 9.30531 70.4651 9.30531ZM170.212 19.5616C170.212 13.5391 165.802 9.30685 159.881 9.30685C153.594 9.30685 148.98 14.0275 148.98 20.2534C148.98 26.8059 153.921 31.1598 159.963 31.1598C165.067 31.1598 169.069 28.1478 170.088 23.8755H164.984C164.249 25.7474 162.453 26.8059 160.043 26.8059C156.899 26.8059 154.531 24.8523 154.001 21.4335H170.21V19.5616H170.212ZM154.287 17.9331C155.064 15.0027 157.268 13.5792 159.8 13.5792C162.576 13.5792 164.699 15.1661 165.189 17.9331H154.287Z" fill="#0052FE"/>
</g>
<defs>
<clipPath id="clip0_603_1108">
<rect width="170.353" height="32" fill="white" transform="translate(0.333984)"/>
</clipPath>
</defs>
</svg>
