<svg width="87" height="32" viewBox="0 0 87 32" fill="none" xmlns="http://www.w3.org/2000/svg">
<g clip-path="url(#clip0_603_1110)">
<path d="M21.5719 27.814C24.2809 27.814 27.2199 28.741 30.4739 31.618C30.7999 31.906 31.2339 31.548 30.9489 31.19C27.7519 27.161 24.7949 26.394 21.8459 25.746C18.2379 24.952 16.3829 22.926 15.0899 20.702C14.8329 20.26 14.7169 20.338 14.6939 20.907C14.6649 21.602 14.7139 22.523 14.8699 23.429C14.7239 23.435 14.5779 23.434 14.4299 23.434C9.26992 23.434 5.08592 19.258 5.08592 14.107C5.08592 8.957 9.26992 4.782 14.4309 4.782C19.5909 4.782 23.7749 8.957 23.7749 14.107C23.7749 14.474 23.7569 14.837 23.7149 15.192C23.0329 15.069 21.6899 15.055 20.7479 15.136C20.3939 15.167 20.4439 15.332 20.7119 15.38C23.8009 15.937 25.9219 17.848 26.4079 21.315C26.4179 21.395 26.5239 21.418 26.5649 21.349C27.8784 19.162 28.5702 16.6581 28.5659 14.107C28.5659 6.317 22.2369 0 14.4309 0C6.62392 0 0.294922 6.316 0.294922 14.107C0.294922 21.899 6.62392 28.216 14.4309 28.216C16.5009 28.216 18.5569 27.814 21.5719 27.814Z" fill="#F79E1B"/>
<path d="M22.6239 22.692C23.2529 23.222 23.4439 23.853 23.1119 24.298C22.9269 24.542 22.6269 24.677 22.2669 24.677C21.9157 24.6771 21.5756 24.5539 21.3059 24.329C20.7339 23.83 20.5659 23.022 20.9389 22.563C21.0849 22.383 21.3219 22.284 21.6059 22.284C21.9509 22.284 22.3129 22.429 22.6239 22.692Z" fill="#F79E1B"/>
<path fill-rule="evenodd" clip-rule="evenodd" d="M43.4899 16.157L45.1199 18.114C44.5162 18.4486 43.8204 18.642 43.0609 18.642C40.5529 18.642 38.7249 16.558 38.7249 14.108C38.7249 11.658 40.5529 9.545 43.0609 9.545C45.5689 9.545 47.3969 11.658 47.3969 14.108C47.3969 14.644 47.3049 15.159 47.1429 15.641H43.7339C43.674 15.6407 43.6152 15.6575 43.5645 15.6895C43.5138 15.7214 43.4733 15.7672 43.4477 15.8213C43.4221 15.8755 43.4124 15.9359 43.4199 15.9953C43.4274 16.0548 43.4517 16.1109 43.4899 16.157ZM52.2589 21.929C52.5259 21.929 52.6709 21.615 52.4939 21.419L49.9689 18.534C50.7939 17.256 51.2739 15.738 51.2739 14.108C51.2739 9.588 47.5899 5.911 43.0609 5.911C38.5319 5.911 34.8479 9.588 34.8479 14.108C34.8479 18.628 38.5319 22.305 43.0609 22.305C44.6423 22.3066 46.1902 21.8495 47.5169 20.989L48.1469 21.746C48.1949 21.8034 48.2548 21.8495 48.3226 21.8811C48.3903 21.9127 48.4642 21.9291 48.5389 21.929H52.2589ZM83.8259 6.29H86.8629V6.288C86.9701 6.288 87.0728 6.33056 87.1486 6.40633C87.2244 6.48209 87.2669 6.58485 87.2669 6.692V21.526C87.2669 21.749 87.0859 21.929 86.8629 21.929H83.8259C83.6029 21.929 83.4229 21.749 83.4229 21.526V6.693C83.4232 6.5862 83.4657 6.48385 83.5412 6.40833C83.6168 6.33281 83.7191 6.29026 83.8259 6.29ZM78.3569 6.29H81.7529L81.7539 6.289C81.8179 6.28903 81.8809 6.30417 81.9379 6.3332C81.9949 6.36222 82.0443 6.40429 82.0819 6.456C82.1191 6.5073 82.1434 6.56673 82.153 6.62934C82.1626 6.69195 82.1571 6.75595 82.1369 6.816L77.1469 21.657C77.0919 21.821 76.9379 21.931 76.7639 21.931H74.0669C73.8939 21.931 73.7389 21.821 73.6839 21.657L70.7589 12.987L67.8329 21.658C67.7779 21.821 67.6239 21.931 67.4499 21.931H64.7539C64.5809 21.931 64.4259 21.821 64.3709 21.657L59.3809 6.816C59.3608 6.75589 59.3553 6.69182 59.3651 6.62918C59.3748 6.56653 59.3994 6.50714 59.4369 6.456C59.4744 6.40437 59.5236 6.36233 59.5804 6.33331C59.6372 6.30429 59.7001 6.28911 59.7639 6.289H63.1609C63.2473 6.28874 63.3315 6.31618 63.4012 6.36729C63.4708 6.41841 63.5223 6.4905 63.5479 6.573L66.2359 15.339L69.1899 6.563C69.2172 6.48286 69.2689 6.4133 69.3378 6.36413C69.4067 6.31497 69.4893 6.28869 69.5739 6.289H71.9439C72.0284 6.28875 72.1109 6.31507 72.1796 6.36424C72.2483 6.41341 72.2999 6.48294 72.3269 6.563L75.2819 15.339L77.9699 6.573C77.9958 6.49069 78.0473 6.41881 78.1169 6.36789C78.1865 6.31696 78.2707 6.28967 78.3569 6.29ZM58.0949 21.526V6.693C58.0949 6.469 57.9139 6.288 57.6909 6.288H54.6549C54.4309 6.288 54.2509 6.469 54.2509 6.692V21.526C54.2512 21.633 54.2939 21.7355 54.3696 21.811C54.4453 21.8866 54.5479 21.929 54.6549 21.929H57.6909C57.9149 21.929 58.0949 21.749 58.0949 21.526Z" fill="#33363F"/>
<path d="M25.5259 21.344C25.6179 21.962 25.4229 22.218 25.2259 22.218C25.0109 22.218 24.7419 21.968 24.4249 21.473C24.1109 20.985 23.9959 20.425 24.1519 20.142C24.2539 19.955 24.4689 19.873 24.7399 19.976C25.2649 20.173 25.4699 20.975 25.5259 21.344Z" fill="#F79E1B"/>
</g>
<defs>
<clipPath id="clip0_603_1110">
<rect width="87" height="32" fill="white"/>
</clipPath>
</defs>
</svg>
