<svg width="53" height="32" viewBox="0 0 53 32" fill="none" xmlns="http://www.w3.org/2000/svg">
<g clip-path="url(#clip0_603_1103)">
<path d="M33.0892 3.42285H19.0879V28.5775H33.0892V3.42285Z" fill="#FF5F00"/>
<path d="M20.0202 16C20.0202 10.8893 22.4228 6.3534 26.1095 3.42265C23.3962 1.28932 19.9736 0 16.2402 0C7.39622 0 0.240234 7.15599 0.240234 16C0.240234 24.844 7.39622 32 16.2402 32C19.9736 32 23.3962 30.7107 26.1095 28.5773C22.4176 25.688 20.0202 21.1107 20.0202 16Z" fill="#EB001B"/>
<path d="M51.9786 16C51.9786 24.844 44.8226 32 35.9786 32C32.2453 32 28.8226 30.7107 26.1094 28.5773C29.8427 25.6414 32.1987 21.1107 32.1987 16C32.1987 10.8893 29.7961 6.3534 26.1094 3.42265C28.8175 1.28932 32.2401 0 35.9735 0C44.8226 0 51.9786 7.20259 51.9786 16Z" fill="#F79E1B"/>
</g>
<defs>
<clipPath id="clip0_603_1103">
<rect width="51.7799" height="32" fill="white" transform="translate(0.240234)"/>
</clipPath>
</defs>
</svg>
