<svg width="98" height="32" viewBox="0 0 98 32" fill="none" xmlns="http://www.w3.org/2000/svg">
<g clip-path="url(#clip0_603_1092)">
<path d="M43.2909 31.047H35.5345L40.3859 1.04958H48.1419L43.2909 31.047Z" fill="#D0D4E4"/>
<path d="M71.4084 1.78297C69.8785 1.17601 67.452 0.505859 64.4516 0.505859C56.7919 0.505859 51.398 4.5904 51.3649 10.4301C51.3013 14.7385 55.2268 17.1316 58.1628 18.5682C61.1636 20.0361 62.1837 20.9943 62.1837 22.3028C62.1531 24.3124 59.7588 25.2387 57.5257 25.2387C54.429 25.2387 52.7697 24.7611 50.2482 23.6431L49.2268 23.1638L48.1414 29.8976C49.9606 30.7264 53.3122 31.4618 56.7919 31.4941C64.9304 31.4941 70.2289 27.4727 70.2917 21.2496C70.3226 17.8348 68.2498 15.2183 63.781 13.0801C61.0682 11.7076 59.4068 10.7821 59.4068 9.37775C59.4386 8.10106 60.812 6.79342 63.8743 6.79342C66.3959 6.72937 68.2486 7.33548 69.6521 7.94201L70.3536 8.26054L71.4084 1.78297Z" fill="#D0D4E4"/>
<path d="M81.7174 20.42C82.3561 18.6966 84.814 12.0269 84.814 12.0269C84.7818 12.091 85.4515 10.2718 85.8345 9.15503L86.3766 11.7398C86.3766 11.7398 87.8454 18.9202 88.1644 20.42C86.9522 20.42 83.2494 20.42 81.7174 20.42ZM91.2916 1.04958H85.2921C83.4419 1.04958 82.0363 1.59164 81.2381 3.53847L69.717 31.0465H77.8555C77.8555 31.0465 79.1954 27.3442 79.4834 26.5468C80.3762 26.5468 88.2933 26.5468 89.4419 26.5468C89.6646 27.5999 90.3674 31.0465 90.3674 31.0465H97.5491L91.2916 1.04958Z" fill="#D0D4E4"/>
<path d="M29.0561 1.04958L21.46 21.5049L20.63 17.3563C19.2256 12.5694 14.8213 7.36852 9.90625 4.7825L16.864 31.0152H25.0661L37.2578 1.04958H29.0561Z" fill="#D0D4E4"/>
<path d="M14.4067 1.0498H1.92747L1.7998 1.65591C11.5344 4.14523 17.9814 10.1456 20.6302 17.3578L17.9174 3.57136C17.4708 1.65549 16.0982 1.113 14.4067 1.0498Z" fill="#C1C4D0"/>
<g clip-path="url(#clip1_603_1092)">
<path d="M43.2939 31.0489H35.5371L40.3888 1.0498H48.1452L43.2939 31.0489Z" fill="#00579F"/>
<path d="M71.4129 1.78304C69.8829 1.17605 67.4562 0.505859 64.4556 0.505859C56.7955 0.505859 51.4013 4.59064 51.3682 10.4306C51.3046 14.7394 55.2303 17.1326 58.1664 18.5692C61.1675 20.0373 62.1876 20.9955 62.1876 22.3041C62.1571 24.3138 59.7626 25.2402 57.5293 25.2402C54.4325 25.2402 52.7731 24.7626 50.2514 23.6444L49.23 23.1651L48.1445 29.8993C49.9638 30.7281 53.3156 31.4636 56.7955 31.4959C64.9345 31.4959 70.2333 27.4743 70.2961 21.2508C70.327 17.8358 68.2541 15.2191 63.785 13.0809C61.072 11.7082 59.4105 10.7827 59.4105 9.37827C59.4424 8.10151 60.8158 6.79379 63.8783 6.79379C66.4 6.72974 68.2528 7.33588 69.6564 7.94244L70.358 8.261L71.4129 1.78304Z" fill="#00579F"/>
<path d="M81.7228 20.4213C82.3616 18.6979 84.8197 12.0278 84.8197 12.0278C84.7874 12.0919 85.4572 10.2726 85.8402 9.15573L86.3823 11.7406C86.3823 11.7406 87.8512 18.9214 88.1702 20.4213C86.9579 20.4213 83.2549 20.4213 81.7228 20.4213ZM91.2976 1.0498H85.2977C83.4475 1.0498 82.0418 1.5919 81.2435 3.53885L69.7217 31.0485H77.8607C77.8607 31.0485 79.2007 27.3459 79.4887 26.5485C80.3815 26.5485 88.2991 26.5485 89.4478 26.5485C89.6705 27.6017 90.3733 31.0485 90.3733 31.0485H97.5554L91.2976 1.0498Z" fill="#00579F"/>
<path d="M29.0582 1.0498L21.4617 21.5063L20.6316 17.3575C19.2271 12.5703 14.8225 7.36912 9.90723 4.78294L16.8653 31.0171H25.068L37.2604 1.0498H29.0582Z" fill="#00579F"/>
<path d="M14.4075 1.0498H1.92748L1.7998 1.65595C11.535 4.14541 17.9824 10.1462 20.6313 17.3588L17.9183 3.57151C17.4717 1.65552 16.0991 1.11301 14.4075 1.0498Z" fill="#FAA61A"/>
</g>
</g>
<defs>
<clipPath id="clip0_603_1092">
<rect width="97.0667" height="32" fill="white" transform="translate(0.860352)"/>
</clipPath>
<clipPath id="clip1_603_1092">
<rect width="95.7551" height="30.99" fill="white" transform="translate(1.7998 0.505859)"/>
</clipPath>
</defs>
</svg>
