<svg width="1120" height="600" viewBox="0 0 1120 600" fill="none" xmlns="http://www.w3.org/2000/svg">
<g clip-path="url(#clip0_117_1603)">
<rect width="1120" height="600" rx="24" fill="#E4E6EE"/>
<rect width="1120" height="600" rx="24" fill="#F4F3FB"/>
<rect width="1120" height="600" rx="24" fill="url(#paint0_linear_117_1603)"/>
<g style="mix-blend-mode:difference" opacity="0.07">
<path d="M5.5986 92.2907C4.81757 91.5097 3.55124 91.5097 2.77017 92.2907L-90.3216 185.382C-90.3417 185.403 -90.3743 185.403 -90.3945 185.382C-90.4146 185.362 -90.4472 185.362 -90.4674 185.382L-102.458 197.374C-118.184 213.099 -133.934 228.822 -149.691 244.552L-149.702 244.562C-182.176 276.981 -214.676 309.425 -247.041 341.971C-247.821 342.756 -249.091 342.758 -249.873 341.975L-289.433 302.416C-293.338 298.51 -293.338 292.179 -289.433 288.273L-0.0582581 -1.10111C2.28488 -3.44426 6.08386 -3.44427 8.42703 -1.10112L234.367 224.838C234.757 225.229 234.757 225.862 234.367 226.253L187.671 272.949C187.28 273.339 186.647 273.339 186.257 272.949L5.5986 92.2907Z" fill="#583AFB"/>
<path d="M5.5986 92.2907C4.81757 91.5097 3.55124 91.5097 2.77017 92.2907L-90.3216 185.382C-90.3417 185.403 -90.3743 185.403 -90.3945 185.382C-90.4146 185.362 -90.4472 185.362 -90.4674 185.382L-102.458 197.374C-118.184 213.099 -133.934 228.822 -149.691 244.552L-149.702 244.562C-182.176 276.981 -214.676 309.425 -247.041 341.971C-247.821 342.756 -249.091 342.758 -249.873 341.975L-289.433 302.416C-293.338 298.51 -293.338 292.179 -289.433 288.273L-0.0582581 -1.10111C2.28488 -3.44426 6.08386 -3.44427 8.42703 -1.10112L234.367 224.838C234.757 225.229 234.757 225.862 234.367 226.253L187.671 272.949C187.28 273.339 186.647 273.339 186.257 272.949L5.5986 92.2907Z" fill="url(#paint1_linear_117_1603)"/>
<path d="M5.5986 92.2907C4.81757 91.5097 3.55124 91.5097 2.77017 92.2907L-90.3216 185.382C-90.3417 185.403 -90.3743 185.403 -90.3945 185.382C-90.4146 185.362 -90.4472 185.362 -90.4674 185.382L-102.458 197.374C-118.184 213.099 -133.934 228.822 -149.691 244.552L-149.702 244.562C-182.176 276.981 -214.676 309.425 -247.041 341.971C-247.821 342.756 -249.091 342.758 -249.873 341.975L-289.433 302.416C-293.338 298.51 -293.338 292.179 -289.433 288.273L-0.0582581 -1.10111C2.28488 -3.44426 6.08386 -3.44427 8.42703 -1.10112L234.367 224.838C234.757 225.229 234.757 225.862 234.367 226.253L187.671 272.949C187.28 273.339 186.647 273.339 186.257 272.949L5.5986 92.2907Z" fill="#E2E6ED" style="mix-blend-mode:color"/>
<path d="M5.59836 498.395L112.736 391.258C113.126 390.867 113.759 390.867 114.15 391.258L160.846 437.954C161.236 438.344 161.236 438.977 160.846 439.368L8.42679 591.787C6.08363 594.13 2.28464 594.13 -0.0585022 591.787L-152.477 439.368C-152.868 438.978 -152.868 438.344 -152.477 437.954L-105.782 391.258C-105.391 390.867 -104.758 390.867 -104.367 391.258L2.76993 498.395C3.55098 499.176 4.81731 499.176 5.59836 498.395Z" fill="url(#paint2_linear_117_1603)"/>
<path d="M5.59836 498.395L112.736 391.258C113.126 390.867 113.759 390.867 114.15 391.258L160.846 437.954C161.236 438.344 161.236 438.977 160.846 439.368L8.42679 591.787C6.08363 594.13 2.28464 594.13 -0.0585022 591.787L-152.477 439.368C-152.868 438.978 -152.868 438.344 -152.477 437.954L-105.782 391.258C-105.391 390.867 -104.758 390.867 -104.367 391.258L2.76993 498.395C3.55098 499.176 4.81731 499.176 5.59836 498.395Z" fill="#E2E6ED" style="mix-blend-mode:color"/>
<path d="M207.905 296.021L298.575 205.351L346.685 253.461L207.728 392.419L207.905 296.021Z" fill="#00C7FF"/>
<path d="M207.905 296.021L298.575 205.351L346.685 253.461L207.728 392.419L207.905 296.021Z" fill="url(#paint3_linear_117_1603)"/>
<path d="M207.905 296.021L298.575 205.351L346.685 253.461L207.728 392.419L207.905 296.021Z" fill="#E2E6ED" style="mix-blend-mode:color"/>
<path d="M184.775 319.149L275.445 228.479L323.555 276.589L184.598 415.546L184.775 319.149Z" fill="#00C7FF"/>
<path d="M184.775 319.149L275.445 228.479L323.555 276.589L184.598 415.546L184.775 319.149Z" fill="url(#paint4_linear_117_1603)"/>
<path d="M184.775 319.149L275.445 228.479L323.555 276.589L184.598 415.546L184.775 319.149Z" fill="#E2E6ED" style="mix-blend-mode:color"/>
<path d="M72.3101 205.85L184.776 319.146L184.598 415.543L72.1328 302.247L72.3101 205.85Z" fill="#00C7FF"/>
<path d="M72.3101 205.85L184.776 319.146L184.598 415.543L72.1328 302.247L72.3101 205.85Z" fill="url(#paint5_linear_117_1603)" style="mix-blend-mode:color-dodge"/>
<path d="M72.3101 205.85L184.776 319.146L184.598 415.543L72.1328 302.247L72.3101 205.85Z" fill="#E2E6ED" style="mix-blend-mode:color"/>
<path d="M72.1329 302.247L4.18366 370.196L4.18359 273.976L72.3103 205.85L72.1329 302.247Z" fill="#00C7FF"/>
<path d="M72.1329 302.247L4.18366 370.196L4.18359 273.976L72.3103 205.85L72.1329 302.247Z" fill="url(#paint6_linear_117_1603)"/>
<path d="M72.1329 302.247L4.18366 370.196L4.18359 273.976L72.3103 205.85L72.1329 302.247Z" fill="#E2E6ED" style="mix-blend-mode:color"/>
<path d="M4.18399 370.2L-63.7697 302.246L-63.9385 205.857L4.18392 273.98L4.18399 370.2Z" fill="#00C7FF"/>
<path d="M4.18399 370.2L-63.7697 302.246L-63.9385 205.857L4.18392 273.98L4.18399 370.2Z" fill="url(#paint7_linear_117_1603)" style="mix-blend-mode:color-dodge"/>
<path d="M4.18399 370.2L-63.7697 302.246L-63.9385 205.857L4.18392 273.98L4.18399 370.2Z" fill="#E2E6ED" style="mix-blend-mode:color"/>
<path d="M304.048 248.996L357.218 300.342L366.725 184.557L249.619 197.651L304.048 248.996Z" fill="#00C7FF"/>
<path d="M304.048 248.996L357.218 300.342L366.725 184.557L249.619 197.651L304.048 248.996Z" fill="url(#paint8_linear_117_1603)" style="mix-blend-mode:color-dodge"/>
<path d="M304.048 248.996L357.218 300.342L366.725 184.557L249.619 197.651L304.048 248.996Z" fill="#E2E6ED" style="mix-blend-mode:color"/>
</g>
<g style="mix-blend-mode:difference" opacity="0.07">
<path d="M1125.6 92.2907C1124.82 91.5097 1123.55 91.5097 1122.77 92.2907L1029.68 185.382C1029.66 185.403 1029.63 185.403 1029.61 185.382C1029.59 185.362 1029.55 185.362 1029.53 185.382L1017.54 197.374C1001.82 213.099 986.066 228.822 970.309 244.552L970.298 244.562C937.824 276.981 905.324 309.425 872.959 341.971C872.179 342.756 870.909 342.758 870.127 341.975L830.567 302.416C826.662 298.51 826.662 292.179 830.567 288.273L1119.94 -1.10111C1122.28 -3.44426 1126.08 -3.44427 1128.43 -1.10112L1354.37 224.838C1354.76 225.229 1354.76 225.862 1354.37 226.253L1307.67 272.949C1307.28 273.339 1306.65 273.339 1306.26 272.949L1125.6 92.2907Z" fill="#583AFB"/>
<path d="M1125.6 92.2907C1124.82 91.5097 1123.55 91.5097 1122.77 92.2907L1029.68 185.382C1029.66 185.403 1029.63 185.403 1029.61 185.382C1029.59 185.362 1029.55 185.362 1029.53 185.382L1017.54 197.374C1001.82 213.099 986.066 228.822 970.309 244.552L970.298 244.562C937.824 276.981 905.324 309.425 872.959 341.971C872.179 342.756 870.909 342.758 870.127 341.975L830.567 302.416C826.662 298.51 826.662 292.179 830.567 288.273L1119.94 -1.10111C1122.28 -3.44426 1126.08 -3.44427 1128.43 -1.10112L1354.37 224.838C1354.76 225.229 1354.76 225.862 1354.37 226.253L1307.67 272.949C1307.28 273.339 1306.65 273.339 1306.26 272.949L1125.6 92.2907Z" fill="url(#paint9_linear_117_1603)"/>
<path d="M1125.6 92.2907C1124.82 91.5097 1123.55 91.5097 1122.77 92.2907L1029.68 185.382C1029.66 185.403 1029.63 185.403 1029.61 185.382C1029.59 185.362 1029.55 185.362 1029.53 185.382L1017.54 197.374C1001.82 213.099 986.066 228.822 970.309 244.552L970.298 244.562C937.824 276.981 905.324 309.425 872.959 341.971C872.179 342.756 870.909 342.758 870.127 341.975L830.567 302.416C826.662 298.51 826.662 292.179 830.567 288.273L1119.94 -1.10111C1122.28 -3.44426 1126.08 -3.44427 1128.43 -1.10112L1354.37 224.838C1354.76 225.229 1354.76 225.862 1354.37 226.253L1307.67 272.949C1307.28 273.339 1306.65 273.339 1306.26 272.949L1125.6 92.2907Z" fill="#E2E6ED" style="mix-blend-mode:color"/>
<path d="M1125.6 498.395L1232.74 391.258C1233.13 390.867 1233.76 390.867 1234.15 391.258L1280.85 437.954C1281.24 438.344 1281.24 438.977 1280.85 439.368L1128.43 591.787C1126.08 594.13 1122.28 594.13 1119.94 591.787L967.523 439.368C967.132 438.978 967.132 438.344 967.523 437.954L1014.22 391.258C1014.61 390.867 1015.24 390.867 1015.63 391.258L1122.77 498.395C1123.55 499.176 1124.82 499.176 1125.6 498.395Z" fill="url(#paint10_linear_117_1603)"/>
<path d="M1125.6 498.395L1232.74 391.258C1233.13 390.867 1233.76 390.867 1234.15 391.258L1280.85 437.954C1281.24 438.344 1281.24 438.977 1280.85 439.368L1128.43 591.787C1126.08 594.13 1122.28 594.13 1119.94 591.787L967.523 439.368C967.132 438.978 967.132 438.344 967.523 437.954L1014.22 391.258C1014.61 390.867 1015.24 390.867 1015.63 391.258L1122.77 498.395C1123.55 499.176 1124.82 499.176 1125.6 498.395Z" fill="#E2E6ED" style="mix-blend-mode:color"/>
<path d="M1124.18 370.2L1056.23 302.246L1056.06 205.857L1124.18 273.98L1124.18 370.2Z" fill="#00C7FF"/>
<path d="M1124.18 370.2L1056.23 302.246L1056.06 205.857L1124.18 273.98L1124.18 370.2Z" fill="url(#paint11_linear_117_1603)" style="mix-blend-mode:color-dodge"/>
<path d="M1124.18 370.2L1056.23 302.246L1056.06 205.857L1124.18 273.98L1124.18 370.2Z" fill="#E2E6ED" style="mix-blend-mode:color"/>
<path d="M1056.23 302.246L943.739 415.527L895.461 463.806V367.586L1056.06 205.857L1056.23 302.246Z" fill="#00C7FF"/>
<path d="M1056.23 302.246L943.739 415.527L895.461 463.806V367.586L1056.06 205.857L1056.23 302.246Z" fill="url(#paint12_linear_117_1603)"/>
<path d="M1056.23 302.246L943.739 415.527L895.461 463.806V367.586L1056.06 205.857L1056.23 302.246Z" fill="#E2E6ED" style="mix-blend-mode:color"/>
</g>
</g>
<defs>
<linearGradient id="paint0_linear_117_1603" x1="575.981" y1="-199.622" x2="575.981" y2="788.092" gradientUnits="userSpaceOnUse">
<stop stop-color="#EEEBFD"/>
<stop offset="1" stop-color="#EEEBFD" stop-opacity="0"/>
</linearGradient>
<linearGradient id="paint1_linear_117_1603" x1="-296.504" y1="76.4142" x2="235.074" y2="76.3094" gradientUnits="userSpaceOnUse">
<stop stop-color="#583AFB"/>
<stop offset="1" stop-color="#826FE7"/>
</linearGradient>
<linearGradient id="paint2_linear_117_1603" x1="-153.185" y1="438.723" x2="161.553" y2="438.661" gradientUnits="userSpaceOnUse">
<stop stop-color="#583AFB"/>
<stop offset="1" stop-color="#826FE7"/>
</linearGradient>
<linearGradient id="paint3_linear_117_1603" x1="346.685" y1="248.834" x2="94.9999" y2="240.846" gradientUnits="userSpaceOnUse">
<stop offset="0.0489611" stop-color="#583AFB" stop-opacity="0.25"/>
<stop offset="1" stop-color="#583AFB" stop-opacity="0"/>
</linearGradient>
<linearGradient id="paint4_linear_117_1603" x1="323.555" y1="271.962" x2="71.8701" y2="263.974" gradientUnits="userSpaceOnUse">
<stop offset="0.0489611" stop-color="#583AFB" stop-opacity="0.25"/>
<stop offset="1" stop-color="#583AFB" stop-opacity="0"/>
</linearGradient>
<linearGradient id="paint5_linear_117_1603" x1="60.7938" y1="340.637" x2="124.871" y2="407.483" gradientUnits="userSpaceOnUse">
<stop stop-color="#E5E8ED" stop-opacity="0.48"/>
<stop offset="1" stop-color="#E5E8ED" stop-opacity="0"/>
</linearGradient>
<linearGradient id="paint6_linear_117_1603" x1="72.3102" y1="245.627" x2="24.6175" y2="214.409" gradientUnits="userSpaceOnUse">
<stop stop-color="#583AFB" stop-opacity="0.25"/>
<stop offset="1" stop-color="#583AFB" stop-opacity="0"/>
</linearGradient>
<linearGradient id="paint7_linear_117_1603" x1="-70.7959" y1="311.493" x2="-21.6917" y2="351.022" gradientUnits="userSpaceOnUse">
<stop stop-color="#E5E8ED" stop-opacity="0.48"/>
<stop offset="1" stop-color="#E5E8ED" stop-opacity="0"/>
</linearGradient>
<linearGradient id="paint8_linear_117_1603" x1="356.763" y1="236.936" x2="322.887" y2="191.569" gradientUnits="userSpaceOnUse">
<stop stop-color="#E5E8ED" stop-opacity="0.48"/>
<stop offset="1" stop-color="#E5E8ED" stop-opacity="0"/>
</linearGradient>
<linearGradient id="paint9_linear_117_1603" x1="823.496" y1="76.4142" x2="1355.07" y2="76.3094" gradientUnits="userSpaceOnUse">
<stop stop-color="#583AFB"/>
<stop offset="1" stop-color="#826FE7"/>
</linearGradient>
<linearGradient id="paint10_linear_117_1603" x1="966.815" y1="438.723" x2="1281.55" y2="438.661" gradientUnits="userSpaceOnUse">
<stop stop-color="#583AFB"/>
<stop offset="1" stop-color="#826FE7"/>
</linearGradient>
<linearGradient id="paint11_linear_117_1603" x1="1049.2" y1="311.493" x2="1098.31" y2="351.022" gradientUnits="userSpaceOnUse">
<stop stop-color="#E5E8ED" stop-opacity="0.48"/>
<stop offset="1" stop-color="#E5E8ED" stop-opacity="0"/>
</linearGradient>
<linearGradient id="paint12_linear_117_1603" x1="1056.23" y1="256.438" x2="895.461" y2="256.438" gradientUnits="userSpaceOnUse">
<stop stop-color="#583AFB" stop-opacity="0.25"/>
<stop offset="1" stop-color="#583AFB" stop-opacity="0"/>
</linearGradient>
<clipPath id="clip0_117_1603">
<rect width="1120" height="600" rx="24" fill="white"/>
</clipPath>
</defs>
</svg>
