<svg width="177" height="133" viewBox="0 0 177 133" fill="none" xmlns="http://www.w3.org/2000/svg">
<path d="M176.698 116.347H0.484375V116.435H176.698V116.347Z" fill="#EBEBEB"/>
<path d="M58.4888 121.78H46.8164V121.868H58.4888V121.78Z" fill="#EBEBEB"/>
<path d="M91.7071 120.826H88.6445V120.914H91.7071V120.826Z" fill="#EBEBEB"/>
<path d="M25.7357 119.339H18.9727V119.427H25.7357V119.339Z" fill="#EBEBEB"/>
<path d="M147.016 118.746H137.824V118.834H147.016V118.746Z" fill="#EBEBEB"/>
<path d="M134.687 118.746H126.426V118.834H134.687V118.746Z" fill="#EBEBEB"/>
<path d="M159.043 122.976H126.027V123.064H159.043V122.976Z" fill="#EBEBEB"/>
<path d="M84.0081 100.628H15.9581C15.425 100.627 14.914 100.415 14.5374 100.038C14.1607 99.6602 13.9492 99.1489 13.9492 98.6158V2.95665C13.9539 2.42661 14.1674 1.9198 14.5436 1.54631C14.9197 1.17283 15.428 0.962822 15.9581 0.961914H84.0081C84.5418 0.961914 85.0537 1.17393 85.4311 1.55132C85.8084 1.92871 86.0205 2.44056 86.0205 2.97427V98.6158C86.0205 99.1495 85.8084 99.6614 85.4311 100.039C85.0537 100.416 84.5418 100.628 84.0081 100.628ZM15.9581 1.0324C15.4483 1.03333 14.9598 1.23648 14.5997 1.59724C14.2396 1.95801 14.0373 2.44692 14.0373 2.95665V98.6158C14.0373 99.1255 14.2396 99.6144 14.5997 99.9752C14.9598 100.336 15.4483 100.539 15.9581 100.54H84.0081C84.5182 100.539 85.0071 100.336 85.3677 99.9754C85.7284 99.6148 85.9314 99.1259 85.9324 98.6158V2.95665C85.9314 2.44659 85.7284 1.95769 85.3677 1.59703C85.0071 1.23636 84.5182 1.03333 84.0081 1.0324H15.9581Z" fill="#EBEBEB"/>
<path d="M160.242 100.628H92.1881C91.6547 100.627 91.1434 100.415 90.7662 100.038C90.389 99.6605 90.1767 99.1492 90.1758 98.6158V2.95665C90.1813 2.42629 90.3957 1.91948 90.7724 1.54609C91.1491 1.1727 91.6577 0.962812 92.1881 0.961914H160.242C160.771 0.963748 161.279 1.17416 161.654 1.54755C162.029 1.92094 162.242 2.42722 162.247 2.95665V98.6158C162.247 99.1483 162.036 99.6591 161.66 100.036C161.284 100.413 160.774 100.626 160.242 100.628ZM92.1881 1.0324C91.6781 1.03333 91.1892 1.23636 90.8285 1.59703C90.4678 1.95769 90.2648 2.44659 90.2639 2.95665V98.6158C90.2648 99.1259 90.4678 99.6148 90.8285 99.9754C91.1892 100.336 91.6781 100.539 92.1881 100.54H160.242C160.752 100.539 161.241 100.336 161.601 99.9754C161.962 99.6148 162.165 99.1259 162.166 98.6158V2.95665C162.165 2.44659 161.962 1.95769 161.601 1.59703C161.241 1.23636 160.752 1.03333 160.242 1.0324H92.1881Z" fill="#EBEBEB"/>
<path d="M112.767 115.296H121.066V78.9819H112.767V115.296Z" fill="#F0F0F0"/>
<path d="M82.9334 116.347H119.477V115.296H82.9334V116.347Z" fill="#F0F0F0"/>
<path d="M112.769 78.9814H81.3398V115.295H112.769V78.9814Z" fill="#F5F5F5"/>
<path d="M109.504 81.0186H84.6016V96.328H109.504V81.0186Z" fill="#F0F0F0"/>
<path d="M109.504 97.9502H84.6016V113.26H109.504V97.9502Z" fill="#F0F0F0"/>
<path d="M103.507 83.687H90.5974C90.1937 83.6875 89.7939 83.6082 89.421 83.4536C89.0481 83.299 88.7095 83.0722 88.4245 82.7863C88.1396 82.5004 87.914 82.1609 87.7607 81.7875C87.6074 81.4141 87.5294 81.014 87.5313 80.6104H106.562C106.564 81.0131 106.487 81.4123 106.334 81.7851C106.181 82.1578 105.957 82.4968 105.673 82.7825C105.389 83.0683 105.052 83.2953 104.68 83.4505C104.308 83.6057 103.91 83.6861 103.507 83.687Z" fill="#F5F5F5"/>
<path d="M103.507 100.617H90.5977C89.7855 100.617 89.0065 100.295 88.4322 99.7203C87.8578 99.1459 87.5352 98.3669 87.5352 97.5547H106.566C106.566 98.3663 106.244 99.1448 105.67 99.719C105.097 100.293 104.319 100.616 103.507 100.617Z" fill="#F5F5F5"/>
<path d="M146.665 115.296H154.965V78.9819H146.665V115.296Z" fill="#F0F0F0"/>
<path d="M116.828 116.347H153.371V115.296H116.828V116.347Z" fill="#F0F0F0"/>
<path d="M146.664 78.9814H115.234V115.295H146.664V78.9814Z" fill="#F5F5F5"/>
<path d="M143.402 81.0186H118.5V96.328H143.402V81.0186Z" fill="#F0F0F0"/>
<path d="M143.402 97.9502H118.5V113.26H143.402V97.9502Z" fill="#F0F0F0"/>
<path d="M137.402 83.6876H124.492C123.68 83.6876 122.901 83.3649 122.327 82.7906C121.752 82.2162 121.43 81.4372 121.43 80.625H140.461C140.461 81.4366 140.139 82.2151 139.565 82.7893C138.991 83.3636 138.213 83.6867 137.402 83.6876Z" fill="#F5F5F5"/>
<path d="M137.402 100.617H124.492C123.68 100.617 122.901 100.295 122.327 99.7203C121.752 99.1459 121.43 98.3669 121.43 97.5547H140.461C140.461 98.3663 140.139 99.1448 139.565 99.719C138.991 100.293 138.213 100.616 137.402 100.617Z" fill="#F5F5F5"/>
<path d="M39.7519 30.1914H53.9688V13.7578H39.7519V30.1914Z" fill="#E6E6E6"/>
<path d="M38.1285 30.1914L53.5859 30.1914V13.7578L38.1285 13.7578V30.1914Z" fill="#F5F5F5"/>
<path d="M52.293 28.899V15.0557H39.4259V28.899H52.293Z" fill="white"/>
<path d="M49.176 25.5433V25.0393C49.1751 23.2814 48.4764 21.5958 47.2334 20.3528C45.9904 19.1098 44.3047 18.4111 42.5469 18.4102V18.9141C42.5469 20.6723 43.2453 22.3584 44.4885 23.6016C45.7317 24.8448 47.4179 25.5433 49.176 25.5433Z" fill="#F5F5F5"/>
<path d="M101.502 61.209L154.965 61.209V11.1996L101.502 11.1996V61.209Z" fill="#E6E6E6"/>
<path d="M99.8472 61.209L154.191 61.209V11.1996L99.8472 11.1996V61.209Z" fill="#F0F0F0"/>
<path d="M101.502 62.9922L154.965 62.9922V61.2089L101.502 61.2089V62.9922Z" fill="#E6E6E6"/>
<path d="M97.0816 62.9922L151.426 62.9922V61.2089L97.0816 61.2089V62.9922Z" fill="#F0F0F0"/>
<path d="M151.867 58.5241V13.8857L102.161 13.8857V58.5241H151.867Z" fill="#FAFAFA"/>
<path d="M137.777 58.5276L129.498 13.8857H115.859L124.138 58.5276H137.777Z" fill="white"/>
<path d="M150.795 43.38C150.842 43.3763 150.886 43.3544 150.917 43.3188C150.948 43.2831 150.963 43.2368 150.961 43.1896V15.6334C150.961 15.5895 150.943 15.5474 150.912 15.5163C150.881 15.4852 150.839 15.4678 150.795 15.4678C150.751 15.4678 150.709 15.4852 150.678 15.5163C150.647 15.5474 150.629 15.5895 150.629 15.6334V43.1896C150.626 43.2368 150.642 43.2831 150.673 43.3188C150.704 43.3544 150.748 43.3763 150.795 43.38Z" fill="#F0F0F0"/>
<path d="M121.202 58.5276L112.927 13.8857H107.609L115.884 58.5276H121.202Z" fill="white"/>
<path d="M102.457 58.5241V13.8857H102.161V58.5241H102.457Z" fill="#E6E6E6"/>
<path opacity="0.4" d="M99.2969 17.3211H152.756L152.971 14.9316H99.5083L99.2969 17.3211Z" fill="#E6E6E6"/>
<path opacity="0.4" d="M99.2969 20.0736H152.756L152.971 17.6807H99.5083L99.2969 20.0736Z" fill="#E6E6E6"/>
<path opacity="0.4" d="M99.2969 22.823H152.756L152.971 20.4336H99.5083L99.2969 22.823Z" fill="#E6E6E6"/>
<path opacity="0.4" d="M99.2969 25.5746H152.756L152.971 23.1816H99.5083L99.2969 25.5746Z" fill="#E6E6E6"/>
<path opacity="0.4" d="M99.2969 28.324H152.756L152.971 25.9346H99.5083L99.2969 28.324Z" fill="#E6E6E6"/>
<path opacity="0.4" d="M99.2969 31.0766H152.756L152.971 28.6836H99.5083L99.2969 31.0766Z" fill="#E6E6E6"/>
<path opacity="0.4" d="M99.2969 33.826H152.756L152.971 31.4365H99.5083L99.2969 33.826Z" fill="#E6E6E6"/>
<path opacity="0.4" d="M99.2969 36.5775H152.756L152.971 34.1846H99.5083L99.2969 36.5775Z" fill="#E6E6E6"/>
<path opacity="0.4" d="M99.2969 39.327H152.756L152.971 36.9375H99.5083L99.2969 39.327Z" fill="#E6E6E6"/>
<path d="M29.6709 57.001H40.7617V44.2749H29.6709V57.001Z" fill="#E6E6E6"/>
<path d="M28.4187 57.001H40.3906V44.2749H28.4187V57.001Z" fill="#F5F5F5"/>
<path d="M39.3906 55.9962V45.2754H29.424V55.9962H39.3906Z" fill="white"/>
<path d="M36.9723 50.8338V50.4426C36.9723 50.1054 36.9058 49.7715 36.7767 49.46C36.6475 49.1485 36.4582 48.8655 36.2196 48.6272C35.981 48.3889 35.6977 48.2 35.3861 48.0712C35.0744 47.9425 34.7404 47.8765 34.4031 47.877C33.7251 47.8807 33.0761 48.1526 32.598 48.6334C32.1199 49.1141 31.8516 49.7646 31.8516 50.4426V50.8338C31.8516 51.5143 32.1219 52.1669 32.603 52.648C33.0842 53.1292 33.7368 53.3995 34.4172 53.3995C35.0959 53.3967 35.7457 53.1251 36.2246 52.6443C36.7035 52.1634 36.9723 51.5124 36.9723 50.8338Z" fill="#F5F5F5"/>
<path d="M57.3341 52.4414H72.5625V34.8976H57.3341V52.4414Z" fill="#E6E6E6"/>
<path d="M55.6049 52.4414H72.1055V34.8976H55.6049V52.4414Z" fill="#F5F5F5"/>
<path d="M70.7266 51.0624V36.2852H56.989V51.0624H70.7266Z" fill="white"/>
<path d="M64.4316 40.9305L67.0395 45.4486C67.0977 45.5494 67.1283 45.6637 67.1283 45.7801C67.1283 45.8964 67.0976 46.0107 67.0394 46.1115C66.9811 46.2122 66.8974 46.2958 66.7966 46.3539C66.6958 46.412 66.5814 46.4426 66.4651 46.4425H61.2492C61.1328 46.4426 61.0185 46.412 60.9176 46.3539C60.8168 46.2958 60.7331 46.2122 60.6749 46.1115C60.6166 46.0107 60.586 45.8964 60.5859 45.7801C60.5859 45.6637 60.6165 45.5494 60.6747 45.4486L63.2827 40.9305C63.3414 40.8304 63.4254 40.7473 63.5261 40.6896C63.6269 40.6319 63.741 40.6016 63.8571 40.6016C63.9732 40.6016 64.0873 40.6319 64.1881 40.6896C64.2889 40.7473 64.3728 40.8304 64.4316 40.9305Z" fill="#F5F5F5"/>
<path d="M32.2119 116.343H40.582V89.9531H32.2119V116.343Z" fill="#E6E6E6"/>
<path d="M33.8004 116.347H32.2109V111.825H35.4674L33.8004 116.347Z" fill="#F0F0F0"/>
<path d="M63.4892 116.343H71.8594V89.9531H63.4892V116.343Z" fill="#E6E6E6"/>
<path d="M32.2121 113.569H64.875V89.9532H32.2121V113.569Z" fill="#F0F0F0"/>
<path d="M33.4453 91.4369V107.92H48.0111V91.4369H33.4453Z" fill="#E6E6E6"/>
<path d="M49.0781 91.4369V107.92H63.6439V91.4369H49.0781Z" fill="#E6E6E6"/>
<path d="M54.9207 92.7017H57.8C58.4184 92.7036 59.0307 92.5795 59.5996 92.3372C60.1685 92.0948 60.6822 91.7392 61.1093 91.292H51.5938C52.0226 91.7417 52.5391 92.0988 53.1113 92.3413C53.6834 92.5837 54.2992 92.7064 54.9207 92.7017Z" fill="#F0F0F0"/>
<path d="M39.1359 92.7017H42.0187C42.6371 92.7034 43.2493 92.5792 43.8182 92.3369C44.3871 92.0946 44.9008 91.7391 45.328 91.292H35.8125C36.2412 91.7409 36.7572 92.0976 37.3286 92.34C37.9001 92.5824 38.5151 92.7055 39.1359 92.7017Z" fill="#F0F0F0"/>
<path d="M63.2881 116.347H64.8775V111.825H61.6211L63.2881 116.347Z" fill="#F0F0F0"/>
<path d="M54.668 86.4179C54.6673 86.777 54.7731 87.1283 54.9721 87.4272C55.1712 87.7262 55.4544 87.9594 55.786 88.0973C56.1175 88.2352 56.4826 88.2716 56.8349 88.202C57.1872 88.1324 57.5109 87.9598 57.7651 87.7061C58.0193 87.4524 58.1925 87.129 58.2628 86.7768C58.3331 86.4247 58.2974 86.0595 58.1601 85.7277C58.0229 85.3958 57.7902 85.1122 57.4917 84.9126C57.1931 84.713 56.8421 84.6064 56.483 84.6064C56.0025 84.6074 55.5419 84.7984 55.2018 85.1378C54.8618 85.4772 54.6698 85.9375 54.668 86.4179Z" fill="#E0E0E0"/>
<path d="M57.3076 87.0526C58.308 87.0526 59.119 86.2416 59.119 85.2412C59.119 84.2407 58.308 83.4297 57.3076 83.4297C56.3071 83.4297 55.4961 84.2407 55.4961 85.2412C55.4961 86.2416 56.3071 87.0526 57.3076 87.0526Z" fill="#E0E0E0"/>
<path d="M45.5977 86.7109C45.5977 87.0692 45.7039 87.4194 45.9029 87.7173C46.102 88.0152 46.3849 88.2474 46.7159 88.3845C47.0469 88.5216 47.4111 88.5574 47.7625 88.4875C48.1139 88.4176 48.4367 88.2451 48.69 87.9918C48.9434 87.7384 49.1159 87.4157 49.1858 87.0643C49.2557 86.7129 49.2198 86.3487 49.0827 86.0177C48.9456 85.6867 48.7134 85.4037 48.4155 85.2047C48.1176 85.0057 47.7674 84.8994 47.4091 84.8994C46.9287 84.8994 46.4679 85.0903 46.1282 85.43C45.7885 85.7697 45.5977 86.2304 45.5977 86.7109Z" fill="#E0E0E0"/>
<path d="M59.7316 87.7611C60.9598 87.7611 61.9554 86.7655 61.9554 85.5373C61.9554 84.3091 60.9598 83.3135 59.7316 83.3135C58.5034 83.3135 57.5078 84.3091 57.5078 85.5373C57.5078 86.7655 58.5034 87.7611 59.7316 87.7611Z" fill="#E0E0E0"/>
<path d="M53.1016 83.4898C53.1009 83.9298 53.2307 84.3601 53.4746 84.7263C53.7186 85.0924 54.0656 85.378 54.4719 85.5469C54.8782 85.7157 55.3254 85.7603 55.7571 85.6749C56.1887 85.5894 56.5852 85.3779 56.8966 85.0671C57.208 84.7562 57.4201 84.36 57.5062 83.9285C57.5923 83.497 57.5485 83.0497 57.3802 82.6431C57.212 82.2366 56.927 81.8891 56.5612 81.6446C56.1954 81.4 55.7654 81.2695 55.3254 81.2695C54.7365 81.2705 54.1719 81.5046 53.7552 81.9207C53.3384 82.3367 53.1034 82.9009 53.1016 83.4898Z" fill="#E0E0E0"/>
<path d="M49.5781 84.0572C49.5774 84.4972 49.7073 84.9275 49.9512 85.2936C50.1951 85.6598 50.5422 85.9454 50.9485 86.1142C51.3548 86.2831 51.802 86.3276 52.2336 86.2422C52.6652 86.1568 53.0618 85.9453 53.3732 85.6344C53.6845 85.3236 53.8967 84.9273 53.9828 84.4959C54.0689 84.0644 54.025 83.6171 53.8568 83.2105C53.6886 82.804 53.4036 82.4564 53.0378 82.2119C52.672 81.9674 52.2419 81.8369 51.8019 81.8369C51.2128 81.8369 50.6477 82.0707 50.2307 82.487C49.8138 82.9033 49.5791 83.468 49.5781 84.0572Z" fill="#E0E0E0"/>
<path d="M51.0664 85.8509C51.0664 86.2691 51.1904 86.6779 51.4228 87.0257C51.6551 87.3734 51.9854 87.6444 52.3718 87.8045C52.7581 87.9645 53.1833 88.0064 53.5935 87.9248C54.0037 87.8432 54.3805 87.6418 54.6762 87.3461C54.9719 87.0504 55.1733 86.6736 55.2549 86.2634C55.3365 85.8532 55.2946 85.4281 55.1346 85.0417C54.9745 84.6553 54.7035 84.3251 54.3558 84.0927C54.008 83.8604 53.5992 83.7363 53.181 83.7363C52.6201 83.7363 52.0823 83.9591 51.6857 84.3557C51.2892 84.7522 51.0664 85.2901 51.0664 85.8509Z" fill="#E0E0E0"/>
<path d="M47.3867 85.7134C47.3867 86.1651 47.5207 86.6066 47.7716 86.9822C48.0225 87.3577 48.3792 87.6504 48.7965 87.8233C49.2138 87.9961 49.673 88.0414 50.116 87.9533C50.559 87.8651 50.9659 87.6476 51.2853 87.3282C51.6047 87.0089 51.8222 86.6019 51.9103 86.1589C51.9984 85.7159 51.9532 85.2568 51.7803 84.8395C51.6075 84.4222 51.3148 84.0655 50.9392 83.8146C50.5637 83.5636 50.1221 83.4297 49.6704 83.4297C49.0648 83.4297 48.4839 83.6703 48.0556 84.0986C47.6273 84.5269 47.3867 85.1077 47.3867 85.7134Z" fill="#E0E0E0"/>
<path d="M63.2765 86.418C63.2765 86.418 63.0298 89.9422 53.4896 89.9422C43.9494 89.9422 43.6992 86.418 43.6992 86.418H63.2765Z" fill="#F0F0F0"/>
<path d="M88.5898 132.262C126.329 132.262 156.922 130.476 156.922 128.273C156.922 126.069 126.329 124.283 88.5898 124.283C50.8511 124.283 20.2578 126.069 20.2578 128.273C20.2578 130.476 50.8511 132.262 88.5898 132.262Z" fill="#F5F5F5"/>
<path d="M108.951 23.8337C108.664 22.8867 108.284 21.9706 107.816 21.0989L108.521 18.7905L103.964 14.2301L101.656 14.9349C100.784 14.4668 99.8677 14.0867 98.9207 13.8001L97.7859 11.6855H91.3365L90.2052 13.8001C89.258 14.086 88.3418 14.4662 87.4704 14.9349L85.162 14.2301L80.6016 18.7905L81.3064 21.0989C80.841 21.9714 80.4621 22.8874 80.1751 23.8337L78.043 24.9685V31.4179L80.1751 32.5492C80.4614 33.4958 80.8403 34.4118 81.3064 35.284L80.6016 37.5924L85.162 42.1528L87.4704 41.448C88.3426 41.9141 89.2586 42.293 90.2052 42.5793L91.3365 44.6938H97.7859L98.9207 42.5793C99.8671 42.2923 100.783 41.9134 101.656 41.448L103.964 42.1528L108.524 37.5924L107.819 35.284C108.288 34.4126 108.668 33.4965 108.954 32.5492L111.086 31.4179V24.9685L108.951 23.8337ZM94.5612 37.3528C92.7489 37.3528 90.9773 36.8154 89.4705 35.8085C87.9636 34.8017 86.7891 33.3706 86.0956 31.6962C85.4021 30.0219 85.2206 28.1795 85.5742 26.4021C85.9277 24.6246 86.8004 22.9919 88.0819 21.7104C89.3634 20.4289 90.9961 19.5562 92.7736 19.2027C94.551 18.8491 96.3934 19.0306 98.0678 19.7241C99.7421 20.4176 101.173 21.5921 102.18 23.0989C103.187 24.6058 103.724 26.3774 103.724 28.1897C103.724 30.6199 102.759 32.9506 101.04 34.669C99.3221 36.3874 96.9914 37.3528 94.5612 37.3528Z" fill="#2C80FD"/>
<path opacity="0.2" d="M108.951 23.8337C108.664 22.8867 108.284 21.9706 107.816 21.0989L108.521 18.7905L103.964 14.2301L101.656 14.9349C100.784 14.4668 99.8677 14.0867 98.9207 13.8001L97.7859 11.6855H91.3365L90.2052 13.8001C89.258 14.086 88.3418 14.4662 87.4704 14.9349L85.162 14.2301L80.6016 18.7905L81.3064 21.0989C80.841 21.9714 80.4621 22.8874 80.1751 23.8337L78.043 24.9685V31.4179L80.1751 32.5492C80.4614 33.4958 80.8403 34.4118 81.3064 35.284L80.6016 37.5924L85.162 42.1528L87.4704 41.448C88.3426 41.9141 89.2586 42.293 90.2052 42.5793L91.3365 44.6938H97.7859L98.9207 42.5793C99.8671 42.2923 100.783 41.9134 101.656 41.448L103.964 42.1528L108.524 37.5924L107.819 35.284C108.288 34.4126 108.668 33.4965 108.954 32.5492L111.086 31.4179V24.9685L108.951 23.8337ZM94.5612 37.3528C92.7489 37.3528 90.9773 36.8154 89.4705 35.8085C87.9636 34.8017 86.7891 33.3706 86.0956 31.6962C85.4021 30.0219 85.2206 28.1795 85.5742 26.4021C85.9277 24.6246 86.8004 22.9919 88.0819 21.7104C89.3634 20.4289 90.9961 19.5562 92.7736 19.2027C94.551 18.8491 96.3934 19.0306 98.0678 19.7241C99.7421 20.4176 101.173 21.5921 102.18 23.0989C103.187 24.6058 103.724 26.3774 103.724 28.1897C103.724 30.6199 102.759 32.9506 101.04 34.669C99.3221 36.3874 96.9914 37.3528 94.5612 37.3528Z" fill="white"/>
<path d="M94.5614 25.1553C93.9605 25.1553 93.3732 25.3334 92.8736 25.6673C92.374 26.0011 91.9846 26.4755 91.7547 27.0306C91.5248 27.5857 91.4646 28.1966 91.5818 28.7859C91.699 29.3752 91.9884 29.9165 92.4132 30.3413C92.8381 30.7662 93.3794 31.0555 93.9687 31.1727C94.558 31.29 95.1688 31.2298 95.7239 30.9999C96.279 30.7699 96.7535 30.3806 97.0873 29.881C97.4211 29.3814 97.5993 28.794 97.5993 28.1932C97.5993 27.3875 97.2792 26.6148 96.7095 26.0451C96.1398 25.4753 95.3671 25.1553 94.5614 25.1553Z" fill="#00C7FF"/>
<path d="M154.846 34.0641C154.436 32.7102 153.894 31.3999 153.228 30.1522L154.236 26.8534L147.727 20.3441L144.425 21.3556C143.181 20.6817 141.871 20.1384 140.516 19.7344L138.898 16.6895H129.683L128.061 19.7344C126.707 20.1397 125.397 20.6829 124.153 21.3556L120.854 20.3441L114.338 26.8605L115.346 30.1592C114.677 31.4055 114.135 32.7161 113.728 34.0711L110.68 35.6888V44.9047L113.725 46.5259C114.131 47.88 114.672 49.1895 115.342 50.4343L114.334 53.7295L120.851 60.2459L124.149 59.2379C125.395 59.9085 126.706 60.4493 128.061 60.852L129.683 63.9005H138.898L140.516 60.8556C141.87 60.4485 143.18 59.9054 144.425 59.2344L147.727 60.2423L154.243 53.726L153.235 50.4272C153.9 49.1807 154.439 47.8716 154.846 46.5188L157.891 44.8977V35.6817L154.846 34.0641ZM134.289 56.9965C130.984 56.9965 127.754 56.0165 125.006 54.1806C122.258 52.3446 120.117 49.7351 118.852 46.682C117.587 43.6289 117.257 40.2694 117.901 37.0283C118.546 33.7871 120.137 30.8099 122.474 28.4732C124.811 26.1365 127.788 24.5451 131.029 23.9004C134.27 23.2557 137.63 23.5866 140.683 24.8513C143.736 26.1159 146.345 28.2575 148.181 31.0052C150.017 33.7529 150.997 36.9833 150.997 40.2879C150.997 42.4821 150.565 44.6548 149.725 46.682C148.886 48.7092 147.655 50.5511 146.103 52.1027C144.552 53.6542 142.71 54.8849 140.683 55.7246C138.656 56.5643 136.483 56.9965 134.289 56.9965Z" fill="#2C80FD"/>
<path d="M134.291 25.9238C131.449 25.9245 128.671 26.7678 126.309 28.3471C123.947 29.9263 122.105 32.1706 121.019 34.7961C119.932 37.4217 119.647 40.3106 120.202 43.0976C120.757 45.8845 122.126 48.4444 124.135 50.4535C126.145 52.4626 128.705 53.8307 131.492 54.3849C134.279 54.939 137.168 54.6542 139.794 53.5666C142.419 52.479 144.663 50.6374 146.241 48.2746C147.82 45.9118 148.663 43.1339 148.663 40.2923C148.658 36.4823 147.142 32.8298 144.448 30.1362C141.753 27.4425 138.101 25.9276 134.291 25.9238ZM134.291 52.747C131.827 52.7477 129.419 52.0178 127.37 50.6497C125.322 49.2816 123.725 47.3367 122.781 45.0609C121.838 42.7852 121.591 40.2808 122.071 37.8646C122.551 35.4484 123.737 33.2288 125.479 31.4867C127.221 29.7445 129.44 28.5579 131.856 28.0771C134.272 27.5962 136.777 27.8427 139.053 28.7852C141.329 29.7278 143.274 31.3242 144.643 33.3724C146.011 35.4207 146.742 37.8288 146.742 40.2923C146.738 43.5937 145.425 46.7589 143.091 49.0937C140.757 51.4285 137.592 52.7424 134.291 52.747Z" fill="#2C80FD"/>
<path d="M134.291 25.9238C131.449 25.9245 128.671 26.7678 126.309 28.3471C123.947 29.9263 122.105 32.1706 121.019 34.7961C119.932 37.4217 119.647 40.3106 120.202 43.0976C120.757 45.8845 122.126 48.4444 124.135 50.4535C126.145 52.4626 128.705 53.8307 131.492 54.3849C134.279 54.939 137.168 54.6542 139.794 53.5666C142.419 52.479 144.663 50.6374 146.241 48.2746C147.82 45.9118 148.663 43.1339 148.663 40.2923C148.658 36.4823 147.142 32.8298 144.448 30.1362C141.753 27.4425 138.101 25.9276 134.291 25.9238ZM134.291 52.747C131.827 52.7477 129.419 52.0178 127.37 50.6497C125.322 49.2816 123.725 47.3367 122.781 45.0609C121.838 42.7852 121.591 40.2808 122.071 37.8646C122.551 35.4484 123.737 33.2288 125.479 31.4867C127.221 29.7445 129.44 28.5579 131.856 28.0771C134.272 27.5962 136.777 27.8427 139.053 28.7852C141.329 29.7278 143.274 31.3242 144.643 33.3724C146.011 35.4207 146.742 37.8288 146.742 40.2923C146.738 43.5937 145.425 46.7589 143.091 49.0937C140.757 51.4285 137.592 52.7424 134.291 52.747Z" fill="#00C7FF"/>
<path d="M101.278 64.8072C101.185 64.8072 101.095 64.77 101.029 64.7039C100.963 64.6379 100.926 64.5482 100.926 64.4547V63.7499C100.926 63.6564 100.963 63.5668 101.029 63.5007C101.095 63.4346 101.185 63.3975 101.278 63.3975C101.372 63.3975 101.461 63.4346 101.527 63.5007C101.593 63.5668 101.631 63.6564 101.631 63.7499V64.4547C101.631 64.5482 101.593 64.6379 101.527 64.7039C101.461 64.77 101.372 64.8072 101.278 64.8072Z" fill="#2C80FD"/>
<path d="M95.7898 55.7001C95.4662 55.4921 95.2132 55.1911 95.0638 54.8367C95.0269 54.7507 94.9573 54.6829 94.8704 54.6482C94.7835 54.6135 94.6864 54.6147 94.6004 54.6517C94.5144 54.6886 94.4466 54.7582 94.4119 54.8451C94.3772 54.932 94.3784 55.0291 94.4153 55.1151C94.6224 55.5964 94.9669 56.0059 95.4057 56.2922C95.4624 56.3289 95.5284 56.3484 95.596 56.3486C95.6723 56.3492 95.7467 56.325 95.8081 56.2796C95.8694 56.2343 95.9144 56.1702 95.9363 56.0971C95.9581 56.024 95.9557 55.9458 95.9292 55.8742C95.9028 55.8026 95.8539 55.7415 95.7898 55.7001Z" fill="#2C80FD"/>
<path d="M94.5634 51.2978C94.6568 51.2978 94.7465 51.2607 94.8126 51.1946C94.8787 51.1285 94.9158 51.0389 94.9158 50.9454V49.5956C94.9158 49.5021 94.8787 49.4125 94.8126 49.3464C94.7465 49.2803 94.6568 49.2432 94.5634 49.2432C94.4699 49.2432 94.3802 49.2803 94.3142 49.3464C94.2481 49.4125 94.2109 49.5021 94.2109 49.5956V50.9454C94.2109 51.0389 94.2481 51.1285 94.3142 51.1946C94.3802 51.2607 94.4699 51.2978 94.5634 51.2978Z" fill="#2C80FD"/>
<path d="M98.2292 56.0107H96.8759C96.7824 56.0107 96.6927 56.0479 96.6267 56.114C96.5606 56.1801 96.5234 56.2697 96.5234 56.3632C96.5234 56.4566 96.5606 56.5463 96.6267 56.6124C96.6927 56.6785 96.7824 56.7156 96.8759 56.7156H98.2292C98.3227 56.7156 98.4123 56.6785 98.4784 56.6124C98.5445 56.5463 98.5816 56.4566 98.5816 56.3632C98.5816 56.2697 98.5445 56.1801 98.4784 56.114C98.4123 56.0479 98.3227 56.0107 98.2292 56.0107Z" fill="#2C80FD"/>
<path d="M94.9158 53.6485V52.2987C94.9158 52.2052 94.8787 52.1156 94.8126 52.0495C94.7465 51.9834 94.6568 51.9463 94.5634 51.9463C94.4699 51.9463 94.3802 51.9834 94.3142 52.0495C94.2481 52.1156 94.2109 52.2052 94.2109 52.2987V53.6485C94.2109 53.742 94.2481 53.8316 94.3142 53.8977C94.3802 53.9638 94.4699 54.0009 94.5634 54.0009C94.6568 54.0009 94.7465 53.9638 94.8126 53.8977C94.8787 53.8316 94.9158 53.742 94.9158 53.6485Z" fill="#2C80FD"/>
<path d="M101.611 58.3002C101.599 58.2077 101.55 58.1239 101.476 58.067C101.402 58.0102 101.309 57.9851 101.216 57.9971C101.17 58.0047 101.126 58.0214 101.087 58.0462C101.048 58.0709 101.013 58.1032 100.987 58.1412C100.96 58.1793 100.941 58.2222 100.93 58.2676C100.92 58.3131 100.919 58.36 100.927 58.4059C100.938 58.4876 100.944 58.5701 100.945 58.6526V59.7099C100.945 59.8033 100.982 59.893 101.048 59.9591C101.114 60.0252 101.204 60.0623 101.297 60.0623C101.391 60.0623 101.48 60.0252 101.546 59.9591C101.613 59.893 101.65 59.8033 101.65 59.7099V58.6526C101.644 58.5344 101.631 58.4167 101.611 58.3002Z" fill="#2C80FD"/>
<path d="M101.278 60.6943C101.185 60.6943 101.095 60.7315 101.029 60.7976C100.963 60.8637 100.926 60.9533 100.926 61.0468V62.4001C100.926 62.4935 100.963 62.5832 101.029 62.6493C101.095 62.7154 101.185 62.7525 101.278 62.7525C101.372 62.7525 101.461 62.7154 101.527 62.6493C101.593 62.5832 101.631 62.4935 101.631 62.4001V61.0468C101.631 60.9533 101.593 60.8637 101.527 60.7976C101.461 60.7315 101.372 60.6943 101.278 60.6943Z" fill="#2C80FD"/>
<path d="M100.971 56.9022C100.626 56.5082 100.171 56.227 99.6638 56.0952C99.6189 56.0836 99.5722 56.081 99.5263 56.0875C99.4804 56.094 99.4362 56.1094 99.3963 56.133C99.3563 56.1565 99.3214 56.1877 99.2936 56.2248C99.2657 56.2618 99.2454 56.304 99.2338 56.3489C99.2223 56.3938 99.2196 56.4405 99.2261 56.4864C99.2326 56.5323 99.2481 56.5765 99.2717 56.6164C99.2952 56.6564 99.3264 56.6913 99.3635 56.7191C99.4005 56.747 99.4427 56.7673 99.4876 56.7789C99.8579 56.8744 100.191 57.0796 100.443 57.3674C100.476 57.405 100.516 57.4351 100.562 57.4558C100.607 57.4765 100.657 57.4872 100.707 57.4872C100.775 57.4872 100.841 57.4676 100.898 57.4308C100.955 57.394 101 57.3416 101.028 57.2799C101.056 57.2182 101.065 57.1497 101.055 57.0828C101.045 57.0158 101.016 56.9531 100.971 56.9022Z" fill="#2C80FD"/>
<path d="M94.5634 48.5806C94.4699 48.5806 94.3802 48.5435 94.3142 48.4774C94.2481 48.4113 94.2109 48.3216 94.2109 48.2282V47.5233C94.2109 47.4299 94.2481 47.3402 94.3142 47.2741C94.3802 47.208 94.4699 47.1709 94.5634 47.1709C94.6568 47.1709 94.7465 47.208 94.8126 47.2741C94.8787 47.3402 94.9158 47.4299 94.9158 47.5233V48.2282C94.9158 48.3216 94.8787 48.4113 94.8126 48.4774C94.7465 48.5435 94.6568 48.5806 94.5634 48.5806Z" fill="#2C80FD"/>
<path d="M117.972 82.5518H36.3711V83.8593H117.972V82.5518Z" fill="#2C80FD"/>
<path d="M117.97 83.8594H135.676V82.5519H117.97V83.8594Z" fill="#2C80FD"/>
<path opacity="0.2" d="M117.97 83.8594H135.676V82.5519H117.97V83.8594Z" fill="black"/>
<path d="M129.764 85.2585H42.2845L39.3594 83.8594H132.689L129.764 85.2585Z" fill="#2C80FD"/>
<path opacity="0.6" d="M129.764 85.2585H42.2845L39.3594 83.8594H132.689L129.764 85.2585Z" fill="white"/>
<path d="M44.9258 85.2578V126.964H46.0465L47.4562 85.2578H44.9258Z" fill="#2C80FD"/>
<path d="M58.1602 85.2578V126.964H59.2809L60.6906 85.2578H58.1602Z" fill="#2C80FD"/>
<path d="M129.765 85.2578V126.964H128.648L127.234 85.2578H129.765Z" fill="#2C80FD"/>
<path d="M116.538 85.2578V126.964H115.418L114.008 85.2578H116.538Z" fill="#2C80FD"/>
<path d="M89.9101 66.7207L86.2272 81.7235L86.125 82.5517H111.528L111.634 81.7235L115.313 66.7207H89.9101Z" fill="#2C80FD"/>
<path opacity="0.3" d="M89.9101 66.7207L86.2272 81.7235L86.125 82.5517H111.528L111.634 81.7235L115.313 66.7207H89.9101Z" fill="black"/>
<path d="M114.531 66.7207H89.1246L85.4453 81.7235H110.848L114.531 66.7207Z" fill="#2C80FD"/>
<path d="M110.31 81.0365L113.658 67.4082H89.6648L86.3203 81.0365H110.31Z" fill="white"/>
<path d="M104.23 81.7236L104.124 82.5518H76.1523L76.2545 81.7236H104.23Z" fill="#2C80FD"/>
<path opacity="0.6" d="M104.23 81.7236L104.124 82.5518H76.1523L76.2545 81.7236H104.23Z" fill="white"/>
<path d="M51.387 79.8236C51.3693 79.2868 51.1591 78.7743 50.7948 78.3796C50.4305 77.9849 49.9365 77.7344 49.4028 77.6738V77.2685C49.4024 77.2451 49.3972 77.222 49.3877 77.2005C49.3782 77.1791 49.3646 77.1598 49.3475 77.1437C49.3304 77.1276 49.3103 77.1151 49.2883 77.1069C49.2664 77.0986 49.243 77.0949 49.2196 77.0958H45.4133C45.3897 77.0949 45.3662 77.0986 45.344 77.1068C45.3218 77.115 45.3015 77.1274 45.2842 77.1435C45.2668 77.1595 45.2528 77.1788 45.2429 77.2003C45.233 77.2217 45.2275 77.2449 45.2266 77.2685V82.5549H49.4028V81.977C49.9373 81.917 50.4323 81.6662 50.7968 81.2706C51.1613 80.875 51.3708 80.3613 51.387 79.8236ZM49.4028 81.2932V78.3575C49.755 78.4094 50.0768 78.5863 50.3095 78.8558C50.5422 79.1252 50.6702 79.4694 50.6702 79.8254C50.6702 80.1814 50.5422 80.5256 50.3095 80.795C50.0768 81.0645 49.755 81.2413 49.4028 81.2932Z" fill="#2C80FD"/>
<path d="M122.617 82.5516H126.156L125.109 74.8018H122.617V82.5516Z" fill="#263238"/>
<path d="M117.43 82.5519H124.133L125.377 73.4805H118.677L117.43 82.5519Z" fill="#2C80FD"/>
<path opacity="0.3" d="M117.43 82.5519H124.133L125.377 73.4805H118.677L117.43 82.5519Z" fill="black"/>
<path d="M116.539 82.5519H123.514L124.761 73.4805H117.787L116.539 82.5519Z" fill="#2C80FD"/>
<path opacity="0.4" d="M122.895 81.8359L123.945 74.1953H118.402L117.352 81.8359H122.895Z" fill="white"/>
<path d="M70.105 69.1595L69.816 69.4696L69.5059 69.822C69.298 70.0617 69.09 70.3049 68.8927 70.5551C68.498 71.0555 68.1173 71.5665 67.7614 72.0917C67.0532 73.1072 66.462 74.1997 65.9993 75.3481C65.7837 75.894 65.6162 76.4576 65.4988 77.0327C65.4424 77.3569 65.4072 77.4979 65.3896 77.6353C65.37 77.7449 65.37 77.857 65.3896 77.9666C65.4486 78.1389 65.5414 78.2977 65.6624 78.4338C65.7834 78.57 65.9302 78.6807 66.0944 78.7596C66.3323 78.9062 66.5823 79.0324 66.8416 79.1367C66.9778 79.1931 67.1188 79.2459 67.2645 79.2953C67.3984 79.3446 67.5676 79.3939 67.6733 79.4362V81.3781C67.4266 81.4133 67.2468 81.4415 67.0389 81.4556C66.831 81.4697 66.6301 81.4733 66.4222 81.4556C65.9947 81.447 65.5693 81.3927 65.1534 81.2935C64.6848 81.1834 64.2356 81.0028 63.8213 80.7578C63.334 80.4727 62.9154 80.0841 62.5948 79.6195C62.2648 79.1249 62.046 78.5645 61.9534 77.9772C61.9298 77.8396 61.9145 77.7007 61.9076 77.5613C61.9006 77.4275 61.9006 77.2934 61.9076 77.1595V76.9622C61.9036 76.9094 61.9036 76.8564 61.9076 76.8036L61.9358 76.4935C62.0259 75.688 62.1959 74.8935 62.4433 74.1216C62.9205 72.6391 63.5925 71.2264 64.4415 69.9207C64.8495 69.2796 65.293 68.6619 65.7702 68.0705C66.0063 67.7744 66.2495 67.4854 66.5032 67.2C66.6266 67.0555 66.757 66.9145 66.8909 66.7735C67.0248 66.6326 67.1482 66.5092 67.3314 66.333L70.105 69.1595Z" fill="#FFB7AD"/>
<path d="M66.9727 79.3947L68.615 78.1895L69.5489 81.5657C69.5489 81.5657 68.0934 82.1049 66.9832 81.3789L66.9727 79.3947Z" fill="#FFB7AD"/>
<path d="M70.8935 77.3789L71.5349 80.2054L69.5472 81.5657L68.6133 78.1895L70.8935 77.3789Z" fill="#FFB7AD"/>
<path d="M81.2796 56.2052C81.2056 56.4131 81.2585 56.621 81.3959 56.6668C81.5334 56.7127 81.7025 56.5858 81.773 56.3779C81.8435 56.1699 81.7942 55.9585 81.6602 55.9127C81.5263 55.8668 81.3536 55.9937 81.2796 56.2052Z" fill="#263238"/>
<path d="M81.2427 56.6133C81.2702 57.3391 81.397 58.0577 81.6198 58.749C81.4423 58.7999 81.2559 58.8117 81.0734 58.7837C80.8909 58.7557 80.7166 58.6886 80.5625 58.5869L81.2427 56.6133Z" fill="#E5A59C"/>
<path d="M80.9404 54.7883C80.9667 54.7972 80.9952 54.7972 81.0215 54.7883C81.1761 54.7367 81.3408 54.7226 81.5019 54.7471C81.6631 54.7716 81.8161 54.834 81.9484 54.9293C81.9749 54.9485 82.0077 54.957 82.0402 54.9532C82.0727 54.9494 82.1026 54.9334 82.1239 54.9086C82.1453 54.8837 82.1564 54.8517 82.1552 54.819C82.1541 54.7863 82.1406 54.7552 82.1175 54.7319C81.9521 54.6086 81.7596 54.5267 81.556 54.493C81.3525 54.4593 81.1438 54.4747 80.9475 54.5381C80.9218 54.5469 80.8995 54.5635 80.8837 54.5856C80.8679 54.6077 80.8594 54.6342 80.8594 54.6614C80.8594 54.6886 80.8679 54.7151 80.8837 54.7372C80.8995 54.7593 80.9218 54.776 80.9475 54.7848L80.9404 54.7883Z" fill="#263238"/>
<path d="M73.5503 56.9736C73.9451 58.9789 74.3363 62.6548 72.9336 63.994C72.9336 63.994 73.4834 66.0275 77.2121 66.0275C81.3108 66.0275 79.1715 63.994 79.1715 63.994C76.9336 63.4583 76.99 61.7984 77.3812 60.2406L73.5503 56.9736Z" fill="#FFB7AD"/>
<path d="M72.4016 64.6917C72.1055 64.0468 71.7848 63.3102 72.4509 63.0811C73.1875 62.8274 77.2192 62.5666 78.6078 63.0424C78.7914 63.0923 78.9632 63.1784 79.1131 63.2955C79.263 63.4127 79.3881 63.5585 79.4809 63.7246C79.5738 63.8906 79.6326 64.0735 79.654 64.2626C79.6753 64.4517 79.6587 64.6431 79.6052 64.8256L72.4016 64.6917Z" fill="#263238"/>
<path d="M86.4792 68.1309C87.3427 69.6851 88.2695 71.2851 89.207 72.8217C90.1445 74.3582 91.1277 75.8878 92.178 77.2834C92.4388 77.6358 92.7101 77.9706 92.978 78.3054C93.1119 78.4781 93.2529 78.6191 93.3903 78.7777L93.5947 79.0103L93.6476 79.0702L93.6722 79.0984L93.6969 79.1301C93.8611 79.2889 94.0585 79.4093 94.2749 79.4825C94.608 79.5984 94.9514 79.6822 95.3005 79.7327C97.0136 79.9057 98.7408 79.8856 100.449 79.6728L100.985 81.5407C100.509 81.7522 100.065 81.8931 99.593 82.0693C99.1208 82.2456 98.6556 82.3618 98.1833 82.4817C97.1823 82.7328 96.1561 82.8699 95.1242 82.8905C94.545 82.8998 93.9667 82.8419 93.4009 82.7178C92.7063 82.5798 92.0512 82.2885 91.4837 81.8649L91.2475 81.6711L91.1912 81.6217L91.1559 81.5865L91.089 81.5195L90.8141 81.2482C90.6343 81.0684 90.437 80.8957 90.2749 80.7054C89.9224 80.3354 89.5911 79.9653 89.2845 79.5847C88.0533 78.0968 86.9173 76.5324 85.8836 74.901C85.3691 74.0974 84.8733 73.2857 84.3964 72.4657C83.9171 71.6375 83.4554 70.8269 83.0078 69.9529L86.4792 68.1309Z" fill="#FFB7AD"/>
<path d="M68.0268 64.6132C65.4541 65.2017 62.5078 72.2115 62.5078 72.2115L67.6709 75.7358C68.955 73.8943 70.0944 71.956 71.0788 69.9383C72.6048 66.7453 70.6559 64.0105 68.0268 64.6132Z" fill="#F4F3FC"/>
<path opacity="0.2" d="M69.8685 69.082L67.4297 75.5808L67.6693 75.7499C67.6693 75.7499 68.7266 74.2662 69.8685 72.2644V69.082Z" fill="black"/>
<path d="M83.3931 64.7509C83.3931 64.7509 86.3112 68.0497 83.5553 88.4552H68.8837C68.7851 86.2031 70.1983 75.2215 68.0273 64.61C69.6487 64.2978 71.2886 64.0906 72.9366 63.9897C75.0142 63.868 77.0971 63.868 79.1746 63.9897C80.5985 64.1331 82.009 64.3876 83.3931 64.7509Z" fill="#F4F3FC"/>
<path opacity="0.2" d="M81.7578 70.6543C82.1406 72.9703 83.1414 75.14 84.6548 76.9345C84.7147 75.62 84.7393 74.4394 84.7358 73.3856L81.7578 70.6543Z" fill="black"/>
<path d="M80.4862 66.9788C80.1337 69.5761 85.2439 76.2088 85.2439 76.2088L90.3858 72.6845C90.3858 72.6845 88.9585 69.0299 86.5585 66.6334C83.8237 63.8845 80.8879 64.1523 80.4862 66.9788Z" fill="#F4F3FC"/>
<path d="M99.8711 79.69L101.965 78.8301L104.118 80.4583C104.118 80.4583 102.063 82.2768 100.195 81.5684L99.8711 79.69Z" fill="#FFB7AD"/>
<path d="M103.345 78.7461L104.924 79.8739L104.106 80.4589L101.953 78.8307L103.345 78.7461Z" fill="#FFB7AD"/>
<path d="M74.4662 53.3354C73.7331 55.9575 73.1692 57.4553 74.008 59.221C75.2662 61.8818 78.8433 61.8078 80.3517 59.4606C81.705 57.3461 82.6777 53.413 80.5209 51.5204C80.0473 51.0998 79.4741 50.8072 78.8556 50.6705C78.2372 50.5339 77.5941 50.5576 76.9874 50.7394C76.3807 50.9213 75.8305 51.2553 75.3893 51.7097C74.948 52.164 74.6302 52.7237 74.4662 53.3354Z" fill="#FFB7AD"/>
<path d="M80.0437 53.3643C78.9864 56.374 77.7424 59.6798 74.7045 59.0525C72.745 58.6472 72.5899 55.493 71.885 54.0586C71.2612 52.8004 71.3 50.27 72.5899 50.2383C72.0119 49.3995 74.9335 46.3299 76.9283 47.951C77.4393 47.2462 81.1221 45.1704 83.8499 48.4656C86.4191 51.581 85.161 54.1784 80.0437 53.3643Z" fill="#263238"/>
<path d="M77.6693 55.2888C77.5987 55.9611 77.7497 56.638 78.0993 57.2166C78.568 57.9708 79.2552 57.6818 79.509 56.91C79.7345 56.2051 79.7592 54.9892 79.1072 54.4994C78.4552 54.0095 77.768 54.4782 77.6693 55.2888Z" fill="#FFB7AD"/>
<path d="M100.179 124.974C100.531 124.974 100.884 124.924 100.986 124.766C101.015 124.724 101.031 124.674 101.031 124.623C101.031 124.572 101.015 124.522 100.986 124.48C100.939 124.406 100.866 124.352 100.782 124.329C100.324 124.205 99.372 124.752 99.3262 124.776C99.3142 124.782 99.3045 124.792 99.2987 124.804C99.293 124.816 99.2915 124.83 99.2945 124.843C99.2968 124.856 99.3026 124.868 99.3114 124.877C99.3201 124.886 99.3314 124.893 99.3438 124.896C99.6194 124.946 99.8989 124.972 100.179 124.974ZM100.616 124.441C100.657 124.436 100.699 124.436 100.739 124.441C100.766 124.446 100.791 124.457 100.813 124.473C100.835 124.489 100.853 124.509 100.866 124.533C100.912 124.614 100.898 124.653 100.866 124.674C100.739 124.854 100.045 124.857 99.5341 124.783C99.8692 124.6 100.237 124.484 100.616 124.441Z" fill="#2C80FD"/>
<path d="M99.3537 124.896H99.3819C99.7132 124.748 100.369 124.156 100.316 123.838C100.316 123.764 100.252 123.676 100.076 123.655C100.013 123.65 99.9491 123.657 99.8886 123.676C99.8281 123.695 99.7721 123.727 99.7237 123.768C99.3713 124.053 99.3008 124.793 99.2973 124.825C99.296 124.836 99.2976 124.848 99.3019 124.858C99.3062 124.869 99.3131 124.878 99.322 124.885C99.3317 124.891 99.3425 124.894 99.3537 124.896ZM100.023 123.786H100.062C100.178 123.786 100.185 123.845 100.189 123.86C100.221 124.046 99.7731 124.512 99.4348 124.712C99.4629 124.402 99.5859 124.108 99.7872 123.87C99.8529 123.814 99.9369 123.784 100.023 123.786Z" fill="#2C80FD"/>
<path d="M96.1641 124.833H98.9059L99.5297 118.479H96.7879L96.1641 124.833Z" fill="#FFB7AD"/>
<path d="M99.059 124.516H96.0669C96.0118 124.516 95.9584 124.535 95.9155 124.569C95.8726 124.604 95.8428 124.652 95.8308 124.706L95.288 127.131C95.2741 127.19 95.2738 127.251 95.2872 127.31C95.3006 127.37 95.3274 127.425 95.3655 127.472C95.4036 127.519 95.452 127.557 95.5069 127.583C95.5619 127.609 95.6221 127.622 95.6828 127.621C96.7612 127.603 98.3224 127.539 99.6793 127.539C101.269 127.539 102.64 127.624 104.5 127.624C105.628 127.624 105.942 126.486 105.47 126.383C103.323 125.915 101.572 125.865 99.718 124.72C99.5214 124.592 99.2933 124.522 99.059 124.516Z" fill="#263238"/>
<path opacity="0.2" d="M99.5235 118.481L99.2063 121.755H96.4609L96.7816 118.481H99.5235Z" fill="black"/>
<path d="M89.1871 124.97C89.3034 124.985 89.4215 124.977 89.5347 124.946C89.6478 124.915 89.7537 124.862 89.8462 124.79C89.8785 124.746 89.896 124.692 89.896 124.637C89.896 124.582 89.8785 124.528 89.8462 124.484C89.8253 124.445 89.7962 124.411 89.7609 124.385C89.7255 124.359 89.6849 124.341 89.6418 124.332C89.24 124.237 88.4823 124.755 88.4506 124.776C88.4405 124.784 88.4326 124.794 88.4277 124.806C88.4227 124.818 88.4209 124.83 88.4224 124.843C88.4249 124.855 88.4309 124.866 88.4396 124.875C88.4484 124.884 88.4596 124.89 88.4717 124.892C88.7067 124.944 88.9466 124.97 89.1871 124.97ZM89.5396 124.448C89.5653 124.445 89.5914 124.445 89.6171 124.448C89.6423 124.452 89.6663 124.462 89.6871 124.476C89.7079 124.491 89.725 124.51 89.7369 124.533C89.7968 124.642 89.7616 124.684 89.7369 124.702C89.6206 124.854 89.0603 124.857 88.6479 124.79C88.9131 124.611 89.2156 124.494 89.5325 124.448H89.5396Z" fill="#2C80FD"/>
<path d="M88.4888 124.897H88.517C88.8025 124.742 89.3523 124.142 89.2924 123.839C89.2833 123.791 89.2576 123.747 89.2196 123.715C89.1816 123.684 89.1338 123.667 89.0844 123.667C89.0352 123.661 88.9853 123.665 88.938 123.68C88.8906 123.694 88.8468 123.719 88.8095 123.751C88.4924 124.012 88.4254 124.809 88.4219 124.837C88.4217 124.849 88.4245 124.86 88.4301 124.871C88.4356 124.881 88.4437 124.89 88.4536 124.897C88.4651 124.9 88.4774 124.9 88.4888 124.897ZM89.0422 123.786H89.0703C89.1549 123.786 89.162 123.836 89.1655 123.853C89.2007 124.033 88.8483 124.488 88.5664 124.703C88.5853 124.39 88.6983 124.09 88.8906 123.843C88.9328 123.807 88.9865 123.787 89.0422 123.786Z" fill="#2C80FD"/>
<path d="M85.3477 124.833H88.0895L89.4675 118.479H86.7256L85.3477 124.833Z" fill="#FFB7AD"/>
<path d="M88.2824 124.516H85.2022C85.1476 124.516 85.0947 124.535 85.0524 124.57C85.0101 124.605 84.9809 124.653 84.9696 124.706L84.4269 127.131C84.4142 127.19 84.4151 127.252 84.4294 127.311C84.4438 127.37 84.4713 127.425 84.5099 127.472C84.5485 127.519 84.5972 127.557 84.6524 127.583C84.7076 127.609 84.7678 127.621 84.8287 127.621C85.9036 127.603 86.4287 127.54 87.782 127.54C88.6173 127.54 89.6851 127.624 90.8375 127.624C91.99 127.624 92.138 126.486 91.6657 126.384C89.5512 125.922 89.4067 125.284 88.73 124.674C88.6052 124.569 88.446 124.512 88.2824 124.516Z" fill="#263238"/>
<g opacity="0.2">
<path d="M86.7236 118.481H89.4655L88.7536 121.755H86.0117L86.7236 118.481Z" fill="black"/>
</g>
<path d="M83.5538 88.459C83.5538 88.459 104.1 90.6335 103.875 101.115C103.729 107.697 102.463 114.207 100.132 120.364H96.0579C96.0579 120.364 96.2658 113.714 96.1283 102.982C96.0861 99.7648 89.5908 98.704 83.2436 98.3305C80.5558 98.1615 77.9687 97.2447 75.7742 95.6835C73.5797 94.1223 71.8652 91.9789 70.8241 89.4951L70.3906 88.459H83.5538Z" fill="#583AFB"/>
<path d="M101.129 119.271C101.15 119.271 100.864 121.199 100.864 121.199H95.2254L95.0703 119.479L101.129 119.271Z" fill="#2C80FD"/>
<path d="M79.1563 88.459C79.1563 88.459 94.0498 93.393 94.4269 99.5111C95.1318 110.768 89.5952 120.364 89.5952 120.364H85.4823C85.4823 120.364 87.0436 115.606 87.5969 105.407C88.3018 92.5965 64.3967 105.386 68.876 88.459H79.1563Z" fill="#583AFB"/>
<path d="M90.8405 119.271C90.8616 119.271 90.3224 121.199 90.3224 121.199H84.6836L84.7858 119.479L90.8405 119.271Z" fill="#2C80FD"/>
<path d="M89.8999 99.2498H66.9922C66.9922 98.5562 67.2677 97.8911 67.7581 97.4007C68.2485 96.9103 68.9137 96.6348 69.6072 96.6348H87.2849C87.9785 96.6348 88.6436 96.9103 89.134 97.4007C89.6244 97.8911 89.8999 98.5562 89.8999 99.2498Z" fill="#2C80FD"/>
<path d="M68.0514 99.2471L64.5977 128.202H65.3377L69.7184 99.2471H68.0514Z" fill="#2C80FD"/>
<path opacity="0.4" d="M68.0514 99.2471L64.5977 128.202H65.3377L69.7184 99.2471H68.0514Z" fill="black"/>
<path d="M72.6724 99.2471L72.6055 128.202H73.342L74.3394 99.2471H72.6724Z" fill="#2C80FD"/>
<path opacity="0.4" d="M72.6724 99.2471L72.6055 128.202H73.342L74.3394 99.2471H72.6724Z" fill="black"/>
<path d="M88.8353 99.2471L92.2891 128.202H91.549L87.1719 99.2471H88.8353Z" fill="#2C80FD"/>
<path opacity="0.4" d="M88.8353 99.2471L92.2891 128.202H91.549L87.1719 99.2471H88.8353Z" fill="black"/>
<path d="M84.2139 99.2471L84.2808 128.202H83.5442L82.5469 99.2471H84.2139Z" fill="#2C80FD"/>
<path opacity="0.4" d="M84.2139 99.2471L84.2808 128.202H83.5442L82.5469 99.2471H84.2139Z" fill="black"/>
</svg>
