<svg width="1070" height="966" viewBox="0 0 1070 966" fill="none" xmlns="http://www.w3.org/2000/svg">
<path fill-rule="evenodd" clip-rule="evenodd" d="M281.102 277.673H141.589C63.7189 277.673 0 215.36 0 139.209C0 63.0577 63.7189 0.744995 141.589 0.744995H1517.49C1643.59 0.744995 1746.76 101.636 1746.76 224.966C1746.76 348.277 1643.59 449.188 1517.49 449.188C1464.17 449.188 1420.55 491.844 1420.55 543.99C1420.55 596.136 1464.17 638.793 1517.49 638.793H1634.16C1689.6 638.793 1734.96 683.15 1734.96 737.364C1734.96 791.579 1689.6 835.936 1634.16 835.936H1486.62C1465.04 835.936 1447.39 853.195 1447.39 874.301C1447.39 895.407 1465.04 912.667 1486.62 912.667H1512.63C1527.53 912.667 1539.71 924.592 1539.71 939.146C1539.71 953.719 1527.53 965.625 1512.63 965.625H1341.99C1306.04 965.625 1302.05 924.109 1211.25 924.109H949.677C930.249 924.109 914.339 908.55 914.339 889.551C914.339 870.552 930.229 854.993 949.677 854.993H983.611C1011.77 854.993 1034.8 832.457 1034.8 804.915C1034.8 777.373 1011.76 754.837 983.611 754.837H932.541C794.629 754.837 775.161 719.583 750.99 649.481C726.838 579.379 601.397 573.736 601.397 573.736H261.931C219.498 573.736 184.773 539.777 184.773 498.28C184.773 456.783 219.498 422.824 261.931 422.824H281.102C321.915 422.824 355.316 390.161 355.316 350.249C355.316 310.337 321.915 277.673 281.102 277.673ZM1588.62 912.648C1573.66 912.648 1561.55 924.496 1561.55 939.127C1561.55 953.758 1573.68 965.606 1588.62 965.606C1603.57 965.606 1615.7 953.738 1615.7 939.127C1615.7 924.515 1603.59 912.648 1588.62 912.648Z" fill="url(#paint0_linear_117_453)"/>
<path fill-rule="evenodd" clip-rule="evenodd" d="M281.102 277.673H141.589C63.7189 277.673 0 215.36 0 139.209C0 63.0577 63.7189 0.744995 141.589 0.744995H1517.49C1643.59 0.744995 1746.76 101.636 1746.76 224.966C1746.76 348.277 1643.59 449.188 1517.49 449.188C1464.17 449.188 1420.55 491.844 1420.55 543.99C1420.55 596.136 1464.17 638.793 1517.49 638.793H1634.16C1689.6 638.793 1734.96 683.15 1734.96 737.364C1734.96 791.579 1689.6 835.936 1634.16 835.936H1486.62C1465.04 835.936 1447.39 853.195 1447.39 874.301C1447.39 895.407 1465.04 912.667 1486.62 912.667H1512.63C1527.53 912.667 1539.71 924.592 1539.71 939.146C1539.71 953.719 1527.53 965.625 1512.63 965.625H1341.99C1306.04 965.625 1302.05 924.109 1211.25 924.109H949.677C930.249 924.109 914.339 908.55 914.339 889.551C914.339 870.552 930.229 854.993 949.677 854.993H983.611C1011.77 854.993 1034.8 832.457 1034.8 804.915C1034.8 777.373 1011.76 754.837 983.611 754.837H932.541C794.629 754.837 775.161 719.583 750.99 649.481C726.838 579.379 601.397 573.736 601.397 573.736H261.931C219.498 573.736 184.773 539.777 184.773 498.28C184.773 456.783 219.498 422.824 261.931 422.824H281.102C321.915 422.824 355.316 390.161 355.316 350.249C355.316 310.337 321.915 277.673 281.102 277.673ZM1588.62 912.648C1573.66 912.648 1561.55 924.496 1561.55 939.127C1561.55 953.758 1573.68 965.606 1588.62 965.606C1603.57 965.606 1615.7 953.738 1615.7 939.127C1615.7 924.515 1603.59 912.648 1588.62 912.648Z" fill="url(#paint1_linear_117_453)"/>
<defs>
<linearGradient id="paint0_linear_117_453" x1="1468.75" y1="832.594" x2="180.055" y2="-718.741" gradientUnits="userSpaceOnUse">
<stop stop-color="#583AFB" stop-opacity="0.03"/>
<stop offset="1" stop-color="#F7F8FA" stop-opacity="0"/>
</linearGradient>
<linearGradient id="paint1_linear_117_453" x1="846" y1="441" x2="693.742" y2="-49.1226" gradientUnits="userSpaceOnUse">
<stop stop-color="#F7F8FA" stop-opacity="0"/>
<stop offset="1" stop-color="#F7F8FA"/>
</linearGradient>
</defs>
</svg>
