<?xml version="1.0" encoding="utf-8"?>
<!-- Generator: Adobe Illustrator 21.0.0, SVG Export Plug-In . SVG Version: 6.00 Build 0)  -->
<svg version="1.1" id="Слой_1" xmlns="http://www.w3.org/2000/svg" xmlns:xlink="http://www.w3.org/1999/xlink" x="0px" y="0px"
	 viewBox="0 0 246 247" style="enable-background:new 0 0 246 247;" xml:space="preserve">
<style type="text/css">
	.st0{fill:#583AFB;}
	.st1{fill:#D9D9D9;filter:url(#Adobe_OpacityMaskFilter);}
	.st2{mask:url(#mask0_117_3022);}
	.st3{fill:#00C7FF;}
	.st4{fill:#4B3BC9;}
	.st5{fill:none;stroke:#00C7FF;stroke-width:24;stroke-opacity:0.29;}
</style>
<path class="st0" d="M23.1,246.5c-5.6-15.4-7.1-30.2-1.2-41.9c12.4-24.3,10.2-39.6,8.2-53.1c-1.7-11.9-3.2-22.5,5.5-36.5
	c10.9-17.5,26.4-23.5,42.5-29.7c13.9-5.3,28.2-10.8,40.2-24.1C132,45.9,137,27.3,142,8.7c0.7-2.7,1.5-5.5,2.2-8.2H222
	c13.3,0,24,10.7,24,24v198c0,13.3-10.7,24-24,24H23.1z"/>
<defs>
	<filter id="Adobe_OpacityMaskFilter" filterUnits="userSpaceOnUse" x="12.1" y="27.9" width="367.3" height="373.1">
		<feColorMatrix  type="matrix" values="1 0 0 0 0  0 1 0 0 0  0 0 1 0 0  0 0 0 1 0"/>
	</filter>
</defs>
<mask maskUnits="userSpaceOnUse" x="12.1" y="27.9" width="367.3" height="373.1" id="mask0_117_3022">
	<path class="st1" d="M222-33.8H24c-13.3,0-24,10.7-24,24v232.3c0,13.3,10.7,24,24,24h198c13.3,0,24-10.7,24-24V-9.8
		C246-23.1,235.3-33.8,222-33.8z"/>
</mask>
<g class="st2">
	<path class="st3" d="M15.3,127.9L15.3,127.9c1.8,0,3.2,1.4,3.2,3.2v5.6c0,1.8-1.4,3.2-3.2,3.2h0c-1.8,0-3.2-1.4-3.2-3.2v-5.6
		C12.1,129.3,13.6,127.9,15.3,127.9z"/>
	<rect x="14.5" y="126.3" class="st3" width="1.6" height="15.3"/>
	<path class="st3" d="M41.1,125.6L41.1,125.6c1.8,0,3.2,1.4,3.2,3.2v1.9c0,1.8-1.4,3.2-3.2,3.2h0c-1.8,0-3.2-1.4-3.2-3.2v-1.9
		C37.9,127,39.4,125.6,41.1,125.6z"/>
	<rect x="40.3" y="123.9" class="st3" width="1.6" height="12.9"/>
	<path class="st3" d="M219.1,51.4L219.1,51.4c1.8,0,3.2,1.4,3.2,3.2v1.9c0,1.8-1.4,3.2-3.2,3.2h0c-1.8,0-3.2-1.4-3.2-3.2v-1.9
		C215.9,52.9,217.3,51.4,219.1,51.4z"/>
	<rect x="218.3" y="49.7" class="st3" width="1.6" height="12.9"/>
	<path class="st3" d="M129,48.1L129,48.1c1.8,0,3.2,1.4,3.2,3.2v4c0,1.8-1.4,3.2-3.2,3.2l0,0c-1.8,0-3.2-1.4-3.2-3.2v-4
		C125.8,49.5,127.3,48.1,129,48.1z"/>
	<rect x="128.2" y="43.2" class="st3" width="1.6" height="23.4"/>
	<path class="st4" d="M177.4,31.1L177.4,31.1c1.8,0,3.2,1.4,3.2,3.2V65c0,1.8-1.4,3.2-3.2,3.2h0c-1.8,0-3.2-1.4-3.2-3.2V34.4
		C174.2,32.6,175.6,31.1,177.4,31.1z"/>
	<rect x="176.6" y="27.9" class="st4" width="1.6" height="41.1"/>
	<path class="st4" d="M166.1,64.6L166.1,64.6c1.8,0,3.2,1.4,3.2,3.2v7.6c0,1.8-1.4,3.2-3.2,3.2h0c-1.8,0-3.2-1.4-3.2-3.2v-7.6
		C162.9,66,164.3,64.6,166.1,64.6z"/>
	<rect x="165.3" y="65" class="st4" width="1.6" height="18.5"/>
	<path class="st3" d="M139.5,48.1L139.5,48.1c1.8,0,3.2,1.4,3.2,3.2v8.1c0,1.8-1.4,3.2-3.2,3.2h0c-1.8,0-3.2-1.4-3.2-3.2v-8.1
		C136.3,49.5,137.7,48.1,139.5,48.1z"/>
	<rect x="138.7" y="31.9" class="st3" width="1.6" height="41.1"/>
	<path class="st3" d="M193.3,53.7L193.3,53.7c1.8,0,3.2,1.4,3.2,3.2v5.6c0,1.8-1.4,3.2-3.2,3.2h0c-1.8,0-3.2-1.4-3.2-3.2V57
		C190.1,55.2,191.5,53.7,193.3,53.7z"/>
	<rect x="192.5" y="52.1" class="st3" width="1.6" height="15.3"/>
	<path class="st4" d="M28.2,127.9L28.2,127.9c1.8,0,3.2,1.4,3.2,3.2v5.6c0,1.8-1.4,3.2-3.2,3.2h0c-1.8,0-3.2-1.4-3.2-3.2v-5.6
		C25,129.3,26.5,127.9,28.2,127.9z"/>
	<rect x="27.4" y="123.1" class="st4" width="1.6" height="23.4"/>
	<path class="st4" d="M206.2,53.7L206.2,53.7c1.8,0,3.2,1.4,3.2,3.2v5.6c0,1.8-1.4,3.2-3.2,3.2h0c-1.8,0-3.2-1.4-3.2-3.2V57
		C203,55.2,204.4,53.7,206.2,53.7z"/>
	<rect x="205.4" y="48.9" class="st4" width="1.6" height="23.4"/>
	<path class="st4" d="M53.2,132L53.2,132c1.8,0,3.2,1.4,3.2,3.2v1.9c0,1.8-1.4,3.2-3.2,3.2h0c-1.8,0-3.2-1.4-3.2-3.2v-1.9
		C50,133.5,51.5,132,53.2,132z"/>
	<rect x="52.4" y="121.4" class="st4" width="1.6" height="19.4"/>
	<path class="st4" d="M231.2,57.9L231.2,57.9c1.8,0,3.2,1.4,3.2,3.2V63c0,1.8-1.4,3.2-3.2,3.2h0c-1.8,0-3.2-1.4-3.2-3.2v-1.9
		C228,59.3,229.4,57.9,231.2,57.9z"/>
	<rect x="230.4" y="47.3" class="st4" width="1.6" height="19.4"/>
	<path class="st4" d="M66.9,131.9L66.9,131.9c1.8,0,3.2,1.4,3.2,3.2v8.9c0,1.8-1.4,3.2-3.2,3.2h0c-1.8,0-3.2-1.4-3.2-3.2v-8.9
		C63.7,133.4,65.2,131.9,66.9,131.9z"/>
	<rect x="66.1" y="128.7" class="st4" width="1.6" height="21"/>
	<path class="st4" d="M152.4,62.6L152.4,62.6c1.8,0,3.2,1.4,3.2,3.2v8.9c0,1.8-1.4,3.2-3.2,3.2h0c-1.8,0-3.2-1.4-3.2-3.2v-8.9
		C149.2,64,150.6,62.6,152.4,62.6z"/>
	<rect x="151.6" y="57.7" class="st4" width="1.6" height="29"/>
	<path class="st4" d="M78.2,130L78.2,130c1.8,0,3.2,1.4,3.2,3.2v18.9c0,1.8-1.4,3.2-3.2,3.2h0c-1.8,0-3.2-1.4-3.2-3.2v-18.9
		C75,131.4,76.5,130,78.2,130z"/>
	<rect x="77.4" y="124.7" class="st4" width="1.6" height="34.7"/>
	<path class="st4" d="M90.3,89.2L90.3,89.2c1.8,0,3.2,1.4,3.2,3.2v33.1c0,1.8-1.4,3.2-3.2,3.2h0c-1.8,0-3.2-1.4-3.2-3.2V92.4
		C87.1,90.6,88.5,89.2,90.3,89.2z"/>
	<rect x="89.5" y="81.9" class="st4" width="1.6" height="48.4"/>
	<path class="st4" d="M115.3,50.3L115.3,50.3c1.8,0,3.2,1.4,3.2,3.2v36.4c0,1.8-1.4,3.2-3.2,3.2h0c-1.8,0-3.2-1.4-3.2-3.2V53.5
		C112.1,51.7,113.5,50.3,115.3,50.3z"/>
	<rect x="114.5" y="48.1" class="st4" width="1.6" height="46.8"/>
	<path class="st4" d="M102.4,89.2L102.4,89.2c1.8,0,3.2,1.4,3.2,3.2v0.8c0,1.8-1.4,3.2-3.2,3.2h0c-1.8,0-3.2-1.4-3.2-3.2v-0.8
		C99.2,90.6,100.6,89.2,102.4,89.2z"/>
	<rect x="101.6" y="86.8" class="st4" width="1.6" height="12.1"/>
	<circle class="st3" cx="215.9" cy="237.4" r="139.6"/>
	<circle class="st5" cx="215.9" cy="237.4" r="151.6"/>
</g>
</svg>
