<svg width="166" height="131" viewBox="0 0 166 131" fill="none" xmlns="http://www.w3.org/2000/svg">
<path d="M149.752 127.451C149.752 128.911 119.55 130.094 82.294 130.094C45.0379 130.094 14.8359 128.911 14.8359 127.451C14.8359 125.992 45.0379 124.809 82.294 124.809C119.55 124.809 149.752 125.992 149.752 127.451Z" fill="#F5F5F5"/>
<path d="M108.967 94.9443H62.668V126.375H108.967V94.9443Z" fill="#00C7FF"/>
<path d="M67.2445 105.904H21.6797V126.376H67.2445V105.904Z" fill="#00C7FF"/>
<path d="M143.306 110.91H108.281V126.375H143.306V110.91Z" fill="#00C7FF"/>
<path d="M87.1231 106.807V116.79H84.2993V108.989H82.4453V106.807H87.1231Z" fill="white"/>
<path d="M44.3892 118.55V120.311H38.2749V118.92L41.2143 116.171C41.8425 115.588 41.9323 115.229 41.9323 114.903C41.9323 114.399 41.5957 114.096 40.9226 114.096C40.3504 114.096 39.8344 114.354 39.5202 114.858L37.8711 113.939C38.4656 112.951 39.5763 112.301 41.1245 112.301C42.9307 112.301 44.176 113.232 44.176 114.69C44.176 115.453 43.9629 116.149 42.841 117.181L41.3601 118.55H44.3892Z" fill="white"/>
<path d="M130.145 120.218C130.145 121.552 129.091 122.831 126.723 122.831C125.635 122.831 124.48 122.562 123.672 122.057L124.48 120.386C125.108 120.812 125.916 121.036 126.656 121.036C127.408 121.036 127.902 120.745 127.902 120.218C127.902 119.746 127.554 119.455 126.701 119.455H125.77V118.052L127.172 116.538H124.076V114.821H129.752V116.212L128.126 117.962C129.45 118.243 130.145 119.096 130.145 120.218Z" fill="white"/>
<path opacity="0.2" d="M98.5972 94.9443C98.4425 94.9443 62.668 117.706 62.668 117.706C62.668 117.706 62.668 126.38 62.668 125.992C62.668 125.603 108.884 94.9443 108.884 94.9443H98.5972Z" fill="white"/>
<path opacity="0.2" d="M65.6367 126.375L108.884 97.9062V99.8156L69.1271 126.375H65.6367Z" fill="white"/>
<path opacity="0.2" d="M52.2628 105.904L21.6797 119.05V123.852L60.9335 105.904H52.2628Z" fill="white"/>
<path opacity="0.2" d="M110.703 126.376L135.975 110.911H140.025L115.561 126.376H110.703Z" fill="white"/>
<path d="M156.32 116.17H3V116.247H156.32V116.17Z" fill="#EBEBEB"/>
<path d="M140.957 121.104H130.801V121.18H140.957V121.104Z" fill="#EBEBEB"/>
<path d="M104.567 121.938H101.902V122.014H104.567V121.938Z" fill="#EBEBEB"/>
<path d="M130.494 118.258H124.609V118.334H130.494V118.258Z" fill="#EBEBEB"/>
<path d="M32.3297 118.773H19.0859V118.85H32.3297V118.773Z" fill="#EBEBEB"/>
<path d="M37.0035 118.773H35.0625V118.85H37.0035V118.773Z" fill="#EBEBEB"/>
<path d="M72.0385 120.067H43.3125V120.144H72.0385V120.067Z" fill="#EBEBEB"/>
<path d="M72.02 33.8707L75.1876 33.4077L72.02 32.9447L72.8019 31.7058L71.5631 32.4878L71.1001 29.3232L70.637 32.4878L69.3982 31.7058L70.1832 32.9447L67.0156 33.4077L70.1832 33.8707L69.3982 35.1095L70.637 34.3245L71.1001 37.4921L71.5631 34.3245L72.8019 35.1095L72.02 33.8707Z" fill="#F5F5F5"/>
<path d="M103.864 42.3249L107.028 41.8619L103.864 41.3989L104.646 40.1601L103.407 40.942L102.944 37.7744L102.481 40.942L101.242 40.1601L102.027 41.3989L98.8594 41.8619L102.027 42.3249L101.242 43.5638L102.481 42.7788L102.944 45.9463L103.407 42.7788L104.646 43.5638L103.864 42.3249Z" fill="#F5F5F5"/>
<path d="M59.3294 56.0622L62.497 55.5992L59.3294 55.1331L60.1144 53.8974L58.8756 54.6793L58.4126 51.5117L57.9495 54.6793L56.7107 53.8974L57.4957 55.1331L54.3281 55.5992L57.4957 56.0622L56.7107 57.3011L57.9495 56.5161L58.4126 59.6837L58.8756 56.5161L60.1144 57.3011L59.3294 56.0622Z" fill="#F5F5F5"/>
<path d="M32.5551 56.0622L35.7196 55.5992L32.5551 55.1331L33.3371 53.8974L32.0982 54.6793L31.6352 51.5117L31.1722 54.6793L29.9334 53.8974L30.7184 55.1331L27.5508 55.5992L30.7184 56.0622L29.9334 57.3011L31.1722 56.5161L31.6352 59.6837L32.0982 56.5161L33.3371 57.3011L32.5551 56.0622Z" fill="#F5F5F5"/>
<path d="M47.7231 74.9177L50.8907 74.4547L47.7231 73.9886L48.5081 72.7528L47.2693 73.5348L46.8063 70.3672L46.3402 73.5348L45.1044 72.7528L45.8863 73.9886L42.7188 74.4547L45.8863 74.9177L45.1044 76.1565L46.3402 75.3715L46.8063 78.5391L47.2693 75.3715L48.5081 76.1565L47.7231 74.9177Z" fill="#F5F5F5"/>
<path d="M109.943 64.7643L113.11 64.3012L109.943 63.8382L110.728 62.5994L109.489 63.3844L109.026 60.2168L108.563 63.3844L107.324 62.5994L108.106 63.8382L104.941 64.3012L108.106 64.7643L107.324 66.0031L108.563 65.2212L109.026 68.3887L109.489 65.2212L110.728 66.0031L109.943 64.7643Z" fill="#F5F5F5"/>
<path d="M132.286 92.8318L135.45 92.3657L132.286 91.9027L133.068 90.6669L131.829 91.4488L131.366 88.2812L130.903 91.4488L129.664 90.6669L130.449 91.9027L127.281 92.3657L130.449 92.8318L129.664 94.0675L130.903 93.2856L131.366 96.4532L131.829 93.2856L133.068 94.0675L132.286 92.8318Z" fill="#F5F5F5"/>
<path d="M105.86 91.8562L109.027 91.3932L105.86 90.9271L106.645 89.6913L105.406 90.4733L104.943 87.3057L104.477 90.4733L103.241 89.6913L104.023 90.9271L100.855 91.3932L104.023 91.8562L103.241 93.095L104.477 92.31L104.943 95.4776L105.406 92.31L106.645 93.095L105.86 91.8562Z" fill="#F5F5F5"/>
<path d="M47.7231 98.4548L50.8907 97.9887L47.7231 97.5257L48.5081 96.2869L47.2693 97.0719L46.8063 93.9043L46.3402 97.0719L45.1044 96.2869L45.8863 97.5257L42.7188 97.9887L45.8863 98.4548L45.1044 99.6906L46.3402 98.9086L46.8063 102.076L47.2693 98.9086L48.5081 99.6906L47.7231 98.4548Z" fill="#F5F5F5"/>
<path d="M82.1411 84.0582L85.3087 83.5952L82.1411 83.1322L82.9261 81.8933L81.6872 82.6753L81.2242 79.5107L80.7612 82.6753L79.5224 81.8933L80.3043 83.1322L77.1367 83.5952L80.3043 84.0582L79.5224 85.297L80.7612 84.512L81.2242 87.6796L81.6872 84.512L82.9261 85.297L82.1411 84.0582Z" fill="#F5F5F5"/>
<path d="M64.1723 118.166L67.3399 117.703L64.1723 117.24L64.9542 116.001L63.7154 116.783L63.2524 113.618L62.7894 116.783L61.5506 116.001L62.3356 117.24L59.168 117.703L62.3356 118.166L61.5506 119.404L62.7894 118.619L63.2524 121.787L63.7154 118.619L64.9542 119.404L64.1723 118.166Z" fill="#F5F5F5"/>
<path d="M99.4067 116.099L102.574 115.636L99.4067 115.173L100.189 113.934L98.9529 114.719L98.4868 111.552L98.0238 114.719L96.7849 113.934L97.5699 115.173L94.4023 115.636L97.5699 116.099L96.7849 117.338L98.0238 116.553L98.4868 119.721L98.9529 116.553L100.189 117.338L99.4067 116.099Z" fill="#F5F5F5"/>
<path d="M99.8062 58.9227C97.9235 56.1353 97.117 51.7627 95.3906 50.0301C96.7272 49.0042 98.1455 48.0894 99.6314 47.2949C100.689 50.3398 101.318 55.0652 104.047 56.1875C102.71 57.2134 101.292 58.1282 99.8062 58.9227Z" fill="#EBEBEB"/>
<path d="M102.997 56.7091C102.733 56.5343 102.801 56.1908 103.123 55.9762C101.234 54.4583 100.556 50.9258 99.7006 48.2826C99.6309 48.3142 99.5553 48.3305 99.4787 48.3303C99.4022 48.3301 99.3266 48.3134 99.2571 48.2814C99.1876 48.2494 99.1258 48.2028 99.0759 48.1448C99.0259 48.0869 98.9891 48.0188 98.9678 47.9453C98.0711 48.4421 97.2011 48.9856 96.3613 49.5736C96.4266 49.7282 96.4312 49.9017 96.3744 50.0597C96.3176 50.2176 96.2035 50.3484 96.0547 50.426C97.3334 52.2321 98.1122 55.5653 99.5105 58.0552C99.6676 57.9968 99.8394 57.9913 99.9999 58.0394C100.16 58.0876 100.301 58.1868 100.4 58.322C101.293 57.8301 102.16 57.2918 102.997 56.7091ZM98.3974 53.6151C98.1184 52.8699 98.376 52.0604 98.9463 51.7967C99.5167 51.533 100.173 51.9715 100.433 52.735C100.694 53.4985 100.492 54.2897 99.9245 54.5411C99.3572 54.7926 98.6734 54.3663 98.4066 53.6151H98.3974Z" fill="#E0E0E0"/>
<path d="M56.9857 49.7759C54.2904 51.2293 50.2029 51.4102 48.498 52.8576C47.6426 51.4074 46.8964 49.8956 46.2656 48.3346C49.145 47.7214 53.5452 47.7643 54.7534 45.2529C55.6112 46.7017 56.3575 48.2138 56.9857 49.7759Z" fill="#EBEBEB"/>
<path d="M55.1606 46.3508C54.9828 46.5869 54.6669 46.4735 54.4921 46.127C52.9589 47.7613 49.6626 47.9361 47.1635 48.4053C47.1906 48.4724 47.2026 48.5447 47.1986 48.617C47.1947 48.6892 47.1749 48.7598 47.1407 48.8236C47.1064 48.8873 47.0586 48.9428 47.0005 48.9861C46.9425 49.0293 46.8756 49.0592 46.8047 49.0738C47.1696 49.9446 47.6019 50.8615 48.1294 51.8335C48.3655 51.7139 48.712 51.901 48.896 52.2505C50.6469 51.254 53.7715 50.9535 56.1664 49.9323C56.1193 49.7794 56.1238 49.6152 56.1792 49.465C56.2346 49.3149 56.3379 49.1871 56.473 49.1014C56.1112 48.2336 55.685 47.3198 55.1637 46.3416L55.1606 46.3508ZM51.9961 50.426C51.6732 50.5132 51.3297 50.4812 51.0285 50.336C50.7273 50.1907 50.4884 49.9418 50.3556 49.6349C50.1501 49.0216 50.6009 48.4666 51.3215 48.3133C52.0421 48.16 52.7596 48.4697 52.9528 49.0584C53.146 49.6472 52.7044 50.2482 51.9961 50.426Z" fill="#E0E0E0"/>
<path d="M83.7344 45.6976C81.4438 43.6585 79.8738 39.8715 77.9297 38.7768C78.9987 37.4757 80.1641 36.2569 81.4162 35.1309C82.977 37.6269 84.4458 41.7757 87.2178 42.0486C86.1497 43.3506 84.9853 44.5703 83.7344 45.6976Z" fill="#EBEBEB"/>
<path d="M86.3255 42.8098C86.0465 42.724 86.0434 42.3897 86.3102 42.1076C84.2588 41.2276 82.9556 38.1888 81.6585 36.0147C81.6048 36.0636 81.5409 36.1 81.4714 36.1213C81.4019 36.1425 81.3286 36.148 81.2567 36.1375C81.1848 36.1269 81.1162 36.1005 81.0558 36.0602C80.9953 36.0199 80.9446 35.9666 80.9072 35.9043C80.2142 36.5482 79.4998 37.2658 78.7608 38.0998C78.9539 38.2808 78.8957 38.6702 78.6289 38.9615C80.1621 40.2678 81.5174 43.1011 83.299 44.9992C83.4267 44.9029 83.5822 44.8509 83.7421 44.8509C83.902 44.8509 84.0575 44.9029 84.1852 44.9992C84.8751 44.3614 85.5866 43.6469 86.3317 42.8221L86.3255 42.8098ZM81.4193 41.2276C81.2265 40.954 81.139 40.62 81.1728 40.2871C81.2066 39.9541 81.3595 39.6445 81.6033 39.4153C82.0939 39.0197 82.7808 39.2467 83.1764 39.8722C83.5719 40.4978 83.5198 41.2766 83.0322 41.6599C82.5447 42.0432 81.8272 41.8408 81.4285 41.2276H81.4193Z" fill="#E0E0E0"/>
<path d="M90.9225 77.6769C89.8768 74.7975 90.2938 70.7284 89.1133 68.8303C90.6724 68.1986 92.2765 67.684 93.9122 67.291C94.0992 70.2286 93.4124 74.5768 95.7214 76.1406C94.1626 76.7725 92.5584 77.286 90.9225 77.6769Z" fill="#EBEBEB"/>
<path d="M94.5742 76.3739C94.3687 76.1623 94.5282 75.871 94.8808 75.7606C93.4887 74.0067 93.7984 70.7164 93.7002 68.1775C93.6295 68.1952 93.5557 68.1971 93.4841 68.1829C93.4125 68.1687 93.345 68.1389 93.2863 68.0955C93.2277 68.0521 93.1794 67.9962 93.1449 67.9319C93.1104 67.8676 93.0907 67.7965 93.087 67.7236C92.167 67.9597 91.2011 68.2511 90.1524 68.6282C90.2352 68.8797 89.9991 69.1955 89.625 69.3243C90.3548 71.204 90.1953 74.3409 90.8516 76.8553C91.0096 76.8332 91.1705 76.8623 91.3107 76.9385C91.451 77.0147 91.563 77.1339 91.6304 77.2785C92.5503 77.0455 93.5101 76.7572 94.5558 76.3831L94.5742 76.3739ZM91.0233 72.6513C90.9826 72.3193 91.0637 71.9838 91.2514 71.707C91.4392 71.4302 91.7209 71.2308 92.0444 71.1457C92.6577 71.0292 93.1606 71.5566 93.2096 72.2926C93.2587 73.0285 92.8447 73.6908 92.2345 73.7982C91.6243 73.9055 91.0785 73.3781 91.0233 72.6513Z" fill="#E0E0E0"/>
<path d="M131.652 65.9447C129.362 63.9056 127.792 60.1186 125.848 59.0239C126.917 57.7235 128.083 56.5048 129.334 55.3779C130.898 57.874 132.367 62.0228 135.139 62.2957C134.07 63.5977 132.904 64.8175 131.652 65.9447Z" fill="#EBEBEB"/>
<path d="M134.24 63.0594C133.958 62.9705 133.958 62.6362 134.225 62.3541C132.168 61.4649 130.867 58.4353 129.576 56.252C129.523 56.3009 129.459 56.3373 129.389 56.3586C129.32 56.3798 129.247 56.3853 129.175 56.3748C129.103 56.3642 129.034 56.3378 128.974 56.2975C128.913 56.2572 128.863 56.2039 128.825 56.1416C128.132 56.7855 127.418 57.5031 126.679 58.3371C126.872 58.5181 126.814 58.9075 126.547 59.1988C128.08 60.5051 129.435 63.3384 131.217 65.2365C131.345 65.1407 131.5 65.089 131.66 65.089C131.82 65.089 131.975 65.1407 132.103 65.2365C132.793 64.5987 133.505 63.8842 134.25 63.0594H134.24ZM129.334 61.4649C129.141 61.192 129.053 60.8584 129.087 60.5258C129.121 60.1932 129.274 59.8841 129.518 59.6557C130.006 59.2571 130.696 59.484 131.088 60.1095C131.481 60.7351 131.435 61.5139 130.947 61.8972C130.46 62.2805 129.745 62.0781 129.334 61.4649Z" fill="#E0E0E0"/>
<path d="M129.84 61.2726L129.708 61.3738L129.631 61.2542L129.76 61.153C129.679 61.0202 129.633 60.8695 129.625 60.7145L129.784 60.6869C129.789 60.8158 129.824 60.9418 129.886 61.0549L130.116 60.877C130.045 60.6869 129.975 60.4753 130.137 60.3496C130.254 60.2576 130.428 60.2913 130.591 60.5121L130.723 60.4109L130.799 60.5336L130.671 60.6317C130.734 60.7424 130.776 60.8641 130.793 60.9905L130.637 61.0181C130.622 60.9177 130.591 60.8204 130.545 60.7298L130.312 60.9107C130.385 61.1008 130.462 61.3124 130.312 61.4351C130.162 61.5577 130.005 61.4933 129.84 61.2726ZM130.257 60.7666L130.465 60.6102C130.385 60.5121 130.315 60.4998 130.263 60.5397C130.211 60.5796 130.223 60.6654 130.257 60.7666ZM130.165 61.2511C130.223 61.2082 130.208 61.1223 130.165 61.0181L129.959 61.1775C130.048 61.2756 130.116 61.291 130.165 61.2511Z" fill="#E0E0E0"/>
<path d="M77.3333 59.8986C75.2758 62.551 73.3961 65.3905 72.5651 68.4232C71.1791 67.8497 69.7563 67.2733 68.3672 66.6017C69.4558 63.4464 71.3355 60.6774 73.1354 58.0771C74.5214 58.6506 75.9442 59.227 77.3333 59.8986Z" fill="#EBEBEB"/>
<path d="M73.7824 58.6046C73.6791 58.7434 73.5337 58.845 73.3678 58.8942C73.202 58.9434 73.0247 58.9376 72.8624 58.8775C71.3783 61.0455 69.8942 63.333 68.8945 65.8689C69.0455 65.9499 69.1628 66.082 69.2251 66.2416C69.2875 66.4012 69.291 66.5778 69.2349 66.7398C70.1027 67.1384 70.9797 67.5094 71.8475 67.8713C71.8692 67.7958 71.9068 67.7258 71.9579 67.6661C72.0089 67.6064 72.0722 67.5584 72.1434 67.5253C72.2146 67.4921 72.2921 67.4747 72.3707 67.474C72.4492 67.4734 72.527 67.4897 72.5987 67.5217C73.442 65.0532 74.9231 62.7228 76.5666 60.5181C76.4951 60.4864 76.432 60.4384 76.3824 60.3778C76.3328 60.3173 76.2981 60.246 76.2811 60.1697C76.2641 60.0933 76.2653 60.014 76.2845 59.9382C76.3038 59.8624 76.3405 59.7921 76.3919 59.7331C75.521 59.3344 74.6471 58.9634 73.7793 58.6016L73.7824 58.6046ZM73.5278 63.612C73.3644 63.9139 73.0957 64.1451 72.7728 64.2616C72.4499 64.378 72.0954 64.3717 71.7769 64.2437C71.6286 64.1726 71.4969 64.0709 71.3906 63.9453C71.2842 63.8197 71.2056 63.6731 71.1599 63.5151C71.1141 63.357 71.1023 63.1911 71.1252 63.0281C71.148 62.8652 71.205 62.7089 71.2925 62.5695C71.4678 62.2678 71.7461 62.0397 72.0763 61.927C72.4065 61.8143 72.7662 61.8247 73.0894 61.9562C73.2373 62.0254 73.3683 62.1262 73.4731 62.2515C73.5779 62.3769 73.6539 62.5237 73.6957 62.6816C73.7375 62.8395 73.7441 63.0047 73.7151 63.1655C73.6861 63.3262 73.6222 63.4787 73.5278 63.612Z" fill="#E0E0E0"/>
<path d="M73.0602 63.2566L73.2258 63.3332L73.1552 63.4559L72.9897 63.3792C72.9096 63.5099 72.795 63.616 72.6585 63.6859L72.545 63.5479C72.6598 63.4909 72.758 63.4053 72.8302 63.2995L72.5236 63.1615C72.3886 63.3087 72.2323 63.4681 72.0268 63.37C71.8766 63.2995 71.806 63.1247 71.9195 62.8794L71.7539 62.8027L71.8244 62.6801L71.99 62.7567C72.0583 62.6499 72.1507 62.5606 72.2599 62.4961L72.3733 62.6249C72.2864 62.6786 72.2104 62.7483 72.1495 62.8303L72.4561 62.9683C72.5941 62.8211 72.7627 62.6617 72.9621 62.7598C73.1123 62.8365 73.1767 62.999 73.0602 63.2566ZM72.3549 63.0848L72.0912 62.9622C72.0452 63.0756 72.0728 63.1462 72.1372 63.1768C72.2016 63.2075 72.2783 63.1615 72.3549 63.0848ZM72.8609 62.9653C72.7873 62.9315 72.7137 62.9806 72.637 63.0603L72.9007 63.1799C72.9467 63.0634 72.9161 62.999 72.8609 62.9653Z" fill="#E0E0E0"/>
<path d="M129.622 75.6232C127.562 78.2756 125.685 81.1151 124.854 84.1478C123.468 83.5743 122.045 82.9979 120.656 82.3263C121.745 79.171 123.625 76.4021 125.421 73.8018C126.811 74.3752 128.233 74.9578 129.622 75.6232Z" fill="#EBEBEB"/>
<path d="M126.068 74.3262C125.965 74.4659 125.82 74.5684 125.654 74.6182C125.488 74.668 125.31 74.6624 125.148 74.6021C123.663 76.767 122.179 79.0576 121.18 81.5935C121.331 81.673 121.45 81.8043 121.513 81.9636C121.576 82.1229 121.579 82.2995 121.523 82.4613C122.391 82.863 123.268 83.231 124.136 83.5959C124.157 83.5201 124.194 83.4498 124.245 83.3898C124.296 83.3298 124.36 83.2816 124.431 83.2484C124.502 83.2152 124.58 83.1978 124.659 83.1974C124.737 83.1971 124.815 83.2138 124.887 83.2463C125.73 80.7932 127.211 78.4474 128.855 76.2427C128.783 76.211 128.72 76.163 128.671 76.1025C128.621 76.0419 128.586 75.9706 128.569 75.8943C128.552 75.8179 128.554 75.7386 128.573 75.6628C128.592 75.587 128.629 75.5167 128.68 75.4577C127.812 75.0621 126.938 74.6911 126.071 74.3292L126.068 74.3262ZM125.798 79.3428C125.634 79.6446 125.365 79.8758 125.043 79.9923C124.72 80.1088 124.365 80.1024 124.047 79.9745C123.898 79.9037 123.766 79.8022 123.659 79.6767C123.553 79.5511 123.474 79.4044 123.428 79.2462C123.382 79.088 123.371 78.9219 123.394 78.7589C123.417 78.5958 123.474 78.4395 123.562 78.3002C123.742 78.0057 124.02 77.785 124.348 77.6782C124.676 77.5713 125.032 77.5853 125.35 77.7176C125.494 77.7866 125.622 77.8857 125.724 78.0083C125.827 78.1308 125.902 78.274 125.944 78.4281C125.987 78.5822 125.996 78.7436 125.97 78.9014C125.945 79.0592 125.886 79.2097 125.798 79.3428Z" fill="#E0E0E0"/>
<path d="M125.349 78.9803L125.515 79.057C125.49 79.0968 125.466 79.1367 125.444 79.1796L125.279 79.103C125.196 79.2325 125.081 79.3382 124.944 79.4096L124.834 79.2716C124.948 79.2136 125.046 79.1283 125.119 79.0233L124.813 78.8853C124.678 79.0325 124.521 79.1919 124.316 79.0938C124.166 79.0233 124.095 78.8485 124.209 78.6032L124.043 78.5265C124.064 78.4836 124.089 78.4437 124.113 78.4038L124.279 78.4805C124.347 78.3728 124.44 78.2825 124.549 78.2168L124.659 78.3486C124.574 78.4033 124.499 78.4729 124.439 78.5541L124.745 78.6921C124.883 78.5449 125.052 78.3854 125.251 78.4836C125.395 78.5602 125.457 78.7319 125.349 78.9803ZM124.644 78.8086L124.38 78.686C124.334 78.7994 124.362 78.8699 124.426 78.9006C124.491 78.9313 124.561 78.8853 124.638 78.8086H124.644ZM125.15 78.689C125.076 78.6553 125.003 78.7044 124.926 78.781L125.187 78.9037C125.23 78.7871 125.208 78.7166 125.144 78.689H125.15Z" fill="#E0E0E0"/>
<path d="M116.404 39.8962C116.241 36.5507 113.248 34.2479 113.086 30.9024L117.379 29.3232C117.544 32.6687 120.534 34.9715 120.7 38.3139L116.404 39.8962Z" fill="#EBEBEB"/>
<path d="M119.857 38.36C119.839 38.1852 119.877 38.0093 119.966 37.8578C120.054 37.7062 120.189 37.5867 120.35 37.5167C119.832 34.9134 117.759 32.8865 117.247 30.2831C117.176 30.3144 117.098 30.3281 117.02 30.3228C116.943 30.3175 116.868 30.2935 116.801 30.2528C116.735 30.2121 116.68 30.1559 116.64 30.0891C116.6 30.0223 116.577 29.9468 116.572 29.8691L113.905 30.8535C113.923 31.0279 113.885 31.2035 113.797 31.355C113.709 31.5066 113.575 31.6262 113.414 31.6967C113.926 34.3001 115.999 36.33 116.517 38.9334C116.588 38.902 116.665 38.8883 116.743 38.8934C116.82 38.8985 116.895 38.9222 116.961 38.9626C117.027 39.0031 117.082 39.0589 117.122 39.1254C117.162 39.1919 117.185 39.267 117.189 39.3443L119.853 38.36H119.857ZM115.732 34.9869C115.649 34.8496 115.598 34.6953 115.583 34.5354C115.567 34.3755 115.588 34.2143 115.644 34.0637C115.7 33.913 115.789 33.7769 115.904 33.6655C116.02 33.554 116.159 33.4701 116.312 33.42C116.646 33.3107 117.007 33.3193 117.335 33.4443C117.663 33.5693 117.938 33.8032 118.115 34.1069C118.199 34.2439 118.251 34.3981 118.266 34.558C118.282 34.7178 118.261 34.8792 118.206 35.0299C118.151 35.1807 118.062 35.317 117.946 35.4285C117.83 35.54 117.691 35.6239 117.538 35.6738C117.203 35.7829 116.84 35.7729 116.511 35.6455C116.182 35.5182 115.907 35.2812 115.732 34.9747V34.9869Z" fill="#E0E0E0"/>
<path d="M116.359 34.889L116.181 34.9534L116.113 34.8338L116.288 34.7664C116.218 34.6414 116.192 34.4968 116.214 34.3555H116.411C116.391 34.472 116.407 34.5918 116.457 34.6989L116.763 34.5824C116.714 34.4015 116.674 34.2021 116.892 34.1224C116.99 34.0945 117.095 34.1012 117.189 34.1414C117.283 34.1816 117.36 34.2529 117.407 34.3432L117.585 34.2788L117.656 34.4015L117.478 34.4659C117.532 34.5698 117.557 34.6862 117.551 34.8032H117.377C117.381 34.7096 117.365 34.6163 117.328 34.5303L117.021 34.6498C117.07 34.8308 117.116 35.0301 116.895 35.1098C116.794 35.144 116.684 35.1405 116.586 35.0999C116.487 35.0593 116.406 34.9844 116.359 34.889ZM116.972 34.518L117.251 34.4137C117.174 34.3156 117.095 34.2911 117.024 34.3156C116.953 34.3401 116.944 34.4229 116.966 34.518H116.972ZM116.76 34.9289C116.837 34.9013 116.837 34.8216 116.815 34.7234L116.536 34.8246C116.607 34.9289 116.687 34.9534 116.763 34.9289H116.76Z" fill="#E0E0E0"/>
<path d="M29.5045 79.5202C29.3389 76.184 26.3492 73.8719 26.1836 70.5265L30.4765 68.9473C30.6421 72.2927 33.6319 74.5925 33.7974 77.9379L29.5045 79.5202Z" fill="#EBEBEB"/>
<path d="M32.9573 77.984C32.9392 77.8096 32.977 77.634 33.0652 77.4824C33.1534 77.3309 33.2874 77.2112 33.4479 77.1407C32.9327 74.5374 30.8599 72.5105 30.3447 69.9041C30.2738 69.9361 30.1961 69.9503 30.1184 69.9456C30.0408 69.9408 29.9654 69.9171 29.899 69.8767C29.8325 69.8362 29.7769 69.7801 29.737 69.7133C29.6972 69.6464 29.6742 69.5709 29.6701 69.4932L27.0023 70.4775C27.0204 70.6519 26.9826 70.8275 26.8944 70.979C26.8063 71.1306 26.6723 71.2502 26.5117 71.3207C27.0269 73.9241 29.0998 75.9541 29.6149 78.5574C29.6858 78.5254 29.7635 78.5111 29.8412 78.5159C29.9189 78.5207 29.9942 78.5444 30.0606 78.5848C30.1271 78.6253 30.1827 78.6814 30.2226 78.7482C30.2625 78.8151 30.2854 78.8906 30.2895 78.9683L32.9573 77.984ZM28.8299 74.611C28.7467 74.4736 28.6955 74.3193 28.6802 74.1594C28.6649 73.9996 28.6859 73.8383 28.7416 73.6877C28.7973 73.5371 28.8863 73.401 29.002 73.2895C29.1176 73.1781 29.2569 73.0942 29.4095 73.044C29.7428 72.9355 30.1033 72.9445 30.4308 73.0695C30.7583 73.1944 31.0331 73.4279 31.2094 73.7309C31.2933 73.8679 31.3451 74.0221 31.3609 74.182C31.3767 74.3419 31.3561 74.5032 31.3006 74.654C31.2451 74.8047 31.1563 74.941 31.0406 75.0525C30.925 75.164 30.7856 75.2479 30.6329 75.2978C30.2978 75.4061 29.9357 75.3957 29.6073 75.2684C29.2789 75.1411 29.0044 74.9046 28.8299 74.5987V74.611Z" fill="#E0E0E0"/>
<path d="M29.4562 74.5126L29.2784 74.577L29.2109 74.4544L29.3857 74.39C29.3184 74.2642 29.2936 74.1201 29.3152 73.9791H29.5114C29.4897 74.0955 29.5058 74.2159 29.5574 74.3225L29.8641 74.206C29.8119 74.0251 29.7721 73.8258 29.9929 73.746C30.091 73.7175 30.196 73.724 30.29 73.7642C30.3839 73.8045 30.461 73.8761 30.508 73.9668L30.6859 73.9024L30.7533 74.0251L30.5785 74.0895C30.6338 74.1929 30.6583 74.3099 30.6491 74.4268H30.4559C30.4606 74.3333 30.4438 74.2399 30.4068 74.1539L30.1002 74.2735C30.1523 74.4513 30.1952 74.6537 29.9775 74.7334C29.8785 74.7629 29.7723 74.757 29.6772 74.7167C29.5821 74.6764 29.504 74.6043 29.4562 74.5126ZM30.0695 74.1416L30.3516 74.0373C30.3294 73.998 30.2949 73.967 30.2533 73.9493C30.2117 73.9315 30.1654 73.928 30.1217 73.9392C30.0419 73.9668 30.0419 74.0373 30.0634 74.1416H30.0695ZM29.8579 74.5525C29.9377 74.5249 29.9377 74.4452 29.9131 74.344L29.6341 74.4482C29.7077 74.5525 29.7844 74.577 29.8518 74.5525H29.8579Z" fill="#E0E0E0"/>
<path d="M40.4558 39.8289C39.2875 43.0548 35.2429 42.9904 33.9121 45.7256C32.6672 44.6309 31.459 43.5791 30.2539 42.6408C31.4191 39.415 35.4668 39.4794 36.7976 36.7441C38.0395 37.8542 39.266 38.8814 40.4558 39.8289Z" fill="#EBEBEB"/>
<path d="M37.3933 37.5625C37.2369 37.8507 36.8505 37.8477 36.5684 37.5962C35.1149 39.4913 32.1651 39.804 30.8281 42.018C30.9586 42.1336 31.0484 42.2882 31.0843 42.4588C31.1202 42.6294 31.1003 42.8071 31.0274 42.9655C31.7777 43.5788 32.5402 44.2268 33.315 44.9096C33.4714 44.6244 33.8577 44.6244 34.1368 44.8758C35.5902 42.9808 38.5401 42.668 39.8801 40.4541C39.7495 40.3392 39.6595 40.1852 39.6236 40.015C39.5876 39.8448 39.6077 39.6675 39.6808 39.5097C38.9265 38.8964 38.1629 38.2483 37.3902 37.5656L37.3933 37.5625ZM36.3047 42.1621C35.716 42.4687 34.7715 42.297 34.2042 41.7727C33.6369 41.2483 33.5909 40.5461 34.2042 40.2395C34.8175 39.9328 35.7374 40.1045 36.3078 40.632C36.8781 41.1594 36.8904 41.8585 36.3047 42.1682V42.1621Z" fill="#E0E0E0"/>
<path d="M35.9224 41.6556C35.9776 41.7046 36.0297 41.7506 36.0788 41.7997L35.9653 41.861L35.8089 41.72C35.6654 41.783 35.5081 41.8084 35.352 41.7936L35.2723 41.631C35.4034 41.6462 35.5362 41.6282 35.6587 41.5789L35.3796 41.3244C35.279 41.3658 35.1691 41.3796 35.0614 41.3646C34.9536 41.3495 34.8518 41.306 34.7663 41.2385C34.7288 41.2142 34.6985 41.1803 34.6786 41.1402C34.6588 41.1001 34.6501 41.0554 34.6536 41.0108C34.657 40.9662 34.6725 40.9233 34.6983 40.8868C34.724 40.8502 34.7592 40.8213 34.8001 40.8031L34.6406 40.659L34.7541 40.5977L34.9105 40.7387C35.0272 40.6875 35.1541 40.6633 35.2815 40.6682L35.3643 40.8276C35.26 40.8258 35.1562 40.8424 35.0577 40.8767L35.3428 41.1373C35.4427 41.0932 35.5529 41.0776 35.6612 41.0922C35.7694 41.1068 35.8715 41.1511 35.9561 41.2201C35.9928 41.245 36.0223 41.2792 36.0415 41.3191C36.0607 41.3591 36.0691 41.4034 36.0656 41.4476C36.0622 41.4919 36.0472 41.5344 36.022 41.5709C35.9968 41.6074 35.9625 41.6366 35.9224 41.6556ZM35.1987 41.1711L34.9473 40.9411C34.9308 40.9513 34.9172 40.9655 34.9077 40.9824C34.8983 40.9993 34.8933 41.0183 34.8933 41.0377C34.8933 41.057 34.8983 41.0761 34.9077 41.093C34.9172 41.1099 34.9308 41.1241 34.9473 41.1343C34.9841 41.158 35.0256 41.1736 35.069 41.1799C35.1124 41.1863 35.1566 41.1833 35.1987 41.1711ZM35.7813 41.3275C35.7422 41.301 35.6975 41.2838 35.6507 41.2775C35.6039 41.2711 35.5563 41.2756 35.5115 41.2907L35.7599 41.5176C35.858 41.4501 35.8549 41.3827 35.7936 41.3275H35.7813Z" fill="#E0E0E0"/>
<path d="M43.6003 85.451C42.4351 88.6768 38.3875 88.6125 37.0566 91.3477C35.8301 90.253 34.6035 89.2012 33.3984 88.2629C34.5667 85.037 38.6113 85.1014 39.9421 82.3662C41.1871 83.4609 42.4106 84.5035 43.6003 85.451Z" fill="#EBEBEB"/>
<path d="M40.5378 83.1846C40.3814 83.4697 39.9981 83.4697 39.716 83.2183C38.2625 85.1133 35.3127 85.4261 33.9727 87.64C34.1041 87.755 34.1948 87.9094 34.2312 88.0802C34.2677 88.2509 34.248 88.4289 34.175 88.5876C34.9263 89.2008 35.6898 89.857 36.4626 90.5317C36.6159 90.2465 37.0023 90.2465 37.2844 90.4979C38.7348 88.6029 41.6877 88.2871 43.0246 86.0762C42.894 85.9613 42.804 85.8073 42.7681 85.6371C42.7322 85.4669 42.7522 85.2896 42.8253 85.1317C42.0751 84.5185 41.3126 83.8704 40.5378 83.1876V83.1846ZM39.4492 87.7842C38.8636 88.0908 37.916 87.9191 37.3518 87.3947C36.7876 86.8704 36.7385 86.1682 37.3518 85.8615C37.9651 85.5549 38.885 85.7266 39.4523 86.254C40.0196 86.7815 40.0349 87.4806 39.4492 87.7903V87.7842Z" fill="#E0E0E0"/>
<path d="M39.0669 87.2776L39.2233 87.4217C39.1834 87.4401 39.1466 87.4616 39.1098 87.4831L38.9535 87.339C38.8093 87.4036 38.6509 87.43 38.4935 87.4156C38.469 87.3604 38.4414 87.3083 38.4168 87.2531C38.5479 87.268 38.6807 87.25 38.8032 87.201L38.5211 86.9465C38.4202 86.9874 38.3102 87.0008 38.2024 86.9852C38.0946 86.9695 37.9929 86.9255 37.9078 86.8575C37.871 86.833 37.8414 86.7992 37.8221 86.7594C37.8028 86.7197 37.7944 86.6755 37.7978 86.6315C37.8013 86.5874 37.8164 86.545 37.8416 86.5088C37.8669 86.4725 37.9014 86.4437 37.9415 86.4252L37.7852 86.281L37.8986 86.2197L38.055 86.3608C38.1709 86.31 38.2964 86.2849 38.423 86.2872C38.4506 86.3424 38.4812 86.3945 38.5088 86.4466C38.4043 86.4455 38.3004 86.4631 38.2022 86.4988L38.4843 86.7563C38.5849 86.715 38.6948 86.7011 38.8026 86.7162C38.9103 86.7313 39.0122 86.7748 39.0976 86.8422C39.1344 86.8669 39.164 86.9008 39.1835 86.9406C39.203 86.9804 39.2116 87.0246 39.2085 87.0688C39.2054 87.113 39.1907 87.1556 39.1658 87.1923C39.1409 87.2289 39.1068 87.2584 39.0669 87.2776ZM38.3524 86.7901L38.1041 86.5632C38.0182 86.6306 38.0274 86.6981 38.1041 86.7563C38.1408 86.7791 38.1818 86.7939 38.2246 86.7997C38.2674 86.8056 38.311 86.8023 38.3524 86.7901ZM38.9351 86.9495C38.8966 86.9216 38.8518 86.9037 38.8048 86.8972C38.7577 86.8908 38.7097 86.8961 38.6652 86.9127L38.9136 87.1396C38.9994 87.0722 38.9964 87.0047 38.9351 86.9495Z" fill="#E0E0E0"/>
<path d="M98.9359 53.5535L98.7826 53.6179C98.7673 53.5689 98.7489 53.5198 98.7305 53.4677L98.8807 53.4033C98.827 53.2446 98.8112 53.0755 98.8347 52.9096L99.0003 52.931C98.9797 53.0674 98.9891 53.2066 99.0279 53.3389L99.2947 53.2224C99.261 53.0046 99.2334 52.7655 99.4235 52.6857C99.5615 52.6244 99.7301 52.7103 99.8466 52.9924L99.9969 52.9249L100.052 53.0752L99.9018 53.1396C99.9442 53.2711 99.9609 53.4096 99.9509 53.5474L99.7884 53.529C99.7947 53.4195 99.7833 53.3098 99.7546 53.204L99.4848 53.3205C99.5185 53.5382 99.5523 53.7804 99.3652 53.8602C99.2272 53.9154 99.0586 53.8295 98.9359 53.5535ZM99.4603 53.1549L99.6994 53.0506C99.6381 52.928 99.5707 52.8912 99.5124 52.9188C99.4541 52.9464 99.4449 53.0384 99.4603 53.1549ZM99.2671 53.6271C99.3345 53.5995 99.3376 53.5045 99.3192 53.3849L99.0831 53.4891C99.1444 53.6149 99.2119 53.6517 99.2671 53.6271Z" fill="#E0E0E0"/>
<path d="M51.9722 49.8837C51.9906 49.9328 52.006 49.988 52.0244 50.0401L51.8833 50.0708C51.8649 50.0186 51.8496 49.9665 51.8342 49.9144C51.6813 49.9453 51.523 49.9369 51.3743 49.8898C51.3743 49.8377 51.3957 49.7856 51.4049 49.7304C51.5272 49.7719 51.6576 49.7835 51.7852 49.7641C51.7545 49.6721 51.7238 49.5771 51.6962 49.4851C51.4908 49.4851 51.27 49.4851 51.2056 49.2858C51.1627 49.1416 51.2516 48.9791 51.5123 48.9147C51.4969 48.8626 51.4785 48.8105 51.4632 48.7553L51.6043 48.7246C51.6043 48.7767 51.638 48.8289 51.6533 48.881C51.7778 48.8563 51.906 48.8563 52.0305 48.881C52.0305 48.9331 52.0305 48.9853 52.006 49.0374C51.9045 49.0202 51.8008 49.0202 51.6993 49.0374C51.7269 49.1324 51.7576 49.2244 51.7882 49.3195C51.9906 49.3195 52.2175 49.3195 52.2758 49.5096C52.3279 49.6476 52.2359 49.8132 51.9722 49.8837ZM51.6411 49.3164C51.6165 49.2336 51.5889 49.1478 51.5644 49.068C51.4448 49.1079 51.408 49.1692 51.4295 49.2306C51.4509 49.2919 51.5337 49.3134 51.6411 49.3164ZM52.0673 49.5679C52.0458 49.4973 51.9569 49.4851 51.8465 49.482C51.8741 49.5648 51.8986 49.6476 51.9262 49.7304C52.0611 49.6875 52.0857 49.6261 52.0612 49.5679H52.0673Z" fill="#E0E0E0"/>
<path d="M81.9178 41.0249L81.7859 41.126L81.7093 41.0065L81.838 40.9053C81.7576 40.7725 81.7112 40.6218 81.7031 40.4668L81.8626 40.4392C81.867 40.5681 81.9016 40.6941 81.9638 40.8071L82.1968 40.6293C82.1232 40.4392 82.0527 40.2276 82.2152 40.1019C82.3777 39.9762 82.5218 40.0436 82.669 40.2644L82.8009 40.1632L82.8775 40.2859L82.7488 40.384C82.8122 40.4947 82.8538 40.6164 82.8714 40.7427L82.715 40.7703C82.6997 40.67 82.6687 40.5727 82.623 40.4821L82.39 40.663C82.4636 40.8531 82.5402 41.0647 82.39 41.1874C82.2397 41.31 82.0834 41.2456 81.9178 41.0249ZM82.3348 40.5189L82.5433 40.3625C82.4636 40.2644 82.3931 40.2521 82.3409 40.2889C82.2888 40.3257 82.3011 40.4177 82.3348 40.5189ZM82.2459 41.0034C82.3011 40.9605 82.2857 40.8746 82.2459 40.7703L82.0404 40.9267C82.1263 41.0279 82.1937 41.0433 82.2459 41.0034Z" fill="#E0E0E0"/>
<path d="M91.5492 72.7071L91.3867 72.7347C91.3867 72.6856 91.3867 72.6366 91.3867 72.5906L91.5492 72.563C91.5424 72.4074 91.574 72.2526 91.6412 72.1122L91.7946 72.1674C91.736 72.2812 91.7055 72.4074 91.7056 72.5354L91.9969 72.4894C92.0215 72.287 92.0613 72.0693 92.2637 72.0356C92.4109 72.011 92.5458 72.1214 92.5857 72.3943L92.7482 72.3698V72.5139L92.5887 72.5384C92.5931 72.666 92.5723 72.7931 92.5274 72.9125L92.3741 72.8635C92.4113 72.7654 92.431 72.6617 92.4324 72.5568L92.1411 72.6059C92.1135 72.8083 92.0828 73.0291 91.8804 73.0628C91.7302 73.0904 91.5922 72.98 91.5492 72.7071ZM92.1625 72.4618L92.4201 72.4189C92.3956 72.2962 92.3404 72.2533 92.276 72.2625C92.2116 72.2717 92.1779 72.3545 92.1595 72.4618H92.1625ZM91.8559 72.8451C91.9264 72.8451 91.954 72.75 91.9724 72.6396L91.7148 72.6795C91.7332 72.8114 91.7853 72.8543 91.8467 72.8451H91.8559Z" fill="#E0E0E0"/>
<path d="M55.7179 47.8301C52.7834 46.1866 50.0972 42.6418 47.7852 41.8783C48.516 40.3611 49.3725 38.9077 50.3456 37.5332C52.6576 39.7747 55.3438 43.715 58.2783 43.482C57.5455 44.9991 56.6892 46.4534 55.7179 47.8301Z" fill="#00C7FF"/>
<path opacity="0.2" d="M57.584 44.4201C57.2774 44.3833 57.1762 44.046 57.3663 43.7087C54.999 43.1997 52.8035 40.3357 50.8533 38.3701C50.8055 38.4301 50.7453 38.4791 50.6768 38.5135C50.6082 38.548 50.5331 38.5672 50.4564 38.5699C50.3797 38.5725 50.3034 38.5585 50.2327 38.5287C50.162 38.499 50.0986 38.4543 50.0468 38.3977C49.4696 39.2457 48.9364 40.1229 48.4492 41.0256C48.5769 41.1342 48.6592 41.2869 48.6796 41.4533C48.7001 41.6197 48.6572 41.7878 48.5596 41.9241C50.5129 42.9666 52.7054 45.6037 55.0757 47.1891C55.1897 47.0644 55.3417 46.9809 55.508 46.9515C55.6744 46.9221 55.8458 46.9485 55.9956 47.0265C56.5712 46.1844 57.1034 45.3134 57.5901 44.417L57.584 44.4201ZM52.0829 43.7179C51.5003 43.1752 51.3654 42.338 51.7579 41.8474C52.1504 41.3568 52.9262 41.4549 53.5088 42.0161C54.0914 42.5772 54.257 43.3775 53.8645 43.8559C53.472 44.3342 52.6778 44.2668 52.0829 43.7179Z" fill="black"/>
<g opacity="0.2">
<path d="M52.5256 43.412L52.4213 43.5377L52.3048 43.4304C52.3416 43.3874 52.3754 43.3445 52.4121 43.3047C52.2922 43.1863 52.2018 43.0413 52.1484 42.8815L52.3079 42.8263C52.3487 42.9588 52.4189 43.0804 52.5133 43.182L52.7004 42.9551C52.5716 42.7772 52.4397 42.5749 52.5716 42.4185C52.7035 42.2621 52.8568 42.305 53.0868 42.4982C53.1235 42.4583 53.1573 42.4154 53.1941 42.3725L53.3075 42.4829L53.2033 42.6086C53.2998 42.7055 53.3768 42.82 53.4302 42.9459L53.2769 43.0072C53.234 42.9054 53.175 42.8112 53.1021 42.7282L52.912 42.9551C53.0408 43.1329 53.1787 43.3353 53.0469 43.4917C52.915 43.6481 52.7617 43.6144 52.5256 43.412ZM52.8322 42.8202L52.9978 42.6209C52.8905 42.5381 52.8138 42.5381 52.774 42.5871C52.7341 42.6362 52.7525 42.7343 52.8169 42.8324L52.8322 42.8202ZM52.8752 43.3292C52.9212 43.274 52.8752 43.1912 52.8108 43.09L52.6452 43.2893C52.7433 43.3874 52.8169 43.3905 52.8598 43.3415L52.8752 43.3292Z" fill="black"/>
</g>
<path d="M80.8858 60.8067C78.1874 62.2601 74.103 62.4441 72.3981 63.8884C71.5425 62.4361 70.7983 60.9211 70.1719 59.3563C73.0512 58.743 77.4515 58.7829 78.6596 56.2715C79.5147 57.7251 80.2589 59.2411 80.8858 60.8067Z" fill="#00C7FF"/>
<path opacity="0.2" d="M79.0669 57.385C78.889 57.618 78.5762 57.5046 78.4014 57.1611C76.8682 58.7925 73.5688 58.9703 71.0728 59.4364C71.0998 59.5039 71.1117 59.5766 71.1076 59.6493C71.1035 59.7219 71.0835 59.7928 71.049 59.8568C71.0145 59.9209 70.9663 59.9766 70.9079 60.02C70.8495 60.0634 70.7822 60.0934 70.7109 60.1079C71.0789 60.9788 71.5082 61.8926 72.0356 62.8677C72.2748 62.7481 72.6213 62.9352 72.8022 63.2878C74.5562 62.2912 77.6808 61.9907 80.0726 60.9696C80.0274 60.8161 80.0328 60.6521 80.088 60.5019C80.1432 60.3516 80.2454 60.2232 80.3793 60.1355C80.0144 59.2677 79.5881 58.357 79.0669 57.3758V57.385ZM75.9023 61.4418C75.5799 61.5308 75.2361 61.4997 74.9348 61.3542C74.6336 61.2086 74.3956 60.9586 74.2649 60.6507C74.0594 60.0558 74.5071 59.4855 75.2308 59.3291C75.9545 59.1727 76.6659 59.4885 76.859 60.0773C77.0522 60.666 76.6137 61.2793 75.9023 61.4418Z" fill="black"/>
<g opacity="0.2">
<path d="M75.8797 60.9148C75.8981 60.9669 75.9135 61.0191 75.9288 61.0712L75.7877 61.1049C75.7877 61.0528 75.754 61.0007 75.7387 60.9486C75.5856 60.9776 75.4278 60.9692 75.2787 60.924C75.2787 60.8688 75.3002 60.8167 75.3125 60.7646C75.4336 60.8064 75.5633 60.817 75.6896 60.7952C75.662 60.7032 75.6314 60.6112 75.6007 60.5162C75.3983 60.5162 75.1745 60.5162 75.1131 60.3169C75.0671 60.1758 75.1561 60.0256 75.4198 59.9458C75.4014 59.8937 75.386 59.8416 75.3676 59.7895L75.5118 59.7588C75.5118 59.8109 75.5424 59.863 75.5608 59.9152C75.6852 59.8891 75.8136 59.8891 75.938 59.9152L75.9104 60.0716C75.8089 60.0544 75.7053 60.0544 75.6038 60.0716C75.6344 60.1636 75.6651 60.2586 75.6927 60.3537C75.8981 60.3537 76.122 60.3537 76.1833 60.5438C76.2354 60.6787 76.1434 60.832 75.8797 60.9148ZM75.5486 60.3475C75.521 60.2647 75.4964 60.182 75.4688 60.0992C75.3523 60.1421 75.3155 60.2034 75.3339 60.2647C75.3523 60.3261 75.4412 60.3445 75.5486 60.3475ZM75.9717 60.599C75.9503 60.5315 75.8644 60.5162 75.754 60.5162C75.7785 60.599 75.8061 60.6818 75.8307 60.7615C75.9533 60.7186 75.9779 60.6603 75.9779 60.599H75.9717Z" fill="black"/>
</g>
<path d="M102.943 41.4856C99.7597 42.5588 96.6289 43.8866 94.2586 45.9564C93.4184 44.7115 92.5537 43.445 91.7656 42.1173C94.4181 40.0904 97.512 38.8117 100.45 37.6465C101.29 38.8914 102.155 40.1579 102.943 41.4856Z" fill="#00C7FF"/>
<path opacity="0.2" d="M100.696 38.4412C100.534 38.5011 100.356 38.5062 100.19 38.4559C100.024 38.4055 99.8786 38.3024 99.7765 38.1621C97.3418 39.1464 94.8396 40.235 92.6072 41.7958C92.6905 41.9469 92.7167 42.1228 92.6813 42.2916C92.6458 42.4604 92.551 42.6109 92.4141 42.7157C92.917 43.5283 93.4413 44.3194 93.9657 45.1014C94.0254 45.0501 94.0954 45.0124 94.1711 44.9908C94.2467 44.9692 94.3261 44.9642 94.4039 44.9761C94.4817 44.9881 94.5559 45.0167 94.6216 45.06C94.6873 45.1033 94.7428 45.1603 94.7844 45.2271C96.8511 43.6326 99.384 42.5103 101.96 41.5811C101.918 41.515 101.892 41.4398 101.884 41.3618C101.876 41.2837 101.887 41.2049 101.915 41.1317C101.944 41.0586 101.989 40.9932 102.047 40.9407C102.105 40.8883 102.175 40.8503 102.251 40.8299C101.748 40.0203 101.221 39.2292 100.699 38.4473L100.696 38.4412ZM97.7036 42.4735C97.4004 42.6349 97.0485 42.6791 96.7148 42.5977C96.3811 42.5162 96.0891 42.3148 95.8944 42.0319C95.8098 41.8908 95.756 41.7333 95.7366 41.5699C95.7172 41.4065 95.7326 41.2409 95.7819 41.0839C95.8311 40.9268 95.9131 40.782 96.0223 40.659C96.1316 40.5359 96.2656 40.4374 96.4157 40.3699C96.7301 40.215 97.09 40.1796 97.4286 40.2704C97.7671 40.3613 98.061 40.5721 98.2555 40.8636C98.3378 41.0029 98.3889 41.1583 98.4053 41.3192C98.4217 41.4802 98.403 41.6427 98.3505 41.7957C98.2981 41.9487 98.2131 42.0885 98.1014 42.2055C97.9897 42.3225 97.854 42.4139 97.7036 42.4735Z" fill="black"/>
<g opacity="0.2">
<path d="M97.5262 41.9215L97.6213 42.0779L97.4925 42.1392L97.3974 41.9859C97.2568 42.0514 97.1011 42.0779 96.9467 42.0626C96.9467 42.0043 96.9467 41.943 96.9313 41.8847C97.0582 41.901 97.1871 41.8841 97.3054 41.8357C97.2502 41.7406 97.192 41.6486 97.1337 41.5566C96.9375 41.6057 96.7228 41.6486 96.6063 41.4554C96.5174 41.3144 96.5572 41.1304 96.7872 40.9893L96.6891 40.8299L96.8179 40.7686L96.9129 40.9219C97.029 40.872 97.1547 40.849 97.2809 40.8544C97.2809 40.9096 97.2962 40.9679 97.3054 41.0261C97.2012 41.0222 97.0973 41.0378 96.9988 41.0721L97.1705 41.3542C97.3668 41.3082 97.5875 41.2653 97.7071 41.4585C97.7991 41.5995 97.7531 41.7774 97.5262 41.9215ZM97.0325 41.388L96.8792 41.1396C96.778 41.2101 96.7627 41.2837 96.7995 41.345C96.8363 41.4064 96.9252 41.4094 97.0325 41.388ZM97.5201 41.5658C97.4771 41.4984 97.3882 41.5014 97.2809 41.5229L97.4312 41.7682C97.5354 41.6977 97.5569 41.6271 97.5201 41.572V41.5658Z" fill="black"/>
</g>
<path d="M46.905 74.1764C44.5868 71.7601 40.8182 71.987 38.5 69.5768C39.2298 68.244 39.9606 66.9101 40.6925 65.5752C43.0107 67.9915 46.7793 67.7677 49.0975 70.1748C48.3677 71.5097 47.6368 72.8436 46.905 74.1764Z" fill="#00C7FF"/>
<path opacity="0.2" d="M48.5067 70.752C48.3778 70.6325 48.2904 70.4749 48.2573 70.3023C48.2242 70.1296 48.2471 69.9509 48.3227 69.7922C46.2253 68.167 43.3307 67.9984 41.2333 66.3701C41.2004 66.4406 41.1508 66.502 41.0889 66.549C41.027 66.596 40.9545 66.6272 40.8778 66.6399C40.8011 66.6525 40.7224 66.6463 40.6486 66.6218C40.5749 66.5972 40.5082 66.555 40.4544 66.4989L39.0898 68.9949C39.2176 69.1146 39.304 69.2718 39.3365 69.4438C39.369 69.6158 39.346 69.7936 39.2708 69.9517C41.3682 71.5799 44.2628 71.7486 46.3603 73.3768C46.3928 73.3061 46.4421 73.2445 46.5039 73.1971C46.5657 73.1498 46.6381 73.1183 46.7149 73.1053C46.7916 73.0923 46.8704 73.0983 46.9443 73.1226C47.0182 73.1469 47.0851 73.1889 47.1391 73.245L48.5037 70.752H48.5067ZM43.1712 70.9053C43.0184 70.856 42.8786 70.7728 42.7623 70.6621C42.646 70.5514 42.5561 70.4159 42.4992 70.2657C42.4424 70.1155 42.4201 69.9544 42.4339 69.7944C42.4478 69.6344 42.4975 69.4796 42.5794 69.3415C42.7602 69.0389 43.0397 68.8078 43.3709 68.6871C43.7021 68.5665 44.0647 68.5637 44.3978 68.6791C44.5507 68.7274 44.6907 68.8095 44.8074 68.9195C44.9241 69.0295 45.0144 69.1644 45.0716 69.3142C45.1288 69.464 45.1514 69.6248 45.1378 69.7846C45.1241 69.9443 45.0745 70.0989 44.9926 70.2368C44.8127 70.5412 44.5331 70.774 44.2011 70.8958C43.8692 71.0177 43.5053 71.021 43.1712 70.9053Z" fill="black"/>
<g opacity="0.2">
<path d="M43.5858 70.4292C43.5582 70.4844 43.5275 70.5396 43.4969 70.5948L43.365 70.5457L43.4539 70.3832C43.3199 70.3328 43.2059 70.2402 43.1289 70.1195L43.2822 69.9969C43.3442 70.0971 43.435 70.1762 43.5429 70.2238C43.595 70.1256 43.6502 70.0275 43.7054 69.9171C43.549 69.8129 43.3988 69.6902 43.4999 69.4848C43.5553 69.3989 43.6389 69.3351 43.7363 69.3043C43.8337 69.2735 43.9388 69.2777 44.0335 69.3161L44.1255 69.1475L44.2573 69.1965L44.1653 69.359C44.275 69.4014 44.3706 69.4736 44.4413 69.5676L44.2941 69.6902C44.2358 69.6181 44.1626 69.5595 44.0795 69.5185L43.917 69.8251C44.0734 69.9294 44.2236 70.052 44.1255 70.2575C44.0691 70.3439 43.9846 70.4082 43.8862 70.4395C43.7879 70.4708 43.6818 70.4672 43.5858 70.4292ZM43.8004 69.7515L43.9446 69.4878C43.8219 69.4633 43.7452 69.4878 43.7115 69.5645C43.6778 69.6412 43.7238 69.6902 43.8004 69.7515ZM43.9139 70.1992C43.9538 70.1256 43.9139 70.0674 43.8188 70.0061L43.6747 70.2667C43.8004 70.2943 43.8771 70.2606 43.9139 70.1992Z" fill="black"/>
</g>
<path d="M122.755 61.8838C120.565 64.527 116.794 63.1103 114.604 65.2231C113.804 63.7727 113.003 62.3775 112.203 61.0834C114.393 58.4402 118.164 59.8569 120.354 57.7441C121.154 59.1945 121.954 60.5836 122.755 61.8838Z" fill="#00C7FF"/>
<path opacity="0.2" d="M120.633 58.7162C120.391 58.9339 120.02 58.802 119.848 58.4678C117.84 59.7618 114.958 59.0596 112.952 60.6909C113.036 60.844 113.068 61.0198 113.044 61.1925C113.02 61.3652 112.942 61.5258 112.82 61.6507C113.317 62.4878 113.817 63.3587 114.317 64.2541C114.559 64.0363 114.93 64.1682 115.102 64.4994C117.107 63.2053 119.99 63.9075 121.998 62.2793C121.914 62.127 121.881 61.9515 121.905 61.779C121.929 61.6066 122.008 61.4465 122.13 61.3226C121.63 60.4885 121.13 59.6146 120.633 58.7192V58.7162ZM118.055 62.6841C117.398 62.773 116.58 62.2977 116.215 61.6078C115.85 60.9178 116.068 60.2463 116.721 60.1543C117.374 60.0623 118.199 60.5437 118.561 61.2337C118.922 61.9236 118.711 62.5921 118.055 62.6841Z" fill="black"/>
<g opacity="0.2">
<path d="M117.866 62.0736L117.964 62.2607L117.839 62.2791L117.737 62.092C117.581 62.1051 117.423 62.0765 117.281 62.0092L117.262 61.8283C117.38 61.8872 117.511 61.9156 117.642 61.9111L117.468 61.5769C117.36 61.5803 117.254 61.5555 117.159 61.5049C117.065 61.4543 116.985 61.3797 116.928 61.2886C116.902 61.2532 116.885 61.2113 116.88 61.1674C116.876 61.1234 116.883 61.079 116.901 61.0387C116.919 60.9984 116.947 60.9636 116.983 60.938C117.02 60.9124 117.062 60.8969 117.106 60.8931L117.005 60.703L117.133 60.6846L117.231 60.8716C117.359 60.8626 117.486 60.8814 117.606 60.9268C117.606 60.9881 117.621 61.0464 117.63 61.1047C117.532 61.0679 117.428 61.0502 117.323 61.0525L117.504 61.3898C117.611 61.3861 117.718 61.4105 117.812 61.4605C117.907 61.5105 117.987 61.5845 118.044 61.675C118.07 61.7108 118.086 61.7528 118.091 61.7969C118.096 61.8409 118.089 61.8854 118.071 61.9259C118.053 61.9664 118.024 62.0013 117.988 62.0273C117.952 62.0532 117.91 62.0692 117.866 62.0736ZM117.376 61.3745L117.216 61.0679C117.115 61.1047 117.1 61.1721 117.139 61.2457C117.165 61.285 117.2 61.3172 117.241 61.3397C117.283 61.3622 117.329 61.3741 117.376 61.3745ZM117.872 61.7179C117.844 61.6797 117.808 61.6485 117.766 61.6266C117.724 61.6048 117.677 61.593 117.63 61.5922L117.786 61.8989C117.875 61.8559 117.894 61.7915 117.857 61.7179H117.872Z" fill="black"/>
</g>
<path d="M120.283 110.86H119.781L119.639 110.239L117.987 110.989H113.762C113.762 110.989 113.101 110.328 115.083 109.78C115.182 109.753 115.277 109.716 115.368 109.671C116.441 109.168 117.964 107.474 117.964 107.474H120.277C120.346 107.58 120.409 107.69 120.465 107.804C120.733 108.316 121.169 109.383 120.283 110.86Z" fill="#263238"/>
<path d="M120.476 107.801C120.172 107.471 118.782 108.954 117.764 109.453C116.856 109.906 115.835 110.114 115.379 109.648C116.453 109.146 118.134 106.952 118.134 106.952H119.994C119.994 106.952 120.367 107.59 120.476 107.801Z" fill="#FFB7AD"/>
<path d="M125.023 50.9785C125.023 50.9785 122.45 68.5802 122.119 77.3447C121.789 86.5486 119.189 100.926 117.719 106.704C118.165 107.094 119.922 107.794 120.97 107.678C120.97 107.678 129.11 90.4997 128.036 79.3962C134.835 59.2442 132.152 51.256 132.152 51.256L125.023 50.9785Z" fill="#462EC9"/>
<path opacity="0.2" d="M129.894 73.0367C130.905 69.7 131.635 66.8094 132.151 64.3317C131.639 62.3924 130.912 60.734 129.924 59.7363C129.924 59.7363 128.507 65.1377 129.894 73.0367Z" fill="black"/>
<path d="M136.032 110.86H135.53L135.388 110.239L133.736 110.989H129.524C129.524 110.989 128.863 110.328 130.845 109.78C130.943 109.753 131.038 109.716 131.129 109.671C132.203 109.168 133.726 107.474 133.726 107.474H136.038C136.108 107.58 136.171 107.69 136.227 107.804C136.494 108.316 136.93 109.383 136.032 110.86Z" fill="#263238"/>
<path d="M136.242 107.801C135.938 107.471 134.547 108.954 133.53 109.453C132.621 109.906 131.6 110.114 131.145 109.648C132.218 109.146 133.9 106.952 133.9 106.952H135.76C135.76 106.952 136.133 107.59 136.242 107.801Z" fill="#FFB7AD"/>
<path d="M128.234 50.6484C128.234 50.6484 130.563 68.6598 131.898 77.3285C133.299 86.4299 133.477 101.039 133.127 106.992C133.636 107.289 135.496 107.652 136.5 107.322C136.5 107.322 141.247 88.9109 138.092 78.2171C140.963 57.1533 136.811 51.9963 136.811 51.9963L128.234 50.6484Z" fill="#462EC9"/>
<path d="M113.284 32.3731C112.891 32.2343 112.392 32.5185 112.178 33.0008L111.712 34.0646C111.614 34.2353 111.582 34.4362 111.623 34.6289C111.664 34.8215 111.774 34.9923 111.933 35.1085L112.862 35.6371C112.862 35.6371 114.312 36.9585 115.263 36.017L116.142 35.1581C116.142 35.1581 115.382 33.3873 114.566 32.8224C114.156 32.6281 113.726 32.4775 113.284 32.3731Z" fill="#FFB7AD"/>
<path d="M114.7 32.8088C115.001 32.0192 114.416 31.1305 115.139 30.9521C115.139 30.9521 115.45 32.3331 115.635 33.5455C115.698 33.8801 115.682 34.2249 115.589 34.5523C115.495 34.8798 115.327 35.1809 115.096 35.4319C114.805 35.0684 114.615 34.6343 114.545 34.1737C114.476 33.713 114.529 33.2421 114.7 32.8088Z" fill="#FFB7AD"/>
<path d="M114.23 36.3105C114.23 36.3105 118.102 47.3545 120.567 46.4394C121.931 45.9339 126.229 40.6382 126.229 40.6382L127.2 33.5289C125.45 33.4529 120.412 41.4377 120.412 41.4377L116.117 35.1608L114.23 36.3105Z" fill="#583AFB"/>
<path opacity="0.2" d="M132.225 48.8376C133.01 47.5673 133.68 46.2295 134.227 44.8402V44.7973L132.78 43.3271C131.904 45.0274 131.706 46.9968 132.225 48.8376Z" fill="black"/>
<path opacity="0.7" d="M129.008 39.3004C131.348 37.1906 133.943 35.3816 136.732 33.9155C136.477 33.8858 136.216 33.8594 135.955 33.8395C134.185 33.6522 132.403 33.5915 130.623 33.6578C130.181 33.6843 129.728 33.7206 129.285 33.7569C128.182 36.2875 129.008 39.3004 129.008 39.3004Z" fill="white"/>
<path d="M136.731 50.6488C136.976 47.9134 137.954 42.9084 139.638 37.6491C140.183 35.9378 139.255 34.0151 139.255 34.0151C139.255 34.0151 136.962 33.9556 136.731 33.9292C136.5 33.9028 136.216 33.873 135.955 33.8532C134.184 33.6659 132.402 33.6051 130.623 33.6715C130.18 33.6979 129.728 33.7343 129.285 33.7706C129.139 33.7706 127.527 33.8004 127.389 33.8136C127.389 33.8136 125.159 36.3673 125.02 38.4386C124.855 40.0286 124.794 41.6277 124.838 43.2256C124.838 45.102 124.984 47.5764 125.109 50.2127L136.731 50.6488Z" fill="#407BFF"/>
<path opacity="0.8" d="M136.731 50.6488C136.976 47.9134 137.954 42.9084 139.638 37.6491C140.183 35.9378 139.255 34.0151 139.255 34.0151C139.255 34.0151 136.962 33.9556 136.731 33.9292C136.5 33.9028 136.216 33.873 135.955 33.8532C134.184 33.6659 132.402 33.6051 130.623 33.6715C130.18 33.6979 129.728 33.7343 129.285 33.7706C129.139 33.7706 127.527 33.8004 127.389 33.8136C127.389 33.8136 125.159 36.3673 125.02 38.4386C124.855 40.0286 124.794 41.6277 124.838 43.2256C124.838 45.102 124.984 47.5764 125.109 50.2127L136.731 50.6488Z" fill="white"/>
<path d="M136.626 50.8339L125.109 50.1963V51.2898L136.731 51.9076L136.626 50.8339Z" fill="black"/>
<path d="M130.363 51.4384L130.416 50.7975C130.419 50.7389 130.4 50.6813 130.362 50.6368C130.323 50.5924 130.269 50.5647 130.211 50.5596L128.949 50.4638C128.919 50.461 128.888 50.4646 128.859 50.4743C128.83 50.484 128.804 50.4997 128.782 50.5202C128.759 50.5407 128.741 50.5657 128.729 50.5935C128.717 50.6214 128.711 50.6515 128.711 50.6818V51.3426C128.711 51.399 128.732 51.4534 128.771 51.4946C128.81 51.5357 128.863 51.5605 128.919 51.5639L130.132 51.63C130.187 51.633 130.242 51.6149 130.285 51.5794C130.327 51.5439 130.355 51.4935 130.363 51.4384Z" stroke="white" stroke-width="0.5" stroke-miterlimit="10"/>
<path d="M138.732 44.6425C138.072 47.107 137.47 49.2676 137.47 49.2676L139.813 57.9165L135.789 58.6465C135.789 58.6465 133.357 47.662 133.532 42.0624C133.708 36.4628 136.354 33.5391 136.354 33.5391L139.258 34.0082C139.258 34.0082 140.487 36.2381 140.411 37.619C140.356 38.1058 140.268 38.5881 140.146 39.0627C140.021 39.6309 139.856 40.3148 139.667 41.0449C139.558 41.4743 139.446 41.9236 139.337 42.3663C139.132 43.1229 138.931 43.8959 138.732 44.6425Z" fill="#583AFB"/>
<path d="M129.72 33.5292C129.72 33.5292 127.196 37.9263 126.614 41.1771C126.033 44.4278 124.431 58.2469 124.431 58.2469L123.559 57.8108L124.771 49.5518C124.771 49.5518 124.335 39.9911 124.675 38.0287C125.015 36.0664 127.212 33.5127 127.212 33.5127L129.72 33.5292Z" fill="#583AFB"/>
<path d="M130.968 33.3213L130.796 33.166C130.796 33.166 128.335 33.4666 126.082 36.2846L126.954 37.1403L125.461 38.3395L126.171 44.134C126.171 44.134 128.444 36.4102 129.429 34.5535C129.88 34.0712 130.399 33.6562 130.968 33.3213Z" fill="#407BFF"/>
<path d="M130.968 33.3208L130.796 33.1787C130.796 33.1787 128.335 33.4661 126.082 36.2841L126.954 37.1397L125.461 38.339L126.171 44.1335C126.171 44.1335 128.444 36.4096 129.429 34.553C129.88 34.0707 130.399 33.6557 130.968 33.3208Z" fill="#00C7FF"/>
<path d="M135.787 33.5286C135.787 33.5286 132.975 36.6307 133.603 44.7609L136.362 38.9201L135.371 37.3212L137.7 35.1375C137.7 35.1375 136.477 32.825 135.615 33.0529L135.787 33.5286Z" fill="#407BFF"/>
<path d="M135.787 33.5286C135.787 33.5286 132.975 36.6307 133.603 44.7609L136.362 38.9201L135.371 37.3212L137.7 35.1375C137.7 35.1375 136.477 32.825 135.615 33.0529L135.787 33.5286Z" fill="#00C7FF"/>
<path d="M129.938 34.411L130.598 38.273L135.676 33.8296C134.602 32.6436 135.279 29.5349 135.801 27.8203L134.361 28.8973L132.21 30.4962C132.25 30.9395 132.215 31.3864 132.105 31.8177C131.943 32.4982 131.652 33.1391 131.335 33.2746L129.938 34.411Z" fill="#FFB7AD"/>
<path opacity="0.2" d="M132.105 31.8175C132.961 31.6259 134.088 30.7438 134.259 29.8717C134.328 29.5526 134.358 29.2265 134.349 28.9004L132.211 30.496C132.251 30.9393 132.215 31.3862 132.105 31.8175Z" fill="black"/>
<path d="M135.413 32.8516C135.413 32.8516 133.239 34.5331 130.689 38.0713C130.689 38.0713 130.461 34.5364 131.349 33.2711L131.168 33.0531C129.837 33.6392 128.679 34.5572 127.805 35.7191L129.49 35.1872L130.639 38.3025L134.108 35.4416L136.44 35.8446C136.44 35.8446 136.312 33.542 135.413 32.8516Z" fill="#407BFF"/>
<path opacity="0.7" d="M135.413 32.8516C135.413 32.8516 133.239 34.5331 130.689 38.0713C130.689 38.0713 130.461 34.5364 131.349 33.2711L131.168 33.0531C129.837 33.6392 128.679 34.5572 127.805 35.7191L129.49 35.1872L130.639 38.3025L134.108 35.4416L136.44 35.8446C136.44 35.8446 136.312 33.542 135.413 32.8516Z" fill="white"/>
<path opacity="0.2" d="M140.147 39.0525C140.021 39.6207 139.856 40.3046 139.668 41.0347C139.559 41.4641 139.446 41.9134 139.337 42.3561C137.808 39.6703 138.624 37.4238 138.624 37.4238C138.624 37.4238 139.436 38.2662 140.147 39.0525Z" fill="black"/>
<path d="M139.258 34.0014C140.828 33.671 147.339 43.3936 146.388 46.6212C145.644 49.1352 140.283 54.2426 140.283 54.2426L139.338 51.4841L142.476 45.1907L139.668 41.0381C138.914 39.9941 138.542 38.7228 138.614 37.4371C138.68 36.2689 138.897 35.1141 139.258 34.0014Z" fill="#583AFB"/>
<path d="M137.754 51.21L140.066 52.1218L140.397 53.7472C140.047 55.0058 137.635 54.2229 137.635 54.2229L137.096 54.4905C136.996 54.5413 136.885 54.5667 136.772 54.5642C136.66 54.5617 136.55 54.5315 136.452 54.4763C136.354 54.4211 136.271 54.3426 136.21 54.2476C136.15 54.1527 136.114 54.0444 136.105 53.9322L135.986 52.4158C135.977 52.2921 136.001 52.1681 136.056 52.057C136.112 51.9459 136.196 51.8519 136.3 51.7848L137.113 51.2695C137.207 51.2074 137.314 51.1695 137.426 51.1592C137.538 51.1488 137.65 51.1662 137.754 51.21Z" fill="#FFB7AD"/>
<path d="M131.156 20.4136C129.913 21.1965 128.282 23.8163 130.244 27.1562C132.206 30.4962 136.851 30.2616 138.774 26.3105C140.696 22.3594 136.194 17.2388 131.156 20.4136Z" fill="#263238"/>
<path d="M137.166 24.7343C136.594 27.4103 136.409 28.5533 134.853 29.8054C132.498 31.6918 129.349 30.5884 129.115 27.8397C128.9 25.3653 129.868 21.401 132.66 20.5718C133.254 20.3772 133.889 20.3448 134.5 20.4781C135.111 20.6113 135.676 20.9053 136.135 21.3296C136.594 21.754 136.932 22.2933 137.113 22.8918C137.295 23.4904 137.313 24.1265 137.166 24.7343Z" fill="#FFB7AD"/>
<path d="M133.389 19.2641C131.406 19.5284 128.744 21.7451 131.337 21.9466C131.423 22.7626 132.916 22.6338 133.96 22.1019C133.861 22.7131 134.974 23.8066 136.302 23.3176C135.559 23.8165 135.688 25.8647 136.633 25.8978C137.578 25.9308 139.639 26.281 139.011 22.9542C138.384 19.6275 135.49 18.9635 133.389 19.2641Z" fill="#263238"/>
<path d="M133.722 25.0979C133.686 25.3259 133.537 25.4977 133.392 25.4844C133.246 25.4712 133.157 25.273 133.197 25.0484C133.237 24.8237 133.385 24.6486 133.527 24.6618C133.669 24.675 133.759 24.8799 133.722 25.0979Z" fill="#263238"/>
<path d="M130.897 24.7347C130.857 24.9626 130.708 25.1344 130.566 25.1179C130.424 25.1014 130.335 24.9097 130.371 24.6818C130.408 24.4538 130.56 24.2854 130.702 24.2986C130.844 24.3118 130.933 24.5067 130.897 24.7347Z" fill="#263238"/>
<path d="M130.748 24.3189L130.242 24.1074C130.242 24.1074 130.457 24.5501 130.748 24.3189Z" fill="#263238"/>
<path d="M131.678 25.3164C131.392 25.816 131.044 26.2768 130.641 26.6874C130.743 26.7814 130.866 26.851 130.999 26.891C131.132 26.931 131.273 26.9405 131.41 26.9187L131.678 25.3164Z" fill="#EA9F79"/>
<path d="M132.547 27.8799C132.422 27.8915 132.296 27.8915 132.17 27.8799C132.162 27.8792 132.153 27.8766 132.146 27.8724C132.138 27.8683 132.132 27.8626 132.126 27.8558C132.121 27.849 132.117 27.8412 132.115 27.8328C132.113 27.8245 132.113 27.8158 132.114 27.8073C132.117 27.7898 132.127 27.7741 132.141 27.7631C132.155 27.7521 132.172 27.7467 132.19 27.7478C132.475 27.7773 132.763 27.7422 133.032 27.6449C133.302 27.5477 133.546 27.3909 133.746 27.1862C133.759 27.1739 133.776 27.167 133.794 27.167C133.812 27.167 133.829 27.1739 133.842 27.1862C133.854 27.1985 133.861 27.2151 133.861 27.2324C133.861 27.2497 133.854 27.2663 133.842 27.2787C133.499 27.6312 133.038 27.8452 132.547 27.8799Z" fill="#263238"/>
<path d="M134.382 23.7176C134.364 23.7175 134.347 23.714 134.331 23.7072C134.315 23.7004 134.301 23.6904 134.289 23.6779C134.186 23.5522 134.053 23.4539 133.903 23.3917C133.752 23.3295 133.589 23.3053 133.427 23.3212C133.41 23.3245 133.393 23.3242 133.376 23.3204C133.359 23.3166 133.344 23.3093 133.33 23.299C133.316 23.2887 133.305 23.2757 133.297 23.2607C133.288 23.2458 133.283 23.2292 133.282 23.2121C133.279 23.1762 133.29 23.1407 133.312 23.1122C133.334 23.0836 133.365 23.064 133.4 23.0569C133.605 23.032 133.813 23.0588 134.004 23.135C134.196 23.2112 134.366 23.3343 134.497 23.4929C134.519 23.5207 134.529 23.5559 134.526 23.5911C134.522 23.6263 134.505 23.6587 134.477 23.6812C134.451 23.7051 134.417 23.7181 134.382 23.7176Z" fill="#263238"/>
<path d="M129.983 23.1295C129.957 23.1315 129.931 23.1258 129.909 23.113C129.886 23.1002 129.868 23.0811 129.857 23.0579C129.846 23.0348 129.841 23.0088 129.845 22.9833C129.849 22.9578 129.86 22.9339 129.877 22.9148C130.008 22.7431 130.176 22.6035 130.369 22.5068C130.562 22.41 130.774 22.3586 130.99 22.3564C131.007 22.3576 131.024 22.3623 131.039 22.3702C131.054 22.3782 131.067 22.3892 131.078 22.4026C131.088 22.416 131.096 22.4314 131.1 22.4479C131.105 22.4645 131.105 22.4817 131.103 22.4985C131.098 22.5341 131.08 22.5666 131.052 22.5898C131.025 22.613 130.99 22.6252 130.954 22.624C130.783 22.628 130.615 22.6707 130.462 22.7491C130.31 22.8275 130.178 22.9395 130.075 23.0766C130.052 23.1051 130.019 23.1239 129.983 23.1295Z" fill="#263238"/>
<path d="M133.584 24.6821L133.078 24.4707C133.078 24.4707 133.28 24.9233 133.584 24.6821Z" fill="#263238"/>
<path d="M137.722 27.0377C137.551 27.2694 137.336 27.465 137.09 27.6135C136.843 27.7621 136.57 27.8605 136.285 27.9033C135.548 27.9991 135.327 27.2426 135.657 26.5653C135.954 25.9475 136.695 25.1481 137.375 25.3727C138.056 25.5974 138.165 26.4464 137.722 27.0377Z" fill="#FFB7AD"/>
<path d="M138.048 24.097C138.048 24.097 140.324 23.4362 141.514 25.316C142.865 27.4468 140.248 29.9576 140.807 30.7471C141.365 31.5367 140.41 32.2701 139.898 31.4079C139.898 31.4079 140.057 32.7623 139.152 32.6203C138.246 32.4782 138.445 30.7471 138.445 30.7471C138.445 30.7471 137.827 31.3517 137.454 30.354C137.08 29.3563 139.472 27.5724 139.522 26.4623C139.571 25.3523 138.246 25.2565 138.246 25.2565L138.048 24.097Z" fill="#263238"/>
<path d="M67.8356 123.382L64.1995 123.655L57.4188 108.145L54.1094 99.8988L62.6287 96.0049L63.6599 101.79L63.6899 101.886L67.8356 123.382Z" fill="#263238"/>
<path d="M64.4883 122.9L65.7953 126.336H67.6028L67.2101 122.9H64.4883Z" fill="#B55B52"/>
<path d="M68.4003 124.528L68.2474 122.774H63.4062L63.8589 124.528H68.4003Z" fill="#263238"/>
<path d="M73.181 128.766C72.9292 127.648 72.3896 127.313 71.7811 127.268C71.1725 127.223 68.7834 126.473 68.7834 126.473C68.7834 126.473 68.2139 125.763 67.7792 125.619C67.6367 125.588 67.4885 125.598 67.3513 125.648C67.2141 125.697 67.0934 125.783 67.0028 125.898L65.8517 125.757C65.8517 125.757 65.444 125.25 65.2522 125.694C65.0513 126.206 65.1173 128.413 65.1293 128.76L73.181 128.766Z" fill="#583AFB"/>
<path d="M72.9897 128.476H71.5808L65.4177 128.446C65.4018 128.446 65.3865 128.44 65.3753 128.429C65.364 128.418 65.3577 128.402 65.3577 128.386C65.3577 128.37 65.364 128.355 65.3753 128.344C65.3865 128.333 65.4018 128.326 65.4177 128.326H65.8373C65.8355 128.322 65.8355 128.316 65.8373 128.311C66.1371 127.664 65.7864 127.01 65.1929 126.684C65.1239 126.648 65.1929 126.543 65.2528 126.582C65.5698 126.729 65.819 126.991 65.9498 127.315C66.0807 127.639 66.0833 128.001 65.9573 128.326H66.8266L72.9897 128.359C73.003 128.362 73.0148 128.37 73.0233 128.38C73.0317 128.391 73.0364 128.404 73.0364 128.418C73.0364 128.431 73.0317 128.445 73.0233 128.455C73.0148 128.466 73.003 128.473 72.9897 128.476Z" fill="black"/>
<path d="M68.5182 126.965C68.5729 126.874 68.6462 126.797 68.7332 126.737C68.8202 126.677 68.919 126.636 69.023 126.617C69.1271 126.598 69.2339 126.601 69.3366 126.626C69.4392 126.652 69.5352 126.699 69.6184 126.764C69.6813 126.809 69.7413 126.707 69.6783 126.662C69.5815 126.589 69.4704 126.537 69.3521 126.509C69.2338 126.481 69.111 126.479 68.9917 126.502C68.8724 126.525 68.7593 126.572 68.6597 126.642C68.56 126.711 68.4761 126.801 68.4133 126.905C68.3683 126.965 68.4733 127.025 68.5182 126.965Z" fill="white"/>
<path d="M69.1793 127.166C69.2343 127.076 69.3079 126.998 69.3951 126.938C69.4824 126.878 69.5815 126.837 69.6857 126.818C69.79 126.799 69.897 126.802 69.9999 126.827C70.1028 126.853 70.1991 126.9 70.2824 126.965C70.3424 127.01 70.4023 126.908 70.3424 126.863C70.2458 126.79 70.1348 126.737 70.0166 126.71C69.8985 126.682 69.7758 126.679 69.6565 126.702C69.5372 126.724 69.424 126.772 69.3243 126.841C69.2245 126.91 69.1404 126.999 69.0774 127.103C69.0324 127.166 69.1373 127.226 69.1793 127.166Z" fill="white"/>
<path d="M69.867 127.364C69.9226 127.274 69.9965 127.197 70.0839 127.137C70.1713 127.078 70.2703 127.037 70.3744 127.019C70.4785 127 70.5854 127.004 70.688 127.029C70.7907 127.054 70.8868 127.101 70.9702 127.166C71.0301 127.211 71.0901 127.109 71.0301 127.061C70.9331 126.988 70.822 126.936 70.7038 126.909C70.5856 126.882 70.463 126.879 70.3438 126.902C70.2247 126.925 70.1116 126.973 70.0119 127.042C69.9123 127.111 69.8282 127.2 69.7651 127.304C69.7201 127.367 69.8221 127.427 69.867 127.364Z" fill="white"/>
<path d="M38.3789 80.834C38.3789 80.834 39.1163 90.0937 40.2914 93.0554C42.9893 99.8511 47.6926 91.5146 47.6926 91.5146L44.578 87.0511L43.6787 80.1865L38.3789 80.834Z" fill="#FFB7AD"/>
<path d="M44.402 86.998L43.2929 87.2319C43.2631 87.2386 43.2372 87.2569 43.2209 87.2828C43.2046 87.3087 43.1992 87.3399 43.206 87.3698C43.2127 87.3996 43.2311 87.4255 43.2569 87.4418C43.2828 87.4581 43.3141 87.4634 43.3439 87.4567L44.453 87.2379C44.4828 87.2315 44.5089 87.2135 44.5255 87.188C44.542 87.1624 44.5478 87.1313 44.5414 87.1015C44.5351 87.0717 44.5171 87.0456 44.4915 87.029C44.466 87.0124 44.4348 87.0067 44.405 87.013L44.402 86.998Z" fill="#742823"/>
<path d="M51.4046 78.8857C51.4046 78.8857 54.4443 87.7588 55.5234 89.977C56.6026 92.1953 52.3189 93.5113 49.714 92.7858C47.109 92.0604 47.5197 81.095 47.5197 81.095L51.4046 78.8857Z" fill="#FFB7AD"/>
<path d="M45.466 69.3348C45.466 69.3348 41.9978 77.6593 43.8323 82.9621L52.5255 80.588C52.5255 80.588 52.5675 76.6911 51.4973 73.5885C49.8246 68.7173 45.466 69.3348 45.466 69.3348Z" fill="#583AFB"/>
<path d="M31.9211 98.3797C30.1225 97.1807 30.0775 92.0037 30.4223 87.2884C30.4402 86.0894 30.4912 84.7254 30.5931 83.2686C30.695 81.8117 30.8539 80.2709 31.0877 78.6882C31.4162 76.3525 31.9314 74.0469 32.6285 71.7936C33.0932 70.3247 35.5063 68.7959 37.6945 68.0555C39.2185 67.5976 40.8194 67.4528 42.4008 67.6298C43.5697 67.9205 44.7224 68.2727 45.8541 68.685C48.7169 69.7012 50.5305 71.1041 50.3506 71.8955C50.2487 72.3272 50.3506 74.6503 49.814 77.4771C49.5293 79.0029 49.3464 80.6516 49.0916 82.3093C49.0916 82.3093 49.0916 82.3243 49.0916 82.3393C49.0916 82.3543 49.0916 82.4712 49.0766 82.5941C49.0017 83.958 48.8308 89.8304 51.0341 93.8772C54.3465 99.9475 34.4931 100.127 31.9211 98.3797Z" fill="#583AFB"/>
<path d="M45.4596 73.0289C45.3683 73.0274 45.2772 73.0204 45.1868 73.0079C42.5069 72.6332 40.2587 67.6121 40.2377 67.5642C40.2357 67.5598 40.2346 67.5551 40.2344 67.5504C40.2342 67.5456 40.235 67.5409 40.2367 67.5364C40.2383 67.5319 40.2409 67.5279 40.2441 67.5244C40.2474 67.5209 40.2513 67.5181 40.2557 67.5162C40.2649 67.512 40.2753 67.5116 40.2848 67.5149C40.2943 67.5183 40.3021 67.5252 40.3066 67.5342C40.3276 67.5851 42.5579 72.5672 45.1988 72.9299C45.6545 72.9929 45.9692 72.9 46.1341 72.6542C46.8055 71.638 44.8631 68.3675 44.8421 68.3345C44.836 68.3275 44.8326 68.3184 44.8326 68.3091C44.8326 68.2997 44.836 68.2907 44.8421 68.2836C44.8454 68.2802 44.8494 68.2776 44.8538 68.2758C44.8581 68.2739 44.8628 68.273 44.8676 68.273C44.8723 68.273 44.877 68.2739 44.8814 68.2758C44.8857 68.2776 44.8897 68.2802 44.893 68.2836C44.974 68.4215 46.8805 71.629 46.182 72.6841C46.1008 72.7982 45.9919 72.8898 45.8655 72.9501C45.7391 73.0104 45.5994 73.0375 45.4596 73.0289Z" fill="white"/>
<path d="M50.6011 123.704L47.0759 123.509L52.2918 104.765C52.2918 104.765 51.5874 104.903 50.4572 105.086C46.6322 105.685 37.9181 106.791 34.9954 104.621C30.7987 101.491 31.0984 97.3277 31.0984 97.3277C31.0984 97.3277 64.4113 87.5823 65.2716 96.9739C65.6583 101.189 50.6011 123.704 50.6011 123.704Z" fill="#263238"/>
<path d="M47.5121 123.021L47.1523 126.336H48.9569L50.2309 123.021H47.5121Z" fill="#B55B52"/>
<path d="M46.4688 124.528L46.6246 122.774H51.4628L51.0102 124.528H46.4688Z" fill="#263238"/>
<path d="M54.8905 128.766C54.6387 127.648 54.1021 127.313 53.4906 127.268C52.8791 127.223 50.4929 126.473 50.4929 126.473C50.4929 126.473 49.9264 125.763 49.4917 125.619C49.3492 125.588 49.201 125.598 49.0638 125.648C48.9266 125.697 48.8059 125.783 48.7153 125.898L47.5612 125.757C47.5612 125.757 47.1565 125.25 46.9797 125.694C46.7758 126.206 46.8448 128.413 46.8568 128.76L54.8905 128.766Z" fill="#583AFB"/>
<path d="M54.7058 128.476H53.2969L47.1307 128.446C47.1148 128.446 47.0996 128.44 47.0883 128.429C47.0771 128.418 47.0707 128.402 47.0707 128.386C47.0707 128.37 47.0771 128.355 47.0883 128.344C47.0996 128.333 47.1148 128.326 47.1307 128.326H47.5474C47.5458 128.322 47.5458 128.316 47.5474 128.311C47.8471 127.664 47.4934 127.01 46.8999 126.684C46.8309 126.648 46.8999 126.543 46.9598 126.582C47.2769 126.729 47.5263 126.991 47.6576 127.315C47.7889 127.638 47.7924 128 47.6673 128.326H48.5366L54.6998 128.359C54.7132 128.362 54.7255 128.368 54.7346 128.379C54.7436 128.389 54.749 128.402 54.7497 128.415C54.7504 128.429 54.7464 128.443 54.7384 128.454C54.7304 128.465 54.7189 128.473 54.7058 128.476Z" fill="black"/>
<path d="M50.2303 126.965C50.2853 126.875 50.3589 126.797 50.4461 126.737C50.5334 126.677 50.6325 126.636 50.7367 126.617C50.841 126.598 50.9481 126.601 51.0509 126.627C51.1538 126.652 51.2501 126.699 51.3334 126.765C51.3934 126.81 51.4534 126.708 51.3934 126.663C51.2968 126.589 51.1856 126.536 51.0673 126.508C50.9489 126.48 50.826 126.478 50.7065 126.501C50.5871 126.524 50.4739 126.572 50.3742 126.641C50.2746 126.711 50.1908 126.801 50.1284 126.905C50.0834 126.965 50.1853 127.025 50.2303 126.965Z" fill="white"/>
<path d="M50.8932 127.166C50.9479 127.076 51.0212 126.998 51.1082 126.938C51.1952 126.878 51.294 126.837 51.398 126.818C51.5021 126.799 51.6089 126.802 51.7115 126.828C51.8142 126.853 51.9102 126.9 51.9934 126.965C52.0563 127.01 52.1163 126.908 52.0533 126.863C51.9567 126.79 51.8457 126.737 51.7276 126.71C51.6094 126.682 51.4867 126.679 51.3674 126.702C51.2482 126.724 51.135 126.772 51.0352 126.841C50.9354 126.91 50.8513 126.999 50.7883 127.103C50.7433 127.166 50.8483 127.226 50.8932 127.166Z" fill="white"/>
<path d="M51.5807 127.364C51.6357 127.274 51.7091 127.196 51.7963 127.136C51.8834 127.077 51.9823 127.036 52.0863 127.017C52.1903 126.999 52.297 127.002 52.3995 127.028C52.502 127.054 52.5979 127.101 52.6809 127.166C52.7438 127.211 52.8008 127.109 52.7408 127.061C52.6438 126.988 52.5327 126.936 52.4145 126.909C52.2963 126.882 52.1737 126.879 52.0545 126.902C51.9354 126.925 51.8223 126.973 51.7226 127.042C51.623 127.111 51.5389 127.2 51.4758 127.304C51.4308 127.367 51.5358 127.427 51.5807 127.364Z" fill="white"/>
<path opacity="0.2" d="M54.678 99.1084L52.2799 104.771C52.2799 104.771 51.5754 104.909 50.4453 105.092C51.8602 103.026 54.5611 99.2613 54.678 99.1084Z" fill="black"/>
<path d="M37.8239 78.011C37.8239 78.011 36.6968 87.6035 37.3233 88.9285C37.9498 90.2534 50.45 91.0838 50.45 91.0838L51.0495 91.7822C51.0495 91.7822 37.9708 95.4513 33.3004 91.8062C30.5456 89.6599 31.1151 76.9648 31.1151 76.9648L37.8239 78.011Z" fill="#FFB7AD"/>
<path d="M32.7827 71.461C31.209 73.7422 30.5525 77.6452 30.2617 81.2933L38.76 80.8227C38.76 80.8227 39.6953 77.0456 39.3596 73.7752C39.1557 71.7098 38.1335 70.7326 36.9854 70.3009C35.1629 69.6055 33.9009 69.8513 32.7827 71.461Z" fill="#583AFB"/>
<path d="M42.8516 93.856H64.2218L64.8303 91.8086H43.4601L42.8516 93.856Z" fill="#583AFB"/>
<g opacity="0.5">
<path d="M42.8516 93.856H64.2218L64.8303 91.8086H43.4601L42.8516 93.856Z" fill="white"/>
</g>
<path d="M50.9233 92.7983H62.8689C63.0737 92.7999 63.2732 92.7332 63.436 92.609C63.5988 92.4847 63.7157 92.3098 63.7682 92.1119L66.1663 83.086C66.2027 82.9485 66.2069 82.8046 66.1787 82.6653C66.1505 82.526 66.0906 82.395 66.0036 82.2825C65.9167 82.1701 65.805 82.0792 65.6773 82.0168C65.5496 81.9544 65.4092 81.9223 65.267 81.9229H53.1476C52.8809 81.9217 52.6214 82.0095 52.4102 82.1724C52.199 82.3353 52.0481 82.5639 51.9815 82.8222L49.7452 91.2845C49.6963 91.4641 49.6899 91.6526 49.7265 91.835C49.7631 92.0175 49.8416 92.189 49.9559 92.3359C50.0702 92.4827 50.2171 92.601 50.385 92.6813C50.5529 92.7615 50.7372 92.8016 50.9233 92.7983Z" fill="#583AFB"/>
<g opacity="0.5">
<path d="M50.9233 92.7983H62.8689C63.0737 92.7999 63.2732 92.7332 63.436 92.609C63.5988 92.4847 63.7157 92.3098 63.7682 92.1119L66.1663 83.086C66.2027 82.9485 66.2069 82.8046 66.1787 82.6653C66.1505 82.526 66.0906 82.395 66.0036 82.2825C65.9167 82.1701 65.805 82.0792 65.6773 82.0168C65.5496 81.9544 65.4092 81.9223 65.267 81.9229H53.1476C52.8809 81.9217 52.6214 82.0095 52.4102 82.1724C52.199 82.3353 52.0481 82.5639 51.9815 82.8222L49.7452 91.2845C49.6963 91.4641 49.6899 91.6526 49.7265 91.835C49.7631 92.0175 49.8416 92.189 49.9559 92.3359C50.0702 92.4827 50.2171 92.601 50.385 92.6813C50.5529 92.7615 50.7372 92.8016 50.9233 92.7983Z" fill="white"/>
</g>
<path d="M51.9062 92.7983H63.8518C64.0566 92.7999 64.2561 92.7332 64.4189 92.609C64.5817 92.4847 64.6986 92.3098 64.7511 92.1119L67.1492 83.086C67.1856 82.9485 67.1898 82.8046 67.1616 82.6653C67.1333 82.526 67.0734 82.395 66.9865 82.2825C66.8996 82.1701 66.7879 82.0792 66.6602 82.0168C66.5324 81.9544 66.3921 81.9223 66.2499 81.9229H54.1424C53.8757 81.9217 53.6163 82.0095 53.4051 82.1724C53.1939 82.3353 53.043 82.5639 52.9763 82.8222L50.7491 91.2845C50.7007 91.4624 50.694 91.649 50.7294 91.8299C50.7649 92.0107 50.8415 92.181 50.9534 92.3274C51.0654 92.4739 51.2096 92.5925 51.3748 92.6742C51.54 92.7559 51.7219 92.7983 51.9062 92.7983Z" fill="#583AFB"/>
<g opacity="0.8">
<path d="M51.9062 92.7983H63.8518C64.0566 92.7999 64.2561 92.7332 64.4189 92.609C64.5817 92.4847 64.6986 92.3098 64.7511 92.1119L67.1492 83.086C67.1856 82.9485 67.1898 82.8046 67.1616 82.6653C67.1333 82.526 67.0734 82.395 66.9865 82.2825C66.8996 82.1701 66.7879 82.0792 66.6602 82.0168C66.5324 81.9544 66.3921 81.9223 66.2499 81.9229H54.1424C53.8757 81.9217 53.6163 82.0095 53.4051 82.1724C53.1939 82.3353 53.043 82.5639 52.9763 82.8222L50.7491 91.2845C50.7007 91.4624 50.694 91.649 50.7294 91.8299C50.7649 92.0107 50.8415 92.181 50.9534 92.3274C51.0654 92.4739 51.2096 92.5925 51.3748 92.6742C51.54 92.7559 51.7219 92.7983 51.9062 92.7983Z" fill="white"/>
</g>
<path d="M57.9143 87.4589C57.875 87.6175 57.8724 87.7829 57.9069 87.9426C57.9414 88.1023 58.012 88.252 58.1133 88.3802C58.2145 88.5084 58.3438 88.6117 58.4912 88.6822C58.6386 88.7527 58.8002 88.7885 58.9635 88.7869C59.3261 88.7658 59.6711 88.6233 59.9429 88.3825C60.2148 88.1416 60.3977 87.8163 60.4623 87.4589C60.5016 87.3002 60.5041 87.1346 60.4696 86.9748C60.4352 86.815 60.3646 86.6651 60.2634 86.5367C60.1622 86.4083 60.033 86.3048 59.8856 86.2339C59.7383 86.1631 59.5767 86.1268 59.4132 86.128C59.0503 86.1497 58.7053 86.2928 58.4335 86.5341C58.1617 86.7755 57.9789 87.1012 57.9143 87.4589Z" fill="#583AFB"/>
<g opacity="0.5">
<path d="M57.9143 87.4589C57.875 87.6175 57.8724 87.7829 57.9069 87.9426C57.9414 88.1023 58.012 88.252 58.1133 88.3802C58.2145 88.5084 58.3438 88.6117 58.4912 88.6822C58.6386 88.7527 58.8002 88.7885 58.9635 88.7869C59.3261 88.7658 59.6711 88.6233 59.9429 88.3825C60.2148 88.1416 60.3977 87.8163 60.4623 87.4589C60.5016 87.3002 60.5041 87.1346 60.4696 86.9748C60.4352 86.815 60.3646 86.6651 60.2634 86.5367C60.1622 86.4083 60.033 86.3048 59.8856 86.2339C59.7383 86.1631 59.5767 86.1268 59.4132 86.128C59.0503 86.1497 58.7053 86.2928 58.4335 86.5341C58.1617 86.7755 57.9789 87.1012 57.9143 87.4589Z" fill="white"/>
</g>
<path d="M50.6458 59.8418C50.5289 60.1716 50.0463 60.2465 50.0463 60.2465C50.0463 60.2465 50.502 60.8191 50.2741 61.0109C50.0463 61.2028 49.5517 61.0109 49.5517 61.0109C49.6073 61.0992 49.6437 61.1982 49.6587 61.3015C49.6737 61.4047 49.6669 61.51 49.6386 61.6104C49.5337 61.9432 49.3988 61.8173 49.3988 61.8173L42.0965 60.6452C42.2257 60.0769 42.2257 59.4869 42.0965 58.9185C41.8657 58.1302 41.551 57.051 41.9317 56.8592C42.3124 56.6673 42.4952 56.8592 42.4952 56.8592C42.4952 56.8592 42.4653 56.0498 42.858 55.9839C42.9612 55.9627 43.0676 55.963 43.1708 55.9846C43.2739 56.0063 43.3715 56.0489 43.4575 56.1098C43.4575 56.1098 43.5054 55.5402 43.8622 55.4892C43.9649 55.4795 44.0678 55.506 44.1532 55.564C44.2385 55.622 44.301 55.7079 44.3298 55.807C44.3298 55.807 44.7405 55.2464 45.1452 55.2374C45.5498 55.2284 45.6038 55.6901 45.6038 55.6901C45.6038 55.6901 46.2513 55.1625 46.5511 55.3693C46.7399 55.5239 46.8847 55.7255 46.9707 55.9539C46.9707 55.9539 47.6002 55.3064 47.87 55.6541C48.0397 55.8904 48.1338 56.1726 48.1398 56.4635C48.1398 56.4635 48.9522 55.8639 49.168 56.2386C49.2957 56.4977 49.3367 56.7909 49.2849 57.075C49.2849 57.075 49.9804 56.6943 50.1842 57.1769C50.2389 57.327 50.2538 57.4887 50.2276 57.6463C50.2013 57.8039 50.1347 57.952 50.0343 58.0762C50.0343 58.0762 50.6818 58.1541 50.6578 58.5348C50.6338 58.9155 50.0583 59.2513 50.0583 59.2513C50.0583 59.2513 50.7478 59.5091 50.6458 59.8418Z" fill="#263238"/>
<path d="M45.226 67.0638V67.0878L44.7164 68.1909C44.6486 68.4188 44.6035 68.6527 44.5815 68.8894C44.5616 69.0805 44.5566 69.273 44.5665 69.4649C44.7613 69.8606 44.7403 70.664 43.835 70.5171C42.6929 70.3222 40.8914 68.2808 40.9063 67.7622C41.7097 66.2964 42.4771 64.5488 42.654 63.0439L43.7091 64.6837L45.226 67.0638Z" fill="#FFB7AD"/>
<g opacity="0.2">
<path d="M45.2084 67.0895L44.6988 68.1927C44.0393 67.74 43.4188 66.9037 43.3798 66.1123C43.3589 65.5427 43.6976 65.0751 43.9224 65.0841L45.2084 67.0895Z" fill="black"/>
</g>
<path d="M42.8915 60.2223C43.0252 59.6695 43.2971 59.1598 43.6819 58.741C44.0667 58.3223 44.5517 58.0082 45.0912 57.8284C45.6307 57.6485 46.2071 57.6088 46.7662 57.713C47.3252 57.8171 47.8487 58.0617 48.2873 58.4237C50.2897 60.0724 49.5253 63.3818 48.1614 65.8968C46.9623 68.1121 43.8567 67.5845 42.6427 65.2164C41.8363 63.6456 42.289 62.6264 42.8765 60.2373" fill="#FFB7AD"/>
<path d="M47.1512 65.1173C47.1512 65.1173 46.0451 64.8176 45.5325 64.0771C45.5325 64.0771 45.4846 64.9525 45.9792 65.4441C46.4738 65.9357 47.1512 65.1173 47.1512 65.1173Z" fill="white"/>
<path d="M42.8281 60.444C42.8281 60.444 43.5506 60.6059 43.4726 61.2354C43.3947 61.8649 43.3137 61.9369 43.3137 61.9369L44.1441 62.2696C44.1441 62.2696 44.321 59.8445 44.9445 59.9824C45.568 60.1203 45.0734 58.9332 45.478 58.8433C46.4313 58.6335 48.8624 59.0351 49.5429 60.6599C49.5429 60.6599 49.5429 59.161 48.5326 58.1988C47.5224 57.2365 45.2352 56.652 44.0931 57.6262C42.951 58.6005 42.8281 60.444 42.8281 60.444Z" fill="#263238"/>
<path d="M41.3948 61.4731C41.3856 62.0917 41.6216 62.6887 42.0513 63.1338C42.6238 63.7333 43.3193 63.3047 43.5021 62.5343C43.664 61.8568 43.5651 60.7357 42.8247 60.4359C42.0842 60.1361 41.4158 60.7057 41.3948 61.4641" fill="#FFB7AD"/>
<path d="M46.0548 62.489C45.9949 62.6808 46.0548 62.8667 46.1717 62.9057C46.2886 62.9446 46.4445 62.8217 46.5045 62.6329C46.5644 62.444 46.5045 62.2552 46.3876 62.2162C46.2707 62.1772 46.1118 62.3001 46.0548 62.489Z" fill="#263238"/>
<path d="M48.1525 63.118C48.0925 63.3098 48.1525 63.4957 48.2694 63.5346C48.3863 63.5736 48.5452 63.4507 48.6051 63.2588C48.6651 63.067 48.6051 62.8811 48.4852 62.8422C48.3653 62.8032 48.2124 62.9261 48.1525 63.118Z" fill="black"/>
<path d="M49.1497 62.4977C49.1336 62.4912 49.1193 62.4811 49.1078 62.4681C49.0964 62.4551 49.0882 62.4395 49.0838 62.4228C49.0736 62.3546 49.0497 62.2892 49.0137 62.2305C48.9776 62.1718 48.9301 62.121 48.8739 62.081C48.7528 62.0163 48.6131 61.9952 48.4783 62.0211C48.4529 62.0266 48.4263 62.0223 48.404 62.0089C48.3817 61.9955 48.3654 61.9742 48.3583 61.9491C48.3552 61.9367 48.3546 61.9238 48.3566 61.9112C48.3585 61.8985 48.363 61.8864 48.3697 61.8755C48.3764 61.8646 48.3852 61.8552 48.3956 61.8478C48.406 61.8403 48.4178 61.835 48.4303 61.8322C48.6173 61.7931 48.8121 61.8229 48.9789 61.9162C49.0584 61.9692 49.1261 62.0381 49.1777 62.1186C49.2293 62.1991 49.2636 62.2894 49.2786 62.3838C49.2817 62.3962 49.2822 62.4092 49.28 62.4218C49.2778 62.4344 49.2731 62.4464 49.266 62.4571C49.259 62.4678 49.2498 62.4769 49.2391 62.4839C49.2284 62.4909 49.2163 62.4956 49.2037 62.4977C49.186 62.5027 49.1674 62.5027 49.1497 62.4977Z" fill="#263238"/>
<path d="M45.8776 61.5449C45.8618 61.5403 45.8474 61.5316 45.8358 61.5198C45.8243 61.5079 45.816 61.4933 45.8118 61.4773C45.8076 61.4613 45.8075 61.4445 45.8117 61.4285C45.8159 61.4125 45.8242 61.3979 45.8357 61.386C45.9702 61.2513 46.1493 61.1703 46.3393 61.1582C46.4344 61.1596 46.5282 61.1805 46.6148 61.2197C46.7014 61.2589 46.7791 61.3155 46.8429 61.386C46.8546 61.3943 46.8644 61.4051 46.8716 61.4176C46.8787 61.4301 46.8831 61.444 46.8843 61.4584C46.8855 61.4727 46.8836 61.4872 46.8786 61.5007C46.8737 61.5142 46.8659 61.5265 46.8557 61.5367C46.8455 61.5469 46.8332 61.5547 46.8197 61.5597C46.8062 61.5646 46.7917 61.5666 46.7774 61.5653C46.763 61.5641 46.7491 61.5598 46.7366 61.5526C46.7241 61.5455 46.7133 61.5357 46.705 61.5239C46.6595 61.4729 46.6042 61.4315 46.5424 61.4021C46.4806 61.3728 46.4136 61.3561 46.3453 61.353C46.2062 61.363 46.0754 61.4226 45.9766 61.5209C45.964 61.5338 45.948 61.5429 45.9305 61.5471C45.913 61.5514 45.8947 61.5506 45.8776 61.5449Z" fill="#263238"/>
<path d="M47.4867 62.5879C47.4669 63.0083 47.5711 63.4253 47.7865 63.7869C48.1372 64.3415 47.082 64.4015 47.082 64.4015L47.4867 62.5879Z" fill="#EA9F79"/>
<path d="M80.0616 92.92L77.6914 92.4754L78.0931 86.8672L80.4633 87.3149L80.0616 92.92Z" fill="#FFB7AD"/>
<path d="M96.0111 92.8552H93.5979L93 87.2715H95.4101L96.0111 92.8552Z" fill="#FFB7AD"/>
<path d="M93.401 92.5762H96.3385C96.3865 92.5764 96.4329 92.5929 96.4702 92.623C96.5075 92.6531 96.5335 92.695 96.544 92.7417L97.0223 94.8881C97.0333 94.9403 97.0325 94.9943 97.0199 95.0462C97.0072 95.098 96.983 95.1463 96.9492 95.1875C96.9153 95.2287 96.8726 95.2618 96.8242 95.2843C96.7758 95.3068 96.723 95.3181 96.6697 95.3174C95.7222 95.3021 95.0323 95.2438 93.8426 95.2438C93.1097 95.2438 90.899 95.3205 89.8871 95.3205C88.8752 95.3205 88.7434 94.3209 89.1573 94.2289C91.0155 93.8241 92.4137 93.263 93.0086 92.7295C93.1157 92.6312 93.2557 92.5765 93.401 92.5762Z" fill="#263238"/>
<path d="M77.7413 91.9537L80.3384 92.4014C80.3854 92.4096 80.4282 92.4334 80.4599 92.4691C80.4917 92.5047 80.5104 92.55 80.5132 92.5976L80.6174 94.79C80.6201 94.843 80.6108 94.8959 80.5902 94.9447C80.5696 94.9936 80.5382 95.0372 80.4984 95.0722C80.4586 95.1073 80.4114 95.133 80.3604 95.1473C80.3093 95.1616 80.2557 95.1642 80.2035 95.1549C79.2836 94.977 77.9252 94.6888 76.7509 94.4864C75.3741 94.2503 74.7026 94.0786 73.0897 93.7996C72.1147 93.631 72.3262 92.5731 72.7524 92.5455C74.6811 92.4596 75.3618 92.754 77.1372 92.0396C77.3266 91.9552 77.5358 91.9255 77.7413 91.9537Z" fill="#263238"/>
<path d="M85.9946 19.0685C85.9118 19.3138 85.8474 19.4916 85.7708 19.6817C85.6941 19.8718 85.6175 20.0742 85.5377 20.2674C85.3783 20.6568 85.2096 21.037 85.0318 21.4172C84.6766 22.1802 84.2784 22.9225 83.839 23.6403C82.9401 25.1758 81.7691 26.5349 80.3833 27.651C79.9975 27.9452 79.5872 28.2057 79.1568 28.4298C79.0465 28.4911 78.933 28.5433 78.8165 28.5954C78.7 28.6475 78.5957 28.6966 78.4577 28.7487C78.1859 28.8487 77.9058 28.9247 77.6206 28.9756C77.1576 29.0537 76.6889 29.0937 76.2194 29.0952C75.7778 29.0952 75.3547 29.0952 74.9377 29.0553C73.3111 28.9256 71.7015 28.6339 70.1328 28.1845L70.375 26.3907C71.9082 26.3325 73.4628 26.2834 74.9223 26.1546C75.2872 26.1209 75.646 26.078 75.9863 26.0258C76.2979 25.9835 76.6056 25.9159 76.9062 25.8235C77.0043 25.7954 77.099 25.7563 77.1883 25.707C77.2895 25.6456 77.4275 25.5874 77.5409 25.5076C77.7908 25.3501 78.0277 25.1727 78.2492 24.9772C78.7383 24.5433 79.1794 24.0581 79.5647 23.5299C79.9845 22.9696 80.3676 22.3828 80.7114 21.7729C81.0702 21.1597 81.3922 20.5066 81.708 19.8504C81.8613 19.5223 82.0146 19.1881 82.1495 18.8538L82.355 18.354L82.542 17.8818L85.9946 19.0685Z" fill="#FFB7AD"/>
<path d="M84.8349 16.2415C89.235 16.2415 84.3995 25.747 84.3995 25.747L78.7852 23.4749C78.7852 23.4749 80.3183 20.1694 81.3271 18.2775C81.6538 17.6366 82.1586 17.1035 82.7808 16.7424C83.403 16.3812 84.1163 16.2073 84.8349 16.2415Z" fill="#583AFB"/>
<path d="M84.8349 16.2415C89.235 16.2415 84.3995 25.747 84.3995 25.747L78.7852 23.4749C78.7852 23.4749 80.3183 20.1694 81.3271 18.2775C81.6538 17.6366 82.1586 17.1035 82.7808 16.7424C83.403 16.3812 84.1163 16.2073 84.8349 16.2415Z" fill="#EBEBEB"/>
<path opacity="0.2" d="M83.7588 19.3135C82.149 20.4449 81.0298 22.5453 80.7109 24.2502L83.9183 25.5503C84.5008 24.6794 85.0681 23.6522 85.6936 22.7508C85.8653 22.2816 86.034 21.788 86.1812 21.2882L83.7588 19.3135Z" fill="black"/>
<path d="M71.7582 26.6208L69.8295 25.5322L68.3516 28.2919C69.2052 28.4363 70.0788 28.4144 70.9242 28.2275L71.7582 26.6208Z" fill="#FFB7AD"/>
<path d="M67.9834 25.5322L66.9102 27.9668L68.339 28.3011L69.817 25.5322H67.9834Z" fill="#FFB7AD"/>
<path opacity="0.2" d="M78.0922 86.8701L77.8867 89.7585L80.2569 90.2032L80.4624 87.3147L78.0922 86.8701Z" fill="black"/>
<path opacity="0.2" d="M95.4093 87.2744H92.9961L93.3089 90.1536H95.7189L95.4093 87.2744Z" fill="black"/>
<path d="M96.8336 17.2935C96.1265 19.8959 95.6141 22.5474 95.3005 25.2259C95.0705 27.0933 94.9356 28.8748 94.8497 30.4938C94.6474 34.2837 94.7332 37.1721 94.6198 38.1594C92.734 38.0307 85.6295 37.5462 81.7414 37.2641C79.9906 23.5487 83.3359 16.484 83.3359 16.484C84.3492 16.2935 85.3732 16.1655 86.4022 16.1007C86.6199 16.1007 86.8437 16.0792 87.0675 16.0762C88.8967 16.0976 90.7232 16.2246 92.5378 16.4564C92.8812 16.4963 93.2307 16.5484 93.568 16.6036C95.3189 16.8734 96.8336 17.2935 96.8336 17.2935Z" fill="#583AFB"/>
<path d="M96.8336 17.2935C96.1265 19.8959 95.6141 22.5474 95.3005 25.2259C95.0705 27.0933 94.9356 28.8748 94.8497 30.4938C94.6474 34.2837 94.7332 37.1721 94.6198 38.1594C92.734 38.0307 85.6295 37.5462 81.7414 37.2641C79.9906 23.5487 83.3359 16.484 83.3359 16.484C84.3492 16.2935 85.3732 16.1655 86.4022 16.1007C86.6199 16.1007 86.8437 16.0792 87.0675 16.0762C88.8967 16.0976 90.7232 16.2246 92.5378 16.4564C92.8812 16.4963 93.2307 16.5484 93.568 16.6036C95.3189 16.8734 96.8336 17.2935 96.8336 17.2935Z" fill="#EBEBEB"/>
<path opacity="0.2" d="M93.5867 20.7637C93.5622 22.7373 94.1153 24.675 95.1781 26.3382C95.2149 25.9702 95.2578 25.5992 95.3038 25.2251C95.4755 23.8207 95.6963 22.3673 95.9876 20.8986L93.5867 20.7637Z" fill="black"/>
<path d="M92.4529 10.25C91.9868 11.9886 91.4165 15.1867 92.5664 16.4469C91.9848 16.9744 91.2968 17.3709 90.5488 17.6095C89.8008 17.8481 89.0102 17.9232 88.2307 17.8298C86.719 17.6918 86.719 16.6278 87.0961 16.0667C89.0923 15.7356 89.1413 14.276 88.896 12.8839L92.4529 10.25Z" fill="#FFB7AD"/>
<path d="M87.1211 18.4031C87.1567 18.6737 87.2204 18.9399 87.3112 19.1972C87.3373 19.2792 87.3888 19.3508 87.4582 19.4015C87.5277 19.4522 87.6115 19.4795 87.6976 19.4793C87.9495 19.4757 88.2012 19.4972 88.4488 19.5437C88.501 19.556 88.5551 19.5574 88.6078 19.5479C88.6605 19.5384 88.7108 19.5182 88.7554 19.4885C89.062 19.2954 89.4545 19.0102 89.3533 18.6545C89.2338 18.2375 88.5163 17.8604 88.5163 17.8604C88.5163 17.8604 87.2836 18.1639 87.1211 18.4031Z" fill="#00C7FF"/>
<path d="M87.7688 19.1973C87.2751 20.2766 86.1344 27.188 85.9934 28.2336C85.8523 29.2792 86.3338 30.9656 87.0022 32.3056C87.7705 31.2519 88.2081 29.9935 88.2594 28.6904C88.3483 27.2616 88.4342 19.369 88.4342 19.369L87.7688 19.1973Z" fill="#00C7FF"/>
<path d="M88.5078 17.8605C88.9643 18.2413 89.3414 18.708 89.6178 19.2342C90.3936 19.1729 93.8186 17.6704 93.331 16.5114C92.9048 16.3918 92.5308 16.1465 92.4112 16.2722C92.2487 16.5206 90.7952 17.3975 88.5078 17.8605Z" fill="white"/>
<path d="M88.5077 17.8603C88.5077 17.8603 87.1923 18.3049 86.8856 19.053C86.0915 18.7004 85.6591 17.109 86.3613 16.0634C86.7998 16.0266 87.2199 15.8089 87.2996 15.953C87.4222 16.2259 87.088 16.9588 88.5077 17.8603Z" fill="white"/>
<path opacity="0.2" d="M91.0011 11.3262L88.8945 12.8808C88.9581 13.2051 88.9919 13.5346 88.9957 13.865C89.7531 13.8098 90.8355 13.0586 90.9765 12.2798C91.0433 11.9661 91.0516 11.6428 91.0011 11.3262Z" fill="black"/>
<path d="M87.345 4.6662C86.4251 5.02802 86.0847 8.58796 87.9582 8.2384C89.8317 7.88885 89.197 3.93949 87.345 4.6662Z" fill="#263238"/>
<path d="M93.4166 8.22654C92.6654 10.4987 92.3434 11.8662 90.8655 12.7462C88.6394 14.0678 86.0668 12.2587 86.122 9.80874C86.171 7.60409 87.3883 4.25573 89.8935 3.93377C90.445 3.85913 91.0065 3.92683 91.5245 4.13044C92.0425 4.33405 92.4998 4.6668 92.8529 5.09704C93.206 5.52728 93.4432 6.0407 93.5419 6.58847C93.6405 7.13624 93.5974 7.70014 93.4166 8.22654Z" fill="#FFB7AD"/>
<path d="M92.5663 9.79004C91.6126 9.80844 90.8307 6.92002 92.7533 6.11052C91.2386 5.93574 86.587 6.19024 85.753 4.11131C84.919 2.03238 88.1539 1.71043 89.2547 2.49539C88.9051 1.35167 90.3279 -0.334777 92.8851 1.19836C95.4424 2.73149 95.4118 4.62338 95.1726 5.18451C96.3132 5.49113 96.5371 8.03 95.2768 8.37036C96.0158 9.39449 95.378 11.547 93.385 11.0871C93.3175 12.3412 91.9193 11.7923 92.0051 10.8295C92.091 9.8667 92.5663 9.79004 92.5663 9.79004Z" fill="#263238"/>
<path d="M88.3155 10.3447C88.5851 10.4236 88.8696 10.4369 89.1453 10.3835C89.4211 10.3302 89.6801 10.2118 89.9008 10.0381C89.9122 10.0261 89.9186 10.0102 89.9186 9.99363C89.9186 9.97707 89.9122 9.96115 89.9008 9.94917C89.8893 9.93794 89.8739 9.93164 89.8579 9.93164C89.8418 9.93164 89.8264 9.93794 89.8149 9.94917C89.6111 10.1126 89.3715 10.2255 89.1158 10.2788C88.86 10.3321 88.5953 10.3242 88.3431 10.2558C88.3355 10.2535 88.3274 10.2528 88.3195 10.2537C88.3116 10.2547 88.3039 10.2572 88.297 10.2613C88.2901 10.2653 88.2841 10.2707 88.2794 10.2771C88.2746 10.2836 88.2713 10.2909 88.2695 10.2987C88.2718 10.3101 88.2773 10.3205 88.2855 10.3287C88.2937 10.3369 88.3042 10.3425 88.3155 10.3447Z" fill="#263238"/>
<path d="M93.8923 10.6363C93.4517 11.0475 92.8665 11.2679 92.2641 11.2495C91.4669 11.2158 91.3136 10.4431 91.7398 9.82065C92.1261 9.25952 93.0031 8.59414 93.7022 8.93449C93.8543 9.01078 93.9849 9.12386 94.0821 9.26345C94.1794 9.40304 94.2402 9.56472 94.2591 9.73379C94.278 9.90287 94.2543 10.074 94.1903 10.2316C94.1262 10.3892 94.0238 10.5283 93.8923 10.6363Z" fill="#FFB7AD"/>
<path d="M77.0881 88.8234L81.0743 89.7647C81.0743 89.7647 82.4847 74.2341 83.6959 65.7007C84.0179 63.4378 84.5146 60.255 85.272 56.8637C86.2256 52.5924 87.4184 47.9715 88.4057 44.3533C89.439 40.5419 90.2271 37.8467 90.2271 37.8467L81.7703 37.2549C81.7703 37.2549 77.1924 57.2163 76.7079 64.5447C76.1897 72.192 77.0881 88.8234 77.0881 88.8234Z" fill="#583AFB"/>
<path opacity="0.2" d="M85.2481 56.8632C86.2017 52.5919 87.3945 47.971 88.3818 44.3528L87.5018 42.4609C85.4137 44.9538 84.8495 52.6716 85.2481 56.8632Z" fill="black"/>
<path d="M86.3203 37.5732C86.3203 37.5732 87.2402 58.2154 88.2521 65.2065C89.3651 72.8721 92.1953 89.5956 92.1953 89.5956H96.6138C96.6138 89.5956 95.3873 73.6908 94.5563 66.1938C93.6088 57.6542 94.6207 38.1528 94.6207 38.1528L86.3203 37.5732Z" fill="#583AFB"/>
<path d="M91.6652 89.6909H96.8656L97.0955 88.1363L91.3555 88.0352L91.6652 89.6909Z" fill="#583AFB"/>
<path d="M76.8336 89.0896L81.3625 89.942L81.8745 88.3629L76.7109 87.3848L76.8336 89.0896Z" fill="#583AFB"/>
<path d="M89.9265 8.04535C89.8744 8.23239 89.7364 8.35198 89.6199 8.32745C89.5033 8.30292 89.4359 8.11587 89.4849 7.92883C89.534 7.74179 89.675 7.6222 89.7916 7.64674C89.9081 7.67127 89.9755 7.85831 89.9265 8.04535Z" fill="#263238"/>
<path d="M87.7988 7.48696C87.7498 7.674 87.6087 7.79359 87.4922 7.76599C87.3757 7.73839 87.3113 7.55748 87.3603 7.36737C87.4094 7.17726 87.5505 7.06075 87.667 7.08528C87.7835 7.10981 87.8479 7.29685 87.7988 7.48696Z" fill="#263238"/>
<path d="M88.2708 7.66211C87.8945 8.1777 87.4499 8.63982 86.9492 9.0358C87.1976 9.43135 87.8384 9.39762 87.8384 9.39762L88.2708 7.66211Z" fill="#EA9F79"/>
<path d="M90.5851 7.43538C90.5638 7.43406 90.5432 7.42675 90.5259 7.41427C90.5085 7.40179 90.495 7.38466 90.487 7.36486C90.4352 7.23089 90.3528 7.11092 90.2463 7.01455C90.1398 6.91817 90.0122 6.84807 89.8737 6.80986C89.859 6.80704 89.845 6.80136 89.8325 6.79313C89.82 6.7849 89.8093 6.77429 89.8009 6.7619C89.7925 6.74952 89.7866 6.7356 89.7836 6.72094C89.7806 6.70629 89.7805 6.69118 89.7833 6.67648C89.7861 6.66178 89.7918 6.64778 89.8 6.63528C89.8082 6.62278 89.8189 6.61203 89.8312 6.60363C89.8436 6.59523 89.8575 6.58935 89.8722 6.58633C89.8869 6.58331 89.902 6.5832 89.9167 6.58602C90.0924 6.63086 90.2549 6.71718 90.3904 6.83776C90.5259 6.95833 90.6305 7.10964 90.6955 7.279C90.7015 7.29287 90.7047 7.3078 90.7049 7.32292C90.705 7.33804 90.7022 7.35303 90.6965 7.36703C90.6907 7.38103 90.6823 7.39374 90.6716 7.40443C90.6609 7.41511 90.6482 7.42355 90.6342 7.42925C90.6185 7.43508 90.6017 7.43718 90.5851 7.43538Z" fill="#263238"/>
<path d="M86.8994 6.42023C86.8758 6.41748 86.8534 6.40789 86.8351 6.39263C86.8242 6.38206 86.8156 6.36942 86.8097 6.35547C86.8038 6.34151 86.8008 6.32652 86.8008 6.31137C86.8008 6.29623 86.8038 6.28123 86.8097 6.26728C86.8156 6.25332 86.8242 6.24069 86.8351 6.23012C86.9498 6.08967 87.0966 5.97879 87.263 5.90677C87.4295 5.83474 87.6108 5.80368 87.7917 5.81617C87.8213 5.82143 87.8477 5.83758 87.8659 5.86143C87.8841 5.88529 87.8926 5.9151 87.8898 5.94496C87.8853 5.97481 87.8693 6.00173 87.8453 6.02004C87.8213 6.03834 87.7911 6.0466 87.7611 6.04308C87.6177 6.03658 87.4749 6.0637 87.3439 6.12226C87.2129 6.18083 87.0975 6.26922 87.0068 6.38036C86.9938 6.39568 86.9771 6.4074 86.9583 6.41438C86.9395 6.42137 86.9193 6.42338 86.8994 6.42023Z" fill="#263238"/>
<path d="M92.6091 92.9994C92.4444 93.0119 92.2803 92.9687 92.1431 92.8767C92.0996 92.8394 92.0662 92.7918 92.0458 92.7382C92.0255 92.6846 92.0189 92.6268 92.0266 92.5701C92.0257 92.5368 92.0345 92.5041 92.052 92.4758C92.0694 92.4475 92.0946 92.4249 92.1247 92.4106C92.3914 92.2726 93.1672 92.751 93.2561 92.8062C93.2654 92.8117 93.2728 92.82 93.2772 92.8299C93.2816 92.8398 93.2828 92.8508 93.2807 92.8614C93.2796 92.873 93.2749 92.8841 93.2672 92.8929C93.2595 92.9017 93.2492 92.9079 93.2377 92.9104C93.0322 92.9633 92.8213 92.9932 92.6091 92.9994ZM92.2504 92.4996C92.2249 92.4974 92.1993 92.5027 92.1768 92.5149C92.1615 92.5149 92.1431 92.5363 92.14 92.5823C92.1347 92.6203 92.1389 92.6589 92.1523 92.6948C92.1657 92.7307 92.1878 92.7626 92.2167 92.7878C92.486 92.9105 92.7919 92.9258 93.0721 92.8307C92.8213 92.6679 92.5411 92.5554 92.2473 92.4996H92.2504Z" fill="#583AFB"/>
<path d="M93.22 92.9129H93.1924C92.944 92.778 92.4596 92.2476 92.5117 91.9931C92.5201 91.9511 92.5427 91.9133 92.5756 91.886C92.6085 91.8586 92.6498 91.8434 92.6926 91.8428C92.7364 91.8367 92.781 91.8401 92.8233 91.8528C92.8657 91.8655 92.9047 91.8872 92.9379 91.9164C93.2169 92.1433 93.2752 92.8363 93.2783 92.87C93.2784 92.8803 93.276 92.8905 93.2711 92.8996C93.2663 92.9087 93.2593 92.9165 93.2507 92.9221C93.2397 92.9224 93.229 92.9192 93.22 92.9129ZM92.7325 91.9348H92.7079C92.6343 91.9348 92.6282 91.9777 92.6252 91.9931C92.5945 92.1494 92.9011 92.5511 93.1495 92.7382C93.1334 92.4636 93.0339 92.2004 92.8643 91.9839C92.8278 91.952 92.7809 91.9346 92.7325 91.9348Z" fill="#583AFB"/>
<path d="M77.4532 92.2417C77.0577 92.2417 76.3616 92.2263 76.1408 91.9534C76.1059 91.9115 76.0823 91.8613 76.0721 91.8077C76.0619 91.754 76.0655 91.6987 76.0826 91.6468C76.0892 91.6167 76.1033 91.5888 76.1237 91.5658C76.1441 91.5427 76.1701 91.5252 76.1991 91.515C76.5057 91.4076 77.3888 92.0516 77.4869 92.1282C77.4964 92.1349 77.5033 92.1446 77.5066 92.1557C77.51 92.1668 77.5095 92.1787 77.5053 92.1895C77.504 92.2029 77.4981 92.2154 77.4886 92.2249C77.4791 92.2344 77.4666 92.2403 77.4532 92.2417ZM76.2451 91.6284C76.233 91.6324 76.2223 91.6396 76.2141 91.6494C76.206 91.6591 76.2008 91.671 76.1991 91.6836C76.1891 91.7159 76.1873 91.7501 76.1937 91.7833C76.2001 91.8164 76.2146 91.8475 76.2359 91.8737C76.3585 92.0301 76.7449 92.119 77.2846 92.1221C76.9197 91.8829 76.4291 91.5916 76.2451 91.6315V91.6284Z" fill="#583AFB"/>
<path d="M77.4491 92.2416C77.4353 92.2471 77.42 92.2471 77.4062 92.2416C77.1425 92.0638 76.6641 91.4505 76.7531 91.1899C76.7745 91.1285 76.8328 91.058 76.9892 91.0672C77.0479 91.0698 77.1054 91.0844 77.1582 91.1103C77.2109 91.1361 77.2578 91.1726 77.2958 91.2175C77.5564 91.5241 77.5104 92.1711 77.5074 92.1987C77.5067 92.2084 77.5036 92.2177 77.4982 92.2258C77.4928 92.2339 77.4854 92.2404 77.4767 92.2447L77.4491 92.2416ZM76.9156 91.1776C76.8726 91.1776 76.8634 91.2083 76.8604 91.2175C76.8082 91.3739 77.1241 91.8461 77.3847 92.0699C77.4061 91.7951 77.3407 91.5205 77.1977 91.2849C77.1712 91.253 77.1386 91.2267 77.1017 91.2077C77.0648 91.1887 77.0244 91.1775 76.983 91.1745C76.9606 91.1704 76.9375 91.1715 76.9156 91.1776Z" fill="#583AFB"/>
<path d="M85.8975 28.0624L84.9194 27.3633L68.8828 49.8114L69.861 50.5105C72.8415 52.5298 76.4931 53.3042 80.0367 52.6685C83.5802 52.0327 86.735 50.0372 88.8277 47.1078C90.9204 44.1785 91.7853 40.5472 91.2379 36.9889C90.6905 33.4307 88.774 30.2273 85.8975 28.0624Z" fill="#00B3E5"/>
<path opacity="0.1" d="M85.8975 28.0624L84.9194 27.3633L68.8828 49.8114L69.861 50.5105C72.8415 52.5298 76.4931 53.3042 80.0367 52.6685C83.5802 52.0327 86.735 50.0372 88.8277 47.1078C90.9204 44.1785 91.7853 40.5472 91.2379 36.9889C90.6905 33.4307 88.774 30.2273 85.8975 28.0624Z" fill="black"/>
<path d="M62.1453 40.3421C61.917 38.4453 62.0575 36.5222 62.5592 34.6787L62.8658 34.7584C62.373 36.5648 62.2356 38.4496 62.4611 40.3084L62.1453 40.3421Z" fill="#583AFB"/>
<path d="M63.0733 44.0439C62.7998 43.3461 62.5795 42.6286 62.4141 41.8975L62.7207 41.8301C62.8841 42.5442 63.1004 43.2453 63.3677 43.9274L63.0733 44.0439Z" fill="#583AFB"/>
<path d="M79.6871 52.0916C87.1477 50.5547 91.9497 43.2609 90.4129 35.8004C88.876 28.3399 81.5822 23.5379 74.1217 25.0747C66.6612 26.6116 61.8591 33.9054 63.396 41.3659C64.9328 48.8264 72.2266 53.6284 79.6871 52.0916Z" fill="#00C7FF"/>
<path d="M73.6407 42.075L75.8055 39.0486C75.0533 38.1041 74.6516 37.2006 74.6005 36.338C74.5616 35.4564 74.8317 34.5888 75.364 33.885C75.8699 33.1349 76.649 32.6122 77.5349 32.4285C78.4506 32.2542 79.3984 32.4304 80.1903 32.9222L80.7116 32.1924L81.7602 32.9406L81.2359 33.6703C81.8773 34.209 82.3235 34.9439 82.5053 35.7615C82.6425 36.5646 82.5133 37.3905 82.1374 38.1133L80.1382 37.0463C80.284 36.771 80.3566 36.4629 80.349 36.1515C80.3415 35.84 80.2541 35.5358 80.0952 35.2679L78.0776 38.095C79.0098 39.2356 79.5075 40.2045 79.5709 41.0018C79.617 41.8545 79.3535 42.6951 78.8289 43.3689C78.2747 44.1944 77.4293 44.7803 76.4617 45.0094C75.4419 45.2194 74.3805 45.0516 73.4752 44.5372L72.9539 45.267L71.9052 44.5188L72.402 43.8227C71.687 43.2089 71.2052 42.3676 71.0375 41.4403C70.9094 40.4305 71.1116 39.4064 71.6139 38.5212L73.6469 39.6679C73.4551 40.0763 73.3596 40.5231 73.3678 40.9742C73.3716 41.3574 73.465 41.7344 73.6407 42.075ZM79.0619 34.486C78.7271 34.377 78.3664 34.377 78.0316 34.486C77.7083 34.589 77.4273 34.7946 77.2313 35.0716C77.0502 35.328 76.9537 35.6346 76.9554 35.9486C76.959 36.3149 77.0652 36.6729 77.262 36.9819L79.0619 34.486ZM74.6158 42.9274C74.9973 43.1119 75.4314 43.1564 75.8423 43.0531C76.2547 42.9518 76.6157 42.7031 76.8573 42.354C77.0789 42.0545 77.1875 41.6863 77.1639 41.3145C77.1053 40.8656 76.913 40.4446 76.612 40.1064L74.6158 42.9274Z" fill="white"/>
<path opacity="0.1" d="M88.0739 37.4384C87.4319 34.6514 85.7512 32.2141 83.3745 30.6234C80.9977 29.0327 78.1037 28.4083 75.2825 28.8776C72.4613 29.3468 69.9252 30.8743 68.1912 33.1487C66.4573 35.4231 65.656 38.2732 65.9507 41.1179C65.6065 39.6234 65.5719 38.0743 65.849 36.5659C66.1262 35.0576 66.7092 33.6219 67.5621 32.3474C68.4151 31.0729 69.52 29.9865 70.8088 29.1552C72.0975 28.3239 73.5428 27.7652 75.0556 27.5136C76.5684 27.262 78.1168 27.3227 79.6052 27.6922C81.0937 28.0616 82.4907 28.7319 83.7103 29.6616C84.9299 30.5914 85.9463 31.7611 86.6967 33.0985C87.4472 34.436 87.9158 35.9129 88.0739 37.4384Z" fill="black"/>
<path d="M97.1412 18.6113C97.4478 19.0007 97.7023 19.3503 97.9599 19.7305C98.2174 20.1107 98.4689 20.4756 98.7142 20.8558C99.2017 21.6163 99.6647 22.389 100.094 23.1954C100.523 24.0018 100.922 24.8267 101.284 25.6791L101.547 26.3261L101.787 26.9914C101.866 27.2091 101.934 27.4422 102.004 27.6691L102.105 28.0125L102.133 28.0984L102.179 28.2854C102.208 28.4127 102.229 28.5417 102.24 28.6718C102.269 29.1039 102.212 29.5376 102.072 29.9473C101.966 30.2556 101.827 30.5517 101.658 30.8304C101.378 31.2867 101.053 31.714 100.689 32.106C100.042 32.7935 99.3396 33.4262 98.5885 33.9979C97.1605 35.0882 95.64 36.0516 94.0442 36.8771L93.0508 35.3624C94.3355 34.2677 95.6203 33.1148 96.7824 31.9465C97.3472 31.3873 97.8718 30.7889 98.3524 30.1558C98.5565 29.8913 98.7332 29.6067 98.8798 29.3065C98.925 29.2082 98.96 29.1054 98.984 28.9998C98.984 28.9201 98.984 28.9324 98.984 28.9998C98.9795 29.0221 98.9795 29.045 98.984 29.0673C98.9834 29.0765 98.9834 29.0857 98.984 29.0949L98.9564 29.0274L98.8491 28.7576C98.7755 28.5736 98.7111 28.3927 98.6253 28.2118L98.3799 27.6691L98.1193 27.1264C97.7544 26.4058 97.365 25.6883 96.9419 24.98C96.5187 24.2717 96.0803 23.5664 95.6234 22.8734C95.3995 22.5239 95.1665 22.1774 94.9335 21.837L94.2344 20.8405L97.1412 18.6113Z" fill="#FFB7AD"/>
<path d="M96.833 17.2934C99.0929 17.7502 101.077 23.2757 101.077 23.2757L96.3608 27.1177C96.3608 27.1177 94.8277 24.309 93.5767 21.5984C92.2306 18.6456 94.0949 16.7414 96.833 17.2934Z" fill="#583AFB"/>
<path d="M96.833 17.2934C99.0929 17.7502 101.077 23.2757 101.077 23.2757L96.3608 27.1177C96.3608 27.1177 94.8277 24.309 93.5767 21.5984C92.2306 18.6456 94.0949 16.7414 96.833 17.2934Z" fill="#EBEBEB"/>
<path d="M93.6104 35.1514L91.1758 35.4181L92.7549 38.0613C92.7549 38.0613 94.7787 37.3744 94.5333 36.2644L93.6104 35.1514Z" fill="#FFB7AD"/>
<path d="M89.7266 36.8131L91.134 38.938L92.756 38.0611L91.1769 35.418L89.7266 36.8131Z" fill="#FFB7AD"/>
</svg>
