<svg width="353" height="488" viewBox="0 0 353 488" fill="none" xmlns="http://www.w3.org/2000/svg">
<path d="M567.302 408.722C549.284 390.704 520.071 390.705 502.053 408.723C484.035 426.741 484.035 455.954 502.052 473.972C520.07 491.989 549.282 491.989 567.3 473.97C585.319 455.952 585.319 426.739 567.302 408.722Z" fill="#00C7FF"/>
<path d="M567.302 408.722C549.284 390.704 520.071 390.705 502.053 408.723C484.035 426.741 484.035 455.954 502.052 473.972C520.07 491.989 549.282 491.989 567.3 473.97C585.319 455.952 585.319 426.739 567.302 408.722Z" fill="#F4F3FB"/>
<path d="M567.302 408.722C549.284 390.704 520.071 390.705 502.053 408.723C484.035 426.741 484.035 455.954 502.052 473.972C520.07 491.989 549.282 491.989 567.3 473.97C585.319 455.952 585.319 426.739 567.302 408.722Z" fill="url(#paint0_radial_521_2)"/>
<path d="M179.154 14.335C161.136 -3.68253 131.924 -3.68253 113.907 14.335C95.8891 32.3525 95.8891 61.5647 113.907 79.5822C131.924 97.5997 161.136 97.5997 179.154 79.5822C197.171 61.5647 197.171 32.3525 179.154 14.335Z" fill="#00C7FF"/>
<path d="M179.154 14.335C161.136 -3.68253 131.924 -3.68253 113.907 14.335C95.8891 32.3525 95.8891 61.5647 113.907 79.5822C131.924 97.5997 161.136 97.5997 179.154 79.5822C197.171 61.5647 197.171 32.3525 179.154 14.335Z" fill="#F4F3FB"/>
<path d="M179.154 14.335C161.136 -3.68253 131.924 -3.68253 113.907 14.335C95.8891 32.3525 95.8891 61.5647 113.907 79.5822C131.924 97.5997 161.136 97.5997 179.154 79.5822C197.171 61.5647 197.171 32.3525 179.154 14.335Z" fill="url(#paint1_radial_521_2)"/>
<path d="M437.192 309.598C390.696 356.095 315.31 356.095 268.814 309.599C222.318 263.103 222.318 187.717 268.815 141.22C315.312 94.7237 390.697 94.7232 437.194 141.219C483.69 187.716 483.689 263.101 437.192 309.598Z" fill="#00C7FF"/>
<path d="M437.192 309.598C390.696 356.095 315.31 356.095 268.814 309.599C222.318 263.103 222.318 187.717 268.815 141.22C315.312 94.7237 390.697 94.7232 437.194 141.219C483.69 187.716 483.689 263.101 437.192 309.598Z" fill="#F4F3FB"/>
<path d="M437.192 309.598C390.696 356.095 315.31 356.095 268.814 309.599C222.318 263.103 222.318 187.717 268.815 141.22C315.312 94.7237 390.697 94.7232 437.194 141.219C483.69 187.716 483.689 263.101 437.192 309.598Z" fill="url(#paint2_radial_521_2)"/>
<path d="M0.36731 281.951C0.36731 256.471 21.0234 235.815 46.504 235.815C71.9846 235.815 92.6407 256.471 92.6407 281.951C92.6407 307.432 71.9846 328.088 46.504 328.088C21.0234 328.088 0.36731 307.432 0.36731 281.951Z" fill="#00C7FF"/>
<path d="M0.36731 281.951C0.36731 256.471 21.0234 235.815 46.504 235.815C71.9846 235.815 92.6407 256.471 92.6407 281.951C92.6407 307.432 71.9846 328.088 46.504 328.088C21.0234 328.088 0.36731 307.432 0.36731 281.951Z" fill="#F4F3FB"/>
<path d="M0.36731 281.951C0.36731 256.471 21.0234 235.815 46.504 235.815C71.9846 235.815 92.6407 256.471 92.6407 281.951C92.6407 307.432 71.9846 328.088 46.504 328.088C21.0234 328.088 0.36731 307.432 0.36731 281.951Z" fill="url(#paint3_radial_521_2)"/>
<defs>
<radialGradient id="paint0_radial_521_2" cx="0" cy="0" r="1" gradientUnits="userSpaceOnUse" gradientTransform="translate(707.166 487.484) rotate(-148.707) scale(936.948 1374.35)">
<stop stop-color="#EEEBFD"/>
<stop offset="1" stop-color="#F7F8FA"/>
</radialGradient>
<radialGradient id="paint1_radial_521_2" cx="0" cy="0" r="1" gradientUnits="userSpaceOnUse" gradientTransform="translate(707.166 487.484) rotate(-148.707) scale(936.948 1374.35)">
<stop stop-color="#EEEBFD"/>
<stop offset="1" stop-color="#F7F8FA"/>
</radialGradient>
<radialGradient id="paint2_radial_521_2" cx="0" cy="0" r="1" gradientUnits="userSpaceOnUse" gradientTransform="translate(707.166 487.484) rotate(-148.707) scale(936.948 1374.35)">
<stop stop-color="#EEEBFD"/>
<stop offset="1" stop-color="#F7F8FA"/>
</radialGradient>
<radialGradient id="paint3_radial_521_2" cx="0" cy="0" r="1" gradientUnits="userSpaceOnUse" gradientTransform="translate(707.166 487.484) rotate(-148.707) scale(936.948 1374.35)">
<stop stop-color="#EEEBFD"/>
<stop offset="1" stop-color="#F7F8FA"/>
</radialGradient>
</defs>
</svg>
