<svg width="166" height="124" viewBox="0 0 166 124" fill="none" xmlns="http://www.w3.org/2000/svg">
<path d="M165.7 108.267H0.5V108.349H165.7V108.267Z" fill="#EBEBEB"/>
<path d="M149.146 113.583H138.203V113.666H149.146V113.583Z" fill="#EBEBEB"/>
<path d="M109.934 114.481H107.062V114.564H109.934V114.481Z" fill="#EBEBEB"/>
<path d="M137.876 110.517H131.535V110.599H137.876V110.517Z" fill="#EBEBEB"/>
<path d="M32.102 111.072H17.832V111.155H32.102V111.072Z" fill="#EBEBEB"/>
<path d="M37.1383 111.072H35.0469V111.155H37.1383V111.072Z" fill="#EBEBEB"/>
<path d="M74.8894 112.466H43.9375V112.548H74.8894V112.466Z" fill="#EBEBEB"/>
<path d="M78.8052 93.5309H15.0083C14.5085 93.53 14.0295 93.3308 13.6764 92.9771C13.3233 92.6234 13.125 92.1441 13.125 91.6443V1.96381C13.1294 1.4669 13.3296 0.99177 13.6822 0.641625C14.0348 0.291481 14.5113 0.0946012 15.0083 0.09375H78.8052C79.3056 0.09375 79.7854 0.292515 80.1392 0.646318C80.493 1.00012 80.6918 1.47998 80.6918 1.98033V91.6443C80.6918 92.1446 80.493 92.6245 80.1392 92.9783C79.7854 93.3321 79.3056 93.5309 78.8052 93.5309ZM15.0083 0.15983C14.5304 0.160705 14.0724 0.351153 13.7348 0.689371C13.3972 1.02759 13.2076 1.48594 13.2076 1.96381V91.6443C13.2076 92.1222 13.3972 92.5805 13.7348 92.9187C14.0724 93.257 14.5304 93.4474 15.0083 93.4483H78.8052C79.2834 93.4474 79.7417 93.2571 80.0799 92.9189C80.418 92.5808 80.6083 92.1225 80.6092 91.6443V1.96381C80.6083 1.48564 80.418 1.02729 80.0799 0.689169C79.7417 0.351046 79.2834 0.160704 78.8052 0.15983H15.0083Z" fill="#EBEBEB"/>
<path d="M150.273 93.5309H86.4725C85.9724 93.53 85.4931 93.331 85.1395 92.9773C84.7859 92.6237 84.5868 92.1444 84.5859 91.6443V1.96381C84.5912 1.4666 84.7921 0.991472 85.1453 0.641419C85.4984 0.291365 85.9753 0.094592 86.4725 0.09375H150.273C150.769 0.0954696 151.245 0.292733 151.597 0.642785C151.949 0.992837 152.148 1.46747 152.153 1.96381V91.6443C152.153 92.1435 151.955 92.6224 151.603 92.976C151.25 93.3296 150.772 93.5291 150.273 93.5309ZM86.4725 0.15983C85.9943 0.160704 85.536 0.351046 85.1979 0.689169C84.8598 1.02729 84.6694 1.48564 84.6685 1.96381V91.6443C84.6694 92.1225 84.8598 92.5808 85.1979 92.9189C85.536 93.2571 85.9943 93.4474 86.4725 93.4483H150.273C150.751 93.4474 151.209 93.2571 151.547 92.9189C151.886 92.5808 152.076 92.1225 152.077 91.6443V1.96381C152.076 1.48564 151.886 1.02729 151.547 0.689169C151.209 0.351046 150.751 0.160704 150.273 0.15983H86.4725Z" fill="#EBEBEB"/>
<path d="M74.8687 19.5903L78.2817 19.0914L74.8687 18.5925L75.7112 17.2576L74.3764 18.1002L73.8775 14.6904L73.3786 18.1002L72.0438 17.2576L72.8896 18.5925L69.4766 19.0914L72.8896 19.5903L72.0438 20.9251L73.3786 20.0793L73.8775 23.4923L74.3764 20.0793L75.7112 20.9251L74.8687 19.5903Z" fill="#F5F5F5"/>
<path d="M109.177 28.7L112.587 28.2011L109.177 27.7022L110.02 26.3674L108.685 27.2099L108.186 23.7969L107.687 27.2099L106.352 26.3674L107.198 27.7022L103.785 28.2011L107.198 28.7L106.352 30.0348L107.687 29.189L108.186 32.602L108.685 29.189L110.02 30.0348L109.177 28.7Z" fill="#F5F5F5"/>
<path d="M61.1935 43.5018L64.6065 43.0029L61.1935 42.5007L62.0393 41.1691L60.7045 42.0117L60.2056 38.5986L59.7067 42.0117L58.3719 41.1691L59.2177 42.5007L55.8047 43.0029L59.2177 43.5018L58.3719 44.8366L59.7067 43.9908L60.2056 47.4038L60.7045 43.9908L62.0393 44.8366L61.1935 43.5018Z" fill="#F5F5F5"/>
<path d="M32.3492 43.5018L35.7589 43.0029L32.3492 42.5007L33.1917 41.1691L31.8569 42.0117L31.358 38.5986L30.8591 42.0117L29.5242 41.1691L30.3701 42.5007L26.957 43.0029L30.3701 43.5018L29.5242 44.8366L30.8591 43.9908L31.358 47.4038L31.8569 43.9908L33.1917 44.8366L32.3492 43.5018Z" fill="#F5F5F5"/>
<path d="M48.689 63.8182L52.102 63.3193L48.689 62.8171L49.5348 61.4856L48.2 62.3281L47.7011 58.915L47.1989 62.3281L45.8674 61.4856L46.7099 62.8171L43.2969 63.3193L46.7099 63.8182L45.8674 65.153L47.1989 64.3072L47.7011 67.7202L48.2 64.3072L49.5348 65.153L48.689 63.8182Z" fill="#F5F5F5"/>
<path d="M115.729 52.8783L119.142 52.3794L115.729 51.8805L116.574 50.5457L115.24 51.3915L114.741 47.9785L114.242 51.3915L112.907 50.5457L113.75 51.8805L110.34 52.3794L113.75 52.8783L112.907 54.2132L114.242 53.3706L114.741 56.7837L115.24 53.3706L116.574 54.2132L115.729 52.8783Z" fill="#F5F5F5"/>
<path d="M139.802 83.1199L143.212 82.6177L139.802 82.1188L140.645 80.7873L139.31 81.6298L138.811 78.2168L138.312 81.6298L136.977 80.7873L137.823 82.1188L134.41 82.6177L137.823 83.1199L136.977 84.4514L138.312 83.6089L138.811 87.022L139.31 83.6089L140.645 84.4514L139.802 83.1199Z" fill="#F5F5F5"/>
<path d="M111.33 82.0691L114.743 81.5703L111.33 81.068L112.175 79.7365L110.841 80.5791L110.342 77.166L109.84 80.5791L108.508 79.7365L109.351 81.068L105.938 81.5703L109.351 82.0691L108.508 83.404L109.84 82.5581L110.342 85.9712L110.841 82.5581L112.175 83.404L111.33 82.0691Z" fill="#F5F5F5"/>
<path d="M48.689 89.1795L52.102 88.6773L48.689 88.1784L49.5348 86.8436L48.2 87.6894L47.7011 84.2764L47.1989 87.6894L45.8674 86.8436L46.7099 88.1784L43.2969 88.6773L46.7099 89.1795L45.8674 90.511L47.1989 89.6685L47.7011 93.0815L48.2 89.6685L49.5348 90.511L48.689 89.1795Z" fill="#F5F5F5"/>
<path d="M85.771 73.6674L89.1841 73.1685L85.771 72.6696L86.6169 71.3348L85.282 72.1773L84.7831 68.7676L84.2842 72.1773L82.9494 71.3348L83.7919 72.6696L80.3789 73.1685L83.7919 73.6674L82.9494 75.0022L84.2842 74.1564L84.7831 77.5694L85.282 74.1564L86.6169 75.0022L85.771 73.6674Z" fill="#F5F5F5"/>
<path d="M66.4117 110.417L69.8247 109.919L66.4117 109.42L67.2542 108.085L65.9194 108.927L65.4205 105.518L64.9216 108.927L63.5867 108.085L64.4326 109.42L61.0195 109.919L64.4326 110.417L63.5867 111.752L64.9216 110.906L65.4205 114.319L65.9194 110.906L67.2542 111.752L66.4117 110.417Z" fill="#F5F5F5"/>
<path d="M104.377 108.191L107.79 107.692L104.377 107.193L105.219 105.858L103.888 106.704L103.385 103.291L102.886 106.704L101.552 105.858L102.397 107.193L98.9844 107.692L102.397 108.191L101.552 109.526L102.886 108.68L103.385 112.093L103.888 108.68L105.219 109.526L104.377 108.191Z" fill="#F5F5F5"/>
<path d="M104.809 46.5844C102.78 43.5811 101.911 38.8696 100.051 37.0028C101.491 35.8974 103.019 34.9117 104.62 34.0557C105.76 37.3365 106.437 42.428 109.378 43.6373C107.938 44.7428 106.41 45.7284 104.809 46.5844Z" fill="#EBEBEB"/>
<path d="M108.242 44.1987C107.958 44.0104 108.031 43.6403 108.377 43.409C106.342 41.7736 105.612 37.9673 104.69 35.1193C104.615 35.1534 104.534 35.1709 104.451 35.1706C104.369 35.1704 104.287 35.1525 104.212 35.118C104.137 35.0835 104.071 35.0333 104.017 34.9709C103.963 34.9084 103.923 34.835 103.901 34.7559C102.934 35.2912 101.997 35.8768 101.092 36.5103C101.162 36.6769 101.167 36.8639 101.106 37.034C101.045 37.2042 100.922 37.3451 100.762 37.4288C102.139 39.3748 102.979 42.9663 104.485 45.6491C104.655 45.5862 104.84 45.5803 105.013 45.6321C105.186 45.684 105.337 45.7909 105.443 45.9366C106.406 45.4066 107.34 44.8265 108.242 44.1987ZM103.286 40.865C102.985 40.0621 103.263 39.1898 103.877 38.9057C104.492 38.6215 105.199 39.094 105.48 39.9167C105.761 40.7394 105.543 41.5918 104.931 41.8628C104.32 42.1337 103.583 41.6744 103.296 40.865H103.286Z" fill="#E0E0E0"/>
<path d="M58.668 36.7289C55.7638 38.295 51.3595 38.4899 49.5225 40.0494C48.6009 38.4869 47.7969 36.8579 47.1172 35.176C50.2196 34.5152 54.9609 34.5614 56.2627 31.8555C57.1869 33.4165 57.991 35.0457 58.668 36.7289Z" fill="#EBEBEB"/>
<path d="M56.7026 33.0381C56.511 33.2925 56.1707 33.1702 55.9823 32.7969C54.3303 34.5579 50.7785 34.7462 48.0858 35.2517C48.115 35.3241 48.1279 35.4019 48.1237 35.4798C48.1194 35.5577 48.0981 35.6337 48.0612 35.7024C48.0243 35.7712 47.9728 35.8309 47.9102 35.8775C47.8477 35.9241 47.7756 35.9564 47.6992 35.972C48.0924 36.9104 48.5583 37.8983 49.1265 38.9456C49.381 38.8168 49.7543 39.0183 49.9525 39.395C51.8391 38.3212 55.2059 37.9974 57.7863 36.8971C57.7356 36.7323 57.7405 36.5554 57.8002 36.3936C57.8599 36.2318 57.9711 36.0941 58.1167 36.0018C57.7269 35.0667 57.2676 34.0821 56.7059 33.0282L56.7026 33.0381ZM53.2929 37.4291C52.945 37.523 52.5749 37.4886 52.2503 37.332C51.9257 37.1755 51.6684 36.9074 51.5253 36.5767C51.3039 35.9159 51.7896 35.3178 52.566 35.1526C53.3424 34.9874 54.1156 35.3211 54.3237 35.9555C54.5319 36.5899 54.0561 37.2375 53.2929 37.4291Z" fill="#E0E0E0"/>
<path d="M87.4928 32.3338C85.0247 30.1367 83.333 26.0562 81.2383 24.8767C82.3901 23.4748 83.6459 22.1616 84.9949 20.9482C86.6767 23.6377 88.2593 28.108 91.2461 28.4021C90.0953 29.8049 88.8406 31.1192 87.4928 32.3338Z" fill="#EBEBEB"/>
<path d="M90.2813 29.2219C89.9807 29.1293 89.9774 28.7692 90.2648 28.4652C88.0544 27.517 86.6502 24.2427 85.2526 21.9002C85.1948 21.9529 85.1259 21.9921 85.0511 22.015C84.9762 22.0379 84.8972 22.0439 84.8197 22.0325C84.7423 22.0211 84.6683 21.9927 84.6032 21.9492C84.5381 21.9058 84.4834 21.8484 84.4432 21.7812C83.6965 22.4751 82.9266 23.2482 82.1304 24.1469C82.3385 24.3419 82.2757 24.7615 81.9883 25.0753C83.6403 26.4828 85.1006 29.5357 87.0203 31.5809C87.1578 31.4772 87.3254 31.4211 87.4977 31.4211C87.67 31.4211 87.8376 31.4772 87.9751 31.5809C88.7185 30.8937 89.4851 30.1238 90.2879 29.2351L90.2813 29.2219ZM84.9949 27.517C84.7872 27.2222 84.6929 26.8624 84.7293 26.5036C84.7657 26.1449 84.9304 25.8113 85.1932 25.5643C85.7218 25.1381 86.4619 25.3826 86.8881 26.0566C87.3143 26.7306 87.2582 27.5699 86.7328 27.9829C86.2075 28.3959 85.4344 28.1778 85.0048 27.517H84.9949Z" fill="#E0E0E0"/>
<path d="M95.2345 66.7912C94.1079 63.6888 94.5572 59.3044 93.2852 57.2592C94.9651 56.5785 96.6935 56.0241 98.4559 55.6006C98.6575 58.7658 97.9174 63.4509 100.405 65.1359C98.7257 65.8167 96.9972 66.3701 95.2345 66.7912Z" fill="#EBEBEB"/>
<path d="M99.1725 65.387C98.9511 65.159 99.1229 64.8451 99.5029 64.7262C98.0029 62.8363 98.3366 59.2911 98.2309 56.5554C98.1546 56.5745 98.0751 56.5765 97.998 56.5613C97.9209 56.546 97.8481 56.5138 97.7849 56.4671C97.7217 56.4203 97.6697 56.3601 97.6325 56.2908C97.5954 56.2216 97.574 56.1449 97.5701 56.0664C96.5789 56.3208 95.5381 56.6347 94.4081 57.0411C94.4973 57.312 94.2429 57.6523 93.8398 57.7911C94.6262 59.8164 94.4544 63.1964 95.1614 65.9057C95.3317 65.8818 95.5051 65.9133 95.6562 65.9953C95.8073 66.0774 95.928 66.2058 96.0007 66.3617C96.9919 66.1106 98.026 65.8 99.1527 65.3969L99.1725 65.387ZM95.3465 61.3759C95.3027 61.0182 95.39 60.6567 95.5923 60.3584C95.7946 60.0601 96.0981 59.8453 96.4467 59.7537C97.1075 59.6281 97.6494 60.1964 97.7022 60.9894C97.7551 61.7823 97.309 62.496 96.6516 62.6116C95.9941 62.7273 95.4059 62.159 95.3465 61.3759Z" fill="#E0E0E0"/>
<path d="M139.122 54.1502C136.654 51.9531 134.962 47.8726 132.867 46.6931C134.02 45.292 135.276 43.9788 136.624 42.7646C138.309 45.4541 139.891 49.9244 142.878 50.2185C141.726 51.6214 140.471 52.9357 139.122 54.1502Z" fill="#EBEBEB"/>
<path d="M141.911 51.0417C141.607 50.9459 141.607 50.5858 141.894 50.2818C139.677 49.3236 138.276 46.0593 136.885 43.7068C136.828 43.7596 136.759 43.7988 136.684 43.8217C136.609 43.8445 136.53 43.8505 136.453 43.8391C136.375 43.8277 136.301 43.7993 136.236 43.7558C136.171 43.7124 136.116 43.655 136.076 43.5879C135.329 44.2817 134.559 45.0549 133.763 45.9536C133.971 46.1485 133.909 46.5681 133.621 46.882C135.273 48.2895 136.733 51.3424 138.653 53.3876C138.791 53.2843 138.958 53.2286 139.131 53.2286C139.303 53.2286 139.47 53.2843 139.608 53.3876C140.351 52.7003 141.118 51.9305 141.921 51.0417H141.911ZM136.624 49.3236C136.416 49.0296 136.322 48.6702 136.358 48.3118C136.395 47.9534 136.56 47.6204 136.823 47.3743C137.348 46.9448 138.091 47.1893 138.514 47.8633C138.937 48.5373 138.888 49.3765 138.362 49.7895C137.837 50.2025 137.067 49.9844 136.624 49.3236Z" fill="#E0E0E0"/>
<path d="M137.165 49.1154L137.023 49.2244L136.94 49.0955L137.079 48.9865C136.992 48.8434 136.942 48.6811 136.934 48.514L137.105 48.4843C137.11 48.6232 137.147 48.759 137.214 48.8808L137.462 48.6892C137.386 48.4843 137.31 48.2563 137.485 48.1209C137.611 48.0217 137.799 48.0581 137.974 48.296L138.116 48.1869L138.199 48.3191L138.06 48.4248C138.129 48.5441 138.173 48.6753 138.192 48.8114L138.024 48.8411C138.007 48.733 137.974 48.6282 137.925 48.5306L137.674 48.7255C137.753 48.9303 137.836 49.1583 137.674 49.2905C137.512 49.4226 137.343 49.3533 137.165 49.1154ZM137.614 48.5702L137.839 48.4017C137.753 48.296 137.677 48.2828 137.621 48.3257C137.565 48.3687 137.578 48.4612 137.614 48.5702ZM137.515 49.0922C137.578 49.046 137.561 48.9535 137.515 48.8411L137.294 49.0129C137.39 49.1187 137.462 49.1352 137.515 49.0922Z" fill="#E0E0E0"/>
<path d="M80.5945 47.6354C78.3775 50.4934 76.3522 53.5529 75.4568 56.8205C73.9634 56.2027 72.4303 55.5815 70.9336 54.858C72.1065 51.4582 74.1319 48.4746 76.0713 45.6729C77.5647 46.2907 79.0978 46.9119 80.5945 47.6354Z" fill="#EBEBEB"/>
<path d="M76.7666 46.2406C76.6553 46.3902 76.4986 46.4996 76.3199 46.5527C76.1412 46.6057 75.9502 46.5994 75.7754 46.5347C74.1762 48.8706 72.5771 51.3354 71.5 54.0678C71.6627 54.155 71.789 54.2974 71.8562 54.4694C71.9234 54.6414 71.9272 54.8316 71.8667 55.0061C72.8018 55.4356 73.7467 55.8354 74.6818 56.2253C74.7051 56.144 74.7457 56.0686 74.8007 56.0043C74.8557 55.9399 74.9239 55.8882 75.0006 55.8525C75.0774 55.8168 75.1609 55.798 75.2455 55.7973C75.3302 55.7966 75.4139 55.8141 75.4912 55.8486C76.3998 53.1889 77.9957 50.6779 79.7666 48.3023C79.6895 48.2682 79.6215 48.2164 79.5681 48.1512C79.5147 48.086 79.4773 48.0092 79.459 47.9269C79.4407 47.8446 79.4419 47.7592 79.4626 47.6775C79.4834 47.5958 79.523 47.5201 79.5783 47.4565C78.6399 47.027 77.6983 46.6272 76.7633 46.2373L76.7666 46.2406ZM76.4923 51.636C76.3162 51.9613 76.0267 52.2104 75.6788 52.3359C75.3309 52.4614 74.9489 52.4546 74.6058 52.3167C74.4459 52.24 74.304 52.1304 74.1895 51.9951C74.0749 51.8598 73.9902 51.7018 73.9409 51.5315C73.8916 51.3612 73.8789 51.1824 73.9035 51.0068C73.9281 50.8313 73.9895 50.6629 74.0837 50.5127C74.2726 50.1877 74.5725 49.9419 74.9283 49.8204C75.2841 49.699 75.6717 49.7102 76.0199 49.8519C76.1793 49.9264 76.3205 50.035 76.4334 50.1701C76.5463 50.3052 76.6281 50.4634 76.6732 50.6335C76.7182 50.8037 76.7254 50.9816 76.6942 51.1549C76.6629 51.3281 76.594 51.4924 76.4923 51.636Z" fill="#E0E0E0"/>
<path d="M75.9856 51.253L76.164 51.3356L76.0881 51.4677L75.9096 51.3851C75.8233 51.526 75.6999 51.6403 75.5528 51.7155L75.4306 51.5669C75.5542 51.5054 75.66 51.4133 75.7378 51.2992L75.4074 51.1506C75.2621 51.3092 75.0935 51.481 74.8722 51.3752C74.7103 51.2992 74.6343 51.1109 74.7565 50.8466L74.5781 50.764L74.6541 50.6318L74.8325 50.7144C74.9061 50.5993 75.0057 50.5031 75.1233 50.4336L75.2455 50.5724C75.1519 50.6303 75.07 50.7054 75.0043 50.7937L75.3347 50.9424C75.4834 50.7838 75.6651 50.612 75.8799 50.7177C76.0418 50.8003 76.1112 50.9754 75.9856 51.253ZM75.2257 51.068L74.9416 50.9358C74.892 51.0581 74.9217 51.134 74.9911 51.1671C75.0605 51.2001 75.1431 51.1506 75.2257 51.068ZM75.7709 50.9391C75.6916 50.9028 75.6123 50.9556 75.5297 51.0415L75.8138 51.1704C75.8634 51.0448 75.8303 50.9754 75.7709 50.9391Z" fill="#E0E0E0"/>
<path d="M136.93 64.5778C134.71 67.4358 132.688 70.4953 131.793 73.7629C130.299 73.1451 128.766 72.5239 127.27 71.8004C128.442 68.4005 130.468 65.417 132.404 62.6152C133.901 63.2331 135.434 63.8608 136.93 64.5778Z" fill="#EBEBEB"/>
<path d="M133.103 63.1807C132.992 63.3312 132.836 63.4417 132.657 63.4953C132.478 63.549 132.286 63.5429 132.111 63.478C130.512 65.8106 128.913 68.2787 127.836 71.0111C127.999 71.0968 128.127 71.2383 128.195 71.4099C128.263 71.5815 128.267 71.7718 128.206 71.9462C129.141 72.379 130.086 72.7755 131.021 73.1687C131.044 73.087 131.084 73.0113 131.139 72.9466C131.194 72.882 131.262 72.83 131.339 72.7942C131.416 72.7585 131.5 72.7397 131.585 72.7394C131.669 72.739 131.753 72.7569 131.83 72.792C132.739 70.1488 134.335 67.6212 136.106 65.2457C136.029 65.2115 135.961 65.1598 135.907 65.0946C135.854 65.0294 135.817 64.9526 135.798 64.8703C135.78 64.788 135.781 64.7026 135.802 64.6209C135.823 64.5392 135.862 64.4634 135.918 64.3998C134.982 63.9736 134.041 63.5738 133.106 63.184L133.103 63.1807ZM132.812 68.586C132.636 68.9112 132.346 69.1603 131.998 69.2858C131.65 69.4114 131.268 69.4045 130.925 69.2666C130.765 69.1904 130.623 69.081 130.508 68.9458C130.393 68.8105 130.308 68.6524 130.259 68.482C130.209 68.3115 130.197 68.1325 130.222 67.9568C130.247 67.7811 130.308 67.6127 130.403 67.4626C130.596 67.1453 130.897 66.9075 131.25 66.7924C131.603 66.6772 131.986 66.6923 132.329 66.8349C132.485 66.9092 132.622 67.016 132.733 67.1481C132.843 67.2801 132.924 67.4344 132.97 67.6004C133.016 67.7665 133.025 67.9404 132.998 68.1104C132.971 68.2804 132.907 68.4426 132.812 68.586Z" fill="#E0E0E0"/>
<path d="M132.329 68.1957L132.508 68.2783C132.481 68.3213 132.455 68.3642 132.432 68.4105L132.253 68.3279C132.164 68.4675 132.04 68.5814 131.893 68.6583L131.774 68.5096C131.897 68.4471 132.003 68.3552 132.082 68.242L131.751 68.0933C131.606 68.2519 131.437 68.4237 131.216 68.318C131.054 68.242 130.978 68.0537 131.1 67.7894L130.922 67.7068C130.945 67.6605 130.971 67.6175 130.998 67.5746L131.176 67.6572C131.25 67.5411 131.349 67.4438 131.467 67.373L131.586 67.5151C131.494 67.574 131.413 67.649 131.348 67.7365L131.678 67.8852C131.827 67.7266 132.009 67.5548 132.224 67.6605C132.379 67.7431 132.445 67.9281 132.329 68.1957ZM131.569 68.0107L131.285 67.8786C131.236 68.0008 131.265 68.0768 131.335 68.1098C131.404 68.1429 131.48 68.0933 131.563 68.0107H131.569ZM132.115 67.8819C132.035 67.8455 131.956 67.8984 131.873 67.981L132.154 68.1131C132.201 67.9876 132.177 67.9116 132.108 67.8819H132.115Z" fill="#E0E0E0"/>
<path d="M122.688 26.0826C122.513 22.478 119.288 19.9967 119.113 16.392L123.739 14.6904C123.917 18.2951 127.139 20.7764 127.317 24.3778L122.688 26.0826Z" fill="#EBEBEB"/>
<path d="M126.41 24.4281C126.391 24.2398 126.432 24.0503 126.528 23.8869C126.624 23.7236 126.769 23.5949 126.942 23.5195C126.384 20.7144 124.151 18.5304 123.599 15.7253C123.522 15.7591 123.438 15.7738 123.355 15.7681C123.271 15.7624 123.19 15.7365 123.119 15.6927C123.047 15.6488 122.987 15.5883 122.944 15.5163C122.901 15.4443 122.877 15.363 122.872 15.2793L119.997 16.3399C120.017 16.5278 119.976 16.717 119.881 16.8803C119.786 17.0436 119.642 17.1725 119.469 17.2485C120.021 20.0536 122.254 22.2408 122.812 25.0459C122.889 25.0121 122.972 24.9973 123.055 25.0028C123.139 25.0083 123.219 25.0339 123.29 25.0774C123.362 25.121 123.421 25.1812 123.464 25.2528C123.507 25.3244 123.531 25.4054 123.536 25.4887L126.407 24.4281H126.41ZM121.967 20.7937C121.877 20.6457 121.822 20.4794 121.805 20.3071C121.789 20.1349 121.811 19.9611 121.871 19.7988C121.931 19.6365 122.027 19.4899 122.152 19.3698C122.277 19.2497 122.427 19.1593 122.591 19.1053C122.951 18.9875 123.34 18.9968 123.693 19.1315C124.047 19.2662 124.344 19.5182 124.534 19.8454C124.624 19.993 124.68 20.1592 124.697 20.3314C124.714 20.5037 124.692 20.6776 124.632 20.84C124.572 21.0024 124.477 21.1492 124.352 21.2694C124.227 21.3896 124.077 21.4799 123.913 21.5338C123.551 21.6513 123.16 21.6405 122.806 21.5033C122.451 21.3661 122.155 21.1108 121.967 20.7805V20.7937Z" fill="#E0E0E0"/>
<path d="M122.643 20.688L122.452 20.7574L122.379 20.6285L122.567 20.5559C122.492 20.4213 122.464 20.2654 122.488 20.1131H122.699C122.678 20.2386 122.695 20.3678 122.749 20.4832L123.079 20.3576C123.026 20.1627 122.984 19.9479 123.218 19.862C123.324 19.8319 123.437 19.8392 123.538 19.8825C123.639 19.9258 123.722 20.0026 123.773 20.0999L123.965 20.0305L124.041 20.1627L123.849 20.2321C123.907 20.3441 123.935 20.4695 123.928 20.5955H123.74C123.745 20.4947 123.727 20.3941 123.687 20.3014L123.357 20.4303C123.41 20.6252 123.459 20.84 123.221 20.9259C123.113 20.9628 122.994 20.959 122.888 20.9153C122.781 20.8715 122.695 20.7908 122.643 20.688ZM123.304 20.2882L123.605 20.1759C123.522 20.0702 123.436 20.0437 123.36 20.0702C123.284 20.0966 123.274 20.1858 123.297 20.2882H123.304ZM123.076 20.731C123.159 20.7012 123.159 20.6153 123.136 20.5096L122.835 20.6186C122.911 20.731 122.997 20.7574 123.079 20.731H123.076Z" fill="#E0E0E0"/>
<path d="M29.0548 68.777C28.8764 65.1822 25.655 62.691 25.4766 59.0863L30.1022 57.3848C30.2806 60.9894 33.502 63.4674 33.6804 67.0721L29.0548 68.777Z" fill="#EBEBEB"/>
<path d="M32.7809 67.1224C32.7615 66.9345 32.8022 66.7453 32.8972 66.582C32.9922 66.4187 33.1366 66.2898 33.3096 66.2138C32.7545 63.4087 30.521 61.2248 29.9659 58.4164C29.8895 58.4509 29.8058 58.4662 29.7221 58.4611C29.6384 58.4559 29.5573 58.4305 29.4857 58.3868C29.414 58.3432 29.3541 58.2828 29.3112 58.2108C29.2682 58.1388 29.2435 58.0574 29.2391 57.9736L26.3646 59.0342C26.384 59.2221 26.3433 59.4114 26.2483 59.5747C26.1533 59.7379 26.0089 59.8669 25.8359 59.9428C26.391 62.7479 28.6245 64.9352 29.1796 67.7403C29.256 67.7057 29.3397 67.6904 29.4234 67.6955C29.5071 67.7007 29.5883 67.7262 29.6599 67.7698C29.7315 67.8134 29.7914 67.8738 29.8343 67.9458C29.8773 68.0179 29.9021 68.0993 29.9065 68.183L32.7809 67.1224ZM28.3338 63.488C28.2441 63.34 28.1889 63.1737 28.1725 63.0015C28.156 62.8292 28.1786 62.6555 28.2386 62.4932C28.2987 62.3309 28.3946 62.1842 28.5191 62.0642C28.6437 61.9441 28.7938 61.8537 28.9582 61.7997C29.3174 61.6827 29.7058 61.6924 30.0587 61.827C30.4116 61.9617 30.7077 62.2133 30.8977 62.5398C30.9881 62.6874 31.0438 62.8535 31.0609 63.0258C31.0779 63.198 31.0557 63.3719 30.9959 63.5343C30.9361 63.6968 30.8404 63.8436 30.7158 63.9637C30.5912 64.0839 30.441 64.1743 30.2765 64.2281C29.9154 64.3448 29.5252 64.3336 29.1714 64.1964C28.8176 64.0592 28.5218 63.8044 28.3338 63.4748V63.488Z" fill="#E0E0E0"/>
<path d="M29.0065 63.382L28.8149 63.4514L28.7422 63.3192L28.9305 63.2498C28.858 63.1144 28.8313 62.959 28.8545 62.8071H29.066C29.0426 62.9326 29.06 63.0622 29.1155 63.1771L29.4459 63.0516C29.3898 62.8567 29.3468 62.6419 29.5847 62.556C29.6905 62.5253 29.8036 62.5322 29.9048 62.5756C30.006 62.619 30.0891 62.6961 30.1398 62.7939L30.3314 62.7245L30.4041 62.8567L30.2158 62.926C30.2753 63.0374 30.3017 63.1636 30.2918 63.2895H30.0836C30.0887 63.1887 30.0706 63.0881 30.0307 62.9954L29.7003 63.1243C29.7565 63.3159 29.8028 63.534 29.5682 63.6199C29.4615 63.6517 29.3471 63.6453 29.2446 63.6019C29.1421 63.5585 29.0579 63.4807 29.0065 63.382ZM29.6673 62.9822L29.9713 62.8699C29.9474 62.8274 29.9101 62.7941 29.8653 62.775C29.8205 62.7559 29.7707 62.752 29.7235 62.7641C29.6376 62.7939 29.6376 62.8699 29.6607 62.9822H29.6673ZM29.4393 63.4249C29.5252 63.3952 29.5252 63.3093 29.4988 63.2003L29.1981 63.3126C29.2774 63.4249 29.36 63.4514 29.4327 63.4249H29.4393Z" fill="#E0E0E0"/>
<path d="M40.8596 26.0103C39.6008 29.4862 35.2428 29.4168 33.8089 32.3639C32.4674 31.1844 31.1657 30.0511 29.8672 29.0401C31.1227 25.5643 35.484 25.6337 36.9179 22.6865C38.256 23.8826 39.5776 24.9894 40.8596 26.0103Z" fill="#EBEBEB"/>
<path d="M37.5582 23.5684C37.3897 23.8789 36.9734 23.8756 36.6695 23.6047C35.1034 25.6466 31.9249 25.9836 30.4844 28.3691C30.625 28.4937 30.7217 28.6602 30.7604 28.8441C30.7991 29.0279 30.7776 29.2193 30.6991 29.39C31.5075 30.0508 32.3291 30.749 33.1639 31.4847C33.3324 31.1775 33.7487 31.1775 34.0494 31.4484C35.6155 29.4065 38.7939 29.0695 40.2378 26.684C40.097 26.5603 40 26.3943 39.9613 26.2109C39.9226 26.0275 39.9443 25.8365 40.023 25.6664C39.2102 25.0056 38.3875 24.3074 37.5549 23.5717L37.5582 23.5684ZM36.3853 28.5244C35.751 28.8548 34.7333 28.6697 34.1221 28.1047C33.5108 27.5398 33.4613 26.7831 34.1221 26.4527C34.7829 26.1223 35.7741 26.3074 36.3886 26.8757C37.0032 27.4439 37.0164 28.1973 36.3853 28.531V28.5244Z" fill="#E0E0E0"/>
<path d="M35.9709 27.9797C36.0304 28.0326 36.0866 28.0821 36.1394 28.135L36.0172 28.2011L35.8487 28.0491C35.694 28.1171 35.5245 28.1444 35.3564 28.1284L35.2705 27.9533C35.4117 27.9696 35.5549 27.9503 35.6868 27.8971L35.3861 27.6229C35.2777 27.6675 35.1593 27.6824 35.0432 27.6662C34.927 27.6499 34.8173 27.603 34.7253 27.5304C34.6848 27.5042 34.6522 27.4676 34.6308 27.4244C34.6094 27.3812 34.6001 27.333 34.6038 27.285C34.6075 27.2369 34.6242 27.1908 34.6519 27.1514C34.6797 27.112 34.7176 27.0808 34.7617 27.0612L34.5898 26.9059L34.7121 26.8398L34.8806 26.9918C35.0064 26.9366 35.1431 26.9106 35.2804 26.9158L35.3696 27.0876C35.2572 27.0857 35.1454 27.1036 35.0392 27.1405L35.3465 27.4214C35.4541 27.3738 35.5728 27.357 35.6894 27.3727C35.8061 27.3884 35.9161 27.4362 36.0073 27.5106C36.0468 27.5374 36.0785 27.5742 36.0993 27.6172C36.12 27.6603 36.129 27.7081 36.1253 27.7557C36.1216 27.8033 36.1054 27.8491 36.0783 27.8885C36.0512 27.9278 36.0141 27.9593 35.9709 27.9797ZM35.1912 27.4577L34.9202 27.2099C34.9025 27.2208 34.8878 27.2361 34.8776 27.2544C34.8675 27.2726 34.8621 27.2931 34.8621 27.314C34.8621 27.3348 34.8675 27.3554 34.8776 27.3736C34.8878 27.3918 34.9025 27.4071 34.9202 27.418C34.9599 27.4436 35.0047 27.4604 35.0514 27.4673C35.0981 27.4741 35.1458 27.4708 35.1912 27.4577ZM35.8189 27.6262C35.7768 27.5976 35.7286 27.5792 35.6782 27.5723C35.6278 27.5654 35.5764 27.5703 35.5282 27.5866L35.7958 27.831C35.9015 27.7584 35.8982 27.6857 35.8321 27.6262H35.8189Z" fill="#E0E0E0"/>
<path d="M44.2463 75.1676C42.9908 78.6434 38.6295 78.574 37.1956 81.5212C35.874 80.3416 34.5524 79.2084 33.2539 78.1973C34.5127 74.7215 38.8707 74.7909 40.3046 71.8438C41.6461 73.0233 42.9644 74.1466 44.2463 75.1676Z" fill="#EBEBEB"/>
<path d="M40.945 72.7256C40.7765 73.0329 40.3635 73.0329 40.0595 72.7619C38.4934 74.8038 35.3149 75.1408 33.8711 77.5263C34.0127 77.6502 34.1104 77.8165 34.1497 78.0005C34.189 78.1845 34.1678 78.3763 34.0892 78.5472C34.8986 79.208 35.7213 79.9151 36.5539 80.642C36.7191 80.3347 37.1354 80.3347 37.4394 80.6056C39.0022 78.5638 42.184 78.2234 43.6245 75.8413C43.4837 75.7175 43.3868 75.5515 43.3481 75.3681C43.3094 75.1847 43.331 74.9937 43.4097 74.8236C42.6014 74.1628 41.7798 73.4646 40.945 72.7289V72.7256ZM39.772 77.6816C39.141 78.012 38.12 77.827 37.5121 77.262C36.9042 76.697 36.8513 75.9404 37.5121 75.61C38.1729 75.2796 39.1641 75.4646 39.7753 76.0329C40.3866 76.6012 40.4031 77.3545 39.772 77.6882V77.6816Z" fill="#E0E0E0"/>
<path d="M39.3615 77.136L39.53 77.2913C39.4871 77.3111 39.4474 77.3342 39.4078 77.3573L39.2393 77.2021C39.0839 77.2717 38.9132 77.3001 38.7437 77.2847C38.7173 77.2252 38.6875 77.169 38.6611 77.1095C38.8024 77.1256 38.9454 77.1063 39.0774 77.0534L38.7734 76.7791C38.6647 76.8233 38.5462 76.8377 38.43 76.8208C38.3139 76.804 38.2043 76.7565 38.1126 76.6833C38.073 76.6569 38.0411 76.6205 38.0203 76.5776C37.9994 76.5348 37.9904 76.4872 37.9941 76.4397C37.9978 76.3922 38.0141 76.3466 38.0413 76.3075C38.0686 76.2685 38.1057 76.2374 38.149 76.2175L37.9805 76.0622L38.1027 75.9961L38.2712 76.1481C38.3961 76.0933 38.5314 76.0663 38.6677 76.0688C38.6974 76.1283 38.7305 76.1844 38.7602 76.2406C38.6476 76.2393 38.5357 76.2584 38.4298 76.2968L38.7338 76.5743C38.8422 76.5297 38.9606 76.5148 39.0767 76.531C39.1928 76.5473 39.3025 76.5941 39.3946 76.6668C39.4343 76.6934 39.4662 76.7299 39.4872 76.7728C39.5082 76.8157 39.5175 76.8633 39.5141 76.911C39.5108 76.9586 39.4949 77.0045 39.4681 77.044C39.4413 77.0835 39.4045 77.1152 39.3615 77.136ZM38.5917 76.6106L38.3241 76.3661C38.2316 76.4388 38.2415 76.5115 38.3241 76.5743C38.3636 76.5989 38.4079 76.6148 38.454 76.6211C38.5001 76.6273 38.5471 76.6238 38.5917 76.6106ZM39.2195 76.7824C39.178 76.7524 39.1298 76.733 39.0791 76.7261C39.0283 76.7192 38.9767 76.7249 38.9287 76.7428L39.1963 76.9873C39.2889 76.9146 39.2855 76.8419 39.2195 76.7824Z" fill="#E0E0E0"/>
<path d="M103.87 40.799L103.705 40.8684C103.688 40.8155 103.668 40.7626 103.648 40.7065L103.81 40.6371C103.752 40.4661 103.735 40.2839 103.761 40.1051L103.939 40.1283C103.917 40.2752 103.927 40.4251 103.969 40.5677L104.256 40.4421C104.22 40.2076 104.19 39.9498 104.395 39.8639C104.544 39.7979 104.726 39.8904 104.851 40.1943L105.013 40.1217L105.072 40.2836L104.911 40.3529C104.956 40.4947 104.974 40.6439 104.963 40.7924L104.788 40.7725C104.795 40.6546 104.783 40.5363 104.752 40.4223L104.461 40.5479C104.498 40.7825 104.534 41.0435 104.332 41.1294C104.184 41.1888 104.002 41.0963 103.87 40.799ZM104.435 40.3695L104.693 40.2571C104.626 40.125 104.554 40.0853 104.491 40.1151C104.428 40.1448 104.418 40.2439 104.435 40.3695ZM104.227 40.8783C104.299 40.8485 104.303 40.7461 104.283 40.6173L104.028 40.7296C104.094 40.8651 104.167 40.9047 104.227 40.8783Z" fill="#E0E0E0"/>
<path d="M53.2668 36.8446C53.2866 36.8975 53.3031 36.957 53.323 37.0131L53.171 37.0462C53.1512 36.99 53.1346 36.9338 53.1181 36.8777C52.9534 36.911 52.7828 36.9019 52.6225 36.8512C52.6225 36.7951 52.6456 36.7389 52.6556 36.6794C52.7873 36.7241 52.9278 36.7366 53.0653 36.7158C53.0322 36.6166 52.9992 36.5142 52.9694 36.4151C52.7481 36.4151 52.5102 36.4151 52.4408 36.2003C52.3945 36.045 52.4904 35.8699 52.7712 35.8006C52.7547 35.7444 52.7349 35.6882 52.7183 35.6287L52.8703 35.5957C52.8703 35.6519 52.9067 35.708 52.9232 35.7642C53.0573 35.7376 53.1954 35.7376 53.3296 35.7642C53.3296 35.8204 53.3296 35.8765 53.3031 35.9327C53.1938 35.9142 53.0821 35.9142 52.9727 35.9327C53.0025 36.0351 53.0355 36.1343 53.0686 36.2367C53.2866 36.2367 53.5311 36.2367 53.5939 36.4415C53.6501 36.5902 53.5509 36.7686 53.2668 36.8446ZM52.91 36.2334C52.8835 36.1442 52.8538 36.0517 52.8274 35.9658C52.6985 36.0087 52.6589 36.0748 52.682 36.1409C52.7051 36.2069 52.7943 36.2301 52.91 36.2334ZM53.3692 36.5043C53.3461 36.4283 53.2503 36.4151 53.1313 36.4118C53.1611 36.501 53.1875 36.5902 53.2172 36.6794C53.3626 36.6332 53.389 36.5671 53.3626 36.5043H53.3692Z" fill="#E0E0E0"/>
<path d="M85.536 27.2985L85.3939 27.4075L85.3113 27.2787L85.4501 27.1697C85.3634 27.0266 85.3134 26.8643 85.3047 26.6972L85.4765 26.6674C85.4812 26.8063 85.5186 26.9422 85.5855 27.0639L85.8366 26.8723C85.7573 26.6674 85.6813 26.4395 85.8564 26.304C86.0316 26.1685 86.1869 26.2412 86.3454 26.4791L86.4875 26.3701L86.5701 26.5022L86.4313 26.608C86.4997 26.7272 86.5445 26.8584 86.5635 26.9945L86.395 27.0243C86.3785 26.9162 86.3451 26.8114 86.2959 26.7137L86.0448 26.9086C86.1241 27.1135 86.2067 27.3415 86.0448 27.4736C85.8829 27.6058 85.7144 27.5364 85.536 27.2985ZM85.9853 26.7534L86.21 26.5848C86.1241 26.4791 86.0481 26.4659 85.9919 26.5056C85.9357 26.5452 85.949 26.6443 85.9853 26.7534ZM85.8895 27.2754C85.949 27.2291 85.9324 27.1366 85.8895 27.0243L85.6681 27.1928C85.7606 27.3018 85.8333 27.3183 85.8895 27.2754Z" fill="#E0E0E0"/>
<path d="M95.9095 61.4361L95.7344 61.4659C95.7344 61.413 95.7344 61.3601 95.7344 61.3106L95.9095 61.2809C95.9021 61.1133 95.9362 60.9465 96.0086 60.7952L96.1738 60.8546C96.1107 60.9773 96.0779 61.1132 96.078 61.2511L96.3919 61.2016C96.4183 60.9835 96.4613 60.7489 96.6793 60.7126C96.8379 60.6861 96.9833 60.8051 97.0262 61.0991L97.2014 61.0727V61.228L97.0295 61.2544C97.0343 61.3918 97.0118 61.5288 96.9635 61.6575L96.7983 61.6046C96.8383 61.499 96.8596 61.3872 96.861 61.2742L96.5472 61.3271C96.5174 61.5452 96.4844 61.7831 96.2663 61.8194C96.1044 61.8491 95.9557 61.7302 95.9095 61.4361ZM96.5703 61.1718L96.8478 61.1256C96.8214 60.9934 96.7619 60.9472 96.6925 60.9571C96.6232 60.967 96.5868 61.0562 96.567 61.1718H96.5703ZM96.2399 61.5848C96.3159 61.5848 96.3456 61.4824 96.3654 61.3635L96.0879 61.4064C96.1077 61.5485 96.1639 61.5947 96.23 61.5848H96.2399Z" fill="#E0E0E0"/>
<path d="M83.1003 123.187C118.48 123.187 147.162 121.513 147.162 119.447C147.162 117.382 118.48 115.707 83.1003 115.707C47.7203 115.707 19.0391 117.382 19.0391 119.447C19.0391 121.513 47.7203 123.187 83.1003 123.187Z" fill="#F5F5F5"/>
<path d="M57.3014 23.0265C54.1394 21.2555 51.2451 17.4361 48.7539 16.6134C49.5414 14.9787 50.4643 13.4126 51.5127 11.9316C54.004 14.3469 56.8983 18.5925 60.0602 18.3414C59.2706 19.9761 58.3479 21.5431 57.3014 23.0265Z" fill="#00C7FF"/>
<path opacity="0.2" d="M59.3114 19.3528C58.981 19.3131 58.8719 18.9497 59.0768 18.5862C56.5261 18.0378 54.1604 14.9518 52.0591 12.834C52.0076 12.8986 51.9427 12.9514 51.8689 12.9885C51.7951 13.0257 51.7141 13.0464 51.6315 13.0492C51.5489 13.052 51.4666 13.0369 51.3904 13.0049C51.3143 12.9729 51.2459 12.9247 51.1901 12.8637C50.5682 13.7775 49.9937 14.7226 49.4688 15.6952C49.6064 15.8123 49.695 15.9768 49.717 16.1561C49.739 16.3354 49.6929 16.5164 49.5877 16.6633C51.6923 17.7867 54.0547 20.6281 56.6087 22.3363C56.7315 22.202 56.8953 22.112 57.0745 22.0803C57.2538 22.0486 57.4385 22.0771 57.5999 22.1612C58.2201 21.2538 58.7935 20.3153 59.318 19.3495L59.3114 19.3528ZM53.384 18.5962C52.7562 18.0114 52.6109 17.1094 53.0338 16.5807C53.4567 16.0521 54.2926 16.1578 54.9204 16.7624C55.5481 17.3671 55.7265 18.2294 55.3036 18.7448C54.8807 19.2603 54.025 19.1876 53.384 18.5962Z" fill="black"/>
<g opacity="0.2">
<path d="M53.8634 18.2659L53.7511 18.4013L53.6255 18.2857C53.6652 18.2394 53.7015 18.1932 53.7412 18.1502C53.6119 18.0227 53.5145 17.8665 53.457 17.6943L53.6288 17.6348C53.6728 17.7776 53.7485 17.9086 53.8502 18.0181L54.0518 17.7736C53.913 17.5819 53.7709 17.3639 53.913 17.1954C54.0551 17.0269 54.2203 17.0731 54.4681 17.2813C54.5077 17.2383 54.544 17.1921 54.5837 17.1458L54.7059 17.2648L54.5936 17.4002C54.6976 17.5046 54.7806 17.628 54.8381 17.7637L54.6729 17.8297C54.6267 17.7201 54.5631 17.6185 54.4846 17.5291L54.2797 17.7736C54.4185 17.9652 54.5672 18.1833 54.4251 18.3518C54.283 18.5203 54.1178 18.4839 53.8634 18.2659ZM54.1938 17.6282L54.3722 17.4134C54.2566 17.3242 54.174 17.3242 54.1311 17.3771C54.0881 17.43 54.1079 17.5357 54.1773 17.6414L54.1938 17.6282ZM54.2401 18.1767C54.2896 18.1172 54.2401 18.028 54.1707 17.919L53.9923 18.1337C54.098 18.2394 54.1773 18.2427 54.2236 18.1899L54.2401 18.1767Z" fill="black"/>
</g>
<path d="M84.4231 37.0087C81.5156 38.5748 77.1146 38.773 75.2776 40.3292C74.3558 38.7644 73.5539 37.132 72.8789 35.4459C75.9814 34.7851 80.7226 34.828 82.0244 32.1221C82.9457 33.6883 83.7475 35.3218 84.4231 37.0087Z" fill="#00C7FF"/>
<path opacity="0.2" d="M82.4604 33.3213C82.2688 33.5724 81.9318 33.4501 81.7435 33.0801C80.0915 34.8378 76.5364 35.0294 73.8469 35.5316C73.8761 35.6044 73.8889 35.6827 73.8845 35.761C73.88 35.8393 73.8585 35.9156 73.8213 35.9847C73.7841 36.0537 73.7322 36.1137 73.6692 36.1604C73.6063 36.2072 73.5339 36.2396 73.457 36.2552C73.8535 37.1936 74.3161 38.1781 74.8844 39.2288C75.1421 39.1 75.5154 39.3015 75.7104 39.6815C77.6002 38.6077 80.967 38.2839 83.5441 37.1836C83.4954 37.0182 83.5012 36.8415 83.5607 36.6797C83.6202 36.5178 83.7303 36.3794 83.8745 36.285C83.4814 35.3499 83.0221 34.3686 82.4604 33.3114V33.3213ZM79.0507 37.6925C78.7033 37.7884 78.3328 37.7548 78.0082 37.598C77.6837 37.4412 77.4272 37.1718 77.2864 36.84C77.065 36.1991 77.5474 35.5845 78.3271 35.416C79.1069 35.2475 79.8734 35.5878 80.0815 36.2222C80.2897 36.8566 79.8172 37.5174 79.0507 37.6925Z" fill="black"/>
<g opacity="0.2">
<path d="M79.0299 37.1245C79.0497 37.1807 79.0662 37.2368 79.0827 37.293L78.9308 37.3294C78.9308 37.2732 78.8944 37.217 78.8779 37.1609C78.713 37.1921 78.5429 37.1831 78.3823 37.1344C78.3823 37.075 78.4054 37.0188 78.4186 36.9626C78.5492 37.0077 78.6889 37.0191 78.825 36.9957C78.7953 36.8965 78.7623 36.7974 78.7292 36.695C78.5111 36.695 78.27 36.695 78.2039 36.4802C78.1543 36.3283 78.2501 36.1664 78.5343 36.0805C78.5144 36.0243 78.4979 35.9681 78.4781 35.9119L78.6334 35.8789C78.6334 35.9351 78.6664 35.9912 78.6863 36.0474C78.8203 36.0193 78.9586 36.0193 79.0926 36.0474L79.0629 36.2159C78.9536 36.1974 78.8419 36.1974 78.7325 36.2159C78.7656 36.315 78.7986 36.4175 78.8283 36.5199C79.0497 36.5199 79.2909 36.5199 79.357 36.7247C79.4131 36.8701 79.314 37.0353 79.0299 37.1245ZM78.673 36.5133C78.6433 36.4241 78.6169 36.3349 78.5871 36.2457C78.4616 36.2919 78.4219 36.358 78.4418 36.4241C78.4616 36.4901 78.5574 36.51 78.673 36.5133ZM79.129 36.7842C79.1059 36.7115 79.0134 36.695 78.8944 36.695C78.9208 36.7842 78.9506 36.8734 78.977 36.9593C79.1092 36.9131 79.1356 36.8503 79.1356 36.7842H79.129Z" fill="black"/>
</g>
<path d="M108.188 16.1903C104.758 17.3467 101.385 18.7774 98.8307 21.0076C97.9254 19.6661 96.9937 18.3016 96.1445 16.8709C99.0025 14.687 102.336 13.3092 105.501 12.0537C106.407 13.3951 107.338 14.7597 108.188 16.1903Z" fill="#00C7FF"/>
<path opacity="0.2" d="M105.764 12.91C105.589 12.9746 105.397 12.9802 105.218 12.9259C105.039 12.8716 104.883 12.7605 104.773 12.6094C102.149 13.67 99.4533 14.8429 97.048 16.5246C97.1377 16.6874 97.166 16.8769 97.1278 17.0588C97.0896 17.2407 96.9874 17.4029 96.8398 17.5158C97.3817 18.3914 97.9467 19.2438 98.5117 20.0863C98.576 20.0311 98.6515 19.9905 98.733 19.9672C98.8145 19.9439 98.9001 19.9385 98.9839 19.9514C99.0677 19.9642 99.1477 19.9951 99.2184 20.0417C99.2892 20.0884 99.349 20.1498 99.3938 20.2218C101.621 18.5037 104.35 17.2944 107.125 16.2933C107.08 16.2221 107.052 16.1411 107.043 16.057C107.035 15.9728 107.047 15.8879 107.077 15.8091C107.108 15.7303 107.156 15.6598 107.219 15.6033C107.282 15.5468 107.357 15.5059 107.439 15.4839C106.897 14.6116 106.329 13.7592 105.767 12.9166L105.764 12.91ZM102.539 17.2548C102.213 17.4288 101.833 17.4764 101.474 17.3886C101.114 17.3009 100.8 17.0839 100.59 16.779C100.499 16.627 100.441 16.4573 100.42 16.2813C100.399 16.1052 100.416 15.9267 100.469 15.7575C100.522 15.5883 100.61 15.4323 100.728 15.2997C100.845 15.1671 100.99 15.061 101.152 14.9883C101.49 14.8213 101.878 14.7832 102.243 14.8811C102.608 14.9789 102.924 15.2061 103.134 15.5202C103.223 15.6703 103.278 15.8378 103.295 16.0111C103.313 16.1845 103.293 16.3597 103.236 16.5245C103.18 16.6894 103.088 16.8401 102.968 16.9661C102.848 17.0922 102.701 17.1907 102.539 17.2548Z" fill="black"/>
<g opacity="0.2">
<path d="M102.347 16.6593L102.449 16.8278L102.311 16.8939L102.208 16.7287C102.057 16.7993 101.889 16.8278 101.723 16.8113C101.723 16.7485 101.723 16.6824 101.706 16.6196C101.843 16.6372 101.982 16.619 102.109 16.5668C102.05 16.4644 101.987 16.3652 101.924 16.2661C101.713 16.319 101.481 16.3652 101.356 16.1571C101.26 16.0051 101.303 15.8069 101.551 15.6549L101.445 15.4831L101.584 15.417L101.686 15.5822C101.811 15.5285 101.947 15.5036 102.083 15.5095C102.083 15.569 102.099 15.6318 102.109 15.6945C101.997 15.6903 101.885 15.7071 101.779 15.7441L101.964 16.0481C102.175 15.9985 102.413 15.9522 102.542 16.1604C102.641 16.3124 102.591 16.504 102.347 16.6593ZM101.815 16.0844L101.65 15.8168C101.541 15.8928 101.524 15.9721 101.564 16.0381C101.604 16.1042 101.699 16.1075 101.815 16.0844ZM102.34 16.276C102.294 16.2033 102.198 16.2066 102.083 16.2298L102.245 16.4941C102.357 16.4181 102.38 16.3421 102.34 16.2826V16.276Z" fill="black"/>
</g>
<path d="M47.8063 51.4142C45.3084 48.8107 41.2478 49.0552 38.75 46.4582C39.5364 45.0221 40.3238 43.5848 41.1124 42.1465C43.6102 44.75 47.6708 44.5088 50.1686 47.1025C49.3823 48.5408 48.5948 49.9781 47.8063 51.4142Z" fill="#00C7FF"/>
<path opacity="0.2" d="M49.5294 47.7243C49.3905 47.5956 49.2963 47.4258 49.2606 47.2398C49.225 47.0538 49.2497 46.8612 49.3312 46.6902C47.0712 44.9391 43.9522 44.7574 41.6923 43.0029C41.6569 43.0789 41.6035 43.145 41.5368 43.1957C41.47 43.2463 41.3919 43.2799 41.3093 43.2936C41.2266 43.3072 41.1419 43.3006 41.0624 43.2741C40.9829 43.2476 40.9111 43.2022 40.8531 43.1417L39.3828 45.8312C39.5205 45.9601 39.6136 46.1294 39.6486 46.3147C39.6836 46.5001 39.6588 46.6917 39.5777 46.862C41.8377 48.6164 44.9567 48.7981 47.2166 50.5526C47.2517 50.4764 47.3048 50.4099 47.3714 50.359C47.438 50.308 47.516 50.274 47.5987 50.26C47.6814 50.246 47.7662 50.2524 47.8459 50.2786C47.9256 50.3049 47.9976 50.3501 48.0558 50.4105L49.5261 47.7243H49.5294ZM43.7804 47.8895C43.6158 47.8364 43.4652 47.7468 43.3398 47.6275C43.2145 47.5082 43.1176 47.3622 43.0564 47.2004C42.9951 47.0385 42.9711 46.865 42.986 46.6926C43.001 46.5202 43.0546 46.3534 43.1428 46.2045C43.3375 45.8785 43.6387 45.6295 43.9956 45.4995C44.3524 45.3695 44.7432 45.3665 45.102 45.4908C45.2668 45.5428 45.4177 45.6314 45.5434 45.7499C45.6691 45.8684 45.7665 46.0138 45.8281 46.1752C45.8897 46.3366 45.9141 46.5098 45.8994 46.682C45.8846 46.8541 45.8312 47.0207 45.743 47.1693C45.5491 47.4972 45.2478 47.7481 44.8901 47.8793C44.5325 48.0106 44.1405 48.0142 43.7804 47.8895Z" fill="black"/>
<g opacity="0.2">
<path d="M44.2267 47.3772C44.1969 47.4366 44.1639 47.4961 44.1309 47.5556L43.9888 47.5027L44.0846 47.3276C43.9402 47.2732 43.8173 47.1735 43.7344 47.0435L43.8996 46.9113C43.9663 47.0193 44.0642 47.1046 44.1804 47.1558C44.2366 47.0501 44.2961 46.9443 44.3555 46.8254C44.187 46.7131 44.0251 46.5809 44.1342 46.3595C44.1938 46.267 44.2839 46.1982 44.3889 46.1651C44.4938 46.1319 44.6071 46.1364 44.7091 46.1778L44.8082 45.9961L44.9502 46.049L44.8511 46.2241C44.9693 46.2697 45.0723 46.3475 45.1485 46.4487L44.9899 46.5809C44.9271 46.5032 44.8482 46.4401 44.7586 46.3959L44.5835 46.7263C44.752 46.8386 44.9139 46.9708 44.8082 47.1921C44.7474 47.2853 44.6564 47.3546 44.5504 47.3883C44.4444 47.422 44.3301 47.4181 44.2267 47.3772ZM44.458 46.647L44.6132 46.3628C44.4811 46.3364 44.3985 46.3628 44.3621 46.4454C44.3258 46.528 44.3754 46.5809 44.458 46.647ZM44.5802 47.1294C44.6232 47.0501 44.5802 46.9873 44.4778 46.9212L44.3225 47.2021C44.458 47.2318 44.5406 47.1954 44.5802 47.1294Z" fill="black"/>
</g>
<path d="M129.529 38.1684C127.17 41.0165 123.106 39.49 120.747 41.7665C119.885 40.2037 119.023 38.7004 118.16 37.3061C120.519 34.458 124.583 35.9845 126.942 33.708C127.805 35.2708 128.667 36.7675 129.529 38.1684Z" fill="#00C7FF"/>
<path opacity="0.2" d="M127.247 34.7559C126.986 34.9905 126.586 34.8484 126.401 34.4883C124.237 35.8826 121.131 35.126 118.97 36.8837C119.06 37.0486 119.095 37.238 119.069 37.4241C119.044 37.6102 118.959 37.7833 118.828 37.9178C119.363 38.8198 119.902 39.7582 120.44 40.7229C120.701 40.4883 121.101 40.6304 121.286 40.9872C123.447 39.593 126.553 40.3496 128.717 38.5952C128.626 38.431 128.591 38.2419 128.617 38.0561C128.642 37.8703 128.727 37.6978 128.859 37.5643C128.321 36.6656 127.782 35.724 127.247 34.7592V34.7559ZM124.468 39.0313C123.761 39.1271 122.879 38.615 122.486 37.8716C122.092 37.1282 122.327 36.4046 123.031 36.3055C123.735 36.2064 124.623 36.7251 125.013 37.4685C125.403 38.2119 125.175 38.9322 124.468 39.0313Z" fill="black"/>
<g opacity="0.2">
<path d="M124.267 38.3737L124.373 38.5752L124.237 38.595L124.128 38.3935C123.959 38.4076 123.789 38.3768 123.636 38.3043L123.616 38.1093C123.743 38.1727 123.884 38.2034 124.026 38.1986L123.837 37.8384C123.722 37.8421 123.607 37.8153 123.505 37.7608C123.403 37.7063 123.317 37.626 123.256 37.5278C123.228 37.4896 123.21 37.4445 123.205 37.3971C123.2 37.3498 123.207 37.3019 123.227 37.2585C123.246 37.2151 123.277 37.1776 123.316 37.15C123.355 37.1225 123.4 37.1058 123.448 37.1016L123.339 36.8968L123.477 36.877L123.583 37.0785C123.72 37.0688 123.858 37.0891 123.986 37.138C123.986 37.204 124.003 37.2668 124.013 37.3296C123.907 37.29 123.795 37.271 123.682 37.2734L123.877 37.6369C123.992 37.6329 124.107 37.6591 124.209 37.713C124.311 37.7669 124.397 37.8466 124.459 37.9441C124.487 37.9827 124.504 38.028 124.509 38.0754C124.514 38.1229 124.507 38.1709 124.487 38.2145C124.468 38.2581 124.437 38.2958 124.399 38.3237C124.36 38.3517 124.314 38.3689 124.267 38.3737ZM123.738 37.6204L123.566 37.29C123.457 37.3296 123.441 37.4023 123.484 37.4816C123.512 37.5239 123.549 37.5586 123.594 37.5828C123.638 37.6071 123.688 37.6199 123.738 37.6204ZM124.274 37.9904C124.243 37.9492 124.204 37.9155 124.159 37.892C124.114 37.8685 124.064 37.8558 124.013 37.8549L124.181 38.1853C124.277 38.1391 124.297 38.0697 124.257 37.9904H124.274Z" fill="black"/>
</g>
<path d="M115.147 60.3977C105.715 78.5876 93.204 95.0066 78.1686 108.927L55.0703 91.3231C70.1162 77.406 82.6364 60.9867 92.0751 42.7939L115.147 60.3977Z" fill="#2C80FD"/>
<path d="M95.6872 47.4956C95.4672 47.9405 95.1497 48.3301 94.7585 48.6355C94.3672 48.9409 93.9121 49.1542 93.4271 49.2596C92.942 49.365 92.4395 49.3598 91.9567 49.2443C91.474 49.1288 91.0235 48.906 90.6387 48.5925C82.4492 63.2458 72.2215 76.6627 60.2617 88.442C60.6684 88.7276 61.005 89.1019 61.2461 89.5365C61.4872 89.9711 61.6265 90.4547 61.6536 90.951C61.6806 91.4472 61.5947 91.9431 61.4022 92.4013C61.2098 92.8596 60.9158 93.2681 60.5426 93.5963L74.9381 104.569C75.7473 103.832 76.7845 103.393 77.8773 103.327C78.97 103.261 80.0525 103.571 80.9448 104.205C92.9055 92.427 103.133 79.0099 111.322 64.3559C109.587 63.0343 109.055 60.4109 110.083 58.4681L110.099 58.4384L95.7004 47.4658L95.6872 47.4956ZM93.044 82.3627C90.3248 85.9211 85.088 86.4927 81.5428 83.79C77.9976 81.0873 77.4689 76.1247 80.1914 72.5564C82.9139 68.9881 87.8468 68.1951 91.3986 70.9044C94.9504 73.6137 95.783 78.8043 93.0572 82.3627H93.044Z" fill="#00C7FF"/>
<path d="M90.571 79.3893L91.5258 80.1161L90.9906 80.8166L90.0357 80.0864C89.3452 80.886 88.4432 81.4807 87.7229 81.6261L87.1612 80.5919C87.9187 80.387 88.6012 79.9683 89.1271 79.386L87.4222 78.0875C86.4707 78.8606 85.3705 79.6338 84.1876 78.7285C83.3187 78.0677 83.0577 76.8683 83.9497 75.441L82.9883 74.7075C83.1667 74.4762 83.3451 74.2416 83.5202 74.007L84.4652 74.7273C84.9551 74.1348 85.5823 73.6709 86.2923 73.376L86.8903 74.387C86.3224 74.6259 85.8105 74.9803 85.387 75.4278L87.1051 76.7494C88.0566 75.9729 89.1271 75.1535 90.3099 76.0555C91.1756 76.7064 91.4531 77.9289 90.571 79.3893ZM86.4013 77.3044L84.8848 76.148C84.5147 76.8254 84.6205 77.3143 84.9971 77.5985C85.3738 77.8826 85.8694 77.6877 86.4013 77.3044ZM89.5732 77.2086C89.1569 76.8782 88.6778 77.1194 88.1425 77.539L89.6491 78.6888C90.0357 77.9751 89.9333 77.4895 89.5665 77.2086H89.5732Z" fill="#00C7FF"/>
<path opacity="0.2" d="M112.757 64.8516C103.636 81.2837 91.9603 96.1611 78.1674 108.927C78.1674 108.927 68.3809 93.9961 64.3203 91.2208C64.3203 91.2208 95.8471 79.5213 112.757 64.8516Z" fill="black"/>
<path d="M137.206 84.6989C121.841 98.2571 104.244 109.052 85.1945 116.606L69.9961 91.852C89.0446 84.2995 106.641 73.5044 122.004 59.9453C127.075 68.1987 132.142 76.4499 137.206 84.6989Z" fill="#2C80FD"/>
<path d="M123.7 65.6379C123.337 65.9771 122.901 66.2293 122.426 66.3758C121.951 66.5222 121.449 66.5589 120.958 66.4832C120.467 66.4075 119.999 66.2213 119.591 65.9387C119.182 65.6561 118.843 65.2843 118.598 64.8516C105.671 75.561 91.2896 84.3824 75.8843 91.0523C76.1608 91.4653 76.3399 91.9357 76.408 92.428C76.4761 92.9203 76.4314 93.4217 76.2774 93.8942C76.1234 94.3668 75.864 94.7981 75.5189 95.1558C75.1738 95.5134 74.7519 95.788 74.2852 95.9587L83.7577 111.375C84.7786 110.98 85.904 110.946 86.9469 111.279C87.9898 111.612 88.8873 112.292 89.4902 113.206C104.897 106.538 119.278 97.7166 132.204 87.0049C131.061 85.148 131.514 82.5081 133.172 81.0577L133.199 81.0346L123.736 65.6148L123.7 65.6379ZM108.667 97.2043C104.844 99.5436 99.7458 98.1955 97.433 94.386C95.1202 90.5765 96.4021 85.7659 100.225 83.43C104.048 81.094 108.938 82.1084 111.273 85.9311C113.609 89.7538 112.503 94.8717 108.667 97.2043Z" fill="#00C7FF"/>
<path d="M107.425 93.5269L108.053 94.5512L107.3 95.0104C107.095 94.68 106.887 94.3496 106.679 93.9994C105.747 94.4917 104.696 94.723 103.96 94.5974C103.91 94.2076 103.86 93.8177 103.808 93.4278C104.587 93.5095 105.374 93.365 106.074 93.0115C105.702 92.4036 105.33 91.7956 104.957 91.1877C103.788 91.5644 102.486 91.8849 101.706 90.6161C101.135 89.6844 101.323 88.4718 102.671 87.4641L102.04 86.4333L102.79 85.9707L103.411 86.985C104.082 86.6097 104.833 86.4033 105.602 86.3837C105.668 86.7703 105.73 87.1568 105.797 87.5401C105.18 87.5612 104.574 87.7074 104.016 87.9696L105.146 89.8132C106.315 89.4333 107.607 89.0566 108.384 90.3221C108.955 91.2538 108.77 92.4928 107.425 93.5269ZM104.28 90.0842C103.947 89.5423 103.617 89.0005 103.289 88.4586C102.697 88.9575 102.628 89.4498 102.869 89.8529C103.11 90.256 103.652 90.2527 104.28 90.0842ZM107.27 91.1415C106.996 90.6921 106.467 90.7351 105.823 90.9168L106.814 92.5324C107.422 92.0203 107.511 91.5313 107.27 91.1415Z" fill="#00C7FF"/>
<path opacity="0.2" d="M137.204 84.6982C121.838 98.2565 104.241 109.052 85.192 116.605L78.627 105.907L77.4805 89.3304C77.4805 89.3304 113.924 91.9604 137.204 84.6982Z" fill="black"/>
<path d="M141.611 116.781C121.665 121.48 101.057 122.691 80.6983 120.359C80.1344 110.696 79.5683 101.032 79 91.3663C99.3628 93.7029 119.976 92.4922 139.926 87.7881C140.483 97.4534 141.045 107.118 141.611 116.781Z" fill="#2C80FD"/>
<path d="M138.709 93.5961C138.229 93.7189 137.726 93.7317 137.24 93.6337C136.753 93.5357 136.295 93.3294 135.899 93.0301C135.504 92.7308 135.18 92.3461 134.953 91.9048C134.727 91.4634 134.602 90.9766 134.589 90.4805C118.138 93.8176 101.295 94.8021 84.5668 93.4045C84.6151 93.8992 84.5506 94.3983 84.378 94.8644C84.2054 95.3305 83.9293 95.7513 83.5705 96.0952C83.2117 96.4391 82.7795 96.6971 82.3065 96.8497C81.8335 97.0022 81.332 97.0455 80.8398 96.9761C81.1945 103 81.5469 109.025 81.8971 115.049C82.9839 115.181 83.9926 115.682 84.755 116.468C85.5173 117.254 85.9873 118.277 86.0866 119.367C102.815 120.765 119.657 119.78 136.109 116.443C135.98 114.266 137.626 112.148 139.77 111.666H139.803L138.742 93.5961H138.709ZM110.553 114.329C106.079 114.583 102.233 110.985 101.962 106.535C101.691 102.084 105.124 98.4497 109.598 98.1953C114.071 97.9409 117.894 101.169 118.155 105.619C118.416 110.07 115.023 114.081 110.553 114.329Z" fill="#00C7FF"/>
<path d="M111.183 110.499L111.252 111.695L110.373 111.748L110.304 110.562C109.354 110.589 108.418 110.325 107.621 109.805C107.763 109.439 107.902 109.072 108.041 108.705C108.69 109.144 109.451 109.388 110.235 109.409C110.195 108.695 110.153 107.983 110.109 107.271C108.903 107.05 107.601 106.72 107.515 105.233C107.453 104.142 108.193 103.164 109.855 102.92L109.785 101.714L110.664 101.661L110.733 102.847C111.502 102.829 112.263 103.003 112.947 103.353L112.571 104.463C112.018 104.189 111.415 104.032 110.8 104L110.928 106.161C112.134 106.376 113.453 106.653 113.542 108.144C113.618 109.217 112.871 110.225 111.183 110.499ZM110.036 105.976C109.997 105.344 109.959 104.711 109.924 104.076C109.167 104.235 108.87 104.635 108.896 105.107C108.923 105.58 109.415 105.821 110.05 105.976H110.036ZM112.174 108.322C112.144 107.8 111.659 107.585 111.004 107.443L111.113 109.336C111.903 109.168 112.214 108.794 112.174 108.322Z" fill="#00C7FF"/>
<path d="M94.1485 116.812C94.2344 117.801 94.3368 118.806 94.4558 119.828H24.9727C27.1467 101.461 24.9727 93.4985 24.9727 93.4985C48.1932 91.7507 94.4558 93.4985 94.4558 93.4985C94.4558 93.4985 93.0582 102.347 93.9998 115.017C94.0439 115.606 94.0934 116.204 94.1485 116.812Z" fill="#583AFB"/>
<path opacity="0.2" d="M94.4558 93.4985C91.4128 94.9192 76.5283 95.1207 67.9643 94.5888C59.4003 94.0569 48.1932 95.6791 48.1932 95.6791C41.7041 93.439 24.9727 93.4985 24.9727 93.4985C48.1932 91.7507 94.4558 93.4985 94.4558 93.4985Z" fill="white"/>
<path opacity="0.2" d="M24.9727 119.827C27.1467 101.46 24.9727 93.4978 24.9727 93.4978C24.9727 93.4978 38.747 93.1971 48.1932 95.6784C48.1932 95.6784 48.5236 98.4802 48.1932 99.9207C48.1932 99.9207 59.5556 98.0771 69.6692 98.3216C69.6692 98.3216 54.0148 100.122 48.1932 101.46C48.1932 101.46 38.8296 100 32.9056 99.9207C32.9056 99.9207 45.2229 101.523 48.1932 102.481C48.1932 102.481 51.7152 101.84 53.5589 101.84C53.5589 101.84 49.148 102.643 48.1932 103.36V108.435C48.1932 108.435 38.3605 108.63 33.4276 107.926C35.7701 108.293 45.322 109.763 48.1932 109.763C48.1932 109.763 59.0435 109.364 65.3442 109.763C65.3442 109.763 50.9884 110.589 48.1932 111.257H35.8692L48.1932 112.291V113.318H53.4796L48.1932 114.23C48.1932 114.23 32.9056 113.259 28.5079 114.23C28.5079 114.23 46.5511 115.05 48.1733 115.687L48.1932 117.207C48.1932 117.207 68.4269 114.534 86.3213 116.834C86.3213 116.834 60.19 115.796 48.1932 118.704C48.1932 118.704 85.7299 117.888 94.4492 119.827H24.9727Z" fill="black"/>
<path d="M25.3806 95.6787L23.5469 96.3197C23.5469 96.3197 34.5921 96.6997 41.7189 97.79C41.7123 97.79 30.7331 95.8373 25.3806 95.6787Z" fill="#583AFB"/>
<path opacity="0.2" d="M49.8047 97.79L52.5999 98.322C52.5999 98.322 65.6143 96.9079 80.9978 96.7361C80.9978 96.7361 58.7784 95.659 49.8047 97.79Z" fill="white"/>
<path opacity="0.2" d="M58.6211 100.78C58.6211 100.78 66.4251 98.6524 73.2677 98.7581C80.1103 98.8638 93.1347 97.79 93.1347 97.79L93.6468 98.7581C93.6468 98.7581 83.4341 99.3561 75.0056 99.2868C69.5106 99.2972 64.0274 99.797 58.6211 100.78Z" fill="white"/>
<path opacity="0.2" d="M50.8789 103.962C50.8789 103.962 60.183 101.979 69.3053 102.161C78.4277 102.343 89.9157 103.057 89.9157 103.057C89.9157 103.057 64.9837 103.057 58.6235 104.378L50.8789 103.962Z" fill="white"/>
<path d="M66.9727 101.081C66.9727 101.081 74.9849 100.42 81.9001 100.78C88.8154 101.14 96.0776 101.464 96.0776 101.464L93.6492 102.151C93.6492 102.151 77.0003 100.483 66.9727 101.081Z" fill="#583AFB"/>
<path opacity="0.2" d="M66.9727 101.081C66.9727 101.081 74.9849 100.42 81.9001 100.78C88.8154 101.14 96.0776 101.464 96.0776 101.464L93.6492 102.151C93.6492 102.151 77.0003 100.483 66.9727 101.081Z" fill="black"/>
<path opacity="0.2" d="M51.1797 105.643C51.1797 105.643 65.0565 105.472 71.7405 105.138C78.4245 104.804 87.3882 106.658 87.3882 106.658C87.3882 106.658 76.3297 106.423 72.9068 106.965L51.1797 105.643Z" fill="black"/>
<path opacity="0.2" d="M49.8047 107.745L58.6231 106.965L77.4096 107.745L58.3819 108.524L49.8047 107.745Z" fill="white"/>
<path opacity="0.2" d="M56.3984 111.884C56.3984 111.884 69.2213 110.688 74.2169 110.626C79.2126 110.563 92.6565 109.664 92.6565 109.664L91.1631 111.646C91.1631 111.646 65.8842 111.108 56.3984 111.884Z" fill="white"/>
<path d="M88.9141 105.139L93.6487 105.585L94.9373 105.139C92.9339 104.951 90.9174 104.951 88.9141 105.139Z" fill="#583AFB"/>
<path d="M94.2463 95.1436L96.0767 95.4376L94.1109 96.4652L82.5469 96.2207C82.5469 96.2207 91.2166 96.105 94.2463 95.1436Z" fill="#583AFB"/>
<path opacity="0.2" d="M88.9141 105.139L93.6487 105.585L94.9373 105.139C92.9339 104.951 90.9174 104.951 88.9141 105.139Z" fill="white"/>
<path opacity="0.2" d="M94.2463 95.1436L96.0767 95.4376L94.1109 96.4652L82.5469 96.2207C82.5469 96.2207 91.2166 96.105 94.2463 95.1436Z" fill="black"/>
<path opacity="0.2" d="M94.1505 116.811C91.0447 116.609 69.2812 113.874 69.2812 113.874C70.7317 113.705 89.7297 114.828 94.0018 115.017C94.0458 115.605 94.0954 116.203 94.1505 116.811Z" fill="black"/>
<path d="M61.3828 113.5C61.3828 113.5 81.7321 113.447 87.5538 113.867C93.3754 114.287 93.8975 113.5 93.8975 113.5L96.7984 114.898C96.7984 114.898 96.9471 116.285 89.3115 115.317C81.676 114.349 61.3828 113.5 61.3828 113.5Z" fill="#583AFB"/>
<path d="M44.7565 103.268C44.7565 103.268 32.8389 101.378 25.8906 101.86C26.9349 102.097 27.9078 102.58 28.7288 103.268H44.7565Z" fill="#583AFB"/>
<path d="M25.8748 108.435C26.1458 108.405 34.7956 109.545 38.0996 109.664L24.6523 110.206L25.8748 108.435Z" fill="#583AFB"/>
<path d="M25.3872 115.909L38.4512 116.372L23.5469 117.475L25.3872 115.909Z" fill="#583AFB"/>
<path d="M49.1884 92.6065C49.1884 92.6065 67.7436 95.7783 78.5048 83.0811L98.7781 88.2849C98.7781 88.2849 95.0479 96.0228 67.03 94.9953C39.012 93.9677 49.1884 92.6065 49.1884 92.6065Z" fill="#2C80FD"/>
<path d="M59.7852 93.2904C59.7852 93.2904 71.1278 92.6924 77.5409 85.4368C78.1295 85.619 78.7592 85.62 79.3484 85.4397C79.9376 85.2594 80.459 84.9061 80.8449 84.4258L95.6435 88.3476C95.6435 88.3476 94.0509 88.906 94.6093 90.7496C94.5961 90.7496 75.1719 98.6198 59.7852 93.2904Z" fill="#00C7FF"/>
<path d="M76.7159 56.4902L77.0629 54.6499C77.0629 54.6499 76.3459 53.9693 76.4285 53.3283C76.5111 52.6873 79.7028 51.6763 80.2677 51.6201C80.8327 51.564 80.618 53.8768 80.4462 54.2964C80.2744 54.716 78.358 55.2215 78.358 55.2215L78.1168 57.161L76.7159 56.4902Z" fill="#FFB7AD"/>
<path d="M39.9188 65.5363L38.6533 64.1552C38.6533 64.1552 38.9011 63.2004 38.498 62.7114C38.095 62.2224 34.8405 63.0253 34.3383 63.2863C33.8361 63.5473 35.2304 65.3876 35.6004 65.652C35.9705 65.9163 37.8604 65.3216 37.8604 65.3216L39.0895 66.8447L39.9188 65.5363Z" fill="#FFB7AD"/>
<path d="M65.0859 62.5694C68.6443 62.3711 71.869 63.1145 73.5244 62.5694C75.1797 62.0242 76.7854 55.1387 76.7854 55.1387L78.5266 55.7268C78.5266 55.7268 77.8658 62.8932 75.0045 64.8128C72.1433 66.7324 65.5122 66.7159 65.5122 66.7159L65.0859 62.5694Z" fill="#F4F3FC"/>
<path opacity="0.2" d="M68.3687 66.5701C66.7398 66.7187 65.5107 66.7154 65.5107 66.7154L65.3125 64.7793C66.4201 65.2097 67.4518 65.8143 68.3687 66.5701Z" fill="black"/>
<path d="M87.8316 118.228L90.1345 117.597L89.7215 111.974L87.4219 112.608L87.8316 118.228Z" fill="#E5A59C"/>
<path d="M90.279 117.291L87.6027 117.476C87.5577 117.477 87.5152 117.497 87.4843 117.529C87.4534 117.562 87.4366 117.606 87.4375 117.651L87.4541 119.775C87.4617 119.886 87.5128 119.99 87.5963 120.063C87.6798 120.137 87.789 120.175 87.9001 120.168C88.8318 120.089 89.2746 120.003 90.4508 119.914C91.5003 119.878 92.5459 119.768 93.5797 119.584C94.5709 119.356 94.3066 118.397 93.8704 118.407C92.7438 118.347 91.6521 117.995 90.7019 117.386C90.5751 117.309 90.4266 117.276 90.279 117.291Z" fill="#263238"/>
<path d="M91.149 117.637C90.9345 117.647 90.7196 117.634 90.508 117.598C90.4973 117.596 90.4872 117.592 90.479 117.585C90.4708 117.577 90.4648 117.568 90.4618 117.558C90.4602 117.547 90.4609 117.537 90.4637 117.526C90.4666 117.516 90.4715 117.507 90.4783 117.498C90.551 117.439 91.1953 116.933 91.4959 117.026C91.5298 117.037 91.5604 117.056 91.5847 117.082C91.609 117.108 91.6262 117.14 91.6347 117.175C91.6578 117.226 91.6657 117.283 91.6575 117.338C91.6493 117.394 91.6253 117.446 91.5884 117.488C91.4647 117.59 91.3086 117.642 91.149 117.637ZM91.4629 117.142C91.3043 117.092 90.921 117.32 90.6567 117.515C91.0895 117.568 91.4001 117.535 91.5058 117.416C91.5271 117.387 91.5407 117.354 91.5453 117.318C91.5499 117.283 91.5454 117.247 91.5323 117.214C91.5269 117.198 91.5179 117.183 91.5059 117.17C91.4939 117.157 91.4792 117.148 91.4629 117.142Z" fill="#263238"/>
<path d="M90.5212 117.597C90.5176 117.599 90.5137 117.6 90.5097 117.6C90.5057 117.6 90.5017 117.599 90.4981 117.597C90.4902 117.593 90.4832 117.587 90.4776 117.581C90.4719 117.574 90.4676 117.566 90.4651 117.557C90.4651 117.534 90.3626 116.847 90.584 116.596C90.6134 116.565 90.6494 116.54 90.6894 116.524C90.7293 116.508 90.7723 116.501 90.8153 116.503C90.8627 116.502 90.9094 116.516 90.9482 116.543C90.9869 116.571 91.0157 116.61 91.03 116.655C91.0994 116.913 90.7789 117.435 90.5543 117.59C90.5496 117.594 90.5442 117.596 90.5385 117.597C90.5328 117.599 90.5269 117.598 90.5212 117.597ZM90.7856 116.626C90.7631 116.627 90.7412 116.632 90.7212 116.643C90.7012 116.653 90.6837 116.667 90.6699 116.685C90.5537 116.922 90.5178 117.19 90.5675 117.448C90.7737 117.25 90.8996 116.983 90.921 116.698C90.921 116.665 90.8913 116.629 90.812 116.626H90.7856Z" fill="#263238"/>
<path opacity="0.2" d="M87.4219 112.609L89.7248 111.978L89.9594 115.192L87.6432 115.708L87.4219 112.609Z" fill="black"/>
<path d="M84.8202 118.146L82.6428 119.14L82.0911 116.801L81.3477 113.656L83.5151 112.661L84.2618 115.803L84.8202 118.146Z" fill="#E5A59C"/>
<path opacity="0.2" d="M84.2618 115.803L82.0911 116.801L81.3477 113.656L83.5151 112.661L84.2618 115.803Z" fill="black"/>
<path d="M84.9083 117.822L82.2982 118.433C82.2544 118.441 82.2157 118.466 82.1903 118.503C82.1649 118.539 82.155 118.584 82.1627 118.628L82.5195 120.726C82.5302 120.781 82.5516 120.833 82.5825 120.879C82.6135 120.925 82.6533 120.965 82.6997 120.996C82.7462 121.027 82.7983 121.048 82.853 121.058C82.9077 121.069 82.964 121.068 83.0184 121.056C83.927 120.828 84.34 120.673 85.4964 120.396C86.5277 120.2 87.5435 119.931 88.5361 119.589C89.4646 119.209 89.0648 118.304 88.6386 118.383C87.6275 118.565 86.1143 118.235 85.3346 117.875C85.2023 117.81 85.0523 117.791 84.9083 117.822Z" fill="#263238"/>
<path d="M85.8263 118.027C85.6155 118.07 85.4005 118.09 85.1854 118.087C85.1745 118.088 85.1634 118.086 85.1538 118.081C85.1443 118.075 85.1368 118.067 85.1325 118.057C85.1276 118.048 85.125 118.037 85.125 118.027C85.125 118.017 85.1276 118.007 85.1325 117.997C85.1953 117.928 85.747 117.337 86.0609 117.366C86.0957 117.372 86.1285 117.387 86.1562 117.409C86.1839 117.431 86.2057 117.459 86.2195 117.492C86.2522 117.541 86.2696 117.598 86.2696 117.657C86.2696 117.716 86.2522 117.773 86.2195 117.822C86.116 117.934 85.9771 118.006 85.8263 118.027ZM86.0576 117.489C85.8891 117.462 85.5488 117.75 85.3175 117.984C85.7536 117.968 86.0576 117.885 86.1402 117.753C86.1589 117.722 86.1687 117.687 86.1687 117.65C86.1687 117.614 86.1589 117.579 86.1402 117.548C86.1343 117.532 86.124 117.518 86.1106 117.508C86.0972 117.497 86.0811 117.491 86.0642 117.489H86.0576Z" fill="#263238"/>
<path d="M85.1955 118.086C85.1924 118.087 85.189 118.088 85.1856 118.088C85.1821 118.088 85.1787 118.087 85.1756 118.086C85.1668 118.083 85.1586 118.079 85.1517 118.072C85.1449 118.066 85.1395 118.058 85.136 118.05C85.136 118.03 84.9179 117.362 85.0997 117.082C85.1232 117.046 85.1544 117.016 85.191 116.993C85.2275 116.971 85.2686 116.957 85.3111 116.953C85.3584 116.943 85.4075 116.949 85.4507 116.971C85.4938 116.992 85.5285 117.028 85.549 117.072C85.658 117.313 85.4268 117.881 85.2186 118.063C85.2174 118.069 85.2146 118.074 85.2105 118.078C85.2064 118.082 85.2012 118.085 85.1955 118.086ZM85.3012 117.095C85.2576 117.106 85.2199 117.133 85.1955 117.171C85.1199 117.424 85.1268 117.695 85.2153 117.944C85.3877 117.716 85.4711 117.433 85.4499 117.148C85.4499 117.115 85.4069 117.082 85.3276 117.091L85.3012 117.095Z" fill="#263238"/>
<path d="M68.6886 86.2124L67.9849 78.4414L55.0101 78.7454C55.0101 78.7454 53.4737 89.5726 54.5904 91.5616C56.5728 95.1134 69.6633 93.0979 72.7228 93.3986C73.9717 94.0594 80.6524 116.219 80.6524 116.219L84.3958 114.709C84.3958 114.709 80.3716 96.0121 79.4398 92.49C78.181 87.5935 72.9871 87.6794 68.6886 86.2124Z" fill="#263238"/>
<path d="M90.1895 114.326L86.8855 114.63C86.8855 114.63 82.8381 94.0165 82.5242 93.9273C81.9625 93.7654 80.3204 93.5803 79.4382 93.3491C73.3126 91.7565 58.2266 88.8259 58.2266 88.8259L63.7905 83.4668C63.7905 83.4668 89.0132 86.4933 89.5617 92.414C89.8425 95.2489 90.1895 114.326 90.1895 114.326Z" fill="#263238"/>
<path opacity="0.2" d="M81.6353 93.9439C81.0703 93.782 80.3137 93.5838 79.4382 93.3525C79.6826 93.4813 78.9756 90.2731 78.2685 89.4438C76.8643 87.7918 71.2277 86.8932 69.209 86.5694C67.5173 86.2984 61.8477 85.7995 61.8477 85.7995C61.8477 85.7995 71.8588 84.9339 79.4018 87.0055C83.132 88.0297 82.4679 91.6707 81.6353 93.9439Z" fill="black"/>
<path d="M53.2773 64.4562C53.2773 64.4562 58.0648 61.9154 65.0858 62.5696C65.0858 62.5696 67.5209 68.7613 67.9835 78.4288L54.9293 79.3341C54.9293 79.3341 55.1639 71.0476 53.2773 64.4562Z" fill="#F4F3FC"/>
<path opacity="0.2" d="M54.6867 72.5874C54.5711 71.2658 54.4059 69.8748 54.168 68.4574C54.3998 68.2217 54.6791 68.0382 54.9874 67.9188L55.0039 67.7734C54.994 67.932 55.6779 70.3737 54.6867 72.5874Z" fill="black"/>
<path d="M56.8945 63.557C58.0906 64.644 61.0179 64.2409 61.0179 64.2409C61.0179 64.2409 62.845 63.742 62.4618 63.1704C61.3847 62.992 60.8659 62.4898 60.6479 61.8488C60.5322 61.4489 60.4951 61.0304 60.5388 60.6164C60.5388 60.3917 60.5917 60.1604 60.6314 59.9325L57.0003 57.2529C57.4859 59.0206 58.0675 62.275 56.8945 63.557Z" fill="#FFB7AD"/>
<path opacity="0.2" d="M57.8477 58.9551C57.993 61.1258 59.7772 61.7271 60.6494 61.8494C60.5337 61.4495 60.4967 61.031 60.5404 60.617L57.8477 58.9551Z" fill="black"/>
<path d="M60.1417 49.8062C61.4864 50.1696 62.6065 53.2721 61.5988 55.3239C60.5911 57.3756 57.5547 51.6366 57.5547 51.6366C57.5547 51.6366 59.2728 49.5749 60.1417 49.8062Z" fill="#263238"/>
<path d="M62.9491 56.9228C62.9557 57.0482 62.9557 57.174 62.9491 57.2994C62.9259 58.1948 62.5647 59.0483 61.938 59.6882C61.378 60.2716 60.6204 60.625 59.8136 60.6794C59.2396 60.7079 58.6686 60.58 58.1616 60.3094C56.5558 59.4933 56.123 58.0792 55.188 55.7466C54.9551 55.2038 54.8664 54.61 54.9303 54.0229C54.9943 53.4357 55.2088 52.8751 55.5531 52.3952C55.8974 51.9153 56.3598 51.5324 56.8956 51.2837C57.4313 51.035 58.0221 50.9289 58.6109 50.9756C61.2541 51.1705 62.7442 54.61 62.9491 56.9228Z" fill="#FFB7AD"/>
<path d="M59.0238 55.2015C59.0733 55.3964 59.2385 55.5319 59.3542 55.4757C59.4698 55.4196 59.5326 55.2412 59.4698 55.0495C59.4071 54.8579 59.2485 54.7191 59.1394 54.7753C59.0304 54.8315 58.961 55.0033 59.0238 55.2015Z" fill="#263238"/>
<path d="M61.2143 54.4811C61.2638 54.676 61.4323 54.795 61.5447 54.7553C61.657 54.7157 61.7231 54.5207 61.6603 54.3258C61.5976 54.1308 61.4423 54.0119 61.3299 54.0515C61.2176 54.0912 61.1548 54.296 61.2143 54.4811Z" fill="#263238"/>
<path d="M60.5508 54.8047C60.9768 55.3211 61.4715 55.7769 62.0211 56.1593C61.9192 56.2985 61.7879 56.4135 61.6366 56.4963C61.4853 56.5791 61.3176 56.6276 61.1455 56.6384L60.5508 54.8047Z" fill="#D58745"/>
<path d="M61.7167 53.2881C61.7007 53.3035 61.6813 53.3148 61.66 53.3211C61.6387 53.3274 61.6163 53.3286 61.5945 53.3244C61.4499 53.2849 61.298 53.2798 61.1511 53.3097C61.0042 53.3395 60.8664 53.4034 60.7486 53.4962C60.7259 53.5181 60.6953 53.5301 60.6637 53.5295C60.6321 53.5288 60.602 53.5157 60.5801 53.4929C60.5582 53.4701 60.5463 53.4396 60.5469 53.408C60.5475 53.3764 60.5607 53.3463 60.5834 53.3244C60.7302 53.2039 60.9035 53.1201 61.0891 53.0799C61.2747 53.0397 61.4672 53.0442 61.6506 53.0931C61.6661 53.0963 61.6808 53.1024 61.6938 53.1113C61.7069 53.1202 61.718 53.1316 61.7266 53.1448C61.7353 53.158 61.7411 53.1728 61.744 53.1883C61.7468 53.2039 61.7465 53.2198 61.7432 53.2352C61.7363 53.2538 61.7275 53.2715 61.7167 53.2881Z" fill="#263238"/>
<path d="M58.3 54.4678C58.2777 54.4762 58.253 54.4762 58.2307 54.4678C58.2036 54.452 58.1839 54.426 58.1759 54.3957C58.1678 54.3654 58.1721 54.3331 58.1877 54.3059C58.2841 54.1414 58.4183 54.0023 58.5791 53.9C58.74 53.7977 58.923 53.7353 59.1128 53.7178C59.1284 53.7174 59.144 53.72 59.1586 53.7256C59.1732 53.7312 59.1866 53.7396 59.1979 53.7503C59.2093 53.761 59.2184 53.7739 59.2248 53.7882C59.2311 53.8025 59.2346 53.8178 59.2351 53.8335C59.2351 53.8648 59.2232 53.8949 59.2016 53.9176C59.1801 53.9404 59.1507 53.954 59.1194 53.9557C58.9699 53.9738 58.8266 54.0265 58.701 54.1096C58.5753 54.1928 58.4709 54.3041 58.3959 54.4348C58.3831 54.4467 58.3679 54.4557 58.3514 54.4614C58.3349 54.4671 58.3174 54.4693 58.3 54.4678Z" fill="#263238"/>
<path d="M55.9583 52.1787L56.477 53.1699C56.3365 53.3219 56.2585 53.5213 56.2585 53.7283C56.2585 53.9353 56.3365 54.1347 56.477 54.2867C57.1378 55.0268 57.1643 56.5598 56.7017 57.3528C56.7017 57.3528 56.5398 56.986 56.2557 57.1942C55.9715 57.4023 56.8107 59.3286 57.7854 60.0257C57.7854 60.0257 56.5266 59.54 55.2116 57.6865C53.9957 55.975 53.3283 54.4122 53.4373 53.5267L55.9583 52.1787Z" fill="#263238"/>
<path d="M54.7918 58.0166C55.2315 58.4688 55.8329 58.7279 56.4636 58.7368C57.3028 58.7368 57.501 57.9406 57.0847 57.2633C56.7114 56.6652 55.8226 55.9218 55.0726 56.2489C54.3226 56.576 54.2565 57.4549 54.7918 58.0166Z" fill="#FFB7AD"/>
<path d="M61.4006 57.4682C61.2484 57.8011 61.1203 58.1445 61.0174 58.4957L60.8257 58.4726C59.9601 58.357 59.5933 58.0167 59.4546 57.6731C59.3901 57.5048 59.3663 57.3236 59.3852 57.1444C59.3919 57.0414 59.4142 56.9401 59.4513 56.8438C59.9537 57.1542 60.5172 57.3526 61.1033 57.4253C61.2949 57.4583 61.4006 57.4682 61.4006 57.4682Z" fill="#263238"/>
<path d="M61.1081 57.4253L60.9859 57.7259C60.1698 57.6136 59.6081 57.4253 59.3867 57.1444C59.3934 57.0414 59.4157 56.9401 59.4528 56.8438C59.9562 57.1547 60.5209 57.353 61.1081 57.4253Z" fill="white"/>
<path d="M60.8282 58.4724C59.9625 58.3568 59.5958 58.0165 59.457 57.6729C59.7866 57.7277 60.1041 57.8395 60.3954 58.0033C60.5847 58.1111 60.7359 58.2751 60.8282 58.4724Z" fill="#DE5753"/>
<path d="M58.1705 52.3501C58.1705 52.3501 57.9392 50.7708 58.937 51.078C59.9349 51.3853 60.0042 50.784 59.7069 49.5648C59.4095 48.3456 56.5483 47.9128 54.9293 49.9117C53.3103 51.9106 52.7454 53.5858 53.5284 54.4712C54.3115 55.3567 57.295 52.7432 57.295 52.7432C57.3763 52.2968 57.5657 51.8771 57.8467 51.5208C57.8651 51.8243 57.9783 52.1144 58.1705 52.3501Z" fill="#263238"/>
<path d="M59.7148 64.1157L61.2975 65.5133C61.2975 65.5133 62.1664 71.3944 64.3008 73.9649H65.6224L65.8834 73.053C63.898 70.8364 62.4727 68.1761 61.727 65.2952V63.4219L59.7148 64.1157Z" fill="#1A9DFE"/>
<path d="M57.2988 62.2848L60.55 63.5039L60.8275 61.8486L62.5159 62.4599L62.9487 64.5513L60.6491 63.983L59.5092 65.5095L56.1953 63.3652L57.2988 62.2848Z" fill="#583AFB"/>
<path opacity="0.5" d="M57.2988 62.2848L60.55 63.5039L60.8275 61.8486L62.5159 62.4599L62.9487 64.5513L60.6491 63.983L59.5092 65.5095L56.1953 63.3652L57.2988 62.2848Z" fill="#462EC9"/>
<path d="M54.7422 79.1295L68.1333 77.8574L68.163 79.483L54.7488 80.5799L54.7422 79.1295Z" fill="black"/>
<path d="M65.3009 78.1907C65.2405 78.1362 65.1692 78.0951 65.0918 78.0701C65.0143 78.045 64.9325 78.0366 64.8516 78.0453L63.6654 78.1676C63.5188 78.1825 63.3832 78.2519 63.2853 78.362C63.1874 78.4721 63.1344 78.615 63.1368 78.7623V79.5222C63.1403 79.6785 63.2055 79.8271 63.3182 79.9354C63.4308 80.0438 63.5818 80.1031 63.7381 80.1004H63.7877L64.9738 79.9749C65.1201 79.96 65.2554 79.8905 65.3528 79.7803C65.4501 79.67 65.5024 79.5272 65.4992 79.3802V78.6235C65.4987 78.5415 65.4808 78.4604 65.4466 78.3858C65.4125 78.3112 65.3628 78.2447 65.3009 78.1907ZM64.954 79.6709L63.7712 79.7965C63.7306 79.8021 63.6893 79.799 63.65 79.7876C63.6107 79.7761 63.5743 79.7565 63.5431 79.73C63.5119 79.7035 63.4867 79.6707 63.4691 79.6337C63.4514 79.5968 63.4418 79.5566 63.4408 79.5156V78.759C63.4396 78.6871 63.4653 78.6173 63.5131 78.5635C63.5608 78.5097 63.6269 78.4757 63.6985 78.4683L64.8813 78.346H64.9077C64.9828 78.346 65.055 78.3754 65.1087 78.4279C65.1624 78.4803 65.1935 78.5518 65.1952 78.6269V78.7293H65.1489L64.8185 78.759C64.7921 78.7614 64.7663 78.769 64.7428 78.7813C64.7192 78.7936 64.6984 78.8105 64.6813 78.8309C64.6643 78.8513 64.6515 78.8748 64.6435 78.9002C64.6356 78.9256 64.6328 78.9523 64.6352 78.9787C64.6375 79.0052 64.6451 79.0309 64.6575 79.0545C64.6698 79.078 64.6866 79.0989 64.707 79.1159C64.7274 79.1329 64.751 79.1458 64.7764 79.1537C64.8017 79.1616 64.8284 79.1645 64.8549 79.1621L65.1853 79.1291H65.2018V79.3901C65.2016 79.459 65.1763 79.5254 65.1307 79.5771C65.0851 79.6288 65.0223 79.6621 64.954 79.6709Z" fill="white"/>
<path d="M53.2783 64.4561C51.0448 65.7777 47.8201 70.129 46.6868 70.0398C45.5536 69.9506 39.4412 64.5221 39.4412 64.5221L38.0469 66.0321C38.0469 66.0321 43.6934 72.7755 46.3234 73.2843C48.9534 73.7932 54.7453 68.9164 54.7453 68.9164C55.0729 68.0761 55.0729 67.1434 54.7453 66.303C54.4483 65.5567 53.938 64.9143 53.2783 64.4561Z" fill="#F4F3FC"/>
<path d="M73.7202 95.1701C73.7202 95.1701 29.3772 95.4774 26.625 89.2494L46.373 87.8154C50.2921 89.4595 54.3033 90.8749 58.3864 92.0545C62.9459 93.386 68.3512 94.6481 73.7202 95.1701Z" fill="#00C7FF"/>
<path opacity="0.2" d="M73.7217 95.17C73.7217 95.17 72.3307 95.17 70.0179 95.17C60.5321 94.5092 49.4571 89.7977 49.4571 89.7977C45.4593 90.6765 42.7104 89.1005 42.7104 89.1005L31.9327 89.7184C31.9908 89.9838 31.9882 90.2588 31.9253 90.5231C31.8624 90.7874 31.7407 91.0341 31.5693 91.2448C37.1563 92.8142 43.1795 93.7691 48.0893 94.3473C37.718 93.5708 27.8754 92.0907 26.6133 89.2591L46.3613 87.8252C46.3613 87.8252 60.1555 93.8484 73.7217 95.17Z" fill="white"/>
<path opacity="0.2" d="M73.7202 95.1698C73.7202 95.1698 29.3772 95.4771 26.625 89.249C26.625 89.249 41.6086 95.7216 58.3864 92.0541C62.9459 93.3856 68.3512 94.6478 73.7202 95.1698Z" fill="black"/>
</svg>
