<svg width="142" height="19" viewBox="0 0 142 19" fill="none" xmlns="http://www.w3.org/2000/svg">
<path d="M13.5408 7.8L10.4688 14.28C10.0208 15.144 9.4608 15.576 8.78881 15.576C8.1328 15.576 7.5808 15.12 7.1328 14.208L4.0128 7.8V18H0.676805V0.912H3.9648L8.78881 10.776L13.5888 0.912H16.8768V18H13.5408V7.8ZM32.0339 0.912L26.8979 10.992V18H23.5859V10.992L18.4499 0.912H22.0739L25.2659 7.8L28.4099 0.912H32.0339ZM50.7944 3.888H46.2104V18H42.8744V3.888H38.3144V0.912H50.7944V3.888ZM66.3294 18H62.4654L59.1294 11.664H56.7294V18H53.3934V4.584C53.3934 3.304 53.6894 2.376 54.2814 1.8C54.8734 1.208 55.8654 0.912 57.2574 0.912H60.0894C61.7854 0.912 63.1294 1.432 64.1214 2.472C65.1294 3.496 65.6334 4.8 65.6334 6.384C65.6334 7.536 65.3294 8.536 64.7214 9.384C64.1294 10.216 63.3934 10.792 62.5134 11.112L66.3294 18ZM59.8734 8.88C60.5774 8.88 61.1534 8.64 61.6014 8.16C62.0654 7.664 62.2974 7.056 62.2974 6.336C62.2974 5.6 62.0734 5.008 61.6254 4.56C61.1934 4.112 60.6094 3.888 59.8734 3.888H58.2174C57.2254 3.888 56.7294 4.392 56.7294 5.4V8.88H59.8734ZM82.0565 18H78.5765L77.6165 15.048H71.8805L70.9445 18H67.4645L72.9365 2.352C73.1765 1.808 73.4405 1.432 73.7285 1.224C74.0325 1.016 74.4005 0.912 74.8325 0.912C75.2645 0.912 75.6085 1.008 75.8645 1.2C76.1365 1.392 76.3765 1.776 76.5845 2.352L82.0565 18ZM76.8485 12.24L74.8325 5.472L72.7205 12.24H76.8485ZM97.2892 9.384L97.3132 11.232C97.2492 12.4 97.1052 13.384 96.8812 14.184C96.6572 14.984 96.2172 15.712 95.5612 16.368C94.4732 17.456 92.8892 18 90.8092 18C88.3612 18 86.6812 17.68 85.7692 17.04C84.8572 16.384 84.4012 15.208 84.4012 13.512V0.912H91.0492C92.9692 0.912 94.4732 1.456 95.5612 2.544C96.4412 3.424 96.9612 4.496 97.1212 5.76C97.2332 6.656 97.2892 7.864 97.2892 9.384ZM93.2332 13.968C93.5372 13.6 93.7292 13.096 93.8092 12.456C93.9052 11.8 93.9532 10.784 93.9532 9.408C93.9532 8.032 93.9052 7.04 93.8092 6.432C93.7292 5.808 93.5372 5.312 93.2332 4.944C92.6572 4.24 91.8252 3.888 90.7372 3.888H87.7372V13.344C87.7372 13.984 87.9532 14.424 88.3852 14.664C88.8172 14.904 89.5852 15.024 90.6892 15.024C91.8092 15.024 92.6572 14.672 93.2332 13.968ZM111.477 18H105.429C103.509 18 102.157 17.672 101.373 17.016C100.605 16.344 100.221 15.168 100.221 13.488V0.912H111.477V3.888H103.557V7.896H109.101L108.861 10.872H103.557V13.248C103.557 13.92 103.709 14.384 104.013 14.64C104.317 14.896 104.869 15.024 105.669 15.024H111.477V18ZM127.689 18H123.825L120.489 11.664H118.089V18H114.753V4.584C114.753 3.304 115.049 2.376 115.641 1.8C116.233 1.208 117.225 0.912 118.617 0.912H121.449C123.145 0.912 124.489 1.432 125.481 2.472C126.489 3.496 126.993 4.8 126.993 6.384C126.993 7.536 126.689 8.536 126.081 9.384C125.489 10.216 124.753 10.792 123.873 11.112L127.689 18ZM121.233 8.88C121.937 8.88 122.513 8.64 122.961 8.16C123.425 7.664 123.657 7.056 123.657 6.336C123.657 5.6 123.433 5.008 122.985 4.56C122.553 4.112 121.969 3.888 121.233 3.888H119.577C118.585 3.888 118.089 4.392 118.089 5.4V8.88H121.233ZM141.976 12.96C141.976 14.576 141.384 15.848 140.2 16.776C139.016 17.688 137.504 18.144 135.664 18.144C134.208 18.144 132.8 17.744 131.44 16.944C130.768 16.528 130.216 15.944 129.784 15.192C129.352 14.424 129.136 13.552 129.136 12.576L132.16 12.432C132.16 13.296 132.528 13.968 133.264 14.448C134 14.928 134.816 15.168 135.712 15.168C137.712 15.168 138.712 14.464 138.712 13.056C138.712 11.904 138.032 11.224 136.672 11.016L133.888 10.728C132.496 10.52 131.392 10.024 130.576 9.24C129.76 8.456 129.352 7.328 129.352 5.856C129.352 4.384 129.936 3.168 131.104 2.208C132.272 1.248 133.744 0.767999 135.52 0.767999C137.312 0.767999 138.752 1.224 139.84 2.136C140.928 3.032 141.472 4.192 141.472 5.616L138.496 5.76C138.224 4.368 137.288 3.672 135.688 3.672C134.712 3.672 133.944 3.88 133.384 4.296C132.84 4.712 132.568 5.208 132.568 5.784C132.568 6.344 132.768 6.792 133.168 7.128C133.568 7.448 134.064 7.648 134.656 7.728L137.392 8.016C140.448 8.432 141.976 10.08 141.976 12.96Z" fill="#2A3144"/>
</svg>
