<svg width="128" height="38" viewBox="0 0 128 38" fill="none" xmlns="http://www.w3.org/2000/svg">
<path d="M18.0489 2.92705C18.3483 2.00574 19.6517 2.00574 19.9511 2.92705L23.0413 12.4377C23.1751 12.8497 23.5591 13.1287 23.9923 13.1287H33.9924C34.9611 13.1287 35.3639 14.3683 34.5802 14.9377L26.4899 20.8156C26.1395 21.0702 25.9928 21.5216 26.1267 21.9336L29.2169 31.4443C29.5162 32.3656 28.4617 33.1317 27.678 32.5623L19.5878 26.6844C19.2373 26.4298 18.7627 26.4298 18.4122 26.6844L10.322 32.5623C9.53826 33.1317 8.48378 32.3656 8.78314 31.4443L11.8733 21.9336C12.0072 21.5216 11.8605 21.0702 11.5101 20.8156L3.41982 14.9377C2.63611 14.3683 3.03889 13.1287 4.00761 13.1287H14.0077C14.4409 13.1287 14.8249 12.8497 14.9587 12.4377L18.0489 2.92705Z" fill="url(#paint0_linear_117_976)"/>
<path opacity="0.35" d="M19 26.2569L25.9022 21.2422L27.0407 24.7463L19 26.2569Z" fill="#2A3144"/>
<g opacity="0.9">
<path d="M48.8555 10.25V24.4688H46.4238V10.25H48.8555ZM53.3184 10.25V12.2031H42V10.25H53.3184Z" fill="#2A3144"/>
<path d="M56.6191 15.9141V24.4688H54.2656V13.9023H56.5117L56.6191 15.9141ZM59.8516 13.834L59.832 16.0215C59.6888 15.9954 59.5326 15.9759 59.3633 15.9629C59.2005 15.9499 59.0378 15.9434 58.875 15.9434C58.4714 15.9434 58.1165 16.002 57.8105 16.1191C57.5046 16.2298 57.2474 16.3926 57.0391 16.6074C56.8372 16.8158 56.681 17.0697 56.5703 17.3691C56.4596 17.6686 56.3945 18.0039 56.375 18.375L55.8379 18.4141C55.8379 17.75 55.903 17.1348 56.0332 16.5684C56.1634 16.002 56.3587 15.5039 56.6191 15.0742C56.8861 14.6445 57.2181 14.3092 57.6152 14.0684C58.0189 13.8275 58.4844 13.707 59.0117 13.707C59.1549 13.707 59.3079 13.7201 59.4707 13.7461C59.64 13.7721 59.7669 13.8014 59.8516 13.834Z" fill="#2A3144"/>
<path d="M67.6836 21.9785V13.9023H70.0469V24.4688H67.8203L67.6836 21.9785ZM68.0156 19.7812L68.8066 19.7617C68.8066 20.4714 68.7285 21.1257 68.5723 21.7246C68.416 22.3171 68.1751 22.8346 67.8496 23.2773C67.5241 23.7135 67.1074 24.0553 66.5996 24.3027C66.0918 24.5436 65.4831 24.6641 64.7734 24.6641C64.2591 24.6641 63.7871 24.5892 63.3574 24.4395C62.9277 24.2897 62.5566 24.0586 62.2441 23.7461C61.9382 23.4336 61.7005 23.0267 61.5312 22.5254C61.362 22.0241 61.2773 21.4251 61.2773 20.7285V13.9023H63.6309V20.748C63.6309 21.1322 63.6764 21.4544 63.7676 21.7148C63.8587 21.9688 63.9824 22.1738 64.1387 22.3301C64.2949 22.4863 64.4772 22.597 64.6855 22.6621C64.8939 22.7272 65.1152 22.7598 65.3496 22.7598C66.0202 22.7598 66.5475 22.6296 66.9316 22.3691C67.3223 22.1022 67.599 21.7441 67.7617 21.2949C67.931 20.8457 68.0156 20.3411 68.0156 19.7812Z" fill="#2A3144"/>
<path d="M78.3867 21.6074C78.3867 21.373 78.3281 21.1615 78.2109 20.9727C78.0938 20.7773 77.8691 20.6016 77.5371 20.4453C77.2116 20.2891 76.7298 20.1458 76.0918 20.0156C75.5319 19.8919 75.0176 19.7454 74.5488 19.5762C74.0866 19.4004 73.6895 19.1888 73.3574 18.9414C73.0254 18.694 72.7682 18.401 72.5859 18.0625C72.4036 17.724 72.3125 17.3333 72.3125 16.8906C72.3125 16.4609 72.4069 16.054 72.5957 15.6699C72.7845 15.2858 73.0547 14.9473 73.4062 14.6543C73.7578 14.3613 74.1842 14.1302 74.6855 13.9609C75.1934 13.7917 75.7598 13.707 76.3848 13.707C77.2702 13.707 78.0286 13.8568 78.6602 14.1562C79.2982 14.4492 79.7865 14.8496 80.125 15.3574C80.4635 15.8587 80.6328 16.4251 80.6328 17.0566H78.2793C78.2793 16.7767 78.2077 16.5163 78.0645 16.2754C77.9277 16.028 77.7194 15.8294 77.4395 15.6797C77.1595 15.5234 76.8079 15.4453 76.3848 15.4453C75.9811 15.4453 75.6458 15.5104 75.3789 15.6406C75.1185 15.7643 74.9232 15.9271 74.793 16.1289C74.6693 16.3307 74.6074 16.5521 74.6074 16.793C74.6074 16.9688 74.64 17.1283 74.7051 17.2715C74.7767 17.4082 74.8939 17.5352 75.0566 17.6523C75.2194 17.763 75.4408 17.8672 75.7207 17.9648C76.0072 18.0625 76.3652 18.1569 76.7949 18.248C77.6022 18.4173 78.2956 18.6354 78.875 18.9023C79.4609 19.1628 79.9102 19.5013 80.2227 19.918C80.5352 20.3281 80.6914 20.849 80.6914 21.4805C80.6914 21.9492 80.5905 22.3789 80.3887 22.7695C80.1934 23.1536 79.9069 23.4889 79.5293 23.7754C79.1517 24.0553 78.6992 24.2734 78.1719 24.4297C77.651 24.5859 77.0651 24.6641 76.4141 24.6641C75.457 24.6641 74.6465 24.4948 73.9824 24.1562C73.3184 23.8112 72.8138 23.3717 72.4688 22.8379C72.1302 22.2975 71.9609 21.7376 71.9609 21.1582H74.2363C74.2624 21.5944 74.3828 21.9427 74.5977 22.2031C74.819 22.457 75.0924 22.6426 75.418 22.7598C75.75 22.8704 76.0918 22.9258 76.4434 22.9258C76.8665 22.9258 77.2214 22.8704 77.5078 22.7598C77.7943 22.6426 78.0124 22.4863 78.1621 22.291C78.3118 22.0892 78.3867 21.8613 78.3867 21.6074Z" fill="#2A3144"/>
<path d="M87.5957 13.9023V15.6211H81.6387V13.9023H87.5957ZM83.3574 11.3145H85.7109V21.5488C85.7109 21.8743 85.7565 22.125 85.8477 22.3008C85.9453 22.4701 86.0788 22.584 86.248 22.6426C86.4173 22.7012 86.6159 22.7305 86.8438 22.7305C87.0065 22.7305 87.1628 22.7207 87.3125 22.7012C87.4622 22.6816 87.5827 22.6621 87.6738 22.6426L87.6836 24.4395C87.4883 24.498 87.2604 24.5501 87 24.5957C86.7461 24.6413 86.4531 24.6641 86.1211 24.6641C85.5807 24.6641 85.1022 24.5697 84.6855 24.3809C84.2689 24.1855 83.9434 23.8698 83.709 23.4336C83.4746 22.9974 83.3574 22.418 83.3574 21.6953V11.3145Z" fill="#2A3144"/>
<path d="M91.7754 15.9336V28.5312H89.4219V13.9023H91.5898L91.7754 15.9336ZM98.6602 19.0879V19.293C98.6602 20.0612 98.569 20.7741 98.3867 21.4316C98.2109 22.0827 97.9473 22.6523 97.5957 23.1406C97.2507 23.6224 96.8242 23.9967 96.3164 24.2637C95.8086 24.5306 95.2227 24.6641 94.5586 24.6641C93.901 24.6641 93.3249 24.5436 92.8301 24.3027C92.3418 24.0553 91.9284 23.707 91.5898 23.2578C91.2513 22.8086 90.9779 22.2812 90.7695 21.6758C90.5677 21.0638 90.4245 20.3932 90.3398 19.6641V18.873C90.4245 18.0983 90.5677 17.3952 90.7695 16.7637C90.9779 16.1322 91.2513 15.5885 91.5898 15.1328C91.9284 14.6771 92.3418 14.3255 92.8301 14.0781C93.3184 13.8307 93.888 13.707 94.5391 13.707C95.2031 13.707 95.7923 13.8372 96.3066 14.0977C96.821 14.3516 97.2539 14.7161 97.6055 15.1914C97.957 15.6602 98.2207 16.2266 98.3965 16.8906C98.5723 17.5482 98.6602 18.2806 98.6602 19.0879ZM96.3066 19.293V19.0879C96.3066 18.5996 96.2611 18.1471 96.1699 17.7305C96.0788 17.3073 95.9355 16.9362 95.7402 16.6172C95.5449 16.2982 95.2943 16.0508 94.9883 15.875C94.6888 15.6927 94.3275 15.6016 93.9043 15.6016C93.4876 15.6016 93.1296 15.6732 92.8301 15.8164C92.5306 15.9531 92.2799 16.1452 92.0781 16.3926C91.8763 16.64 91.7201 16.9297 91.6094 17.2617C91.4987 17.5872 91.4206 17.9421 91.375 18.3262V20.2207C91.4531 20.6895 91.5866 21.1191 91.7754 21.5098C91.9642 21.9004 92.2311 22.2129 92.5762 22.4473C92.9277 22.6751 93.377 22.7891 93.9238 22.7891C94.347 22.7891 94.7083 22.6979 95.0078 22.5156C95.3073 22.3333 95.5514 22.0827 95.7402 21.7637C95.9355 21.4382 96.0788 21.0638 96.1699 20.6406C96.2611 20.2174 96.3066 19.7682 96.3066 19.293Z" fill="#2A3144"/>
<path d="M103.182 13.9023V24.4688H100.818V13.9023H103.182ZM100.662 11.1289C100.662 10.7708 100.779 10.4746 101.014 10.2402C101.255 9.99935 101.587 9.87891 102.01 9.87891C102.426 9.87891 102.755 9.99935 102.996 10.2402C103.237 10.4746 103.357 10.7708 103.357 11.1289C103.357 11.4805 103.237 11.7734 102.996 12.0078C102.755 12.2422 102.426 12.3594 102.01 12.3594C101.587 12.3594 101.255 12.2422 101.014 12.0078C100.779 11.7734 100.662 11.4805 100.662 11.1289Z" fill="#2A3144"/>
<path d="M108.279 9.46875V24.4688H105.916V9.46875H108.279Z" fill="#2A3144"/>
<path d="M110.408 19.3027V19.0781C110.408 18.3164 110.519 17.61 110.74 16.959C110.962 16.3014 111.281 15.7318 111.697 15.25C112.12 14.7617 112.635 14.3841 113.24 14.1172C113.852 13.8438 114.542 13.707 115.311 13.707C116.085 13.707 116.775 13.8438 117.381 14.1172C117.993 14.3841 118.51 14.7617 118.934 15.25C119.357 15.7318 119.679 16.3014 119.9 16.959C120.122 17.61 120.232 18.3164 120.232 19.0781V19.3027C120.232 20.0645 120.122 20.7708 119.9 21.4219C119.679 22.0729 119.357 22.6426 118.934 23.1309C118.51 23.6126 117.996 23.9902 117.391 24.2637C116.785 24.5306 116.098 24.6641 115.33 24.6641C114.555 24.6641 113.862 24.5306 113.25 24.2637C112.645 23.9902 112.13 23.6126 111.707 23.1309C111.284 22.6426 110.962 22.0729 110.74 21.4219C110.519 20.7708 110.408 20.0645 110.408 19.3027ZM112.762 19.0781V19.3027C112.762 19.778 112.811 20.2272 112.908 20.6504C113.006 21.0736 113.159 21.4447 113.367 21.7637C113.576 22.0827 113.842 22.3333 114.168 22.5156C114.493 22.6979 114.881 22.7891 115.33 22.7891C115.766 22.7891 116.144 22.6979 116.463 22.5156C116.788 22.3333 117.055 22.0827 117.264 21.7637C117.472 21.4447 117.625 21.0736 117.723 20.6504C117.827 20.2272 117.879 19.778 117.879 19.3027V19.0781C117.879 18.6094 117.827 18.1667 117.723 17.75C117.625 17.3268 117.469 16.9525 117.254 16.627C117.046 16.3014 116.779 16.0475 116.453 15.8652C116.134 15.6764 115.753 15.582 115.311 15.582C114.868 15.582 114.484 15.6764 114.158 15.8652C113.839 16.0475 113.576 16.3014 113.367 16.627C113.159 16.9525 113.006 17.3268 112.908 17.75C112.811 18.1667 112.762 18.6094 112.762 19.0781Z" fill="#2A3144"/>
<path d="M127.049 13.9023V15.6211H121.092V13.9023H127.049ZM122.811 11.3145H125.164V21.5488C125.164 21.8743 125.21 22.125 125.301 22.3008C125.398 22.4701 125.532 22.584 125.701 22.6426C125.87 22.7012 126.069 22.7305 126.297 22.7305C126.46 22.7305 126.616 22.7207 126.766 22.7012C126.915 22.6816 127.036 22.6621 127.127 22.6426L127.137 24.4395C126.941 24.498 126.714 24.5501 126.453 24.5957C126.199 24.6413 125.906 24.6641 125.574 24.6641C125.034 24.6641 124.555 24.5697 124.139 24.3809C123.722 24.1855 123.396 23.8698 123.162 23.4336C122.928 22.9974 122.811 22.418 122.811 21.6953V11.3145Z" fill="#2A3144"/>
</g>
<defs>
<linearGradient id="paint0_linear_117_976" x1="5.4878" y1="19" x2="19" y2="31.7952" gradientUnits="userSpaceOnUse">
<stop stop-color="#9B8AFC"/>
<stop offset="1" stop-color="#745BFB"/>
</linearGradient>
</defs>
</svg>
