<svg width="59" height="52" viewBox="0 0 59 52" fill="none" xmlns="http://www.w3.org/2000/svg">
<path d="M27.3627 9.68266C26.6101 8.93008 25.3899 8.93008 24.6373 9.68266L17.8282 16.4918C17.8265 16.4935 17.8237 16.4935 17.8219 16.4918C17.8202 16.49 17.8174 16.49 17.8156 16.4918L16.7788 17.5286C15.419 18.8884 14.0571 20.248 12.6947 21.608L12.6937 21.609C10.0764 24.2218 7.45702 26.8367 4.84702 29.4588C4.46488 29.8427 3.84361 29.8436 3.46058 29.4606C1.54936 27.5494 1.54936 24.4506 3.46058 22.5394L21.7574 4.24264C24.1005 1.89949 27.8995 1.89949 30.2426 4.24263L45.2575 19.2575C45.648 19.648 45.648 20.2812 45.2575 20.6717L42.5117 23.4175C42.1212 23.808 41.488 23.808 41.0975 23.4175L27.3627 9.68266Z" fill="#583AFB"/>
<path d="M27.3627 9.68266C26.6101 8.93008 25.3899 8.93008 24.6373 9.68266L17.8282 16.4918C17.8265 16.4935 17.8237 16.4935 17.8219 16.4918C17.8202 16.49 17.8174 16.49 17.8156 16.4918L16.7788 17.5286C15.419 18.8884 14.0571 20.248 12.6947 21.608L12.6937 21.609C10.0764 24.2218 7.45702 26.8367 4.84702 29.4588C4.46488 29.8427 3.84361 29.8436 3.46058 29.4606C1.54936 27.5494 1.54936 24.4506 3.46058 22.5394L21.7574 4.24264C24.1005 1.89949 27.8995 1.89949 30.2426 4.24263L45.2575 19.2575C45.648 19.648 45.648 20.2812 45.2575 20.6717L42.5117 23.4175C42.1212 23.808 41.488 23.808 41.0975 23.4175L27.3627 9.68266Z" fill="url(#paint0_linear_117_461)"/>
<path d="M27.4142 42.2656L34.7403 34.9395C35.1308 34.549 35.764 34.549 36.1545 34.9395L38.9003 37.6853C39.2908 38.0758 39.2908 38.709 38.9003 39.0995L30.2426 47.7572C27.8995 50.1003 24.1005 50.1003 21.7573 47.7572L13.0997 39.0995C12.7092 38.709 12.7092 38.0758 13.0997 37.6853L15.8455 34.9395C16.236 34.549 16.8692 34.549 17.2597 34.9395L24.5858 42.2656C25.3668 43.0467 26.6331 43.0467 27.4142 42.2656Z" fill="url(#paint1_linear_117_461)"/>
<path d="M43.6149 26.0579L51.4551 18.2178L55.6151 22.3778L43.5996 34.3932L43.6149 26.0579Z" fill="#00C7FF"/>
<path d="M43.6149 26.0579L51.4551 18.2178L55.6151 22.3778L43.5996 34.3932L43.6149 26.0579Z" fill="url(#paint2_linear_117_461)"/>
<path d="M41.6149 28.0579L49.4551 20.2178L53.6151 24.3778L41.5996 36.3932L41.6149 28.0579Z" fill="#00C7FF"/>
<path d="M41.6149 28.0579L49.4551 20.2178L53.6151 24.3778L41.5996 36.3932L41.6149 28.0579Z" fill="url(#paint3_linear_117_461)"/>
<path d="M31.8903 18.2617L41.615 28.0582L41.5997 36.3936L31.875 26.5971L31.8903 18.2617Z" fill="#00C7FF"/>
<path d="M31.8903 18.2617L41.615 28.0582L41.5997 36.3936L31.875 26.5971L31.8903 18.2617Z" fill="url(#paint4_linear_117_461)" style="mix-blend-mode:color-dodge"/>
<path d="M31.8755 26.5971L26 32.4725L26 24.1525L31.8908 18.2617L31.8755 26.5971Z" fill="#00C7FF"/>
<path d="M31.8755 26.5971L26 32.4725L26 24.1525L31.8908 18.2617L31.8755 26.5971Z" fill="url(#paint5_linear_117_461)"/>
<path d="M25.9998 32.4721L20.124 26.5963L20.1094 18.2617L25.9998 24.1521L25.9998 32.4721Z" fill="#00C7FF"/>
<path d="M25.9998 32.4721L20.124 26.5963L20.1094 18.2617L25.9998 24.1521L25.9998 32.4721Z" fill="url(#paint6_linear_117_461)" style="mix-blend-mode:color-dodge"/>
<path d="M20.1241 26.5963L10.3972 36.3915L6.22266 40.5661V32.2461L20.1095 18.2617L20.1241 26.5963Z" fill="#00C7FF"/>
<path d="M20.1241 26.5963L10.3972 36.3915L6.22266 40.5661V32.2461L20.1095 18.2617L20.1241 26.5963Z" fill="url(#paint7_linear_117_461)"/>
<path d="M51.9288 21.9924L56.5263 26.4321L57.3484 16.4205L47.2224 17.5527L51.9288 21.9924Z" fill="#00C7FF"/>
<path d="M51.9288 21.9924L56.5263 26.4321L57.3484 16.4205L47.2224 17.5527L51.9288 21.9924Z" fill="url(#paint8_linear_117_461)" style="mix-blend-mode:color-dodge"/>
<defs>
<linearGradient id="paint0_linear_117_461" x1="-2.14846e-10" y1="7.06947" x2="45.9646" y2="7.06041" gradientUnits="userSpaceOnUse">
<stop stop-color="#583AFB"/>
<stop offset="1" stop-color="#826FE7"/>
</linearGradient>
<linearGradient id="paint1_linear_117_461" x1="12.3926" y1="38.3978" x2="39.6074" y2="38.3924" gradientUnits="userSpaceOnUse">
<stop stop-color="#583AFB"/>
<stop offset="1" stop-color="#826FE7"/>
</linearGradient>
<linearGradient id="paint2_linear_117_461" x1="55.6151" y1="21.9777" x2="33.8522" y2="21.287" gradientUnits="userSpaceOnUse">
<stop offset="0.0489611" stop-color="#583AFB" stop-opacity="0.25"/>
<stop offset="1" stop-color="#583AFB" stop-opacity="0"/>
</linearGradient>
<linearGradient id="paint3_linear_117_461" x1="53.6151" y1="23.9777" x2="31.8522" y2="23.287" gradientUnits="userSpaceOnUse">
<stop offset="0.0489611" stop-color="#583AFB" stop-opacity="0.25"/>
<stop offset="1" stop-color="#583AFB" stop-opacity="0"/>
</linearGradient>
<linearGradient id="paint4_linear_117_461" x1="30.8945" y1="29.9165" x2="36.4352" y2="35.6966" gradientUnits="userSpaceOnUse">
<stop stop-color="#E5E8ED" stop-opacity="0.48"/>
<stop offset="1" stop-color="#E5E8ED" stop-opacity="0"/>
</linearGradient>
<linearGradient id="paint5_linear_117_461" x1="31.8908" y1="21.7012" x2="27.7669" y2="19.0019" gradientUnits="userSpaceOnUse">
<stop stop-color="#583AFB" stop-opacity="0.25"/>
<stop offset="1" stop-color="#583AFB" stop-opacity="0"/>
</linearGradient>
<linearGradient id="paint6_linear_117_461" x1="19.5164" y1="27.3959" x2="23.7624" y2="30.8139" gradientUnits="userSpaceOnUse">
<stop stop-color="#E5E8ED" stop-opacity="0.48"/>
<stop offset="1" stop-color="#E5E8ED" stop-opacity="0"/>
</linearGradient>
<linearGradient id="paint7_linear_117_461" x1="20.1241" y1="22.6353" x2="6.22266" y2="22.6353" gradientUnits="userSpaceOnUse">
<stop stop-color="#583AFB" stop-opacity="0.25"/>
<stop offset="1" stop-color="#583AFB" stop-opacity="0"/>
</linearGradient>
<linearGradient id="paint8_linear_117_461" x1="56.487" y1="20.9496" x2="53.5578" y2="17.0267" gradientUnits="userSpaceOnUse">
<stop stop-color="#E5E8ED" stop-opacity="0.48"/>
<stop offset="1" stop-color="#E5E8ED" stop-opacity="0"/>
</linearGradient>
</defs>
</svg>
