<svg width="418" height="252" viewBox="0 0 418 252" fill="none" xmlns="http://www.w3.org/2000/svg">
<path d="M301.58 112.918C324.152 184.599 233.579 219.342 183.319 208.358C163.357 203.99 155.662 197.081 135.255 203.348C120.42 207.897 111.966 224.366 95.736 227.081C60.1426 233.031 25.2271 198.174 18.7149 167.908C11.9532 136.513 22.4719 105.145 50.6659 95.713C71.2957 88.806 91.1316 100.636 103.214 96.332C128.064 87.4929 128.051 70.9591 143.456 54.339C200.026 -6.66678 281.068 47.8318 301.58 112.918Z" fill="#F4F3FB"/>
<path d="M301.58 112.918C324.152 184.599 233.579 219.342 183.319 208.358C163.357 203.99 155.662 197.081 135.255 203.348C120.42 207.897 111.966 224.366 95.736 227.081C60.1426 233.031 25.2271 198.174 18.7149 167.908C11.9532 136.513 22.4719 105.145 50.6659 95.713C71.2957 88.806 91.1316 100.636 103.214 96.332C128.064 87.4929 128.051 70.9591 143.456 54.339C200.026 -6.66678 281.068 47.8318 301.58 112.918Z" fill="url(#paint0_radial_117_1084)"/>
<path d="M298.535 223.85C334.056 223.85 362.852 195.054 362.852 159.533C362.852 124.012 334.056 95.2168 298.535 95.2168C263.014 95.2168 234.219 124.012 234.219 159.533C234.219 195.054 263.014 223.85 298.535 223.85Z" fill="url(#paint1_linear_117_1084)"/>
<path d="M298.535 219.255C331.519 219.255 358.257 192.517 358.257 159.533C358.257 126.549 331.519 99.8105 298.535 99.8105C265.551 99.8105 238.812 126.549 238.812 159.533C238.812 192.517 265.551 219.255 298.535 219.255Z" fill="#F0EEFC"/>
<path d="M298.535 217.102C330.329 217.102 356.104 191.327 356.104 159.533C356.104 127.738 330.329 101.964 298.535 101.964C266.74 101.964 240.966 127.738 240.966 159.533C240.966 191.327 266.74 217.102 298.535 217.102Z" fill="url(#paint2_linear_117_1084)"/>
<path d="M298.535 217.102C330.329 217.102 356.104 191.327 356.104 159.533C356.104 127.738 330.329 101.964 298.535 101.964C266.74 101.964 240.966 127.738 240.966 159.533C240.966 191.327 266.74 217.102 298.535 217.102Z" fill="#F7F8FA"/>
<path d="M298.535 217.102C330.329 217.102 356.104 191.327 356.104 159.533C356.104 127.738 330.329 101.964 298.535 101.964C266.74 101.964 240.966 127.738 240.966 159.533C240.966 191.327 266.74 217.102 298.535 217.102Z" fill="#FDFDFE"/>
<path d="M298.535 217.102C330.329 217.102 356.104 191.327 356.104 159.533C356.104 127.738 330.329 101.964 298.535 101.964C266.74 101.964 240.966 127.738 240.966 159.533C240.966 191.327 266.74 217.102 298.535 217.102Z" fill="url(#paint3_linear_117_1084)"/>
<path d="M298.535 122.913C299.804 122.913 300.832 123.941 300.832 125.21V157.849H296.238V125.21C296.238 123.941 297.267 122.913 298.535 122.913Z" fill="#E6E7EC"/>
<path d="M321.925 159.533C321.925 160.802 320.896 161.83 319.628 161.83H298.535V157.236H319.628C320.896 157.236 321.925 158.265 321.925 159.533Z" fill="#E6E7EC"/>
<path d="M298.535 164.845C301.469 164.845 303.847 162.467 303.847 159.534C303.847 156.6 301.469 154.222 298.535 154.222C295.602 154.222 293.224 156.6 293.224 159.534C293.224 162.467 295.602 164.845 298.535 164.845Z" fill="#D5D6E4"/>
<path d="M300.826 111.296C300.826 110.027 299.798 108.999 298.529 108.999C297.261 108.999 296.232 110.027 296.232 111.296V115.89C296.232 117.159 297.261 118.187 298.529 118.187C299.798 118.187 300.826 117.159 300.826 115.89V111.296Z" fill="#EFECFD"/>
<path d="M262.798 123.803C263.695 122.905 265.149 122.905 266.047 123.803L269.295 127.051C270.192 127.948 270.192 129.402 269.295 130.299C268.398 131.196 266.944 131.196 266.047 130.299L262.798 127.051C261.901 126.154 261.901 124.7 262.798 123.803Z" fill="#EFECFD"/>
<path d="M248.001 159.539C248.001 158.27 249.029 157.242 250.298 157.242H254.892C256.161 157.242 257.189 158.27 257.189 159.539C257.189 160.808 256.161 161.836 254.892 161.836H250.298C249.029 161.836 248.001 160.808 248.001 159.539Z" fill="#EFECFD"/>
<path d="M262.805 195.271C261.908 194.374 261.908 192.92 262.805 192.023L266.054 188.774C266.951 187.877 268.405 187.877 269.302 188.774C270.199 189.671 270.199 191.126 269.302 192.023L266.054 195.271C265.157 196.168 263.702 196.168 262.805 195.271Z" fill="#EFECFD"/>
<path d="M296.244 207.77C296.244 209.039 297.272 210.067 298.541 210.067C299.809 210.067 300.838 209.039 300.838 207.77V203.176C300.838 201.908 299.809 200.879 298.541 200.879C297.272 200.879 296.244 201.908 296.244 203.176V207.77Z" fill="#EFECFD"/>
<path d="M334.272 195.262C333.375 196.159 331.921 196.159 331.024 195.262L327.775 192.013C326.878 191.116 326.878 189.662 327.775 188.765C328.672 187.868 330.127 187.868 331.024 188.765L334.272 192.013C335.169 192.91 335.169 194.365 334.272 195.262Z" fill="#EFECFD"/>
<path d="M349.069 159.527C349.069 160.796 348.041 161.825 346.772 161.825H342.178C340.91 161.825 339.881 160.796 339.881 159.527C339.881 158.259 340.91 157.23 342.178 157.23H346.772C348.041 157.23 349.069 158.259 349.069 159.527Z" fill="#EFECFD"/>
<path d="M334.265 123.797C335.162 124.694 335.162 126.149 334.265 127.046L331.016 130.294C330.119 131.191 328.665 131.191 327.768 130.294C326.871 129.397 326.871 127.943 327.768 127.046L331.016 123.797C331.913 122.9 333.368 122.9 334.265 123.797Z" fill="#EFECFD"/>
<rect width="59.7" height="12.8724" rx="2" transform="matrix(-1 0 0 1 331.525 230.43)" fill="#2C80FD"/>
<rect width="30.9438" height="12.8724" transform="matrix(-1 0 0 1 327.041 230.43)" fill="#16A3FE"/>
<rect width="12.2991" height="12.8724" transform="matrix(-1 0 0 1 318.886 230.43)" fill="#0BB5FF"/>
<path opacity="0.25" fill-rule="evenodd" clip-rule="evenodd" d="M329.525 243.302C330.63 243.302 331.525 242.407 331.525 241.302H271.825C271.825 242.407 272.721 243.302 273.825 243.302H329.525Z" fill="#583AFB"/>
<path opacity="0.5" fill-rule="evenodd" clip-rule="evenodd" d="M329.525 230.429C330.63 230.429 331.525 231.325 331.525 232.429H271.825C271.825 231.325 272.721 230.429 273.825 230.429H329.525Z" fill="#00C7FF"/>
<rect width="59.7" height="12.8724" rx="2" transform="matrix(-1 0 0 1 327.041 217.557)" fill="#2C80FD"/>
<rect width="30.9438" height="12.8724" transform="matrix(-1 0 0 1 322.557 217.557)" fill="#16A3FE"/>
<rect width="12.2991" height="12.8724" transform="matrix(-1 0 0 1 314.401 217.557)" fill="#0BB5FF"/>
<path opacity="0.25" fill-rule="evenodd" clip-rule="evenodd" d="M325.041 230.429C326.146 230.429 327.041 229.534 327.041 228.429H267.341C267.341 229.534 268.236 230.429 269.341 230.429H325.041Z" fill="#583AFB"/>
<path opacity="0.5" fill-rule="evenodd" clip-rule="evenodd" d="M325.041 217.556C326.146 217.556 327.041 218.452 327.041 219.556H267.341C267.341 218.452 268.236 217.556 269.341 217.556H325.041Z" fill="#00C7FF"/>
<rect width="59.7" height="12.8724" rx="2" transform="matrix(-1 0 0 1 331.557 204.685)" fill="#2C80FD"/>
<rect width="30.9438" height="12.8724" transform="matrix(-1 0 0 1 327.072 204.685)" fill="#16A3FE"/>
<rect width="12.2991" height="12.8724" transform="matrix(-1 0 0 1 318.917 204.685)" fill="#0BB5FF"/>
<path opacity="0.25" fill-rule="evenodd" clip-rule="evenodd" d="M329.557 217.557C330.661 217.557 331.557 216.662 331.557 215.557H271.857C271.857 216.662 272.752 217.557 273.857 217.557H329.557Z" fill="#583AFB"/>
<path opacity="0.5" fill-rule="evenodd" clip-rule="evenodd" d="M329.557 204.684C330.661 204.684 331.557 205.58 331.557 206.684H271.857C271.857 205.58 272.752 204.684 273.857 204.684H329.557Z" fill="#00C7FF"/>
<rect x="61.373" y="230.429" width="59.7" height="12.8724" rx="2" fill="#2C80FD"/>
<rect x="65.8574" y="230.429" width="30.9438" height="12.8724" fill="#16A3FE"/>
<rect x="74.0127" y="230.429" width="12.2991" height="12.8724" fill="#0BB5FF"/>
<path opacity="0.25" fill-rule="evenodd" clip-rule="evenodd" d="M63.373 243.301C62.2685 243.301 61.373 242.406 61.373 241.301H121.073C121.073 242.406 120.178 243.301 119.073 243.301H63.373Z" fill="#583AFB"/>
<path opacity="0.5" fill-rule="evenodd" clip-rule="evenodd" d="M63.373 230.428C62.2685 230.428 61.373 231.324 61.373 232.428H121.073C121.073 231.324 120.178 230.428 119.073 230.428H63.373Z" fill="#00C7FF"/>
<rect x="65.8574" y="217.557" width="59.7" height="12.8724" rx="2" fill="#2C80FD"/>
<rect x="70.3418" y="217.557" width="30.9438" height="12.8724" fill="#16A3FE"/>
<rect x="78.4971" y="217.557" width="12.2991" height="12.8724" fill="#0BB5FF"/>
<path opacity="0.25" fill-rule="evenodd" clip-rule="evenodd" d="M67.8574 230.429C66.7529 230.429 65.8574 229.534 65.8574 228.429H125.557C125.557 229.534 124.662 230.429 123.557 230.429H67.8574Z" fill="#583AFB"/>
<path opacity="0.5" fill-rule="evenodd" clip-rule="evenodd" d="M67.8574 217.556C66.7529 217.556 65.8574 218.452 65.8574 219.556H125.557C125.557 218.452 124.662 217.556 123.557 217.556H67.8574Z" fill="#00C7FF"/>
<rect x="61.3418" y="204.684" width="59.7" height="12.8724" rx="2" fill="#2C80FD"/>
<rect x="65.8262" y="204.684" width="30.9438" height="12.8724" fill="#16A3FE"/>
<rect x="73.9814" y="204.684" width="12.2991" height="12.8724" fill="#0BB5FF"/>
<path opacity="0.25" fill-rule="evenodd" clip-rule="evenodd" d="M63.3418 217.556C62.2372 217.556 61.3418 216.661 61.3418 215.556H121.042C121.042 216.661 120.146 217.556 119.042 217.556H63.3418Z" fill="#583AFB"/>
<path opacity="0.5" fill-rule="evenodd" clip-rule="evenodd" d="M63.3418 204.683C62.2372 204.683 61.3418 205.579 61.3418 206.683H121.042C121.042 205.579 120.146 204.683 119.042 204.683H63.3418Z" fill="#00C7FF"/>
<rect x="69.8252" y="191.812" width="59.7" height="12.8724" rx="2" fill="#2C80FD"/>
<rect x="74.3096" y="191.812" width="30.9438" height="12.8724" fill="#16A3FE"/>
<rect x="82.4648" y="191.812" width="12.2991" height="12.8724" fill="#0BB5FF"/>
<path opacity="0.25" fill-rule="evenodd" clip-rule="evenodd" d="M71.8252 204.684C70.7206 204.684 69.8252 203.789 69.8252 202.684H129.525C129.525 203.789 128.63 204.684 127.525 204.684H71.8252Z" fill="#583AFB"/>
<path opacity="0.5" fill-rule="evenodd" clip-rule="evenodd" d="M71.8252 191.811C70.7206 191.811 69.8252 192.707 69.8252 193.811H129.525C129.525 192.707 128.63 191.811 127.525 191.811H71.8252Z" fill="#00C7FF"/>
<rect x="54.3096" y="178.939" width="59.7" height="12.8724" rx="2" fill="#2C80FD"/>
<rect x="58.7939" y="178.939" width="30.9438" height="12.8724" fill="#16A3FE"/>
<rect x="66.9492" y="178.939" width="12.2991" height="12.8724" fill="#0BB5FF"/>
<path opacity="0.25" fill-rule="evenodd" clip-rule="evenodd" d="M56.3096 191.812C55.205 191.812 54.3096 190.916 54.3096 189.812H114.01C114.01 190.916 113.114 191.812 112.01 191.812H56.3096Z" fill="#583AFB"/>
<path opacity="0.5" fill-rule="evenodd" clip-rule="evenodd" d="M56.3096 178.939C55.205 178.939 54.3096 179.835 54.3096 180.939H114.01C114.01 179.835 113.114 178.939 112.01 178.939H56.3096Z" fill="#00C7FF"/>
<rect x="63.7939" y="166.066" width="59.7" height="12.8724" rx="2" fill="#2C80FD"/>
<rect x="68.2783" y="166.066" width="30.9438" height="12.8724" fill="#16A3FE"/>
<rect x="76.4336" y="166.066" width="12.2991" height="12.8724" fill="#0BB5FF"/>
<path opacity="0.25" fill-rule="evenodd" clip-rule="evenodd" d="M65.7939 178.939C64.6894 178.939 63.7939 178.043 63.7939 176.939H123.494C123.494 178.043 122.599 178.939 121.494 178.939H65.7939Z" fill="#583AFB"/>
<path opacity="0.5" fill-rule="evenodd" clip-rule="evenodd" d="M65.7939 166.066C64.6894 166.066 63.7939 166.961 63.7939 168.066H123.494C123.494 166.961 122.599 166.066 121.494 166.066H65.7939Z" fill="#00C7FF"/>
<rect x="71.2773" y="153.194" width="59.7" height="12.8724" rx="2" fill="#2C80FD"/>
<rect x="75.7617" y="153.194" width="30.9438" height="12.8724" fill="#16A3FE"/>
<rect x="83.917" y="153.194" width="12.2991" height="12.8724" fill="#0BB5FF"/>
<path opacity="0.25" fill-rule="evenodd" clip-rule="evenodd" d="M73.2773 166.067C72.1728 166.067 71.2773 165.171 71.2773 164.067H130.977C130.977 165.171 130.082 166.067 128.977 166.067H73.2773Z" fill="#583AFB"/>
<path opacity="0.5" fill-rule="evenodd" clip-rule="evenodd" d="M73.2773 153.194C72.1728 153.194 71.2773 154.089 71.2773 155.194H130.977C130.977 154.089 130.082 153.194 128.977 153.194H73.2773Z" fill="#00C7FF"/>
<path d="M144.638 153.212C144.638 148.794 148.219 145.212 152.638 145.212H271.097C273.859 145.212 276.097 147.45 276.097 150.212V235.301C276.097 239.72 272.516 243.301 268.097 243.301H152.638C148.219 243.301 144.638 239.72 144.638 235.301V153.212Z" fill="#583AFB"/>
<path fill-rule="evenodd" clip-rule="evenodd" d="M153.211 147.194C150.685 147.194 148.638 149.242 148.638 151.768C148.638 154.294 150.685 156.342 153.211 156.342H270.226C273.48 156.41 276.097 159.07 276.097 162.34V156.342V156.34V153.194C276.097 149.881 273.411 147.194 270.097 147.194H153.211Z" fill="#EEECF9"/>
<path d="M210.367 197.752C210.367 192.125 214.929 187.563 220.555 187.563H276.097V207.94H220.555C214.929 207.94 210.367 203.379 210.367 197.752Z" fill="url(#paint4_linear_117_1084)"/>
<circle cx="222.005" cy="197.753" r="6.43622" fill="#583AFB"/>
<path d="M165.888 212.473C165.393 195.996 151.635 183.039 135.158 183.534C118.681 184.029 105.725 197.787 106.219 214.264C106.714 230.741 120.472 243.698 136.95 243.203C153.427 242.708 166.383 228.95 165.888 212.473Z" fill="#2C80FD"/>
<path fill-rule="evenodd" clip-rule="evenodd" d="M135.157 183.535C151.634 183.04 165.393 195.996 165.888 212.473C166.382 228.95 153.426 242.709 136.949 243.203C120.472 243.698 106.714 230.742 106.219 214.265C105.724 197.788 118.68 184.03 135.157 183.535ZM135.187 184.532C151.114 184.054 164.412 196.577 164.89 212.503C165.369 228.429 152.846 241.728 136.919 242.206C120.993 242.684 107.695 230.161 107.216 214.235C106.738 198.309 119.261 185.01 135.187 184.532Z" fill="url(#paint5_linear_117_1084)" fill-opacity="0.5"/>
<path opacity="0.5" d="M141.798 235.591C154.132 232.286 161.451 219.608 158.146 207.274C154.842 194.94 142.163 187.62 129.829 190.925C117.495 194.23 110.175 206.908 113.48 219.242C116.785 231.577 129.463 238.896 141.798 235.591Z" fill="#00C7FF"/>
<path opacity="0.5" fill-rule="evenodd" clip-rule="evenodd" d="M123.016 193.995C117.008 197.985 113.184 204.608 112.732 211.807L123.016 193.995ZM113.54 219.458L130.046 190.869C134.299 189.772 138.586 189.934 142.509 191.125L119.993 230.123C117 227.321 114.716 223.689 113.54 219.458ZM126.343 234.351C126.941 234.62 127.552 234.865 128.173 235.083L150.894 195.729C150.394 195.3 149.878 194.893 149.345 194.51L126.343 234.351Z" fill="#00C7FF"/>
<path d="M139.917 222.395L140.716 225.378L138.053 226.091L137.273 223.18C134.885 223.748 132.384 223.626 130.063 222.829L130.648 219.19C132.47 219.839 134.429 220.009 136.336 219.683L135.123 215.156C131.968 215.24 128.38 215.06 127.377 211.314C126.62 208.491 127.991 205.441 132.107 203.9L131.317 200.953L133.98 200.24L134.76 203.151C136.703 202.743 138.716 202.804 140.63 203.329L140.161 206.975C138.712 206.569 137.194 206.464 135.702 206.666L136.92 211.211C140.07 211.109 143.627 211.317 144.612 214.992C145.368 217.814 143.969 220.758 139.917 222.395ZM134.091 211.303L133.077 207.522C131.743 208.222 131.402 209.151 131.635 210.02C131.868 210.89 132.819 211.244 134.091 211.303ZM140.415 216.516C140.163 215.575 139.249 215.287 138.005 215.259L138.989 218.934C140.243 218.217 140.644 217.368 140.415 216.516Z" fill="white"/>
<path d="M138.053 153.277L151.469 152.8H226.344H252.477L226.344 153.755H151.469L138.053 153.277Z" fill="#C3C6D6"/>
<path d="M303.38 19.7154C303.38 17.5351 305.148 15.7676 307.328 15.7676C309.508 15.7676 311.276 17.5351 311.276 19.7154V46.8197C311.276 49.0001 309.508 50.7676 307.328 50.7676C305.148 50.7676 303.38 49.0001 303.38 46.8197V19.7154Z" fill="white"/>
<path d="M293.776 37.2154C291.596 37.2154 289.828 35.4479 289.828 33.2676C289.828 31.0872 291.596 29.3197 293.776 29.3197H320.88C323.061 29.3197 324.828 31.0872 324.828 33.2676C324.828 35.4479 323.061 37.2154 320.88 37.2154H293.776Z" fill="white"/>
<path d="M14.3461 143.633C14.3461 141.453 16.1136 139.686 18.2939 139.686C20.4743 139.686 22.2418 141.453 22.2418 143.633V170.738C22.2418 172.918 20.4743 174.686 18.2939 174.686C16.1136 174.686 14.3461 172.918 14.3461 170.738V143.633Z" fill="white"/>
<path d="M4.74179 161.133C2.56145 161.133 0.793945 159.366 0.793945 157.186C0.793945 155.005 2.56145 153.238 4.74179 153.238H31.8461C34.0264 153.238 35.7939 155.005 35.7939 157.186C35.7939 159.366 34.0264 161.133 31.8461 161.133H4.74179Z" fill="white"/>
<mask id="mask0_117_1084" style="mask-type:alpha" maskUnits="userSpaceOnUse" x="102" y="27" width="177" height="126">
<rect x="102.285" y="27.6562" width="176.056" height="124.992" fill="#D9D9D9"/>
</mask>
<g mask="url(#mask0_117_1084)">
<path d="M265.779 79.6842C234.433 94.1727 200.814 103.123 166.414 106.138L153.826 58.8385C188.237 55.8384 221.869 46.8974 253.227 32.4124L265.779 79.6842Z" fill="#CDD0DD"/>
<path d="M265.779 79.6842C234.433 94.1727 200.814 103.123 166.414 106.138L153.826 58.8385C188.237 55.8384 221.869 46.8974 253.227 32.4124L265.779 79.6842Z" fill="url(#paint6_linear_117_1084)"/>
<path d="M265.779 79.6842C234.433 94.1727 200.814 103.123 166.414 106.138L153.826 58.8385C188.237 55.8384 221.869 46.8974 253.227 32.4124L265.779 79.6842Z" fill="#E0E1EE"/>
<path d="M253.182 42.4042C252.429 42.7696 251.604 42.9607 250.767 42.9635C249.931 42.9662 249.104 42.7804 248.35 42.4199C247.595 42.0594 246.931 41.5335 246.407 40.8812C245.883 40.2289 245.513 39.4669 245.324 38.652C219.285 49.7127 191.808 57.022 163.714 60.3614C163.961 61.1618 164.023 62.0078 163.895 62.8356C163.768 63.6634 163.454 64.4515 162.977 65.1404C162.501 65.8293 161.874 66.4011 161.145 66.8127C160.415 67.2243 159.602 67.4649 158.766 67.5165L166.609 96.9967C168.449 96.8503 170.282 97.3378 171.806 98.3781C173.33 99.4184 174.452 100.949 174.985 102.715C203.079 99.378 230.557 92.0686 256.595 81.0059C255.65 77.4544 257.65 73.4109 261.025 71.8843L261.078 71.8617L253.23 42.3782L253.182 42.4042ZM213.656 86.1159C206.36 88.0476 198.794 83.4012 196.863 76.1405C194.932 68.8798 199.352 61.724 206.663 59.7825C213.974 57.841 221.364 61.8787 223.297 69.155C225.23 76.4313 220.979 84.2046 213.674 86.1295L213.656 86.1159Z" fill="#E7E9EE"/>
<path d="M253.182 42.4042C252.429 42.7696 251.604 42.9607 250.767 42.9635C249.931 42.9662 249.104 42.7804 248.35 42.4199C247.595 42.0594 246.931 41.5335 246.407 40.8812C245.883 40.2289 245.513 39.4669 245.324 38.652C219.285 49.7127 191.808 57.022 163.714 60.3614C163.961 61.1618 164.023 62.0078 163.895 62.8356C163.768 63.6634 163.454 64.4515 162.977 65.1404C162.501 65.8293 161.874 66.4011 161.145 66.8127C160.415 67.2243 159.602 67.4649 158.766 67.5165L166.609 96.9967C168.449 96.8503 170.282 97.3378 171.806 98.3781C173.33 99.4184 174.452 100.949 174.985 102.715C203.079 99.378 230.557 92.0686 256.595 81.0059C255.65 77.4544 257.65 73.4109 261.025 71.8843L261.078 71.8617L253.23 42.3782L253.182 42.4042ZM213.656 86.1159C206.36 88.0476 198.794 83.4012 196.863 76.1405C194.932 68.8798 199.352 61.724 206.663 59.7825C213.974 57.841 221.364 61.8787 223.297 69.155C225.23 76.4313 220.979 84.2046 213.674 86.1295L213.656 86.1159Z" fill="url(#paint7_linear_117_1084)"/>
<path d="M253.182 42.4042C252.429 42.7696 251.604 42.9607 250.767 42.9635C249.931 42.9662 249.104 42.7804 248.35 42.4199C247.595 42.0594 246.931 41.5335 246.407 40.8812C245.883 40.2289 245.513 39.4669 245.324 38.652C219.285 49.7127 191.808 57.022 163.714 60.3614C163.961 61.1618 164.023 62.0078 163.895 62.8356C163.768 63.6634 163.454 64.4515 162.977 65.1404C162.501 65.8293 161.874 66.4011 161.145 66.8127C160.415 67.2243 159.602 67.4649 158.766 67.5165L166.609 96.9967C168.449 96.8503 170.282 97.3378 171.806 98.3781C173.33 99.4184 174.452 100.949 174.985 102.715C203.079 99.378 230.557 92.0686 256.595 81.0059C255.65 77.4544 257.65 73.4109 261.025 71.8843L261.078 71.8617L253.23 42.3782L253.182 42.4042ZM213.656 86.1159C206.36 88.0476 198.794 83.4012 196.863 76.1405C194.932 68.8798 199.352 61.724 206.663 59.7825C213.974 57.841 221.364 61.8787 223.297 69.155C225.23 76.4313 220.979 84.2046 213.674 86.1295L213.656 86.1159Z" fill="url(#paint8_linear_117_1084)"/>
<path d="M253.182 42.4042C252.429 42.7696 251.604 42.9607 250.767 42.9635C249.931 42.9662 249.104 42.7804 248.35 42.4199C247.595 42.0594 246.931 41.5335 246.407 40.8812C245.883 40.2289 245.513 39.4669 245.324 38.652C219.285 49.7127 191.808 57.022 163.714 60.3614C163.961 61.1618 164.023 62.0078 163.895 62.8356C163.768 63.6634 163.454 64.4515 162.977 65.1404C162.501 65.8293 161.874 66.4011 161.145 66.8127C160.415 67.2243 159.602 67.4649 158.766 67.5165L166.609 96.9967C168.449 96.8503 170.282 97.3378 171.806 98.3781C173.33 99.4184 174.452 100.949 174.985 102.715C203.079 99.378 230.557 92.0686 256.595 81.0059C255.65 77.4544 257.65 73.4109 261.025 71.8843L261.078 71.8617L253.23 42.3782L253.182 42.4042ZM213.656 86.1159C206.36 88.0476 198.794 83.4012 196.863 76.1405C194.932 68.8798 199.352 61.724 206.663 59.7825C213.974 57.841 221.364 61.8787 223.297 69.155C225.23 76.4313 220.979 84.2046 213.674 86.1295L213.656 86.1159Z" fill="#FCFCFD"/>
<path d="M213.435 79.6031L213.956 81.5573L212.52 81.9376L212.002 79.979C210.257 80.3309 208.441 80.1916 207.332 79.6415L207.652 77.684C208.872 78.1933 210.214 78.3404 211.515 78.1078L210.585 74.6178C208.52 74.665 206.256 74.5586 205.615 72.1314C205.14 70.3539 206.031 68.4869 208.693 67.507L208.17 65.5372C208.646 65.4134 209.126 65.2851 209.602 65.1535L210.117 67.0887C211.381 66.8054 212.695 66.8352 213.946 67.1755L213.698 69.1396C212.695 68.8714 211.647 68.8148 210.621 68.9735L211.545 72.508C213.614 72.4564 215.886 72.4704 216.53 74.8932C217.011 76.6541 216.118 78.569 213.435 79.6031ZM210.034 72.5206L209.208 69.4143C208.016 69.9343 207.652 70.6948 207.86 71.4622C208.069 72.2296 208.93 72.4818 210.034 72.5206ZM214.358 75.6683C214.145 74.7983 213.257 74.6249 212.111 74.631L212.931 77.7183C214.182 77.1669 214.548 76.4142 214.349 75.6614L214.358 75.6683Z" fill="white"/>
<g style="mix-blend-mode:multiply" opacity="0.04">
<path d="M255.298 90.3774C224.613 98.2321 192.875 101.158 161.271 99.0467C161.271 99.0467 170.226 73.7743 168.923 65.5879C168.923 65.5879 217.754 86.6528 255.298 90.3774Z" fill="#AFB5CD"/>
</g>
<path d="M259.295 143.296C224.9 140.176 191.305 131.123 159.999 116.54L172.718 69.2662C204.022 83.8504 237.616 92.9016 272.01 96.0184C267.773 111.784 263.534 127.543 259.295 143.296Z" fill="#CDD0DD"/>
<path d="M259.295 143.296C224.9 140.176 191.305 131.123 159.999 116.54L172.718 69.2662C204.022 83.8504 237.616 92.9016 272.01 96.0184C267.773 111.784 263.534 127.543 259.295 143.296Z" fill="url(#paint9_linear_117_1084)"/>
<path d="M259.295 143.296C224.9 140.176 191.305 131.123 159.999 116.54L172.718 69.2662C204.022 83.8504 237.616 92.9016 272.01 96.0184C267.773 111.784 263.534 127.543 259.295 143.296Z" fill="#E0E1EE"/>
<path d="M267.005 104.69C266.169 104.638 265.356 104.397 264.626 103.984C263.897 103.572 263.271 103 262.795 102.311C262.319 101.622 262.006 100.834 261.879 100.006C261.752 99.178 261.814 98.3321 262.061 97.5319C233.978 94.0992 206.524 86.7001 180.519 75.5557C180.333 76.3725 179.964 77.1364 179.44 77.7898C178.916 78.4432 178.25 78.969 177.493 79.3275C176.736 79.686 175.908 79.8679 175.07 79.8593C174.232 79.8507 173.408 79.6519 172.658 79.278L164.745 108.728C166.411 109.521 167.756 110.86 168.555 112.523C169.355 114.185 169.562 116.072 169.141 117.868C195.144 129.017 222.599 136.416 250.683 139.844C251.634 136.294 255.391 133.792 259.088 134.144L259.147 134.15L267.075 104.708L267.005 104.69ZM210.94 122.827C203.649 120.854 199.397 113.049 201.385 105.806C203.373 98.5629 210.749 94.5631 218.035 96.5402C225.322 98.5173 229.741 105.68 227.764 112.967C225.787 120.254 218.238 124.824 210.94 122.827Z" fill="#E7E9EE"/>
<path d="M267.005 104.69C266.169 104.638 265.356 104.397 264.626 103.984C263.897 103.572 263.271 103 262.795 102.311C262.319 101.622 262.006 100.834 261.879 100.006C261.752 99.178 261.814 98.3321 262.061 97.5319C233.978 94.0992 206.524 86.7001 180.519 75.5557C180.333 76.3725 179.964 77.1364 179.44 77.7898C178.916 78.4432 178.25 78.969 177.493 79.3275C176.736 79.686 175.908 79.8679 175.07 79.8593C174.232 79.8507 173.408 79.6519 172.658 79.278L164.745 108.728C166.411 109.521 167.756 110.86 168.555 112.523C169.355 114.185 169.562 116.072 169.141 117.868C195.144 129.017 222.599 136.416 250.683 139.844C251.634 136.294 255.391 133.792 259.088 134.144L259.147 134.15L267.075 104.708L267.005 104.69ZM210.94 122.827C203.649 120.854 199.397 113.049 201.385 105.806C203.373 98.5629 210.749 94.5631 218.035 96.5402C225.322 98.5173 229.741 105.68 227.764 112.967C225.787 120.254 218.238 124.824 210.94 122.827Z" fill="url(#paint10_linear_117_1084)"/>
<path d="M267.005 104.69C266.169 104.638 265.356 104.397 264.626 103.984C263.897 103.572 263.271 103 262.795 102.311C262.319 101.622 262.006 100.834 261.879 100.006C261.752 99.178 261.814 98.3321 262.061 97.5319C233.978 94.0992 206.524 86.7001 180.519 75.5557C180.333 76.3725 179.964 77.1364 179.44 77.7898C178.916 78.4432 178.25 78.969 177.493 79.3275C176.736 79.686 175.908 79.8679 175.07 79.8593C174.232 79.8507 173.408 79.6519 172.658 79.278L164.745 108.728C166.411 109.521 167.756 110.86 168.555 112.523C169.355 114.185 169.562 116.072 169.141 117.868C195.144 129.017 222.599 136.416 250.683 139.844C251.634 136.294 255.391 133.792 259.088 134.144L259.147 134.15L267.075 104.708L267.005 104.69ZM210.94 122.827C203.649 120.854 199.397 113.049 201.385 105.806C203.373 98.5629 210.749 94.5631 218.035 96.5402C225.322 98.5173 229.741 105.68 227.764 112.967C225.787 120.254 218.238 124.824 210.94 122.827Z" fill="url(#paint11_linear_117_1084)"/>
<path d="M267.005 104.69C266.169 104.638 265.356 104.397 264.626 103.984C263.897 103.572 263.271 103 262.795 102.311C262.319 101.622 262.006 100.834 261.879 100.006C261.752 99.178 261.814 98.3321 262.061 97.5319C233.978 94.0992 206.524 86.7001 180.519 75.5557C180.333 76.3725 179.964 77.1364 179.44 77.7898C178.916 78.4432 178.25 78.969 177.493 79.3275C176.736 79.686 175.908 79.8679 175.07 79.8593C174.232 79.8507 173.408 79.6519 172.658 79.278L164.745 108.728C166.411 109.521 167.756 110.86 168.555 112.523C169.355 114.185 169.562 116.072 169.141 117.868C195.144 129.017 222.599 136.416 250.683 139.844C251.634 136.294 255.391 133.792 259.088 134.144L259.147 134.15L267.075 104.708L267.005 104.69ZM210.94 122.827C203.649 120.854 199.397 113.049 201.385 105.806C203.373 98.5629 210.749 94.5631 218.035 96.5402C225.322 98.5173 229.741 105.68 227.764 112.967C225.787 120.254 218.238 124.824 210.94 122.827Z" fill="#FCFCFD"/>
<path d="M214.005 117.048L213.477 119.003L212.042 118.612C212.21 117.978 212.374 117.341 212.561 116.681C210.88 116.109 209.38 115.09 208.681 114.043C209.101 113.531 209.521 113.019 209.937 112.502C210.74 113.552 211.828 114.348 213.071 114.796C213.385 113.636 213.698 112.477 214.012 111.317C212.196 110.321 210.297 109.097 210.948 106.673C211.427 104.895 213.13 103.721 215.925 104.206L216.457 102.239L217.892 102.622L217.369 104.557C218.605 104.944 219.728 105.626 220.641 106.544C220.244 107.072 219.844 107.597 219.451 108.121C218.711 107.391 217.831 106.818 216.863 106.438L215.913 109.956C217.733 110.949 219.69 112.095 219.039 114.511C218.56 116.29 216.828 117.497 214.005 117.048ZM214.579 109.21C214.858 108.175 215.139 107.143 215.422 106.114C214.127 105.967 213.443 106.452 213.229 107.214C213.015 107.976 213.646 108.636 214.579 109.21ZM216.746 114.096C216.979 113.24 216.314 112.642 215.346 112.063L214.515 115.148C215.846 115.3 216.548 114.843 216.746 114.096Z" fill="white"/>
<g style="mix-blend-mode:multiply" opacity="0.08">
<path d="M259.296 143.296C224.901 140.176 191.306 131.123 160 116.54L165.501 96.1127L184.474 75.5165C184.474 75.5165 223.448 123.193 259.296 143.296Z" fill="#AFB5CD"/>
</g>
<path d="M228.108 190.839C199.26 171.853 173.917 148.015 153.201 120.383C164.382 108.504 175.563 96.6213 186.742 84.7347C207.456 112.378 232.806 136.222 261.665 155.207C250.473 167.08 239.287 178.958 228.108 190.839Z" fill="#CDD0DD"/>
<path d="M228.108 190.839C199.26 171.853 173.917 148.015 153.201 120.383C164.382 108.504 175.563 96.6213 186.742 84.7347C207.456 112.378 232.806 136.222 261.665 155.207C250.473 167.08 239.287 178.958 228.108 190.839Z" fill="url(#paint12_linear_117_1084)"/>
<path d="M228.108 190.839C199.26 171.853 173.917 148.015 153.201 120.383C164.382 108.504 175.563 96.6213 186.742 84.7347C207.456 112.378 232.806 136.222 261.665 155.207C250.473 167.08 239.287 178.958 228.108 190.839Z" fill="#E0E1EE"/>
<path d="M253.143 160.443C252.436 159.996 251.839 159.396 251.396 158.686C250.953 157.977 250.675 157.177 250.583 156.346C250.491 155.515 250.588 154.673 250.866 153.885C251.144 153.096 251.596 152.38 252.189 151.79C229.054 135.505 208.348 116.018 190.691 93.9127C190.141 94.5447 189.455 95.0436 188.685 95.3719C187.914 95.7002 187.079 95.8493 186.242 95.808C185.406 95.7666 184.589 95.536 183.855 95.1334C183.12 94.7308 182.487 94.1667 182.002 93.4837C175.035 100.893 168.065 108.3 161.092 115.703C162.189 117.188 162.743 119.003 162.663 120.846C162.584 122.69 161.875 124.45 160.654 125.834C178.311 147.94 199.017 167.426 222.152 183.711C224.669 181.032 229.168 180.595 232.242 182.663L232.28 182.703L253.182 160.483L253.143 160.443ZM195.152 149.964C189.661 144.78 189.615 135.904 194.751 130.419C199.888 124.934 208.314 124.931 213.805 130.115C219.296 135.299 219.769 143.718 214.621 149.191C209.472 154.663 200.631 155.152 195.152 149.964Z" fill="#E7E9EE"/>
<path d="M253.143 160.443C252.436 159.996 251.839 159.396 251.396 158.686C250.953 157.977 250.675 157.177 250.583 156.346C250.491 155.515 250.588 154.673 250.866 153.885C251.144 153.096 251.596 152.38 252.189 151.79C229.054 135.505 208.348 116.018 190.691 93.9127C190.141 94.5447 189.455 95.0436 188.685 95.3719C187.914 95.7002 187.079 95.8493 186.242 95.808C185.406 95.7666 184.589 95.536 183.855 95.1334C183.12 94.7308 182.487 94.1667 182.002 93.4837C175.035 100.893 168.065 108.3 161.092 115.703C162.189 117.188 162.743 119.003 162.663 120.846C162.584 122.69 161.875 124.45 160.654 125.834C178.311 147.94 199.017 167.426 222.152 183.711C224.669 181.032 229.168 180.595 232.242 182.663L232.28 182.703L253.182 160.483L253.143 160.443ZM195.152 149.964C189.661 144.78 189.615 135.904 194.751 130.419C199.888 124.934 208.314 124.931 213.805 130.115C219.296 135.299 219.769 143.718 214.621 149.191C209.472 154.663 200.631 155.152 195.152 149.964Z" fill="url(#paint13_linear_117_1084)"/>
<path d="M253.143 160.443C252.436 159.996 251.839 159.396 251.396 158.686C250.953 157.977 250.675 157.177 250.583 156.346C250.491 155.515 250.588 154.673 250.866 153.885C251.144 153.096 251.596 152.38 252.189 151.79C229.054 135.505 208.348 116.018 190.691 93.9127C190.141 94.5447 189.455 95.0436 188.685 95.3719C187.914 95.7002 187.079 95.8493 186.242 95.808C185.406 95.7666 184.589 95.536 183.855 95.1334C183.12 94.7308 182.487 94.1667 182.002 93.4837C175.035 100.893 168.065 108.3 161.092 115.703C162.189 117.188 162.743 119.003 162.663 120.846C162.584 122.69 161.875 124.45 160.654 125.834C178.311 147.94 199.017 167.426 222.152 183.711C224.669 181.032 229.168 180.595 232.242 182.663L232.28 182.703L253.182 160.483L253.143 160.443ZM195.152 149.964C189.661 144.78 189.615 135.904 194.751 130.419C199.888 124.934 208.314 124.931 213.805 130.115C219.296 135.299 219.769 143.718 214.621 149.191C209.472 154.663 200.631 155.152 195.152 149.964Z" fill="url(#paint14_linear_117_1084)"/>
<path d="M253.143 160.443C252.436 159.996 251.839 159.396 251.396 158.686C250.953 157.977 250.675 157.177 250.583 156.346C250.491 155.515 250.588 154.673 250.866 153.885C251.144 153.096 251.596 152.38 252.189 151.79C229.054 135.505 208.348 116.018 190.691 93.9127C190.141 94.5447 189.455 95.0436 188.685 95.3719C187.914 95.7002 187.079 95.8493 186.242 95.808C185.406 95.7666 184.589 95.536 183.855 95.1334C183.12 94.7308 182.487 94.1667 182.002 93.4837C175.035 100.893 168.065 108.3 161.092 115.703C162.189 117.188 162.743 119.003 162.663 120.846C162.584 122.69 161.875 124.45 160.654 125.834C178.311 147.94 199.017 167.426 222.152 183.711C224.669 181.032 229.168 180.595 232.242 182.663L232.28 182.703L253.182 160.483L253.143 160.443ZM195.152 149.964C189.661 144.78 189.615 135.904 194.751 130.419C199.888 124.934 208.314 124.931 213.805 130.115C219.296 135.299 219.769 143.718 214.621 149.191C209.472 154.663 200.631 155.152 195.152 149.964Z" fill="#FCFCFD"/>
<path d="M201.18 145.306L199.796 146.776L198.714 145.761L200.086 144.302C198.953 143.169 198.192 141.717 197.906 140.141C198.52 139.89 199.13 139.635 199.739 139.381C199.955 140.684 200.537 141.899 201.418 142.882C202.246 142.008 203.07 141.131 203.89 140.254C202.765 138.52 201.663 136.544 203.384 134.717C204.647 133.378 206.701 133.152 208.925 134.904L210.321 133.423L211.404 134.438L210.031 135.896C210.943 136.816 211.611 137.949 211.975 139.193L210.18 140.017C209.875 139.023 209.37 138.103 208.696 137.312L206.199 139.972C207.332 141.697 208.518 143.633 206.797 145.468C205.57 146.804 203.471 147.056 201.18 145.306ZM205.392 138.665C206.121 137.885 206.853 137.105 207.589 136.328C206.519 135.585 205.685 135.684 205.137 136.263C204.589 136.842 204.863 137.725 205.408 138.681L205.392 138.665ZM204.994 143.999C205.599 143.358 205.3 142.515 204.717 141.549L202.524 143.875C203.645 144.647 204.462 144.595 204.994 143.999Z" fill="white"/>
</g>
<path d="M78.3914 41.8974C73.227 62.9572 44.2827 60.4262 39.1262 81.4781C31.8198 74.1717 24.4819 66.8916 17.1124 59.6378C22.2768 38.5781 51.2211 41.109 56.3776 20.0572L78.3914 41.8974Z" fill="#F2F3F6"/>
<path d="M78.3914 41.8974C73.227 62.9572 44.2827 60.4262 39.1262 81.4781C31.8198 74.1717 24.4819 66.8916 17.1124 59.6378C22.2768 38.5781 51.2211 41.109 56.3776 20.0572L78.3914 41.8974Z" fill="url(#paint15_linear_117_1084)"/>
<path d="M74.1024 41.1558L59.0113 26.1909C58.9431 26.4731 58.7981 26.7308 58.5923 26.9356C58.3866 27.1405 58.1282 27.2843 57.8457 27.3513C57.5632 27.4182 57.2677 27.4057 56.9919 27.315C56.7161 27.2243 56.4709 27.059 56.2833 26.8374C48.8954 41.1006 28.1511 42.1177 20.7553 56.3888C21.2148 56.9326 21.5177 57.5912 21.6316 58.294C21.7455 58.9968 21.6661 59.7173 21.4019 60.3784L36.5008 75.3512C36.5675 75.0699 36.711 74.8126 36.9153 74.6081C37.1196 74.4035 37.3767 74.2597 37.6579 74.1927C37.9391 74.1256 38.2334 74.138 38.508 74.2284C38.7826 74.3188 39.0267 74.4837 39.2131 74.7047C46.6089 60.4336 67.3611 59.4244 74.7568 45.1533C74.2946 44.6094 73.9894 43.9499 73.8741 43.2455C73.7588 42.5411 73.8377 41.8187 74.1024 41.1558Z" fill="#ECEAFA"/>
<path d="M74.1024 41.1558L59.0113 26.1909C58.9431 26.4731 58.7981 26.7308 58.5923 26.9356C58.3866 27.1405 58.1282 27.2843 57.8457 27.3513C57.5632 27.4182 57.2677 27.4057 56.9919 27.315C56.7161 27.2243 56.4709 27.059 56.2833 26.8374C48.8954 41.1006 28.1511 42.1177 20.7553 56.3888C21.2148 56.9326 21.5177 57.5912 21.6316 58.294C21.7455 58.9968 21.6661 59.7173 21.4019 60.3784L36.5008 75.3512C36.5675 75.0699 36.711 74.8126 36.9153 74.6081C37.1196 74.4035 37.3767 74.2597 37.6579 74.1927C37.9391 74.1256 38.2334 74.138 38.508 74.2284C38.7826 74.3188 39.0267 74.4837 39.2131 74.7047C46.6089 60.4336 67.3611 59.4244 74.7568 45.1533C74.2946 44.6094 73.9894 43.9499 73.8741 43.2455C73.7588 42.5411 73.8377 41.8187 74.1024 41.1558Z" fill="url(#paint16_linear_117_1084)"/>
<path d="M45.2524 50.2C45.401 50.3381 45.5937 50.4191 45.7964 50.4287C46.0706 50.4322 46.3439 50.3977 46.6086 50.3262C46.2143 49.9319 45.8201 49.5377 45.4337 49.1514C45.2527 49.2899 45.1269 49.4884 45.0789 49.7112C45.0661 49.8006 45.0751 49.8918 45.1054 49.977C45.1356 50.0622 45.186 50.1387 45.2524 50.2Z" fill="white"/>
<path d="M49.1084 51.1543L50.2438 52.2897C50.4208 52.1611 50.5465 51.9739 50.5986 51.7614C50.6152 51.678 50.6093 51.5918 50.5816 51.5114C50.5539 51.4311 50.5054 51.3595 50.4409 51.3041C50.2944 51.1664 50.1052 51.0829 49.9047 51.0676C49.6364 51.0557 49.3679 51.0849 49.1084 51.1543Z" fill="white"/>
<path d="M41.5547 44.6251C37.1078 46.9747 36.5007 51.8553 39.9226 55.2614C43.3445 58.6676 49.455 59.2274 53.902 56.8778C58.3489 54.5282 58.9639 49.6397 55.5262 46.2336C52.0885 42.8274 46.0331 42.2913 41.5547 44.6251ZM52.5537 51.7449C52.4626 52.0799 52.3064 52.3937 52.094 52.6683C51.8816 52.943 51.6172 53.1731 51.3158 53.3455L52.2383 54.268L51.166 54.8514L50.2671 53.9526C49.7186 54.2204 49.1422 54.4266 48.5483 54.5676C48.028 54.7002 47.4925 54.7639 46.9556 54.7568L46.5299 53.4322C46.9774 53.4322 47.4238 53.3873 47.8624 53.2982C48.3144 53.2041 48.7556 53.0641 49.1791 52.8803L47.8072 51.5083C47.2817 51.6686 46.7473 51.7976 46.2066 51.8947C45.7487 51.9659 45.282 51.9579 44.8268 51.8711C44.3517 51.7689 43.918 51.5273 43.581 51.1772C43.3666 50.9922 43.2038 50.7547 43.1084 50.488C43.0131 50.2214 42.9885 49.9345 43.037 49.6555C43.2347 48.9726 43.6898 48.3931 44.3064 48.0392C44.0068 47.7395 43.6993 47.432 43.3918 47.1245L44.4641 46.5411L45.3629 47.4399C46.2003 47.0472 47.1047 46.8171 48.0279 46.7618L48.5168 48.0549C47.8093 48.1031 47.1144 48.2655 46.4589 48.5359C46.9241 49.001 47.3972 49.4741 47.8624 49.9393C48.3754 49.7731 48.8998 49.644 49.4314 49.553C49.8859 49.4755 50.3507 49.4809 50.8033 49.5688C51.2699 49.6719 51.697 49.9073 52.0333 50.2468C52.2495 50.4305 52.4136 50.6677 52.5091 50.9348C52.6046 51.2019 52.6281 51.4895 52.5773 51.7686L52.5537 51.7449Z" fill="#FBFCFD"/>
<path d="M401.696 128.949C380.014 129.222 375.218 100.566 353.545 100.845C358.789 91.942 364 83.015 369.178 74.0641C390.86 73.791 395.657 102.447 417.329 102.168L401.696 128.949Z" fill="#F2F3F6"/>
<path d="M401.696 128.949C380.014 129.222 375.218 100.566 353.545 100.845C358.789 91.942 364 83.015 369.178 74.0641C390.86 73.791 395.657 102.447 417.329 102.168L401.696 128.949Z" fill="url(#paint17_linear_117_1084)"/>
<path d="M401.34 124.611L412.049 106.254C411.759 106.258 411.473 106.182 411.223 106.034C410.974 105.887 410.77 105.672 410.634 105.416C410.499 105.159 410.437 104.87 410.456 104.58C410.474 104.29 410.573 104.011 410.74 103.774C395.082 100.193 388.903 80.3641 373.235 76.7771C372.823 77.3581 372.262 77.8163 371.61 78.1025C370.958 78.3887 370.24 78.4922 369.534 78.402L358.819 96.7689C359.108 96.763 359.393 96.8375 359.642 96.984C359.891 97.1306 360.095 97.3435 360.23 97.599C360.365 97.8545 360.427 98.1425 360.408 98.431C360.39 98.7195 360.291 98.9971 360.124 99.2329C375.792 102.82 381.965 122.658 397.633 126.245C398.044 125.662 398.606 125.201 399.259 124.913C399.912 124.625 400.632 124.521 401.34 124.611Z" fill="#ECEAFA"/>
<path d="M401.34 124.611L412.049 106.254C411.759 106.258 411.473 106.182 411.223 106.034C410.974 105.887 410.77 105.672 410.634 105.416C410.499 105.159 410.437 104.87 410.456 104.58C410.474 104.29 410.573 104.011 410.74 103.774C395.082 100.193 388.903 80.3641 373.235 76.7771C372.823 77.3581 372.262 77.8163 371.61 78.1025C370.958 78.3887 370.24 78.4922 369.534 78.402L358.819 96.7689C359.108 96.763 359.393 96.8375 359.642 96.984C359.891 97.1306 360.095 97.3435 360.23 97.599C360.365 97.8545 360.427 98.1425 360.408 98.431C360.39 98.7195 360.291 98.9971 360.124 99.2329C375.792 102.82 381.965 122.658 397.633 126.245C398.044 125.662 398.606 125.201 399.259 124.913C399.912 124.625 400.632 124.521 401.34 124.611Z" fill="url(#paint18_linear_117_1084)"/>
<path d="M385.361 98.9451C385.264 99.1235 385.234 99.3304 385.275 99.529C385.341 99.7953 385.443 100.051 385.578 100.29C385.861 99.8092 386.144 99.3288 386.421 98.8581C386.242 98.7175 386.018 98.6454 385.79 98.6547C385.701 98.6646 385.615 98.6963 385.54 98.7469C385.465 98.7974 385.403 98.8654 385.361 98.9451Z" fill="white"/>
<path d="M385.402 102.916L384.587 104.3C384.756 104.439 384.969 104.513 385.188 104.511C385.273 104.506 385.355 104.479 385.425 104.432C385.496 104.385 385.553 104.32 385.591 104.244C385.688 104.067 385.721 103.863 385.686 103.665C385.63 103.403 385.534 103.15 385.402 102.916Z" fill="white"/>
<path d="M389.832 93.9689C386.444 90.252 381.567 90.8862 379.126 95.0519C376.685 99.2177 377.673 105.274 381.061 108.991C384.449 112.708 389.336 112.079 391.773 107.898C394.21 103.717 393.213 97.7204 389.832 93.9689ZM385.693 106.4C385.346 106.396 385.003 106.323 384.684 106.186C384.365 106.05 384.076 105.851 383.833 105.603L383.171 106.727L382.338 105.835L382.983 104.739C382.587 104.275 382.243 103.769 381.957 103.229C381.699 102.759 381.503 102.256 381.375 101.735L382.551 100.991C382.663 101.424 382.819 101.845 383.015 102.247C383.219 102.661 383.465 103.053 383.749 103.417L384.734 101.746C384.447 101.277 384.188 100.792 383.959 100.293C383.775 99.8673 383.666 99.4134 383.636 98.951C383.616 98.4655 383.741 97.9851 383.996 97.5712C384.121 97.3173 384.311 97.1002 384.545 96.9411C384.779 96.7821 385.051 96.6864 385.333 96.6635C386.044 96.6839 386.719 96.9794 387.216 97.4878C387.431 97.1227 387.652 96.748 387.872 96.3733L388.706 97.2654L388.06 98.3606C388.65 99.073 389.1 99.891 389.384 100.771L388.255 101.568C388.031 100.895 387.7 100.263 387.274 99.6961C386.94 100.263 386.6 100.839 386.266 101.406C386.556 101.861 386.812 102.337 387.033 102.829C387.222 103.249 387.333 103.701 387.362 104.161C387.379 104.638 387.258 105.111 387.013 105.521C386.889 105.777 386.701 105.995 386.466 106.154C386.231 106.314 385.959 106.408 385.676 106.429L385.693 106.4Z" fill="#FBFCFD"/>
<path d="M157.014 21.824C159.225 12.4561 153.423 3.06945 144.055 0.858418C134.687 -1.35262 125.3 4.4492 123.089 13.8171C120.878 23.1851 126.68 32.5717 136.048 34.7827C145.416 36.9938 154.803 31.192 157.014 21.824Z" fill="#ECEAFB"/>
<path d="M154.46 30.139C161.266 23.3329 161.266 12.298 154.46 5.49183C147.654 -1.3143 136.619 -1.3143 129.813 5.49183C123.007 12.298 123.007 23.3329 129.813 30.139C136.619 36.9452 147.654 36.9452 154.46 30.139Z" fill="#F2F3F6"/>
<path d="M142.143 30.8646C149.348 30.8646 155.189 25.0236 155.189 17.8185C155.189 10.6134 149.348 4.77246 142.143 4.77246C134.938 4.77246 129.097 10.6134 129.097 17.8185C129.097 25.0236 134.938 30.8646 142.143 30.8646Z" fill="#ECEAFA"/>
<path d="M142.143 30.8646C149.348 30.8646 155.189 25.0236 155.189 17.8185C155.189 10.6134 149.348 4.77246 142.143 4.77246C134.938 4.77246 129.097 10.6134 129.097 17.8185C129.097 25.0236 134.938 30.8646 142.143 30.8646Z" fill="url(#paint19_linear_117_1084)"/>
<path d="M147.875 20.5953C148.376 23.4833 146.392 25.4123 142.823 25.7134V28.0996H140.593L140.66 25.7134C138.784 25.5804 136.966 25.0074 135.353 24.0408L136.334 21.3536C137.652 22.2201 139.158 22.7592 140.727 22.9258L140.827 19.2684C138.698 18.6552 136.367 17.8523 135.888 15.232C135.386 12.344 137.404 10.4038 141.05 10.1362V7.75H143.281V10.1585C144.75 10.2863 146.18 10.7071 147.484 11.3962L146.57 14.0054C145.527 13.3905 144.363 13.01 143.158 12.8904L143.069 16.7038C145.154 17.3506 147.44 18.1088 147.875 20.5953ZM140.894 16.1352L140.972 13.013C139.779 13.2472 139.199 13.9162 139.322 14.7414C139.445 15.5665 140.047 15.8006 140.928 16.1352H140.894ZM144.462 21.164C144.351 20.5284 143.782 20.1382 142.968 19.8594V22.8254C144.039 22.5913 144.607 21.9892 144.462 21.164Z" fill="white"/>
<path d="M396.23 211.274C398.441 201.906 392.639 192.52 383.271 190.309C373.903 188.098 364.516 193.899 362.305 203.267C360.094 212.635 365.896 222.022 375.264 224.233C384.632 226.444 394.018 220.642 396.23 211.274Z" fill="#ECEAFB"/>
<path d="M393.676 219.589C400.482 212.783 400.482 201.748 393.676 194.942C386.87 188.136 375.835 188.136 369.029 194.942C362.223 201.748 362.223 212.783 369.029 219.589C375.835 226.395 386.87 226.395 393.676 219.589Z" fill="#F2F3F6"/>
<path d="M381.359 220.315C388.564 220.315 394.405 214.474 394.405 207.269C394.405 200.064 388.564 194.223 381.359 194.223C374.153 194.223 368.312 200.064 368.312 207.269C368.312 214.474 374.153 220.315 381.359 220.315Z" fill="#ECEAFA"/>
<path d="M381.359 220.315C388.564 220.315 394.405 214.474 394.405 207.269C394.405 200.064 388.564 194.223 381.359 194.223C374.153 194.223 368.312 200.064 368.312 207.269C368.312 214.474 374.153 220.315 381.359 220.315Z" fill="url(#paint20_linear_117_1084)"/>
<path d="M387.09 210.046C387.592 212.934 385.607 214.863 382.039 215.164V217.55H379.809L379.876 215.164C378 215.031 376.182 214.458 374.568 213.491L375.55 210.804C376.868 211.67 378.374 212.209 379.943 212.376L380.043 208.719C377.914 208.105 375.583 207.303 375.104 204.682C374.602 201.794 376.62 199.854 380.266 199.586V197.2H382.496V199.609C383.966 199.736 385.396 200.157 386.7 200.846L385.786 203.456C384.743 202.841 383.578 202.46 382.374 202.341L382.284 206.154C384.37 206.801 386.655 207.559 387.09 210.046ZM380.11 205.585L380.188 202.463C378.995 202.697 378.415 203.366 378.538 204.192C378.661 205.017 379.263 205.251 380.144 205.585H380.11ZM383.678 210.614C383.567 209.979 382.998 209.588 382.184 209.31V212.276C383.255 212.041 383.823 211.439 383.678 210.614Z" fill="white"/>
<path fill-rule="evenodd" clip-rule="evenodd" d="M127.016 66.2637H134.129V131.017H127.016V66.2637ZM65.8887 74.1836H73.0016V131.016H65.8887V74.1836ZM78.1105 83.6367H85.2234V131.045H78.1105V83.6367ZM97.4634 100.868H90.3505V131.045H97.4634V100.868ZM102.572 82.8135H109.685V131.045H102.572V82.8135ZM121.907 90.7334H114.794V131.044H121.907V90.7334Z" fill="url(#paint21_linear_117_1084)"/>
<path d="M61.7729 62.3174V131.045L61.5923 130.761C78.8691 130.761 96.1459 130.761 113.423 130.761H127.865L140.665 130.931H113.423C96.1459 130.931 78.8691 130.931 61.5923 130.931H61.4118V79.1231L61.7729 62.3174Z" fill="#CDD0DD"/>
<path d="M60.2021 66.264C61.2325 65.8482 62.313 65.8482 63.3434 66.264C62.313 66.6798 61.2325 66.6798 60.2021 66.264Z" fill="#CDD0DD"/>
<path d="M60.2021 73.0764C60.716 72.8747 61.2432 72.7699 61.7728 72.7641C62.3029 72.7558 62.8312 72.8608 63.3434 73.0764C62.313 73.4922 61.2325 73.4922 60.2021 73.0764Z" fill="#CDD0DD"/>
<path d="M60.2021 79.89C61.2325 79.4742 62.313 79.4742 63.3434 79.89C62.3163 80.3447 61.2293 80.3447 60.2021 79.89Z" fill="#CDD0DD"/>
<path d="M60.2021 86.7307C61.2293 86.276 62.3163 86.276 63.3434 86.7307C62.313 87.1465 61.2325 87.1465 60.2021 86.7307Z" fill="#CDD0DD"/>
<path d="M60.2021 93.5443C61.2325 93.1285 62.313 93.1285 63.3434 93.5443C62.313 93.9601 61.2325 93.9601 60.2021 93.5443Z" fill="#CDD0DD"/>
<path d="M60.2021 100.358C61.2325 99.9419 62.313 99.9419 63.3434 100.358C62.313 100.774 61.2325 100.774 60.2021 100.358Z" fill="#CDD0DD"/>
<path d="M60.2021 107.171C60.716 106.969 61.2432 106.864 61.7728 106.858C62.3033 106.836 62.833 106.941 63.3434 107.171C62.313 107.586 61.2325 107.586 60.2021 107.171Z" fill="#CDD0DD"/>
<path d="M60.2021 113.984C61.2325 113.568 62.313 113.568 63.3434 113.984C62.3163 114.438 61.2293 114.438 60.2021 113.984Z" fill="#CDD0DD"/>
<path d="M60.2021 120.825C61.2293 120.371 62.3163 120.371 63.3434 120.825C62.313 121.241 61.2325 121.241 60.2021 120.825Z" fill="#CDD0DD"/>
<path d="M406 243.928C406 244.639 316.457 245.216 206 245.216C95.5431 245.216 6 244.639 6 243.928C6 243.216 95.5431 242.64 206 242.64C316.457 242.64 406 243.216 406 243.928Z" fill="#D2D1E0"/>
<defs>
<radialGradient id="paint0_radial_117_1084" cx="0" cy="0" r="1" gradientUnits="userSpaceOnUse" gradientTransform="translate(259.246 227.484) rotate(-120.332) scale(192.366 301.174)">
<stop stop-color="#EEEBFD"/>
<stop offset="1" stop-color="#EEEBFD" stop-opacity="0"/>
</radialGradient>
<linearGradient id="paint1_linear_117_1084" x1="120.14" y1="77.9039" x2="306.449" y2="288.18" gradientUnits="userSpaceOnUse">
<stop stop-color="#E6E7EC"/>
<stop offset="1" stop-color="#F4F3FB"/>
</linearGradient>
<linearGradient id="paint2_linear_117_1084" x1="240.966" y1="106.818" x2="298.535" y2="217.102" gradientUnits="userSpaceOnUse">
<stop stop-color="#FDFDFE"/>
<stop offset="1" stop-color="#F7F8FA"/>
</linearGradient>
<linearGradient id="paint3_linear_117_1084" x1="340.05" y1="207.647" x2="252.45" y2="192.484" gradientUnits="userSpaceOnUse">
<stop stop-color="#F7F8FA"/>
<stop offset="1" stop-color="#FDFDFE"/>
</linearGradient>
<linearGradient id="paint4_linear_117_1084" x1="243.232" y1="187.563" x2="261.962" y2="206.294" gradientUnits="userSpaceOnUse">
<stop stop-color="#EEECF9"/>
<stop offset="1" stop-color="#DEE1E8"/>
</linearGradient>
<linearGradient id="paint5_linear_117_1084" x1="108.996" y1="195.437" x2="142.995" y2="242.786" gradientUnits="userSpaceOnUse">
<stop stop-color="#0BB5FF"/>
<stop offset="1" stop-color="#583AFB"/>
</linearGradient>
<linearGradient id="paint6_linear_117_1084" x1="-97.7046" y1="240.401" x2="49.5677" y2="340.886" gradientUnits="userSpaceOnUse">
<stop stop-color="#F7F8FA"/>
<stop offset="1" stop-color="#F7F8FA" stop-opacity="0"/>
</linearGradient>
<linearGradient id="paint7_linear_117_1084" x1="170.111" y1="22.1538" x2="175.071" y2="90.435" gradientUnits="userSpaceOnUse">
<stop stop-color="#F7F8FA"/>
<stop offset="1" stop-color="#F7F8FA" stop-opacity="0"/>
</linearGradient>
<linearGradient id="paint8_linear_117_1084" x1="186.192" y1="87.4027" x2="187.586" y2="24.1374" gradientUnits="userSpaceOnUse">
<stop stop-color="#F7F8FA" stop-opacity="0"/>
<stop offset="1" stop-color="#FDFDFE"/>
</linearGradient>
<linearGradient id="paint9_linear_117_1084" x1="-91.6923" y1="184.463" x2="56.1815" y2="317.929" gradientUnits="userSpaceOnUse">
<stop stop-color="#F7F8FA"/>
<stop offset="1" stop-color="#F7F8FA" stop-opacity="0"/>
</linearGradient>
<linearGradient id="paint10_linear_117_1084" x1="174.703" y1="48.2003" x2="159.84" y2="111.543" gradientUnits="userSpaceOnUse">
<stop stop-color="#F7F8FA"/>
<stop offset="1" stop-color="#F7F8FA" stop-opacity="0"/>
</linearGradient>
<linearGradient id="paint11_linear_117_1084" x1="190.799" y1="116.642" x2="208.983" y2="60.95" gradientUnits="userSpaceOnUse">
<stop stop-color="#F7F8FA" stop-opacity="0"/>
<stop offset="1" stop-color="#FDFDFE"/>
</linearGradient>
<linearGradient id="paint12_linear_117_1084" x1="-12.1406" y1="147.205" x2="130.352" y2="264.768" gradientUnits="userSpaceOnUse">
<stop stop-color="#F7F8FA"/>
<stop offset="1" stop-color="#F7F8FA" stop-opacity="0"/>
</linearGradient>
<linearGradient id="paint13_linear_117_1084" x1="162.276" y1="82.9633" x2="143.835" y2="123.044" gradientUnits="userSpaceOnUse">
<stop stop-color="#F7F8FA"/>
<stop offset="1" stop-color="#F7F8FA" stop-opacity="0"/>
</linearGradient>
<linearGradient id="paint14_linear_117_1084" x1="188.414" y1="141.982" x2="206.708" y2="107.971" gradientUnits="userSpaceOnUse">
<stop stop-color="#F7F8FA" stop-opacity="0"/>
<stop offset="1" stop-color="#FDFDFE"/>
</linearGradient>
<linearGradient id="paint15_linear_117_1084" x1="49.2777" y1="75.6363" x2="19.0217" y2="59.5202" gradientUnits="userSpaceOnUse">
<stop stop-color="#FBFBFC"/>
<stop offset="1" stop-color="#FBFBFC" stop-opacity="0"/>
</linearGradient>
<linearGradient id="paint16_linear_117_1084" x1="-21.2824" y1="72.6135" x2="69.1833" y2="72.1983" gradientUnits="userSpaceOnUse">
<stop stop-color="#F7F8FA"/>
<stop offset="1" stop-color="#F2F0FE"/>
</linearGradient>
<linearGradient id="paint17_linear_117_1084" x1="361.743" y1="109.21" x2="369.77" y2="75.883" gradientUnits="userSpaceOnUse">
<stop stop-color="#FBFBFC"/>
<stop offset="1" stop-color="#FBFBFC" stop-opacity="0"/>
</linearGradient>
<linearGradient id="paint18_linear_117_1084" x1="347.002" y1="40.1407" x2="370.054" y2="127.621" gradientUnits="userSpaceOnUse">
<stop stop-color="#F7F8FA"/>
<stop offset="1" stop-color="#F2F0FE"/>
</linearGradient>
<linearGradient id="paint19_linear_117_1084" x1="109.173" y1="-9.11498" x2="155.952" y2="20.3508" gradientUnits="userSpaceOnUse">
<stop stop-color="#F7F8FA"/>
<stop offset="1" stop-color="#F2F0FE"/>
</linearGradient>
<linearGradient id="paint20_linear_117_1084" x1="348.389" y1="180.335" x2="395.168" y2="209.801" gradientUnits="userSpaceOnUse">
<stop stop-color="#F7F8FA"/>
<stop offset="1" stop-color="#F2F0FE"/>
</linearGradient>
<linearGradient id="paint21_linear_117_1084" x1="74.3256" y1="51.3905" x2="114.901" y2="159.812" gradientUnits="userSpaceOnUse">
<stop offset="0.148564" stop-color="#DDE0E8"/>
<stop offset="1" stop-color="#DDE0E8" stop-opacity="0"/>
</linearGradient>
</defs>
</svg>
