<svg width="407" height="251" viewBox="0 0 407 251" fill="none" xmlns="http://www.w3.org/2000/svg">
<path d="M248.428 86.4116C219.61 71.4654 198.438 14.1471 163.621 33.3533C142.466 45.0227 149.057 54.0523 122.332 47.7443C104.5 43.5572 92.0843 32.8709 67.5077 42.0098C-26.8667 77.1453 34.3838 209.495 120.466 215.476C145.625 217.223 149.748 193.111 168.445 187.049C187.46 180.895 207.84 197.007 223.924 204.625C263.912 223.568 302.998 222.421 338.188 193.411C364.985 171.329 374.498 121.902 344.942 96.0693C318.863 73.2403 280.223 102.896 248.428 86.4116Z" fill="#F4F3FB"/>
<path d="M248.428 86.4116C219.61 71.4654 198.438 14.1471 163.621 33.3533C142.466 45.0227 149.057 54.0523 122.332 47.7443C104.5 43.5572 92.0843 32.8709 67.5077 42.0098C-26.8667 77.1453 34.3838 209.495 120.466 215.476C145.625 217.223 149.748 193.111 168.445 187.049C187.46 180.895 207.84 197.007 223.924 204.625C263.912 223.568 302.998 222.421 338.188 193.411C364.985 171.329 374.498 121.902 344.942 96.0693C318.863 73.2403 280.223 102.896 248.428 86.4116Z" fill="url(#paint0_radial_117_1236)"/>
<path d="M133.054 152.277L146.47 151.8H221.345H247.478L221.345 152.755H146.47L133.054 152.277Z" fill="#C3C6D6"/>
<path d="M382.552 27.2701C382.552 25.0898 384.32 23.3223 386.5 23.3223C388.68 23.3223 390.448 25.0898 390.448 27.2701V54.3744C390.448 56.5548 388.68 58.3223 386.5 58.3223C384.32 58.3223 382.552 56.5548 382.552 54.3744V27.2701Z" fill="white"/>
<path d="M372.948 44.7701C370.768 44.7701 369 43.0026 369 40.8223C369 38.6419 370.768 36.8744 372.948 36.8744H400.052C402.232 36.8744 404 38.6419 404 40.8223C404 43.0026 402.232 44.7701 400.052 44.7701H372.948Z" fill="white"/>
<path d="M35.6889 204.816C35.6889 202.636 37.4564 200.868 39.6367 200.868C41.8171 200.868 43.5846 202.636 43.5846 204.816V231.92C43.5846 234.101 41.8171 235.868 39.6367 235.868C37.4564 235.868 35.6889 234.101 35.6889 231.92V204.816Z" fill="white"/>
<path d="M26.0846 222.316C23.9042 222.316 22.1367 220.548 22.1367 218.368C22.1367 216.188 23.9042 214.42 26.0846 214.42H53.1889C55.3692 214.42 57.1367 216.188 57.1367 218.368C57.1367 220.548 55.3692 222.316 53.1889 222.316H26.0846Z" fill="white"/>
<path d="M405.88 150.979C409.487 172.361 381.91 181.511 385.521 202.882C375.917 199.07 366.294 195.295 356.653 191.557C353.047 170.175 380.623 161.026 377.012 139.654L405.88 150.979Z" fill="#F2F3F6"/>
<path d="M405.88 150.979C409.487 172.361 381.91 181.511 385.521 202.882C375.917 199.07 366.294 195.295 356.653 191.557C353.047 170.175 380.623 161.026 377.012 139.654L405.88 150.979Z" fill="url(#paint1_linear_117_1236)"/>
<path d="M401.648 151.999L381.862 144.242C381.911 144.528 381.88 144.822 381.772 145.092C381.664 145.362 381.484 145.596 381.251 145.77C381.019 145.943 380.742 146.049 380.453 146.075C380.164 146.101 379.873 146.046 379.613 145.917C378.484 161.94 359.843 171.097 358.71 187.131C359.347 187.448 359.886 187.932 360.269 188.533C360.653 189.133 360.865 189.826 360.885 190.537L380.682 198.298C380.632 198.014 380.661 197.721 380.768 197.452C380.874 197.183 381.053 196.949 381.285 196.776C381.517 196.603 381.792 196.498 382.08 196.472C382.368 196.446 382.657 196.501 382.916 196.63C384.049 180.596 402.701 171.443 403.834 155.41C403.194 155.094 402.652 154.609 402.267 154.008C401.882 153.407 401.668 152.713 401.648 151.999Z" fill="#ECEAFA"/>
<path d="M401.648 151.999L381.862 144.242C381.911 144.528 381.88 144.822 381.772 145.092C381.664 145.362 381.484 145.596 381.251 145.77C381.019 145.943 380.742 146.049 380.453 146.075C380.164 146.101 379.873 146.046 379.613 145.917C378.484 161.94 359.843 171.097 358.71 187.131C359.347 187.448 359.886 187.932 360.269 188.533C360.653 189.133 360.865 189.826 360.885 190.537L380.682 198.298C380.632 198.014 380.661 197.721 380.768 197.452C380.874 197.183 381.053 196.949 381.285 196.776C381.517 196.603 381.792 196.498 382.08 196.472C382.368 196.446 382.657 196.501 382.916 196.63C384.049 180.596 402.701 171.443 403.834 155.41C403.194 155.094 402.652 154.609 402.267 154.008C401.882 153.407 401.668 152.713 401.648 151.999Z" fill="url(#paint2_linear_117_1236)"/>
<path d="M378.747 171.738C378.938 171.806 379.147 171.804 379.337 171.732C379.59 171.627 379.827 171.487 380.042 171.316C379.524 171.11 379.006 170.905 378.498 170.703C378.386 170.902 378.35 171.134 378.394 171.358C378.418 171.445 378.462 171.525 378.524 171.591C378.585 171.657 378.662 171.708 378.747 171.738Z" fill="white"/>
<path d="M382.665 171.085L384.157 171.677C384.269 171.489 384.31 171.267 384.274 171.052C384.256 170.969 384.216 170.892 384.159 170.829C384.102 170.766 384.029 170.72 383.948 170.694C383.759 170.626 383.552 170.624 383.362 170.69C383.111 170.785 382.876 170.918 382.665 171.085Z" fill="white"/>
<path d="M373.142 168.085C369.991 172.005 371.368 176.727 375.86 178.497C380.352 180.268 386.184 178.36 389.335 174.44C392.486 170.52 391.113 165.788 386.607 164.024C382.101 162.259 376.329 164.168 373.142 168.085ZM386.063 170.262C386.112 170.606 386.093 170.956 386.007 171.292C385.921 171.628 385.769 171.944 385.561 172.222L386.773 172.703L386.02 173.664L384.839 173.195C384.441 173.658 383.994 174.076 383.504 174.441C383.079 174.769 382.613 175.04 382.117 175.246L381.201 174.199C381.612 174.021 382.004 173.803 382.371 173.548C382.749 173.282 383.099 172.979 383.415 172.642L381.611 171.926C381.192 172.282 380.753 172.612 380.295 172.915C379.903 173.162 379.471 173.34 379.019 173.441C378.542 173.535 378.048 173.485 377.6 173.298C377.33 173.213 377.086 173.059 376.893 172.852C376.7 172.645 376.563 172.392 376.497 172.116C376.408 171.411 376.596 170.698 377.022 170.129C376.628 169.973 376.224 169.812 375.82 169.652L376.573 168.691L377.754 169.16C378.368 168.468 379.107 167.898 379.932 167.481L380.894 168.475C380.263 168.799 379.69 169.224 379.195 169.732C379.807 169.974 380.428 170.221 381.04 170.464C381.445 170.108 381.875 169.782 382.327 169.487C382.714 169.236 383.143 169.057 383.593 168.958C384.062 168.868 384.548 168.915 384.991 169.093C385.262 169.176 385.507 169.329 385.701 169.536C385.894 169.743 386.03 169.998 386.094 170.274L386.063 170.262Z" fill="#FBFCFD"/>
<path d="M121.406 149.837C96.2982 182.715 47.624 156.193 22.536 189.063C15.3396 170.71 8.06797 152.38 0.721146 134.071C25.8289 101.192 74.5031 127.715 99.591 94.8449L121.406 149.837Z" fill="#F2F3F6"/>
<path d="M121.406 149.837C96.2982 182.715 47.624 156.193 22.536 189.063C15.3396 170.71 8.06797 152.38 0.721146 134.071C25.8289 101.192 74.5031 127.715 99.591 94.8449L121.406 149.837Z" fill="url(#paint3_linear_117_1236)"/>
<path d="M114.472 145.267L99.5121 107.581C99.1774 108.022 98.7271 108.362 98.211 108.563C97.6949 108.764 97.1333 108.818 96.5882 108.719C96.0432 108.621 95.5361 108.373 95.1232 108.004C94.7103 107.635 94.4076 107.159 94.2488 106.628C70.4424 125.926 33.3964 111.867 9.57022 131.172C9.95836 132.474 9.98515 133.856 9.64773 135.172C9.31031 136.488 8.62135 137.687 7.65468 138.641L22.6228 176.347C22.9541 175.906 23.4013 175.566 23.9147 175.364C24.4281 175.162 24.9874 175.107 25.5303 175.205C26.0731 175.302 26.5783 175.549 26.9894 175.916C27.4005 176.284 27.7014 176.759 27.8586 177.287C51.6847 157.982 88.7386 172.061 112.565 152.756C112.172 151.452 112.142 150.066 112.478 148.746C112.814 147.427 113.504 146.224 114.472 145.267Z" fill="#ECEAFA"/>
<path d="M114.472 145.267L99.5121 107.581C99.1774 108.022 98.7271 108.362 98.211 108.563C97.6949 108.764 97.1333 108.818 96.5882 108.719C96.0432 108.621 95.5361 108.373 95.1232 108.004C94.7103 107.635 94.4076 107.159 94.2488 106.628C70.4424 125.926 33.3964 111.867 9.57022 131.172C9.95836 132.474 9.98515 133.856 9.64773 135.172C9.31031 136.488 8.62135 137.687 7.65468 138.641L22.6228 176.347C22.9541 175.906 23.4013 175.566 23.9147 175.364C24.4281 175.162 24.9874 175.107 25.5303 175.205C26.0731 175.302 26.5783 175.549 26.9894 175.916C27.4005 176.284 27.7014 176.759 27.8586 177.287C51.6847 157.982 88.7386 172.061 112.565 152.756C112.172 151.452 112.142 150.066 112.478 148.746C112.814 147.427 113.504 146.224 114.472 145.267Z" fill="url(#paint4_linear_117_1236)"/>
<path d="M57.1271 139.053C57.2815 139.408 57.5566 139.697 57.9037 139.868C58.3803 140.084 58.8845 140.232 59.4019 140.309C59.0136 139.319 58.6253 138.329 58.2448 137.358C57.8225 137.462 57.451 137.713 57.197 138.066C57.1062 138.213 57.0525 138.379 57.0403 138.551C57.0281 138.723 57.0579 138.895 57.1271 139.053Z" fill="white"/>
<path d="M63.1396 143.665L64.2579 146.517C64.6656 146.427 65.0282 146.196 65.2816 145.864C65.3743 145.731 65.4299 145.576 65.4428 145.414C65.4557 145.253 65.4254 145.09 65.355 144.944C65.204 144.592 64.937 144.301 64.5982 144.121C64.1382 143.896 63.6463 143.742 63.1396 143.665Z" fill="white"/>
<path d="M54.9176 126.484C45.3487 127.197 40.5611 135.267 43.9436 143.835C47.326 152.403 57.5824 158.046 67.1512 157.333C76.72 156.62 81.5274 148.543 78.1174 139.963C74.7074 131.383 64.5295 125.823 54.9176 126.484ZM68.7126 147.33C68.2976 147.846 67.7849 148.275 67.2039 148.593C66.6229 148.911 65.9849 149.112 65.3264 149.183L66.235 151.5L63.9147 151.702L63.0293 149.444C61.8659 149.493 60.7006 149.414 59.5546 149.207C58.5437 149.042 57.5588 148.744 56.6255 148.322L56.8924 145.681C57.6748 146.023 58.4896 146.285 59.3244 146.464C60.1865 146.644 61.0648 146.737 61.9457 146.738L60.5944 143.292C59.5534 143.171 58.5204 142.989 57.5009 142.746C56.646 142.521 55.8361 142.15 55.1065 141.651C54.354 141.11 53.7801 140.356 53.4582 139.487C53.2246 139 53.1211 138.46 53.158 137.921C53.1949 137.382 53.3709 136.862 53.6688 136.411C54.5358 135.368 55.7739 134.702 57.1222 134.554C56.8271 133.801 56.5242 133.029 56.2213 132.257L58.5417 132.055L59.427 134.313C61.1909 134.266 62.9477 134.554 64.6041 135.162L64.4716 137.796C63.198 137.34 61.8589 137.094 60.5064 137.066C60.9646 138.234 61.4306 139.423 61.8888 140.591C62.9127 140.692 63.9281 140.867 64.927 141.114C65.7808 141.325 66.5894 141.689 67.3136 142.189C68.0508 142.725 68.6177 143.463 68.9465 144.313C69.1843 144.799 69.29 145.339 69.2531 145.879C69.2161 146.419 69.0378 146.94 68.7359 147.389L68.7126 147.33Z" fill="#FBFCFD"/>
<path d="M401 242.928C401 243.639 311.457 244.216 201 244.216C90.5431 244.216 1 243.639 1 242.928C1 242.216 90.5431 241.64 201 241.64C311.457 241.64 401 242.216 401 242.928Z" fill="#D2D1E0"/>
<rect x="283.659" y="228.766" width="59.7" height="12.8724" rx="2" fill="#2C80FD"/>
<rect x="288.144" y="228.766" width="30.9438" height="12.8724" fill="#16A3FE"/>
<rect x="296.299" y="228.766" width="12.2991" height="12.8724" fill="#0BB5FF"/>
<path opacity="0.25" fill-rule="evenodd" clip-rule="evenodd" d="M285.659 241.638C284.555 241.638 283.659 240.743 283.659 239.638H343.359C343.359 240.743 342.464 241.638 341.359 241.638H285.659Z" fill="#583AFB"/>
<path opacity="0.5" fill-rule="evenodd" clip-rule="evenodd" d="M285.659 228.765C284.555 228.765 283.659 229.661 283.659 230.765H343.359C343.359 229.661 342.464 228.765 341.359 228.765H285.659Z" fill="#00C7FF"/>
<rect x="288.144" y="215.894" width="59.7" height="12.8724" rx="2" fill="#2C80FD"/>
<rect x="292.628" y="215.894" width="30.9438" height="12.8724" fill="#16A3FE"/>
<rect x="300.783" y="215.894" width="12.2991" height="12.8724" fill="#0BB5FF"/>
<path opacity="0.25" fill-rule="evenodd" clip-rule="evenodd" d="M290.144 228.766C289.039 228.766 288.144 227.871 288.144 226.766H347.844C347.844 227.871 346.948 228.766 345.844 228.766H290.144Z" fill="#583AFB"/>
<path opacity="0.5" fill-rule="evenodd" clip-rule="evenodd" d="M290.144 215.893C289.039 215.893 288.144 216.789 288.144 217.893H347.844C347.844 216.789 346.948 215.893 345.844 215.893H290.144Z" fill="#00C7FF"/>
<rect x="283.627" y="203.021" width="59.7" height="12.8724" rx="2" fill="#2C80FD"/>
<rect x="288.111" y="203.021" width="30.9438" height="12.8724" fill="#16A3FE"/>
<rect x="296.267" y="203.021" width="12.2991" height="12.8724" fill="#0BB5FF"/>
<path opacity="0.25" fill-rule="evenodd" clip-rule="evenodd" d="M285.627 215.894C284.522 215.894 283.627 214.998 283.627 213.894H343.327C343.327 214.998 342.432 215.894 341.327 215.894H285.627Z" fill="#583AFB"/>
<path opacity="0.5" fill-rule="evenodd" clip-rule="evenodd" d="M285.627 203.021C284.522 203.021 283.627 203.917 283.627 205.021H343.327C343.327 203.917 342.432 203.021 341.327 203.021H285.627Z" fill="#00C7FF"/>
<rect x="292.111" y="190.148" width="59.7" height="12.8724" rx="2" fill="#2C80FD"/>
<rect x="296.596" y="190.148" width="30.9438" height="12.8724" fill="#16A3FE"/>
<rect x="304.751" y="190.148" width="12.2991" height="12.8724" fill="#0BB5FF"/>
<path opacity="0.25" fill-rule="evenodd" clip-rule="evenodd" d="M294.111 203.021C293.007 203.021 292.111 202.125 292.111 201.021H351.811C351.811 202.125 350.916 203.021 349.811 203.021H294.111Z" fill="#583AFB"/>
<path opacity="0.5" fill-rule="evenodd" clip-rule="evenodd" d="M294.111 190.148C293.007 190.148 292.111 191.044 292.111 192.148H351.811C351.811 191.044 350.916 190.148 349.811 190.148H294.111Z" fill="#00C7FF"/>
<rect x="276.596" y="177.276" width="59.7" height="12.8724" rx="2" fill="#2C80FD"/>
<rect x="281.08" y="177.276" width="30.9438" height="12.8724" fill="#16A3FE"/>
<rect x="289.235" y="177.276" width="12.2991" height="12.8724" fill="#0BB5FF"/>
<path opacity="0.25" fill-rule="evenodd" clip-rule="evenodd" d="M278.596 190.149C277.491 190.149 276.596 189.253 276.596 188.149H336.296C336.296 189.253 335.4 190.149 334.296 190.149H278.596Z" fill="#583AFB"/>
<path opacity="0.5" fill-rule="evenodd" clip-rule="evenodd" d="M278.596 177.276C277.491 177.276 276.596 178.171 276.596 179.276H336.296C336.296 178.171 335.4 177.276 334.296 177.276H278.596Z" fill="#00C7FF"/>
<rect x="286.08" y="164.403" width="59.7" height="12.8724" rx="2" fill="#2C80FD"/>
<rect x="290.564" y="164.403" width="30.9438" height="12.8724" fill="#16A3FE"/>
<rect x="298.72" y="164.403" width="12.2991" height="12.8724" fill="#0BB5FF"/>
<path opacity="0.25" fill-rule="evenodd" clip-rule="evenodd" d="M288.08 177.276C286.976 177.276 286.08 176.38 286.08 175.276H345.78C345.78 176.38 344.885 177.276 343.78 177.276H288.08Z" fill="#583AFB"/>
<path opacity="0.5" fill-rule="evenodd" clip-rule="evenodd" d="M288.08 164.403C286.976 164.403 286.08 165.298 286.08 166.403H345.78C345.78 165.298 344.885 164.403 343.78 164.403H288.08Z" fill="#00C7FF"/>
<rect x="293.564" y="151.531" width="59.7" height="12.8724" rx="2" fill="#2C80FD"/>
<rect x="298.049" y="151.531" width="30.9438" height="12.8724" fill="#16A3FE"/>
<rect x="306.204" y="151.531" width="12.2991" height="12.8724" fill="#0BB5FF"/>
<path opacity="0.25" fill-rule="evenodd" clip-rule="evenodd" d="M295.564 164.404C294.46 164.404 293.564 163.508 293.564 162.404H353.264C353.264 163.508 352.369 164.404 351.264 164.404H295.564Z" fill="#583AFB"/>
<path opacity="0.5" fill-rule="evenodd" clip-rule="evenodd" d="M295.564 151.531C294.46 151.531 293.564 152.426 293.564 153.531H353.264C353.264 152.426 352.369 151.531 351.264 151.531H295.564Z" fill="#00C7FF"/>
<path d="M245.544 238.137V240.311C245.544 240.855 245.328 241.376 244.943 241.761C244.559 242.145 244.037 242.361 243.493 242.361H165.57C165.073 242.361 164.596 242.165 164.243 241.816C163.89 241.467 163.689 240.992 163.683 240.495V238.445C163.683 237.944 163.882 237.464 164.236 237.111C164.59 236.757 165.07 236.558 165.57 236.558H184.948C185.461 236.558 185.968 236.447 186.434 236.233C186.9 236.019 187.314 235.706 187.647 235.316C187.98 234.926 188.225 234.469 188.365 233.975C188.504 233.481 188.535 232.963 188.455 232.457L181.647 193.167H225.94L244.908 235.123C245.318 236.075 245.534 237.1 245.544 238.137Z" fill="#D6D8E5"/>
<path d="M119.663 238.424V240.475C119.663 240.72 119.711 240.962 119.805 241.189C119.899 241.415 120.036 241.621 120.209 241.794C120.383 241.967 120.588 242.105 120.815 242.199C121.041 242.292 121.284 242.341 121.529 242.341H243.452C243.996 242.341 244.518 242.125 244.902 241.74C245.287 241.356 245.503 240.834 245.503 240.29V238.117C245.496 237.537 245.427 236.959 245.298 236.394C245.181 235.91 245.023 235.437 244.826 234.979L243.918 232.969L225.858 193.023H173.565L180.434 232.272C180.464 232.504 180.464 232.738 180.434 232.969C180.419 233.768 180.132 234.538 179.622 235.153C179.111 235.767 178.407 236.191 177.625 236.353C177.38 236.384 177.132 236.384 176.887 236.353H121.488C121.228 236.357 120.972 236.415 120.736 236.524C120.5 236.633 120.289 236.79 120.118 236.985C119.946 237.18 119.817 237.409 119.738 237.657C119.66 237.904 119.634 238.166 119.663 238.424Z" fill="#E7E6F4"/>
<path d="M173.565 193.023H225.859L238.062 220.015H178.29L173.565 193.023Z" fill="#DDDFEB"/>
<path opacity="0.2" d="M123.663 238.424V240.474C123.663 240.719 123.711 240.962 123.805 241.188C123.899 241.415 124.036 241.621 124.209 241.794C124.383 241.967 124.588 242.105 124.815 242.198C125.041 242.292 125.284 242.34 125.529 242.34H243.452C243.996 242.34 244.518 242.124 244.902 241.74C245.287 241.355 245.503 240.834 245.503 240.29V238.116C245.496 237.536 245.427 236.959 245.298 236.394L185.621 236.353L184.887 236.353H125.488C125.228 236.357 124.972 236.415 124.736 236.524C124.5 236.633 124.289 236.79 124.118 236.985C123.946 237.18 123.817 237.408 123.738 237.656C123.66 237.904 123.634 238.165 123.663 238.424Z" fill="#E7E6F4"/>
<path d="M246.014 236.353H199.648C196.34 236.353 193.659 239.034 193.659 242.341H246.014V236.353Z" fill="#D6D8E5"/>
<path opacity="0.75" d="M245.298 236.394C245.181 235.91 245.023 235.437 244.826 234.979L243.918 232.97H180.434C180.418 233.768 180.132 234.538 179.622 235.153C179.111 235.768 178.407 236.191 177.625 236.353C177.624 236.353 177.623 236.353 177.621 236.354L176.887 236.353C177.131 236.384 177.378 236.384 177.621 236.354L245.298 236.394Z" fill="#DBDCE9" fill-opacity="0.89"/>
<path d="M230.589 193.044L249.557 235C249.989 235.989 250.213 237.057 250.213 238.137V240.311C250.213 240.855 249.997 241.376 249.612 241.761C249.228 242.145 248.706 242.361 248.162 242.361H242.771C243.315 242.361 243.837 242.145 244.221 241.761C244.606 241.376 244.822 240.855 244.822 240.311V238.137C244.822 237.057 244.599 235.989 244.166 235L225.197 193.044H230.589Z" fill="#D6D8E5"/>
<path fill-rule="evenodd" clip-rule="evenodd" d="M314.618 197.747L313.738 201.644C312.399 207.573 307.133 211.783 301.055 211.783H297.093C297.082 211.783 297.071 211.783 297.06 211.783H102.704C102.693 211.783 102.682 211.783 102.671 211.783H96.4528C92.6771 211.783 89.343 210.196 86.9958 207.705L79.8135 199.698C77.4428 196.746 76.3482 192.77 77.2686 188.693L78.4246 183.739C78.4856 183.359 78.5591 182.977 78.6453 182.595L113.646 27.5803C114.778 22.5648 119.234 19.003 124.376 19.003H329.33C329.519 19.003 329.707 19.0066 329.893 19.0139L332.193 19.0029C335.75 19.0029 340.802 20.813 342.598 23.4913L348.717 30.1826C350.465 32.4597 351.257 35.4763 350.559 38.5667L349.488 43.3099L314.618 197.747Z" fill="#E7E6F4"/>
<path fill-rule="evenodd" clip-rule="evenodd" d="M314.618 197.747L313.738 201.644C312.399 207.573 307.133 211.783 301.055 211.783H297.093C297.082 211.783 297.071 211.783 297.06 211.783H102.704C102.693 211.783 102.682 211.783 102.671 211.783H96.4528C92.6771 211.783 89.343 210.196 86.9958 207.705L79.8135 199.698C77.4428 196.746 76.3482 192.77 77.2686 188.693L78.4246 183.739C78.4856 183.359 78.5591 182.977 78.6453 182.595L113.646 27.5803C114.778 22.5648 119.234 19.003 124.376 19.003H329.33C329.519 19.003 329.707 19.0066 329.893 19.0139L332.193 19.0029C335.75 19.0029 340.802 20.813 342.598 23.4913L348.717 30.1826C350.465 32.4597 351.257 35.4763 350.559 38.5667L349.488 43.3099L314.618 197.747Z" fill="url(#paint5_linear_117_1236)"/>
<path d="M113.646 27.5803C114.778 22.5648 119.234 19.0029 124.376 19.0029H329.33C338.306 19.0029 344.963 27.3308 342.987 36.0863L308.116 190.524C306.263 198.731 298.972 204.559 290.558 204.559H96.2032C84.6626 204.559 76.1034 193.852 78.6451 182.595L113.646 27.5803Z" fill="#FDFDFE"/>
<path d="M113.646 27.5803C114.778 22.5648 119.234 19.0029 124.376 19.0029H329.33C338.306 19.0029 344.963 27.3308 342.987 36.0863L308.116 190.524C306.263 198.731 298.972 204.559 290.558 204.559H96.2032C84.6626 204.559 76.1034 193.852 78.6451 182.595L113.646 27.5803Z" fill="url(#paint6_linear_117_1236)"/>
<path d="M124.376 21.0029C120.169 21.0029 116.523 23.9172 115.597 28.0207L80.596 183.036C78.3367 193.042 85.9449 202.559 96.2032 202.559H290.558C298.037 202.559 304.518 197.379 306.165 190.083L341.036 35.6459C342.73 28.1411 337.024 21.0029 329.33 21.0029H124.376Z" fill="#FDFDFE"/>
<path d="M124.376 21.0029C120.169 21.0029 116.523 23.9172 115.597 28.0207L80.596 183.036C78.3367 193.042 85.9449 202.559 96.2032 202.559H290.558C298.037 202.559 304.518 197.379 306.165 190.083L341.036 35.6459C342.73 28.1411 337.024 21.0029 329.33 21.0029H124.376Z" fill="url(#paint7_linear_117_1236)"/>
<path d="M124.376 21.0029C120.169 21.0029 116.523 23.9172 115.597 28.0207L80.596 183.036C78.3367 193.042 85.9449 202.559 96.2032 202.559H290.558C298.037 202.559 304.518 197.379 306.165 190.083L341.036 35.6459C342.73 28.1411 337.024 21.0029 329.33 21.0029H124.376Z" stroke="white" stroke-width="4"/>
<path opacity="0.75" d="M96.4787 119.757C103.422 119.757 103.275 153.75 115.554 153.75C127.832 153.75 144.44 103.5 162.858 103.5C181.276 103.5 173.288 132.25 193.141 134C212.993 135.75 212.583 108.433 225.774 108.433C238.966 108.433 238.15 119.757 247.525 119.757C256.899 119.757 257.383 108.433 269.517 108.433C277.855 108.433 280.888 119.757 290.113 119.757C299.337 119.757 311.073 80.124 327.956 80.124L300.077 198.926L78.6376 199.926L96.4787 119.757Z" fill="url(#paint8_linear_117_1236)"/>
<rect width="4.75038" height="8.90697" rx="2.37519" transform="matrix(1 0 -0.245477 0.969403 108.339 116.971)" fill="#00C7FF"/>
<rect width="1.1876" height="11.2822" transform="matrix(1 0 -0.245477 0.969403 110.412 115.819)" fill="#00C7FF"/>
<rect width="4.75038" height="8.90697" rx="2.37519" transform="matrix(1 0 -0.245477 0.969403 252.813 64.0293)" fill="#00C7FF"/>
<rect width="1.1876" height="11.2822" transform="matrix(1 0 -0.245477 0.969403 254.887 62.8779)" fill="#00C7FF"/>
<rect width="4.75038" height="8.90697" rx="2.37519" transform="matrix(1 0 -0.245477 0.969403 117.84 116.971)" fill="#583AFB"/>
<rect width="1.1876" height="17.2201" transform="matrix(1 0 -0.245477 0.969403 120.496 113.517)" fill="#583AFB"/>
<rect width="4.75038" height="8.90697" rx="2.37519" transform="matrix(1 0 -0.245477 0.969403 262.314 64.0303)" fill="#583AFB"/>
<rect width="1.1876" height="17.2201" transform="matrix(1 0 -0.245477 0.969403 264.971 60.5762)" fill="#583AFB"/>
<rect width="4.75038" height="6.14274" rx="2.37519" transform="matrix(1 0 -0.245477 0.969403 127.758 115.323)" fill="#00C7FF"/>
<rect width="1.1876" height="9.50077" transform="matrix(1 0 -0.245477 0.969403 129.851 114.093)" fill="#00C7FF"/>
<rect width="4.75038" height="6.14274" rx="2.37519" transform="matrix(1 0 -0.245477 0.969403 272.232 62.3818)" fill="#00C7FF"/>
<rect width="1.1876" height="9.50077" transform="matrix(1 0 -0.245477 0.969403 274.325 61.1514)" fill="#00C7FF"/>
<rect width="4.75038" height="6.14274" rx="2.37519" transform="matrix(1 0 -0.245477 0.969403 135.499 119.929)" fill="#583AFB"/>
<rect width="1.1876" height="14.2512" transform="matrix(1 0 -0.245477 0.969403 139.195 112.366)" fill="#583AFB"/>
<rect width="4.75038" height="6.14274" rx="2.37519" transform="matrix(1 0 -0.245477 0.969403 279.974 66.9873)" fill="#583AFB"/>
<rect width="1.1876" height="14.2512" transform="matrix(1 0 -0.245477 0.969403 283.67 59.4248)" fill="#583AFB"/>
<rect width="4.75038" height="11.2822" rx="2.37519" transform="matrix(1 0 -0.245477 0.969403 145.613 119.85)" fill="#583AFB"/>
<rect width="1.1876" height="15.4387" transform="matrix(1 0 -0.245477 0.969403 147.978 117.547)" fill="#583AFB"/>
<rect width="4.75038" height="11.2822" rx="2.37519" transform="matrix(1 0 -0.245477 0.969403 290.089 66.9082)" fill="#583AFB"/>
<rect width="1.1876" height="15.4387" transform="matrix(1 0 -0.245477 0.969403 292.453 64.6055)" fill="#583AFB"/>
<rect width="4.75038" height="7.71937" rx="2.37519" transform="matrix(1 0 -0.245477 0.969403 206.496 59.9834)" fill="#00C7FF"/>
<rect width="1.1876" height="17.2201" transform="matrix(1 0 -0.245477 0.969403 209.151 56.5293)" fill="#00C7FF"/>
<rect width="4.75038" height="11.2822" rx="2.37519" transform="matrix(1 0 -0.245477 0.969403 221.091 70.3447)" fill="#583AFB"/>
<rect width="1.1876" height="21.3767" transform="matrix(1 0 -0.245477 0.969403 223.747 66.8906)" fill="#583AFB"/>
<rect width="4.75038" height="27.3147" rx="2.37519" transform="matrix(1 0 -0.245477 0.969403 245.185 47.8955)" fill="#583AFB"/>
<rect width="1.1876" height="30.2837" transform="matrix(1 0 -0.245477 0.969403 247.549 45.5928)" fill="#583AFB"/>
<rect width="4.75038" height="10.342" rx="2.37519" transform="matrix(1 0 -0.245477 0.969403 230.822 71.7842)" fill="#583AFB"/>
<rect width="1.1876" height="13.6574" transform="matrix(1 0 -0.245477 0.969403 232.53 72.0723)" fill="#583AFB"/>
<rect width="4.75038" height="10.6884" rx="2.37519" transform="matrix(1 0 -0.245477 0.969403 214.215 59.9834)" fill="#00C7FF"/>
<rect width="1.1876" height="30.2837" transform="matrix(1 0 -0.245477 0.969403 218.911 48.4707)" fill="#00C7FF"/>
<rect width="4.75038" height="18.659" rx="2.37519" transform="matrix(1 0 -0.245477 0.969403 154.273 118.476)" fill="#583AFB"/>
<rect width="1.1876" height="25.5333" transform="matrix(1 0 -0.245477 0.969403 157.02 114.668)" fill="#583AFB"/>
<rect width="4.75038" height="18.659" rx="2.37519" transform="matrix(1 0 -0.245477 0.969403 298.749 65.5352)" fill="#583AFB"/>
<rect width="1.1876" height="25.5333" transform="matrix(1 0 -0.245477 0.969403 301.494 61.7275)" fill="#583AFB"/>
<rect width="4.75038" height="29.0961" rx="2.37519" transform="matrix(1 0 -0.245477 0.969403 170.56 89.3408)" fill="#583AFB"/>
<rect width="1.1876" height="35.6279" transform="matrix(1 0 -0.245477 0.969403 173.652 84.1602)" fill="#583AFB"/>
<rect width="4.75038" height="29.0961" rx="2.37519" transform="matrix(1 0 -0.245477 0.969403 315.034 36.3994)" fill="#583AFB"/>
<rect width="1.1876" height="35.6279" transform="matrix(1 0 -0.245477 0.969403 318.127 31.2188)" fill="#583AFB"/>
<rect width="4.75038" height="31.5208" rx="2.37519" transform="matrix(1 0 -0.245477 0.969403 195.999 61.5664)" fill="#583AFB"/>
<rect width="1.1876" height="34.4403" transform="matrix(1 0 -0.245477 0.969403 198.182 59.9834)" fill="#583AFB"/>
<rect width="4.75038" height="5.34418" rx="2.37519" transform="matrix(1 0 -0.245477 0.969403 179.466 89.3398)" fill="#00C7FF"/>
<rect width="1.1876" height="8.90697" transform="matrix(1 0 -0.245477 0.969403 181.685 87.6133)" fill="#00C7FF"/>
<rect width="4.75038" height="5.34418" rx="2.37519" transform="matrix(1 0 -0.245477 0.969403 323.94 36.3994)" fill="#00C7FF"/>
<rect width="1.1876" height="8.90697" transform="matrix(1 0 -0.245477 0.969403 326.159 34.6729)" fill="#00C7FF"/>
<path d="M95.9657 170.108C96.3724 168.502 98.0453 167.2 99.7021 167.2H106.73C108.387 167.2 109.4 168.502 108.994 170.108L102.833 194.437C102.427 196.043 100.754 197.345 99.0968 197.345H95.0688C91.7551 197.345 89.7282 194.741 90.5416 191.529L95.9657 170.108Z" fill="#E7E6F4"/>
<rect width="13.028" height="45.5596" rx="3" transform="matrix(1 0 -0.245477 0.969403 121.207 153.18)" fill="#FDFDFE"/>
<rect width="13.028" height="54.2375" rx="3" transform="matrix(1 0 -0.245477 0.969403 144.293 144.767)" fill="#FDFDFE"/>
<rect width="13.028" height="45.5596" rx="3" transform="matrix(1 0 -0.245477 0.969403 163.117 153.18)" fill="#E7E6F4"/>
<rect width="13.028" height="71.5935" rx="3" transform="matrix(1 0 -0.245477 0.969403 190.463 127.942)" fill="#FDFDFE"/>
<rect width="13.028" height="57.8535" rx="3" transform="matrix(1 0 -0.245477 0.969403 208.045 141.262)" fill="#E7E6F4"/>
<rect width="13.028" height="63.6387" rx="3" transform="matrix(1 0 -0.245477 0.969403 230.419 135.653)" fill="#FDFDFE"/>
<rect width="13.028" height="84.6106" rx="3" transform="matrix(1 0 -0.245477 0.969403 256.522 115.323)" fill="#FDFDFE"/>
<rect width="13.028" height="71.5935" rx="3" transform="matrix(1 0 -0.245477 0.969403 274.281 127.942)" fill="#E7E6F4"/>
<path d="M289.174 151.881C289.58 150.275 291.253 148.973 292.91 148.973H299.938C301.595 148.973 302.608 150.275 302.202 151.881L291.917 192.498C291.239 195.174 288.451 197.345 285.689 197.345H280.661C279.004 197.345 277.991 196.043 278.398 194.436L289.174 151.881Z" fill="#E7E6F4"/>
<path d="M198.317 182.865L190.305 174.084L163.107 198.902L171.119 207.683L198.317 182.865Z" fill="#0DB2FF"/>
<path d="M198.317 182.865L190.305 174.084L163.107 198.902L171.119 207.683L198.317 182.865Z" fill="url(#paint9_linear_117_1236)"/>
<path d="M267.556 111.646C260.854 104.302 252.125 99.11 242.472 96.727C232.819 94.344 222.677 94.8768 213.327 98.2581C203.977 101.639 195.84 107.717 189.944 115.723C184.048 123.729 180.658 133.303 180.204 143.235C179.749 153.167 182.25 163.011 187.39 171.522C192.53 180.033 200.078 186.829 209.08 191.05C218.082 195.271 228.134 196.728 237.964 195.237C247.794 193.745 256.961 189.373 264.306 182.671C269.183 178.221 273.137 172.854 275.94 166.877C278.743 160.899 280.341 154.427 280.643 147.832C280.944 141.236 279.944 134.646 277.699 128.437C275.453 122.228 272.007 116.523 267.556 111.646ZM201.1 172.29C195.808 166.493 192.354 159.257 191.174 151.497C189.995 143.737 191.143 135.801 194.473 128.694C197.804 121.586 203.167 115.626 209.885 111.566C216.603 107.507 224.374 105.53 232.215 105.887C240.056 106.244 247.615 108.919 253.937 113.572C260.258 118.225 265.058 124.648 267.728 132.029C270.399 139.41 270.821 147.417 268.941 155.038C267.061 162.659 262.964 169.551 257.167 174.843C249.392 181.937 239.119 185.653 228.605 185.175C218.091 184.696 208.198 180.062 201.1 172.29Z" fill="#583AFB"/>
<path d="M177.618 198.657L172.691 193.257C170.705 191.081 167.33 190.926 165.154 192.913L137.239 218.384C135.063 220.37 134.908 223.745 136.894 225.921L141.821 231.321C143.807 233.497 147.182 233.652 149.358 231.666L177.273 206.194C179.449 204.208 179.604 200.833 177.618 198.657Z" fill="#583AFB"/>
<mask id="mask0_117_1236" style="mask-type:alpha" maskUnits="userSpaceOnUse" x="190" y="105" width="81" height="81">
<path d="M257.169 174.852C251.372 180.144 244.136 183.598 236.375 184.778C228.615 185.957 220.68 184.809 213.572 181.479C206.464 178.148 200.504 172.785 196.444 166.067C192.385 159.349 190.409 151.578 190.766 143.737C191.123 135.896 193.797 128.337 198.45 122.015C203.103 115.694 209.526 110.894 216.907 108.224C224.288 105.553 232.295 105.131 239.916 107.011C247.537 108.89 254.429 112.988 259.721 118.785C266.818 126.559 270.535 136.833 270.057 147.347C269.578 157.862 264.942 167.755 257.169 174.852Z" fill="white"/>
</mask>
<g mask="url(#mask0_117_1236)">
<path d="M257.169 174.852C251.372 180.144 244.136 183.598 236.375 184.778C228.615 185.957 220.68 184.809 213.572 181.479C206.464 178.148 200.504 172.785 196.444 166.067C192.385 159.349 190.409 151.578 190.766 143.737C191.123 135.896 193.797 128.337 198.45 122.015C203.103 115.694 209.526 110.894 216.907 108.224C224.288 105.553 232.295 105.131 239.916 107.011C247.537 108.89 254.429 112.988 259.721 118.785C266.818 126.559 270.535 136.833 270.057 147.347C269.578 157.862 264.942 167.755 257.169 174.852Z" fill="#F7F8FA"/>
<g opacity="0.45">
</g>
</g>
<g opacity="0.4">
<path d="M257.167 174.852C251.37 180.144 244.134 183.598 236.374 184.778C228.613 185.957 220.678 184.809 213.57 181.479C206.462 178.148 200.502 172.785 196.442 166.067C192.383 159.349 190.407 151.578 190.764 143.737C191.121 135.896 193.795 128.337 198.448 122.015C203.101 115.694 209.524 110.894 216.905 108.224C224.286 105.553 232.293 105.131 239.914 107.011C247.535 108.89 254.427 112.988 259.719 118.785C266.816 126.559 270.533 136.833 270.055 147.347C269.576 157.862 264.94 167.755 257.167 174.852Z" fill="white"/>
<path d="M247.891 181.183C238.49 185.78 227.654 186.482 217.737 183.136C207.821 179.791 199.625 172.667 194.931 163.313L247.891 181.183Z" fill="#EBEBEB"/>
<path d="M270.04 147.81L197.509 123.355C199.27 120.74 201.338 118.347 203.669 116.224C206.333 113.781 209.323 111.719 212.553 110.098L266.109 128.145C269.079 134.257 270.432 141.027 270.04 147.81Z" fill="#EBEBEB"/>
<path d="M259.958 172.044L190.864 148.746C190.658 146.152 190.704 143.545 191 140.96L264.57 165.764C263.248 168.007 261.703 170.111 259.958 172.044Z" fill="#EBEBEB"/>
<path d="M269.352 153.196L194.786 128.06C194.999 127.626 195.212 127.209 195.433 126.775L269.607 151.801C269.539 152.252 269.462 152.728 269.352 153.196Z" fill="#EBEBEB"/>
<path d="M258.358 117.348L225.258 106.184C226.441 106.03 227.623 105.928 228.815 105.886L255.729 114.956C256.639 115.705 257.507 116.497 258.358 117.348Z" fill="#EBEBEB"/>
</g>
<path d="M210.64 124.324L210.767 124.222C211.363 123.729 210.155 124.682 210.571 124.375C210.988 124.069 211.567 123.635 212.078 123.278C213.878 122.061 215.776 120.996 217.753 120.095L218.604 119.721C218.698 119.678 217.932 120.002 218.545 119.721L219.064 119.508C219.736 119.244 220.417 118.998 221.106 118.776C222.62 118.274 224.167 117.873 225.735 117.577L226.858 117.381C227.368 117.296 226.279 117.449 226.969 117.381L227.649 117.296C228.5 117.202 229.351 117.143 230.262 117.117C231.172 117.091 232.142 117.117 233.087 117.117C233.521 117.117 233.937 117.177 234.38 117.211C235.129 117.279 234.074 117.16 234.61 117.211L235.376 117.321C237.698 117.682 239.979 118.275 242.183 119.091L242.293 119.134L242.523 119.227C242.838 119.363 243.161 119.491 243.476 119.636C244.08 119.908 244.684 120.189 245.272 120.487C246.527 121.122 247.749 121.824 248.931 122.588C249.624 122.935 250.424 123 251.164 122.769C251.904 122.538 252.526 122.029 252.898 121.349C253.27 120.669 253.365 119.871 253.161 119.123C252.958 118.376 252.472 117.736 251.807 117.338C244.326 112.399 235.33 110.287 226.432 111.382C220.42 112.241 214.672 114.421 209.601 117.764C208.462 118.491 207.373 119.296 206.342 120.172C206.066 120.455 205.848 120.79 205.702 121.157C205.555 121.525 205.483 121.918 205.49 122.313C205.496 122.709 205.581 123.099 205.739 123.462C205.897 123.825 206.125 124.152 206.41 124.426C206.99 124.968 207.758 125.264 208.552 125.252C209.345 125.239 210.103 124.919 210.665 124.358L210.64 124.324Z" fill="white"/>
<path d="M204.547 130.817C204.142 131.232 203.623 131.517 203.055 131.638C202.488 131.758 201.897 131.707 201.359 131.492C200.82 131.278 200.357 130.908 200.028 130.43C199.699 129.952 199.519 129.388 199.511 128.808C199.503 128.228 199.666 127.658 199.981 127.171C200.296 126.684 200.749 126.302 201.281 126.071C201.813 125.841 202.402 125.774 202.973 125.878C203.543 125.982 204.07 126.252 204.487 126.656C205.047 127.2 205.367 127.944 205.378 128.724C205.389 129.504 205.09 130.257 204.547 130.817Z" fill="white"/>
<path d="M229.261 164.198L227.742 169.865L222.683 168.509L224.165 162.977C219.695 161.643 215.696 159.067 212.634 155.549L217.054 150.118C219.436 152.917 222.498 155.057 225.945 156.332L228.25 147.731C222.979 144.872 217.247 141.167 219.154 134.05C220.591 128.687 225.744 124.97 233.98 126.346L235.48 120.746L240.54 122.102L239.058 127.634C242.643 128.807 245.896 130.819 248.548 133.503L244.312 139.056C242.313 137.011 239.915 135.396 237.268 134.313L234.955 142.948C240.235 145.772 245.89 149.493 244.019 156.475C242.582 161.838 237.483 165.353 229.261 164.198ZM230.211 140.411L232.136 133.227C229.275 133.111 227.832 134.315 227.389 135.968C226.946 137.62 228.175 139.107 230.211 140.411ZM235.667 154.996C236.146 153.209 234.915 151.867 232.894 150.638L231.023 157.62C233.767 157.633 235.233 156.615 235.667 154.996Z" fill="url(#paint10_linear_117_1236)" fill-opacity="0.5"/>
<g filter="url(#filter0_dd_117_1236)">
<rect width="127.743" height="58.7104" rx="9" transform="matrix(1 0 -0.245477 0.969403 49.2783 28.0205)" fill="#FCFCFE"/>
<path d="M90.7723 56.5121C89.611 61.0655 86.7819 65.4605 82.8124 68.8779C78.843 72.2952 74.0041 74.5017 69.1979 75.0859C64.3917 75.6701 59.9462 74.5921 56.6902 72.053C53.4342 69.5139 51.5898 65.687 51.501 61.2856C51.4122 56.8842 53.085 52.2087 56.2075 48.1309C59.33 44.0531 63.6891 40.8512 68.4722 39.1222C73.2553 37.3931 78.1359 37.2549 82.2042 38.7333C86.2724 40.2117 89.2506 43.2058 90.5836 47.1574C91.5424 50.0058 91.6075 53.231 90.7723 56.5121Z" fill="url(#paint11_linear_117_1236)"/>
<path d="M90.5835 47.1574L71.3817 56.5121L76.1416 37.7148C79.5564 37.7142 82.6898 38.5869 85.2255 40.2448C87.7612 41.9027 89.6093 44.2872 90.5835 47.1574Z" fill="#583AFB"/>
<path d="M84.1123 58.6217C87.0898 51.5374 83.8149 44.8642 76.7975 43.7168C69.7801 42.5694 61.6775 47.3822 58.7 54.4666C55.7224 61.5509 58.9974 68.2241 66.0148 69.3715C73.0322 70.5189 81.1347 65.7061 84.1123 58.6217Z" fill="white"/>
<path d="M77.7023 53.6113H66.5469L66.1595 55.1412H77.3149L77.7023 53.6113Z" fill="#00C7FF"/>
<path d="M79.3822 57.8662H62.6943L62.307 59.396H78.9948L79.3822 57.8662Z" fill="#E7E6F4"/>
<path d="M149.469 41.4521H102.586L101.604 45.3298H148.488L149.469 41.4521Z" fill="#D6D8E5"/>
<path d="M160.92 52.1152H99.8857L99.3948 54.054H160.429L160.92 52.1152Z" fill="#E7E6F4"/>
<path d="M159.447 57.9316H98.4131L97.9221 59.8704H158.956L159.447 57.9316Z" fill="#E7E6F4"/>
<path d="M157.975 63.748H96.9404L96.4495 65.6869H157.484L157.975 63.748Z" fill="#E7E6F4"/>
<path d="M137.615 69.5645H95.4668L94.9758 71.5033H137.124L137.615 69.5645Z" fill="#E7E6F4"/>
</g>
<g filter="url(#filter1_dd_117_1236)">
<rect width="63.5836" height="55.9162" rx="9" transform="matrix(1 0 -0.245477 0.969403 309.457 74.9492)" fill="#FCFCFE"/>
<path fill-rule="evenodd" clip-rule="evenodd" d="M351.753 89.9473C351.881 89.851 352.043 89.853 352.109 89.9529C354.387 93.4053 354.917 97.9256 353.584 102.642C353.546 102.776 353.402 102.884 353.264 102.884H342.835C342.697 102.884 342.618 102.776 342.653 102.642C343.163 100.727 342.979 98.8916 342.141 97.4346C342.084 97.3365 342.131 97.1909 342.252 97.1001L351.753 89.9473ZM351.345 88.9168C351.421 89.0093 351.377 89.1662 351.249 89.2624L341.747 96.4153C341.627 96.5061 341.475 96.5099 341.399 96.4272C340.352 95.2986 338.846 94.6129 337.089 94.4654C336.96 94.4546 336.888 94.3489 336.926 94.2206L339.919 84.1049C339.96 83.9687 340.108 83.8592 340.247 83.8644C344.881 84.0391 348.818 85.8315 351.345 88.9168ZM338.919 84.1049C338.96 83.9687 338.876 83.8592 338.734 83.8644C333.997 84.0391 328.999 85.8315 324.645 88.9168C324.515 89.0093 324.466 89.1662 324.537 89.2625L329.806 96.4153C329.872 96.5061 330.022 96.5099 330.147 96.4272C331.862 95.2986 333.774 94.6129 335.618 94.4654C335.753 94.4546 335.888 94.3489 335.926 94.2206L338.919 84.1049ZM328.809 97.4346C328.923 97.3365 328.963 97.1909 328.896 97.1002L323.627 89.9473C323.557 89.8511 323.394 89.853 323.269 89.9529C318.947 93.4053 315.742 97.9256 314.284 102.642C314.243 102.776 314.323 102.884 314.461 102.884H324.889C325.027 102.884 325.171 102.776 325.215 102.642C325.838 100.727 327.108 98.8917 328.809 97.4346Z" fill="url(#paint12_linear_117_1236)"/>
<path fill-rule="evenodd" clip-rule="evenodd" d="M336.932 94.1997C336.895 94.3281 336.967 94.4338 337.096 94.4446C338.858 94.5922 340.369 95.2801 341.419 96.4126C341.495 96.4954 341.647 96.4916 341.768 96.4008L353.237 87.7664C353.365 87.6703 353.409 87.5137 353.334 87.421C350.513 83.9399 346.086 81.9247 340.873 81.7482C340.734 81.7435 340.586 81.8529 340.546 81.9888L336.932 94.1997Z" fill="#583AFB"/>
<path d="M343.656 107.437H313.195L312.707 109.363H343.168L343.656 107.437Z" fill="#D6D8E5"/>
<path d="M351.508 112.735H311.854L311.61 113.699H351.264L351.508 112.735Z" fill="#E7E6F4"/>
<path d="M350.777 115.625H311.122L310.878 116.588H350.533L350.777 115.625Z" fill="#E7E6F4"/>
<path d="M350.044 118.516H310.39L310.146 119.479H349.8L350.044 118.516Z" fill="#E7E6F4"/>
<path d="M337.042 121.405H309.658L309.414 122.369H336.799L337.042 121.405Z" fill="#E7E6F4"/>
</g>
<defs>
<filter id="filter0_dd_117_1236" x="34.8662" y="28.0205" width="155.155" height="68.9141" filterUnits="userSpaceOnUse" color-interpolation-filters="sRGB">
<feFlood flood-opacity="0" result="BackgroundImageFix"/>
<feColorMatrix in="SourceAlpha" type="matrix" values="0 0 0 0 0 0 0 0 0 0 0 0 0 0 0 0 0 0 127 0" result="hardAlpha"/>
<feOffset dx="13" dy="12"/>
<feColorMatrix type="matrix" values="0 0 0 0 0.866667 0 0 0 0 0.87451 0 0 0 0 0.921569 0 0 0 0.29 0"/>
<feBlend mode="normal" in2="BackgroundImageFix" result="effect1_dropShadow_117_1236"/>
<feColorMatrix in="SourceAlpha" type="matrix" values="0 0 0 0 0 0 0 0 0 0 0 0 0 0 0 0 0 0 127 0" result="hardAlpha"/>
<feOffset dx="1" dy="1"/>
<feComposite in2="hardAlpha" operator="out"/>
<feColorMatrix type="matrix" values="0 0 0 0 0.905882 0 0 0 0 0.901961 0 0 0 0 0.956863 0 0 0 1 0"/>
<feBlend mode="normal" in2="effect1_dropShadow_117_1236" result="effect2_dropShadow_117_1236"/>
<feBlend mode="normal" in="SourceGraphic" in2="effect2_dropShadow_117_1236" result="shape"/>
</filter>
<filter id="filter1_dd_117_1236" x="295.73" y="74.9492" width="82.3105" height="58.2051" filterUnits="userSpaceOnUse" color-interpolation-filters="sRGB">
<feFlood flood-opacity="0" result="BackgroundImageFix"/>
<feColorMatrix in="SourceAlpha" type="matrix" values="0 0 0 0 0 0 0 0 0 0 0 0 0 0 0 0 0 0 127 0" result="hardAlpha"/>
<feOffset dx="5" dy="4"/>
<feColorMatrix type="matrix" values="0 0 0 0 0.866667 0 0 0 0 0.87451 0 0 0 0 0.921569 0 0 0 0.29 0"/>
<feBlend mode="normal" in2="BackgroundImageFix" result="effect1_dropShadow_117_1236"/>
<feColorMatrix in="SourceAlpha" type="matrix" values="0 0 0 0 0 0 0 0 0 0 0 0 0 0 0 0 0 0 127 0" result="hardAlpha"/>
<feOffset dx="1" dy="1"/>
<feComposite in2="hardAlpha" operator="out"/>
<feColorMatrix type="matrix" values="0 0 0 0 0.905882 0 0 0 0 0.901961 0 0 0 0 0.956863 0 0 0 1 0"/>
<feBlend mode="normal" in2="effect1_dropShadow_117_1236" result="effect2_dropShadow_117_1236"/>
<feBlend mode="normal" in="SourceGraphic" in2="effect2_dropShadow_117_1236" result="shape"/>
</filter>
<radialGradient id="paint0_radial_117_1236" cx="0" cy="0" r="1" gradientUnits="userSpaceOnUse" gradientTransform="translate(476.793 150.724) rotate(177.34) scale(542.026 908.258)">
<stop stop-color="#EEEBFD"/>
<stop offset="1" stop-color="#EEEBFD" stop-opacity="0"/>
</radialGradient>
<linearGradient id="paint1_linear_117_1236" x1="392.525" y1="193.495" x2="358.359" y2="190.692" gradientUnits="userSpaceOnUse">
<stop stop-color="#FBFBFC"/>
<stop offset="1" stop-color="#FBFBFC" stop-opacity="0"/>
</linearGradient>
<linearGradient id="paint2_linear_117_1236" x1="326.547" y1="218.69" x2="409.437" y2="182.449" gradientUnits="userSpaceOnUse">
<stop stop-color="#F7F8FA"/>
<stop offset="1" stop-color="#F2F0FE"/>
</linearGradient>
<linearGradient id="paint3_linear_117_1236" x1="35.3827" y1="185.707" x2="87.1333" y2="211.294" gradientUnits="userSpaceOnUse">
<stop stop-color="#FBFBFC"/>
<stop offset="1" stop-color="#FBFBFC" stop-opacity="0"/>
</linearGradient>
<linearGradient id="paint4_linear_117_1236" x1="-76.3159" y1="127.445" x2="82.1722" y2="195.786" gradientUnits="userSpaceOnUse">
<stop stop-color="#F7F8FA"/>
<stop offset="1" stop-color="#F2F0FE"/>
</linearGradient>
<linearGradient id="paint5_linear_117_1236" x1="350.812" y1="21.9079" x2="295.021" y2="212.422" gradientUnits="userSpaceOnUse">
<stop stop-color="#EEEBFD"/>
<stop offset="0.098607" stop-color="#EEEBFD" stop-opacity="0.540862"/>
<stop offset="0.701736" stop-color="#EEEBFD" stop-opacity="0"/>
</linearGradient>
<linearGradient id="paint6_linear_117_1236" x1="322.394" y1="259.712" x2="174.284" y2="-2.97509" gradientUnits="userSpaceOnUse">
<stop stop-color="#F7F8FA"/>
<stop offset="1" stop-color="#FDFDFE"/>
</linearGradient>
<linearGradient id="paint7_linear_117_1236" x1="322.394" y1="259.712" x2="174.284" y2="-2.97509" gradientUnits="userSpaceOnUse">
<stop stop-color="#F7F8FA"/>
<stop offset="1" stop-color="#FDFDFE"/>
</linearGradient>
<linearGradient id="paint8_linear_117_1236" x1="83.334" y1="105" x2="90.7703" y2="208.564" gradientUnits="userSpaceOnUse">
<stop stop-color="#EEEBFD"/>
<stop offset="1" stop-color="#EEEBFD" stop-opacity="0"/>
</linearGradient>
<linearGradient id="paint9_linear_117_1236" x1="207.462" y1="207.683" x2="195.655" y2="172.121" gradientUnits="userSpaceOnUse">
<stop stop-color="#376FFD"/>
<stop offset="1" stop-color="#376FFD" stop-opacity="0"/>
</linearGradient>
<linearGradient id="paint10_linear_117_1236" x1="238.724" y1="141.927" x2="220.877" y2="173.037" gradientUnits="userSpaceOnUse">
<stop offset="0.0212693" stop-color="#00C7FF"/>
<stop offset="1" stop-color="#00C7FF" stop-opacity="0"/>
</linearGradient>
<linearGradient id="paint11_linear_117_1236" x1="50.6056" y1="49.1725" x2="74.483" y2="76.2019" gradientUnits="userSpaceOnUse">
<stop stop-color="#EFECFD"/>
<stop offset="1" stop-color="#F8F9FB"/>
</linearGradient>
<linearGradient id="paint12_linear_117_1236" x1="330.342" y1="111.811" x2="351.42" y2="85.7369" gradientUnits="userSpaceOnUse">
<stop stop-color="#F3F2FD"/>
<stop offset="1" stop-color="#D6D8E5"/>
</linearGradient>
</defs>
</svg>
