<svg width="179" height="315" viewBox="0 0 179 315" fill="none" xmlns="http://www.w3.org/2000/svg">
<path fill-rule="evenodd" clip-rule="evenodd" d="M62.4664 240.197H120.303C152.585 240.197 179 266.029 179 297.598C179 329.168 152.585 355 120.303 355H-450.091C-502.365 355 -545.134 313.175 -545.134 262.047C-545.134 210.927 -502.365 169.094 -450.091 169.094C-427.986 169.094 -409.903 151.41 -409.903 129.793C-409.903 108.175 -427.986 90.4914 -450.091 90.4914H-498.457C-521.439 90.4914 -540.243 72.1027 -540.243 49.6276C-540.243 27.1526 -521.439 8.76387 -498.457 8.76387H-437.294C-428.346 8.76387 -421.03 1.60871 -421.03 -7.14094C-421.03 -15.8906 -428.346 -23.0458 -437.294 -23.0458H-448.076C-454.254 -23.0458 -459.301 -27.9895 -459.301 -34.0229C-459.301 -40.0643 -454.254 -45 -448.076 -45H-377.335C-362.431 -45 -360.776 -27.7892 -323.136 -27.7892H-214.697C-206.643 -27.7892 -200.048 -21.3391 -200.048 -13.4628C-200.048 -5.58652 -206.635 0.863547 -214.697 0.863547H-228.765C-240.441 0.863547 -249.986 10.2061 -249.986 21.6239C-249.986 33.0417 -240.433 42.3843 -228.765 42.3843H-207.594C-150.421 42.3843 -142.35 56.9991 -132.33 86.0605C-122.318 115.122 -70.3146 117.461 -70.3146 117.461H70.4139C88.005 117.461 102.401 131.539 102.401 148.742C102.401 165.945 88.005 180.023 70.4139 180.023H62.4664C45.5472 180.023 31.7005 193.564 31.7005 210.11C31.7005 226.656 45.5472 240.197 62.4664 240.197V240.197ZM-479.579 -23.0377C-473.377 -23.0377 -468.354 -27.9494 -468.354 -34.0149C-468.354 -40.0803 -473.385 -44.992 -479.579 -44.992C-485.773 -44.992 -490.804 -40.0723 -490.804 -34.0149C-490.804 -27.9574 -485.782 -23.0377 -479.579 -23.0377Z" fill="black" fill-opacity="0.1"/>
</svg>
