<svg width="581" height="309" viewBox="0 0 581 309" fill="none" xmlns="http://www.w3.org/2000/svg">
<path fill-rule="evenodd" clip-rule="evenodd" d="M117.4 23.8031H59.5632C27.2815 23.8031 0.866211 -2.02918 0.866211 -33.5984C0.866211 -65.1677 27.2815 -91 59.5632 -91H629.958C682.231 -91 725 -49.1747 725 1.95302C725 53.0728 682.231 94.906 629.958 94.906C607.852 94.906 589.769 112.59 589.769 134.207C589.769 155.825 607.852 173.509 629.958 173.509H678.323C701.305 173.509 720.109 191.897 720.109 214.372C720.109 236.847 701.305 255.236 678.323 255.236H617.16C608.213 255.236 600.896 262.391 600.896 271.141C600.896 279.891 608.213 287.046 617.16 287.046H627.942C634.12 287.046 639.167 291.989 639.167 298.023C639.167 304.064 634.12 309 627.942 309H557.201C542.297 309 540.642 291.789 503.002 291.789H394.564C386.51 291.789 379.914 285.339 379.914 277.463C379.914 269.587 386.501 263.136 394.564 263.136H408.631C420.307 263.136 429.852 253.794 429.852 242.376C429.852 230.958 420.299 221.616 408.631 221.616H387.46C330.287 221.616 322.216 207.001 312.196 177.94C302.184 148.878 250.181 146.539 250.181 146.539H109.452C91.8612 146.539 77.4656 132.461 77.4656 115.258C77.4656 98.0549 91.8612 83.977 109.452 83.977H117.4C134.319 83.977 148.166 70.4359 148.166 53.8901C148.166 37.3442 134.319 23.8031 117.4 23.8031V23.8031ZM659.445 287.038C653.243 287.038 648.221 291.949 648.221 298.015C648.221 304.08 653.251 308.992 659.445 308.992C665.64 308.992 670.67 304.072 670.67 298.015C670.67 291.957 665.648 287.038 659.445 287.038Z" fill="black" fill-opacity="0.1"/>
</svg>
