<svg width="405" height="309" viewBox="0 0 405 309" fill="none" xmlns="http://www.w3.org/2000/svg">
<path d="M266.444 115.089C237.626 100.143 216.453 42.8249 181.636 62.0311C160.482 73.7004 167.072 82.7301 140.347 76.4221C122.516 72.2349 110.1 61.5486 85.5233 70.6875C-8.85109 105.823 52.3994 238.173 138.481 244.153C163.641 245.901 167.764 221.788 186.461 215.726C205.476 209.573 225.856 225.684 241.94 233.303C281.927 252.245 321.013 251.098 356.203 222.089C383.001 200.006 392.513 150.58 362.957 124.747C336.879 101.918 298.239 131.574 266.444 115.089Z" fill="#F4F3FB"/>
<path d="M266.444 115.089C237.626 100.143 216.453 42.8249 181.636 62.0311C160.482 73.7004 167.072 82.7301 140.347 76.4221C122.516 72.2349 110.1 61.5486 85.5233 70.6875C-8.85109 105.823 52.3994 238.173 138.481 244.153C163.641 245.901 167.764 221.788 186.461 215.726C205.476 209.573 225.856 225.684 241.94 233.303C281.927 252.245 321.013 251.098 356.203 222.089C383.001 200.006 392.513 150.58 362.957 124.747C336.879 101.918 298.239 131.574 266.444 115.089Z" fill="url(#paint0_radial_182_3859)"/>
<path d="M133.069 180.955L146.485 180.478H221.36H247.494L221.36 181.432H146.485L133.069 180.955Z" fill="#C3C6D6"/>
<path d="M382.568 55.9478C382.568 53.7675 384.335 52 386.516 52C388.696 52 390.463 53.7675 390.463 55.9478V83.0522C390.463 85.2325 388.696 87 386.516 87C384.335 87 382.568 85.2325 382.568 83.0522V55.9478Z" fill="white"/>
<path d="M372.963 73.4478C370.783 73.4478 369.016 71.6803 369.016 69.5C369.016 67.3197 370.783 65.5522 372.963 65.5522H400.068C402.248 65.5522 404.016 67.3197 404.016 69.5C404.016 71.6803 402.248 73.4478 400.068 73.4478H372.963Z" fill="white"/>
<path d="M35.7045 233.494C35.7045 231.313 37.472 229.546 39.6523 229.546C41.8327 229.546 43.6002 231.313 43.6002 233.494V260.598C43.6002 262.778 41.8327 264.546 39.6523 264.546C37.472 264.546 35.7045 262.778 35.7045 260.598V233.494Z" fill="white"/>
<path d="M26.1002 250.994C23.9199 250.994 22.1523 249.226 22.1523 247.046C22.1523 244.866 23.9199 243.098 26.1002 243.098H53.2045C55.3848 243.098 57.1523 244.866 57.1523 247.046C57.1523 249.226 55.3848 250.994 53.2045 250.994H26.1002Z" fill="white"/>
<path d="M333.88 11.9794C337.487 33.361 309.91 42.5108 313.521 63.8821C303.917 60.0704 294.294 56.2954 284.653 52.557C281.047 31.1754 308.623 22.0257 305.012 0.654351L333.88 11.9794Z" fill="#F2F3F6"/>
<path d="M333.88 11.9794C337.487 33.361 309.91 42.5108 313.521 63.8821C303.917 60.0704 294.294 56.2954 284.653 52.557C281.047 31.1754 308.623 22.0257 305.012 0.654351L333.88 11.9794Z" fill="url(#paint1_linear_182_3859)"/>
<path d="M329.648 12.9992L309.862 5.2422C309.911 5.52831 309.88 5.82243 309.772 6.09203C309.664 6.36163 309.484 6.59614 309.251 6.76958C309.019 6.94302 308.742 7.04863 308.453 7.07467C308.164 7.10072 307.873 7.04618 307.613 6.91714C306.484 22.9404 287.843 32.0971 286.71 48.1307C287.347 48.4479 287.886 48.9324 288.269 49.5325C288.653 50.1326 288.865 50.8256 288.885 51.5373L308.682 59.2984C308.632 59.0137 308.661 58.7206 308.768 58.4518C308.874 58.183 309.053 57.9491 309.285 57.7761C309.517 57.603 309.792 57.4977 310.08 57.4719C310.368 57.446 310.657 57.5006 310.916 57.6296C312.049 41.596 330.701 32.4434 331.834 16.4098C331.194 16.0937 330.652 15.6092 330.267 15.0082C329.882 14.4073 329.668 13.7127 329.648 12.9992Z" fill="#ECEAFA"/>
<path d="M329.648 12.9992L309.862 5.2422C309.911 5.52831 309.88 5.82243 309.772 6.09203C309.664 6.36163 309.484 6.59614 309.251 6.76958C309.019 6.94302 308.742 7.04863 308.453 7.07467C308.164 7.10072 307.873 7.04618 307.613 6.91714C306.484 22.9404 287.843 32.0971 286.71 48.1307C287.347 48.4479 287.886 48.9324 288.269 49.5325C288.653 50.1326 288.865 50.8256 288.885 51.5373L308.682 59.2984C308.632 59.0137 308.661 58.7206 308.768 58.4518C308.874 58.183 309.053 57.9491 309.285 57.7761C309.517 57.603 309.792 57.4977 310.08 57.4719C310.368 57.446 310.657 57.5006 310.916 57.6296C312.049 41.596 330.701 32.4434 331.834 16.4098C331.194 16.0937 330.652 15.6092 330.267 15.0082C329.882 14.4073 329.668 13.7127 329.648 12.9992Z" fill="url(#paint2_linear_182_3859)"/>
<path d="M306.747 32.7377C306.938 32.8056 307.147 32.8036 307.337 32.732C307.59 32.6266 307.827 32.4866 308.042 32.316C307.524 32.1103 307.006 31.9046 306.498 31.7031C306.386 31.902 306.35 32.1341 306.394 32.3577C306.418 32.4449 306.462 32.525 306.524 32.5912C306.585 32.6574 306.662 32.7077 306.747 32.7377Z" fill="white"/>
<path d="M310.665 32.085L312.157 32.6773C312.269 32.489 312.31 32.2674 312.274 32.0516C312.256 31.9685 312.216 31.8916 312.159 31.8288C312.102 31.766 312.029 31.7196 311.948 31.6943C311.759 31.6259 311.552 31.6243 311.362 31.6897C311.111 31.7851 310.876 31.9184 310.665 32.085Z" fill="white"/>
<path d="M301.142 29.0854C297.991 33.0052 299.368 37.7266 303.86 39.4973C308.352 41.268 314.184 39.3598 317.335 35.4399C320.486 31.5201 319.113 26.7883 314.607 25.0239C310.101 23.2594 304.329 25.1675 301.142 29.0854ZM314.063 31.262C314.112 31.6057 314.093 31.9557 314.007 32.292C313.921 32.6283 313.769 32.9444 313.561 33.2221L314.773 33.7034L314.02 34.6641L312.839 34.1952C312.441 34.6585 311.994 35.0763 311.504 35.4411C311.079 35.7692 310.613 36.0399 310.117 36.2462L309.201 35.1989C309.612 35.0215 310.004 34.8033 310.371 34.5476C310.749 34.2821 311.099 33.9787 311.415 33.642L309.611 32.9263C309.192 33.2817 308.753 33.612 308.295 33.9155C307.903 34.1623 307.471 34.34 307.019 34.4407C306.542 34.5352 306.048 34.4853 305.6 34.2975C305.33 34.2126 305.086 34.0592 304.893 33.8521C304.7 33.6451 304.563 33.3915 304.497 33.1161C304.408 32.4108 304.596 31.6983 305.022 31.129C304.628 30.9727 304.224 30.8123 303.82 30.6519L304.573 29.6911L305.754 30.16C306.368 29.4675 307.107 28.8978 307.932 28.4811L308.894 29.4745C308.263 29.7992 307.69 30.2237 307.195 30.7318C307.807 30.9745 308.428 31.2213 309.04 31.4639C309.445 31.108 309.875 30.7816 310.327 30.4873C310.714 30.236 311.143 30.0567 311.593 29.958C312.062 29.8677 312.548 29.9145 312.991 30.0929C313.262 30.1758 313.507 30.3286 313.701 30.536C313.894 30.7434 314.03 30.998 314.094 31.2743L314.063 31.262Z" fill="#FBFCFD"/>
<path d="M121.406 178.837C96.2982 211.715 47.624 185.193 22.536 218.063C15.3396 199.71 8.06797 181.38 0.721146 163.071C25.8289 130.192 74.5031 156.715 99.591 123.845L121.406 178.837Z" fill="#F2F3F6"/>
<path d="M121.406 178.837C96.2982 211.715 47.624 185.193 22.536 218.063C15.3396 199.71 8.06797 181.38 0.721146 163.071C25.8289 130.192 74.5031 156.715 99.591 123.845L121.406 178.837Z" fill="url(#paint3_linear_182_3859)"/>
<path d="M114.472 174.267L99.5121 136.581C99.1774 137.022 98.7271 137.362 98.211 137.563C97.6949 137.764 97.1333 137.818 96.5882 137.719C96.0432 137.621 95.5361 137.373 95.1232 137.004C94.7103 136.635 94.4076 136.159 94.2488 135.628C70.4424 154.926 33.3964 140.867 9.57022 160.172C9.95836 161.474 9.98515 162.856 9.64773 164.172C9.31031 165.488 8.62135 166.687 7.65468 167.641L22.6228 205.347C22.9541 204.906 23.4013 204.566 23.9147 204.364C24.4281 204.162 24.9874 204.107 25.5303 204.205C26.0731 204.302 26.5783 204.549 26.9894 204.916C27.4005 205.284 27.7014 205.759 27.8586 206.287C51.6847 186.982 88.7386 201.061 112.565 181.756C112.172 180.452 112.142 179.066 112.478 177.746C112.814 176.427 113.504 175.224 114.472 174.267Z" fill="#ECEAFA"/>
<path d="M114.472 174.267L99.5121 136.581C99.1774 137.022 98.7271 137.362 98.211 137.563C97.6949 137.764 97.1333 137.818 96.5882 137.719C96.0432 137.621 95.5361 137.373 95.1232 137.004C94.7103 136.635 94.4076 136.159 94.2488 135.628C70.4424 154.926 33.3964 140.867 9.57022 160.172C9.95836 161.474 9.98515 162.856 9.64773 164.172C9.31031 165.488 8.62135 166.687 7.65468 167.641L22.6228 205.347C22.9541 204.906 23.4013 204.566 23.9147 204.364C24.4281 204.162 24.9874 204.107 25.5303 204.205C26.0731 204.302 26.5783 204.549 26.9894 204.916C27.4005 205.284 27.7014 205.759 27.8586 206.287C51.6847 186.982 88.7386 201.061 112.565 181.756C112.172 180.452 112.142 179.066 112.478 177.746C112.814 176.427 113.504 175.224 114.472 174.267Z" fill="url(#paint4_linear_182_3859)"/>
<path d="M57.1271 168.053C57.2815 168.408 57.5566 168.697 57.9037 168.868C58.3803 169.084 58.8845 169.232 59.4019 169.309C59.0136 168.319 58.6253 167.329 58.2448 166.358C57.8225 166.462 57.451 166.713 57.197 167.066C57.1062 167.213 57.0525 167.379 57.0403 167.551C57.0281 167.723 57.0579 167.895 57.1271 168.053Z" fill="white"/>
<path d="M63.1396 172.665L64.2579 175.517C64.6656 175.427 65.0282 175.196 65.2816 174.864C65.3743 174.731 65.4299 174.576 65.4428 174.414C65.4557 174.253 65.4254 174.09 65.355 173.944C65.204 173.592 64.937 173.301 64.5982 173.121C64.1382 172.896 63.6463 172.742 63.1396 172.665Z" fill="white"/>
<path d="M54.9176 155.484C45.3487 156.197 40.5611 164.267 43.9436 172.835C47.326 181.403 57.5824 187.046 67.1512 186.333C76.72 185.62 81.5274 177.543 78.1174 168.963C74.7074 160.383 64.5295 154.823 54.9176 155.484ZM68.7126 176.33C68.2976 176.846 67.7849 177.275 67.2039 177.593C66.6229 177.911 65.9849 178.112 65.3264 178.183L66.235 180.5L63.9147 180.702L63.0293 178.444C61.8659 178.493 60.7006 178.414 59.5546 178.207C58.5437 178.042 57.5588 177.744 56.6255 177.322L56.8924 174.681C57.6748 175.023 58.4896 175.285 59.3244 175.464C60.1865 175.644 61.0648 175.737 61.9457 175.738L60.5944 172.292C59.5534 172.171 58.5204 171.989 57.5009 171.746C56.646 171.521 55.8361 171.15 55.1065 170.651C54.354 170.11 53.7801 169.356 53.4582 168.487C53.2246 168 53.1211 167.46 53.158 166.921C53.1949 166.382 53.3709 165.862 53.6688 165.411C54.5358 164.368 55.7739 163.702 57.1222 163.554C56.8271 162.801 56.5242 162.029 56.2213 161.257L58.5417 161.055L59.427 163.313C61.1909 163.266 62.9477 163.554 64.6041 164.162L64.4716 166.796C63.198 166.34 61.8589 166.094 60.5064 166.066C60.9646 167.234 61.4306 168.423 61.8888 169.591C62.9127 169.692 63.9281 169.867 64.927 170.114C65.7808 170.325 66.5894 170.689 67.3136 171.189C68.0508 171.725 68.6177 172.463 68.9465 173.313C69.1843 173.799 69.29 174.339 69.2531 174.879C69.2161 175.419 69.0378 175.94 68.7359 176.389L68.7126 176.33Z" fill="#FBFCFD"/>
<path d="M401 271.928C401 272.639 311.457 273.216 201 273.216C90.5431 273.216 1 272.639 1 271.928C1 271.216 90.5431 270.64 201 270.64C311.457 270.64 401 271.216 401 271.928Z" fill="#D2D1E0"/>
<path d="M245.544 267.137V269.311C245.544 269.855 245.328 270.376 244.943 270.761C244.559 271.145 244.037 271.361 243.493 271.361H165.57C165.073 271.361 164.596 271.165 164.243 270.816C163.89 270.467 163.689 269.992 163.683 269.495V267.445C163.683 266.944 163.882 266.464 164.236 266.111C164.59 265.757 165.07 265.558 165.57 265.558H184.948C185.461 265.558 185.968 265.447 186.434 265.233C186.9 265.019 187.314 264.706 187.647 264.316C187.98 263.926 188.225 263.469 188.365 262.975C188.504 262.481 188.535 261.963 188.455 261.457L181.647 222.167H225.94L244.908 264.123C245.318 265.075 245.534 266.1 245.544 267.137Z" fill="#D6D8E5"/>
<path d="M119.663 267.424V269.475C119.663 269.72 119.711 269.962 119.805 270.189C119.899 270.415 120.036 270.621 120.209 270.794C120.383 270.967 120.588 271.105 120.815 271.199C121.041 271.292 121.284 271.341 121.529 271.341H243.452C243.996 271.341 244.518 271.125 244.902 270.74C245.287 270.356 245.503 269.834 245.503 269.29V267.117C245.496 266.537 245.427 265.959 245.298 265.394C245.181 264.91 245.023 264.437 244.826 263.979L243.918 261.969L225.858 222.023H173.565L180.434 261.272C180.464 261.504 180.464 261.738 180.434 261.969C180.419 262.768 180.132 263.538 179.622 264.153C179.111 264.767 178.407 265.191 177.625 265.353C177.38 265.384 177.132 265.384 176.887 265.353H121.488C121.228 265.357 120.972 265.415 120.736 265.524C120.5 265.633 120.289 265.79 120.118 265.985C119.946 266.18 119.817 266.409 119.738 266.657C119.66 266.904 119.634 267.166 119.663 267.424Z" fill="#E7E6F4"/>
<path d="M173.565 222.023H225.859L238.062 249.015H178.29L173.565 222.023Z" fill="#DDDFEB"/>
<path opacity="0.2" d="M123.663 267.424V269.474C123.663 269.719 123.711 269.962 123.805 270.188C123.899 270.415 124.036 270.621 124.209 270.794C124.383 270.967 124.588 271.105 124.815 271.198C125.041 271.292 125.284 271.34 125.529 271.34H243.452C243.996 271.34 244.518 271.124 244.902 270.74C245.287 270.355 245.503 269.834 245.503 269.29V267.116C245.496 266.536 245.427 265.959 245.298 265.394L185.621 265.353L184.887 265.353H125.488C125.228 265.357 124.972 265.415 124.736 265.524C124.5 265.633 124.289 265.79 124.118 265.985C123.946 266.18 123.817 266.408 123.738 266.656C123.66 266.904 123.634 267.165 123.663 267.424Z" fill="#E7E6F4"/>
<path d="M246.014 265.353H199.648C196.34 265.353 193.659 268.034 193.659 271.341H246.014V265.353Z" fill="#D6D8E5"/>
<path opacity="0.75" d="M245.298 265.394C245.181 264.91 245.023 264.437 244.826 263.979L243.918 261.97H180.434C180.418 262.768 180.132 263.538 179.622 264.153C179.111 264.768 178.407 265.191 177.625 265.353C177.624 265.353 177.623 265.353 177.621 265.354L176.887 265.353C177.131 265.384 177.378 265.384 177.621 265.354L245.298 265.394Z" fill="#DBDCE9" fill-opacity="0.89"/>
<path d="M230.589 222.044L249.557 264C249.989 264.989 250.213 266.057 250.213 267.137V269.311C250.213 269.855 249.997 270.376 249.612 270.761C249.228 271.145 248.706 271.361 248.162 271.361H242.771C243.315 271.361 243.837 271.145 244.221 270.761C244.606 270.376 244.822 269.855 244.822 269.311V267.137C244.822 266.057 244.599 264.989 244.166 264L225.197 222.044H230.589Z" fill="#D6D8E5"/>
<path fill-rule="evenodd" clip-rule="evenodd" d="M314.618 226.747L313.738 230.644C312.399 236.573 307.133 240.783 301.055 240.783H297.093C297.082 240.783 297.071 240.783 297.06 240.783H102.704C102.693 240.783 102.682 240.783 102.671 240.783H96.4528C92.6771 240.783 89.343 239.196 86.9958 236.705L79.8135 228.698C77.4428 225.746 76.3482 221.77 77.2686 217.693L78.4246 212.739C78.4856 212.359 78.5591 211.977 78.6453 211.595L113.646 56.5803C114.778 51.5648 119.234 48.003 124.376 48.003H329.33C329.519 48.003 329.707 48.0066 329.893 48.0139L332.193 48.0029C335.75 48.0029 340.802 49.813 342.598 52.4913L348.717 59.1826C350.465 61.4597 351.257 64.4763 350.559 67.5667L349.488 72.3099L314.618 226.747Z" fill="#E7E6F4"/>
<path fill-rule="evenodd" clip-rule="evenodd" d="M314.618 226.747L313.738 230.644C312.399 236.573 307.133 240.783 301.055 240.783H297.093C297.082 240.783 297.071 240.783 297.06 240.783H102.704C102.693 240.783 102.682 240.783 102.671 240.783H96.4528C92.6771 240.783 89.343 239.196 86.9958 236.705L79.8135 228.698C77.4428 225.746 76.3482 221.77 77.2686 217.693L78.4246 212.739C78.4856 212.359 78.5591 211.977 78.6453 211.595L113.646 56.5803C114.778 51.5648 119.234 48.003 124.376 48.003H329.33C329.519 48.003 329.707 48.0066 329.893 48.0139L332.193 48.0029C335.75 48.0029 340.802 49.813 342.598 52.4913L348.717 59.1826C350.465 61.4597 351.257 64.4763 350.559 67.5667L349.488 72.3099L314.618 226.747Z" fill="url(#paint5_linear_182_3859)"/>
<path d="M113.646 56.5803C114.778 51.5648 119.234 48.0029 124.376 48.0029H329.33C338.306 48.0029 344.963 56.3308 342.987 65.0863L308.116 219.524C306.263 227.731 298.972 233.559 290.558 233.559H96.2032C84.6626 233.559 76.1034 222.852 78.6451 211.595L113.646 56.5803Z" fill="#FDFDFE"/>
<path d="M113.646 56.5803C114.778 51.5648 119.234 48.0029 124.376 48.0029H329.33C338.306 48.0029 344.963 56.3308 342.987 65.0863L308.116 219.524C306.263 227.731 298.972 233.559 290.558 233.559H96.2032C84.6626 233.559 76.1034 222.852 78.6451 211.595L113.646 56.5803Z" fill="url(#paint6_linear_182_3859)"/>
<path d="M124.376 50.0029C120.169 50.0029 116.523 52.9172 115.597 57.0207L80.596 212.036C78.3367 222.042 85.9449 231.559 96.2032 231.559H290.558C298.037 231.559 304.518 226.379 306.165 219.083L341.036 64.6459C342.73 57.1411 337.024 50.0029 329.33 50.0029H124.376Z" fill="#FDFDFE"/>
<path d="M124.376 50.0029C120.169 50.0029 116.523 52.9172 115.597 57.0207L80.596 212.036C78.3367 222.042 85.9449 231.559 96.2032 231.559H290.558C298.037 231.559 304.518 226.379 306.165 219.083L341.036 64.6459C342.73 57.1411 337.024 50.0029 329.33 50.0029H124.376Z" fill="url(#paint7_linear_182_3859)"/>
<path d="M124.376 50.0029C120.169 50.0029 116.523 52.9172 115.597 57.0207L80.596 212.036C78.3367 222.042 85.9449 231.559 96.2032 231.559H290.558C298.037 231.559 304.518 226.379 306.165 219.083L341.036 64.6459C342.73 57.1411 337.024 50.0029 329.33 50.0029H124.376Z" stroke="white" stroke-width="4"/>
<path opacity="0.75" d="M96.4787 148.757C103.422 148.757 103.275 182.75 115.554 182.75C127.832 182.75 144.44 132.5 162.858 132.5C181.276 132.5 173.288 161.25 193.141 163C212.993 164.75 212.583 137.433 225.774 137.433C238.966 137.433 238.15 148.757 247.525 148.757C256.899 148.757 257.383 137.433 269.517 137.433C277.855 137.433 280.888 148.757 290.113 148.757C299.337 148.757 311.073 109.124 327.956 109.124L300.077 227.926L78.6376 228.926L96.4787 148.757Z" fill="url(#paint8_linear_182_3859)"/>
<rect width="4.75038" height="8.90697" rx="2.37519" transform="matrix(1 0 -0.245477 0.969403 108.339 145.971)" fill="#00C7FF"/>
<rect width="1.1876" height="11.2822" transform="matrix(1 0 -0.245477 0.969403 110.412 144.819)" fill="#00C7FF"/>
<rect width="4.75038" height="8.90697" rx="2.37519" transform="matrix(1 0 -0.245477 0.969403 252.813 93.0293)" fill="#00C7FF"/>
<rect width="1.1876" height="11.2822" transform="matrix(1 0 -0.245477 0.969403 254.887 91.8779)" fill="#00C7FF"/>
<rect width="4.75038" height="8.90697" rx="2.37519" transform="matrix(1 0 -0.245477 0.969403 117.84 145.971)" fill="#583AFB"/>
<rect width="1.1876" height="17.2201" transform="matrix(1 0 -0.245477 0.969403 120.496 142.517)" fill="#583AFB"/>
<rect width="4.75038" height="8.90697" rx="2.37519" transform="matrix(1 0 -0.245477 0.969403 262.314 93.0303)" fill="#583AFB"/>
<rect width="1.1876" height="17.2201" transform="matrix(1 0 -0.245477 0.969403 264.971 89.5762)" fill="#583AFB"/>
<rect width="4.75038" height="6.14274" rx="2.37519" transform="matrix(1 0 -0.245477 0.969403 127.758 144.323)" fill="#00C7FF"/>
<rect width="1.1876" height="9.50077" transform="matrix(1 0 -0.245477 0.969403 129.851 143.093)" fill="#00C7FF"/>
<rect width="4.75038" height="6.14274" rx="2.37519" transform="matrix(1 0 -0.245477 0.969403 272.232 91.3818)" fill="#00C7FF"/>
<rect width="1.1876" height="9.50077" transform="matrix(1 0 -0.245477 0.969403 274.325 90.1514)" fill="#00C7FF"/>
<rect width="4.75038" height="6.14274" rx="2.37519" transform="matrix(1 0 -0.245477 0.969403 135.499 148.929)" fill="#583AFB"/>
<rect width="1.1876" height="14.2512" transform="matrix(1 0 -0.245477 0.969403 139.195 141.366)" fill="#583AFB"/>
<rect width="4.75038" height="6.14274" rx="2.37519" transform="matrix(1 0 -0.245477 0.969403 279.974 95.9873)" fill="#583AFB"/>
<rect width="1.1876" height="14.2512" transform="matrix(1 0 -0.245477 0.969403 283.67 88.4248)" fill="#583AFB"/>
<rect width="4.75038" height="11.2822" rx="2.37519" transform="matrix(1 0 -0.245477 0.969403 145.613 148.85)" fill="#583AFB"/>
<rect width="1.1876" height="15.4387" transform="matrix(1 0 -0.245477 0.969403 147.978 146.547)" fill="#583AFB"/>
<rect width="4.75038" height="11.2822" rx="2.37519" transform="matrix(1 0 -0.245477 0.969403 290.089 95.9082)" fill="#583AFB"/>
<rect width="1.1876" height="15.4387" transform="matrix(1 0 -0.245477 0.969403 292.453 93.6055)" fill="#583AFB"/>
<rect width="4.75038" height="7.71937" rx="2.37519" transform="matrix(1 0 -0.245477 0.969403 206.496 88.9834)" fill="#00C7FF"/>
<rect width="1.1876" height="17.2201" transform="matrix(1 0 -0.245477 0.969403 209.151 85.5293)" fill="#00C7FF"/>
<rect width="4.75038" height="11.2822" rx="2.37519" transform="matrix(1 0 -0.245477 0.969403 221.091 99.3447)" fill="#583AFB"/>
<rect width="1.1876" height="21.3767" transform="matrix(1 0 -0.245477 0.969403 223.747 95.8906)" fill="#583AFB"/>
<rect width="4.75038" height="27.3147" rx="2.37519" transform="matrix(1 0 -0.245477 0.969403 245.185 76.8955)" fill="#583AFB"/>
<rect width="1.1876" height="30.2837" transform="matrix(1 0 -0.245477 0.969403 247.549 74.5928)" fill="#583AFB"/>
<rect width="4.75038" height="10.342" rx="2.37519" transform="matrix(1 0 -0.245477 0.969403 230.822 100.784)" fill="#583AFB"/>
<rect width="1.1876" height="13.6574" transform="matrix(1 0 -0.245477 0.969403 232.53 101.072)" fill="#583AFB"/>
<rect width="4.75038" height="10.6884" rx="2.37519" transform="matrix(1 0 -0.245477 0.969403 214.215 88.9834)" fill="#00C7FF"/>
<rect width="1.1876" height="30.2837" transform="matrix(1 0 -0.245477 0.969403 218.911 77.4707)" fill="#00C7FF"/>
<rect width="4.75038" height="18.659" rx="2.37519" transform="matrix(1 0 -0.245477 0.969403 154.273 147.476)" fill="#583AFB"/>
<rect width="1.1876" height="25.5333" transform="matrix(1 0 -0.245477 0.969403 157.02 143.668)" fill="#583AFB"/>
<rect width="4.75038" height="18.659" rx="2.37519" transform="matrix(1 0 -0.245477 0.969403 298.749 94.5352)" fill="#583AFB"/>
<rect width="1.1876" height="25.5333" transform="matrix(1 0 -0.245477 0.969403 301.494 90.7275)" fill="#583AFB"/>
<rect width="4.75038" height="29.0961" rx="2.37519" transform="matrix(1 0 -0.245477 0.969403 170.56 118.341)" fill="#583AFB"/>
<rect width="1.1876" height="35.6279" transform="matrix(1 0 -0.245477 0.969403 173.652 113.16)" fill="#583AFB"/>
<rect width="4.75038" height="29.0961" rx="2.37519" transform="matrix(1 0 -0.245477 0.969403 315.034 65.3994)" fill="#583AFB"/>
<rect width="1.1876" height="35.6279" transform="matrix(1 0 -0.245477 0.969403 318.127 60.2188)" fill="#583AFB"/>
<rect width="4.75038" height="31.5208" rx="2.37519" transform="matrix(1 0 -0.245477 0.969403 195.999 90.5664)" fill="#583AFB"/>
<rect width="1.1876" height="34.4403" transform="matrix(1 0 -0.245477 0.969403 198.182 88.9834)" fill="#583AFB"/>
<rect width="4.75038" height="5.34418" rx="2.37519" transform="matrix(1 0 -0.245477 0.969403 179.466 118.34)" fill="#00C7FF"/>
<rect width="1.1876" height="8.90697" transform="matrix(1 0 -0.245477 0.969403 181.685 116.613)" fill="#00C7FF"/>
<rect width="4.75038" height="5.34418" rx="2.37519" transform="matrix(1 0 -0.245477 0.969403 323.94 65.3994)" fill="#00C7FF"/>
<rect width="1.1876" height="8.90697" transform="matrix(1 0 -0.245477 0.969403 326.159 63.6729)" fill="#00C7FF"/>
<path d="M95.9657 199.108C96.3724 197.502 98.0453 196.2 99.7021 196.2H106.73C108.387 196.2 109.4 197.502 108.994 199.108L102.833 223.437C102.427 225.043 100.754 226.345 99.0968 226.345H95.0688C91.7551 226.345 89.7282 223.741 90.5416 220.529L95.9657 199.108Z" fill="#E7E6F4"/>
<rect width="13.028" height="45.5596" rx="3" transform="matrix(1 0 -0.245477 0.969403 121.207 182.18)" fill="#FDFDFE"/>
<rect width="13.028" height="54.2375" rx="3" transform="matrix(1 0 -0.245477 0.969403 144.292 173.767)" fill="#FDFDFE"/>
<rect width="13.028" height="45.5596" rx="3" transform="matrix(1 0 -0.245477 0.969403 163.117 182.18)" fill="#E7E6F4"/>
<rect width="13.028" height="71.5935" rx="3" transform="matrix(1 0 -0.245477 0.969403 190.463 156.942)" fill="#FDFDFE"/>
<rect width="13.028" height="57.8535" rx="3" transform="matrix(1 0 -0.245477 0.969403 208.045 170.262)" fill="#E7E6F4"/>
<rect width="13.028" height="63.6387" rx="3" transform="matrix(1 0 -0.245477 0.969403 230.42 164.653)" fill="#FDFDFE"/>
<rect width="13.028" height="84.6106" rx="3" transform="matrix(1 0 -0.245477 0.969403 256.522 144.323)" fill="#FDFDFE"/>
<rect width="13.028" height="71.5935" rx="3" transform="matrix(1 0 -0.245477 0.969403 274.281 156.942)" fill="#E7E6F4"/>
<path d="M289.175 180.881C289.581 179.275 291.254 177.973 292.911 177.973H299.939C301.596 177.973 302.609 179.275 302.203 180.881L291.918 221.498C291.24 224.174 288.452 226.345 285.69 226.345H280.662C279.005 226.345 277.992 225.043 278.399 223.436L289.175 180.881Z" fill="#E7E6F4"/>
<path d="M251.113 16.5608L248.808 29.4182H258.438L260.692 16.5608H264.944L257.977 4.67676L246.861 16.5608H251.113Z" fill="#00C7FF"/>
<path d="M67.1071 112.561L64.802 125.418H74.4322L76.6861 112.561H80.9377L73.9712 100.677L62.8555 112.561H67.1071Z" fill="#00C7FF"/>
<path d="M363.101 232.561L360.796 245.418H370.426L372.68 232.561H376.932L369.965 220.677L358.85 232.561H363.101Z" fill="#00C7FF"/>
<g filter="url(#filter0_dd_182_3859)">
<rect width="127.743" height="58.7104" rx="9" transform="matrix(1 0 -0.245477 0.969403 259.412 130)" fill="#FCFCFE"/>
<path d="M300.906 158.492C299.745 163.045 296.916 167.44 292.946 170.857C288.977 174.275 284.138 176.481 279.332 177.065C274.526 177.65 270.08 176.572 266.824 174.033C263.568 171.493 261.724 167.666 261.635 163.265C261.546 158.864 263.219 154.188 266.341 150.11C269.464 146.033 273.823 142.831 278.606 141.102C283.389 139.373 288.27 139.234 292.338 140.713C296.406 142.191 299.384 145.185 300.717 149.137C301.676 151.985 301.741 155.21 300.906 158.492Z" fill="url(#paint9_linear_182_3859)"/>
<path d="M300.717 149.137L281.515 158.492L286.275 139.694C289.69 139.694 292.824 140.566 295.359 142.224C297.895 143.882 299.743 146.267 300.717 149.137Z" fill="#583AFB"/>
<path d="M294.246 160.601C297.224 153.517 293.949 146.844 286.931 145.696C279.914 144.549 271.811 149.362 268.834 156.446C265.856 163.53 269.131 170.204 276.149 171.351C283.166 172.498 291.268 167.686 294.246 160.601Z" fill="white"/>
<path d="M287.836 155.591H276.681L276.293 157.121H287.449L287.836 155.591Z" fill="#00C7FF"/>
<path d="M289.516 159.846H272.828L272.441 161.375H289.129L289.516 159.846Z" fill="#E7E6F4"/>
<path d="M359.603 143.432H312.72L311.738 147.309H358.621L359.603 143.432Z" fill="#D6D8E5"/>
<path d="M371.054 154.095H310.02L309.529 156.034H370.563L371.054 154.095Z" fill="#E7E6F4"/>
<path d="M369.581 159.911H308.547L308.056 161.85H369.09L369.581 159.911Z" fill="#E7E6F4"/>
<path d="M368.108 165.728H307.074L306.583 167.666H367.617L368.108 165.728Z" fill="#E7E6F4"/>
<path d="M347.749 171.544H305.601L305.11 173.483H347.258L347.749 171.544Z" fill="#E7E6F4"/>
</g>
<g filter="url(#filter1_dd_182_3859)">
<rect width="63.5836" height="55.9162" rx="9" transform="matrix(1 0 -0.245477 0.969403 173.457 23.9492)" fill="#FCFCFE"/>
<path fill-rule="evenodd" clip-rule="evenodd" d="M215.753 38.9473C215.881 38.851 216.043 38.853 216.109 38.9529C218.387 42.4053 218.917 46.9256 217.584 51.6418C217.546 51.7755 217.402 51.8841 217.264 51.8841H206.835C206.697 51.8841 206.618 51.7756 206.653 51.6419C207.163 49.7268 206.979 47.8916 206.141 46.4346C206.084 46.3365 206.131 46.1909 206.252 46.1001L215.753 38.9473ZM215.345 37.9168C215.421 38.0093 215.377 38.1662 215.249 38.2624L205.747 45.4153C205.627 45.5061 205.475 45.5099 205.399 45.4272C204.352 44.2986 202.846 43.6129 201.089 43.4654C200.96 43.4546 200.888 43.3489 200.926 43.2206L203.919 33.1049C203.96 32.9687 204.108 32.8592 204.247 32.8644C208.881 33.0391 212.818 34.8315 215.345 37.9168ZM202.919 33.1049C202.96 32.9687 202.876 32.8592 202.734 32.8644C197.997 33.0391 192.999 34.8315 188.645 37.9168C188.515 38.0093 188.466 38.1662 188.537 38.2625L193.806 45.4153C193.872 45.5061 194.022 45.5099 194.147 45.4272C195.862 44.2986 197.774 43.6129 199.618 43.4654C199.753 43.4546 199.888 43.3489 199.926 43.2206L202.919 33.1049ZM192.809 46.4346C192.923 46.3365 192.963 46.1909 192.896 46.1002L187.627 38.9473C187.557 38.8511 187.394 38.853 187.269 38.9529C182.947 42.4053 179.742 46.9256 178.284 51.6418C178.243 51.7755 178.323 51.8841 178.461 51.8841H188.889C189.027 51.8841 189.171 51.7756 189.215 51.6419C189.838 49.7268 191.108 47.8917 192.809 46.4346Z" fill="url(#paint10_linear_182_3859)"/>
<path fill-rule="evenodd" clip-rule="evenodd" d="M200.932 43.1997C200.895 43.3281 200.967 43.4338 201.096 43.4446C202.858 43.5922 204.369 44.2801 205.419 45.4126C205.495 45.4954 205.647 45.4916 205.768 45.4008L217.237 36.7664C217.365 36.6703 217.409 36.5137 217.334 36.421C214.513 32.9399 210.086 30.9247 204.873 30.7482C204.734 30.7435 204.586 30.8529 204.546 30.9888L200.932 43.1997Z" fill="#583AFB"/>
<path d="M207.656 56.4365H177.195L176.707 58.3632H207.168L207.656 56.4365Z" fill="#D6D8E5"/>
<path d="M215.508 61.7354H175.854L175.61 62.6987H215.264L215.508 61.7354Z" fill="#E7E6F4"/>
<path d="M214.777 64.625H175.122L174.878 65.5884H214.533L214.777 64.625Z" fill="#E7E6F4"/>
<path d="M214.044 67.5156H174.39L174.146 68.479H213.8L214.044 67.5156Z" fill="#E7E6F4"/>
<path d="M201.042 70.4053H173.658L173.414 71.3686H200.799L201.042 70.4053Z" fill="#E7E6F4"/>
</g>
<path d="M260.65 219.015H253.171C252.71 219.015 252.352 218.606 252.454 218.145L253.786 210.666C253.888 210.205 254.349 209.795 254.81 209.795H262.289C262.75 209.795 263.109 210.205 263.006 210.666L261.675 218.145C261.623 218.657 261.162 219.015 260.65 219.015Z" fill="#583AFB"/>
<path d="M272.995 219.015H265.516C265.055 219.015 264.696 218.606 264.799 218.145L266.131 210.666C266.233 210.205 266.694 209.795 267.155 209.795H274.634C275.095 209.795 275.454 210.205 275.351 210.666L274.019 218.145C273.968 218.657 273.507 219.015 272.995 219.015Z" fill="#583AFB"/>
<path d="M285.34 219.015H277.862C277.401 219.015 277.042 218.606 277.145 218.145L278.476 210.666C278.579 210.205 279.04 209.795 279.501 209.795H286.98C287.441 209.795 287.799 210.205 287.697 210.666L286.365 218.145C286.314 218.657 285.853 219.015 285.34 219.015Z" fill="#583AFB"/>
<mask id="mask0_182_3859" style="mask-type:alpha" maskUnits="userSpaceOnUse" x="20" y="2" width="359" height="307">
<path d="M263.429 177.411C234.61 162.465 213.438 105.147 178.621 124.353C209.501 -36.5002 91.7252 10.3081 65.0003 4.00008C47.1686 -0.187057 31.0005 92.4994 89.5007 124.352C-56.5 162 64.1025 323.445 135.466 306.475C156.654 301.437 164.749 284.11 183.445 278.048C202.46 271.895 222.841 288.006 238.925 295.625C278.912 314.567 317.998 313.42 353.188 284.411C379.986 262.328 389.498 212.902 359.942 187.069C333.864 164.24 295.224 193.896 263.429 177.411Z" fill="#F4F3FB"/>
<path d="M263.429 177.411C234.61 162.465 213.438 105.147 178.621 124.353C209.501 -36.5002 91.7252 10.3081 65.0003 4.00008C47.1686 -0.187057 31.0005 92.4994 89.5007 124.352C-56.5 162 64.1025 323.445 135.466 306.475C156.654 301.437 164.749 284.11 183.445 278.048C202.46 271.895 222.841 288.006 238.925 295.625C278.912 314.567 317.998 313.42 353.188 284.411C379.986 262.328 389.498 212.902 359.942 187.069C333.864 164.24 295.224 193.896 263.429 177.411Z" fill="url(#paint11_radial_182_3859)"/>
</mask>
<g mask="url(#mask0_182_3859)">
<path d="M170.447 177.616L143.734 134.126C139.337 133.158 135.431 130.651 132.72 127.057C128.604 121.379 126.02 98.6689 127.979 97.7037C129.938 96.7385 150.689 99.1232 152.08 101.905C153.471 104.687 157.758 127.738 157.758 127.738L188.531 163.819L170.447 177.616Z" fill="#FFB7AD"/>
<path d="M170.447 177.616L143.734 134.126C139.337 133.158 135.431 130.651 132.72 127.057C128.604 121.379 126.02 98.6689 127.979 97.7037C129.938 96.7385 150.689 99.1232 152.08 101.905C153.471 104.687 157.758 127.738 157.758 127.738L188.531 163.819L170.447 177.616Z" fill="#E5A59C"/>
<path d="M177.914 141.847L171.044 134.949L148.106 151.982L150.264 160.839L177.914 141.847Z" fill="#583AFB"/>
<path d="M177.914 141.847L171.044 134.949L148.106 151.982L150.264 160.839L177.914 141.847Z" fill="#E2E3EF"/>
<path d="M159.915 150.874L177.913 139.774C177.913 139.774 229.011 208.871 235.172 243.164C241.332 277.456 172.434 203.193 172.434 203.193L159.915 150.874Z" fill="#2C80FD"/>
<path d="M159.915 150.874L177.913 139.774C177.913 139.774 229.011 208.871 235.172 243.164C241.332 277.456 172.434 203.193 172.434 203.193L159.915 150.874Z" fill="url(#paint12_linear_182_3859)"/>
<path d="M47.4138 158.256C47.4138 158.256 36.6831 164.359 35.1502 194.195C33.7308 221.107 42.4175 278.366 59.28 290.885C86.2202 310.756 184.187 283.305 184.187 283.305L180.412 254.52C180.412 254.52 106.262 264.342 88.6048 254.52C70.9475 244.697 65.6673 194.309 65.6673 194.309C65.6673 194.309 58.258 161.35 47.4138 158.256Z" fill="#376FFD"/>
<path d="M47.4138 158.256C47.4138 158.256 36.6831 164.359 35.1502 194.195C33.7308 221.107 42.4175 278.366 59.28 290.885C86.2202 310.756 184.187 283.305 184.187 283.305L180.412 254.52C180.412 254.52 106.262 264.342 88.6048 254.52C70.9475 244.697 65.6673 194.309 65.6673 194.309C65.6673 194.309 58.258 161.35 47.4138 158.256Z" fill="url(#paint13_linear_182_3859)"/>
<path d="M144.302 106.305C143.857 107.276 143.365 108.223 142.825 109.144C138.939 116.021 132.604 121.18 125.083 123.594C119.293 125.539 113.025 125.535 107.237 123.582C101.449 121.628 96.4604 117.834 93.0328 112.778C83.8919 99.7761 86.3617 86.9731 88.803 65.0008C89.3003 59.8649 91.1025 54.9414 94.0384 50.6982C96.9744 46.455 100.947 43.033 105.578 40.7573C110.209 38.4816 115.345 37.4279 120.497 37.6962C125.65 37.9645 130.649 39.546 135.019 42.2903C154.89 54.6391 152.335 87.5124 144.302 106.305Z" fill="#FFB7AD"/>
<path d="M129.484 121.918C128.065 122.626 126.594 123.224 125.084 123.707C121.121 125.049 116.909 125.491 112.755 125C108.6 124.509 104.608 123.097 101.067 120.868C102.474 118.364 104.201 116.054 106.206 113.998C114.564 114.349 122.646 117.098 129.484 121.918Z" fill="#E5A59C"/>
<path d="M86.5889 150.194C97.4615 160.073 124.089 156.411 124.089 156.411C124.089 156.411 140.696 151.869 137.233 146.674C127.439 145.055 122.67 140.485 120.711 134.637C119.648 131.01 119.32 127.208 119.746 123.452C119.746 121.38 120.2 119.279 120.541 117.207L87.6392 92.708C92.011 108.918 97.2344 138.526 86.5889 150.194Z" fill="#FFB7AD"/>
<path d="M141.208 58.1593C141.208 58.1593 147.368 78.9394 126.077 93.8714C126.077 93.8714 117.135 113.062 112.138 115.418C107.142 117.774 95.8721 116.355 92.0397 115.418C88.2073 114.481 68.5912 98.158 74.2688 59.8342C79.9464 21.5104 112.138 33.6321 112.138 33.6321C112.138 33.6321 123.125 24.0937 143.592 35.9315C160.625 45.8105 157.304 64.3195 141.208 58.1593Z" fill="#2A3144"/>
<path d="M123.238 83.9635C123.312 86.085 123.86 88.1631 124.842 90.0448C125.825 91.9264 127.217 93.5637 128.916 94.8361C133.032 97.4762 136.978 91.7134 137.432 85.0707C137.802 79.1659 136.183 70.5076 131.244 70.8767C126.304 71.2457 122.642 77.8317 123.238 83.9635Z" fill="#FFB7AD"/>
<path d="M86.5889 143.096L89.8819 130.322C89.8819 130.322 122.443 125.978 137.403 140.4L133.543 155.53L86.5889 143.096Z" fill="#583AFB"/>
<path d="M86.5889 143.096L89.8819 130.322C89.8819 130.322 122.443 125.978 137.403 140.4L133.543 155.53L86.5889 143.096Z" fill="#E7E6F4"/>
<path d="M77.0791 151.698L86.5891 136.709C86.5891 136.709 127.297 126.688 146.573 150.903C165.848 175.118 77.0791 151.698 77.0791 151.698Z" fill="#376FFD"/>
<path d="M77.0791 151.698L86.5891 136.709C86.5891 136.709 127.297 126.688 146.573 150.903C165.848 175.118 77.0791 151.698 77.0791 151.698Z" fill="url(#paint14_linear_182_3859)"/>
<path d="M146.573 262.013L197.473 258.465C200.37 255.028 204.395 252.733 208.828 251.992C215.897 251.027 237.046 259.174 237.046 261.36C237.046 263.546 225.293 280.806 222.171 280.806C219.048 280.806 196.621 273.737 196.621 273.737L150.377 284.326L146.573 262.013Z" fill="#FFB7AD"/>
<path d="M47.0732 158C53.6318 182.091 58.3764 206.64 61.2672 231.44C62.204 239.048 62.9705 246.514 63.5951 253.753C64.4183 262.951 64.9861 271.808 65.4403 280.211C66.008 290.856 66.1784 303.432 66.15 315.809C66.15 344.197 56.5265 401.938 56.5265 401.938C79.2369 407.616 152.336 407.361 197.728 397.851C202.384 361.429 194.208 298.862 192.448 267.521C191.24 244.752 188.729 222.071 184.925 199.589C183.007 187.583 180.324 175.711 176.892 164.047C175.575 159.915 173.103 156.246 169.768 153.474C166.433 150.702 162.374 148.943 158.07 148.405C153.727 147.866 148.702 147.326 143.422 147.014C141.378 147.014 139.334 146.815 137.262 146.787C120.317 146.981 103.398 148.156 86.5893 150.307C83.4383 150.676 80.202 151.159 77.0794 151.67C66.973 153.251 56.957 155.364 47.0732 158Z" fill="url(#paint15_linear_182_3859)"/>
<path d="M165.82 150.875C192.675 153.032 245.477 240.837 235.541 259.913C225.605 278.99 208.941 287.875 180.213 233.938C151.484 180.001 165.82 150.875 165.82 150.875Z" fill="#376FFD"/>
<path d="M165.82 150.875C192.675 153.032 245.477 240.837 235.541 259.913C225.605 278.99 208.941 287.875 180.213 233.938C151.484 180.001 165.82 150.875 165.82 150.875Z" fill="url(#paint16_linear_182_3859)"/>
<path opacity="0.2" d="M97.6888 150.875C96.4711 153.694 95.5206 156.622 94.85 159.619C94.0733 163.044 93.5045 166.514 93.1467 170.008C92.6789 174.526 92.4609 179.065 92.4938 183.606C92.5505 188.978 92.9107 194.343 93.5725 199.674C93.8564 202.513 94.4526 205.352 94.8784 208.389C95.3042 211.427 96.0423 214.351 96.6384 217.416C97.2346 220.482 97.8591 223.633 98.3985 226.841C98.9379 230.049 99.3637 233.314 99.8463 236.578C100.329 239.843 100.67 243.164 101.067 246.486C101.464 249.807 101.777 253.157 102.117 256.507C103.281 269.877 104.076 283.248 104.701 295.796C105.325 308.343 105.467 320.096 105.694 330.145C105.921 340.195 105.694 348.569 105.694 354.417C105.694 360.265 105.694 363.643 105.694 363.643C105.694 363.643 105.07 350.272 104.161 330.202C103.707 320.153 102.997 308.457 102.288 295.938C101.578 283.419 100.613 270.076 99.4488 256.762C99.1366 253.441 98.8243 250.091 98.5404 246.798C98.2566 243.505 97.774 240.184 97.4049 236.919L96.0423 227.295C95.5597 224.116 94.9351 220.965 94.3958 217.871C93.8564 214.776 93.2035 211.739 92.7493 208.758C92.2951 205.777 91.8976 202.797 91.6989 199.901C91.1776 194.477 90.969 189.026 91.0744 183.578C91.16 178.986 91.5584 174.405 92.2667 169.867C92.7912 166.359 93.5403 162.888 94.5093 159.477C95.2698 156.507 96.3353 153.625 97.6888 150.875Z" fill="#233258"/>
</g>
<path d="M369.813 90.2109L367.047 105.988C366.944 106.603 366.33 107.115 365.715 107.115H349.938C349.323 107.115 348.913 106.603 349.016 105.988L351.782 90.2109C351.884 89.5962 352.499 89.084 353.114 89.084H368.891C369.505 89.084 369.915 89.5962 369.813 90.2109Z" fill="#00C7FF"/>
<path d="M361.719 101.583C361.104 102.095 360.285 102.403 359.312 102.505L359.158 103.325C359.107 103.683 358.748 103.991 358.39 103.991C358.031 103.991 357.775 103.683 357.877 103.325L358.031 102.556C357.416 102.505 356.802 102.403 356.289 102.198C356.084 102.095 355.88 102.044 355.675 101.942C355.265 101.737 355.162 101.225 355.47 100.815C355.726 100.405 356.289 100.149 356.699 100.354C356.802 100.405 356.955 100.456 357.109 100.507C357.519 100.661 357.98 100.764 358.39 100.815L358.748 98.6634C358.185 98.5097 357.672 98.356 357.263 98.1511C356.853 97.9462 356.545 97.6901 356.341 97.3315C356.136 96.9729 356.033 96.5119 356.136 95.9485C356.238 95.2313 356.648 94.6166 357.263 94.1044C357.877 93.5921 358.697 93.2848 359.67 93.1823L359.824 92.414C359.875 92.0554 360.234 91.748 360.592 91.748C360.951 91.748 361.207 92.0554 361.104 92.414L360.951 93.1823C361.668 93.2336 362.231 93.3872 362.744 93.5921C363.153 93.7458 363.256 94.258 363 94.7191C362.744 95.1801 362.18 95.385 361.77 95.1801C361.412 95.0264 361.002 94.924 360.643 94.8727L360.234 97.0754C360.797 97.2291 361.309 97.3827 361.668 97.5364C362.078 97.6901 362.385 97.9974 362.59 98.3048C362.795 98.6634 362.897 99.1244 362.795 99.6878C362.692 100.507 362.334 101.122 361.719 101.583ZM358.338 96.4607C358.492 96.6144 358.697 96.7168 359.004 96.8193L359.312 94.9752C358.953 95.0776 358.697 95.1801 358.543 95.3338C358.338 95.4874 358.236 95.6923 358.185 95.9485C358.185 96.1534 358.236 96.3582 358.338 96.4607ZM360.336 100.507C360.541 100.354 360.643 100.149 360.643 99.944C360.695 99.7391 360.643 99.5342 360.49 99.4317C360.336 99.278 360.131 99.1756 359.875 99.0732L359.568 100.866C359.926 100.764 360.182 100.661 360.336 100.507Z" fill="#F7F8FA"/>
<defs>
<filter id="filter0_dd_182_3859" x="245" y="130" width="155.155" height="68.9141" filterUnits="userSpaceOnUse" color-interpolation-filters="sRGB">
<feFlood flood-opacity="0" result="BackgroundImageFix"/>
<feColorMatrix in="SourceAlpha" type="matrix" values="0 0 0 0 0 0 0 0 0 0 0 0 0 0 0 0 0 0 127 0" result="hardAlpha"/>
<feOffset dx="13" dy="12"/>
<feColorMatrix type="matrix" values="0 0 0 0 0.866667 0 0 0 0 0.87451 0 0 0 0 0.921569 0 0 0 0.29 0"/>
<feBlend mode="normal" in2="BackgroundImageFix" result="effect1_dropShadow_182_3859"/>
<feColorMatrix in="SourceAlpha" type="matrix" values="0 0 0 0 0 0 0 0 0 0 0 0 0 0 0 0 0 0 127 0" result="hardAlpha"/>
<feOffset dx="1" dy="1"/>
<feComposite in2="hardAlpha" operator="out"/>
<feColorMatrix type="matrix" values="0 0 0 0 0.905882 0 0 0 0 0.901961 0 0 0 0 0.956863 0 0 0 1 0"/>
<feBlend mode="normal" in2="effect1_dropShadow_182_3859" result="effect2_dropShadow_182_3859"/>
<feBlend mode="normal" in="SourceGraphic" in2="effect2_dropShadow_182_3859" result="shape"/>
</filter>
<filter id="filter1_dd_182_3859" x="159.73" y="23.9492" width="82.3105" height="58.2051" filterUnits="userSpaceOnUse" color-interpolation-filters="sRGB">
<feFlood flood-opacity="0" result="BackgroundImageFix"/>
<feColorMatrix in="SourceAlpha" type="matrix" values="0 0 0 0 0 0 0 0 0 0 0 0 0 0 0 0 0 0 127 0" result="hardAlpha"/>
<feOffset dx="5" dy="4"/>
<feColorMatrix type="matrix" values="0 0 0 0 0.866667 0 0 0 0 0.87451 0 0 0 0 0.921569 0 0 0 0.29 0"/>
<feBlend mode="normal" in2="BackgroundImageFix" result="effect1_dropShadow_182_3859"/>
<feColorMatrix in="SourceAlpha" type="matrix" values="0 0 0 0 0 0 0 0 0 0 0 0 0 0 0 0 0 0 127 0" result="hardAlpha"/>
<feOffset dx="1" dy="1"/>
<feComposite in2="hardAlpha" operator="out"/>
<feColorMatrix type="matrix" values="0 0 0 0 0.905882 0 0 0 0 0.901961 0 0 0 0 0.956863 0 0 0 1 0"/>
<feBlend mode="normal" in2="effect1_dropShadow_182_3859" result="effect2_dropShadow_182_3859"/>
<feBlend mode="normal" in="SourceGraphic" in2="effect2_dropShadow_182_3859" result="shape"/>
</filter>
<radialGradient id="paint0_radial_182_3859" cx="0" cy="0" r="1" gradientUnits="userSpaceOnUse" gradientTransform="translate(494.809 179.402) rotate(177.34) scale(542.026 908.258)">
<stop stop-color="#EEEBFD"/>
<stop offset="1" stop-color="#EEEBFD" stop-opacity="0"/>
</radialGradient>
<linearGradient id="paint1_linear_182_3859" x1="320.525" y1="54.4949" x2="286.359" y2="51.6922" gradientUnits="userSpaceOnUse">
<stop stop-color="#FBFBFC"/>
<stop offset="1" stop-color="#FBFBFC" stop-opacity="0"/>
</linearGradient>
<linearGradient id="paint2_linear_182_3859" x1="254.547" y1="79.6898" x2="337.437" y2="43.4486" gradientUnits="userSpaceOnUse">
<stop stop-color="#F7F8FA"/>
<stop offset="1" stop-color="#F2F0FE"/>
</linearGradient>
<linearGradient id="paint3_linear_182_3859" x1="35.3827" y1="214.707" x2="87.1333" y2="240.294" gradientUnits="userSpaceOnUse">
<stop stop-color="#FBFBFC"/>
<stop offset="1" stop-color="#FBFBFC" stop-opacity="0"/>
</linearGradient>
<linearGradient id="paint4_linear_182_3859" x1="-76.3159" y1="156.445" x2="82.1722" y2="224.786" gradientUnits="userSpaceOnUse">
<stop stop-color="#F7F8FA"/>
<stop offset="1" stop-color="#F2F0FE"/>
</linearGradient>
<linearGradient id="paint5_linear_182_3859" x1="350.812" y1="50.9079" x2="295.021" y2="241.422" gradientUnits="userSpaceOnUse">
<stop stop-color="#EEEBFD"/>
<stop offset="0.098607" stop-color="#EEEBFD" stop-opacity="0.540862"/>
<stop offset="0.701736" stop-color="#EEEBFD" stop-opacity="0"/>
</linearGradient>
<linearGradient id="paint6_linear_182_3859" x1="322.394" y1="288.712" x2="174.284" y2="26.0249" gradientUnits="userSpaceOnUse">
<stop stop-color="#F7F8FA"/>
<stop offset="1" stop-color="#FDFDFE"/>
</linearGradient>
<linearGradient id="paint7_linear_182_3859" x1="322.394" y1="288.712" x2="174.284" y2="26.0249" gradientUnits="userSpaceOnUse">
<stop stop-color="#F7F8FA"/>
<stop offset="1" stop-color="#FDFDFE"/>
</linearGradient>
<linearGradient id="paint8_linear_182_3859" x1="83.334" y1="134" x2="90.7703" y2="237.564" gradientUnits="userSpaceOnUse">
<stop stop-color="#EEEBFD"/>
<stop offset="1" stop-color="#EEEBFD" stop-opacity="0"/>
</linearGradient>
<linearGradient id="paint9_linear_182_3859" x1="260.739" y1="151.152" x2="284.617" y2="178.181" gradientUnits="userSpaceOnUse">
<stop stop-color="#EFECFD"/>
<stop offset="1" stop-color="#F8F9FB"/>
</linearGradient>
<linearGradient id="paint10_linear_182_3859" x1="194.342" y1="60.811" x2="215.42" y2="34.7369" gradientUnits="userSpaceOnUse">
<stop stop-color="#F3F2FD"/>
<stop offset="1" stop-color="#D6D8E5"/>
</linearGradient>
<radialGradient id="paint11_radial_182_3859" cx="0" cy="0" r="1" gradientUnits="userSpaceOnUse" gradientTransform="translate(491.786 241.724) rotate(177.34) scale(542.026 908.258)">
<stop stop-color="#EEEBFD"/>
<stop offset="1" stop-color="#EEEBFD" stop-opacity="0"/>
</radialGradient>
<linearGradient id="paint12_linear_182_3859" x1="190.223" y1="205.872" x2="236.557" y2="149.457" gradientUnits="userSpaceOnUse">
<stop stop-color="#583AFB"/>
<stop offset="1" stop-color="#376FFD"/>
</linearGradient>
<linearGradient id="paint13_linear_182_3859" x1="94.7718" y1="240.469" x2="92.9859" y2="150.997" gradientUnits="userSpaceOnUse">
<stop stop-color="#583AFB"/>
<stop offset="1" stop-color="#376FFD"/>
</linearGradient>
<linearGradient id="paint14_linear_182_3859" x1="106.019" y1="150.657" x2="105.879" y2="133.236" gradientUnits="userSpaceOnUse">
<stop stop-color="#583AFB"/>
<stop offset="1" stop-color="#376FFD"/>
</linearGradient>
<linearGradient id="paint15_linear_182_3859" x1="108" y1="299" x2="102" y2="133.5" gradientUnits="userSpaceOnUse">
<stop stop-color="#583AFB"/>
<stop offset="1" stop-color="#376FFD"/>
</linearGradient>
<linearGradient id="paint16_linear_182_3859" x1="192.102" y1="223.664" x2="189.302" y2="144.516" gradientUnits="userSpaceOnUse">
<stop stop-color="#583AFB"/>
<stop offset="1" stop-color="#376FFD"/>
</linearGradient>
</defs>
</svg>
