<svg width="202" height="153" viewBox="0 0 202 153" fill="none" xmlns="http://www.w3.org/2000/svg">
<rect x="108.223" y="46.8984" width="6.45045" height="12.0946" rx="3.22522" fill="#00C7FF"/>
<rect x="110.642" y="45.2852" width="1.61261" height="15.3198" fill="#00C7FF"/>
<rect x="121.124" y="46.8965" width="6.45045" height="12.0946" rx="3.22522" fill="#583AFB"/>
<rect x="123.543" y="42.0586" width="1.61261" height="23.3829" fill="#583AFB"/>
<rect x="134.024" y="44.5898" width="6.45045" height="8.3411" rx="3.22522" fill="#00C7FF"/>
<rect x="136.443" y="42.8652" width="1.61261" height="12.9009" fill="#00C7FF"/>
<rect x="146.119" y="51.041" width="6.45045" height="8.3411" rx="3.22522" fill="#583AFB"/>
<rect x="148.538" y="40.4473" width="1.61261" height="19.3513" fill="#583AFB"/>
<rect x="159.826" y="50.9277" width="6.45045" height="15.3198" rx="3.22522" fill="#583AFB"/>
<rect x="162.245" y="47.7031" width="1.61261" height="20.964" fill="#583AFB"/>
<rect x="43.9365" y="41.2305" width="6.45045" height="10.482" rx="3.22522" fill="#00C7FF"/>
<rect x="46.3555" y="36.3926" width="1.61261" height="23.3829" fill="#00C7FF"/>
<rect x="67.3193" y="55.7422" width="6.45045" height="15.3198" rx="3.22522" fill="#583AFB"/>
<rect x="69.7383" y="50.9043" width="1.61261" height="29.027" fill="#583AFB"/>
<rect x="92.3145" y="24.2969" width="6.45045" height="37.0901" rx="3.22522" fill="#583AFB"/>
<rect x="94.7334" y="21.0723" width="1.61261" height="41.1216" fill="#583AFB"/>
<rect x="81.0264" y="57.7598" width="6.45045" height="14.0432" rx="3.22522" fill="#583AFB"/>
<rect x="83.4453" y="58.1621" width="1.61261" height="18.545" fill="#583AFB"/>
<rect x="54.418" y="41.2305" width="6.45045" height="14.5135" rx="3.22522" fill="#00C7FF"/>
<rect x="56.8369" y="25.1035" width="1.61261" height="41.1216" fill="#00C7FF"/>
<rect x="171.115" y="49.0059" width="6.45045" height="25.3366" rx="3.22522" fill="#583AFB"/>
<rect x="173.534" y="43.6719" width="1.61261" height="34.6712" fill="#583AFB"/>
<rect x="5.2334" y="82.3496" width="6.45045" height="39.509" rx="3.22522" fill="#583AFB"/>
<rect x="7.65234" y="75.0938" width="1.61261" height="48.3784" fill="#583AFB"/>
<rect x="183.209" y="8.19531" width="6.45045" height="39.509" rx="3.22522" fill="#583AFB"/>
<rect x="185.628" y="0.9375" width="1.61261" height="48.3784" fill="#583AFB"/>
<rect x="30.2295" y="43.4453" width="6.45045" height="42.8014" rx="3.22522" fill="#583AFB"/>
<rect x="32.6484" y="41.2285" width="1.61261" height="46.7658" fill="#583AFB"/>
<rect x="17.3281" y="82.3516" width="6.45045" height="7.25675" rx="3.22522" fill="#583AFB"/>
<rect x="19.7471" y="79.9316" width="1.61261" height="12.0946" fill="#583AFB"/>
<rect x="195.304" y="8.19531" width="6.45045" height="7.25675" rx="3.22522" fill="#583AFB"/>
<rect x="197.723" y="5.77539" width="1.61261" height="12.0946" fill="#583AFB"/>
</svg>
