<svg width="166" height="124" viewBox="0 0 166 124" fill="none" xmlns="http://www.w3.org/2000/svg">
<path d="M144.891 88.0022H87.3995C86.9053 88.0013 86.4316 87.8046 86.0821 87.4552C85.7327 87.1057 85.536 86.632 85.5352 86.1378V2.37677C85.5368 1.88313 85.7339 1.41023 86.0832 1.06147C86.4326 0.712715 86.9058 0.516463 87.3995 0.515625H144.891C145.385 0.516463 145.858 0.712715 146.208 1.06147C146.557 1.41023 146.754 1.88313 146.756 2.37677V86.1378C146.755 86.632 146.558 87.1057 146.209 87.4552C145.859 87.8046 145.386 88.0013 144.891 88.0022ZM87.3995 0.595161C87.1643 0.593484 86.9311 0.638304 86.7133 0.727048C86.4955 0.815792 86.2974 0.946709 86.1303 1.11227C85.9633 1.27784 85.8306 1.47478 85.7399 1.69179C85.6493 1.90879 85.6024 2.14158 85.602 2.37677V86.1378C85.602 86.6112 85.79 87.0652 86.1247 87.3999C86.4594 87.7346 86.9134 87.9226 87.3867 87.9226H144.891C145.365 87.9226 145.819 87.7346 146.153 87.3999C146.488 87.0652 146.676 86.6112 146.676 86.1378V2.37677C146.676 1.90341 146.488 1.44945 146.153 1.11473C145.819 0.78002 145.365 0.591979 144.891 0.591979L87.3995 0.595161Z" fill="#F0F0F0"/>
<path d="M78.5799 88.0024H21.0753C20.5811 88.0016 20.1074 87.8049 19.7579 87.4554C19.4085 87.106 19.2118 86.6323 19.2109 86.1381V2.37702C19.2118 1.88283 19.4085 1.40912 19.7579 1.05967C20.1074 0.710227 20.5811 0.513536 21.0753 0.512695H78.5799C79.0741 0.513536 79.5478 0.710227 79.8972 1.05967C80.2467 1.40912 80.4433 1.88283 80.4442 2.37702V86.1381C80.4433 86.6323 80.2467 87.106 79.8972 87.4554C79.5478 87.8049 79.0741 88.0016 78.5799 88.0024ZM21.0753 0.595414C20.6025 0.595413 20.149 0.783016 19.8144 1.11704C19.4797 1.45107 19.2913 1.90422 19.2905 2.37702V86.1381C19.2905 86.6114 19.4785 87.0654 19.8132 87.4001C20.1479 87.7348 20.6019 87.9229 21.0753 87.9229H78.5799C79.0532 87.9229 79.5072 87.7348 79.8419 87.4001C80.1766 87.0654 80.3647 86.6114 80.3647 86.1381V2.37702C80.3647 1.90367 80.1766 1.4497 79.8419 1.11499C79.5072 0.780273 79.0532 0.592231 78.5799 0.592231L21.0753 0.595414Z" fill="#F0F0F0"/>
<path d="M162.732 107.432H3.66016V107.511H162.732V107.432Z" fill="#E0E0E0"/>
<path d="M61.0649 8.59668L71.1087 8.59668C71.3723 8.59668 71.5859 8.38302 71.5859 8.11946V5.85109C71.5859 5.58753 71.3723 5.37387 71.1087 5.37387L61.0649 5.37387C60.8013 5.37387 60.5877 5.58753 60.5877 5.85109V8.11946C60.5877 8.38302 60.8013 8.59668 61.0649 8.59668Z" fill="#F0F0F0"/>
<path d="M55.061 12.7041L65.1048 12.7041C65.3684 12.7041 65.582 12.4904 65.582 12.2269V9.95851C65.582 9.69495 65.3684 9.4813 65.1048 9.4813L55.061 9.4813C54.7974 9.4813 54.5838 9.69495 54.5838 9.95851V12.2269C54.5838 12.4904 54.7974 12.7041 55.061 12.7041Z" fill="#F0F0F0"/>
<path d="M34.4156 65.0928H24.3717C24.1082 65.0928 23.8945 65.3064 23.8945 65.57V67.8384C23.8945 68.1019 24.1082 68.3156 24.3717 68.3156H34.4156C34.6791 68.3156 34.8928 68.1019 34.8928 67.8384V65.57C34.8928 65.3064 34.6791 65.0928 34.4156 65.0928Z" fill="#F0F0F0"/>
<path d="M40.4156 69.2002H30.3717C30.1082 69.2002 29.8945 69.4139 29.8945 69.6774V71.9458C29.8945 72.2093 30.1082 72.423 30.3717 72.423H40.4156C40.6791 72.423 40.8928 72.2093 40.8928 71.9458V69.6774C40.8928 69.4139 40.6791 69.2002 40.4156 69.2002Z" fill="#F0F0F0"/>
<path d="M102.834 4.93164H92.7897C92.5262 4.93164 92.3125 5.1453 92.3125 5.40886V7.67723C92.3125 7.94079 92.5262 8.15445 92.7897 8.15445H102.834C103.097 8.15445 103.311 7.94079 103.311 7.67723V5.40886C103.311 5.1453 103.097 4.93164 102.834 4.93164Z" fill="#F0F0F0"/>
<path d="M114.834 4.93164H104.79C104.526 4.93164 104.312 5.1453 104.312 5.40886V7.67723C104.312 7.94079 104.526 8.15445 104.79 8.15445H114.834C115.097 8.15445 115.311 7.94079 115.311 7.67723V5.40886C115.311 5.1453 115.097 4.93164 114.834 4.93164Z" fill="#F0F0F0"/>
<path d="M108.834 9.03906H98.7897C98.5262 9.03906 98.3125 9.25272 98.3125 9.51628V11.7846C98.3125 12.0482 98.5262 12.2619 98.7897 12.2619H108.834C109.097 12.2619 109.311 12.0482 109.311 11.7846V9.51628C109.311 9.25272 109.097 9.03906 108.834 9.03906Z" fill="#F0F0F0"/>
<path d="M143.063 6.0293H120.691V60.3843H143.063V6.0293Z" fill="#F0F0F0"/>
<path d="M141.701 7.39453H122.059V59.0198H141.701V7.39453Z" fill="#FAFAFA"/>
<path d="M141.701 9.60547V13.5027L122.059 33.1482V29.2477L141.701 9.60547Z" fill="white"/>
<path d="M141.701 23.085V28.5825L122.059 48.2247V42.724L141.701 23.085Z" fill="white"/>
<path d="M132.555 6.0293H131.203V60.3843H132.555V6.0293Z" fill="#F0F0F0"/>
<path d="M143.063 32.5117H120.691V33.8988H143.063V32.5117Z" fill="#F0F0F0"/>
<path d="M46.2664 6.0293H23.8945V60.3843H46.2664V6.0293Z" fill="#F0F0F0"/>
<path d="M44.9 7.39453H25.2578V59.0198H44.9V7.39453Z" fill="#FAFAFA"/>
<path d="M44.9 9.60547V13.5027L25.2578 33.1482V29.2477L44.9 9.60547Z" fill="white"/>
<path d="M44.9 23.085V28.5825L25.2578 48.2247V42.724L44.9 23.085Z" fill="white"/>
<path d="M35.7545 6.0293H34.4023V60.3843H35.7545V6.0293Z" fill="#F0F0F0"/>
<path d="M46.2664 32.5117H23.8945V33.8988H46.2664V32.5117Z" fill="#F0F0F0"/>
<path d="M146.908 85.8167L145.12 91.7756L144.882 92.5741L143.946 95.6792C143.82 96.0992 143.562 96.4673 143.21 96.7291C142.858 96.991 142.431 97.1326 141.993 97.1331H91.6846C91.2463 97.1329 90.8198 96.9914 90.4685 96.7294C90.1171 96.4675 89.8597 96.0992 89.7344 95.6792L88.799 92.5741L88.5572 91.7756L86.7629 85.8167C86.729 85.7063 86.7216 85.5895 86.7411 85.4757C86.7606 85.3619 86.8066 85.2542 86.8753 85.1614C86.9439 85.0685 87.0335 84.9931 87.1366 84.9412C87.2398 84.8892 87.3537 84.8622 87.4692 84.8623H146.202C146.317 84.8622 146.431 84.8892 146.534 84.9412C146.637 84.9931 146.727 85.0685 146.796 85.1614C146.864 85.2542 146.91 85.3619 146.93 85.4757C146.949 85.5895 146.942 85.7063 146.908 85.8167Z" fill="#F0F0F0"/>
<path d="M145.121 91.7598L144.883 92.5583H88.8004L88.5586 91.7598H145.121Z" fill="#E0E0E0"/>
<path d="M138.73 100.709H94.1992V101.724H138.73V100.709Z" fill="#E0E0E0"/>
<path d="M96.3478 97.1172L90.1758 107.431H92.8641L100.528 97.1172H96.3478Z" fill="#E0E0E0"/>
<path d="M136.77 97.1172L142.939 107.431H140.254L132.59 97.1172H136.77Z" fill="#E0E0E0"/>
<path d="M135.561 78.8846V72.0954C135.561 72.0749 135.557 72.0546 135.549 72.0357C135.541 72.0168 135.53 71.9996 135.515 71.9851C135.501 71.9706 135.484 71.9592 135.465 71.9513C135.446 71.9435 135.426 71.9395 135.405 71.9395C135.364 71.9394 135.324 71.9558 135.294 71.9849C135.264 72.0141 135.247 72.0537 135.246 72.0954V78.8846H135.561Z" fill="#E0E0E0"/>
<path d="M131.209 79.6197L131.362 80.1764L131.393 80.2973L132.625 84.8691H138.186L139.417 80.2973L139.449 80.1764L139.598 79.6197L139.633 79.502L139.799 78.8848H131.012L131.177 79.502L131.209 79.6197Z" fill="#E0E0E0"/>
<path d="M134.842 74.3443C134.93 74.3656 135.023 74.3601 135.108 74.3283C135.193 74.2966 135.266 74.2401 135.319 74.1662C135.355 74.1151 135.38 74.058 135.395 73.9976C135.399 73.9648 135.399 73.9317 135.395 73.8989C135.395 73.7933 135.358 73.6911 135.29 73.6094C134.689 72.8809 131.641 69.3558 130.2 70.8289C128.495 72.6105 133.175 73.9371 134.842 74.3443Z" fill="#F0F0F0"/>
<path d="M132.145 72.2893L135.327 74.1663C135.362 74.1152 135.388 74.0581 135.403 73.9977L132.247 72.1302C132.226 72.1184 132.202 72.1151 132.179 72.1211C132.155 72.127 132.136 72.1417 132.123 72.162C132.116 72.1717 132.111 72.1828 132.108 72.1945C132.105 72.2063 132.105 72.2185 132.107 72.2304C132.109 72.2423 132.113 72.2537 132.12 72.2638C132.127 72.2739 132.135 72.2826 132.145 72.2893Z" fill="#E0E0E0"/>
<path d="M135.405 75.6454C135.402 75.6771 135.402 75.7091 135.405 75.7408C135.418 75.8019 135.444 75.8595 135.481 75.9095C135.534 75.9834 135.607 76.0398 135.692 76.0716C135.777 76.1033 135.87 76.1089 135.958 76.0876C137.622 75.6804 142.305 74.3537 140.578 72.588C139.149 71.1118 136.101 74.6369 135.487 75.3654C135.429 75.4468 135.4 75.5454 135.405 75.6454Z" fill="#F0F0F0"/>
<path d="M135.414 75.741C135.427 75.8021 135.453 75.8597 135.49 75.9097L138.672 74.0326C138.682 74.0267 138.691 74.0187 138.699 74.0092C138.706 73.9998 138.711 73.9889 138.714 73.9773C138.717 73.9657 138.718 73.9537 138.716 73.9419C138.714 73.9301 138.71 73.9187 138.704 73.9085C138.692 73.8877 138.672 73.8723 138.649 73.8658C138.626 73.8592 138.601 73.862 138.58 73.8735L135.414 75.741Z" fill="#E0E0E0"/>
<path d="M135.058 72.0696C135.07 72.1749 135.118 72.2726 135.194 72.3464C135.218 72.3685 135.244 72.3887 135.271 72.4069C135.324 72.4391 135.384 72.4597 135.446 72.4673C135.536 72.4806 135.628 72.4664 135.709 72.4267C135.791 72.387 135.859 72.3235 135.904 72.2446C136.76 70.7589 139.028 66.4544 136.54 66.4766C134.485 66.4926 134.943 71.1311 135.058 72.0696Z" fill="#F0F0F0"/>
<path d="M135.27 72.4068C135.323 72.4391 135.383 72.4597 135.445 72.4672L136.275 68.869C136.28 68.845 136.275 68.8201 136.262 68.7994C136.249 68.7786 136.229 68.7637 136.205 68.7577C136.181 68.7529 136.157 68.7576 136.137 68.7707C136.116 68.7837 136.102 68.8042 136.097 68.8277L135.27 72.4068Z" fill="#E0E0E0"/>
<path d="M134.84 78.0951C134.928 78.1177 135.021 78.1128 135.106 78.081C135.192 78.0491 135.265 77.9918 135.317 77.9169C135.375 77.8412 135.405 77.7481 135.403 77.6529C135.403 77.5471 135.366 77.4447 135.298 77.3633C134.697 76.6348 131.649 73.1098 130.208 74.5828C128.493 76.3548 133.173 77.6815 134.84 78.0951Z" fill="#F0F0F0"/>
<path d="M132.147 76.0341L135.329 77.908C135.364 77.858 135.39 77.802 135.405 77.7425L132.24 75.8687C132.23 75.8624 132.218 75.8583 132.206 75.8565C132.195 75.8547 132.183 75.8553 132.171 75.8583C132.159 75.8612 132.148 75.8665 132.139 75.8738C132.129 75.881 132.122 75.8901 132.116 75.9005C132.108 75.911 132.102 75.923 132.1 75.9359C132.097 75.9487 132.097 75.962 132.1 75.9748C132.103 75.9876 132.109 75.9995 132.117 76.0097C132.125 76.02 132.136 76.0283 132.147 76.0341Z" fill="#E0E0E0"/>
<path d="M152.453 121.362C152.453 122.476 121.723 123.38 83.8162 123.38C45.9093 123.38 15.1797 122.482 15.1797 121.362C15.1797 120.243 45.9093 119.349 83.8162 119.349C121.723 119.349 152.453 120.255 152.453 121.362Z" fill="#F5F5F5"/>
<path d="M102.045 46.7734H56.9739C49.5907 46.7734 43.6055 52.758 43.6055 60.1403C43.6055 67.5226 49.5907 73.5071 56.9739 73.5071H102.045C109.429 73.5071 115.414 67.5226 115.414 60.1403C115.414 52.758 109.429 46.7734 102.045 46.7734Z" fill="#00C7FF"/>
<path opacity="0.7" d="M102.045 46.7734H56.9739C49.5907 46.7734 43.6055 52.758 43.6055 60.1403C43.6055 67.5226 49.5907 73.5071 56.9739 73.5071H102.045C109.429 73.5071 115.414 67.5226 115.414 60.1403C115.414 52.758 109.429 46.7734 102.045 46.7734Z" fill="white"/>
<path opacity="0.3" d="M56.9701 72.5526C53.6794 72.5526 50.5235 71.2453 48.1966 68.9185C45.8697 66.5916 44.5625 63.4356 44.5625 60.1449C44.5625 56.8542 45.8697 53.6983 48.1966 51.3714C50.5235 49.0445 53.6794 47.7373 56.9701 47.7373H102.032C103.662 47.7373 105.275 48.0582 106.78 48.6818C108.286 49.3053 109.653 50.2193 110.806 51.3714C111.958 52.5236 112.872 53.8914 113.495 55.3967C114.119 56.9021 114.44 58.5155 114.44 60.1449C114.44 61.7743 114.119 63.3878 113.495 64.8931C112.872 66.3985 111.958 67.7663 110.806 68.9185C109.653 70.0706 108.286 70.9846 106.78 71.6081C105.275 72.2316 103.662 72.5526 102.032 72.5526H56.9701Z" fill="white"/>
<path d="M102.032 72.1547C108.668 72.1547 114.048 66.7748 114.048 60.1384C114.048 53.502 108.668 48.1221 102.032 48.1221C95.3955 48.1221 90.0156 53.502 90.0156 60.1384C90.0156 66.7748 95.3955 72.1547 102.032 72.1547Z" fill="#00C7FF"/>
<path d="M107.351 63.5905C107.474 63.7129 107.571 63.8582 107.637 64.0181C107.703 64.1781 107.737 64.3495 107.737 64.5226C107.737 64.6957 107.703 64.8672 107.637 65.0271C107.571 65.187 107.474 65.3324 107.351 65.4548C107.229 65.5772 107.084 65.6743 106.924 65.7405C106.764 65.8068 106.592 65.8409 106.419 65.8409C106.246 65.8409 106.075 65.8068 105.915 65.7405C105.755 65.6743 105.609 65.5772 105.487 65.4548L102.035 62.0029L98.5864 65.4548C98.464 65.5772 98.3186 65.6743 98.1587 65.7405C97.9988 65.8068 97.8273 65.8409 97.6542 65.8409C97.4811 65.8409 97.3097 65.8068 97.1497 65.7405C96.9898 65.6743 96.8445 65.5772 96.722 65.4548C96.5996 65.3324 96.5025 65.187 96.4363 65.0271C96.37 64.8672 96.3359 64.6957 96.3359 64.5226C96.3359 64.3495 96.37 64.1781 96.4363 64.0181C96.5025 63.8582 96.5996 63.7129 96.722 63.5905L100.171 60.1418L96.722 56.6899C96.4748 56.4427 96.3359 56.1074 96.3359 55.7577C96.3359 55.4081 96.4748 55.0728 96.722 54.8256C96.9693 54.5783 97.3046 54.4395 97.6542 54.4395C98.0038 54.4395 98.3392 54.5783 98.5864 54.8256L102.035 58.2774L105.487 54.8256C105.734 54.5783 106.069 54.4395 106.419 54.4395C106.769 54.4395 107.104 54.5783 107.351 54.8256C107.598 55.0728 107.737 55.4081 107.737 55.7577C107.737 56.1074 107.598 56.4427 107.351 56.6899L103.903 60.1418L107.351 63.5905Z" fill="white"/>
<path d="M102.045 16.9736H56.9739C49.5907 16.9736 43.6055 22.9582 43.6055 30.3405C43.6055 37.7228 49.5907 43.7073 56.9739 43.7073H102.045C109.429 43.7073 115.414 37.7228 115.414 30.3405C115.414 22.9582 109.429 16.9736 102.045 16.9736Z" fill="#583AFB"/>
<path opacity="0.2" d="M56.9701 42.7528C53.6794 42.7528 50.5235 41.4455 48.1966 39.1187C45.8697 36.7918 44.5625 33.6358 44.5625 30.3451C44.5625 27.0544 45.8697 23.8985 48.1966 21.5716C50.5235 19.2447 53.6794 17.9375 56.9701 17.9375H102.032C105.323 17.9375 108.479 19.2447 110.806 21.5716C113.133 23.8985 114.44 27.0544 114.44 30.3451C114.44 33.6358 113.133 36.7918 110.806 39.1187C108.479 41.4455 105.323 42.7528 102.032 42.7528H56.9701Z" fill="black"/>
<path d="M69.9968 42.3588C76.6332 42.3588 82.0131 36.9789 82.0131 30.3425C82.0131 23.7061 76.6332 18.3262 69.9968 18.3262C63.3604 18.3262 57.9805 23.7061 57.9805 30.3425C57.9805 36.9789 63.3604 42.3588 69.9968 42.3588Z" fill="#583AFB"/>
<path opacity="0.7" d="M69.9968 42.3588C76.6332 42.3588 82.0131 36.9789 82.0131 30.3425C82.0131 23.7061 76.6332 18.3262 69.9968 18.3262C63.3604 18.3262 57.9805 23.7061 57.9805 30.3425C57.9805 36.9789 63.3604 42.3588 69.9968 42.3588Z" fill="#00C7FF"/>
<path d="M67.8992 34.5418C67.6088 34.5413 67.3301 34.4271 67.1229 34.2236L64.1451 31.2458C64.0434 31.1441 63.9627 31.0233 63.9076 30.8904C63.8526 30.7574 63.8242 30.615 63.8242 30.4711C63.8242 30.3272 63.8526 30.1848 63.9076 30.0518C63.9627 29.9189 64.0434 29.7982 64.1451 29.6964C64.2468 29.5947 64.3676 29.514 64.5005 29.4589C64.6335 29.4039 64.7759 29.3755 64.9198 29.3755C65.0637 29.3755 65.2061 29.4039 65.339 29.4589C65.472 29.514 65.5927 29.5947 65.6945 29.6964L67.8992 31.9012L74.3066 25.4937C74.5121 25.2883 74.7908 25.1729 75.0813 25.1729C75.3719 25.1729 75.6505 25.2883 75.856 25.4937C76.0615 25.6992 76.1769 25.9779 76.1769 26.2684C76.1769 26.559 76.0615 26.8376 75.856 27.0431L68.6723 34.2236C68.4667 34.4275 68.1888 34.5418 67.8992 34.5418Z" fill="white"/>
<path d="M51.3902 119.543H46.9648V121.528H51.3902V119.543Z" fill="#263238"/>
<path d="M57.8139 108.784L57.1776 110.451L57.0535 110.788L56.9867 110.973L56.8817 111.256L56.4904 112.325L56.4649 112.395L56.4013 112.576L56.1977 113.13L55.9686 113.766L55.8923 113.979V114.002L55.7809 114.298L55.2464 115.761L55.1319 116.079L54.0566 119.025L53.9739 119.248L53.7607 119.83C53.6838 120.037 53.5531 120.219 53.3821 120.358C53.3155 120.41 53.2441 120.456 53.169 120.495C53.0231 120.572 52.8625 120.616 52.6981 120.626H45.6798C45.5723 120.625 45.4653 120.61 45.3617 120.581C45.2772 120.554 45.1953 120.52 45.1167 120.479C44.856 120.343 44.6536 120.117 44.5472 119.843L43.6755 117.457L43.5674 117.161L42.9533 115.475L42.8833 115.29L42.8515 115.201L42.7465 114.908L42.1421 113.251L42.1007 113.149L42.0689 113.066L41.808 112.344L41.6903 112.026L41.5917 111.762L41.5026 111.52L41.4358 111.333L41.4167 111.282L41.1304 110.496V110.477L41.0572 110.283L40.5195 108.81L57.8139 108.784Z" fill="#263238"/>
<path opacity="0.2" d="M57.1891 110.451L57.065 110.788L56.9982 110.973L56.8964 111.256H41.406L41.1196 110.47L41.1133 110.451H57.1891Z" fill="white"/>
<path opacity="0.2" d="M56.5015 112.325L56.4761 112.395L56.4124 112.577L56.2088 113.13H42.0896L42.0578 113.047L41.7969 112.325H56.5015Z" fill="white"/>
<path d="M43.7227 101.514C43.7227 101.514 46.1596 100.626 46.7896 103.206C47.4195 105.787 49.2266 105.115 49.567 104.555C50.2414 103.439 50.3337 99.411 49.1757 99.166C47.7917 98.8765 44.2094 100.34 43.7227 101.514Z" fill="#583AFB"/>
<g opacity="0.5">
<path d="M43.7227 101.514C43.7227 101.514 46.1596 100.626 46.7896 103.206C47.4195 105.787 49.2266 105.115 49.567 104.555C50.2414 103.439 50.3337 99.411 49.1757 99.166C47.7917 98.8765 44.2094 100.34 43.7227 101.514Z" fill="black"/>
</g>
<path d="M45.1726 98.3267C45.1726 98.3267 42.7102 97.5346 41.7939 100.112C40.8777 102.689 41.7939 109.02 41.7939 109.02C41.7939 109.02 43.916 108.355 44.6032 106.179C45.2903 104.002 45.2204 99.2112 49.1749 99.1539L45.1726 98.3267Z" fill="#583AFB"/>
<path opacity="0.2" d="M45.6737 98.4796C43.5358 99.7267 43.189 102.367 42.9727 104.604C42.9727 104.718 43.1445 104.718 43.154 104.604C43.364 102.437 43.6853 99.8476 45.766 98.6387C45.785 98.6254 45.7983 98.6056 45.8033 98.583C45.8083 98.5604 45.8047 98.5367 45.793 98.5167C45.7814 98.4966 45.7627 98.4817 45.7406 98.4749C45.7185 98.468 45.6946 98.4697 45.6737 98.4796Z" fill="black"/>
<path d="M53.7428 84.6174C53.7428 84.6174 51.344 83.6311 50.6091 86.1858C49.8742 88.7405 48.1466 88.5305 47.838 87.4584C47.4785 86.2081 47.2208 82.244 48.3884 82.0499C49.7819 81.8177 53.3038 83.4243 53.7428 84.6174Z" fill="#583AFB"/>
<g opacity="0.5">
<path d="M53.7428 84.6174C53.7428 84.6174 51.344 83.6311 50.6091 86.1858C49.8742 88.7405 48.1466 88.5305 47.838 87.4584C47.4785 86.2081 47.2208 82.244 48.3884 82.0499C49.7819 81.8177 53.3038 83.4243 53.7428 84.6174Z" fill="black"/>
</g>
<path d="M52.4215 81.3758C52.4215 81.3758 54.9158 80.6823 55.727 83.2847C56.5383 85.8871 55.3644 92.1927 55.3644 92.1927C54.7235 91.9332 54.149 91.5333 53.6832 91.0223C53.2174 90.5114 52.8721 89.9024 52.6728 89.2404C52.0747 87.0356 52.3388 82.2412 48.3906 82.0376L52.4215 81.3758Z" fill="#583AFB"/>
<g opacity="0.2">
<path d="M51.7113 81.6205C53.986 83.3894 54.3614 86.4118 54.6414 89.081C54.6414 89.1955 54.8355 89.1987 54.8227 89.081C54.5396 86.3672 54.1515 83.2908 51.8385 81.4901C51.7495 81.4201 51.619 81.5473 51.7113 81.6205Z" fill="black"/>
</g>
<path d="M56.2921 96.4591C56.2921 96.4591 54.7968 96.0074 53.2252 98.1485C51.714 100.213 51.1095 100.455 50.0851 99.6533C49.0607 98.8516 49.6811 94.353 50.8391 94.1112C52.223 93.8185 55.8053 95.2757 56.2921 96.4591Z" fill="#583AFB"/>
<g opacity="0.5">
<path d="M56.2921 96.4591C56.2921 96.4591 54.7968 96.0074 53.2252 98.1485C51.714 100.213 51.1095 100.455 50.0851 99.6533C49.0607 98.8516 49.6811 94.353 50.8391 94.1112C52.223 93.8185 55.8053 95.2757 56.2921 96.4591Z" fill="black"/>
</g>
<path d="M56.2867 92.896C56.2867 92.896 59.7863 91.7634 61.1098 95.4411C62.4333 99.1189 61.1098 108.167 61.1098 108.167C61.1098 108.167 58.0811 107.212 57.1012 104.107C56.1213 101.002 56.3726 94.2195 50.7383 94.1399C51.8613 93.8027 54.0661 93.3668 56.2867 92.896Z" fill="#583AFB"/>
<g opacity="0.2">
<path d="M55.3168 93.2872C56.7233 94.0327 57.9008 95.1464 58.7234 96.5092C59.546 97.872 59.9828 99.4327 59.9872 101.025C59.9911 101.046 60.0024 101.065 60.0189 101.078C60.0355 101.092 60.0563 101.1 60.0778 101.1C60.0994 101.1 60.1202 101.092 60.1367 101.078C60.1533 101.065 60.1645 101.046 60.1685 101.025C60.1625 99.4 59.7154 97.8076 58.8749 96.4174C58.0344 95.0272 56.8321 93.8914 55.3963 93.1314C55.2914 93.0773 55.1991 93.2332 55.3041 93.2872H55.3168Z" fill="black"/>
</g>
<path d="M42.0117 90.4781C42.0117 90.4781 44.4487 89.5904 45.0786 92.1706C45.7086 94.7507 48.8964 95.7338 49.2145 94.4739C49.5613 93.1282 48.7946 88.3369 47.6238 88.092C46.2462 87.8025 42.4985 89.3041 42.0117 90.4781Z" fill="#583AFB"/>
<g opacity="0.5">
<path d="M42.0117 90.4781C42.0117 90.4781 44.4487 89.5904 45.0786 92.1706C45.7086 94.7507 48.8964 95.7338 49.2145 94.4739C49.5613 93.1282 48.7946 88.3369 47.6238 88.092C46.2462 87.8025 42.4985 89.3041 42.0117 90.4781Z" fill="black"/>
</g>
<path d="M42.0168 86.9145C42.0168 86.9145 38.5172 85.7819 37.1937 89.4597C35.8702 93.1374 37.1937 102.185 37.1937 102.185C37.1937 102.185 40.2224 101.231 41.2055 98.1291C42.1885 95.0272 42.0836 88.1871 47.7306 88.1044L42.0168 86.9145Z" fill="#583AFB"/>
<path opacity="0.2" d="M43.4307 87.2297C41.9099 87.306 40.6087 88.2573 39.7593 89.4757C38.7221 90.9615 38.369 92.7972 38.0254 94.5406C38.0031 94.6551 38.1781 94.7061 38.2004 94.5915C38.5185 92.9435 38.8526 91.2319 39.7656 89.7939C40.5705 88.5213 41.8845 87.4873 43.4307 87.411C43.5452 87.411 43.5452 87.2233 43.4307 87.2297Z" fill="black"/>
<path d="M48.9796 108.784H49.5968C51.1525 102.195 50.1058 95.1386 48.9287 90.3314C48.1735 87.1847 47.1496 84.1086 45.8681 81.1371C45.854 81.0976 45.8318 81.0615 45.803 81.031C45.7742 81.0006 45.7394 80.9765 45.7008 80.9602C45.6621 80.9439 45.6206 80.9359 45.5786 80.9366C45.5367 80.9372 45.4954 80.9466 45.4573 80.9641C45.4192 80.9816 45.3852 81.0068 45.3574 81.0382C45.3296 81.0695 45.3086 81.1063 45.2958 81.1462C45.2829 81.1861 45.2785 81.2283 45.2829 81.27C45.2872 81.3116 45.3001 81.352 45.3209 81.3884C46.5889 84.3292 47.6022 87.3733 48.3496 90.4873C49.514 95.2754 50.5544 102.275 48.9796 108.784Z" fill="#583AFB"/>
<path d="M116.398 113.352V118.878L114.165 119.056L113.07 113.88L116.398 113.352Z" fill="#FFB7AD"/>
<path d="M114.816 118.535C114.816 118.535 114.113 117.189 113.699 117.332C113.286 117.475 113.117 119.11 113.117 119.11C113.117 119.11 110.868 119.861 110.254 119.903C109.64 119.944 109.118 120.297 109.035 121.525H116.718C116.718 121.525 116.667 118.754 116.652 118.28C116.636 117.806 115.961 118.398 115.961 118.398L114.816 118.535Z" fill="#263238"/>
<path d="M116.617 119.333C116.48 119.409 116.36 119.512 116.264 119.636C116.169 119.76 116.099 119.902 116.06 120.053C116.021 120.205 116.013 120.362 116.037 120.517C116.061 120.672 116.117 120.82 116.2 120.952C116.205 120.959 116.21 120.966 116.212 120.974C116.214 120.982 116.215 120.99 116.214 120.998C116.213 121.007 116.21 121.015 116.205 121.022C116.201 121.029 116.195 121.034 116.188 121.039C116.181 121.043 116.173 121.046 116.165 121.047C116.156 121.048 116.148 121.048 116.14 121.045C116.132 121.043 116.125 121.039 116.119 121.033C116.113 121.027 116.108 121.02 116.105 121.013C116.012 120.868 115.951 120.706 115.923 120.536C115.895 120.367 115.902 120.193 115.943 120.027C115.984 119.86 116.058 119.703 116.162 119.566C116.265 119.429 116.395 119.314 116.544 119.228C116.607 119.187 116.68 119.295 116.617 119.333Z" fill="white"/>
<path d="M116.629 121.086L110.603 121.146L109.2 121.162C109.124 121.162 109.108 121.041 109.2 121.041L115.229 120.978L116.629 120.962C116.708 120.962 116.724 121.083 116.645 121.086H116.629Z" fill="white"/>
<path d="M113.448 119.594C113.13 119.219 112.675 119.111 112.328 119.397C112.271 119.442 112.198 119.337 112.255 119.289C112.65 118.971 113.191 119.104 113.547 119.534C113.601 119.597 113.502 119.658 113.448 119.594Z" fill="white"/>
<path d="M112.811 119.795C112.753 119.705 112.678 119.629 112.589 119.57C112.5 119.511 112.4 119.47 112.295 119.452C112.19 119.433 112.082 119.436 111.979 119.46C111.875 119.485 111.777 119.53 111.692 119.594C111.634 119.642 111.561 119.537 111.618 119.489C112.013 119.171 112.554 119.305 112.91 119.731C112.964 119.795 112.866 119.858 112.811 119.795Z" fill="white"/>
<path d="M112.155 119.992C112.096 119.902 112.02 119.826 111.93 119.767C111.841 119.709 111.741 119.669 111.636 119.65C111.53 119.632 111.423 119.635 111.319 119.66C111.215 119.685 111.117 119.73 111.031 119.794C110.974 119.842 110.901 119.737 110.958 119.689C111.353 119.371 111.894 119.505 112.25 119.931C112.304 119.995 112.205 120.055 112.155 119.992Z" fill="white"/>
<path d="M117.739 58.5738C117.675 59.56 117.812 62.5887 117.679 64.2144C117.427 67.3132 117.09 71.3313 116.823 75.3495C116.505 80.0103 116.288 84.6775 116.4 87.9162C116.686 96.2325 116.622 115.079 116.622 115.079H113.015C113.015 115.079 108.777 96.347 107.985 87.9162C107.323 80.917 107.667 62.9196 107.784 58.5674L117.739 58.5738Z" fill="#583AFB"/>
<path opacity="0.2" d="M117.679 64.2149C117.428 67.3136 117.091 71.3318 116.823 75.3499C115.048 70.0942 116.696 62.1533 116.696 62.1533L117.679 64.2149Z" fill="black"/>
<path d="M116.934 115.213H112.699L112.391 113.864L117.045 113.807L116.934 115.213Z" fill="#583AFB"/>
<path d="M136.32 112.321L137.163 117.784L134.984 118.299L133.113 113.352L136.32 112.321Z" fill="#FFB7AD"/>
<path d="M135.542 117.685C135.542 117.685 134.645 116.46 134.27 116.667C133.894 116.874 133.952 118.512 133.952 118.512C133.952 118.512 131.842 119.6 131.228 119.734C130.614 119.868 130.166 120.3 130.274 121.525L137.865 120.354C137.865 120.354 137.391 117.622 137.305 117.154C137.219 116.686 136.64 117.377 136.64 117.377L135.542 117.685Z" fill="#263238"/>
<path d="M137.449 118.197C137.325 118.293 137.222 118.413 137.146 118.55C137.07 118.687 137.022 118.838 137.007 118.994C136.991 119.149 137.008 119.307 137.056 119.456C137.103 119.605 137.181 119.743 137.283 119.861C137.334 119.928 137.248 120.004 137.194 119.938C137.081 119.808 136.995 119.657 136.942 119.494C136.888 119.331 136.869 119.158 136.884 118.987C136.899 118.815 136.949 118.649 137.03 118.498C137.111 118.346 137.222 118.213 137.357 118.105C137.414 118.057 137.503 118.15 137.449 118.197Z" fill="white"/>
<path d="M137.726 119.928L131.78 120.911L130.399 121.14C130.319 121.14 130.288 121.032 130.364 121.02L136.31 120.04L137.691 119.811C137.77 119.811 137.802 119.916 137.726 119.928Z" fill="white"/>
<path d="M134.356 118.939C134.285 118.86 134.198 118.796 134.1 118.752C134.003 118.708 133.898 118.684 133.792 118.682C133.685 118.68 133.579 118.699 133.48 118.74C133.381 118.78 133.292 118.84 133.217 118.916C133.17 118.97 133.077 118.878 133.128 118.824C133.469 118.442 134.022 118.506 134.442 118.865C134.506 118.92 134.417 118.996 134.356 118.939Z" fill="white"/>
<path d="M133.759 119.235C133.687 119.156 133.6 119.092 133.503 119.047C133.406 119.003 133.301 118.979 133.195 118.976C133.088 118.974 132.982 118.993 132.883 119.033C132.784 119.073 132.694 119.133 132.62 119.209C132.572 119.267 132.48 119.171 132.53 119.117C132.871 118.735 133.424 118.799 133.844 119.158C133.908 119.216 133.819 119.289 133.759 119.235Z" fill="white"/>
<path d="M133.137 119.534C133.066 119.454 132.98 119.39 132.882 119.345C132.785 119.3 132.68 119.276 132.573 119.274C132.467 119.271 132.361 119.291 132.262 119.331C132.163 119.371 132.073 119.432 131.998 119.508C131.951 119.562 131.859 119.47 131.909 119.416C132.25 119.034 132.807 119.098 133.223 119.457C133.287 119.511 133.198 119.588 133.137 119.534Z" fill="white"/>
<path d="M123.613 88.6508C125.84 96.8176 133.338 114.484 133.338 114.484L136.892 113.864C136.892 113.864 133.189 95.4845 131.483 87.3432C129.944 79.9941 128.251 63.1165 127.704 58.0898L115.773 59.1652C116.41 63.4697 121.761 81.8743 123.613 88.6508Z" fill="#583AFB"/>
<path d="M137.224 113.941L133.053 114.666L132.516 113.39L137.164 112.541L137.224 113.941Z" fill="#583AFB"/>
<path d="M128.399 58.0902C128.393 58.3761 128.285 58.6506 128.096 58.865C127.907 59.0793 127.648 59.2196 127.365 59.2609L108.33 60.139C107.773 60.1645 107.121 59.7827 107.137 59.226C107.328 52.6595 108.858 30.068 109.364 28.6427C110 26.8929 113.522 26.263 115.062 26.123C117.492 25.9603 119.93 25.9603 122.36 26.123C123.547 26.1803 124.629 26.2853 125.526 26.3966C125.849 26.4362 126.162 26.5405 126.444 26.7035C126.726 26.8665 126.973 27.0848 127.169 27.3453C127.365 27.6057 127.506 27.9031 127.585 28.2195C127.663 28.5359 127.677 28.8649 127.626 29.1868C127.227 31.6956 126.967 34.2244 126.846 36.7618L126.827 37.1276C126.786 37.9834 126.747 38.8297 126.744 39.6728C126.744 39.8382 126.744 40.0068 126.744 40.1723C126.846 48.6667 127.931 52.8312 128.399 58.0902Z" fill="#F4F3FC"/>
<path opacity="0.2" d="M126.85 36.7622L126.83 37.1281C126.789 37.9839 126.751 38.8301 126.748 39.6732L123.086 32.4863L126.85 36.7622Z" fill="black"/>
<path d="M116.351 13.2605C116.351 13.2605 113.051 11.7048 111.687 12.4747C110.614 13.0791 111.33 14.3231 111.33 14.3231C111.33 14.3231 109.316 14.3867 109.316 15.6593C109.314 15.953 109.426 16.2361 109.629 16.449C109.831 16.662 110.108 16.7883 110.401 16.8014C110.401 16.8014 109.685 18.0295 110.471 18.3126C111.257 18.5958 112.177 16.9732 112.177 16.9732L116.351 13.2605Z" fill="#263238"/>
<path d="M119.85 19.6426C119.85 19.6426 120.718 20.8992 120.543 21.2333C120.282 21.7551 119.589 21.1633 119.589 21.1633C119.589 21.1633 120.225 22.0191 119.589 22.4359C118.952 22.8527 118.555 20.7593 118.555 20.7593L119.85 19.6426Z" fill="#263238"/>
<path d="M114.863 13.4098C115.536 13.2367 116.238 13.2038 116.924 13.3133C117.61 13.4227 118.267 13.6722 118.853 14.0461C119.619 14.5488 120.256 15.2614 120.141 16.2286C119.871 18.481 118.868 22.1874 118.868 22.1874L111.612 17.762C111.612 17.762 111.293 15.8532 112.216 14.676C112.69 14.062 113.858 13.658 114.863 13.4098Z" fill="#263238"/>
<path d="M115.25 24.6631V24.6918L115.603 25.9866C115.634 26.2474 115.639 26.5106 115.619 26.7724C115.605 26.9864 115.575 27.199 115.53 27.4087C115.247 27.8001 115.116 28.6813 116.131 28.6813C117.404 28.6813 119.749 26.7915 119.828 26.2252C119.224 24.4786 118.715 22.4361 118.797 20.7627L117.347 22.3534L115.25 24.6631Z" fill="#FFB7AD"/>
<g opacity="0.2">
<path d="M115.262 24.6948L115.615 25.9897C116.413 25.6175 117.247 24.8253 117.431 23.9695C117.562 23.3523 117.282 22.7796 117.031 22.751L115.262 24.6948Z" fill="black"/>
</g>
<path d="M111.998 21.9963C112.075 22.2795 112.161 22.5562 112.256 22.8298C113.08 25.2477 116.074 25.445 117.916 23.6443C118.085 23.4809 118.24 23.3043 118.38 23.1162C119.548 21.5541 119.243 20.361 119.045 17.6505C119.007 17.0191 118.808 16.4079 118.467 15.8752C118.126 15.3425 117.654 14.9061 117.097 14.6075C116.539 14.3089 115.914 14.1581 115.282 14.1695C114.65 14.1809 114.031 14.3541 113.484 14.6726C111.235 15.9675 111.216 19.1775 111.998 21.9963Z" fill="#FFB7AD"/>
<path d="M113.783 22.4424H113.71C113.689 22.44 113.669 22.4293 113.656 22.4127C113.642 22.396 113.635 22.3747 113.637 22.3533C113.638 22.3425 113.641 22.332 113.646 22.3225C113.651 22.3129 113.658 22.3044 113.666 22.2976C113.674 22.2907 113.684 22.2857 113.694 22.2827C113.705 22.2797 113.715 22.2788 113.726 22.2801C113.884 22.2945 114.043 22.2766 114.193 22.2276C114.344 22.1786 114.483 22.0994 114.602 21.9949C114.721 21.8905 114.818 21.7629 114.886 21.62C114.954 21.477 114.992 21.3217 114.999 21.1634C115.002 21.142 115.013 21.1227 115.03 21.1096C115.048 21.0965 115.069 21.0907 115.091 21.0934C115.112 21.0973 115.131 21.1089 115.144 21.126C115.157 21.1431 115.163 21.1644 115.161 21.1857C115.142 21.534 114.987 21.8608 114.729 22.0959C114.472 22.331 114.132 22.4554 113.783 22.4424Z" fill="#263238"/>
<path d="M119.087 17.8986C119.087 17.8986 118.269 17.9432 118.237 18.6431C118.205 19.343 118.279 19.4353 118.279 19.4353L117.324 19.6421C117.324 19.6421 117.579 16.9697 116.876 17.0078C116.172 17.046 116.93 15.8403 116.507 15.6685C115.504 15.2644 112.784 15.2517 111.734 16.8933C111.734 16.8933 112.005 15.2771 113.29 14.3991C114.575 13.521 117.175 13.3269 118.231 14.5963C119.287 15.8657 119.087 17.8986 119.087 17.8986Z" fill="#263238"/>
<path d="M120.45 19.2831C120.399 19.6175 120.282 19.9385 120.107 20.2278C119.932 20.5172 119.701 20.7691 119.429 20.9693C118.697 21.5038 118.016 20.9215 117.959 20.0657C117.905 19.2958 118.223 18.0932 119.085 17.8992C119.947 17.7051 120.568 18.4527 120.45 19.2831Z" fill="#FFB7AD"/>
<path d="M115.049 19.4863C115.078 19.6994 114.989 19.8871 114.852 19.9062C114.715 19.9253 114.578 19.7662 114.534 19.5563C114.489 19.3463 114.594 19.1554 114.734 19.1363C114.874 19.1172 115.008 19.2763 115.052 19.4863" fill="#263238"/>
<path d="M112.72 19.7727C112.749 19.9859 112.66 20.1736 112.52 20.1927C112.38 20.2118 112.246 20.0527 112.202 19.8427C112.157 19.6327 112.262 19.4418 112.402 19.4259C112.542 19.41 112.676 19.5627 112.72 19.7727Z" fill="#263238"/>
<path d="M111.822 18.9651C111.841 18.9626 111.859 18.9551 111.874 18.9433C111.889 18.9316 111.901 18.9161 111.908 18.8983C111.931 18.8255 111.969 18.7582 112.02 18.7007C112.07 18.6432 112.132 18.5967 112.201 18.5643C112.344 18.5114 112.5 18.5114 112.643 18.5643C112.656 18.5699 112.67 18.5729 112.685 18.5731C112.699 18.5733 112.713 18.5706 112.726 18.5653C112.74 18.56 112.752 18.5521 112.762 18.5421C112.772 18.5321 112.781 18.5202 112.786 18.507C112.792 18.4939 112.795 18.4797 112.795 18.4654C112.795 18.4511 112.793 18.4369 112.787 18.4236C112.782 18.4103 112.774 18.3982 112.764 18.3879C112.754 18.3777 112.742 18.3695 112.729 18.3638C112.532 18.2902 112.315 18.2902 112.118 18.3638C112.022 18.4064 111.936 18.4685 111.865 18.5463C111.794 18.6241 111.741 18.7159 111.708 18.8156C111.702 18.8287 111.699 18.8429 111.699 18.8571C111.699 18.8714 111.702 18.8855 111.708 18.8986C111.713 18.9117 111.722 18.9235 111.732 18.9333C111.742 18.9431 111.755 18.9507 111.768 18.9556C111.785 18.9637 111.804 18.967 111.822 18.9651Z" fill="#263238"/>
<path d="M115.559 18.5354C115.575 18.5324 115.59 18.5258 115.603 18.5163C115.627 18.5002 115.643 18.4754 115.648 18.4474C115.654 18.4194 115.648 18.3904 115.632 18.3668C115.51 18.1959 115.33 18.075 115.126 18.0264C115.022 18.0105 114.916 18.0162 114.814 18.043C114.712 18.0698 114.617 18.1172 114.534 18.1822C114.521 18.1894 114.509 18.1995 114.499 18.2116C114.49 18.2238 114.483 18.2378 114.48 18.2528C114.476 18.2678 114.476 18.2833 114.479 18.2985C114.481 18.3136 114.488 18.3279 114.496 18.3404C114.505 18.353 114.517 18.3635 114.53 18.3713C114.543 18.379 114.558 18.3839 114.574 18.3854C114.589 18.387 114.604 18.3853 114.619 18.3805C114.634 18.3756 114.647 18.3677 114.658 18.3572C114.718 18.3098 114.786 18.275 114.859 18.2548C114.933 18.2345 115.009 18.2293 115.085 18.2395C115.233 18.2751 115.364 18.3632 115.454 18.4877C115.465 18.5044 115.481 18.5178 115.499 18.5262C115.518 18.5346 115.538 18.5378 115.559 18.5354Z" fill="#263238"/>
<path d="M113.616 19.3691C113.358 19.9572 113.137 20.5607 112.954 21.1762C112.922 21.4244 113.714 21.418 113.714 21.418L113.616 19.3691Z" fill="#FF5652"/>
<path d="M127.505 27.5106C129.013 29.5212 130.454 31.5828 131.87 33.6603C132.582 34.6943 133.273 35.7441 133.976 36.7813L135.01 38.3402L135.522 39.1006L135.776 39.4696L135.897 39.6414L135.98 39.7782L136.05 39.9023L136.104 40.0041L136.196 40.1918L136.269 40.3572C136.444 40.7772 136.556 41.1112 136.664 41.4485C136.772 41.7857 136.864 42.107 136.957 42.4284C137.138 43.0646 137.3 43.7009 137.45 44.3372C137.749 45.5907 138.029 46.8347 138.277 48.085C138.78 50.5792 139.231 53.0735 139.565 55.5995C139.612 55.9463 139.529 56.2981 139.334 56.5881C139.138 56.8781 138.843 57.0862 138.504 57.1729C138.165 57.2596 137.806 57.2189 137.495 57.0585C137.184 56.898 136.942 56.6291 136.817 56.3026C135.913 53.9547 135.067 51.5782 134.221 49.2271C133.791 48.0531 133.374 46.876 132.948 45.7275C132.729 45.1517 132.512 44.579 132.293 44.0286C132.181 43.7518 132.07 43.4814 131.975 43.2269C131.88 43.0028 131.774 42.784 131.656 42.5715C131.648 42.5551 131.638 42.5391 131.628 42.5238C131.628 42.5238 131.612 42.5015 131.612 42.5047V42.5302L131.631 42.5652C131.631 42.5906 131.663 42.6161 131.682 42.6415V42.6256L131.637 42.5747L131.548 42.4697L131.376 42.2597L130.769 41.5026L129.582 40.0073C128.809 39.0051 128.036 38.0093 127.279 37.0008C125.764 34.9838 124.282 32.9477 122.869 30.8574C122.482 30.2416 122.344 29.5013 122.482 28.7871C122.621 28.0729 123.026 27.4383 123.616 27.0122C124.206 26.5861 124.936 26.4004 125.657 26.493C126.379 26.5856 127.038 26.9494 127.501 27.5106H127.505Z" fill="#F4F3FC"/>
<path d="M137.133 56.7607C137.133 56.7607 136.264 59.624 136.474 60.219C136.684 60.8139 137.355 59.5827 137.355 59.5827L137.133 56.7607Z" fill="#FFB7AD"/>
<path d="M139.654 56.0188L140.847 58.688C141.133 59.4579 138.725 60.915 137.665 60.3646C136.819 59.9224 137.099 56.6296 137.099 56.6296C137.449 56.3382 137.862 56.1315 138.305 56.0255C138.748 55.9196 139.21 55.9173 139.654 56.0188Z" fill="#FFB7AD"/>
<path d="M140.845 58.6885C141.163 59.5475 141.249 61.2909 139.862 61.6409C139.561 61.7309 139.248 61.7769 138.933 61.7777C138.933 61.7777 139.006 62.5444 138.599 62.6748C138.192 62.8053 137.371 60.0024 137.371 60.0024L140.845 58.6885Z" fill="#FFB7AD"/>
<path d="M112.948 32.6611C111.567 33.501 110.17 34.2836 108.748 35.0345C108.284 35.2784 107.816 35.5191 107.345 35.7566C106.935 35.9666 106.524 36.1734 106.111 36.3929C104.937 36.9656 103.756 37.5224 102.528 38.0537C101.911 38.3145 101.291 38.5722 100.591 38.8299C100.422 38.8936 100.222 38.9572 100.021 39.024L99.681 39.129L99.4424 39.1862L99.3247 39.2149H99.2611L99.1147 39.2403C99.0161 39.2403 98.9047 39.269 98.8188 39.2753H98.6184C98.5121 39.2756 98.4059 39.2703 98.3002 39.2594C98.1953 39.2594 98.1316 39.2435 98.0521 39.234L97.8389 39.199C97.6126 39.1577 97.3885 39.1046 97.1677 39.0399C96.4742 38.8346 95.7914 38.5946 95.122 38.3209C94.4857 38.0727 93.878 37.8023 93.2768 37.5287C92.071 36.9847 90.897 36.4184 89.7358 35.8235C87.4134 34.64 85.1418 33.3992 82.918 32.0312L83.8501 29.9314C86.3285 30.6313 88.7846 31.4013 91.2247 32.1584C92.4464 32.5275 93.6617 32.9061 94.8643 33.256L96.6523 33.7523C97.2058 33.8987 97.7753 34.0355 98.243 34.1087H98.2653C98.3671 34.0609 98.4689 34.0164 98.5834 33.9528C99.0702 33.7173 99.6142 33.4247 100.152 33.1288C101.237 32.5402 102.341 31.9198 103.445 31.3026C105.656 30.065 107.899 28.8211 110.161 27.6758L112.948 32.6611Z" fill="#F4F3FC"/>
<path opacity="0.2" d="M109.049 31.376L108.766 34.9487L108.747 35.0346C108.282 35.2785 107.815 35.5193 107.344 35.7568L109.049 31.376Z" fill="black"/>
<path d="M82.8485 32.0506C83.7648 32.216 84.9992 31.707 84.3406 30.0558C83.9201 29.0255 83.4422 28.0197 82.909 27.043C82.4668 26.1903 80.612 25.834 80.612 25.834C80.612 25.834 79.6575 25.0132 79.5176 25.4586C79.3776 25.904 80.7901 26.9984 80.9556 27.3166C81.506 28.3092 82.0723 29.3082 82.0468 29.4863C82.0213 29.6645 81.3628 28.2392 80.7742 28.1183C80.1857 27.9974 81.3437 29.6327 81.4582 30.3103C81.5728 30.988 82.4222 31.9647 82.8485 32.0506Z" fill="#FFB7AD"/>
<path opacity="0.2" d="M80.8072 25.9194C81.4557 26.3391 81.9736 26.932 82.3024 27.631C82.3279 27.6851 82.2452 27.736 82.2197 27.6819C81.8979 26.9984 81.3923 26.4179 80.7594 26.0053C80.7085 25.9703 80.7594 25.8844 80.8072 25.9194Z" fill="black"/>
<path opacity="0.2" d="M82.3087 27.1637C82.1264 26.819 81.8674 26.5207 81.5515 26.292C81.5038 26.2538 81.5706 26.1838 81.6215 26.222C81.9423 26.4568 82.2056 26.7614 82.3914 27.1128C82.4232 27.1701 82.3373 27.221 82.3087 27.1637Z" fill="black"/>
</svg>
