<svg width="323" height="241" viewBox="0 0 323 241" fill="none" xmlns="http://www.w3.org/2000/svg">
<path d="M322.213 211.096H0.117188V211.257H322.213V211.096Z" fill="#E6E6E6"/>
<path d="M80.527 220.842H59.1914V221.003H80.527V220.842Z" fill="#E6E6E6"/>
<path d="M52.4402 220.842H40.0781V221.003H52.4402V220.842Z" fill="#E6E6E6"/>
<path d="M135.753 223.213H123.391V223.374H135.753V223.213Z" fill="#E6E6E6"/>
<path d="M200.209 226.809H172.387V226.97H200.209V226.809Z" fill="#E6E6E6"/>
<path d="M166.652 226.809H162.574V226.97H166.652V226.809Z" fill="#E6E6E6"/>
<path d="M292.16 223.213H231.812V223.374H292.16V223.213Z" fill="#E6E6E6"/>
<path d="M152.789 182.365H28.4024C27.4279 182.363 26.494 181.975 25.8055 181.285C25.1171 180.596 24.7305 179.661 24.7305 178.687V3.83362C24.739 2.86478 25.1293 1.9384 25.8169 1.25571C26.5044 0.573022 27.4335 0.18916 28.4024 0.1875H152.789C153.765 0.1875 154.7 0.575038 155.39 1.26486C156.08 1.95468 156.468 2.89028 156.468 3.86583V178.687C156.468 179.662 156.08 180.598 155.39 181.288C154.7 181.977 153.765 182.365 152.789 182.365ZM28.4024 0.316339C27.4706 0.318045 26.5777 0.689367 25.9194 1.3488C25.2612 2.00824 24.8915 2.9019 24.8915 3.83362V178.687C24.8915 179.618 25.2612 180.512 25.9194 181.171C26.5777 181.831 27.4706 182.202 28.4024 182.204H152.789C153.722 182.202 154.615 181.831 155.275 181.172C155.934 180.512 156.305 179.619 156.307 178.687V3.83362C156.305 2.9013 155.934 2.00766 155.275 1.34841C154.615 0.689158 153.722 0.318042 152.789 0.316339H28.4024Z" fill="#E6E6E6"/>
<path d="M292.134 182.365H167.741C166.766 182.363 165.831 181.975 165.142 181.286C164.452 180.596 164.064 179.662 164.062 178.687V3.83362C164.073 2.86419 164.464 1.93782 165.153 1.25531C165.842 0.572797 166.771 0.189142 167.741 0.1875H292.134C293.102 0.190853 294.029 0.575464 294.716 1.25797C295.402 1.94048 295.791 2.86589 295.8 3.83362V178.687C295.8 179.66 295.414 180.593 294.727 181.283C294.04 181.972 293.108 182.361 292.134 182.365ZM167.741 0.316339C166.809 0.318042 165.915 0.689158 165.256 1.34841C164.596 2.00766 164.225 2.9013 164.224 3.83362V178.687C164.225 179.619 164.596 180.512 165.256 181.172C165.915 181.831 166.809 182.202 167.741 182.204H292.134C293.067 182.202 293.96 181.831 294.619 181.172C295.279 180.512 295.65 179.619 295.651 178.687V3.83362C295.65 2.9013 295.279 2.00766 294.619 1.34841C293.96 0.689158 293.067 0.318042 292.134 0.316339H167.741Z" fill="#E6E6E6"/>
<path d="M172.373 156.068H158.207V212.261H172.373V156.068Z" fill="#E0E0E0"/>
<path d="M169.681 212.262H172.374V204.609H166.859L169.681 212.262Z" fill="#FAFAFA"/>
<path d="M110.299 156.068H96.1328V212.261H110.299V156.068Z" fill="#E0E0E0"/>
<path d="M172.372 156.068H107.953V207.565H172.372V156.068Z" fill="#FAFAFA"/>
<path d="M170.037 158.601V172.226H110.275V158.601H170.017M170.268 158.35H110.043V172.47H170.288V158.35H170.268Z" fill="#E0E0E0"/>
<path d="M110.639 212.262H107.953V204.609H113.461L110.639 212.262Z" fill="#FAFAFA"/>
<path d="M138.742 165.41C138.742 165.692 138.826 165.967 138.982 166.201C139.139 166.435 139.361 166.618 139.621 166.725C139.881 166.833 140.167 166.861 140.444 166.806C140.72 166.751 140.973 166.616 141.173 166.417C141.372 166.218 141.507 165.964 141.562 165.688C141.617 165.412 141.589 165.125 141.481 164.865C141.373 164.605 141.191 164.383 140.957 164.226C140.723 164.07 140.447 163.986 140.166 163.986C139.788 163.986 139.426 164.136 139.159 164.403C138.892 164.67 138.742 165.032 138.742 165.41Z" fill="#E6E6E6"/>
<path d="M170.037 175.003V188.627H110.275V175.003H170.017M170.268 174.758H110.043V188.878H170.288V174.764L170.268 174.758Z" fill="#E0E0E0"/>
<path d="M138.742 181.849C138.742 182.131 138.826 182.406 138.982 182.64C139.139 182.875 139.361 183.057 139.621 183.165C139.881 183.272 140.167 183.301 140.444 183.246C140.72 183.191 140.973 183.055 141.173 182.856C141.372 182.657 141.507 182.403 141.562 182.127C141.617 181.851 141.589 181.565 141.481 181.305C141.373 181.044 141.191 180.822 140.957 180.666C140.723 180.509 140.447 180.426 140.166 180.426C139.788 180.426 139.426 180.576 139.159 180.843C138.892 181.11 138.742 181.472 138.742 181.849Z" fill="#E6E6E6"/>
<path d="M170.037 191.409V205.041H110.275V191.409H170.017M170.268 191.158H110.043V205.285H170.288V191.158H170.268Z" fill="#E0E0E0"/>
<path d="M138.742 198.225C138.743 198.506 138.828 198.781 138.985 199.014C139.142 199.247 139.365 199.429 139.625 199.536C139.886 199.642 140.172 199.67 140.448 199.614C140.723 199.558 140.976 199.422 141.175 199.223C141.373 199.024 141.508 198.77 141.563 198.494C141.617 198.218 141.588 197.932 141.481 197.672C141.373 197.413 141.19 197.191 140.956 197.034C140.722 196.878 140.447 196.795 140.166 196.795C139.978 196.795 139.793 196.832 139.62 196.904C139.446 196.976 139.289 197.081 139.157 197.214C139.025 197.347 138.92 197.505 138.849 197.678C138.778 197.852 138.741 198.038 138.742 198.225Z" fill="#E6E6E6"/>
<path d="M101.65 123.434H87.4844V212.268H101.65V123.434Z" fill="#E0E0E0"/>
<path d="M98.9557 212.262H101.648V204.609H96.1406L98.9557 212.262Z" fill="#FAFAFA"/>
<path d="M48.7087 123.434H34.543V212.268H48.7087V123.434Z" fill="#E0E0E0"/>
<path d="M101.646 123.434H46.3555V207.571H101.646V123.434Z" fill="#FAFAFA"/>
<path d="M99.2628 125.806V144.854H48.7389V125.806H99.2628ZM99.5592 125.516H48.4297V145.131H99.5463V125.522L99.5592 125.516Z" fill="#E0E0E0"/>
<path d="M99.2631 147.179V197.703H75.1961V147.179H99.2631ZM99.5595 146.883H74.9062V197.999H99.5595V146.883Z" fill="#E0E0E0"/>
<path d="M72.8059 147.179V197.703H48.7389V147.179H72.8059ZM73.0958 146.883H48.4297V197.999H73.0829V146.883H73.0958Z" fill="#E0E0E0"/>
<path d="M49.0482 212.262H46.3555V204.609H51.8697L49.0482 212.262Z" fill="#FAFAFA"/>
<path d="M72.5742 135.34C72.573 135.623 72.6557 135.9 72.8121 136.136C72.9685 136.372 73.1914 136.556 73.4526 136.666C73.7138 136.775 74.0015 136.804 74.2794 136.75C74.5572 136.695 74.8126 136.559 75.0133 136.36C75.2139 136.16 75.3508 135.905 75.4065 135.628C75.4622 135.35 75.4342 135.062 75.3262 134.8C75.2181 134.539 75.0348 134.315 74.7995 134.157C74.5642 134 74.2875 133.916 74.0043 133.916C73.6262 133.916 73.2634 134.066 72.9954 134.333C72.7274 134.599 72.5759 134.962 72.5742 135.34Z" fill="#E6E6E6"/>
<path d="M77.6797 171.239C77.6797 171.522 77.7637 171.799 77.9212 172.034C78.0786 172.269 78.3023 172.453 78.564 172.561C78.8257 172.669 79.1136 172.697 79.3912 172.641C79.6688 172.585 79.9236 172.448 80.1233 172.248C80.3231 172.047 80.4588 171.792 80.5132 171.514C80.5677 171.236 80.5384 170.948 80.4292 170.687C80.32 170.426 80.1357 170.203 79.8996 170.046C79.6636 169.89 79.3865 169.807 79.1034 169.809C78.9159 169.809 78.7302 169.846 78.5571 169.918C78.3839 169.99 78.2267 170.095 78.0944 170.228C77.9621 170.361 77.8574 170.518 77.7862 170.692C77.715 170.865 77.6789 171.051 77.6797 171.239Z" fill="#E6E6E6"/>
<path d="M67.4805 171.241C67.4818 171.522 67.5663 171.797 67.7235 172.03C67.8807 172.263 68.1035 172.445 68.3638 172.551C68.624 172.658 68.9101 172.685 69.1858 172.63C69.4616 172.574 69.7146 172.438 69.9131 172.239C70.1115 172.039 70.2465 171.786 70.3009 171.51C70.3553 171.234 70.3268 170.948 70.2188 170.688C70.1109 170.428 69.9284 170.206 69.6944 170.05C69.4604 169.894 69.1854 169.811 68.9041 169.811C68.7166 169.811 68.531 169.848 68.3578 169.92C68.1847 169.991 68.0275 170.097 67.8952 170.23C67.7629 170.363 67.6582 170.52 67.587 170.694C67.5158 170.867 67.4796 171.053 67.4805 171.241Z" fill="#E6E6E6"/>
<path d="M65.8682 98.666H59.8965C60.4469 101.563 60.7934 104.495 60.9337 107.44C60.9337 110.661 56.3857 123.435 62.8663 123.435C69.3468 123.435 64.7988 110.693 64.7988 107.44C64.9497 104.494 65.3071 101.562 65.8682 98.666Z" fill="#E0E0E0"/>
<path d="M43.1484 111.729V115.594C43.1552 117.666 43.9814 119.651 45.4465 121.116C46.9117 122.581 48.8969 123.407 50.9689 123.414H54.8341C56.9061 123.407 58.8913 122.581 60.3565 121.116C61.8216 119.651 62.6478 117.666 62.6546 115.594V111.729H43.1484Z" fill="#F5F5F5"/>
<path d="M126.168 147.875C126.168 152.384 131.212 156.069 137.377 156.069H142.943C149.108 156.069 154.152 152.384 154.152 147.875H126.168Z" fill="#E0E0E0"/>
<path d="M273.648 141.265C270.273 144.022 265.609 149.066 261.344 156.165C258.497 160.893 256.783 165.828 256.03 172.386C256.03 164.978 256.075 157.022 256.1 149.511C256.957 147.578 258.916 143.12 260.32 139.603C265.003 127.859 266.762 124.967 270.968 114.84C276.592 101.312 282.351 85.2976 280.702 86.5795C277.339 89.1885 264.456 113.313 263.064 116.766C259.271 125.981 256.927 135.727 256.113 145.658C256.113 138.572 256.165 132.13 256.191 127.131C256.281 110.827 256.558 105.564 256.693 103.94C257.215 103.116 257.827 102.156 258.188 101.641C261.215 97.2602 262.381 93.5368 265.229 87.0047C269.274 77.7606 272.753 61.3401 271.735 62.1647C267.496 65.6175 264.159 73.0257 259.766 82.476C255.372 91.9263 256.629 97.3569 255.759 105.422C255.579 107.007 255.437 112.985 255.334 121.263C254.2 112.437 252.061 106.627 248.164 101.344C243.371 94.8445 238.733 90.4576 235.332 88.1642C231.93 85.8709 241.207 101.834 245.639 108.778C249.588 114.988 253.227 120.458 255.302 125.849C255.192 137.078 255.141 151.289 255.141 164.501C254.123 158.484 252.461 151.997 250.245 146.979C247.578 140.949 243.481 131.699 240.215 128.561C239.435 127.808 243.629 145.8 246.322 150.58C249.014 155.36 250.992 159.876 252.686 162.588C253.079 163.232 254.393 165.66 255.141 167.065C255.141 183.215 255.231 197.464 255.372 202.315H256.068C256.023 201.065 256.01 192.845 256.03 181.971C257.711 176.071 261.55 169.332 264.72 163.187C268.173 156.532 277.024 138.527 273.648 141.265Z" fill="#E0E0E0"/>
<path d="M265.809 212.262H245.62L244.094 192.473H267.336L265.809 212.262Z" fill="#F0F0F0"/>
<path d="M268.834 194.778H242.583L241.836 188.098H269.588L268.834 194.778Z" fill="#F5F5F5"/>
<path d="M80.1655 13.3936H44.0586V53.0435H80.1655V13.3936Z" fill="#E0E0E0"/>
<path d="M84.076 13.3936H46.7773V53.0435H84.076V13.3936Z" fill="#F5F5F5"/>
<path d="M80.9492 49.9189V16.5176L49.8992 16.5176V49.9189H80.9492Z" fill="white"/>
<path d="M73.418 41.8148V24.6084H57.4227V41.8148H73.418Z" fill="#F5F5F5"/>
<path d="M264.27 18.0127H230.727V54.8476H264.27V18.0127Z" fill="#E0E0E0"/>
<path d="M267.902 18.0127H233.258V54.8476H267.902V18.0127Z" fill="#F5F5F5"/>
<path d="M265.004 51.9422V20.918H236.163V51.9422H265.004Z" fill="white"/>
<path d="M250.577 45.4294C255.548 45.4294 259.577 41.4002 259.577 36.43C259.577 31.4598 255.548 27.4307 250.577 27.4307C245.607 27.4307 241.578 31.4598 241.578 36.43C241.578 41.4002 245.607 45.4294 250.577 45.4294Z" fill="#F5F5F5"/>
<path d="M117.676 37.0352H90.8906V66.4489H117.676V37.0352Z" fill="#E0E0E0"/>
<path d="M120.574 37.0352H92.9062V66.4489H120.574V37.0352Z" fill="#F5F5F5"/>
<path d="M118.254 64.1291V39.3535H95.2241V64.1291H118.254Z" fill="white"/>
<path d="M106.746 45.4746L100.445 56.3872H113.046L106.746 45.4746Z" fill="#F5F5F5"/>
<path d="M161.164 240.188C230.146 240.188 286.066 236.923 286.066 232.896C286.066 228.868 230.146 225.604 161.164 225.604C92.1824 225.604 36.2617 228.868 36.2617 232.896C36.2617 236.923 92.1824 240.188 161.164 240.188Z" fill="#F5F5F5"/>
<path d="M225.099 70.0377L218.709 67.4609C218.709 67.4609 210.276 82.8378 207.86 83.6173C204.575 84.6737 197.772 87.6112 193.74 88.1266C193.192 88.7708 192.297 90.7742 192.38 91.5022C197.798 93.3123 209.703 90.9095 212.254 89.0156C218.058 84.7188 225.099 70.0377 225.099 70.0377Z" fill="#FFB7AD"/>
<path d="M227.065 66.5394C228.257 70.9393 221.802 79.7905 221.802 79.7905L213.344 75.0492C213.344 75.0492 214.928 71.4095 216.861 67.7054C219.96 61.7209 225.706 61.5212 227.065 66.5394Z" fill="#583AFB"/>
<path d="M227.065 66.5394C228.257 70.9393 221.802 79.7905 221.802 79.7905L213.344 75.0492C213.344 75.0492 214.928 71.4095 216.861 67.7054C219.96 61.7209 225.706 61.5212 227.065 66.5394Z" fill="#00C7FF"/>
<path opacity="0.2" d="M216.699 76.9431L220.03 78.8112L220.616 68.5879C218.677 70.076 217.311 74.5595 216.699 76.9431Z" fill="black"/>
<path d="M221.501 63.2286C221.501 63.2286 214.918 77.8775 218.757 105.153H244.699C245.111 101.171 243.745 81.7426 248.686 62.9838C245.84 62.4276 242.961 62.0596 240.067 61.8822C236.396 61.6695 232.716 61.6695 229.045 61.8822C226.5 62.1406 223.978 62.5907 221.501 63.2286Z" fill="#583AFB"/>
<path d="M221.501 63.2286C221.501 63.2286 214.918 77.8775 218.757 105.153H244.699C245.111 101.171 243.745 81.7426 248.686 62.9838C245.84 62.4276 242.961 62.0596 240.067 61.8822C236.396 61.6695 232.716 61.6695 229.045 61.8822C226.5 62.1406 223.978 62.5907 221.501 63.2286Z" fill="#00C7FF"/>
<g style="mix-blend-mode:multiply">
<path d="M215.484 233.474C215.446 234.17 225.283 234.731 237.451 234.731C249.62 234.731 259.528 234.17 259.567 233.474C259.605 232.779 249.775 232.225 237.6 232.225C225.424 232.225 215.53 232.785 215.484 233.474Z" fill="#E8ECF1"/>
</g>
<path d="M232.8 215.194L228.199 216.975L232.163 227.213L236.764 225.432L232.8 215.194Z" fill="#FFB7AD"/>
<path d="M253.316 228.521H248.465L246.688 217.293H251.538L253.316 228.521Z" fill="#FFB7AD"/>
<path d="M248.132 227.961H253.582C253.676 227.961 253.768 227.995 253.84 228.056C253.912 228.118 253.96 228.203 253.975 228.296L254.677 232.606C254.692 232.714 254.683 232.824 254.652 232.928C254.62 233.033 254.567 233.129 254.494 233.211C254.422 233.293 254.333 233.358 254.234 233.403C254.134 233.447 254.026 233.47 253.917 233.469C252.017 233.437 251.102 233.321 248.705 233.321C247.23 233.321 244.196 233.475 242.148 233.475C240.099 233.475 239.964 231.465 240.808 231.279C244.595 230.46 246.064 229.346 247.327 228.264C247.549 228.068 247.836 227.961 248.132 227.961Z" fill="#263238"/>
<path d="M232.026 226.298L237.179 224.791C237.271 224.765 237.369 224.771 237.457 224.809C237.545 224.846 237.617 224.913 237.662 224.997L239.595 228.862C239.64 228.96 239.663 229.067 239.662 229.175C239.662 229.283 239.637 229.389 239.591 229.487C239.545 229.584 239.479 229.671 239.396 229.74C239.313 229.809 239.216 229.859 239.112 229.887C237.237 230.402 235.981 230.718 233.636 231.401C232.019 231.871 230.37 232.637 228.773 233.146C227.665 233.501 225.062 233.513 223.716 233.513C221.725 233.513 221.281 231.413 222.137 231.317C224.295 231.078 224.585 231.188 225.777 230.589C227.727 229.736 229.494 228.516 230.982 226.994C231.263 226.674 231.623 226.434 232.026 226.298Z" fill="#263238"/>
<path d="M194.554 88.1006L189.22 85.8652L187.023 91.7789C189.21 92.1119 191.434 92.1119 193.62 91.7789L194.554 88.1006Z" fill="#FFB7AD"/>
<path d="M185.251 85.7109L185.109 89.6405L187.023 91.7663L189.219 85.8527L185.251 85.7109Z" fill="#FFB7AD"/>
<path d="M233.432 216.064L228.816 217.846L230.86 223.14L235.476 221.358L233.432 216.064Z" fill="#CF6F64"/>
<path d="M251.538 217.293H246.688L247.609 223.084H252.459L251.538 217.293Z" fill="#CF6F64"/>
<path opacity="0.2" d="M217.93 97.7765C218.026 98.9425 218.136 100.134 218.278 101.358L237.565 95.0967C240.577 94.204 243.194 92.3112 244.986 89.7306C245.063 88.0106 245.16 86.2004 245.308 84.3129C245.372 83.3982 245.45 82.4577 245.533 81.5043C245.617 80.5509 245.733 79.4944 245.855 78.4766L217.93 97.7765Z" fill="black"/>
<path d="M224.23 76.6462L223.586 76.5689C223.966 73.3479 226.369 70.8098 228.901 70.8742V71.5184C226.684 71.4733 224.572 73.7602 224.23 76.6462Z" fill="white"/>
<path d="M227.664 82.5925H227.555V81.9483C229.771 82.032 231.851 79.7194 232.193 76.8398L232.837 76.9171C232.496 80.0672 230.17 82.5925 227.664 82.5925Z" fill="white"/>
<path d="M239.705 49.4688C238.796 53.0182 237.727 59.5181 240.065 61.8823C240.065 61.8823 238.429 65.4834 231.839 65.4834C225.816 65.4834 229.043 61.8823 229.043 61.8823C233.05 60.9418 233.121 58.0172 232.593 55.2471L239.705 49.4688Z" fill="#FFB7AD"/>
<path d="M236.804 51.8262L232.598 55.2468C232.728 55.8834 232.803 56.5299 232.823 57.1794C234.054 58.4034 236.521 55.3048 236.772 53.7201C236.9 53.0962 236.911 52.454 236.804 51.8262Z" fill="#CF6F64"/>
<path d="M225.365 49.4218C225.658 49.9292 226.052 50.3706 226.523 50.7187C226.994 51.0667 227.532 51.3139 228.103 51.4446C229.649 51.786 230.422 50.3623 229.997 48.9322C229.617 47.6439 228.348 45.911 226.776 46.2073C226.439 46.2767 226.124 46.4257 225.857 46.6419C225.59 46.8581 225.378 47.1352 225.24 47.45C225.102 47.7648 225.041 48.1081 225.063 48.4511C225.085 48.7942 225.188 49.1271 225.365 49.4218Z" fill="#CF6F64"/>
<path d="M227.921 38.0648C225.512 39.1663 224.661 48.739 227.689 50.1562C230.717 51.5735 232.482 35.9711 227.921 38.0648Z" fill="#263238"/>
<path d="M240.44 44.1279C239.86 48.9335 239.795 51.7616 237.219 54.2224C236.42 55.039 235.412 55.619 234.304 55.8985C233.197 56.178 232.034 56.146 230.943 55.8061C229.853 55.4662 228.878 54.8316 228.125 53.9724C227.373 53.1131 226.873 52.0627 226.68 50.937C225.9 46.6209 226.976 39.4897 231.795 37.5765C232.807 37.1299 233.92 36.9622 235.019 37.0909C236.118 37.2196 237.163 37.6398 238.045 38.3082C238.927 38.9765 239.614 39.8685 240.035 40.8918C240.456 41.9151 240.596 43.0324 240.44 44.1279Z" fill="#FFB7AD"/>
<path d="M232.523 40.5522C236.092 39.6439 238.714 39.0254 237.773 41.9952C236.53 45.9634 235.035 49.8028 237.039 49.9767C238.263 50.0862 243.674 47.7929 242.985 45.4674C242.386 43.4446 244.917 42.8906 245.368 41.8663C247.037 38.1558 242.263 38.6454 243.113 36.3907C243.964 34.136 239.248 30.5028 236.672 32.313C232.478 35.2376 225.282 35.1925 229.064 30.3804C231.776 26.9468 226.938 27.649 226.938 27.649C226.938 27.649 229.862 29.3819 224.941 32.0617C219.736 34.9219 224.509 42.6071 232.523 40.5522Z" fill="#263238"/>
<path d="M242.335 49.4218C241.63 50.4413 240.572 51.1623 239.365 51.4446C237.774 51.786 237.162 50.3623 237.761 48.9322C238.296 47.6439 239.765 45.911 241.285 46.2073C242.805 46.5036 243.153 48.1592 242.335 49.4218Z" fill="#FFB7AD"/>
<path d="M218.757 105.152C218.757 105.152 214.402 144.126 214.061 158.917C213.713 174.3 228.819 222.299 228.819 222.299L236.549 219.078C236.549 219.078 227.531 175.221 228.819 160.115C230.185 143.643 235.828 105.178 235.828 105.178L218.757 105.152Z" fill="#583AFB"/>
<path opacity="0.2" d="M229.578 115.852C226.106 123.054 228.445 137.297 230.326 145.736C231.041 139.777 231.891 133.309 232.696 127.325C232.619 118.126 231.904 111.02 229.578 115.852Z" fill="black"/>
<path d="M236.206 216.525C236.245 216.525 237.121 218.986 237.121 218.986L228.205 222.735L226.801 220.12L236.206 216.525Z" fill="#583AFB"/>
<path d="M227.961 105.152C227.961 105.152 231.291 142.219 233.495 156.101C235.917 171.311 245.412 221.964 245.412 221.964H254.295C254.295 221.964 248.974 172.541 247.97 157.48C246.874 141.143 244.697 105.152 244.697 105.152H227.961Z" fill="#583AFB"/>
<path d="M254.431 219.65C254.47 219.65 254.727 222.131 254.727 222.131H244.961L244.266 219.283L254.431 219.65Z" fill="#583AFB"/>
<path opacity="0.2" d="M251.029 216.713C251.009 216.713 250.989 216.706 250.974 216.693C250.959 216.68 250.948 216.662 250.945 216.642C250.894 216.191 246.095 171.549 245.193 158.021C244.213 143.346 242.242 110.795 242.223 110.467C242.222 110.456 242.223 110.445 242.227 110.435C242.23 110.425 242.236 110.416 242.243 110.408C242.25 110.4 242.259 110.394 242.269 110.389C242.279 110.385 242.29 110.383 242.3 110.383C242.321 110.383 242.342 110.391 242.357 110.405C242.373 110.419 242.382 110.439 242.384 110.46C242.384 110.789 244.375 143.314 245.354 158.014C246.256 171.542 251.055 216.153 251.1 216.636C251.102 216.646 251.101 216.657 251.099 216.668C251.096 216.678 251.091 216.688 251.084 216.697C251.078 216.705 251.069 216.712 251.06 216.717C251.05 216.722 251.04 216.725 251.029 216.726V216.713Z" fill="black"/>
<path d="M233.068 45.4664C233.068 45.8594 232.823 46.175 232.566 46.175C232.308 46.175 232.121 45.8594 232.147 45.4664C232.173 45.0735 232.392 44.7578 232.649 44.7578C232.907 44.7578 233.094 45.0799 233.068 45.4664Z" fill="#263238"/>
<path d="M228.652 45.4664C228.652 45.8594 228.4 46.175 228.149 46.175C227.898 46.175 227.705 45.8594 227.724 45.4664C227.743 45.0735 227.975 44.7578 228.233 44.7578C228.491 44.7578 228.677 45.0799 228.652 45.4664Z" fill="#263238"/>
<path d="M230.042 45.668C229.504 46.8679 228.811 47.992 227.98 49.0113C228.625 49.6555 229.829 49.3592 229.829 49.3592L230.042 45.668Z" fill="#DF5753"/>
<path d="M230.157 51.0006C230.142 51.0006 230.127 50.9975 230.113 50.9916C230.099 50.9857 230.087 50.9771 230.077 50.9662C230.067 50.9554 230.059 50.9425 230.053 50.9285C230.048 50.9144 230.046 50.8995 230.047 50.8846C230.049 50.8533 230.062 50.8238 230.085 50.8022C230.108 50.7806 230.138 50.7686 230.169 50.7686C230.662 50.7721 231.149 50.665 231.595 50.4555C232.041 50.2459 232.434 49.9391 232.746 49.5576C232.769 49.5381 232.797 49.5273 232.827 49.5273C232.856 49.5273 232.885 49.5381 232.907 49.5576C232.928 49.5792 232.94 49.608 232.94 49.6381C232.94 49.6681 232.928 49.697 232.907 49.7186C232.574 50.1241 232.153 50.4497 231.677 50.6715C231.201 50.8933 230.682 51.0058 230.157 51.0006Z" fill="#263238"/>
<path d="M233.856 44.2814C233.825 44.2972 233.791 44.3055 233.756 44.3055C233.722 44.3055 233.688 44.2972 233.657 44.2814C233.416 44.1256 233.141 44.0287 232.856 43.9985C232.571 43.9683 232.282 44.0056 232.014 44.1075C231.988 44.1206 231.959 44.1283 231.93 44.1301C231.901 44.132 231.872 44.1281 231.844 44.1184C231.816 44.1088 231.791 44.0938 231.769 44.0742C231.748 44.0546 231.73 44.0309 231.718 44.0044C231.694 43.9471 231.693 43.8827 231.716 43.8249C231.739 43.7672 231.783 43.7206 231.84 43.6952C232.177 43.5576 232.542 43.5034 232.904 43.537C233.266 43.5707 233.615 43.6912 233.921 43.8885C233.945 43.9052 233.967 43.9268 233.983 43.9518C233.999 43.9768 234.01 44.0048 234.016 44.0342C234.021 44.0635 234.021 44.0937 234.014 44.1228C234.008 44.152 233.996 44.1796 233.979 44.2041C233.946 44.241 233.904 44.2679 233.856 44.2814Z" fill="#263238"/>
<path d="M226.943 42.9941C226.909 42.9857 226.877 42.9679 226.853 42.9425C226.831 42.9215 226.814 42.8965 226.803 42.8688C226.791 42.8412 226.785 42.8115 226.785 42.7815C226.785 42.7515 226.791 42.7218 226.803 42.6941C226.814 42.6665 226.831 42.6414 226.853 42.6204C227.1 42.3435 227.407 42.1273 227.751 41.9888C228.096 41.8502 228.467 41.793 228.837 41.8216C228.867 41.8262 228.895 41.8368 228.92 41.8528C228.946 41.8688 228.967 41.8898 228.984 41.9146C229.001 41.9393 229.013 41.9673 229.019 41.9967C229.024 42.0262 229.024 42.0565 229.017 42.0857C229.003 42.1454 228.968 42.1979 228.919 42.2335C228.869 42.2691 228.808 42.2853 228.747 42.279C228.454 42.2606 228.161 42.309 227.89 42.4206C227.619 42.5322 227.376 42.7041 227.181 42.9232C227.152 42.9558 227.114 42.9797 227.072 42.9922C227.03 43.0047 226.985 43.0053 226.943 42.9941Z" fill="#263238"/>
<path d="M251.177 69.3215L244.477 67.5371C244.477 67.5371 237.906 83.7128 235.581 84.7628C232.424 86.2058 224.43 91.2047 221.029 93.5689C220.842 94.3741 220.99 96.5064 221.415 97.0926C227.213 96.0361 238.312 91.7651 240.631 89.5942C245.92 84.6404 251.177 69.3215 251.177 69.3215Z" fill="#FFB7AD"/>
<path d="M246.501 228.811C246.174 228.837 245.848 228.748 245.58 228.56C245.497 228.485 245.435 228.389 245.4 228.283C245.365 228.177 245.358 228.064 245.38 227.954C245.384 227.886 245.406 227.82 245.445 227.763C245.484 227.706 245.537 227.661 245.599 227.632C246.14 227.355 247.654 228.315 247.828 228.424C247.847 228.436 247.862 228.454 247.87 228.475C247.878 228.496 247.879 228.519 247.873 228.54C247.867 228.563 247.856 228.583 247.84 228.6C247.825 228.617 247.805 228.63 247.783 228.637C247.363 228.74 246.933 228.798 246.501 228.811ZM245.857 227.806C245.808 227.795 245.757 227.795 245.708 227.806C245.684 227.818 245.663 227.838 245.65 227.862C245.636 227.886 245.629 227.914 245.631 227.941C245.614 228.016 245.617 228.094 245.639 228.168C245.662 228.241 245.704 228.308 245.76 228.36C246.011 228.585 246.643 228.611 247.474 228.45C246.979 228.124 246.421 227.905 245.837 227.806H245.857Z" fill="#583AFB"/>
<path d="M247.751 228.636C247.734 228.641 247.716 228.641 247.699 228.636C247.216 228.365 246.308 227.302 246.443 226.761C246.463 226.675 246.512 226.599 246.581 226.544C246.65 226.489 246.735 226.459 246.823 226.458C246.91 226.447 246.998 226.454 247.081 226.48C247.164 226.505 247.241 226.549 247.306 226.607C247.841 227.064 247.873 228.468 247.873 228.539C247.876 228.56 247.872 228.582 247.862 228.601C247.852 228.619 247.835 228.634 247.815 228.642C247.794 228.647 247.771 228.644 247.751 228.636ZM246.888 226.671H246.843C246.695 226.671 246.675 226.755 246.669 226.787C246.591 227.103 247.165 227.908 247.641 228.288C247.639 227.744 247.471 227.213 247.158 226.768C247.084 226.702 246.987 226.668 246.888 226.671Z" fill="#583AFB"/>
<path d="M229.396 228.005C229.001 228.142 228.572 228.142 228.178 228.005C228.089 227.956 228.013 227.886 227.958 227.8C227.902 227.715 227.87 227.617 227.862 227.515C227.854 227.451 227.862 227.387 227.886 227.327C227.91 227.267 227.948 227.214 227.998 227.174C228.513 226.71 230.62 227.174 230.858 227.264C230.881 227.27 230.901 227.283 230.915 227.302C230.929 227.321 230.936 227.344 230.935 227.367C230.936 227.391 230.93 227.415 230.917 227.436C230.905 227.456 230.886 227.473 230.864 227.483C230.39 227.697 229.899 227.872 229.396 228.005ZM228.346 227.238C228.272 227.253 228.203 227.286 228.146 227.335C228.125 227.35 228.11 227.371 228.1 227.395C228.091 227.419 228.089 227.445 228.094 227.47C228.099 227.538 228.12 227.603 228.156 227.66C228.192 227.718 228.241 227.765 228.3 227.799C228.642 227.979 229.434 227.837 230.459 227.406C229.769 227.232 229.054 227.175 228.346 227.238Z" fill="#583AFB"/>
<path d="M230.847 227.484H230.795C230.151 227.368 228.863 226.627 228.824 226.073C228.824 225.945 228.882 225.764 229.191 225.661C229.296 225.624 229.407 225.608 229.517 225.615C229.628 225.621 229.736 225.65 229.836 225.7C230.531 226.041 230.899 227.278 230.918 227.336C230.922 227.355 230.922 227.376 230.916 227.395C230.911 227.414 230.9 227.432 230.886 227.445C230.876 227.461 230.863 227.475 230.847 227.484ZM229.32 225.854H229.256C229.056 225.925 229.056 226.009 229.056 226.035C229.056 226.37 229.99 226.982 230.641 227.188C230.491 226.67 230.174 226.217 229.739 225.899C229.61 225.834 229.461 225.818 229.32 225.854Z" fill="#583AFB"/>
<path d="M221.577 93.1895L214.858 96.2816L214.078 98.2141L216.558 99.8826C216.558 99.8826 221.196 99.3801 222.517 96.3975L221.577 93.1895Z" fill="#FFB7AD"/>
<path d="M221.859 97.2027C221.709 95.9118 221.283 94.6682 220.609 93.5566L221.672 92.7578C222.472 94.0387 222.982 95.4787 223.167 96.9773L221.859 97.2027Z" fill="#263238"/>
<path d="M223.008 94.1029C223.15 94.3263 223.22 94.5881 223.208 94.8525C223.196 95.117 223.103 95.3714 222.941 95.581C222.78 95.7907 222.557 95.9454 222.305 96.0242C222.052 96.103 221.781 96.102 221.529 96.0214C221.277 95.9408 221.056 95.7845 220.895 95.5737C220.735 95.3629 220.644 95.1079 220.634 94.8433C220.624 94.5788 220.695 94.3175 220.839 94.0951C220.983 93.8728 221.191 93.7 221.437 93.6005C221.712 93.4602 222.032 93.4342 222.326 93.5283C222.62 93.6224 222.866 93.8289 223.008 94.1029Z" fill="#263238"/>
<path d="M210.316 98.7807L211.212 99.6826L217.241 97.1058L214.858 96.2812L210.316 98.7807Z" fill="#FFB7AD"/>
<path opacity="0.2" d="M236.206 216.525C236.245 216.525 237.121 218.986 237.121 218.986L228.205 222.735L226.801 220.12L236.206 216.525Z" fill="black"/>
<path opacity="0.2" d="M254.431 219.65C254.47 219.65 254.727 222.131 254.727 222.131H244.961L244.266 219.283L254.431 219.65Z" fill="black"/>
<path d="M252.923 67.4656C254.694 73.1796 247.769 80.9936 247.769 80.9936L238.203 77.0898C239.337 73.7872 240.644 70.5467 242.12 67.3818C245.057 61.0494 251.132 61.7001 252.923 67.4656Z" fill="#583AFB"/>
<path d="M252.923 67.4656C254.694 73.1796 247.769 80.9936 247.769 80.9936L238.203 77.0898C239.337 73.7872 240.644 70.5467 242.12 67.3818C245.057 61.0494 251.132 61.7001 252.923 67.4656Z" fill="#00C7FF"/>
<path d="M157.866 10.2178H153.75V10.8813H157.866V10.2178Z" fill="#583AFB"/>
<path d="M211.151 36.4792L210.652 47.5352L211.315 47.565L211.813 36.509L211.151 36.4792Z" fill="#583AFB"/>
<path d="M209.873 13.1943H133.858L126.785 171.485H202.8L209.873 13.1943Z" fill="#583AFB"/>
<path opacity="0.56" d="M207.603 15.3711H131.589L124.516 173.662H200.53L207.603 15.3711Z" fill="#FAFAFA"/>
<path opacity="0.07" d="M205.336 17.542H129.322L122.242 175.833H198.257L205.336 17.542Z" fill="#583AFB"/>
<path d="M196.686 86.5801H131.803L131.262 98.6909H196.145L196.686 86.5801Z" fill="white"/>
<path d="M167.484 77.7422H132.195L131.957 83.1598H167.246L167.484 77.7422Z" fill="#583AFB"/>
<path d="M195.221 119.266H130.338L129.797 131.376H194.68L195.221 119.266Z" fill="white"/>
<path opacity="0.47" d="M183.325 147.732H139.694L139.043 162.246H182.674L183.325 147.732Z" fill="#583AFB"/>
<path d="M180.405 164.503H136.774C136.755 164.508 136.735 164.508 136.716 164.503C136.709 164.484 136.709 164.463 136.716 164.445L137.36 149.925C137.36 149.915 137.362 149.905 137.366 149.896C137.37 149.887 137.376 149.879 137.383 149.872C137.39 149.865 137.399 149.86 137.408 149.857C137.417 149.854 137.427 149.853 137.437 149.854H181.068C181.076 149.85 181.085 149.848 181.094 149.848C181.103 149.848 181.112 149.85 181.12 149.854C181.124 149.862 181.127 149.87 181.127 149.879C181.127 149.889 181.124 149.897 181.12 149.905L180.489 164.458C180.481 164.473 180.469 164.485 180.454 164.493C180.439 164.501 180.422 164.504 180.405 164.503ZM136.851 164.348H180.327L180.972 149.983H137.495L136.851 164.348Z" fill="white"/>
<path d="M159.865 110.428H130.734L130.496 115.852H159.62L159.865 110.428Z" fill="#583AFB"/>
<path d="M182.493 47.459C182.327 50.9836 181.074 54.3703 178.905 57.154C177.3 59.2568 175.235 60.9638 172.867 62.1442C170.5 63.3245 167.894 63.9468 165.248 63.9632C163.111 63.9795 160.992 63.5579 159.024 62.7246C157.055 61.8912 155.278 60.6636 153.802 59.1174C152.326 57.5712 151.182 55.7392 150.441 53.7342C149.699 51.7291 149.376 49.5936 149.492 47.459C149.718 43.0295 151.628 38.8539 154.831 35.7861C158.034 32.7183 162.289 30.9901 166.724 30.9548C168.863 30.9348 170.984 31.3538 172.954 32.1857C174.925 33.0177 176.705 34.2449 178.183 35.7917C179.661 37.3384 180.806 39.1718 181.547 41.1786C182.289 43.1854 182.611 45.3228 182.493 47.459Z" fill="white"/>
<path d="M184.044 34.407C184.002 35.3442 183.669 36.245 183.091 36.9838C182.663 37.5423 182.113 37.9957 181.484 38.3094C180.854 38.6231 180.161 38.7889 179.457 38.794C178.776 38.7981 178.104 38.6353 177.5 38.3198C176.895 38.0042 176.378 37.5456 175.992 36.9838C175.481 36.2247 175.228 35.3212 175.27 34.407C175.333 33.231 175.841 32.123 176.692 31.309C177.543 30.4951 178.673 30.0364 179.85 30.0265C180.419 30.0214 180.982 30.1326 181.505 30.3533C182.029 30.574 182.502 30.8996 182.894 31.31C183.287 31.7204 183.592 32.2069 183.79 32.7396C183.987 33.2722 184.074 33.8397 184.044 34.407Z" fill="#00C7FF"/>
<path d="M138.793 92.6358C138.762 93.1549 138.536 93.6429 138.159 94.0016C137.783 94.3602 137.284 94.5627 136.764 94.5683C136.513 94.5713 136.264 94.5228 136.032 94.4257C135.801 94.3286 135.592 94.1851 135.418 94.004C135.244 93.8228 135.109 93.608 135.021 93.3726C134.934 93.1373 134.896 92.8865 134.909 92.6358C134.937 92.1156 135.162 91.6258 135.54 91.2665C135.917 90.9072 136.417 90.7057 136.938 90.7032C137.189 90.7011 137.437 90.7503 137.669 90.8477C137.9 90.9451 138.108 91.0887 138.282 91.2696C138.456 91.4505 138.591 91.665 138.679 91.8999C138.767 92.1349 138.806 92.3852 138.793 92.6358Z" fill="#263238"/>
<path d="M147.474 92.6358C147.445 93.1555 147.219 93.6444 146.842 94.0034C146.465 94.3623 145.966 94.5643 145.445 94.5684C145.195 94.5705 144.946 94.5213 144.715 94.4239C144.485 94.3264 144.276 94.1827 144.103 94.0017C143.93 93.8206 143.796 93.6061 143.708 93.3712C143.621 93.1363 143.583 92.886 143.596 92.6358C143.624 92.1168 143.849 91.6279 144.225 91.2688C144.601 90.9097 145.099 90.7074 145.619 90.7033C145.87 90.7003 146.119 90.7488 146.351 90.8459C146.582 90.943 146.791 91.0865 146.965 91.2676C147.139 91.4488 147.274 91.6636 147.362 91.899C147.449 92.1343 147.488 92.3851 147.474 92.6358Z" fill="#263238"/>
<path d="M156.164 92.6358C156.135 93.1555 155.908 93.6444 155.532 94.0034C155.155 94.3623 154.655 94.5643 154.135 94.5684C153.884 94.5705 153.635 94.5213 153.404 94.4239C153.173 94.3265 152.964 94.1829 152.791 94.002C152.617 93.8211 152.482 93.6066 152.394 93.3717C152.306 93.1367 152.267 92.8863 152.28 92.6358C152.309 92.1162 152.535 91.6273 152.912 91.2683C153.289 90.9094 153.788 90.7073 154.309 90.7033C154.56 90.7003 154.809 90.7488 155.04 90.8459C155.272 90.943 155.481 91.0865 155.655 91.2676C155.829 91.4488 155.964 91.6636 156.051 91.899C156.139 92.1343 156.177 92.3851 156.164 92.6358Z" fill="#263238"/>
<path d="M137.328 125.321C137.297 125.84 137.071 126.328 136.694 126.687C136.317 127.046 135.819 127.248 135.299 127.254C135.048 127.256 134.799 127.207 134.568 127.109C134.337 127.012 134.128 126.868 133.955 126.687C133.781 126.507 133.646 126.292 133.558 126.057C133.47 125.822 133.431 125.572 133.444 125.321C133.473 124.802 133.699 124.313 134.076 123.954C134.453 123.595 134.952 123.393 135.473 123.389C135.724 123.387 135.972 123.436 136.203 123.533C136.434 123.631 136.643 123.774 136.817 123.955C136.991 124.136 137.126 124.351 137.213 124.585C137.301 124.82 137.34 125.071 137.328 125.321Z" fill="#263238"/>
<path d="M146.013 125.321C145.984 125.84 145.759 126.328 145.383 126.687C145.008 127.045 144.51 127.248 143.991 127.254C143.74 127.257 143.491 127.208 143.259 127.111C143.027 127.014 142.818 126.871 142.644 126.69C142.47 126.508 142.336 126.294 142.248 126.058C142.16 125.823 142.122 125.572 142.135 125.321C142.165 124.802 142.391 124.313 142.768 123.954C143.145 123.595 143.644 123.393 144.165 123.389C144.415 123.387 144.663 123.436 144.894 123.533C145.125 123.631 145.333 123.774 145.507 123.955C145.68 124.137 145.814 124.351 145.901 124.586C145.988 124.821 146.027 125.071 146.013 125.321Z" fill="#263238"/>
<path d="M154.722 125.321C154.693 125.841 154.467 126.33 154.09 126.689C153.713 127.048 153.214 127.25 152.693 127.254C152.443 127.255 152.194 127.205 151.964 127.108C151.733 127.01 151.525 126.866 151.351 126.686C151.178 126.505 151.043 126.291 150.954 126.056C150.866 125.822 150.826 125.572 150.838 125.321C150.869 124.802 151.095 124.314 151.472 123.956C151.849 123.597 152.347 123.394 152.867 123.389C153.118 123.386 153.367 123.434 153.599 123.531C153.83 123.628 154.039 123.772 154.213 123.953C154.387 124.134 154.522 124.349 154.61 124.585C154.697 124.82 154.736 125.071 154.722 125.321Z" fill="#263238"/>
<path d="M163.394 125.321C163.363 125.84 163.137 126.328 162.76 126.687C162.384 127.046 161.885 127.248 161.365 127.254C161.114 127.255 160.866 127.205 160.636 127.107C160.405 127.01 160.196 126.866 160.023 126.685C159.849 126.505 159.714 126.291 159.626 126.056C159.538 125.822 159.498 125.572 159.51 125.321C159.541 124.802 159.767 124.314 160.144 123.956C160.52 123.597 161.019 123.394 161.539 123.389C161.79 123.387 162.038 123.436 162.269 123.533C162.501 123.631 162.709 123.774 162.883 123.955C163.057 124.136 163.192 124.351 163.28 124.585C163.367 124.82 163.406 125.071 163.394 125.321Z" fill="#263238"/>
<path d="M172.114 125.321C172.083 125.84 171.856 126.328 171.479 126.687C171.103 127.046 170.604 127.248 170.084 127.254C169.833 127.257 169.584 127.208 169.353 127.111C169.121 127.014 168.912 126.871 168.738 126.69C168.564 126.508 168.429 126.294 168.342 126.058C168.254 125.823 168.216 125.572 168.229 125.321C168.259 124.802 168.485 124.313 168.862 123.954C169.238 123.595 169.738 123.393 170.258 123.389C170.509 123.387 170.758 123.436 170.989 123.533C171.22 123.631 171.429 123.774 171.602 123.955C171.776 124.136 171.911 124.351 171.999 124.585C172.087 124.82 172.126 125.071 172.114 125.321Z" fill="#263238"/>
<path d="M170.796 46.598C173.492 43.9613 173.635 39.735 171.116 37.1582C168.596 34.5815 164.367 34.6301 161.671 37.2668C158.975 39.9035 158.832 44.1299 161.352 46.7066C163.871 49.2833 168.1 49.2347 170.796 46.598Z" fill="#583AFB"/>
<path d="M178.906 57.1535C177.301 59.2563 175.236 60.9633 172.868 62.1436C170.501 63.324 167.895 63.9462 165.249 63.9626C162.684 63.9844 160.153 63.3747 157.879 62.1872C155.606 60.9997 153.659 59.271 152.211 57.1535C155.342 54.0356 160.296 52 165.784 52C171.273 52 176.052 54.0356 178.906 57.1535Z" fill="#583AFB"/>
<path d="M170.796 46.598C173.492 43.9613 173.635 39.735 171.116 37.1582C168.596 34.5815 164.367 34.6301 161.671 37.2668C158.975 39.9035 158.832 44.1299 161.352 46.7066C163.871 49.2833 168.1 49.2347 170.796 46.598Z" fill="#583AFB"/>
<path d="M178.906 57.1535C177.301 59.2563 175.236 60.9633 172.868 62.1436C170.501 63.324 167.895 63.9462 165.249 63.9626C162.684 63.9844 160.153 63.3747 157.879 62.1872C155.606 60.9997 153.659 59.271 152.211 57.1535C155.342 54.0356 160.296 52 165.784 52C171.273 52 176.052 54.0356 178.906 57.1535Z" fill="#583AFB"/>
<path d="M84.1281 101.61C83.5161 102.949 82.8719 104.425 82.3114 105.855C81.751 107.285 81.1777 108.76 80.6816 110.229C79.6689 113.123 78.8975 116.097 78.3754 119.119L78.2337 120.066C78.2202 120.228 78.2355 120.392 78.2788 120.549C78.4308 121.083 78.6703 121.588 78.9874 122.043C79.8147 123.223 80.7744 124.303 81.8476 125.264C82.9792 126.317 84.1662 127.308 85.4036 128.234C86.6404 129.187 87.9417 130.115 89.2236 130.991L88.019 133.252C84.9579 131.918 82.0524 130.253 79.3546 128.285C77.9153 127.236 76.6164 126.006 75.4895 124.626C74.8215 123.805 74.3006 122.875 73.9498 121.876C73.7459 121.252 73.6415 120.6 73.6406 119.943C73.6406 119.789 73.6406 119.563 73.6406 119.454V119.138L73.705 118.494C74.0744 115.138 74.7801 111.827 75.8116 108.612C76.314 107.027 76.8487 105.449 77.4607 103.909C78.0727 102.37 78.704 100.862 79.4834 99.2969L84.1281 101.61Z" fill="#FFB7AD"/>
<path d="M88.3154 130.591L92.8698 128.285L91.6909 133.284C91.6909 133.284 88.5666 134.16 87.1172 132.64L88.3154 130.591Z" fill="#FFB7AD"/>
<path d="M97.0343 129.103L95.8232 133.239L91.6875 133.284L92.8664 128.285L97.0343 129.103Z" fill="#FFB7AD"/>
<path d="M103.466 77.4902C103.71 78.383 104.049 79.2469 104.477 80.067C104.352 80.209 104.191 80.3145 104.011 80.3724C103.83 80.4302 103.638 80.4382 103.453 80.3955L103.466 77.4902Z" fill="#DF5753"/>
<path d="M103.331 77.5305C103.598 77.5305 103.814 77.1988 103.814 76.7897C103.814 76.3805 103.598 76.0488 103.331 76.0488C103.064 76.0488 102.848 76.3805 102.848 76.7897C102.848 77.1988 103.064 77.5305 103.331 77.5305Z" fill="#263238"/>
<path d="M103.188 76.0739L104.167 75.7969C104.167 75.7969 103.69 76.557 103.188 76.0739Z" fill="#263238"/>
<path d="M90.8847 82.2188C91.4709 85.2142 92.0571 90.7092 89.957 92.7126C89.957 92.7126 90.7816 95.7532 96.3538 95.7532C102.48 95.7532 99.2785 92.7126 99.2785 92.7126C95.9351 91.9138 96.0189 89.4337 96.6051 87.1017L90.8847 82.2188Z" fill="#FFB7AD"/>
<path d="M89.2545 75.392C89.5637 80.3974 89.5895 82.5232 92.1147 85.0936C95.9219 88.9587 102.003 87.4899 103.195 82.5168C104.271 78.0074 103.588 70.5864 98.6855 68.5958C97.6094 68.1525 96.438 67.9911 95.2821 68.1267C94.1262 68.2624 93.0241 68.6907 92.0799 69.3711C91.1357 70.0515 90.3807 70.9615 89.8863 72.0151C89.3919 73.0687 89.1744 74.231 89.2545 75.392Z" fill="#FFB7AD"/>
<path d="M89.7484 69.7608C87.236 70.6756 83.8862 69.9927 85.2004 77.7424C86.5918 85.9494 84.4531 88.6485 84.4531 88.6485C84.4531 88.6485 93.9807 90.6777 103.708 88.5261C103.708 88.5261 100.738 83.334 101.569 79.5075C102.632 74.676 101.795 72.8916 101.795 72.8916C101.795 72.8916 93.2786 68.4725 89.7484 69.7608Z" fill="#263238"/>
<path d="M100.379 78.0009C100.382 78.9527 100.654 79.8842 101.165 80.6872C101.848 81.7308 102.653 81.3314 102.853 80.2234C103.033 79.2507 102.898 77.5307 102.028 76.8607C101.158 76.1908 100.392 76.8478 100.379 78.0009Z" fill="#FFB7AD"/>
<path d="M87.5667 70.6048C86.8452 68.5756 90.2852 65.4513 97.5645 66.7397C104.844 68.028 105.16 74.0899 105.16 74.0899L103.691 72.3377L103.755 74.1801L96.2762 75.6166L87.5667 70.6048Z" fill="#263238"/>
<path d="M88.1839 93.0545C88.1409 92.7604 88.2145 92.4611 88.389 92.2204C88.5634 91.9798 88.825 91.8168 89.1179 91.7661C91.3855 91.3925 96.539 90.6324 99.1287 90.9931C101.061 91.2637 101.564 92.3846 101.647 93.3058C101.661 93.4671 101.639 93.6293 101.584 93.7816C101.529 93.9338 101.443 94.0726 101.33 94.1886C101.217 94.3045 101.08 94.395 100.93 94.4538C100.779 94.5126 100.617 94.5385 100.456 94.5297L89.2597 94.0273C88.9957 94.0139 88.7445 93.9098 88.5484 93.7326C88.3524 93.5553 88.2236 93.3158 88.1839 93.0545Z" fill="#583AFB"/>
<path opacity="0.6" d="M88.1839 93.0545C88.1409 92.7604 88.2145 92.4611 88.389 92.2204C88.5634 91.9798 88.825 91.8168 89.1179 91.7661C91.3855 91.3925 96.539 90.6324 99.1287 90.9931C101.061 91.2637 101.564 92.3846 101.647 93.3058C101.661 93.4671 101.639 93.6293 101.584 93.7816C101.529 93.9338 101.443 94.0726 101.33 94.1886C101.217 94.3045 101.08 94.395 100.93 94.4538C100.779 94.5126 100.617 94.5385 100.456 94.5297L89.2597 94.0273C88.9957 94.0139 88.7445 93.9098 88.5484 93.7326C88.3524 93.5553 88.2236 93.3158 88.1839 93.0545Z" fill="black"/>
<path d="M94.6602 205.596L98.8152 208.482L105.766 199.057L101.611 196.178L94.6602 205.596Z" fill="#FFB7AD"/>
<path d="M84.9688 205.409L89.3557 207.908L95.5077 197.943L91.1208 195.443L84.9688 205.409Z" fill="#FFB7AD"/>
<path d="M105.76 199.057L102.178 203.914L98.0234 201.035L101.605 196.178L105.76 199.057Z" fill="#CF6F64"/>
<path d="M91.1147 195.443L95.5081 197.949L92.3387 203.083L87.9453 200.578L91.1147 195.443Z" fill="#CF6F64"/>
<path d="M98.1653 124.518C98.1653 124.518 114.386 144.958 111.339 164.509C108.885 180.298 94.648 201.679 94.648 201.679L87.9548 198.355C92.6726 188.901 96.6986 179.118 100.001 169.083C101.02 165.967 101.317 162.661 100.871 159.413C100.424 156.166 99.2458 153.062 97.4244 150.337C89.2046 138.335 76.0373 145.48 84.8949 124.518H98.1653Z" fill="#583AFB"/>
<path opacity="0.6" d="M98.1653 124.518C98.1653 124.518 114.386 144.958 111.339 164.509C108.885 180.298 94.648 201.679 94.648 201.679L87.9548 198.355C92.6726 188.901 96.6986 179.118 100.001 169.083C101.02 165.967 101.317 162.661 100.871 159.413C100.424 156.166 99.2458 153.062 97.4244 150.337C89.2046 138.335 76.0373 145.48 84.8949 124.518H98.1653Z" fill="black"/>
<path opacity="0.4" d="M106.119 137.646L103.762 135.301C103.762 135.488 108.329 163.684 109.611 171.607C110.367 169.293 110.947 166.924 111.344 164.521C112.851 154.929 109.701 145.131 106.119 137.646Z" fill="black"/>
<path d="M105.403 124.518C105.403 124.518 124.934 150.208 125.488 165.611C125.946 178.494 104.23 203.457 104.23 203.457L97.917 199.373C97.917 199.373 110.627 181.644 113.829 167.163C112.592 152.81 86.4375 124.518 86.4375 124.518H105.403Z" fill="#583AFB"/>
<path opacity="0.6" d="M105.403 124.518C105.403 124.518 124.934 150.208 125.488 165.611C125.946 178.494 104.23 203.457 104.23 203.457L97.917 199.373C97.917 199.373 110.627 181.644 113.829 167.163C112.592 152.81 86.4375 124.518 86.4375 124.518H105.403Z" fill="black"/>
<path d="M81.2391 93.8601C79.1519 94.3561 77.1484 101.945 77.1484 101.945L85.3103 107.395C85.3103 107.395 88.0288 101.391 87.0754 98.7624C86.0898 96.0246 83.8609 93.2353 81.2391 93.8601Z" fill="#00C7FF"/>
<path opacity="0.2" d="M82.8364 98.75L82.2695 105.366L85.3037 107.401C86.1415 105.515 86.7617 103.54 87.1525 101.514L82.8364 98.75Z" fill="black"/>
<path d="M107.822 94.0086C107.822 94.0086 110.231 94.8525 105.406 124.511H84.8819C85.2297 116.137 85.2362 110.983 81.2422 93.8604C84.116 93.2682 87.0289 92.885 89.9581 92.7138C93.0613 92.4912 96.1764 92.4912 99.2795 92.7138C103.286 93.0809 107.822 94.0086 107.822 94.0086Z" fill="#00C7FF"/>
<path d="M109.906 98.7487C110.37 100.037 110.86 101.422 111.375 102.756C111.891 104.089 112.38 105.461 112.902 106.814L114.48 110.86L114.88 111.871L115.086 112.373L115.182 112.625C115.182 112.67 115.182 112.67 115.182 112.663C115.065 112.497 114.91 112.361 114.731 112.264C114.477 112.114 114.189 112.028 113.894 112.013C113.649 112.005 113.405 112.051 113.179 112.148C112.883 112.283 112.883 112.341 112.889 112.335C112.943 112.292 112.99 112.242 113.031 112.187C113.387 111.718 113.696 111.216 113.952 110.686C114.255 110.093 114.545 109.462 114.834 108.824C115.401 107.535 115.923 106.202 116.445 104.856C116.967 103.509 117.463 102.15 117.946 100.778L119.415 96.668L121.895 97.3122C121.405 100.25 120.774 103.11 120.014 106.022C119.647 107.471 119.215 108.908 118.725 110.357C118.481 111.085 118.21 111.806 117.901 112.547C117.579 113.351 117.182 114.123 116.716 114.853C116.544 115.099 116.355 115.332 116.149 115.549C115.82 115.905 115.42 116.188 114.976 116.38C114.582 116.549 114.155 116.629 113.726 116.612C113.246 116.594 112.779 116.455 112.367 116.206C111.882 115.903 111.479 115.485 111.195 114.989C111.098 114.821 111.014 114.654 110.956 114.531L110.834 114.287L110.589 113.784L110.1 112.786C109.455 111.446 108.811 110.093 108.251 108.734C107.69 107.374 107.098 105.996 106.544 104.611C105.99 103.226 105.494 101.841 105.023 100.346L109.906 98.7487Z" fill="#FFB7AD"/>
<path d="M107.818 94.0075C110.285 94.5937 113.062 101.886 113.062 101.886L105.725 108.128C105.725 108.128 100.977 100.179 101.937 97.557C102.935 94.8256 104.597 93.2409 107.818 94.0075Z" fill="#00C7FF"/>
<path d="M120.583 94.3625L123.159 92.2109L124.95 95.0003L123.63 97.3258C123.63 97.3258 121.53 99.2584 119.674 98.2728C119.38 97.6109 119.309 96.8711 119.473 96.1654C119.637 95.4598 120.027 94.8268 120.583 94.3625Z" fill="#FFB7AD"/>
<path d="M127.811 92.2174L127.618 92.9195L123.54 93.6024L123.141 92.2109L127.811 92.2174Z" fill="#FFB7AD"/>
<path d="M104.736 203.786L97.3789 199.032L98.6995 196.738L106.964 201.821L104.736 203.786Z" fill="#00C7FF"/>
<path d="M92.2382 207.572C91.5927 207.493 90.9725 207.273 90.4216 206.928C90.3989 206.92 90.3791 206.905 90.3652 206.885C90.3512 206.866 90.3438 206.842 90.3438 206.818C90.3438 206.794 90.3512 206.771 90.3652 206.751C90.3791 206.731 90.3989 206.717 90.4216 206.709C90.6213 206.644 92.3542 206.11 92.8566 206.522C92.9131 206.569 92.956 206.63 92.9809 206.699C93.0059 206.768 93.0119 206.843 92.9984 206.915C92.9894 207.031 92.951 207.143 92.8867 207.24C92.8225 207.337 92.7345 207.415 92.6312 207.469C92.5105 207.535 92.3756 207.57 92.2382 207.572ZM90.7888 206.863C91.594 207.276 92.2382 207.424 92.5474 207.269C92.6148 207.232 92.6714 207.178 92.712 207.113C92.7526 207.047 92.7758 206.972 92.7793 206.896C92.7793 206.793 92.7793 206.747 92.7214 206.722C92.4508 206.503 91.4845 206.67 90.7759 206.863H90.7888Z" fill="#263238"/>
<path d="M90.4642 206.974C90.4302 206.974 90.3978 206.96 90.374 206.936C90.3644 206.918 90.3594 206.898 90.3594 206.878C90.3594 206.858 90.3644 206.838 90.374 206.82C90.374 206.762 90.7927 205.364 91.4498 205.048C91.5337 205.01 91.6249 204.99 91.7171 204.99C91.8094 204.99 91.9005 205.01 91.9845 205.048C92.0749 205.077 92.1532 205.135 92.2069 205.213C92.2606 205.291 92.2866 205.385 92.2808 205.48C92.2357 206.06 91.0568 206.858 90.5157 206.994L90.4642 206.974ZM91.7139 205.216C91.6512 205.218 91.5897 205.233 91.5335 205.261C91.1341 205.454 90.8056 206.208 90.6445 206.665C91.2114 206.427 91.9909 205.796 92.0167 205.441C92.0167 205.383 92.0167 205.312 91.8685 205.248C91.8203 205.222 91.768 205.205 91.7139 205.196V205.216Z" fill="#263238"/>
<path d="M101.428 210.356C100.7 210.356 99.6891 209.422 99.1351 208.848C99.1209 208.829 99.1133 208.805 99.1133 208.781C99.1133 208.756 99.1209 208.733 99.1351 208.713C99.1478 208.692 99.1659 208.675 99.1874 208.664C99.2089 208.653 99.2331 208.647 99.2574 208.649C99.5151 208.649 101.75 208.984 102.066 209.615C102.1 209.671 102.117 209.736 102.117 209.802C102.117 209.867 102.1 209.932 102.066 209.989C102.019 210.087 101.947 210.172 101.858 210.235C101.769 210.298 101.666 210.337 101.557 210.349L101.428 210.356ZM99.5602 208.938C100.372 209.724 101.087 210.162 101.493 210.111C101.564 210.102 101.632 210.075 101.69 210.033C101.748 209.992 101.796 209.937 101.828 209.873C101.842 209.851 101.85 209.825 101.85 209.799C101.85 209.772 101.842 209.746 101.828 209.724C101.66 209.377 100.469 209.08 99.5602 208.938Z" fill="#263238"/>
<path d="M99.6302 208.906C99.4856 208.91 99.341 208.899 99.1986 208.874C99.1787 208.871 99.1599 208.863 99.1441 208.85C99.1283 208.838 99.116 208.821 99.1084 208.803C99.0988 208.784 99.0938 208.763 99.0938 208.742C99.0938 208.72 99.0988 208.699 99.1084 208.68C99.147 208.635 100.017 207.585 100.841 207.514C101.075 207.496 101.306 207.57 101.485 207.721C101.737 207.94 101.724 208.133 101.659 208.255C101.498 208.693 100.384 208.906 99.6302 208.906ZM99.4627 208.668C100.184 208.706 101.337 208.468 101.485 208.152C101.485 208.152 101.537 208.049 101.369 207.907C101.303 207.849 101.225 207.806 101.141 207.779C101.057 207.753 100.968 207.744 100.88 207.753C100.324 207.908 99.8299 208.229 99.4627 208.674V208.668Z" fill="#263238"/>
<path d="M90.6374 206.278L85.1747 204.732C85.0805 204.703 84.9792 204.711 84.89 204.752C84.8008 204.794 84.7302 204.867 84.6915 204.957L82.8492 209.1C82.8059 209.206 82.7856 209.32 82.7895 209.434C82.7935 209.549 82.8217 209.661 82.8722 209.764C82.9227 209.867 82.9944 209.958 83.0826 210.031C83.1708 210.104 83.2734 210.158 83.3838 210.188C85.3164 210.691 86.244 210.832 88.6469 211.522C90.1285 211.934 92.2415 212.701 94.2836 213.28C96.3256 213.86 97.0085 211.87 96.2161 211.444C92.6344 209.551 92.351 208.224 91.3718 206.806C91.1964 206.55 90.9365 206.363 90.6374 206.278Z" fill="#583AFB"/>
<path d="M99.2849 208.094L94.621 204.873C94.5419 204.816 94.4444 204.789 94.3471 204.799C94.2497 204.808 94.1592 204.853 94.0928 204.925L91.0006 208.249C90.9253 208.335 90.8691 208.436 90.8358 208.545C90.8024 208.655 90.7928 208.77 90.8074 208.883C90.822 208.996 90.8606 209.105 90.9206 209.203C90.9806 209.3 91.0605 209.383 91.1552 209.447C92.7979 210.549 93.6483 210.993 95.7032 212.417C96.9916 213.293 99.4846 215.238 101.224 216.45C102.963 217.661 104.258 215.999 103.64 215.342C100.87 212.385 100.264 210.529 99.8067 208.848C99.7273 208.543 99.5425 208.276 99.2849 208.094Z" fill="#583AFB"/>
<path d="M95.5044 202.104L87.0977 197.923L87.9673 195.643L96.9473 200.049L95.5044 202.104Z" fill="#00C7FF"/>
<path d="M84.5727 123.307L83.8641 125.162C83.7932 125.304 83.9607 125.452 84.199 125.452H105.509C105.696 125.452 105.85 125.362 105.863 125.246L106.044 123.404C106.044 123.281 105.895 123.172 105.696 123.172H84.9076C84.8451 123.166 84.782 123.175 84.7237 123.199C84.6654 123.222 84.6136 123.259 84.5727 123.307Z" fill="#583AFB"/>
<path opacity="0.4" d="M84.5727 123.307L83.8641 125.162C83.7932 125.304 83.9607 125.452 84.199 125.452H105.509C105.696 125.452 105.85 125.362 105.863 125.246L106.044 123.404C106.044 123.281 105.895 123.172 105.696 123.172H84.9076C84.8451 123.166 84.782 123.175 84.7237 123.199C84.6654 123.222 84.6136 123.259 84.5727 123.307Z" fill="white"/>
<path d="M87.9273 125.631H87.3669C87.2573 125.631 87.1736 125.573 87.18 125.503L87.4442 123.113C87.4442 123.048 87.5472 122.99 87.6567 122.99H88.2172C88.3267 122.99 88.4104 123.048 88.404 123.113L88.1399 125.503C88.1334 125.573 88.0368 125.631 87.9273 125.631Z" fill="#583AFB"/>
<path d="M101.069 125.631H100.515C100.406 125.631 100.322 125.573 100.328 125.503L100.586 123.113C100.586 123.048 100.696 122.99 100.805 122.99H101.359C101.469 122.99 101.559 123.048 101.546 123.113L101.288 125.503C101.256 125.573 101.185 125.631 101.069 125.631Z" fill="#583AFB"/>
<g style="mix-blend-mode:multiply">
<path d="M87.4376 234.726C96.9688 234.726 104.695 234.167 104.695 233.476C104.695 232.786 96.9688 232.227 87.4376 232.227C77.9063 232.227 70.1797 232.786 70.1797 233.476C70.1797 234.167 77.9063 234.726 87.4376 234.726Z" fill="#F5F5F5"/>
</g>
<path d="M97.9499 231.711C94.8964 230.822 91.508 229.682 89.4594 228.491C89.4015 228.452 89.337 228.433 89.2791 228.4V214.576H95.4569C95.9258 214.548 96.3665 214.342 96.6887 214C97.0109 213.659 97.1904 213.207 97.1904 212.737C97.1904 212.267 97.0109 211.815 96.6887 211.473C96.3665 211.131 95.9258 210.925 95.4569 210.898H89.3113V147.883H85.6007V210.898H79.4616C79.2109 210.883 78.9598 210.919 78.7238 211.005C78.4878 211.091 78.2717 211.224 78.089 211.396C77.9063 211.568 77.7607 211.776 77.6612 212.007C77.5616 212.237 77.5103 212.486 77.5103 212.737C77.5103 212.988 77.5616 213.236 77.6612 213.467C77.7607 213.698 77.9063 213.905 78.089 214.078C78.2717 214.25 78.4878 214.383 78.7238 214.469C78.9598 214.554 79.2109 214.591 79.4616 214.576H85.6007V228.381C85.5428 228.381 85.4848 228.433 85.4268 228.471C83.3461 229.682 79.9834 230.822 76.9299 231.692C76.7236 231.755 76.5465 231.889 76.4306 232.07C76.3147 232.252 76.2677 232.469 76.2981 232.683C76.3284 232.896 76.4342 233.091 76.5962 233.233C76.7582 233.375 76.9657 233.455 77.1811 233.457H97.6986C97.9046 233.443 98.0994 233.359 98.2507 233.219C98.402 233.078 98.5006 232.89 98.53 232.686C98.5594 232.482 98.5178 232.273 98.4123 232.096C98.3067 231.919 98.1435 231.783 97.9499 231.711Z" fill="#E0E0E0"/>
<path d="M98.8967 141.467H75.9893C74.1463 141.467 72.6523 142.961 72.6523 144.804V151.613C72.6523 153.456 74.1463 154.95 75.9893 154.95H98.8967C100.74 154.95 102.234 153.456 102.234 151.613V144.804C102.234 142.961 100.74 141.467 98.8967 141.467Z" fill="#00C7FF"/>
<path d="M75.7773 154.955V156.128C75.7773 157.094 76.8274 157.88 78.1158 157.88H96.7973C98.0857 157.88 99.1357 157.094 99.1357 156.128V154.955H75.7773Z" fill="#583AFB"/>
<path opacity="0.3" d="M75.7773 154.955V156.128C75.7773 157.094 76.8274 157.88 78.1158 157.88H96.7973C98.0857 157.88 99.1357 157.094 99.1357 156.128V154.955H75.7773Z" fill="white"/>
</svg>
