<svg width="333" height="248" viewBox="0 0 333 248" fill="none" xmlns="http://www.w3.org/2000/svg">
<path d="M332.651 217.779H0.347656V217.945H332.651V217.779Z" fill="#E6E6E6"/>
<path d="M70.7905 225.662H34.6758V225.828H70.7905V225.662Z" fill="#E6E6E6"/>
<path d="M167.164 222.053H153.566V222.219H167.164V222.053Z" fill="#E6E6E6"/>
<path d="M120.828 222.053H100.93V222.219H120.828V222.053Z" fill="#E6E6E6"/>
<path d="M285.405 223.967H243.309V224.133H285.405V223.967Z" fill="#E6E6E6"/>
<path d="M159.333 223.967H149.836V224.133H159.333V223.967Z" fill="#E6E6E6"/>
<path d="M86.0819 225.662H77.2227V225.828H86.0819V225.662Z" fill="#E6E6E6"/>
<path d="M296.492 223.967H290.836V224.133H296.492V223.967Z" fill="#E6E6E6"/>
<path d="M157.859 188.138H29.5304C28.5251 188.137 27.5616 187.736 26.8513 187.025C26.1411 186.313 25.7422 185.349 25.7422 184.344V3.94918C25.7509 2.94962 26.1537 1.99389 26.863 1.28956C27.5723 0.58524 28.5309 0.189212 29.5304 0.1875H157.859C158.866 0.1875 159.831 0.58732 160.543 1.299C161.255 2.01069 161.654 2.97594 161.654 3.98241V184.344C161.654 185.35 161.255 186.315 160.543 187.027C159.831 187.739 158.866 188.138 157.859 188.138ZM29.5304 0.320422C28.5692 0.322183 27.6479 0.705272 26.9688 1.38561C26.2897 2.06594 25.9083 2.98792 25.9083 3.94918V184.344C25.9083 185.305 26.2897 186.227 26.9688 186.907C27.6479 187.587 28.5692 187.971 29.5304 187.972H157.859C158.821 187.971 159.743 187.588 160.423 186.908C161.104 186.227 161.486 185.305 161.488 184.344V3.94918C161.486 2.98731 161.104 2.06534 160.423 1.3852C159.743 0.705056 158.821 0.322179 157.859 0.320422H29.5304Z" fill="#E6E6E6"/>
<path d="M301.623 188.138H173.287C172.281 188.137 171.317 187.736 170.606 187.025C169.894 186.314 169.494 185.349 169.492 184.344V3.94918C169.503 2.94902 169.907 1.99329 170.617 1.28915C171.328 0.585007 172.287 0.189194 173.287 0.1875H301.623C302.621 0.190959 303.578 0.587759 304.286 1.2919C304.994 1.99603 305.396 2.95077 305.404 3.94918V184.344C305.404 185.348 305.006 186.311 304.298 187.022C303.589 187.734 302.627 188.135 301.623 188.138ZM173.287 0.320422C172.325 0.322179 171.403 0.705056 170.723 1.3852C170.043 2.06534 169.66 2.98731 169.658 3.94918V184.344C169.66 185.305 170.043 186.227 170.723 186.908C171.403 187.588 172.325 187.971 173.287 187.972H301.623C302.585 187.971 303.507 187.588 304.187 186.908C304.867 186.227 305.25 185.305 305.252 184.344V3.94918C305.25 2.98731 304.867 2.06534 304.187 1.3852C303.507 0.705056 302.585 0.322179 301.623 0.320422H173.287Z" fill="#E6E6E6"/>
<path d="M274.271 20.498H126.137V106.605H274.271V20.498Z" fill="#E6E6E6"/>
<path d="M276.271 20.498H128.137V106.605H276.271V20.498Z" fill="#F5F5F5"/>
<path d="M272.676 102.564V24.5391L131.732 24.5391V102.564L272.676 102.564Z" fill="white"/>
<path d="M272.684 102.564V24.5391H271.168V102.564H272.684Z" fill="#E6E6E6"/>
<path d="M274.792 78.3125H129.629V83.7357H274.792V78.3125Z" fill="#F5F5F5"/>
<path d="M168.493 160.432H144.168V214.365H168.493V160.432Z" fill="#E6E6E6"/>
<path d="M255.917 214.363H148.836V217.779H255.917V214.363Z" fill="#E6E6E6"/>
<path d="M168.489 214.363H260.59V160.43H168.489V214.363Z" fill="#F5F5F5"/>
<path d="M178.057 184.756H251.031V167.071H178.057V184.756Z" fill="#E6E6E6"/>
<path d="M178.057 207.719H251.031V190.034H178.057V207.719Z" fill="#E6E6E6"/>
<path d="M225.484 174.699H203.605C203.014 174.699 202.535 175.178 202.535 175.769V176.055C202.535 176.646 203.014 177.125 203.605 177.125H225.484C226.075 177.125 226.554 176.646 226.554 176.055V175.769C226.554 175.178 226.075 174.699 225.484 174.699Z" fill="#F5F5F5"/>
<path d="M225.484 197.668H203.605C203.014 197.668 202.535 198.147 202.535 198.738V199.024C202.535 199.615 203.014 200.094 203.605 200.094H225.484C226.075 200.094 226.554 199.615 226.554 199.024V198.738C226.554 198.147 226.075 197.668 225.484 197.668Z" fill="#F5F5F5"/>
<path d="M95.6397 217.779H43.8203L36.6758 45.8652H88.4952L95.6397 217.779Z" fill="#E6E6E6"/>
<path d="M103.142 217.779H45.1484L38.0039 45.8652H95.9975L103.142 217.779Z" fill="#F5F5F5"/>
<path d="M50.8765 211.799L44.2305 51.8477H90.2612L96.9139 211.799H50.8765Z" fill="white"/>
<path d="M189.714 152.11C190.378 133.953 191.043 108.798 189.641 99.6925L187.348 97.918C187.348 97.918 187.846 99.6127 188.112 127.433C188.378 155.254 188.703 147.976 188.424 152.11H189.714Z" fill="#E0E0E0"/>
<path d="M193.983 91.9628C198.223 86.2139 207.149 82.1266 216.394 82.1466C220.022 82.1466 205.587 88.8325 199.745 96.203C195.206 101.925 190.201 111.555 188.566 116.899C189.351 105.654 189.763 97.705 193.983 91.9628Z" fill="#E0E0E0"/>
<path d="M185.472 106.936C181.578 100.954 172.905 96.3487 163.68 95.8303C160.058 95.6243 174.074 103.141 179.478 110.83C183.671 116.812 188.118 126.715 189.447 132.151C189.301 120.879 189.374 112.924 185.472 106.936Z" fill="#E0E0E0"/>
<path d="M187.214 82.3668C183.665 75.3884 175.384 68.6559 166.379 65.9177C162.836 64.8411 177.504 77.123 181.698 86.5206C184.955 93.8313 188.902 103.016 189.939 108.818C190.325 97.3736 190.757 89.3518 187.214 82.3668Z" fill="#E0E0E0"/>
<path d="M188.855 160.431C191.013 160.431 193.089 159.604 194.656 158.121C196.224 156.638 197.163 154.611 197.282 152.456L198.027 139.496H179.684L180.435 152.456C180.552 154.61 181.49 156.637 183.056 158.121C184.623 159.604 186.698 160.431 188.855 160.431Z" fill="#F0F0F0"/>
<path d="M178.5 142.453H199.216L199.808 137.076H177.902L178.5 142.453Z" fill="#EBEBEB"/>
<path d="M266.568 53.4629H280.285V16.2449H266.568V53.4629Z" fill="#E6E6E6"/>
<path d="M266.568 16.251H259.77V50.4783H266.568V16.251Z" fill="#F5F5F5"/>
<path d="M246.052 53.4629H259.77V16.2449H246.052V53.4629Z" fill="#E6E6E6"/>
<path d="M246.053 16.251H239.254V50.4783H246.053V16.251Z" fill="#F5F5F5"/>
<path d="M225.536 53.4629H239.254V16.2449H225.536V53.4629Z" fill="#E6E6E6"/>
<path d="M225.537 16.251H218.738V50.4783H225.537V16.251Z" fill="#F5F5F5"/>
<path d="M205.013 53.4629H218.73V16.2449H205.013V53.4629Z" fill="#E6E6E6"/>
<path d="M205.014 16.251H198.215V50.4783H205.014V16.251Z" fill="#F5F5F5"/>
<path d="M184.505 53.4629H198.223V16.2449H184.505V53.4629Z" fill="#E6E6E6"/>
<path d="M184.498 16.251H177.699V50.4783H184.498V16.251Z" fill="#F5F5F5"/>
<path d="M163.982 53.4629H177.699V16.2449H163.982V53.4629Z" fill="#E6E6E6"/>
<path d="M163.983 16.251H157.184V50.4783H163.983V16.251Z" fill="#F5F5F5"/>
<path d="M143.466 53.4629H157.184V16.2449H143.466V53.4629Z" fill="#E6E6E6"/>
<path d="M143.463 16.251H136.664V50.4783H143.463V16.251Z" fill="#F5F5F5"/>
<path d="M122.947 53.4629H136.664V16.2449H122.947V53.4629Z" fill="#E6E6E6"/>
<path d="M166.501 247.793C237.669 247.793 295.362 244.424 295.362 240.269C295.362 236.114 237.669 232.746 166.501 232.746C95.3335 232.746 37.6406 236.114 37.6406 240.269C37.6406 244.424 95.3335 247.793 166.501 247.793Z" fill="#F5F5F5"/>
<path d="M234.566 109.536L237.391 113.856L241.591 112.985L238.421 107.615L234.566 109.536Z" fill="#FFB7AD"/>
<path d="M242.575 72.5098C243.173 73.2342 243.672 73.8789 244.183 74.5833C244.695 75.2878 245.187 75.9657 245.672 76.6702C246.642 78.0725 247.566 79.5147 248.43 80.9968C249.294 82.4789 250.132 83.9942 250.863 85.5826C251.255 86.3602 251.587 87.1843 251.946 87.9885C252.305 88.7926 252.611 89.6367 252.87 90.5073L253.083 91.1719L253.189 91.4976C253.249 91.6903 253.308 91.8964 253.348 92.0891C253.495 92.7789 253.544 93.4858 253.495 94.1893C253.407 95.2913 253.167 96.3759 252.783 97.4126C252.133 99.1402 251.3 100.793 250.298 102.344C248.431 105.222 246.266 107.896 243.838 110.319L240.933 108.046C242.531 105.321 243.99 102.517 245.307 99.6457C245.911 98.3348 246.394 96.971 246.749 95.5716C246.881 95.0461 246.942 94.5051 246.928 93.9633C246.928 93.8486 246.903 93.7353 246.855 93.631L246.749 93.3784L246.529 92.8733C245.285 90.0774 243.818 87.386 242.143 84.8249C241.306 83.4957 240.422 82.213 239.531 80.917C238.641 79.6211 237.67 78.3251 236.793 77.1487L242.575 72.5098Z" fill="#FFB7AD"/>
<path d="M240.937 69.2404C245.516 70.2905 250.766 82.7652 250.766 82.7652L241.601 89.0657C239.313 85.7871 237.282 82.3363 235.527 78.7443C232.808 73.0354 236.284 68.1704 240.937 69.2404Z" fill="#583AFB"/>
<path d="M240.937 69.2404C245.516 70.2905 250.766 82.7652 250.766 82.7652L241.601 89.0657C239.313 85.7871 237.282 82.3363 235.527 78.7443C232.808 73.0354 236.284 68.1704 240.937 69.2404Z" fill="#00C7FF"/>
<path d="M237.68 77.1953L242.026 88.7661L241.594 89.0652C241.594 89.0652 239.713 86.4068 237.68 82.8644V77.1953Z" fill="#583AFB"/>
<path opacity="0.6" d="M237.68 77.1953L242.026 88.7661L241.594 89.0652C241.594 89.0652 239.713 86.4068 237.68 82.8644V77.1953Z" fill="#00C7FF"/>
<path d="M226.073 235.883H221.188L220.703 224.578H225.588L226.073 235.883Z" fill="#FFB7AD"/>
<path d="M255.392 235.883H250.507L248.055 224.578H252.933L255.392 235.883Z" fill="#FFB7AD"/>
<path d="M220.703 224.586L220.956 230.408H225.841L225.588 224.586H220.703Z" fill="#8A4743"/>
<path d="M252.94 224.586H248.055L249.317 230.408H254.202L252.94 224.586Z" fill="#8A4743"/>
<path d="M222.578 111.695C222.578 111.695 228.121 149.006 231.158 162.982C234.481 178.268 247.042 229.284 247.042 229.284H255.988C255.988 229.284 247.707 179.524 245.806 164.345C243.746 147.896 239.433 111.668 239.433 111.668L222.578 111.695Z" fill="#583AFB"/>
<path opacity="0.5" d="M222.578 111.695C222.578 111.695 228.121 149.006 231.158 162.982C234.481 178.268 247.042 229.284 247.042 229.284H255.988C255.988 229.284 247.707 179.524 245.806 164.345C243.746 147.896 239.433 111.668 239.433 111.668L222.578 111.695Z" fill="black"/>
<path opacity="0.4" d="M226.079 124.988C232.486 126.244 231.808 150.137 231.037 162.425C229.189 153.739 226.484 137.024 224.637 125.161C225.084 124.94 225.593 124.88 226.079 124.988Z" fill="black"/>
<path d="M213.314 111.695C213.314 111.695 212.65 148.196 213.175 163.089C213.726 178.575 219.156 229.284 219.156 229.284H227.424C227.424 229.284 227.73 179.479 228.088 164.272C228.487 147.69 230.488 111.695 230.488 111.695H213.314Z" fill="#583AFB"/>
<path opacity="0.5" d="M213.314 111.695C213.314 111.695 212.65 148.196 213.175 163.089C213.726 178.575 219.156 229.284 219.156 229.284H227.424C227.424 229.284 227.73 179.479 228.088 164.272C228.487 147.69 230.488 111.695 230.488 111.695H213.314Z" fill="black"/>
<path d="M241.991 107.004L238.422 107.615L241.592 112.985C241.592 112.985 244.078 111.789 244.53 109.47L241.991 107.004Z" fill="#FFB7AD"/>
<path d="M218.403 51.0959C218.403 51.488 218.197 51.807 217.938 51.807C217.679 51.807 217.473 51.488 217.473 51.0959C217.473 50.7038 217.679 50.3848 217.938 50.3848C218.197 50.3848 218.403 50.6971 218.403 51.0959Z" fill="#263238"/>
<path d="M218.232 51.8066C217.762 53.0103 217.129 54.144 216.352 55.1762C216.62 55.3685 216.928 55.4997 217.253 55.5606C217.578 55.6214 217.912 55.6105 218.232 55.5284V51.8066Z" fill="#FF725E"/>
<path d="M219.799 48.9167C219.75 48.9173 219.703 48.9008 219.666 48.8702C219.435 48.6925 219.165 48.5727 218.878 48.5207C218.591 48.4686 218.296 48.4859 218.017 48.5711C217.99 48.5817 217.96 48.5867 217.93 48.5858C217.9 48.5848 217.871 48.578 217.844 48.5656C217.816 48.5533 217.792 48.5356 217.772 48.5138C217.751 48.4919 217.735 48.4662 217.725 48.4382C217.713 48.4103 217.707 48.3803 217.707 48.35C217.707 48.3198 217.713 48.2898 217.725 48.2619C217.737 48.234 217.754 48.2087 217.776 48.1876C217.797 48.1665 217.823 48.15 217.851 48.1391C218.201 48.0262 218.573 47.9999 218.936 48.0624C219.298 48.1249 219.64 48.2744 219.932 48.498C219.957 48.5146 219.979 48.5363 219.995 48.5617C220.012 48.5871 220.023 48.6158 220.028 48.6458C220.033 48.6758 220.032 48.7065 220.024 48.736C220.017 48.7654 220.003 48.793 219.985 48.817C219.965 48.8484 219.938 48.8741 219.905 48.8915C219.872 48.909 219.836 48.9177 219.799 48.9167Z" fill="#263238"/>
<path d="M231.117 55.6348C230.413 59.2104 229.715 65.7501 232.214 68.136C232.214 68.136 231.237 71.7581 224.598 71.7581C217.287 71.7581 221.115 68.136 221.115 68.136C225.103 67.1856 224.996 64.2281 224.298 61.4567L231.117 55.6348Z" fill="#FFB7AD"/>
<path d="M233.174 69.3798C233.699 68.2367 234.27 66.9207 233.081 66.5087C231.752 66.0567 224.594 65.5982 222.121 66.4422C221.795 66.5326 221.49 66.6868 221.224 66.8959C220.958 67.105 220.736 67.3647 220.571 67.6602C220.406 67.9557 220.301 68.2809 220.263 68.6172C220.224 68.9534 220.253 69.2939 220.347 69.619L233.174 69.3798Z" fill="#583AFB"/>
<path d="M248.545 236.123C248.339 236.15 248.129 236.136 247.928 236.081C247.727 236.027 247.54 235.932 247.376 235.804C247.317 235.724 247.285 235.627 247.285 235.528C247.285 235.429 247.317 235.332 247.376 235.252C247.412 235.183 247.463 235.123 247.525 235.076C247.587 235.029 247.659 234.996 247.735 234.98C248.452 234.82 249.795 235.737 249.855 235.777C249.873 235.791 249.887 235.809 249.895 235.83C249.904 235.851 249.906 235.874 249.901 235.897C249.897 235.918 249.887 235.938 249.872 235.954C249.856 235.969 249.836 235.979 249.815 235.983C249.398 236.073 248.972 236.12 248.545 236.123ZM247.941 235.192H247.794C247.749 235.202 247.707 235.221 247.67 235.248C247.634 235.276 247.603 235.311 247.582 235.352C247.475 235.538 247.542 235.618 247.582 235.644C247.788 235.923 248.785 235.923 249.516 235.804C249.042 235.489 248.504 235.285 247.941 235.206V235.192Z" fill="#583AFB"/>
<path d="M249.794 236.004H249.741C249.236 235.725 248.259 234.674 248.359 234.116C248.376 234.03 248.422 233.952 248.49 233.897C248.558 233.841 248.643 233.81 248.731 233.81C248.818 233.801 248.907 233.809 248.991 233.834C249.076 233.859 249.154 233.901 249.223 233.957C249.788 234.422 249.887 235.831 249.887 235.891C249.89 235.912 249.886 235.933 249.877 235.952C249.867 235.971 249.853 235.987 249.834 235.997C249.821 236.002 249.808 236.004 249.794 236.004ZM248.811 234.01H248.757C248.605 234.01 248.591 234.103 248.585 234.129C248.525 234.455 249.15 235.259 249.648 235.638C249.613 235.083 249.414 234.551 249.076 234.11C249 234.052 248.906 234.021 248.811 234.023V234.01Z" fill="#583AFB"/>
<path d="M219.229 236.123C218.604 236.123 217.999 236.036 217.793 235.757C217.742 235.683 217.715 235.595 217.715 235.505C217.715 235.414 217.742 235.326 217.793 235.252C217.832 235.183 217.884 235.124 217.947 235.077C218.01 235.03 218.082 234.997 218.159 234.979C218.963 234.76 220.678 235.731 220.751 235.77C220.77 235.783 220.786 235.801 220.795 235.822C220.805 235.844 220.808 235.867 220.804 235.89C220.801 235.914 220.791 235.936 220.774 235.953C220.757 235.97 220.735 235.98 220.711 235.983C220.222 236.075 219.726 236.122 219.229 236.123ZM218.451 235.179C218.379 235.168 218.305 235.168 218.232 235.179C218.185 235.188 218.141 235.207 218.102 235.235C218.063 235.262 218.03 235.297 218.006 235.338C217.926 235.485 217.953 235.551 218.006 235.591C218.232 235.897 219.462 235.917 220.379 235.79C219.781 235.468 219.127 235.265 218.451 235.192V235.179Z" fill="#583AFB"/>
<path d="M220.704 236.003H220.657C220.066 235.744 218.903 234.674 218.989 234.136C218.989 234.003 219.102 233.843 219.421 233.81C219.54 233.792 219.661 233.8 219.776 233.835C219.891 233.869 219.996 233.929 220.086 234.009C220.71 234.514 220.837 235.83 220.843 235.89C220.846 235.91 220.843 235.931 220.835 235.95C220.826 235.969 220.813 235.985 220.797 235.997C220.783 236.004 220.767 236.009 220.751 236.01C220.735 236.011 220.719 236.009 220.704 236.003ZM219.514 234.009H219.441C219.235 234.009 219.222 234.116 219.215 234.142C219.162 234.475 219.959 235.305 220.544 235.664C220.487 235.106 220.254 234.58 219.88 234.162C219.778 234.075 219.648 234.025 219.514 234.023V234.009Z" fill="#583AFB"/>
<path d="M250.159 235.318H255.642C255.74 235.319 255.835 235.353 255.911 235.415C255.987 235.476 256.04 235.562 256.061 235.657L257.025 239.997C257.047 240.103 257.045 240.212 257.019 240.317C256.993 240.422 256.943 240.519 256.874 240.602C256.805 240.685 256.718 240.752 256.62 240.797C256.522 240.841 256.415 240.863 256.307 240.861C254.393 240.828 253.463 240.715 251.05 240.715C249.568 240.715 246.511 240.874 244.457 240.874C242.403 240.874 242.144 238.881 242.982 238.661C246.743 237.837 248.159 236.701 249.369 235.624C249.584 235.426 249.867 235.316 250.159 235.318Z" fill="#263238"/>
<path d="M221.224 235.318H226.54C226.638 235.319 226.733 235.353 226.809 235.415C226.885 235.476 226.938 235.562 226.959 235.657L227.923 239.997C227.946 240.102 227.945 240.21 227.92 240.315C227.895 240.419 227.847 240.516 227.779 240.6C227.712 240.683 227.626 240.749 227.529 240.795C227.432 240.84 227.326 240.863 227.218 240.861C225.298 240.828 222.52 240.715 220.1 240.715C217.276 240.715 214.83 240.874 211.514 240.874C209.52 240.874 208.955 238.881 209.792 238.661C213.614 237.824 216.731 237.738 220.034 235.704C220.386 235.465 220.798 235.331 221.224 235.318Z" fill="#263238"/>
<path d="M214.251 79.2284C212.317 82.0863 210.316 84.7513 208.156 87.3965C205.999 90.0687 203.691 92.6161 201.244 95.0262L200.287 95.93L200.042 96.156L199.875 96.3089L199.629 96.5215C199.314 96.7703 198.978 96.9926 198.626 97.1861C197.504 97.7763 196.269 98.1206 195.004 98.1963C193.073 98.3166 191.134 98.1576 189.248 97.7245C185.831 96.9676 182.518 95.8029 179.379 94.2552L180.595 90.7993C183.71 91.4188 186.859 91.8472 190.026 92.082C191.417 92.1952 192.816 92.1372 194.193 91.9091C194.588 91.852 194.965 91.7066 195.296 91.4838V91.4373L195.343 91.3841L195.542 91.1648L196.326 90.3008C198.407 87.9282 200.42 85.4093 202.374 82.824C204.328 80.2386 206.282 77.6068 208.15 75.0215L214.251 79.2284Z" fill="#FFB7AD"/>
<path d="M216.505 79.9941C215.825 84.1173 214.043 87.9799 211.347 91.1728C211.241 88.8334 211.201 86.7333 211.208 84.8524L216.505 79.9941Z" fill="#BED3FC"/>
<path d="M231.538 50.2582C231.245 55.0966 231.318 57.9411 228.879 60.4267C225.204 64.1618 219.236 61.942 218.079 57.1037C217.043 52.7572 217.701 45.5794 222.439 43.652C223.481 43.2237 224.616 43.0692 225.735 43.203C226.854 43.3369 227.92 43.7547 228.831 44.4167C229.743 45.0788 230.471 45.9631 230.944 46.9855C231.418 48.008 231.622 49.1346 231.538 50.2582Z" fill="#FFB7AD"/>
<path d="M222.14 47.0424C222.179 52.7314 224.027 59.7098 229.53 59.2246C233.185 58.9056 235.963 52.2396 236.342 49.415C236.92 45.0951 237.007 44.2709 234.574 43.7725C235.638 43.1943 236.023 40.4495 233.538 39.7848C230.082 38.8743 223.569 37.9838 225.615 35.877C221.535 36.6147 220.511 38.2496 221.256 40.2368C218.87 40.0507 217.401 38.8012 217.474 36.9137C213.52 38.5154 210.954 47.574 222.14 47.0424Z" fill="#263238"/>
<path d="M224.984 51.6683C224.714 52.8416 224.065 53.893 223.136 54.6591C221.907 55.656 220.923 54.7654 220.95 53.3299C220.95 52.0339 221.654 49.9537 223.037 49.515C224.419 49.0764 225.323 50.2527 224.984 51.6683Z" fill="#FFB7AD"/>
<path d="M238.277 44.7624C237.627 44.3482 236.884 44.1022 236.115 44.0465C235.345 43.9908 234.574 44.1272 233.871 44.4434C233.871 44.4434 236.636 40.7282 238.277 44.7624Z" fill="#263238"/>
<path d="M245.587 225.988C245.547 225.988 246.511 229.424 246.511 229.424H256.573L256.387 226.36L245.587 225.988Z" fill="#583AFB"/>
<path d="M217.549 225.988C217.509 225.988 218.014 229.424 218.014 229.424H228.076L228.349 226.36L217.549 225.988Z" fill="#583AFB"/>
<path d="M220.858 223.342C220.838 223.342 220.818 223.335 220.804 223.321C220.789 223.308 220.78 223.289 220.778 223.269C219.316 209.233 215.88 175.271 215.461 163.089C215.016 150.654 215.421 122.754 215.554 114.5C215.554 114.453 215.594 114.427 215.641 114.42C215.661 114.421 215.681 114.43 215.695 114.445C215.71 114.46 215.719 114.479 215.72 114.5C215.587 122.754 215.182 150.654 215.627 163.082C216.059 175.265 219.495 209.213 220.944 223.249C220.944 223.272 220.936 223.294 220.922 223.311C220.907 223.328 220.887 223.339 220.864 223.342H220.858Z" fill="#583AFB"/>
<path opacity="0.3" d="M220.858 223.342C220.838 223.342 220.818 223.335 220.804 223.321C220.789 223.308 220.78 223.289 220.778 223.269C219.316 209.233 215.88 175.271 215.461 163.089C215.016 150.654 215.421 122.754 215.554 114.5C215.554 114.453 215.594 114.427 215.641 114.42C215.661 114.421 215.681 114.43 215.695 114.445C215.71 114.46 215.719 114.479 215.72 114.5C215.587 122.754 215.182 150.654 215.627 163.082C216.059 175.265 219.495 209.213 220.944 223.249C220.944 223.272 220.936 223.294 220.922 223.311C220.907 223.328 220.887 223.339 220.864 223.342H220.858Z" fill="black"/>
<path d="M218.755 73.4465C219.42 78.0988 210.288 89.8823 210.288 89.8823L201.137 83.5818C201.137 83.5818 203.676 77.0753 207.949 72.8085C212.827 67.9768 218.051 68.4154 218.755 73.4465Z" fill="#583AFB"/>
<path d="M218.755 73.4465C219.42 78.0988 210.288 89.8823 210.288 89.8823L201.137 83.5818C201.137 83.5818 203.676 77.0753 207.949 72.8085C212.827 67.9768 218.051 68.4154 218.755 73.4465Z" fill="#00C7FF"/>
<path d="M213.606 69.492C213.606 69.492 208.409 75.3605 213.314 111.695H239.433C239.612 107.707 237.093 88.1276 240.955 69.2394C238.068 68.6836 235.149 68.3151 232.215 68.1362C228.518 67.9234 224.813 67.9234 221.116 68.1362C218.581 68.3916 216.07 68.8449 213.606 69.492Z" fill="#583AFB"/>
<path d="M213.606 69.492C213.606 69.492 208.409 75.3605 213.314 111.695H239.433C239.612 107.707 237.093 88.1276 240.955 69.2394C238.068 68.6836 235.149 68.3151 232.215 68.1362C228.518 67.9234 224.813 67.9234 221.116 68.1362C218.581 68.3916 216.07 68.8449 213.606 69.492Z" fill="#00C7FF"/>
<path d="M136.766 42.8188C138.852 33.6304 133.094 24.4907 123.906 22.4048C114.717 20.319 105.578 26.0767 103.492 35.2652C101.406 44.4536 107.164 53.5933 116.352 55.6792C125.54 57.765 134.68 52.0073 136.766 42.8188Z" fill="#583AFB"/>
<path d="M136.766 42.8188C138.852 33.6304 133.094 24.4907 123.906 22.4048C114.717 20.319 105.578 26.0767 103.492 35.2652C101.406 44.4536 107.164 53.5933 116.352 55.6792C125.54 57.765 134.68 52.0073 136.766 42.8188Z" fill="#00C7FF"/>
<path d="M118.376 61.1652C113.964 60.8244 109.755 59.1659 106.296 56.4048C102.837 53.6438 100.287 49.9073 98.9766 45.6798L99.6079 45.4805C100.88 49.5812 103.354 53.2055 106.71 55.8836C110.066 58.5616 114.149 60.1701 118.43 60.5006L118.376 61.1652Z" fill="#583AFB"/>
<path opacity="0.2" d="M118.376 61.1652C113.964 60.8244 109.755 59.1659 106.296 56.4048C102.837 53.6438 100.287 49.9073 98.9766 45.6798L99.6079 45.4805C100.88 49.5812 103.354 53.2055 106.71 55.8836C110.066 58.5616 114.149 60.1701 118.43 60.5006L118.376 61.1652Z" fill="white"/>
<path d="M99.5123 32.8998L98.8477 32.7137C99.7043 29.8511 101.13 27.1911 103.04 24.8933C104.95 22.5955 107.305 20.7072 109.963 19.3417C112.62 17.9762 115.527 17.1617 118.507 16.947C121.487 16.7323 124.48 17.1219 127.306 18.0923L127.093 18.7237C124.35 17.7833 121.445 17.4066 118.553 17.6164C115.661 17.8261 112.84 18.6179 110.262 19.9442C107.683 21.2706 105.398 23.1042 103.546 25.335C101.693 27.5658 100.31 30.1479 99.479 32.9264L99.5123 32.8998Z" fill="#583AFB"/>
<path opacity="0.2" d="M99.5123 32.8998L98.8477 32.7137C99.7043 29.8511 101.13 27.1911 103.04 24.8933C104.95 22.5955 107.305 20.7072 109.963 19.3417C112.62 17.9762 115.527 17.1617 118.507 16.947C121.487 16.7323 124.48 17.1219 127.306 18.0923L127.093 18.7237C124.35 17.7833 121.445 17.4066 118.553 17.6164C115.661 17.8261 112.84 18.6179 110.262 19.9442C107.683 21.2706 105.398 23.1042 103.546 25.335C101.693 27.5658 100.31 30.1479 99.479 32.9264L99.5123 32.8998Z" fill="white"/>
<path d="M140.672 32.6139C139.118 27.6449 135.811 23.41 131.367 20.6975L131.713 20.126C136.289 22.9271 139.695 27.2934 141.296 32.4146L140.672 32.6139Z" fill="#583AFB"/>
<path opacity="0.2" d="M140.672 32.6139C139.118 27.6449 135.811 23.41 131.367 20.6975L131.713 20.126C136.289 22.9271 139.695 27.2934 141.296 32.4146L140.672 32.6139Z" fill="white"/>
<path d="M136.774 89.9126C138.86 80.7241 133.102 71.5845 123.913 69.4986C114.725 67.4127 105.585 73.1705 103.499 82.3589C101.414 91.5474 107.171 100.687 116.36 102.773C125.548 104.859 134.688 99.101 136.774 89.9126Z" fill="#583AFB"/>
<path opacity="0.6" d="M136.774 89.9126C138.86 80.7241 133.102 71.5845 123.913 69.4986C114.725 67.4127 105.585 73.1705 103.499 82.3589C101.414 91.5474 107.171 100.687 116.36 102.773C125.548 104.859 134.688 99.101 136.774 89.9126Z" fill="white"/>
<path d="M136.766 137.004C138.852 127.816 133.094 118.676 123.906 116.59C114.717 114.505 105.578 120.262 103.492 129.451C101.406 138.639 107.164 147.779 116.352 149.865C125.54 151.951 134.68 146.193 136.766 137.004Z" fill="#583AFB"/>
<path opacity="0.6" d="M136.766 137.004C138.852 127.816 133.094 118.676 123.906 116.59C114.717 114.505 105.578 120.262 103.492 129.451C101.406 138.639 107.164 147.779 116.352 149.865C125.54 151.951 134.68 146.193 136.766 137.004Z" fill="white"/>
<path d="M136.766 184.104C138.852 174.916 133.094 165.776 123.906 163.69C114.717 161.604 105.578 167.362 103.492 176.55C101.406 185.739 107.164 194.878 116.352 196.964C125.54 199.05 134.68 193.292 136.766 184.104Z" fill="#583AFB"/>
<path opacity="0.6" d="M136.766 184.104C138.852 174.916 133.094 165.776 123.906 163.69C114.717 161.604 105.578 167.362 103.492 176.55C101.406 185.739 107.164 194.878 116.352 196.964C125.54 199.05 134.68 193.292 136.766 184.104Z" fill="white"/>
<path d="M89.6722 42.813C91.7581 33.6245 86.0004 24.4848 76.8119 22.399C67.6234 20.3131 58.4838 26.0709 56.3979 35.2593C54.312 44.4478 60.0698 53.5874 69.2583 55.6733C78.4467 57.7592 87.5864 52.0014 89.6722 42.813Z" fill="#583AFB"/>
<path opacity="0.6" d="M89.6722 42.813C91.7581 33.6245 86.0004 24.4848 76.8119 22.399C67.6234 20.3131 58.4838 26.0709 56.3979 35.2593C54.312 44.4478 60.0698 53.5874 69.2583 55.6733C78.4467 57.7592 87.5864 52.0014 89.6722 42.813Z" fill="white"/>
<path d="M89.6801 89.9126C91.7659 80.7241 86.0082 71.5845 76.8197 69.4986C67.6313 67.4127 58.4916 73.1705 56.4057 82.3589C54.3198 91.5474 60.0776 100.687 69.2661 102.773C78.4545 104.859 87.5942 99.101 89.6801 89.9126Z" fill="#583AFB"/>
<path opacity="0.6" d="M89.6801 89.9126C91.7659 80.7241 86.0082 71.5845 76.8197 69.4986C67.6313 67.4127 58.4916 73.1705 56.4057 82.3589C54.3198 91.5474 60.0776 100.687 69.2661 102.773C78.4545 104.859 87.5942 99.101 89.6801 89.9126Z" fill="white"/>
<path d="M89.6762 137.006C91.762 127.818 86.0043 118.678 76.8158 116.592C67.6273 114.506 58.4877 120.264 56.4018 129.453C54.3159 138.641 60.0737 147.781 69.2622 149.867C78.4506 151.953 87.5903 146.195 89.6762 137.006Z" fill="#583AFB"/>
<path opacity="0.6" d="M89.6762 137.006C91.762 127.818 86.0043 118.678 76.8158 116.592C67.6273 114.506 58.4877 120.264 56.4018 129.453C54.3159 138.641 60.0737 147.781 69.2622 149.867C78.4506 151.953 87.5903 146.195 89.6762 137.006Z" fill="white"/>
<path d="M89.6762 184.098C91.762 174.91 86.0043 165.77 76.8158 163.684C67.6274 161.598 58.4877 167.356 56.4018 176.544C54.3159 185.733 60.0737 194.873 69.2622 196.958C78.4506 199.044 87.5903 193.287 89.6762 184.098Z" fill="#583AFB"/>
<path opacity="0.6" d="M89.6762 184.098C91.762 174.91 86.0043 165.77 76.8158 163.684C67.6274 161.598 58.4877 167.356 56.4018 176.544C54.3159 185.733 60.0737 194.873 69.2622 196.958C78.4506 199.044 87.5903 193.287 89.6762 184.098Z" fill="white"/>
<path d="M177.17 86.8298L174.621 84.1914L171.902 87.6999C171.902 87.6999 173.973 89.6952 176.437 89.1184L177.17 86.8298Z" fill="#FFB7AD"/>
<path d="M171.116 82.7441L169.953 86.4228L171.901 87.6995L174.62 84.191L171.116 82.7441Z" fill="#FFB7AD"/>
<path d="M136.409 82.9413C136.62 82.3151 136.963 81.7419 137.417 81.2612C137.87 80.7805 138.422 80.4037 139.035 80.1566C139.648 79.9095 140.307 79.798 140.967 79.8298C141.627 79.8616 142.272 80.0359 142.858 80.3407L140.021 78.8655C138.971 78.3348 138.159 77.428 137.747 76.3257C137.335 75.2234 137.354 74.0065 137.799 72.9172C138.051 72.3429 138.418 71.8264 138.877 71.3995C139.336 70.9726 139.878 70.6445 140.469 70.4353C141.061 70.2261 141.688 70.1404 142.314 70.1834C142.939 70.2264 143.55 70.3973 144.107 70.6854L141.27 69.2149C140.218 68.6841 139.405 67.7766 138.994 66.6732C138.582 65.5698 138.601 64.3517 139.047 63.2618C139.298 62.6825 139.667 62.1614 140.129 61.7311C140.591 61.3009 141.137 60.9709 141.733 60.7618C142.329 60.5526 142.962 60.4689 143.591 60.5159C144.221 60.5629 144.834 60.7396 145.393 61.0348L131.922 53.9895C130.93 53.4941 130.148 52.6619 129.715 51.6421C129.282 50.6223 129.226 49.4815 129.557 48.4242C129.769 47.7983 130.114 47.2257 130.568 46.7454C131.022 46.2652 131.574 45.8887 132.187 45.6417C132.8 45.3947 133.459 45.2831 134.119 45.3145C134.779 45.3459 135.425 45.5196 136.012 45.8236L164.382 60.6565L161.469 48.7032C161.182 47.5023 161.362 46.2373 161.971 45.1636C162.581 44.0899 163.575 43.2874 164.753 42.9183C165.931 42.5492 167.206 42.6408 168.319 43.1748C169.432 43.7088 170.301 44.6453 170.751 45.7952L180.056 69.9667C180.853 72.0326 182.374 73.7383 184.335 74.766L185.957 75.6123C186.206 75.7419 186.426 75.9193 186.606 76.1344C186.786 76.3494 186.921 76.5978 187.005 76.8654C187.088 77.133 187.118 77.4144 187.093 77.6936C187.067 77.9727 186.986 78.244 186.856 78.4919L175.508 100.171C175.245 100.672 174.794 101.049 174.254 101.218C173.715 101.387 173.13 101.336 172.628 101.075L168.647 98.9941C167.139 98.2203 165.449 97.8705 163.758 97.9822C159.668 98.2107 155.594 97.3285 151.965 95.4289L138.726 88.5066C137.743 88.0034 136.971 87.1679 136.547 86.1488C136.122 85.1297 136.074 83.9931 136.409 82.9413Z" fill="#583AFB"/>
<path d="M173.641 102.017C173.184 102.017 172.733 101.907 172.327 101.695L168.345 99.6146C166.951 98.9004 165.389 98.5738 163.825 98.6689C159.608 98.9054 155.406 97.997 151.664 96.04L138.424 89.1176C137.29 88.5373 136.398 87.5738 135.908 86.3982C135.417 85.2225 135.359 83.911 135.743 82.6965C135.986 81.972 136.384 81.309 136.909 80.7538C137.434 80.1985 138.074 79.7643 138.784 79.4812C138.976 79.4016 139.173 79.3353 139.375 79.2826C138.269 78.62 137.439 77.5823 137.034 76.3585C136.63 75.1348 136.678 73.8065 137.171 72.6156C137.457 71.9482 137.88 71.348 138.411 70.8537C138.943 70.3594 139.572 69.9819 140.259 69.7455C140.387 69.7029 140.514 69.6604 140.642 69.6273C139.536 68.9653 138.705 67.9277 138.3 66.7037C137.896 65.4797 137.945 64.151 138.439 62.9603C138.725 62.2938 139.148 61.6945 139.679 61.201C140.211 60.7076 140.84 60.3308 141.526 60.0949C141.644 60.0523 141.767 60.0145 141.886 59.9814L131.597 54.6005C130.462 54.0203 129.571 53.0567 129.08 51.8811C128.589 50.7055 128.531 49.3939 128.916 48.1794C129.16 47.4568 129.559 46.7957 130.083 46.2412C130.607 45.6868 131.244 45.2521 131.952 44.967C132.66 44.6818 133.421 44.553 134.183 44.5892C134.945 44.6254 135.69 44.8259 136.367 45.1769L163.362 59.3053L160.813 48.8698C160.486 47.4944 160.694 46.0463 161.393 44.8179C162.093 43.5896 163.233 42.6726 164.583 42.2523C165.932 41.832 167.391 41.9397 168.665 42.5537C169.938 43.1677 170.931 44.2421 171.443 45.5599L180.748 69.7313C181.483 71.637 182.886 73.2101 184.696 74.1571L186.313 75.0034C186.644 75.1759 186.938 75.4121 187.178 75.6983C187.417 75.9846 187.598 76.3153 187.71 76.6715C187.821 77.0278 187.861 77.4025 187.828 77.7743C187.794 78.1461 187.688 78.5076 187.514 78.8382L176.166 100.522C175.921 100.978 175.557 101.358 175.112 101.621C174.667 101.885 174.158 102.021 173.641 102.017ZM164.359 97.2457C165.974 97.2369 167.567 97.6181 169.003 98.3569L172.984 100.437C173.15 100.525 173.331 100.579 173.518 100.597C173.704 100.614 173.892 100.594 174.071 100.538C174.25 100.483 174.417 100.392 174.56 100.271C174.704 100.151 174.822 100.003 174.908 99.8368L186.257 78.1525C186.343 77.9869 186.397 77.8057 186.413 77.6193C186.43 77.433 186.41 77.2452 186.353 77.0667C186.297 76.8883 186.206 76.7228 186.086 76.5796C185.965 76.4365 185.818 76.3187 185.651 76.2328L184.034 75.3864C181.926 74.2809 180.292 72.4454 179.438 70.2231L170.128 46.0517C169.754 45.0562 169.013 44.2416 168.058 43.7751C167.102 43.3087 166.004 43.2258 164.99 43.5435C163.975 43.8612 163.12 44.5554 162.601 45.4834C162.082 46.4115 161.938 47.5031 162.199 48.534L165.121 60.4921C165.153 60.624 165.147 60.7625 165.102 60.8908C165.058 61.0192 164.977 61.1319 164.87 61.2155C164.763 61.3009 164.634 61.3531 164.498 61.3657C164.362 61.3783 164.225 61.3507 164.104 61.2865L135.734 46.4536C135.239 46.1965 134.695 46.0494 134.139 46.0225C133.582 45.9956 133.026 46.0894 132.509 46.2975C131.986 46.5015 131.514 46.8195 131.129 47.2284C130.744 47.6374 130.454 48.127 130.282 48.6617C130 49.5585 130.045 50.5264 130.411 51.3926C130.776 52.2588 131.438 52.9668 132.277 53.3901L145.753 60.4353C145.92 60.5225 146.045 60.6723 146.102 60.8519C146.158 61.0315 146.141 61.2261 146.054 61.3928C146.01 61.4754 145.951 61.5487 145.88 61.6085C145.808 61.6683 145.726 61.7134 145.637 61.7413C145.457 61.7976 145.263 61.7802 145.096 61.6931C144.626 61.449 144.11 61.3041 143.581 61.2675C143.053 61.2309 142.522 61.3033 142.023 61.4803C141.521 61.6531 141.061 61.9287 140.672 62.2893C140.283 62.65 139.973 63.0879 139.762 63.575C139.386 64.499 139.372 65.531 139.722 66.4651C140.073 67.3993 140.762 68.1671 141.654 68.6154L144.491 70.0907C144.643 70.1851 144.754 70.3338 144.802 70.5068C144.849 70.6798 144.829 70.8644 144.746 71.0232C144.662 71.1821 144.522 71.3035 144.353 71.3629C144.183 71.4224 143.998 71.4155 143.834 71.3437C143.364 71.1005 142.849 70.9561 142.321 70.9195C141.793 70.8829 141.264 70.9549 140.765 71.1309C140.263 71.3048 139.803 71.5812 139.414 71.9427C139.025 72.3041 138.715 72.7426 138.505 73.2303C138.13 74.1538 138.116 75.1846 138.467 76.1177C138.817 77.0508 139.506 77.8177 140.396 78.266L143.233 79.7413C143.4 79.8284 143.525 79.9783 143.582 80.1578C143.638 80.3374 143.62 80.532 143.533 80.6988C143.446 80.8656 143.296 80.9909 143.117 81.0472C142.937 81.1035 142.743 81.0862 142.576 80.999C142.081 80.7439 141.536 80.5984 140.98 80.5723C140.424 80.5461 139.868 80.6401 139.351 80.8477C138.83 81.054 138.36 81.3728 137.976 81.7815C137.592 82.1902 137.302 82.6786 137.129 83.2119C136.845 84.1086 136.89 85.0769 137.256 85.9434C137.622 86.8098 138.284 87.5177 139.124 87.9403L152.364 94.8626C155.872 96.676 159.802 97.5137 163.745 97.2882C163.953 97.2882 164.156 97.2551 164.359 97.2551V97.2457Z" fill="#583AFB"/>
<path d="M146.401 82.9004C146.286 82.9013 146.172 82.8737 146.07 82.82L142.557 80.9712C142.474 80.9281 142.401 80.8691 142.341 80.7976C142.281 80.7261 142.236 80.6436 142.208 80.5547C142.18 80.4658 142.17 80.3722 142.179 80.2794C142.187 80.1866 142.213 80.0963 142.256 80.0138C142.3 79.9312 142.359 79.8579 142.43 79.7981C142.502 79.7383 142.584 79.6932 142.673 79.6653C142.762 79.6374 142.855 79.6273 142.948 79.6356C143.041 79.6439 143.131 79.6703 143.214 79.7135L146.746 81.5623C146.887 81.6356 146.999 81.754 147.064 81.8984C147.13 82.0429 147.145 82.2051 147.107 82.3592C147.07 82.5133 146.981 82.6503 146.857 82.7484C146.732 82.8465 146.578 82.9 146.42 82.9004H146.401Z" fill="#583AFB"/>
<path d="M147.667 73.2454C147.552 73.2468 147.438 73.2192 147.336 73.165L143.804 71.3162C143.715 71.2772 143.635 71.2202 143.568 71.1489C143.502 71.0775 143.451 70.9933 143.419 70.9014C143.387 70.8095 143.374 70.712 143.381 70.6148C143.388 70.5177 143.415 70.4231 143.46 70.3368C143.505 70.2506 143.568 70.1746 143.644 70.1136C143.72 70.0525 143.807 70.0078 143.901 69.9821C143.995 69.9565 144.093 69.9504 144.19 69.9643C144.286 69.9783 144.379 70.0119 144.461 70.0632L147.993 71.9072C148.134 71.9806 148.246 72.0989 148.312 72.2434C148.377 72.3878 148.392 72.55 148.355 72.7041C148.317 72.8582 148.229 72.9952 148.104 73.0934C147.98 73.1915 147.826 73.245 147.667 73.2454Z" fill="#583AFB"/>
<path d="M148.931 63.5938C148.817 63.5924 148.706 63.5649 148.604 63.5134L145.072 61.6646C144.99 61.6214 144.916 61.5624 144.857 61.491C144.797 61.4195 144.752 61.3369 144.724 61.248C144.696 61.1591 144.686 61.0656 144.694 60.9728C144.702 60.88 144.729 60.7897 144.772 60.7071C144.815 60.6245 144.874 60.5512 144.946 60.4915C145.017 60.4317 145.1 60.3866 145.189 60.3587C145.278 60.3308 145.371 60.3207 145.464 60.329C145.557 60.3372 145.647 60.3637 145.73 60.4069L149.262 62.2556C149.403 62.3292 149.515 62.4479 149.58 62.5929C149.646 62.7378 149.66 62.9005 149.622 63.0548C149.584 63.2092 149.495 63.3462 149.37 63.444C149.244 63.5417 149.09 63.5945 148.931 63.5938Z" fill="#583AFB"/>
<path opacity="0.3" d="M173.641 102.017C173.184 102.017 172.733 101.907 172.327 101.695L168.345 99.6146C166.951 98.9004 165.389 98.5738 163.825 98.6689C159.608 98.9054 155.406 97.997 151.664 96.04L138.424 89.1176C137.29 88.5373 136.398 87.5738 135.908 86.3982C135.417 85.2225 135.359 83.911 135.743 82.6965C135.986 81.972 136.384 81.309 136.909 80.7538C137.434 80.1985 138.074 79.7643 138.784 79.4812C138.976 79.4016 139.173 79.3353 139.375 79.2826C138.269 78.62 137.439 77.5823 137.034 76.3585C136.63 75.1348 136.678 73.8065 137.171 72.6156C137.457 71.9482 137.88 71.348 138.411 70.8537C138.943 70.3594 139.572 69.9819 140.259 69.7455C140.387 69.7029 140.514 69.6604 140.642 69.6273C139.536 68.9653 138.705 67.9277 138.3 66.7037C137.896 65.4797 137.945 64.151 138.439 62.9603C138.725 62.2938 139.148 61.6945 139.679 61.201C140.211 60.7076 140.84 60.3308 141.526 60.0949C141.644 60.0523 141.767 60.0145 141.886 59.9814L131.597 54.6005C130.462 54.0203 129.571 53.0567 129.08 51.8811C128.589 50.7055 128.531 49.3939 128.916 48.1794C129.16 47.4568 129.559 46.7957 130.083 46.2412C130.607 45.6868 131.244 45.2521 131.952 44.967C132.66 44.6818 133.421 44.553 134.183 44.5892C134.945 44.6254 135.69 44.8259 136.367 45.1769L163.362 59.3053L160.813 48.8698C160.486 47.4944 160.694 46.0463 161.393 44.8179C162.093 43.5896 163.233 42.6726 164.583 42.2523C165.932 41.832 167.391 41.9397 168.665 42.5537C169.938 43.1677 170.931 44.2421 171.443 45.5599L180.748 69.7313C181.483 71.637 182.886 73.2101 184.696 74.1571L186.313 75.0034C186.644 75.1759 186.938 75.4121 187.178 75.6983C187.417 75.9846 187.598 76.3153 187.71 76.6715C187.821 77.0278 187.861 77.4025 187.828 77.7743C187.794 78.1461 187.688 78.5076 187.514 78.8382L176.166 100.522C175.921 100.978 175.557 101.358 175.112 101.621C174.667 101.885 174.158 102.021 173.641 102.017ZM164.359 97.2457C165.974 97.2369 167.567 97.6181 169.003 98.3569L172.984 100.437C173.15 100.525 173.331 100.579 173.518 100.597C173.704 100.614 173.892 100.594 174.071 100.538C174.25 100.483 174.417 100.392 174.56 100.271C174.704 100.151 174.822 100.003 174.908 99.8368L186.257 78.1525C186.343 77.9869 186.397 77.8057 186.413 77.6193C186.43 77.433 186.41 77.2452 186.353 77.0667C186.297 76.8883 186.206 76.7228 186.086 76.5796C185.965 76.4365 185.818 76.3187 185.651 76.2328L184.034 75.3864C181.926 74.2809 180.292 72.4454 179.438 70.2231L170.128 46.0517C169.754 45.0562 169.013 44.2416 168.058 43.7751C167.102 43.3087 166.004 43.2258 164.99 43.5435C163.975 43.8612 163.12 44.5554 162.601 45.4834C162.082 46.4115 161.938 47.5031 162.199 48.534L165.121 60.4921C165.153 60.624 165.147 60.7625 165.102 60.8908C165.058 61.0192 164.977 61.1319 164.87 61.2155C164.763 61.3009 164.634 61.3531 164.498 61.3657C164.362 61.3783 164.225 61.3507 164.104 61.2865L135.734 46.4536C135.239 46.1965 134.695 46.0494 134.139 46.0225C133.582 45.9956 133.026 46.0894 132.509 46.2975C131.986 46.5015 131.514 46.8195 131.129 47.2284C130.744 47.6374 130.454 48.127 130.282 48.6617C130 49.5585 130.045 50.5264 130.411 51.3926C130.776 52.2588 131.438 52.9668 132.277 53.3901L145.753 60.4353C145.92 60.5225 146.045 60.6723 146.102 60.8519C146.158 61.0315 146.141 61.2261 146.054 61.3928C146.01 61.4754 145.951 61.5487 145.88 61.6085C145.808 61.6683 145.726 61.7134 145.637 61.7413C145.457 61.7976 145.263 61.7802 145.096 61.6931C144.626 61.449 144.11 61.3041 143.581 61.2675C143.053 61.2309 142.522 61.3033 142.023 61.4803C141.521 61.6531 141.061 61.9287 140.672 62.2893C140.283 62.65 139.973 63.0879 139.762 63.575C139.386 64.499 139.372 65.531 139.722 66.4651C140.073 67.3993 140.762 68.1671 141.654 68.6154L144.491 70.0907C144.643 70.1851 144.754 70.3338 144.802 70.5068C144.849 70.6798 144.829 70.8644 144.746 71.0232C144.662 71.1821 144.522 71.3035 144.353 71.3629C144.183 71.4224 143.998 71.4155 143.834 71.3437C143.364 71.1005 142.849 70.9561 142.321 70.9195C141.793 70.8829 141.264 70.9549 140.765 71.1309C140.263 71.3048 139.803 71.5812 139.414 71.9427C139.025 72.3041 138.715 72.7426 138.505 73.2303C138.13 74.1538 138.116 75.1846 138.467 76.1177C138.817 77.0508 139.506 77.8177 140.396 78.266L143.233 79.7413C143.4 79.8284 143.525 79.9783 143.582 80.1578C143.638 80.3374 143.62 80.532 143.533 80.6988C143.446 80.8656 143.296 80.9909 143.117 81.0472C142.937 81.1035 142.743 81.0862 142.576 80.999C142.081 80.7439 141.536 80.5984 140.98 80.5723C140.424 80.5461 139.868 80.6401 139.351 80.8477C138.83 81.054 138.36 81.3728 137.976 81.7815C137.592 82.1902 137.302 82.6786 137.129 83.2119C136.845 84.1086 136.89 85.0769 137.256 85.9434C137.622 86.8098 138.284 87.5177 139.124 87.9403L152.364 94.8626C155.872 96.676 159.802 97.5137 163.745 97.2882C163.953 97.2882 164.156 97.2551 164.359 97.2551V97.2457Z" fill="black"/>
</svg>
